%TF.GenerationSoftware,KiCad,Pcbnew,9.0.0*%
%TF.CreationDate,2025-03-25T10:56:33+03:00*%
%TF.ProjectId,Autopilot DronmarketV2,4175746f-7069-46c6-9f74-2044726f6e6d,rev?*%
%TF.SameCoordinates,Original*%
%TF.FileFunction,Soldermask,Bot*%
%TF.FilePolarity,Negative*%
%FSLAX46Y46*%
G04 Gerber Fmt 4.6, Leading zero omitted, Abs format (unit mm)*
G04 Created by KiCad (PCBNEW 9.0.0) date 2025-03-25 10:56:33*
%MOMM*%
%LPD*%
G01*
G04 APERTURE LIST*
G04 Aperture macros list*
%AMRoundRect*
0 Rectangle with rounded corners*
0 $1 Rounding radius*
0 $2 $3 $4 $5 $6 $7 $8 $9 X,Y pos of 4 corners*
0 Add a 4 corners polygon primitive as box body*
4,1,4,$2,$3,$4,$5,$6,$7,$8,$9,$2,$3,0*
0 Add four circle primitives for the rounded corners*
1,1,$1+$1,$2,$3*
1,1,$1+$1,$4,$5*
1,1,$1+$1,$6,$7*
1,1,$1+$1,$8,$9*
0 Add four rect primitives between the rounded corners*
20,1,$1+$1,$2,$3,$4,$5,0*
20,1,$1+$1,$4,$5,$6,$7,0*
20,1,$1+$1,$6,$7,$8,$9,0*
20,1,$1+$1,$8,$9,$2,$3,0*%
G04 Aperture macros list end*
%ADD10C,0.010000*%
%ADD11R,0.700000X1.100000*%
%ADD12R,1.140000X1.830000*%
%ADD13R,0.860000X2.800000*%
%ADD14R,0.700000X3.330000*%
%ADD15R,0.900000X0.930000*%
%ADD16R,1.050000X0.780000*%
%ADD17C,0.800000*%
%ADD18C,6.400000*%
%ADD19RoundRect,0.135000X0.135000X0.185000X-0.135000X0.185000X-0.135000X-0.185000X0.135000X-0.185000X0*%
%ADD20RoundRect,0.140000X-0.170000X0.140000X-0.170000X-0.140000X0.170000X-0.140000X0.170000X0.140000X0*%
%ADD21RoundRect,0.135000X0.185000X-0.135000X0.185000X0.135000X-0.185000X0.135000X-0.185000X-0.135000X0*%
%ADD22RoundRect,0.140000X0.140000X0.170000X-0.140000X0.170000X-0.140000X-0.170000X0.140000X-0.170000X0*%
%ADD23RoundRect,0.140000X-0.140000X-0.170000X0.140000X-0.170000X0.140000X0.170000X-0.140000X0.170000X0*%
%ADD24RoundRect,0.135000X-0.185000X0.135000X-0.185000X-0.135000X0.185000X-0.135000X0.185000X0.135000X0*%
%ADD25RoundRect,0.135000X-0.135000X-0.185000X0.135000X-0.185000X0.135000X0.185000X-0.135000X0.185000X0*%
%ADD26RoundRect,0.250000X-0.925000X-1.500000X0.925000X-1.500000X0.925000X1.500000X-0.925000X1.500000X0*%
%ADD27RoundRect,0.150000X0.150000X-0.512500X0.150000X0.512500X-0.150000X0.512500X-0.150000X-0.512500X0*%
%ADD28RoundRect,0.140000X0.170000X-0.140000X0.170000X0.140000X-0.170000X0.140000X-0.170000X-0.140000X0*%
%ADD29R,1.550000X0.600000*%
%ADD30RoundRect,0.150000X-0.512500X-0.150000X0.512500X-0.150000X0.512500X0.150000X-0.512500X0.150000X0*%
%ADD31R,1.380000X0.450000*%
%ADD32R,1.300000X1.650000*%
%ADD33R,1.550000X1.425000*%
%ADD34R,1.900000X1.800000*%
%ADD35R,1.900000X1.000000*%
%ADD36RoundRect,0.051250X-0.153750X0.688750X-0.153750X-0.688750X0.153750X-0.688750X0.153750X0.688750X0*%
%ADD37R,6.700000X2.850000*%
G04 APERTURE END LIST*
D10*
%TO.C,U8*%
X155353000Y-95056000D02*
X155355000Y-95056000D01*
X155358000Y-95057000D01*
X155360000Y-95057000D01*
X155363000Y-95058000D01*
X155365000Y-95059000D01*
X155368000Y-95060000D01*
X155370000Y-95062000D01*
X155372000Y-95063000D01*
X155374000Y-95065000D01*
X155376000Y-95066000D01*
X155378000Y-95068000D01*
X155380000Y-95070000D01*
X155382000Y-95072000D01*
X155384000Y-95074000D01*
X155385000Y-95076000D01*
X155387000Y-95078000D01*
X155388000Y-95080000D01*
X155390000Y-95082000D01*
X155391000Y-95085000D01*
X155392000Y-95087000D01*
X155393000Y-95090000D01*
X155393000Y-95092000D01*
X155394000Y-95095000D01*
X155394000Y-95097000D01*
X155395000Y-95100000D01*
X155395000Y-95102000D01*
X155395000Y-95105000D01*
X155395000Y-95445000D01*
X155395000Y-95448000D01*
X155395000Y-95450000D01*
X155394000Y-95453000D01*
X155394000Y-95455000D01*
X155393000Y-95458000D01*
X155393000Y-95460000D01*
X155392000Y-95463000D01*
X155391000Y-95465000D01*
X155390000Y-95468000D01*
X155388000Y-95470000D01*
X155387000Y-95472000D01*
X155385000Y-95474000D01*
X155384000Y-95476000D01*
X155382000Y-95478000D01*
X155380000Y-95480000D01*
X155378000Y-95482000D01*
X155376000Y-95484000D01*
X155374000Y-95485000D01*
X155372000Y-95487000D01*
X155370000Y-95488000D01*
X155368000Y-95490000D01*
X155365000Y-95491000D01*
X155363000Y-95492000D01*
X155360000Y-95493000D01*
X155358000Y-95493000D01*
X155355000Y-95494000D01*
X155353000Y-95494000D01*
X155350000Y-95495000D01*
X155348000Y-95495000D01*
X155345000Y-95495000D01*
X154855000Y-95495000D01*
X154852000Y-95495000D01*
X154850000Y-95495000D01*
X154847000Y-95494000D01*
X154845000Y-95494000D01*
X154842000Y-95493000D01*
X154840000Y-95493000D01*
X154837000Y-95492000D01*
X154835000Y-95491000D01*
X154832000Y-95490000D01*
X154830000Y-95488000D01*
X154828000Y-95487000D01*
X154826000Y-95485000D01*
X154824000Y-95484000D01*
X154822000Y-95482000D01*
X154820000Y-95480000D01*
X154818000Y-95478000D01*
X154816000Y-95476000D01*
X154815000Y-95474000D01*
X154813000Y-95472000D01*
X154812000Y-95470000D01*
X154810000Y-95468000D01*
X154809000Y-95465000D01*
X154808000Y-95463000D01*
X154807000Y-95460000D01*
X154807000Y-95458000D01*
X154806000Y-95455000D01*
X154806000Y-95453000D01*
X154805000Y-95450000D01*
X154805000Y-95448000D01*
X154805000Y-95445000D01*
X154805000Y-95105000D01*
X154805000Y-95102000D01*
X154805000Y-95100000D01*
X154806000Y-95097000D01*
X154806000Y-95095000D01*
X154807000Y-95092000D01*
X154807000Y-95090000D01*
X154808000Y-95087000D01*
X154809000Y-95085000D01*
X154810000Y-95082000D01*
X154812000Y-95080000D01*
X154813000Y-95078000D01*
X154815000Y-95076000D01*
X154816000Y-95074000D01*
X154818000Y-95072000D01*
X154820000Y-95070000D01*
X154822000Y-95068000D01*
X154824000Y-95066000D01*
X154826000Y-95065000D01*
X154828000Y-95063000D01*
X154830000Y-95062000D01*
X154832000Y-95060000D01*
X154835000Y-95059000D01*
X154837000Y-95058000D01*
X154840000Y-95057000D01*
X154842000Y-95057000D01*
X154845000Y-95056000D01*
X154847000Y-95056000D01*
X154850000Y-95055000D01*
X154852000Y-95055000D01*
X154855000Y-95055000D01*
X155345000Y-95055000D01*
X155348000Y-95055000D01*
X155350000Y-95055000D01*
X155353000Y-95056000D01*
G36*
X155353000Y-95056000D02*
G01*
X155355000Y-95056000D01*
X155358000Y-95057000D01*
X155360000Y-95057000D01*
X155363000Y-95058000D01*
X155365000Y-95059000D01*
X155368000Y-95060000D01*
X155370000Y-95062000D01*
X155372000Y-95063000D01*
X155374000Y-95065000D01*
X155376000Y-95066000D01*
X155378000Y-95068000D01*
X155380000Y-95070000D01*
X155382000Y-95072000D01*
X155384000Y-95074000D01*
X155385000Y-95076000D01*
X155387000Y-95078000D01*
X155388000Y-95080000D01*
X155390000Y-95082000D01*
X155391000Y-95085000D01*
X155392000Y-95087000D01*
X155393000Y-95090000D01*
X155393000Y-95092000D01*
X155394000Y-95095000D01*
X155394000Y-95097000D01*
X155395000Y-95100000D01*
X155395000Y-95102000D01*
X155395000Y-95105000D01*
X155395000Y-95445000D01*
X155395000Y-95448000D01*
X155395000Y-95450000D01*
X155394000Y-95453000D01*
X155394000Y-95455000D01*
X155393000Y-95458000D01*
X155393000Y-95460000D01*
X155392000Y-95463000D01*
X155391000Y-95465000D01*
X155390000Y-95468000D01*
X155388000Y-95470000D01*
X155387000Y-95472000D01*
X155385000Y-95474000D01*
X155384000Y-95476000D01*
X155382000Y-95478000D01*
X155380000Y-95480000D01*
X155378000Y-95482000D01*
X155376000Y-95484000D01*
X155374000Y-95485000D01*
X155372000Y-95487000D01*
X155370000Y-95488000D01*
X155368000Y-95490000D01*
X155365000Y-95491000D01*
X155363000Y-95492000D01*
X155360000Y-95493000D01*
X155358000Y-95493000D01*
X155355000Y-95494000D01*
X155353000Y-95494000D01*
X155350000Y-95495000D01*
X155348000Y-95495000D01*
X155345000Y-95495000D01*
X154855000Y-95495000D01*
X154852000Y-95495000D01*
X154850000Y-95495000D01*
X154847000Y-95494000D01*
X154845000Y-95494000D01*
X154842000Y-95493000D01*
X154840000Y-95493000D01*
X154837000Y-95492000D01*
X154835000Y-95491000D01*
X154832000Y-95490000D01*
X154830000Y-95488000D01*
X154828000Y-95487000D01*
X154826000Y-95485000D01*
X154824000Y-95484000D01*
X154822000Y-95482000D01*
X154820000Y-95480000D01*
X154818000Y-95478000D01*
X154816000Y-95476000D01*
X154815000Y-95474000D01*
X154813000Y-95472000D01*
X154812000Y-95470000D01*
X154810000Y-95468000D01*
X154809000Y-95465000D01*
X154808000Y-95463000D01*
X154807000Y-95460000D01*
X154807000Y-95458000D01*
X154806000Y-95455000D01*
X154806000Y-95453000D01*
X154805000Y-95450000D01*
X154805000Y-95448000D01*
X154805000Y-95445000D01*
X154805000Y-95105000D01*
X154805000Y-95102000D01*
X154805000Y-95100000D01*
X154806000Y-95097000D01*
X154806000Y-95095000D01*
X154807000Y-95092000D01*
X154807000Y-95090000D01*
X154808000Y-95087000D01*
X154809000Y-95085000D01*
X154810000Y-95082000D01*
X154812000Y-95080000D01*
X154813000Y-95078000D01*
X154815000Y-95076000D01*
X154816000Y-95074000D01*
X154818000Y-95072000D01*
X154820000Y-95070000D01*
X154822000Y-95068000D01*
X154824000Y-95066000D01*
X154826000Y-95065000D01*
X154828000Y-95063000D01*
X154830000Y-95062000D01*
X154832000Y-95060000D01*
X154835000Y-95059000D01*
X154837000Y-95058000D01*
X154840000Y-95057000D01*
X154842000Y-95057000D01*
X154845000Y-95056000D01*
X154847000Y-95056000D01*
X154850000Y-95055000D01*
X154852000Y-95055000D01*
X154855000Y-95055000D01*
X155345000Y-95055000D01*
X155348000Y-95055000D01*
X155350000Y-95055000D01*
X155353000Y-95056000D01*
G37*
X155353000Y-95706000D02*
X155355000Y-95706000D01*
X155358000Y-95707000D01*
X155360000Y-95707000D01*
X155363000Y-95708000D01*
X155365000Y-95709000D01*
X155368000Y-95710000D01*
X155370000Y-95712000D01*
X155372000Y-95713000D01*
X155374000Y-95715000D01*
X155376000Y-95716000D01*
X155378000Y-95718000D01*
X155380000Y-95720000D01*
X155382000Y-95722000D01*
X155384000Y-95724000D01*
X155385000Y-95726000D01*
X155387000Y-95728000D01*
X155388000Y-95730000D01*
X155390000Y-95732000D01*
X155391000Y-95735000D01*
X155392000Y-95737000D01*
X155393000Y-95740000D01*
X155393000Y-95742000D01*
X155394000Y-95745000D01*
X155394000Y-95747000D01*
X155395000Y-95750000D01*
X155395000Y-95752000D01*
X155395000Y-95755000D01*
X155395000Y-96095000D01*
X155395000Y-96098000D01*
X155395000Y-96100000D01*
X155394000Y-96103000D01*
X155394000Y-96105000D01*
X155393000Y-96108000D01*
X155393000Y-96110000D01*
X155392000Y-96113000D01*
X155391000Y-96115000D01*
X155390000Y-96118000D01*
X155388000Y-96120000D01*
X155387000Y-96122000D01*
X155385000Y-96124000D01*
X155384000Y-96126000D01*
X155382000Y-96128000D01*
X155380000Y-96130000D01*
X155378000Y-96132000D01*
X155376000Y-96134000D01*
X155374000Y-96135000D01*
X155372000Y-96137000D01*
X155370000Y-96138000D01*
X155368000Y-96140000D01*
X155365000Y-96141000D01*
X155363000Y-96142000D01*
X155360000Y-96143000D01*
X155358000Y-96143000D01*
X155355000Y-96144000D01*
X155353000Y-96144000D01*
X155350000Y-96145000D01*
X155348000Y-96145000D01*
X155345000Y-96145000D01*
X154855000Y-96145000D01*
X154852000Y-96145000D01*
X154850000Y-96145000D01*
X154847000Y-96144000D01*
X154845000Y-96144000D01*
X154842000Y-96143000D01*
X154840000Y-96143000D01*
X154837000Y-96142000D01*
X154835000Y-96141000D01*
X154832000Y-96140000D01*
X154830000Y-96138000D01*
X154828000Y-96137000D01*
X154826000Y-96135000D01*
X154824000Y-96134000D01*
X154822000Y-96132000D01*
X154820000Y-96130000D01*
X154818000Y-96128000D01*
X154816000Y-96126000D01*
X154815000Y-96124000D01*
X154813000Y-96122000D01*
X154812000Y-96120000D01*
X154810000Y-96118000D01*
X154809000Y-96115000D01*
X154808000Y-96113000D01*
X154807000Y-96110000D01*
X154807000Y-96108000D01*
X154806000Y-96105000D01*
X154806000Y-96103000D01*
X154805000Y-96100000D01*
X154805000Y-96098000D01*
X154805000Y-96095000D01*
X154805000Y-95755000D01*
X154805000Y-95752000D01*
X154805000Y-95750000D01*
X154806000Y-95747000D01*
X154806000Y-95745000D01*
X154807000Y-95742000D01*
X154807000Y-95740000D01*
X154808000Y-95737000D01*
X154809000Y-95735000D01*
X154810000Y-95732000D01*
X154812000Y-95730000D01*
X154813000Y-95728000D01*
X154815000Y-95726000D01*
X154816000Y-95724000D01*
X154818000Y-95722000D01*
X154820000Y-95720000D01*
X154822000Y-95718000D01*
X154824000Y-95716000D01*
X154826000Y-95715000D01*
X154828000Y-95713000D01*
X154830000Y-95712000D01*
X154832000Y-95710000D01*
X154835000Y-95709000D01*
X154837000Y-95708000D01*
X154840000Y-95707000D01*
X154842000Y-95707000D01*
X154845000Y-95706000D01*
X154847000Y-95706000D01*
X154850000Y-95705000D01*
X154852000Y-95705000D01*
X154855000Y-95705000D01*
X155345000Y-95705000D01*
X155348000Y-95705000D01*
X155350000Y-95705000D01*
X155353000Y-95706000D01*
G36*
X155353000Y-95706000D02*
G01*
X155355000Y-95706000D01*
X155358000Y-95707000D01*
X155360000Y-95707000D01*
X155363000Y-95708000D01*
X155365000Y-95709000D01*
X155368000Y-95710000D01*
X155370000Y-95712000D01*
X155372000Y-95713000D01*
X155374000Y-95715000D01*
X155376000Y-95716000D01*
X155378000Y-95718000D01*
X155380000Y-95720000D01*
X155382000Y-95722000D01*
X155384000Y-95724000D01*
X155385000Y-95726000D01*
X155387000Y-95728000D01*
X155388000Y-95730000D01*
X155390000Y-95732000D01*
X155391000Y-95735000D01*
X155392000Y-95737000D01*
X155393000Y-95740000D01*
X155393000Y-95742000D01*
X155394000Y-95745000D01*
X155394000Y-95747000D01*
X155395000Y-95750000D01*
X155395000Y-95752000D01*
X155395000Y-95755000D01*
X155395000Y-96095000D01*
X155395000Y-96098000D01*
X155395000Y-96100000D01*
X155394000Y-96103000D01*
X155394000Y-96105000D01*
X155393000Y-96108000D01*
X155393000Y-96110000D01*
X155392000Y-96113000D01*
X155391000Y-96115000D01*
X155390000Y-96118000D01*
X155388000Y-96120000D01*
X155387000Y-96122000D01*
X155385000Y-96124000D01*
X155384000Y-96126000D01*
X155382000Y-96128000D01*
X155380000Y-96130000D01*
X155378000Y-96132000D01*
X155376000Y-96134000D01*
X155374000Y-96135000D01*
X155372000Y-96137000D01*
X155370000Y-96138000D01*
X155368000Y-96140000D01*
X155365000Y-96141000D01*
X155363000Y-96142000D01*
X155360000Y-96143000D01*
X155358000Y-96143000D01*
X155355000Y-96144000D01*
X155353000Y-96144000D01*
X155350000Y-96145000D01*
X155348000Y-96145000D01*
X155345000Y-96145000D01*
X154855000Y-96145000D01*
X154852000Y-96145000D01*
X154850000Y-96145000D01*
X154847000Y-96144000D01*
X154845000Y-96144000D01*
X154842000Y-96143000D01*
X154840000Y-96143000D01*
X154837000Y-96142000D01*
X154835000Y-96141000D01*
X154832000Y-96140000D01*
X154830000Y-96138000D01*
X154828000Y-96137000D01*
X154826000Y-96135000D01*
X154824000Y-96134000D01*
X154822000Y-96132000D01*
X154820000Y-96130000D01*
X154818000Y-96128000D01*
X154816000Y-96126000D01*
X154815000Y-96124000D01*
X154813000Y-96122000D01*
X154812000Y-96120000D01*
X154810000Y-96118000D01*
X154809000Y-96115000D01*
X154808000Y-96113000D01*
X154807000Y-96110000D01*
X154807000Y-96108000D01*
X154806000Y-96105000D01*
X154806000Y-96103000D01*
X154805000Y-96100000D01*
X154805000Y-96098000D01*
X154805000Y-96095000D01*
X154805000Y-95755000D01*
X154805000Y-95752000D01*
X154805000Y-95750000D01*
X154806000Y-95747000D01*
X154806000Y-95745000D01*
X154807000Y-95742000D01*
X154807000Y-95740000D01*
X154808000Y-95737000D01*
X154809000Y-95735000D01*
X154810000Y-95732000D01*
X154812000Y-95730000D01*
X154813000Y-95728000D01*
X154815000Y-95726000D01*
X154816000Y-95724000D01*
X154818000Y-95722000D01*
X154820000Y-95720000D01*
X154822000Y-95718000D01*
X154824000Y-95716000D01*
X154826000Y-95715000D01*
X154828000Y-95713000D01*
X154830000Y-95712000D01*
X154832000Y-95710000D01*
X154835000Y-95709000D01*
X154837000Y-95708000D01*
X154840000Y-95707000D01*
X154842000Y-95707000D01*
X154845000Y-95706000D01*
X154847000Y-95706000D01*
X154850000Y-95705000D01*
X154852000Y-95705000D01*
X154855000Y-95705000D01*
X155345000Y-95705000D01*
X155348000Y-95705000D01*
X155350000Y-95705000D01*
X155353000Y-95706000D01*
G37*
X155353000Y-96356000D02*
X155355000Y-96356000D01*
X155358000Y-96357000D01*
X155360000Y-96357000D01*
X155363000Y-96358000D01*
X155365000Y-96359000D01*
X155368000Y-96360000D01*
X155370000Y-96362000D01*
X155372000Y-96363000D01*
X155374000Y-96365000D01*
X155376000Y-96366000D01*
X155378000Y-96368000D01*
X155380000Y-96370000D01*
X155382000Y-96372000D01*
X155384000Y-96374000D01*
X155385000Y-96376000D01*
X155387000Y-96378000D01*
X155388000Y-96380000D01*
X155390000Y-96382000D01*
X155391000Y-96385000D01*
X155392000Y-96387000D01*
X155393000Y-96390000D01*
X155393000Y-96392000D01*
X155394000Y-96395000D01*
X155394000Y-96397000D01*
X155395000Y-96400000D01*
X155395000Y-96402000D01*
X155395000Y-96405000D01*
X155395000Y-96745000D01*
X155395000Y-96748000D01*
X155395000Y-96750000D01*
X155394000Y-96753000D01*
X155394000Y-96755000D01*
X155393000Y-96758000D01*
X155393000Y-96760000D01*
X155392000Y-96763000D01*
X155391000Y-96765000D01*
X155390000Y-96768000D01*
X155388000Y-96770000D01*
X155387000Y-96772000D01*
X155385000Y-96774000D01*
X155384000Y-96776000D01*
X155382000Y-96778000D01*
X155380000Y-96780000D01*
X155378000Y-96782000D01*
X155376000Y-96784000D01*
X155374000Y-96785000D01*
X155372000Y-96787000D01*
X155370000Y-96788000D01*
X155368000Y-96790000D01*
X155365000Y-96791000D01*
X155363000Y-96792000D01*
X155360000Y-96793000D01*
X155358000Y-96793000D01*
X155355000Y-96794000D01*
X155353000Y-96794000D01*
X155350000Y-96795000D01*
X155348000Y-96795000D01*
X155345000Y-96795000D01*
X154855000Y-96795000D01*
X154852000Y-96795000D01*
X154850000Y-96795000D01*
X154847000Y-96794000D01*
X154845000Y-96794000D01*
X154842000Y-96793000D01*
X154840000Y-96793000D01*
X154837000Y-96792000D01*
X154835000Y-96791000D01*
X154832000Y-96790000D01*
X154830000Y-96788000D01*
X154828000Y-96787000D01*
X154826000Y-96785000D01*
X154824000Y-96784000D01*
X154822000Y-96782000D01*
X154820000Y-96780000D01*
X154818000Y-96778000D01*
X154816000Y-96776000D01*
X154815000Y-96774000D01*
X154813000Y-96772000D01*
X154812000Y-96770000D01*
X154810000Y-96768000D01*
X154809000Y-96765000D01*
X154808000Y-96763000D01*
X154807000Y-96760000D01*
X154807000Y-96758000D01*
X154806000Y-96755000D01*
X154806000Y-96753000D01*
X154805000Y-96750000D01*
X154805000Y-96748000D01*
X154805000Y-96745000D01*
X154805000Y-96405000D01*
X154805000Y-96402000D01*
X154805000Y-96400000D01*
X154806000Y-96397000D01*
X154806000Y-96395000D01*
X154807000Y-96392000D01*
X154807000Y-96390000D01*
X154808000Y-96387000D01*
X154809000Y-96385000D01*
X154810000Y-96382000D01*
X154812000Y-96380000D01*
X154813000Y-96378000D01*
X154815000Y-96376000D01*
X154816000Y-96374000D01*
X154818000Y-96372000D01*
X154820000Y-96370000D01*
X154822000Y-96368000D01*
X154824000Y-96366000D01*
X154826000Y-96365000D01*
X154828000Y-96363000D01*
X154830000Y-96362000D01*
X154832000Y-96360000D01*
X154835000Y-96359000D01*
X154837000Y-96358000D01*
X154840000Y-96357000D01*
X154842000Y-96357000D01*
X154845000Y-96356000D01*
X154847000Y-96356000D01*
X154850000Y-96355000D01*
X154852000Y-96355000D01*
X154855000Y-96355000D01*
X155345000Y-96355000D01*
X155348000Y-96355000D01*
X155350000Y-96355000D01*
X155353000Y-96356000D01*
G36*
X155353000Y-96356000D02*
G01*
X155355000Y-96356000D01*
X155358000Y-96357000D01*
X155360000Y-96357000D01*
X155363000Y-96358000D01*
X155365000Y-96359000D01*
X155368000Y-96360000D01*
X155370000Y-96362000D01*
X155372000Y-96363000D01*
X155374000Y-96365000D01*
X155376000Y-96366000D01*
X155378000Y-96368000D01*
X155380000Y-96370000D01*
X155382000Y-96372000D01*
X155384000Y-96374000D01*
X155385000Y-96376000D01*
X155387000Y-96378000D01*
X155388000Y-96380000D01*
X155390000Y-96382000D01*
X155391000Y-96385000D01*
X155392000Y-96387000D01*
X155393000Y-96390000D01*
X155393000Y-96392000D01*
X155394000Y-96395000D01*
X155394000Y-96397000D01*
X155395000Y-96400000D01*
X155395000Y-96402000D01*
X155395000Y-96405000D01*
X155395000Y-96745000D01*
X155395000Y-96748000D01*
X155395000Y-96750000D01*
X155394000Y-96753000D01*
X155394000Y-96755000D01*
X155393000Y-96758000D01*
X155393000Y-96760000D01*
X155392000Y-96763000D01*
X155391000Y-96765000D01*
X155390000Y-96768000D01*
X155388000Y-96770000D01*
X155387000Y-96772000D01*
X155385000Y-96774000D01*
X155384000Y-96776000D01*
X155382000Y-96778000D01*
X155380000Y-96780000D01*
X155378000Y-96782000D01*
X155376000Y-96784000D01*
X155374000Y-96785000D01*
X155372000Y-96787000D01*
X155370000Y-96788000D01*
X155368000Y-96790000D01*
X155365000Y-96791000D01*
X155363000Y-96792000D01*
X155360000Y-96793000D01*
X155358000Y-96793000D01*
X155355000Y-96794000D01*
X155353000Y-96794000D01*
X155350000Y-96795000D01*
X155348000Y-96795000D01*
X155345000Y-96795000D01*
X154855000Y-96795000D01*
X154852000Y-96795000D01*
X154850000Y-96795000D01*
X154847000Y-96794000D01*
X154845000Y-96794000D01*
X154842000Y-96793000D01*
X154840000Y-96793000D01*
X154837000Y-96792000D01*
X154835000Y-96791000D01*
X154832000Y-96790000D01*
X154830000Y-96788000D01*
X154828000Y-96787000D01*
X154826000Y-96785000D01*
X154824000Y-96784000D01*
X154822000Y-96782000D01*
X154820000Y-96780000D01*
X154818000Y-96778000D01*
X154816000Y-96776000D01*
X154815000Y-96774000D01*
X154813000Y-96772000D01*
X154812000Y-96770000D01*
X154810000Y-96768000D01*
X154809000Y-96765000D01*
X154808000Y-96763000D01*
X154807000Y-96760000D01*
X154807000Y-96758000D01*
X154806000Y-96755000D01*
X154806000Y-96753000D01*
X154805000Y-96750000D01*
X154805000Y-96748000D01*
X154805000Y-96745000D01*
X154805000Y-96405000D01*
X154805000Y-96402000D01*
X154805000Y-96400000D01*
X154806000Y-96397000D01*
X154806000Y-96395000D01*
X154807000Y-96392000D01*
X154807000Y-96390000D01*
X154808000Y-96387000D01*
X154809000Y-96385000D01*
X154810000Y-96382000D01*
X154812000Y-96380000D01*
X154813000Y-96378000D01*
X154815000Y-96376000D01*
X154816000Y-96374000D01*
X154818000Y-96372000D01*
X154820000Y-96370000D01*
X154822000Y-96368000D01*
X154824000Y-96366000D01*
X154826000Y-96365000D01*
X154828000Y-96363000D01*
X154830000Y-96362000D01*
X154832000Y-96360000D01*
X154835000Y-96359000D01*
X154837000Y-96358000D01*
X154840000Y-96357000D01*
X154842000Y-96357000D01*
X154845000Y-96356000D01*
X154847000Y-96356000D01*
X154850000Y-96355000D01*
X154852000Y-96355000D01*
X154855000Y-96355000D01*
X155345000Y-96355000D01*
X155348000Y-96355000D01*
X155350000Y-96355000D01*
X155353000Y-96356000D01*
G37*
X157303000Y-95056000D02*
X157305000Y-95056000D01*
X157308000Y-95057000D01*
X157310000Y-95057000D01*
X157313000Y-95058000D01*
X157315000Y-95059000D01*
X157318000Y-95060000D01*
X157320000Y-95062000D01*
X157322000Y-95063000D01*
X157324000Y-95065000D01*
X157326000Y-95066000D01*
X157328000Y-95068000D01*
X157330000Y-95070000D01*
X157332000Y-95072000D01*
X157334000Y-95074000D01*
X157335000Y-95076000D01*
X157337000Y-95078000D01*
X157338000Y-95080000D01*
X157340000Y-95082000D01*
X157341000Y-95085000D01*
X157342000Y-95087000D01*
X157343000Y-95090000D01*
X157343000Y-95092000D01*
X157344000Y-95095000D01*
X157344000Y-95097000D01*
X157345000Y-95100000D01*
X157345000Y-95102000D01*
X157345000Y-95105000D01*
X157345000Y-95445000D01*
X157345000Y-95448000D01*
X157345000Y-95450000D01*
X157344000Y-95453000D01*
X157344000Y-95455000D01*
X157343000Y-95458000D01*
X157343000Y-95460000D01*
X157342000Y-95463000D01*
X157341000Y-95465000D01*
X157340000Y-95468000D01*
X157338000Y-95470000D01*
X157337000Y-95472000D01*
X157335000Y-95474000D01*
X157334000Y-95476000D01*
X157332000Y-95478000D01*
X157330000Y-95480000D01*
X157328000Y-95482000D01*
X157326000Y-95484000D01*
X157324000Y-95485000D01*
X157322000Y-95487000D01*
X157320000Y-95488000D01*
X157318000Y-95490000D01*
X157315000Y-95491000D01*
X157313000Y-95492000D01*
X157310000Y-95493000D01*
X157308000Y-95493000D01*
X157305000Y-95494000D01*
X157303000Y-95494000D01*
X157300000Y-95495000D01*
X157298000Y-95495000D01*
X157295000Y-95495000D01*
X156805000Y-95495000D01*
X156802000Y-95495000D01*
X156800000Y-95495000D01*
X156797000Y-95494000D01*
X156795000Y-95494000D01*
X156792000Y-95493000D01*
X156790000Y-95493000D01*
X156787000Y-95492000D01*
X156785000Y-95491000D01*
X156782000Y-95490000D01*
X156780000Y-95488000D01*
X156778000Y-95487000D01*
X156776000Y-95485000D01*
X156774000Y-95484000D01*
X156772000Y-95482000D01*
X156770000Y-95480000D01*
X156768000Y-95478000D01*
X156766000Y-95476000D01*
X156765000Y-95474000D01*
X156763000Y-95472000D01*
X156762000Y-95470000D01*
X156760000Y-95468000D01*
X156759000Y-95465000D01*
X156758000Y-95463000D01*
X156757000Y-95460000D01*
X156757000Y-95458000D01*
X156756000Y-95455000D01*
X156756000Y-95453000D01*
X156755000Y-95450000D01*
X156755000Y-95448000D01*
X156755000Y-95445000D01*
X156755000Y-95105000D01*
X156755000Y-95102000D01*
X156755000Y-95100000D01*
X156756000Y-95097000D01*
X156756000Y-95095000D01*
X156757000Y-95092000D01*
X156757000Y-95090000D01*
X156758000Y-95087000D01*
X156759000Y-95085000D01*
X156760000Y-95082000D01*
X156762000Y-95080000D01*
X156763000Y-95078000D01*
X156765000Y-95076000D01*
X156766000Y-95074000D01*
X156768000Y-95072000D01*
X156770000Y-95070000D01*
X156772000Y-95068000D01*
X156774000Y-95066000D01*
X156776000Y-95065000D01*
X156778000Y-95063000D01*
X156780000Y-95062000D01*
X156782000Y-95060000D01*
X156785000Y-95059000D01*
X156787000Y-95058000D01*
X156790000Y-95057000D01*
X156792000Y-95057000D01*
X156795000Y-95056000D01*
X156797000Y-95056000D01*
X156800000Y-95055000D01*
X156802000Y-95055000D01*
X156805000Y-95055000D01*
X157295000Y-95055000D01*
X157298000Y-95055000D01*
X157300000Y-95055000D01*
X157303000Y-95056000D01*
G36*
X157303000Y-95056000D02*
G01*
X157305000Y-95056000D01*
X157308000Y-95057000D01*
X157310000Y-95057000D01*
X157313000Y-95058000D01*
X157315000Y-95059000D01*
X157318000Y-95060000D01*
X157320000Y-95062000D01*
X157322000Y-95063000D01*
X157324000Y-95065000D01*
X157326000Y-95066000D01*
X157328000Y-95068000D01*
X157330000Y-95070000D01*
X157332000Y-95072000D01*
X157334000Y-95074000D01*
X157335000Y-95076000D01*
X157337000Y-95078000D01*
X157338000Y-95080000D01*
X157340000Y-95082000D01*
X157341000Y-95085000D01*
X157342000Y-95087000D01*
X157343000Y-95090000D01*
X157343000Y-95092000D01*
X157344000Y-95095000D01*
X157344000Y-95097000D01*
X157345000Y-95100000D01*
X157345000Y-95102000D01*
X157345000Y-95105000D01*
X157345000Y-95445000D01*
X157345000Y-95448000D01*
X157345000Y-95450000D01*
X157344000Y-95453000D01*
X157344000Y-95455000D01*
X157343000Y-95458000D01*
X157343000Y-95460000D01*
X157342000Y-95463000D01*
X157341000Y-95465000D01*
X157340000Y-95468000D01*
X157338000Y-95470000D01*
X157337000Y-95472000D01*
X157335000Y-95474000D01*
X157334000Y-95476000D01*
X157332000Y-95478000D01*
X157330000Y-95480000D01*
X157328000Y-95482000D01*
X157326000Y-95484000D01*
X157324000Y-95485000D01*
X157322000Y-95487000D01*
X157320000Y-95488000D01*
X157318000Y-95490000D01*
X157315000Y-95491000D01*
X157313000Y-95492000D01*
X157310000Y-95493000D01*
X157308000Y-95493000D01*
X157305000Y-95494000D01*
X157303000Y-95494000D01*
X157300000Y-95495000D01*
X157298000Y-95495000D01*
X157295000Y-95495000D01*
X156805000Y-95495000D01*
X156802000Y-95495000D01*
X156800000Y-95495000D01*
X156797000Y-95494000D01*
X156795000Y-95494000D01*
X156792000Y-95493000D01*
X156790000Y-95493000D01*
X156787000Y-95492000D01*
X156785000Y-95491000D01*
X156782000Y-95490000D01*
X156780000Y-95488000D01*
X156778000Y-95487000D01*
X156776000Y-95485000D01*
X156774000Y-95484000D01*
X156772000Y-95482000D01*
X156770000Y-95480000D01*
X156768000Y-95478000D01*
X156766000Y-95476000D01*
X156765000Y-95474000D01*
X156763000Y-95472000D01*
X156762000Y-95470000D01*
X156760000Y-95468000D01*
X156759000Y-95465000D01*
X156758000Y-95463000D01*
X156757000Y-95460000D01*
X156757000Y-95458000D01*
X156756000Y-95455000D01*
X156756000Y-95453000D01*
X156755000Y-95450000D01*
X156755000Y-95448000D01*
X156755000Y-95445000D01*
X156755000Y-95105000D01*
X156755000Y-95102000D01*
X156755000Y-95100000D01*
X156756000Y-95097000D01*
X156756000Y-95095000D01*
X156757000Y-95092000D01*
X156757000Y-95090000D01*
X156758000Y-95087000D01*
X156759000Y-95085000D01*
X156760000Y-95082000D01*
X156762000Y-95080000D01*
X156763000Y-95078000D01*
X156765000Y-95076000D01*
X156766000Y-95074000D01*
X156768000Y-95072000D01*
X156770000Y-95070000D01*
X156772000Y-95068000D01*
X156774000Y-95066000D01*
X156776000Y-95065000D01*
X156778000Y-95063000D01*
X156780000Y-95062000D01*
X156782000Y-95060000D01*
X156785000Y-95059000D01*
X156787000Y-95058000D01*
X156790000Y-95057000D01*
X156792000Y-95057000D01*
X156795000Y-95056000D01*
X156797000Y-95056000D01*
X156800000Y-95055000D01*
X156802000Y-95055000D01*
X156805000Y-95055000D01*
X157295000Y-95055000D01*
X157298000Y-95055000D01*
X157300000Y-95055000D01*
X157303000Y-95056000D01*
G37*
X157303000Y-95706000D02*
X157305000Y-95706000D01*
X157308000Y-95707000D01*
X157310000Y-95707000D01*
X157313000Y-95708000D01*
X157315000Y-95709000D01*
X157318000Y-95710000D01*
X157320000Y-95712000D01*
X157322000Y-95713000D01*
X157324000Y-95715000D01*
X157326000Y-95716000D01*
X157328000Y-95718000D01*
X157330000Y-95720000D01*
X157332000Y-95722000D01*
X157334000Y-95724000D01*
X157335000Y-95726000D01*
X157337000Y-95728000D01*
X157338000Y-95730000D01*
X157340000Y-95732000D01*
X157341000Y-95735000D01*
X157342000Y-95737000D01*
X157343000Y-95740000D01*
X157343000Y-95742000D01*
X157344000Y-95745000D01*
X157344000Y-95747000D01*
X157345000Y-95750000D01*
X157345000Y-95752000D01*
X157345000Y-95755000D01*
X157345000Y-96095000D01*
X157345000Y-96098000D01*
X157345000Y-96100000D01*
X157344000Y-96103000D01*
X157344000Y-96105000D01*
X157343000Y-96108000D01*
X157343000Y-96110000D01*
X157342000Y-96113000D01*
X157341000Y-96115000D01*
X157340000Y-96118000D01*
X157338000Y-96120000D01*
X157337000Y-96122000D01*
X157335000Y-96124000D01*
X157334000Y-96126000D01*
X157332000Y-96128000D01*
X157330000Y-96130000D01*
X157328000Y-96132000D01*
X157326000Y-96134000D01*
X157324000Y-96135000D01*
X157322000Y-96137000D01*
X157320000Y-96138000D01*
X157318000Y-96140000D01*
X157315000Y-96141000D01*
X157313000Y-96142000D01*
X157310000Y-96143000D01*
X157308000Y-96143000D01*
X157305000Y-96144000D01*
X157303000Y-96144000D01*
X157300000Y-96145000D01*
X157298000Y-96145000D01*
X157295000Y-96145000D01*
X156805000Y-96145000D01*
X156802000Y-96145000D01*
X156800000Y-96145000D01*
X156797000Y-96144000D01*
X156795000Y-96144000D01*
X156792000Y-96143000D01*
X156790000Y-96143000D01*
X156787000Y-96142000D01*
X156785000Y-96141000D01*
X156782000Y-96140000D01*
X156780000Y-96138000D01*
X156778000Y-96137000D01*
X156776000Y-96135000D01*
X156774000Y-96134000D01*
X156772000Y-96132000D01*
X156770000Y-96130000D01*
X156768000Y-96128000D01*
X156766000Y-96126000D01*
X156765000Y-96124000D01*
X156763000Y-96122000D01*
X156762000Y-96120000D01*
X156760000Y-96118000D01*
X156759000Y-96115000D01*
X156758000Y-96113000D01*
X156757000Y-96110000D01*
X156757000Y-96108000D01*
X156756000Y-96105000D01*
X156756000Y-96103000D01*
X156755000Y-96100000D01*
X156755000Y-96098000D01*
X156755000Y-96095000D01*
X156755000Y-95755000D01*
X156755000Y-95752000D01*
X156755000Y-95750000D01*
X156756000Y-95747000D01*
X156756000Y-95745000D01*
X156757000Y-95742000D01*
X156757000Y-95740000D01*
X156758000Y-95737000D01*
X156759000Y-95735000D01*
X156760000Y-95732000D01*
X156762000Y-95730000D01*
X156763000Y-95728000D01*
X156765000Y-95726000D01*
X156766000Y-95724000D01*
X156768000Y-95722000D01*
X156770000Y-95720000D01*
X156772000Y-95718000D01*
X156774000Y-95716000D01*
X156776000Y-95715000D01*
X156778000Y-95713000D01*
X156780000Y-95712000D01*
X156782000Y-95710000D01*
X156785000Y-95709000D01*
X156787000Y-95708000D01*
X156790000Y-95707000D01*
X156792000Y-95707000D01*
X156795000Y-95706000D01*
X156797000Y-95706000D01*
X156800000Y-95705000D01*
X156802000Y-95705000D01*
X156805000Y-95705000D01*
X157295000Y-95705000D01*
X157298000Y-95705000D01*
X157300000Y-95705000D01*
X157303000Y-95706000D01*
G36*
X157303000Y-95706000D02*
G01*
X157305000Y-95706000D01*
X157308000Y-95707000D01*
X157310000Y-95707000D01*
X157313000Y-95708000D01*
X157315000Y-95709000D01*
X157318000Y-95710000D01*
X157320000Y-95712000D01*
X157322000Y-95713000D01*
X157324000Y-95715000D01*
X157326000Y-95716000D01*
X157328000Y-95718000D01*
X157330000Y-95720000D01*
X157332000Y-95722000D01*
X157334000Y-95724000D01*
X157335000Y-95726000D01*
X157337000Y-95728000D01*
X157338000Y-95730000D01*
X157340000Y-95732000D01*
X157341000Y-95735000D01*
X157342000Y-95737000D01*
X157343000Y-95740000D01*
X157343000Y-95742000D01*
X157344000Y-95745000D01*
X157344000Y-95747000D01*
X157345000Y-95750000D01*
X157345000Y-95752000D01*
X157345000Y-95755000D01*
X157345000Y-96095000D01*
X157345000Y-96098000D01*
X157345000Y-96100000D01*
X157344000Y-96103000D01*
X157344000Y-96105000D01*
X157343000Y-96108000D01*
X157343000Y-96110000D01*
X157342000Y-96113000D01*
X157341000Y-96115000D01*
X157340000Y-96118000D01*
X157338000Y-96120000D01*
X157337000Y-96122000D01*
X157335000Y-96124000D01*
X157334000Y-96126000D01*
X157332000Y-96128000D01*
X157330000Y-96130000D01*
X157328000Y-96132000D01*
X157326000Y-96134000D01*
X157324000Y-96135000D01*
X157322000Y-96137000D01*
X157320000Y-96138000D01*
X157318000Y-96140000D01*
X157315000Y-96141000D01*
X157313000Y-96142000D01*
X157310000Y-96143000D01*
X157308000Y-96143000D01*
X157305000Y-96144000D01*
X157303000Y-96144000D01*
X157300000Y-96145000D01*
X157298000Y-96145000D01*
X157295000Y-96145000D01*
X156805000Y-96145000D01*
X156802000Y-96145000D01*
X156800000Y-96145000D01*
X156797000Y-96144000D01*
X156795000Y-96144000D01*
X156792000Y-96143000D01*
X156790000Y-96143000D01*
X156787000Y-96142000D01*
X156785000Y-96141000D01*
X156782000Y-96140000D01*
X156780000Y-96138000D01*
X156778000Y-96137000D01*
X156776000Y-96135000D01*
X156774000Y-96134000D01*
X156772000Y-96132000D01*
X156770000Y-96130000D01*
X156768000Y-96128000D01*
X156766000Y-96126000D01*
X156765000Y-96124000D01*
X156763000Y-96122000D01*
X156762000Y-96120000D01*
X156760000Y-96118000D01*
X156759000Y-96115000D01*
X156758000Y-96113000D01*
X156757000Y-96110000D01*
X156757000Y-96108000D01*
X156756000Y-96105000D01*
X156756000Y-96103000D01*
X156755000Y-96100000D01*
X156755000Y-96098000D01*
X156755000Y-96095000D01*
X156755000Y-95755000D01*
X156755000Y-95752000D01*
X156755000Y-95750000D01*
X156756000Y-95747000D01*
X156756000Y-95745000D01*
X156757000Y-95742000D01*
X156757000Y-95740000D01*
X156758000Y-95737000D01*
X156759000Y-95735000D01*
X156760000Y-95732000D01*
X156762000Y-95730000D01*
X156763000Y-95728000D01*
X156765000Y-95726000D01*
X156766000Y-95724000D01*
X156768000Y-95722000D01*
X156770000Y-95720000D01*
X156772000Y-95718000D01*
X156774000Y-95716000D01*
X156776000Y-95715000D01*
X156778000Y-95713000D01*
X156780000Y-95712000D01*
X156782000Y-95710000D01*
X156785000Y-95709000D01*
X156787000Y-95708000D01*
X156790000Y-95707000D01*
X156792000Y-95707000D01*
X156795000Y-95706000D01*
X156797000Y-95706000D01*
X156800000Y-95705000D01*
X156802000Y-95705000D01*
X156805000Y-95705000D01*
X157295000Y-95705000D01*
X157298000Y-95705000D01*
X157300000Y-95705000D01*
X157303000Y-95706000D01*
G37*
X157303000Y-96356000D02*
X157305000Y-96356000D01*
X157308000Y-96357000D01*
X157310000Y-96357000D01*
X157313000Y-96358000D01*
X157315000Y-96359000D01*
X157318000Y-96360000D01*
X157320000Y-96362000D01*
X157322000Y-96363000D01*
X157324000Y-96365000D01*
X157326000Y-96366000D01*
X157328000Y-96368000D01*
X157330000Y-96370000D01*
X157332000Y-96372000D01*
X157334000Y-96374000D01*
X157335000Y-96376000D01*
X157337000Y-96378000D01*
X157338000Y-96380000D01*
X157340000Y-96382000D01*
X157341000Y-96385000D01*
X157342000Y-96387000D01*
X157343000Y-96390000D01*
X157343000Y-96392000D01*
X157344000Y-96395000D01*
X157344000Y-96397000D01*
X157345000Y-96400000D01*
X157345000Y-96402000D01*
X157345000Y-96405000D01*
X157345000Y-96745000D01*
X157345000Y-96748000D01*
X157345000Y-96750000D01*
X157344000Y-96753000D01*
X157344000Y-96755000D01*
X157343000Y-96758000D01*
X157343000Y-96760000D01*
X157342000Y-96763000D01*
X157341000Y-96765000D01*
X157340000Y-96768000D01*
X157338000Y-96770000D01*
X157337000Y-96772000D01*
X157335000Y-96774000D01*
X157334000Y-96776000D01*
X157332000Y-96778000D01*
X157330000Y-96780000D01*
X157328000Y-96782000D01*
X157326000Y-96784000D01*
X157324000Y-96785000D01*
X157322000Y-96787000D01*
X157320000Y-96788000D01*
X157318000Y-96790000D01*
X157315000Y-96791000D01*
X157313000Y-96792000D01*
X157310000Y-96793000D01*
X157308000Y-96793000D01*
X157305000Y-96794000D01*
X157303000Y-96794000D01*
X157300000Y-96795000D01*
X157298000Y-96795000D01*
X157295000Y-96795000D01*
X156805000Y-96795000D01*
X156802000Y-96795000D01*
X156800000Y-96795000D01*
X156797000Y-96794000D01*
X156795000Y-96794000D01*
X156792000Y-96793000D01*
X156790000Y-96793000D01*
X156787000Y-96792000D01*
X156785000Y-96791000D01*
X156782000Y-96790000D01*
X156780000Y-96788000D01*
X156778000Y-96787000D01*
X156776000Y-96785000D01*
X156774000Y-96784000D01*
X156772000Y-96782000D01*
X156770000Y-96780000D01*
X156768000Y-96778000D01*
X156766000Y-96776000D01*
X156765000Y-96774000D01*
X156763000Y-96772000D01*
X156762000Y-96770000D01*
X156760000Y-96768000D01*
X156759000Y-96765000D01*
X156758000Y-96763000D01*
X156757000Y-96760000D01*
X156757000Y-96758000D01*
X156756000Y-96755000D01*
X156756000Y-96753000D01*
X156755000Y-96750000D01*
X156755000Y-96748000D01*
X156755000Y-96745000D01*
X156755000Y-96405000D01*
X156755000Y-96402000D01*
X156755000Y-96400000D01*
X156756000Y-96397000D01*
X156756000Y-96395000D01*
X156757000Y-96392000D01*
X156757000Y-96390000D01*
X156758000Y-96387000D01*
X156759000Y-96385000D01*
X156760000Y-96382000D01*
X156762000Y-96380000D01*
X156763000Y-96378000D01*
X156765000Y-96376000D01*
X156766000Y-96374000D01*
X156768000Y-96372000D01*
X156770000Y-96370000D01*
X156772000Y-96368000D01*
X156774000Y-96366000D01*
X156776000Y-96365000D01*
X156778000Y-96363000D01*
X156780000Y-96362000D01*
X156782000Y-96360000D01*
X156785000Y-96359000D01*
X156787000Y-96358000D01*
X156790000Y-96357000D01*
X156792000Y-96357000D01*
X156795000Y-96356000D01*
X156797000Y-96356000D01*
X156800000Y-96355000D01*
X156802000Y-96355000D01*
X156805000Y-96355000D01*
X157295000Y-96355000D01*
X157298000Y-96355000D01*
X157300000Y-96355000D01*
X157303000Y-96356000D01*
G36*
X157303000Y-96356000D02*
G01*
X157305000Y-96356000D01*
X157308000Y-96357000D01*
X157310000Y-96357000D01*
X157313000Y-96358000D01*
X157315000Y-96359000D01*
X157318000Y-96360000D01*
X157320000Y-96362000D01*
X157322000Y-96363000D01*
X157324000Y-96365000D01*
X157326000Y-96366000D01*
X157328000Y-96368000D01*
X157330000Y-96370000D01*
X157332000Y-96372000D01*
X157334000Y-96374000D01*
X157335000Y-96376000D01*
X157337000Y-96378000D01*
X157338000Y-96380000D01*
X157340000Y-96382000D01*
X157341000Y-96385000D01*
X157342000Y-96387000D01*
X157343000Y-96390000D01*
X157343000Y-96392000D01*
X157344000Y-96395000D01*
X157344000Y-96397000D01*
X157345000Y-96400000D01*
X157345000Y-96402000D01*
X157345000Y-96405000D01*
X157345000Y-96745000D01*
X157345000Y-96748000D01*
X157345000Y-96750000D01*
X157344000Y-96753000D01*
X157344000Y-96755000D01*
X157343000Y-96758000D01*
X157343000Y-96760000D01*
X157342000Y-96763000D01*
X157341000Y-96765000D01*
X157340000Y-96768000D01*
X157338000Y-96770000D01*
X157337000Y-96772000D01*
X157335000Y-96774000D01*
X157334000Y-96776000D01*
X157332000Y-96778000D01*
X157330000Y-96780000D01*
X157328000Y-96782000D01*
X157326000Y-96784000D01*
X157324000Y-96785000D01*
X157322000Y-96787000D01*
X157320000Y-96788000D01*
X157318000Y-96790000D01*
X157315000Y-96791000D01*
X157313000Y-96792000D01*
X157310000Y-96793000D01*
X157308000Y-96793000D01*
X157305000Y-96794000D01*
X157303000Y-96794000D01*
X157300000Y-96795000D01*
X157298000Y-96795000D01*
X157295000Y-96795000D01*
X156805000Y-96795000D01*
X156802000Y-96795000D01*
X156800000Y-96795000D01*
X156797000Y-96794000D01*
X156795000Y-96794000D01*
X156792000Y-96793000D01*
X156790000Y-96793000D01*
X156787000Y-96792000D01*
X156785000Y-96791000D01*
X156782000Y-96790000D01*
X156780000Y-96788000D01*
X156778000Y-96787000D01*
X156776000Y-96785000D01*
X156774000Y-96784000D01*
X156772000Y-96782000D01*
X156770000Y-96780000D01*
X156768000Y-96778000D01*
X156766000Y-96776000D01*
X156765000Y-96774000D01*
X156763000Y-96772000D01*
X156762000Y-96770000D01*
X156760000Y-96768000D01*
X156759000Y-96765000D01*
X156758000Y-96763000D01*
X156757000Y-96760000D01*
X156757000Y-96758000D01*
X156756000Y-96755000D01*
X156756000Y-96753000D01*
X156755000Y-96750000D01*
X156755000Y-96748000D01*
X156755000Y-96745000D01*
X156755000Y-96405000D01*
X156755000Y-96402000D01*
X156755000Y-96400000D01*
X156756000Y-96397000D01*
X156756000Y-96395000D01*
X156757000Y-96392000D01*
X156757000Y-96390000D01*
X156758000Y-96387000D01*
X156759000Y-96385000D01*
X156760000Y-96382000D01*
X156762000Y-96380000D01*
X156763000Y-96378000D01*
X156765000Y-96376000D01*
X156766000Y-96374000D01*
X156768000Y-96372000D01*
X156770000Y-96370000D01*
X156772000Y-96368000D01*
X156774000Y-96366000D01*
X156776000Y-96365000D01*
X156778000Y-96363000D01*
X156780000Y-96362000D01*
X156782000Y-96360000D01*
X156785000Y-96359000D01*
X156787000Y-96358000D01*
X156790000Y-96357000D01*
X156792000Y-96357000D01*
X156795000Y-96356000D01*
X156797000Y-96356000D01*
X156800000Y-96355000D01*
X156802000Y-96355000D01*
X156805000Y-96355000D01*
X157295000Y-96355000D01*
X157298000Y-96355000D01*
X157300000Y-96355000D01*
X157303000Y-96356000D01*
G37*
%TD*%
D11*
%TO.C,J10*%
X170030000Y-65040000D03*
X171130000Y-65040000D03*
X172230000Y-65040000D03*
X173330000Y-65040000D03*
X174430000Y-65040000D03*
X175530000Y-65040000D03*
X176630000Y-65040000D03*
X177730000Y-65040000D03*
D12*
X166150000Y-65025000D03*
D13*
X178810000Y-64540000D03*
D14*
X165930000Y-53775000D03*
X178890000Y-53775000D03*
D15*
X168240000Y-52575000D03*
D16*
X172505000Y-52500000D03*
%TD*%
D17*
%TO.C,H1*%
X157325000Y-59675000D03*
X158027944Y-57977944D03*
X158027944Y-61372056D03*
X159725000Y-57275000D03*
D18*
X159725000Y-59675000D03*
D17*
X159725000Y-62075000D03*
X161422056Y-57977944D03*
X161422056Y-61372056D03*
X162125000Y-59675000D03*
%TD*%
%TO.C,H4*%
X187825000Y-90175000D03*
X188527944Y-88477944D03*
X188527944Y-91872056D03*
X190225000Y-87775000D03*
D18*
X190225000Y-90175000D03*
D17*
X190225000Y-92575000D03*
X191922056Y-88477944D03*
X191922056Y-91872056D03*
X192625000Y-90175000D03*
%TD*%
%TO.C,H3*%
X157325000Y-90175000D03*
X158027944Y-88477944D03*
X158027944Y-91872056D03*
X159725000Y-87775000D03*
D18*
X159725000Y-90175000D03*
D17*
X159725000Y-92575000D03*
X161422056Y-88477944D03*
X161422056Y-91872056D03*
X162125000Y-90175000D03*
%TD*%
%TO.C,H2*%
X187825000Y-59675000D03*
X188527944Y-57977944D03*
X188527944Y-61372056D03*
X190225000Y-57275000D03*
D18*
X190225000Y-59675000D03*
D17*
X190225000Y-62075000D03*
X191922056Y-57977944D03*
X191922056Y-61372056D03*
X192625000Y-59675000D03*
%TD*%
D19*
%TO.C,R7*%
X192935000Y-74575000D03*
X191915000Y-74575000D03*
%TD*%
D20*
%TO.C,C20*%
X185000000Y-72920000D03*
X185000000Y-73880000D03*
%TD*%
%TO.C,C23*%
X184375000Y-62920000D03*
X184375000Y-63880000D03*
%TD*%
D21*
%TO.C,R16*%
X176275000Y-98380000D03*
X176275000Y-97360000D03*
%TD*%
D22*
%TO.C,C28*%
X186650000Y-93345000D03*
X185690000Y-93345000D03*
%TD*%
%TO.C,C30*%
X186650000Y-94310000D03*
X185690000Y-94310000D03*
%TD*%
D23*
%TO.C,C46*%
X151757500Y-57987500D03*
X152717500Y-57987500D03*
%TD*%
D19*
%TO.C,R6*%
X192935000Y-75550000D03*
X191915000Y-75550000D03*
%TD*%
D24*
%TO.C,R19*%
X178125000Y-68075000D03*
X178125000Y-69095000D03*
%TD*%
D25*
%TO.C,R15*%
X165915000Y-97525000D03*
X166935000Y-97525000D03*
%TD*%
D26*
%TO.C,L1*%
X165110000Y-87520000D03*
X171160000Y-87520000D03*
%TD*%
D27*
%TO.C,U10*%
X154612500Y-56462500D03*
X153662500Y-56462500D03*
X152712500Y-56462500D03*
X152712500Y-54187500D03*
X154612500Y-54187500D03*
%TD*%
D28*
%TO.C,C32*%
X176300000Y-95350000D03*
X176300000Y-94390000D03*
%TD*%
D23*
%TO.C,C48*%
X153637500Y-52537500D03*
X154597500Y-52537500D03*
%TD*%
D28*
%TO.C,C26*%
X185975000Y-73880000D03*
X185975000Y-72920000D03*
%TD*%
D24*
%TO.C,R18*%
X172400000Y-70165000D03*
X172400000Y-71185000D03*
%TD*%
D21*
%TO.C,R13*%
X189725000Y-73910000D03*
X189725000Y-72890000D03*
%TD*%
D20*
%TO.C,C43*%
X174230000Y-85930000D03*
X174230000Y-86890000D03*
%TD*%
D22*
%TO.C,C29*%
X174380000Y-93475000D03*
X173420000Y-93475000D03*
%TD*%
D26*
%TO.C,L2*%
X176425000Y-87305000D03*
X182475000Y-87305000D03*
%TD*%
D24*
%TO.C,R22*%
X173425000Y-70165000D03*
X173425000Y-71185000D03*
%TD*%
D20*
%TO.C,C45*%
X184875000Y-78675000D03*
X184875000Y-79635000D03*
%TD*%
%TO.C,C37*%
X173210000Y-85920000D03*
X173210000Y-86880000D03*
%TD*%
%TO.C,C24*%
X187500000Y-72920000D03*
X187500000Y-73880000D03*
%TD*%
%TO.C,C34*%
X163975000Y-92395000D03*
X163975000Y-93355000D03*
%TD*%
%TO.C,C36*%
X154000000Y-94820000D03*
X154000000Y-95780000D03*
%TD*%
D24*
%TO.C,R21*%
X167975000Y-70165000D03*
X167975000Y-71185000D03*
%TD*%
D21*
%TO.C,R14*%
X164125000Y-98535000D03*
X164125000Y-97515000D03*
%TD*%
D28*
%TO.C,C44*%
X186000000Y-88500000D03*
X186000000Y-87540000D03*
%TD*%
D24*
%TO.C,R9*%
X188700000Y-72880000D03*
X188700000Y-73900000D03*
%TD*%
D20*
%TO.C,C38*%
X184725000Y-85440000D03*
X184725000Y-86400000D03*
%TD*%
D29*
%TO.C,U6*%
X171325000Y-92100000D03*
X171325000Y-93370000D03*
X171325000Y-94640000D03*
X171325000Y-95910000D03*
X165925000Y-95910000D03*
X165925000Y-94640000D03*
X165925000Y-93370000D03*
X165925000Y-92100000D03*
%TD*%
D30*
%TO.C,U9*%
X186712500Y-81537500D03*
X186712500Y-80587500D03*
X186712500Y-79637500D03*
X188987500Y-79637500D03*
X188987500Y-81537500D03*
%TD*%
D29*
%TO.C,U7*%
X183675000Y-91865000D03*
X183675000Y-93135000D03*
X183675000Y-94405000D03*
X183675000Y-95675000D03*
X178275000Y-95675000D03*
X178275000Y-94405000D03*
X178275000Y-93135000D03*
X178275000Y-91865000D03*
%TD*%
D22*
%TO.C,C27*%
X174380000Y-94450000D03*
X173420000Y-94450000D03*
%TD*%
D28*
%TO.C,C39*%
X173210000Y-89640000D03*
X173210000Y-88680000D03*
%TD*%
D20*
%TO.C,C35*%
X176300000Y-92170000D03*
X176300000Y-93130000D03*
%TD*%
D22*
%TO.C,C50*%
X171280000Y-70175000D03*
X170320000Y-70175000D03*
%TD*%
D28*
%TO.C,C40*%
X184750000Y-88500000D03*
X184750000Y-87540000D03*
%TD*%
%TO.C,C33*%
X158225000Y-97075000D03*
X158225000Y-96115000D03*
%TD*%
D20*
%TO.C,C47*%
X190575000Y-80600000D03*
X190575000Y-81560000D03*
%TD*%
D28*
%TO.C,C41*%
X174230000Y-89640000D03*
X174230000Y-88680000D03*
%TD*%
D31*
%TO.C,J8*%
X194740000Y-74150000D03*
X194740000Y-74800000D03*
X194740000Y-75450000D03*
X194740000Y-76100000D03*
X194740000Y-76750000D03*
D32*
X197400000Y-72075000D03*
D33*
X194825000Y-72962500D03*
D34*
X197400000Y-74300000D03*
D35*
X197400000Y-77000000D03*
D33*
X194825000Y-77937500D03*
D32*
X197400000Y-78825000D03*
%TD*%
D24*
%TO.C,R12*%
X190925000Y-72890000D03*
X190925000Y-73910000D03*
%TD*%
D25*
%TO.C,R11*%
X190250000Y-63725000D03*
X191270000Y-63725000D03*
%TD*%
D24*
%TO.C,R20*%
X174475000Y-70165000D03*
X174475000Y-71185000D03*
%TD*%
D25*
%TO.C,R17*%
X178265000Y-97345000D03*
X179285000Y-97345000D03*
%TD*%
D36*
%TO.C,U5*%
X183075000Y-65432500D03*
X183725000Y-65432500D03*
X184375000Y-65432500D03*
X185025000Y-65432500D03*
X185675000Y-65432500D03*
X186325000Y-65432500D03*
X186975000Y-65432500D03*
X187625000Y-65432500D03*
X188275000Y-65432500D03*
X188925000Y-65432500D03*
X189575000Y-65432500D03*
X190225000Y-65432500D03*
X190875000Y-65432500D03*
X191525000Y-65432500D03*
X191525000Y-71182500D03*
X190875000Y-71182500D03*
X190225000Y-71182500D03*
X189575000Y-71182500D03*
X188925000Y-71182500D03*
X188275000Y-71182500D03*
X187625000Y-71182500D03*
X186975000Y-71182500D03*
X186325000Y-71182500D03*
X185675000Y-71182500D03*
X185025000Y-71182500D03*
X184375000Y-71182500D03*
X183725000Y-71182500D03*
X183075000Y-71182500D03*
D37*
X187300000Y-68307500D03*
%TD*%
D20*
%TO.C,C42*%
X186000000Y-85440000D03*
X186000000Y-86400000D03*
%TD*%
D23*
%TO.C,C31*%
X163120000Y-94650000D03*
X164080000Y-94650000D03*
%TD*%
M02*
