%TF.GenerationSoftware,KiCad,Pcbnew,9.0.0*%
%TF.CreationDate,2025-03-25T12:29:50+03:00*%
%TF.ProjectId,Autopilot DronmarketV2,4175746f-7069-46c6-9f74-2044726f6e6d,rev?*%
%TF.SameCoordinates,Original*%
%TF.FileFunction,Soldermask,Top*%
%TF.FilePolarity,Negative*%
%FSLAX46Y46*%
G04 Gerber Fmt 4.6, Leading zero omitted, Abs format (unit mm)*
G04 Created by KiCad (PCBNEW 9.0.0) date 2025-03-25 12:29:50*
%MOMM*%
%LPD*%
G01*
G04 APERTURE LIST*
G04 Aperture macros list*
%AMRoundRect*
0 Rectangle with rounded corners*
0 $1 Rounding radius*
0 $2 $3 $4 $5 $6 $7 $8 $9 X,Y pos of 4 corners*
0 Add a 4 corners polygon primitive as box body*
4,1,4,$2,$3,$4,$5,$6,$7,$8,$9,$2,$3,0*
0 Add four circle primitives for the rounded corners*
1,1,$1+$1,$2,$3*
1,1,$1+$1,$4,$5*
1,1,$1+$1,$6,$7*
1,1,$1+$1,$8,$9*
0 Add four rect primitives between the rounded corners*
20,1,$1+$1,$2,$3,$4,$5,0*
20,1,$1+$1,$4,$5,$6,$7,0*
20,1,$1+$1,$6,$7,$8,$9,0*
20,1,$1+$1,$8,$9,$2,$3,0*%
G04 Aperture macros list end*
%ADD10C,0.010000*%
%ADD11RoundRect,0.140000X0.140000X0.170000X-0.140000X0.170000X-0.140000X-0.170000X0.140000X-0.170000X0*%
%ADD12RoundRect,0.099250X0.822750X0.297750X-0.822750X0.297750X-0.822750X-0.297750X0.822750X-0.297750X0*%
%ADD13RoundRect,0.140000X-0.170000X0.140000X-0.170000X-0.140000X0.170000X-0.140000X0.170000X0.140000X0*%
%ADD14RoundRect,0.150000X0.150000X0.700000X-0.150000X0.700000X-0.150000X-0.700000X0.150000X-0.700000X0*%
%ADD15RoundRect,0.250000X0.250000X1.100000X-0.250000X1.100000X-0.250000X-1.100000X0.250000X-1.100000X0*%
%ADD16RoundRect,0.140000X-0.140000X-0.170000X0.140000X-0.170000X0.140000X0.170000X-0.140000X0.170000X0*%
%ADD17RoundRect,0.250000X1.100000X-0.325000X1.100000X0.325000X-1.100000X0.325000X-1.100000X-0.325000X0*%
%ADD18C,0.800000*%
%ADD19C,6.400000*%
%ADD20R,1.400000X1.200000*%
%ADD21RoundRect,0.075000X-0.700000X-0.075000X0.700000X-0.075000X0.700000X0.075000X-0.700000X0.075000X0*%
%ADD22RoundRect,0.075000X-0.075000X-0.700000X0.075000X-0.700000X0.075000X0.700000X-0.075000X0.700000X0*%
%ADD23RoundRect,0.150000X0.700000X-0.150000X0.700000X0.150000X-0.700000X0.150000X-0.700000X-0.150000X0*%
%ADD24RoundRect,0.250000X1.100000X-0.250000X1.100000X0.250000X-1.100000X0.250000X-1.100000X-0.250000X0*%
%ADD25RoundRect,0.135000X-0.185000X0.135000X-0.185000X-0.135000X0.185000X-0.135000X0.185000X0.135000X0*%
%ADD26RoundRect,0.135000X0.185000X-0.135000X0.185000X0.135000X-0.185000X0.135000X-0.185000X-0.135000X0*%
%ADD27RoundRect,0.150000X-0.150000X-0.700000X0.150000X-0.700000X0.150000X0.700000X-0.150000X0.700000X0*%
%ADD28RoundRect,0.250000X-0.250000X-1.100000X0.250000X-1.100000X0.250000X1.100000X-0.250000X1.100000X0*%
%ADD29RoundRect,0.140000X0.170000X-0.140000X0.170000X0.140000X-0.170000X0.140000X-0.170000X-0.140000X0*%
%ADD30RoundRect,0.250000X-1.100000X0.325000X-1.100000X-0.325000X1.100000X-0.325000X1.100000X0.325000X0*%
%ADD31R,0.550000X0.950000*%
%ADD32RoundRect,0.135000X-0.135000X-0.185000X0.135000X-0.185000X0.135000X0.185000X-0.135000X0.185000X0*%
%ADD33RoundRect,0.150000X-0.700000X0.150000X-0.700000X-0.150000X0.700000X-0.150000X0.700000X0.150000X0*%
%ADD34RoundRect,0.250000X-1.100000X0.250000X-1.100000X-0.250000X1.100000X-0.250000X1.100000X0.250000X0*%
%ADD35RoundRect,0.135000X0.135000X0.185000X-0.135000X0.185000X-0.135000X-0.185000X0.135000X-0.185000X0*%
%ADD36RoundRect,0.102000X-0.175000X-0.295000X0.175000X-0.295000X0.175000X0.295000X-0.175000X0.295000X0*%
%ADD37RoundRect,0.102000X-0.295000X-0.175000X0.295000X-0.175000X0.295000X0.175000X-0.295000X0.175000X0*%
%ADD38RoundRect,0.218750X0.218750X0.256250X-0.218750X0.256250X-0.218750X-0.256250X0.218750X-0.256250X0*%
G04 APERTURE END LIST*
D10*
%TO.C,U2*%
X182268000Y-87526000D02*
X182275000Y-87527000D01*
X182281000Y-87528000D01*
X182287000Y-87529000D01*
X182294000Y-87531000D01*
X182300000Y-87533000D01*
X182306000Y-87536000D01*
X182312000Y-87539000D01*
X182318000Y-87542000D01*
X182323000Y-87545000D01*
X182328000Y-87549000D01*
X182334000Y-87553000D01*
X182339000Y-87557000D01*
X182343000Y-87562000D01*
X182348000Y-87566000D01*
X182352000Y-87571000D01*
X182356000Y-87577000D01*
X182360000Y-87582000D01*
X182363000Y-87588000D01*
X182366000Y-87593000D01*
X182369000Y-87599000D01*
X182372000Y-87605000D01*
X182374000Y-87611000D01*
X182376000Y-87618000D01*
X182377000Y-87624000D01*
X182378000Y-87630000D01*
X182379000Y-87637000D01*
X182380000Y-87643000D01*
X182380000Y-87650000D01*
X182380000Y-87850000D01*
X182380000Y-87857000D01*
X182379000Y-87863000D01*
X182378000Y-87870000D01*
X182377000Y-87876000D01*
X182376000Y-87882000D01*
X182374000Y-87889000D01*
X182372000Y-87895000D01*
X182369000Y-87901000D01*
X182366000Y-87907000D01*
X182363000Y-87913000D01*
X182360000Y-87918000D01*
X182356000Y-87923000D01*
X182352000Y-87929000D01*
X182348000Y-87934000D01*
X182343000Y-87938000D01*
X182339000Y-87943000D01*
X182334000Y-87947000D01*
X182328000Y-87951000D01*
X182323000Y-87955000D01*
X182318000Y-87958000D01*
X182312000Y-87961000D01*
X182306000Y-87964000D01*
X182300000Y-87967000D01*
X182294000Y-87969000D01*
X182287000Y-87971000D01*
X182281000Y-87972000D01*
X182275000Y-87973000D01*
X182268000Y-87974000D01*
X182262000Y-87975000D01*
X182255000Y-87975000D01*
X181815000Y-87975000D01*
X181808000Y-87975000D01*
X181802000Y-87974000D01*
X181795000Y-87973000D01*
X181789000Y-87972000D01*
X181783000Y-87971000D01*
X181776000Y-87969000D01*
X181770000Y-87967000D01*
X181764000Y-87964000D01*
X181758000Y-87961000D01*
X181752000Y-87958000D01*
X181747000Y-87955000D01*
X181742000Y-87951000D01*
X181736000Y-87947000D01*
X181731000Y-87943000D01*
X181727000Y-87938000D01*
X181722000Y-87934000D01*
X181718000Y-87929000D01*
X181714000Y-87923000D01*
X181710000Y-87918000D01*
X181707000Y-87912000D01*
X181704000Y-87907000D01*
X181701000Y-87901000D01*
X181698000Y-87895000D01*
X181696000Y-87889000D01*
X181694000Y-87882000D01*
X181693000Y-87876000D01*
X181692000Y-87870000D01*
X181691000Y-87863000D01*
X181690000Y-87857000D01*
X181690000Y-87850000D01*
X181690000Y-87650000D01*
X181690000Y-87643000D01*
X181691000Y-87637000D01*
X181692000Y-87630000D01*
X181693000Y-87624000D01*
X181694000Y-87618000D01*
X181696000Y-87611000D01*
X181698000Y-87605000D01*
X181701000Y-87599000D01*
X181704000Y-87593000D01*
X181707000Y-87588000D01*
X181710000Y-87582000D01*
X181714000Y-87577000D01*
X181718000Y-87571000D01*
X181722000Y-87566000D01*
X181727000Y-87562000D01*
X181731000Y-87557000D01*
X181736000Y-87553000D01*
X181742000Y-87549000D01*
X181747000Y-87545000D01*
X181752000Y-87542000D01*
X181758000Y-87539000D01*
X181764000Y-87536000D01*
X181770000Y-87533000D01*
X181776000Y-87531000D01*
X181783000Y-87529000D01*
X181789000Y-87528000D01*
X181795000Y-87527000D01*
X181802000Y-87526000D01*
X181808000Y-87525000D01*
X181815000Y-87525000D01*
X182255000Y-87525000D01*
X182262000Y-87525000D01*
X182268000Y-87526000D01*
G36*
X182268000Y-87526000D02*
G01*
X182275000Y-87527000D01*
X182281000Y-87528000D01*
X182287000Y-87529000D01*
X182294000Y-87531000D01*
X182300000Y-87533000D01*
X182306000Y-87536000D01*
X182312000Y-87539000D01*
X182318000Y-87542000D01*
X182323000Y-87545000D01*
X182328000Y-87549000D01*
X182334000Y-87553000D01*
X182339000Y-87557000D01*
X182343000Y-87562000D01*
X182348000Y-87566000D01*
X182352000Y-87571000D01*
X182356000Y-87577000D01*
X182360000Y-87582000D01*
X182363000Y-87588000D01*
X182366000Y-87593000D01*
X182369000Y-87599000D01*
X182372000Y-87605000D01*
X182374000Y-87611000D01*
X182376000Y-87618000D01*
X182377000Y-87624000D01*
X182378000Y-87630000D01*
X182379000Y-87637000D01*
X182380000Y-87643000D01*
X182380000Y-87650000D01*
X182380000Y-87850000D01*
X182380000Y-87857000D01*
X182379000Y-87863000D01*
X182378000Y-87870000D01*
X182377000Y-87876000D01*
X182376000Y-87882000D01*
X182374000Y-87889000D01*
X182372000Y-87895000D01*
X182369000Y-87901000D01*
X182366000Y-87907000D01*
X182363000Y-87913000D01*
X182360000Y-87918000D01*
X182356000Y-87923000D01*
X182352000Y-87929000D01*
X182348000Y-87934000D01*
X182343000Y-87938000D01*
X182339000Y-87943000D01*
X182334000Y-87947000D01*
X182328000Y-87951000D01*
X182323000Y-87955000D01*
X182318000Y-87958000D01*
X182312000Y-87961000D01*
X182306000Y-87964000D01*
X182300000Y-87967000D01*
X182294000Y-87969000D01*
X182287000Y-87971000D01*
X182281000Y-87972000D01*
X182275000Y-87973000D01*
X182268000Y-87974000D01*
X182262000Y-87975000D01*
X182255000Y-87975000D01*
X181815000Y-87975000D01*
X181808000Y-87975000D01*
X181802000Y-87974000D01*
X181795000Y-87973000D01*
X181789000Y-87972000D01*
X181783000Y-87971000D01*
X181776000Y-87969000D01*
X181770000Y-87967000D01*
X181764000Y-87964000D01*
X181758000Y-87961000D01*
X181752000Y-87958000D01*
X181747000Y-87955000D01*
X181742000Y-87951000D01*
X181736000Y-87947000D01*
X181731000Y-87943000D01*
X181727000Y-87938000D01*
X181722000Y-87934000D01*
X181718000Y-87929000D01*
X181714000Y-87923000D01*
X181710000Y-87918000D01*
X181707000Y-87912000D01*
X181704000Y-87907000D01*
X181701000Y-87901000D01*
X181698000Y-87895000D01*
X181696000Y-87889000D01*
X181694000Y-87882000D01*
X181693000Y-87876000D01*
X181692000Y-87870000D01*
X181691000Y-87863000D01*
X181690000Y-87857000D01*
X181690000Y-87850000D01*
X181690000Y-87650000D01*
X181690000Y-87643000D01*
X181691000Y-87637000D01*
X181692000Y-87630000D01*
X181693000Y-87624000D01*
X181694000Y-87618000D01*
X181696000Y-87611000D01*
X181698000Y-87605000D01*
X181701000Y-87599000D01*
X181704000Y-87593000D01*
X181707000Y-87588000D01*
X181710000Y-87582000D01*
X181714000Y-87577000D01*
X181718000Y-87571000D01*
X181722000Y-87566000D01*
X181727000Y-87562000D01*
X181731000Y-87557000D01*
X181736000Y-87553000D01*
X181742000Y-87549000D01*
X181747000Y-87545000D01*
X181752000Y-87542000D01*
X181758000Y-87539000D01*
X181764000Y-87536000D01*
X181770000Y-87533000D01*
X181776000Y-87531000D01*
X181783000Y-87529000D01*
X181789000Y-87528000D01*
X181795000Y-87527000D01*
X181802000Y-87526000D01*
X181808000Y-87525000D01*
X181815000Y-87525000D01*
X182255000Y-87525000D01*
X182262000Y-87525000D01*
X182268000Y-87526000D01*
G37*
X182268000Y-88026000D02*
X182275000Y-88027000D01*
X182281000Y-88028000D01*
X182287000Y-88029000D01*
X182294000Y-88031000D01*
X182300000Y-88033000D01*
X182306000Y-88036000D01*
X182312000Y-88039000D01*
X182318000Y-88042000D01*
X182323000Y-88045000D01*
X182328000Y-88049000D01*
X182334000Y-88053000D01*
X182339000Y-88057000D01*
X182343000Y-88062000D01*
X182348000Y-88066000D01*
X182352000Y-88071000D01*
X182356000Y-88077000D01*
X182360000Y-88082000D01*
X182363000Y-88087000D01*
X182366000Y-88093000D01*
X182369000Y-88099000D01*
X182372000Y-88105000D01*
X182374000Y-88111000D01*
X182376000Y-88118000D01*
X182377000Y-88124000D01*
X182378000Y-88130000D01*
X182379000Y-88137000D01*
X182380000Y-88143000D01*
X182380000Y-88150000D01*
X182380000Y-88350000D01*
X182380000Y-88357000D01*
X182379000Y-88363000D01*
X182378000Y-88370000D01*
X182377000Y-88376000D01*
X182376000Y-88382000D01*
X182374000Y-88389000D01*
X182372000Y-88395000D01*
X182369000Y-88401000D01*
X182366000Y-88407000D01*
X182363000Y-88413000D01*
X182360000Y-88418000D01*
X182356000Y-88423000D01*
X182352000Y-88429000D01*
X182348000Y-88434000D01*
X182343000Y-88438000D01*
X182339000Y-88443000D01*
X182334000Y-88447000D01*
X182328000Y-88451000D01*
X182323000Y-88455000D01*
X182318000Y-88458000D01*
X182312000Y-88461000D01*
X182306000Y-88464000D01*
X182300000Y-88467000D01*
X182294000Y-88469000D01*
X182287000Y-88471000D01*
X182281000Y-88472000D01*
X182275000Y-88473000D01*
X182268000Y-88474000D01*
X182262000Y-88475000D01*
X182255000Y-88475000D01*
X181815000Y-88475000D01*
X181808000Y-88475000D01*
X181802000Y-88474000D01*
X181795000Y-88473000D01*
X181789000Y-88472000D01*
X181783000Y-88471000D01*
X181776000Y-88469000D01*
X181770000Y-88467000D01*
X181764000Y-88464000D01*
X181758000Y-88461000D01*
X181752000Y-88458000D01*
X181747000Y-88455000D01*
X181742000Y-88451000D01*
X181736000Y-88447000D01*
X181731000Y-88443000D01*
X181727000Y-88438000D01*
X181722000Y-88434000D01*
X181718000Y-88429000D01*
X181714000Y-88423000D01*
X181710000Y-88418000D01*
X181707000Y-88412000D01*
X181704000Y-88407000D01*
X181701000Y-88401000D01*
X181698000Y-88395000D01*
X181696000Y-88389000D01*
X181694000Y-88382000D01*
X181693000Y-88376000D01*
X181692000Y-88370000D01*
X181691000Y-88363000D01*
X181690000Y-88357000D01*
X181690000Y-88350000D01*
X181690000Y-88150000D01*
X181690000Y-88143000D01*
X181691000Y-88137000D01*
X181692000Y-88130000D01*
X181693000Y-88124000D01*
X181694000Y-88118000D01*
X181696000Y-88111000D01*
X181698000Y-88105000D01*
X181701000Y-88099000D01*
X181704000Y-88093000D01*
X181707000Y-88087000D01*
X181710000Y-88082000D01*
X181714000Y-88077000D01*
X181718000Y-88071000D01*
X181722000Y-88066000D01*
X181727000Y-88062000D01*
X181731000Y-88057000D01*
X181736000Y-88053000D01*
X181742000Y-88049000D01*
X181747000Y-88045000D01*
X181752000Y-88042000D01*
X181758000Y-88039000D01*
X181764000Y-88036000D01*
X181770000Y-88033000D01*
X181776000Y-88031000D01*
X181783000Y-88029000D01*
X181789000Y-88028000D01*
X181795000Y-88027000D01*
X181802000Y-88026000D01*
X181808000Y-88025000D01*
X181815000Y-88025000D01*
X182255000Y-88025000D01*
X182262000Y-88025000D01*
X182268000Y-88026000D01*
G36*
X182268000Y-88026000D02*
G01*
X182275000Y-88027000D01*
X182281000Y-88028000D01*
X182287000Y-88029000D01*
X182294000Y-88031000D01*
X182300000Y-88033000D01*
X182306000Y-88036000D01*
X182312000Y-88039000D01*
X182318000Y-88042000D01*
X182323000Y-88045000D01*
X182328000Y-88049000D01*
X182334000Y-88053000D01*
X182339000Y-88057000D01*
X182343000Y-88062000D01*
X182348000Y-88066000D01*
X182352000Y-88071000D01*
X182356000Y-88077000D01*
X182360000Y-88082000D01*
X182363000Y-88087000D01*
X182366000Y-88093000D01*
X182369000Y-88099000D01*
X182372000Y-88105000D01*
X182374000Y-88111000D01*
X182376000Y-88118000D01*
X182377000Y-88124000D01*
X182378000Y-88130000D01*
X182379000Y-88137000D01*
X182380000Y-88143000D01*
X182380000Y-88150000D01*
X182380000Y-88350000D01*
X182380000Y-88357000D01*
X182379000Y-88363000D01*
X182378000Y-88370000D01*
X182377000Y-88376000D01*
X182376000Y-88382000D01*
X182374000Y-88389000D01*
X182372000Y-88395000D01*
X182369000Y-88401000D01*
X182366000Y-88407000D01*
X182363000Y-88413000D01*
X182360000Y-88418000D01*
X182356000Y-88423000D01*
X182352000Y-88429000D01*
X182348000Y-88434000D01*
X182343000Y-88438000D01*
X182339000Y-88443000D01*
X182334000Y-88447000D01*
X182328000Y-88451000D01*
X182323000Y-88455000D01*
X182318000Y-88458000D01*
X182312000Y-88461000D01*
X182306000Y-88464000D01*
X182300000Y-88467000D01*
X182294000Y-88469000D01*
X182287000Y-88471000D01*
X182281000Y-88472000D01*
X182275000Y-88473000D01*
X182268000Y-88474000D01*
X182262000Y-88475000D01*
X182255000Y-88475000D01*
X181815000Y-88475000D01*
X181808000Y-88475000D01*
X181802000Y-88474000D01*
X181795000Y-88473000D01*
X181789000Y-88472000D01*
X181783000Y-88471000D01*
X181776000Y-88469000D01*
X181770000Y-88467000D01*
X181764000Y-88464000D01*
X181758000Y-88461000D01*
X181752000Y-88458000D01*
X181747000Y-88455000D01*
X181742000Y-88451000D01*
X181736000Y-88447000D01*
X181731000Y-88443000D01*
X181727000Y-88438000D01*
X181722000Y-88434000D01*
X181718000Y-88429000D01*
X181714000Y-88423000D01*
X181710000Y-88418000D01*
X181707000Y-88412000D01*
X181704000Y-88407000D01*
X181701000Y-88401000D01*
X181698000Y-88395000D01*
X181696000Y-88389000D01*
X181694000Y-88382000D01*
X181693000Y-88376000D01*
X181692000Y-88370000D01*
X181691000Y-88363000D01*
X181690000Y-88357000D01*
X181690000Y-88350000D01*
X181690000Y-88150000D01*
X181690000Y-88143000D01*
X181691000Y-88137000D01*
X181692000Y-88130000D01*
X181693000Y-88124000D01*
X181694000Y-88118000D01*
X181696000Y-88111000D01*
X181698000Y-88105000D01*
X181701000Y-88099000D01*
X181704000Y-88093000D01*
X181707000Y-88087000D01*
X181710000Y-88082000D01*
X181714000Y-88077000D01*
X181718000Y-88071000D01*
X181722000Y-88066000D01*
X181727000Y-88062000D01*
X181731000Y-88057000D01*
X181736000Y-88053000D01*
X181742000Y-88049000D01*
X181747000Y-88045000D01*
X181752000Y-88042000D01*
X181758000Y-88039000D01*
X181764000Y-88036000D01*
X181770000Y-88033000D01*
X181776000Y-88031000D01*
X181783000Y-88029000D01*
X181789000Y-88028000D01*
X181795000Y-88027000D01*
X181802000Y-88026000D01*
X181808000Y-88025000D01*
X181815000Y-88025000D01*
X182255000Y-88025000D01*
X182262000Y-88025000D01*
X182268000Y-88026000D01*
G37*
X182268000Y-88526000D02*
X182275000Y-88527000D01*
X182281000Y-88528000D01*
X182287000Y-88529000D01*
X182294000Y-88531000D01*
X182300000Y-88533000D01*
X182306000Y-88536000D01*
X182312000Y-88539000D01*
X182318000Y-88542000D01*
X182323000Y-88545000D01*
X182328000Y-88549000D01*
X182334000Y-88553000D01*
X182339000Y-88557000D01*
X182343000Y-88562000D01*
X182348000Y-88566000D01*
X182352000Y-88571000D01*
X182356000Y-88577000D01*
X182360000Y-88582000D01*
X182363000Y-88588000D01*
X182366000Y-88593000D01*
X182369000Y-88599000D01*
X182372000Y-88605000D01*
X182374000Y-88611000D01*
X182376000Y-88618000D01*
X182377000Y-88624000D01*
X182378000Y-88630000D01*
X182379000Y-88637000D01*
X182380000Y-88643000D01*
X182380000Y-88650000D01*
X182380000Y-88850000D01*
X182380000Y-88857000D01*
X182379000Y-88863000D01*
X182378000Y-88870000D01*
X182377000Y-88876000D01*
X182376000Y-88882000D01*
X182374000Y-88889000D01*
X182372000Y-88895000D01*
X182369000Y-88901000D01*
X182366000Y-88907000D01*
X182363000Y-88913000D01*
X182360000Y-88918000D01*
X182356000Y-88923000D01*
X182352000Y-88929000D01*
X182348000Y-88934000D01*
X182343000Y-88938000D01*
X182339000Y-88943000D01*
X182334000Y-88947000D01*
X182328000Y-88951000D01*
X182323000Y-88955000D01*
X182318000Y-88958000D01*
X182312000Y-88961000D01*
X182306000Y-88964000D01*
X182300000Y-88967000D01*
X182294000Y-88969000D01*
X182287000Y-88971000D01*
X182281000Y-88972000D01*
X182275000Y-88973000D01*
X182268000Y-88974000D01*
X182262000Y-88975000D01*
X182255000Y-88975000D01*
X181815000Y-88975000D01*
X181808000Y-88975000D01*
X181802000Y-88974000D01*
X181795000Y-88973000D01*
X181789000Y-88972000D01*
X181783000Y-88971000D01*
X181776000Y-88969000D01*
X181770000Y-88967000D01*
X181764000Y-88964000D01*
X181758000Y-88961000D01*
X181752000Y-88958000D01*
X181747000Y-88955000D01*
X181742000Y-88951000D01*
X181736000Y-88947000D01*
X181731000Y-88943000D01*
X181727000Y-88938000D01*
X181722000Y-88934000D01*
X181718000Y-88929000D01*
X181714000Y-88923000D01*
X181710000Y-88918000D01*
X181707000Y-88912000D01*
X181704000Y-88907000D01*
X181701000Y-88901000D01*
X181698000Y-88895000D01*
X181696000Y-88889000D01*
X181694000Y-88882000D01*
X181693000Y-88876000D01*
X181692000Y-88870000D01*
X181691000Y-88863000D01*
X181690000Y-88857000D01*
X181690000Y-88850000D01*
X181690000Y-88650000D01*
X181690000Y-88643000D01*
X181691000Y-88637000D01*
X181692000Y-88630000D01*
X181693000Y-88624000D01*
X181694000Y-88618000D01*
X181696000Y-88611000D01*
X181698000Y-88605000D01*
X181701000Y-88599000D01*
X181704000Y-88593000D01*
X181707000Y-88588000D01*
X181710000Y-88582000D01*
X181714000Y-88577000D01*
X181718000Y-88571000D01*
X181722000Y-88566000D01*
X181727000Y-88562000D01*
X181731000Y-88557000D01*
X181736000Y-88553000D01*
X181742000Y-88549000D01*
X181747000Y-88545000D01*
X181752000Y-88542000D01*
X181758000Y-88539000D01*
X181764000Y-88536000D01*
X181770000Y-88533000D01*
X181776000Y-88531000D01*
X181783000Y-88529000D01*
X181789000Y-88528000D01*
X181795000Y-88527000D01*
X181802000Y-88526000D01*
X181808000Y-88525000D01*
X181815000Y-88525000D01*
X182255000Y-88525000D01*
X182262000Y-88525000D01*
X182268000Y-88526000D01*
G36*
X182268000Y-88526000D02*
G01*
X182275000Y-88527000D01*
X182281000Y-88528000D01*
X182287000Y-88529000D01*
X182294000Y-88531000D01*
X182300000Y-88533000D01*
X182306000Y-88536000D01*
X182312000Y-88539000D01*
X182318000Y-88542000D01*
X182323000Y-88545000D01*
X182328000Y-88549000D01*
X182334000Y-88553000D01*
X182339000Y-88557000D01*
X182343000Y-88562000D01*
X182348000Y-88566000D01*
X182352000Y-88571000D01*
X182356000Y-88577000D01*
X182360000Y-88582000D01*
X182363000Y-88588000D01*
X182366000Y-88593000D01*
X182369000Y-88599000D01*
X182372000Y-88605000D01*
X182374000Y-88611000D01*
X182376000Y-88618000D01*
X182377000Y-88624000D01*
X182378000Y-88630000D01*
X182379000Y-88637000D01*
X182380000Y-88643000D01*
X182380000Y-88650000D01*
X182380000Y-88850000D01*
X182380000Y-88857000D01*
X182379000Y-88863000D01*
X182378000Y-88870000D01*
X182377000Y-88876000D01*
X182376000Y-88882000D01*
X182374000Y-88889000D01*
X182372000Y-88895000D01*
X182369000Y-88901000D01*
X182366000Y-88907000D01*
X182363000Y-88913000D01*
X182360000Y-88918000D01*
X182356000Y-88923000D01*
X182352000Y-88929000D01*
X182348000Y-88934000D01*
X182343000Y-88938000D01*
X182339000Y-88943000D01*
X182334000Y-88947000D01*
X182328000Y-88951000D01*
X182323000Y-88955000D01*
X182318000Y-88958000D01*
X182312000Y-88961000D01*
X182306000Y-88964000D01*
X182300000Y-88967000D01*
X182294000Y-88969000D01*
X182287000Y-88971000D01*
X182281000Y-88972000D01*
X182275000Y-88973000D01*
X182268000Y-88974000D01*
X182262000Y-88975000D01*
X182255000Y-88975000D01*
X181815000Y-88975000D01*
X181808000Y-88975000D01*
X181802000Y-88974000D01*
X181795000Y-88973000D01*
X181789000Y-88972000D01*
X181783000Y-88971000D01*
X181776000Y-88969000D01*
X181770000Y-88967000D01*
X181764000Y-88964000D01*
X181758000Y-88961000D01*
X181752000Y-88958000D01*
X181747000Y-88955000D01*
X181742000Y-88951000D01*
X181736000Y-88947000D01*
X181731000Y-88943000D01*
X181727000Y-88938000D01*
X181722000Y-88934000D01*
X181718000Y-88929000D01*
X181714000Y-88923000D01*
X181710000Y-88918000D01*
X181707000Y-88912000D01*
X181704000Y-88907000D01*
X181701000Y-88901000D01*
X181698000Y-88895000D01*
X181696000Y-88889000D01*
X181694000Y-88882000D01*
X181693000Y-88876000D01*
X181692000Y-88870000D01*
X181691000Y-88863000D01*
X181690000Y-88857000D01*
X181690000Y-88850000D01*
X181690000Y-88650000D01*
X181690000Y-88643000D01*
X181691000Y-88637000D01*
X181692000Y-88630000D01*
X181693000Y-88624000D01*
X181694000Y-88618000D01*
X181696000Y-88611000D01*
X181698000Y-88605000D01*
X181701000Y-88599000D01*
X181704000Y-88593000D01*
X181707000Y-88588000D01*
X181710000Y-88582000D01*
X181714000Y-88577000D01*
X181718000Y-88571000D01*
X181722000Y-88566000D01*
X181727000Y-88562000D01*
X181731000Y-88557000D01*
X181736000Y-88553000D01*
X181742000Y-88549000D01*
X181747000Y-88545000D01*
X181752000Y-88542000D01*
X181758000Y-88539000D01*
X181764000Y-88536000D01*
X181770000Y-88533000D01*
X181776000Y-88531000D01*
X181783000Y-88529000D01*
X181789000Y-88528000D01*
X181795000Y-88527000D01*
X181802000Y-88526000D01*
X181808000Y-88525000D01*
X181815000Y-88525000D01*
X182255000Y-88525000D01*
X182262000Y-88525000D01*
X182268000Y-88526000D01*
G37*
X182313000Y-86741000D02*
X182320000Y-86742000D01*
X182326000Y-86743000D01*
X182332000Y-86744000D01*
X182339000Y-86746000D01*
X182345000Y-86748000D01*
X182351000Y-86751000D01*
X182357000Y-86754000D01*
X182362000Y-86757000D01*
X182368000Y-86760000D01*
X182373000Y-86764000D01*
X182379000Y-86768000D01*
X182384000Y-86772000D01*
X182388000Y-86777000D01*
X182393000Y-86781000D01*
X182397000Y-86786000D01*
X182401000Y-86792000D01*
X182405000Y-86797000D01*
X182408000Y-86802000D01*
X182411000Y-86808000D01*
X182414000Y-86814000D01*
X182417000Y-86820000D01*
X182419000Y-86826000D01*
X182421000Y-86833000D01*
X182422000Y-86839000D01*
X182423000Y-86845000D01*
X182424000Y-86852000D01*
X182425000Y-86858000D01*
X182425000Y-86865000D01*
X182425000Y-87305000D01*
X182425000Y-87312000D01*
X182424000Y-87318000D01*
X182423000Y-87325000D01*
X182422000Y-87331000D01*
X182421000Y-87337000D01*
X182419000Y-87344000D01*
X182417000Y-87350000D01*
X182414000Y-87356000D01*
X182411000Y-87362000D01*
X182408000Y-87368000D01*
X182405000Y-87373000D01*
X182401000Y-87378000D01*
X182397000Y-87384000D01*
X182393000Y-87389000D01*
X182388000Y-87393000D01*
X182384000Y-87398000D01*
X182379000Y-87402000D01*
X182373000Y-87406000D01*
X182368000Y-87410000D01*
X182362000Y-87413000D01*
X182357000Y-87416000D01*
X182351000Y-87419000D01*
X182345000Y-87422000D01*
X182339000Y-87424000D01*
X182332000Y-87426000D01*
X182326000Y-87427000D01*
X182320000Y-87428000D01*
X182313000Y-87429000D01*
X182307000Y-87430000D01*
X182300000Y-87430000D01*
X182100000Y-87430000D01*
X182093000Y-87430000D01*
X182087000Y-87429000D01*
X182080000Y-87428000D01*
X182074000Y-87427000D01*
X182068000Y-87426000D01*
X182061000Y-87424000D01*
X182055000Y-87422000D01*
X182049000Y-87419000D01*
X182043000Y-87416000D01*
X182038000Y-87413000D01*
X182032000Y-87410000D01*
X182027000Y-87406000D01*
X182021000Y-87402000D01*
X182016000Y-87398000D01*
X182012000Y-87393000D01*
X182007000Y-87389000D01*
X182003000Y-87384000D01*
X181999000Y-87378000D01*
X181995000Y-87373000D01*
X181992000Y-87368000D01*
X181989000Y-87362000D01*
X181986000Y-87356000D01*
X181983000Y-87350000D01*
X181981000Y-87344000D01*
X181979000Y-87337000D01*
X181978000Y-87331000D01*
X181977000Y-87325000D01*
X181976000Y-87318000D01*
X181975000Y-87312000D01*
X181975000Y-87305000D01*
X181975000Y-86865000D01*
X181975000Y-86858000D01*
X181976000Y-86852000D01*
X181977000Y-86845000D01*
X181978000Y-86839000D01*
X181979000Y-86833000D01*
X181981000Y-86826000D01*
X181983000Y-86820000D01*
X181986000Y-86814000D01*
X181989000Y-86808000D01*
X181992000Y-86802000D01*
X181995000Y-86797000D01*
X181999000Y-86792000D01*
X182003000Y-86786000D01*
X182007000Y-86781000D01*
X182012000Y-86777000D01*
X182016000Y-86772000D01*
X182021000Y-86768000D01*
X182027000Y-86764000D01*
X182032000Y-86760000D01*
X182038000Y-86757000D01*
X182043000Y-86754000D01*
X182049000Y-86751000D01*
X182055000Y-86748000D01*
X182061000Y-86746000D01*
X182068000Y-86744000D01*
X182074000Y-86743000D01*
X182080000Y-86742000D01*
X182087000Y-86741000D01*
X182093000Y-86740000D01*
X182100000Y-86740000D01*
X182300000Y-86740000D01*
X182307000Y-86740000D01*
X182313000Y-86741000D01*
G36*
X182313000Y-86741000D02*
G01*
X182320000Y-86742000D01*
X182326000Y-86743000D01*
X182332000Y-86744000D01*
X182339000Y-86746000D01*
X182345000Y-86748000D01*
X182351000Y-86751000D01*
X182357000Y-86754000D01*
X182362000Y-86757000D01*
X182368000Y-86760000D01*
X182373000Y-86764000D01*
X182379000Y-86768000D01*
X182384000Y-86772000D01*
X182388000Y-86777000D01*
X182393000Y-86781000D01*
X182397000Y-86786000D01*
X182401000Y-86792000D01*
X182405000Y-86797000D01*
X182408000Y-86802000D01*
X182411000Y-86808000D01*
X182414000Y-86814000D01*
X182417000Y-86820000D01*
X182419000Y-86826000D01*
X182421000Y-86833000D01*
X182422000Y-86839000D01*
X182423000Y-86845000D01*
X182424000Y-86852000D01*
X182425000Y-86858000D01*
X182425000Y-86865000D01*
X182425000Y-87305000D01*
X182425000Y-87312000D01*
X182424000Y-87318000D01*
X182423000Y-87325000D01*
X182422000Y-87331000D01*
X182421000Y-87337000D01*
X182419000Y-87344000D01*
X182417000Y-87350000D01*
X182414000Y-87356000D01*
X182411000Y-87362000D01*
X182408000Y-87368000D01*
X182405000Y-87373000D01*
X182401000Y-87378000D01*
X182397000Y-87384000D01*
X182393000Y-87389000D01*
X182388000Y-87393000D01*
X182384000Y-87398000D01*
X182379000Y-87402000D01*
X182373000Y-87406000D01*
X182368000Y-87410000D01*
X182362000Y-87413000D01*
X182357000Y-87416000D01*
X182351000Y-87419000D01*
X182345000Y-87422000D01*
X182339000Y-87424000D01*
X182332000Y-87426000D01*
X182326000Y-87427000D01*
X182320000Y-87428000D01*
X182313000Y-87429000D01*
X182307000Y-87430000D01*
X182300000Y-87430000D01*
X182100000Y-87430000D01*
X182093000Y-87430000D01*
X182087000Y-87429000D01*
X182080000Y-87428000D01*
X182074000Y-87427000D01*
X182068000Y-87426000D01*
X182061000Y-87424000D01*
X182055000Y-87422000D01*
X182049000Y-87419000D01*
X182043000Y-87416000D01*
X182038000Y-87413000D01*
X182032000Y-87410000D01*
X182027000Y-87406000D01*
X182021000Y-87402000D01*
X182016000Y-87398000D01*
X182012000Y-87393000D01*
X182007000Y-87389000D01*
X182003000Y-87384000D01*
X181999000Y-87378000D01*
X181995000Y-87373000D01*
X181992000Y-87368000D01*
X181989000Y-87362000D01*
X181986000Y-87356000D01*
X181983000Y-87350000D01*
X181981000Y-87344000D01*
X181979000Y-87337000D01*
X181978000Y-87331000D01*
X181977000Y-87325000D01*
X181976000Y-87318000D01*
X181975000Y-87312000D01*
X181975000Y-87305000D01*
X181975000Y-86865000D01*
X181975000Y-86858000D01*
X181976000Y-86852000D01*
X181977000Y-86845000D01*
X181978000Y-86839000D01*
X181979000Y-86833000D01*
X181981000Y-86826000D01*
X181983000Y-86820000D01*
X181986000Y-86814000D01*
X181989000Y-86808000D01*
X181992000Y-86802000D01*
X181995000Y-86797000D01*
X181999000Y-86792000D01*
X182003000Y-86786000D01*
X182007000Y-86781000D01*
X182012000Y-86777000D01*
X182016000Y-86772000D01*
X182021000Y-86768000D01*
X182027000Y-86764000D01*
X182032000Y-86760000D01*
X182038000Y-86757000D01*
X182043000Y-86754000D01*
X182049000Y-86751000D01*
X182055000Y-86748000D01*
X182061000Y-86746000D01*
X182068000Y-86744000D01*
X182074000Y-86743000D01*
X182080000Y-86742000D01*
X182087000Y-86741000D01*
X182093000Y-86740000D01*
X182100000Y-86740000D01*
X182300000Y-86740000D01*
X182307000Y-86740000D01*
X182313000Y-86741000D01*
G37*
X182313000Y-89071000D02*
X182320000Y-89072000D01*
X182326000Y-89073000D01*
X182332000Y-89074000D01*
X182339000Y-89076000D01*
X182345000Y-89078000D01*
X182351000Y-89081000D01*
X182357000Y-89084000D01*
X182362000Y-89087000D01*
X182368000Y-89090000D01*
X182373000Y-89094000D01*
X182379000Y-89098000D01*
X182384000Y-89102000D01*
X182388000Y-89107000D01*
X182393000Y-89111000D01*
X182397000Y-89116000D01*
X182401000Y-89122000D01*
X182405000Y-89127000D01*
X182408000Y-89132000D01*
X182411000Y-89138000D01*
X182414000Y-89144000D01*
X182417000Y-89150000D01*
X182419000Y-89156000D01*
X182421000Y-89163000D01*
X182422000Y-89169000D01*
X182423000Y-89175000D01*
X182424000Y-89182000D01*
X182425000Y-89188000D01*
X182425000Y-89195000D01*
X182425000Y-89635000D01*
X182425000Y-89642000D01*
X182424000Y-89648000D01*
X182423000Y-89655000D01*
X182422000Y-89661000D01*
X182421000Y-89667000D01*
X182419000Y-89674000D01*
X182417000Y-89680000D01*
X182414000Y-89686000D01*
X182411000Y-89692000D01*
X182408000Y-89698000D01*
X182405000Y-89703000D01*
X182401000Y-89708000D01*
X182397000Y-89714000D01*
X182393000Y-89719000D01*
X182388000Y-89723000D01*
X182384000Y-89728000D01*
X182379000Y-89732000D01*
X182373000Y-89736000D01*
X182368000Y-89740000D01*
X182362000Y-89743000D01*
X182357000Y-89746000D01*
X182351000Y-89749000D01*
X182345000Y-89752000D01*
X182339000Y-89754000D01*
X182332000Y-89756000D01*
X182326000Y-89757000D01*
X182320000Y-89758000D01*
X182313000Y-89759000D01*
X182307000Y-89760000D01*
X182300000Y-89760000D01*
X182100000Y-89760000D01*
X182093000Y-89760000D01*
X182087000Y-89759000D01*
X182080000Y-89758000D01*
X182074000Y-89757000D01*
X182068000Y-89756000D01*
X182061000Y-89754000D01*
X182055000Y-89752000D01*
X182049000Y-89749000D01*
X182043000Y-89746000D01*
X182038000Y-89743000D01*
X182032000Y-89740000D01*
X182027000Y-89736000D01*
X182021000Y-89732000D01*
X182016000Y-89728000D01*
X182012000Y-89723000D01*
X182007000Y-89719000D01*
X182003000Y-89714000D01*
X181999000Y-89708000D01*
X181995000Y-89703000D01*
X181992000Y-89698000D01*
X181989000Y-89692000D01*
X181986000Y-89686000D01*
X181983000Y-89680000D01*
X181981000Y-89674000D01*
X181979000Y-89667000D01*
X181978000Y-89661000D01*
X181977000Y-89655000D01*
X181976000Y-89648000D01*
X181975000Y-89642000D01*
X181975000Y-89635000D01*
X181975000Y-89195000D01*
X181975000Y-89188000D01*
X181976000Y-89182000D01*
X181977000Y-89175000D01*
X181978000Y-89169000D01*
X181979000Y-89163000D01*
X181981000Y-89156000D01*
X181983000Y-89150000D01*
X181986000Y-89144000D01*
X181989000Y-89138000D01*
X181992000Y-89132000D01*
X181995000Y-89127000D01*
X181999000Y-89122000D01*
X182003000Y-89116000D01*
X182007000Y-89111000D01*
X182012000Y-89107000D01*
X182016000Y-89102000D01*
X182021000Y-89098000D01*
X182027000Y-89094000D01*
X182032000Y-89090000D01*
X182038000Y-89087000D01*
X182043000Y-89084000D01*
X182049000Y-89081000D01*
X182055000Y-89078000D01*
X182061000Y-89076000D01*
X182068000Y-89074000D01*
X182074000Y-89073000D01*
X182080000Y-89072000D01*
X182087000Y-89071000D01*
X182093000Y-89070000D01*
X182100000Y-89070000D01*
X182300000Y-89070000D01*
X182307000Y-89070000D01*
X182313000Y-89071000D01*
G36*
X182313000Y-89071000D02*
G01*
X182320000Y-89072000D01*
X182326000Y-89073000D01*
X182332000Y-89074000D01*
X182339000Y-89076000D01*
X182345000Y-89078000D01*
X182351000Y-89081000D01*
X182357000Y-89084000D01*
X182362000Y-89087000D01*
X182368000Y-89090000D01*
X182373000Y-89094000D01*
X182379000Y-89098000D01*
X182384000Y-89102000D01*
X182388000Y-89107000D01*
X182393000Y-89111000D01*
X182397000Y-89116000D01*
X182401000Y-89122000D01*
X182405000Y-89127000D01*
X182408000Y-89132000D01*
X182411000Y-89138000D01*
X182414000Y-89144000D01*
X182417000Y-89150000D01*
X182419000Y-89156000D01*
X182421000Y-89163000D01*
X182422000Y-89169000D01*
X182423000Y-89175000D01*
X182424000Y-89182000D01*
X182425000Y-89188000D01*
X182425000Y-89195000D01*
X182425000Y-89635000D01*
X182425000Y-89642000D01*
X182424000Y-89648000D01*
X182423000Y-89655000D01*
X182422000Y-89661000D01*
X182421000Y-89667000D01*
X182419000Y-89674000D01*
X182417000Y-89680000D01*
X182414000Y-89686000D01*
X182411000Y-89692000D01*
X182408000Y-89698000D01*
X182405000Y-89703000D01*
X182401000Y-89708000D01*
X182397000Y-89714000D01*
X182393000Y-89719000D01*
X182388000Y-89723000D01*
X182384000Y-89728000D01*
X182379000Y-89732000D01*
X182373000Y-89736000D01*
X182368000Y-89740000D01*
X182362000Y-89743000D01*
X182357000Y-89746000D01*
X182351000Y-89749000D01*
X182345000Y-89752000D01*
X182339000Y-89754000D01*
X182332000Y-89756000D01*
X182326000Y-89757000D01*
X182320000Y-89758000D01*
X182313000Y-89759000D01*
X182307000Y-89760000D01*
X182300000Y-89760000D01*
X182100000Y-89760000D01*
X182093000Y-89760000D01*
X182087000Y-89759000D01*
X182080000Y-89758000D01*
X182074000Y-89757000D01*
X182068000Y-89756000D01*
X182061000Y-89754000D01*
X182055000Y-89752000D01*
X182049000Y-89749000D01*
X182043000Y-89746000D01*
X182038000Y-89743000D01*
X182032000Y-89740000D01*
X182027000Y-89736000D01*
X182021000Y-89732000D01*
X182016000Y-89728000D01*
X182012000Y-89723000D01*
X182007000Y-89719000D01*
X182003000Y-89714000D01*
X181999000Y-89708000D01*
X181995000Y-89703000D01*
X181992000Y-89698000D01*
X181989000Y-89692000D01*
X181986000Y-89686000D01*
X181983000Y-89680000D01*
X181981000Y-89674000D01*
X181979000Y-89667000D01*
X181978000Y-89661000D01*
X181977000Y-89655000D01*
X181976000Y-89648000D01*
X181975000Y-89642000D01*
X181975000Y-89635000D01*
X181975000Y-89195000D01*
X181975000Y-89188000D01*
X181976000Y-89182000D01*
X181977000Y-89175000D01*
X181978000Y-89169000D01*
X181979000Y-89163000D01*
X181981000Y-89156000D01*
X181983000Y-89150000D01*
X181986000Y-89144000D01*
X181989000Y-89138000D01*
X181992000Y-89132000D01*
X181995000Y-89127000D01*
X181999000Y-89122000D01*
X182003000Y-89116000D01*
X182007000Y-89111000D01*
X182012000Y-89107000D01*
X182016000Y-89102000D01*
X182021000Y-89098000D01*
X182027000Y-89094000D01*
X182032000Y-89090000D01*
X182038000Y-89087000D01*
X182043000Y-89084000D01*
X182049000Y-89081000D01*
X182055000Y-89078000D01*
X182061000Y-89076000D01*
X182068000Y-89074000D01*
X182074000Y-89073000D01*
X182080000Y-89072000D01*
X182087000Y-89071000D01*
X182093000Y-89070000D01*
X182100000Y-89070000D01*
X182300000Y-89070000D01*
X182307000Y-89070000D01*
X182313000Y-89071000D01*
G37*
X182813000Y-86741000D02*
X182820000Y-86742000D01*
X182826000Y-86743000D01*
X182832000Y-86744000D01*
X182839000Y-86746000D01*
X182845000Y-86748000D01*
X182851000Y-86751000D01*
X182857000Y-86754000D01*
X182862000Y-86757000D01*
X182868000Y-86760000D01*
X182873000Y-86764000D01*
X182879000Y-86768000D01*
X182884000Y-86772000D01*
X182888000Y-86777000D01*
X182893000Y-86781000D01*
X182897000Y-86786000D01*
X182901000Y-86792000D01*
X182905000Y-86797000D01*
X182908000Y-86802000D01*
X182911000Y-86808000D01*
X182914000Y-86814000D01*
X182917000Y-86820000D01*
X182919000Y-86826000D01*
X182921000Y-86833000D01*
X182922000Y-86839000D01*
X182923000Y-86845000D01*
X182924000Y-86852000D01*
X182925000Y-86858000D01*
X182925000Y-86865000D01*
X182925000Y-87305000D01*
X182925000Y-87312000D01*
X182924000Y-87318000D01*
X182923000Y-87325000D01*
X182922000Y-87331000D01*
X182921000Y-87337000D01*
X182919000Y-87344000D01*
X182917000Y-87350000D01*
X182914000Y-87356000D01*
X182911000Y-87362000D01*
X182908000Y-87368000D01*
X182905000Y-87373000D01*
X182901000Y-87378000D01*
X182897000Y-87384000D01*
X182893000Y-87389000D01*
X182888000Y-87393000D01*
X182884000Y-87398000D01*
X182879000Y-87402000D01*
X182873000Y-87406000D01*
X182868000Y-87410000D01*
X182862000Y-87413000D01*
X182857000Y-87416000D01*
X182851000Y-87419000D01*
X182845000Y-87422000D01*
X182839000Y-87424000D01*
X182832000Y-87426000D01*
X182826000Y-87427000D01*
X182820000Y-87428000D01*
X182813000Y-87429000D01*
X182807000Y-87430000D01*
X182800000Y-87430000D01*
X182600000Y-87430000D01*
X182593000Y-87430000D01*
X182587000Y-87429000D01*
X182580000Y-87428000D01*
X182574000Y-87427000D01*
X182568000Y-87426000D01*
X182561000Y-87424000D01*
X182555000Y-87422000D01*
X182549000Y-87419000D01*
X182543000Y-87416000D01*
X182538000Y-87413000D01*
X182532000Y-87410000D01*
X182527000Y-87406000D01*
X182521000Y-87402000D01*
X182516000Y-87398000D01*
X182512000Y-87393000D01*
X182507000Y-87389000D01*
X182503000Y-87384000D01*
X182499000Y-87378000D01*
X182495000Y-87373000D01*
X182492000Y-87368000D01*
X182489000Y-87362000D01*
X182486000Y-87356000D01*
X182483000Y-87350000D01*
X182481000Y-87344000D01*
X182479000Y-87337000D01*
X182478000Y-87331000D01*
X182477000Y-87325000D01*
X182476000Y-87318000D01*
X182475000Y-87312000D01*
X182475000Y-87305000D01*
X182475000Y-86865000D01*
X182475000Y-86858000D01*
X182476000Y-86852000D01*
X182477000Y-86845000D01*
X182478000Y-86839000D01*
X182479000Y-86833000D01*
X182481000Y-86826000D01*
X182483000Y-86820000D01*
X182486000Y-86814000D01*
X182489000Y-86808000D01*
X182492000Y-86802000D01*
X182495000Y-86797000D01*
X182499000Y-86792000D01*
X182503000Y-86786000D01*
X182507000Y-86781000D01*
X182512000Y-86777000D01*
X182516000Y-86772000D01*
X182521000Y-86768000D01*
X182527000Y-86764000D01*
X182532000Y-86760000D01*
X182538000Y-86757000D01*
X182543000Y-86754000D01*
X182549000Y-86751000D01*
X182555000Y-86748000D01*
X182561000Y-86746000D01*
X182568000Y-86744000D01*
X182574000Y-86743000D01*
X182580000Y-86742000D01*
X182587000Y-86741000D01*
X182593000Y-86740000D01*
X182600000Y-86740000D01*
X182800000Y-86740000D01*
X182807000Y-86740000D01*
X182813000Y-86741000D01*
G36*
X182813000Y-86741000D02*
G01*
X182820000Y-86742000D01*
X182826000Y-86743000D01*
X182832000Y-86744000D01*
X182839000Y-86746000D01*
X182845000Y-86748000D01*
X182851000Y-86751000D01*
X182857000Y-86754000D01*
X182862000Y-86757000D01*
X182868000Y-86760000D01*
X182873000Y-86764000D01*
X182879000Y-86768000D01*
X182884000Y-86772000D01*
X182888000Y-86777000D01*
X182893000Y-86781000D01*
X182897000Y-86786000D01*
X182901000Y-86792000D01*
X182905000Y-86797000D01*
X182908000Y-86802000D01*
X182911000Y-86808000D01*
X182914000Y-86814000D01*
X182917000Y-86820000D01*
X182919000Y-86826000D01*
X182921000Y-86833000D01*
X182922000Y-86839000D01*
X182923000Y-86845000D01*
X182924000Y-86852000D01*
X182925000Y-86858000D01*
X182925000Y-86865000D01*
X182925000Y-87305000D01*
X182925000Y-87312000D01*
X182924000Y-87318000D01*
X182923000Y-87325000D01*
X182922000Y-87331000D01*
X182921000Y-87337000D01*
X182919000Y-87344000D01*
X182917000Y-87350000D01*
X182914000Y-87356000D01*
X182911000Y-87362000D01*
X182908000Y-87368000D01*
X182905000Y-87373000D01*
X182901000Y-87378000D01*
X182897000Y-87384000D01*
X182893000Y-87389000D01*
X182888000Y-87393000D01*
X182884000Y-87398000D01*
X182879000Y-87402000D01*
X182873000Y-87406000D01*
X182868000Y-87410000D01*
X182862000Y-87413000D01*
X182857000Y-87416000D01*
X182851000Y-87419000D01*
X182845000Y-87422000D01*
X182839000Y-87424000D01*
X182832000Y-87426000D01*
X182826000Y-87427000D01*
X182820000Y-87428000D01*
X182813000Y-87429000D01*
X182807000Y-87430000D01*
X182800000Y-87430000D01*
X182600000Y-87430000D01*
X182593000Y-87430000D01*
X182587000Y-87429000D01*
X182580000Y-87428000D01*
X182574000Y-87427000D01*
X182568000Y-87426000D01*
X182561000Y-87424000D01*
X182555000Y-87422000D01*
X182549000Y-87419000D01*
X182543000Y-87416000D01*
X182538000Y-87413000D01*
X182532000Y-87410000D01*
X182527000Y-87406000D01*
X182521000Y-87402000D01*
X182516000Y-87398000D01*
X182512000Y-87393000D01*
X182507000Y-87389000D01*
X182503000Y-87384000D01*
X182499000Y-87378000D01*
X182495000Y-87373000D01*
X182492000Y-87368000D01*
X182489000Y-87362000D01*
X182486000Y-87356000D01*
X182483000Y-87350000D01*
X182481000Y-87344000D01*
X182479000Y-87337000D01*
X182478000Y-87331000D01*
X182477000Y-87325000D01*
X182476000Y-87318000D01*
X182475000Y-87312000D01*
X182475000Y-87305000D01*
X182475000Y-86865000D01*
X182475000Y-86858000D01*
X182476000Y-86852000D01*
X182477000Y-86845000D01*
X182478000Y-86839000D01*
X182479000Y-86833000D01*
X182481000Y-86826000D01*
X182483000Y-86820000D01*
X182486000Y-86814000D01*
X182489000Y-86808000D01*
X182492000Y-86802000D01*
X182495000Y-86797000D01*
X182499000Y-86792000D01*
X182503000Y-86786000D01*
X182507000Y-86781000D01*
X182512000Y-86777000D01*
X182516000Y-86772000D01*
X182521000Y-86768000D01*
X182527000Y-86764000D01*
X182532000Y-86760000D01*
X182538000Y-86757000D01*
X182543000Y-86754000D01*
X182549000Y-86751000D01*
X182555000Y-86748000D01*
X182561000Y-86746000D01*
X182568000Y-86744000D01*
X182574000Y-86743000D01*
X182580000Y-86742000D01*
X182587000Y-86741000D01*
X182593000Y-86740000D01*
X182600000Y-86740000D01*
X182800000Y-86740000D01*
X182807000Y-86740000D01*
X182813000Y-86741000D01*
G37*
X182813000Y-89071000D02*
X182820000Y-89072000D01*
X182826000Y-89073000D01*
X182832000Y-89074000D01*
X182839000Y-89076000D01*
X182845000Y-89078000D01*
X182851000Y-89081000D01*
X182857000Y-89084000D01*
X182862000Y-89087000D01*
X182868000Y-89090000D01*
X182873000Y-89094000D01*
X182879000Y-89098000D01*
X182884000Y-89102000D01*
X182888000Y-89107000D01*
X182893000Y-89111000D01*
X182897000Y-89116000D01*
X182901000Y-89122000D01*
X182905000Y-89127000D01*
X182908000Y-89132000D01*
X182911000Y-89138000D01*
X182914000Y-89144000D01*
X182917000Y-89150000D01*
X182919000Y-89156000D01*
X182921000Y-89163000D01*
X182922000Y-89169000D01*
X182923000Y-89175000D01*
X182924000Y-89182000D01*
X182925000Y-89188000D01*
X182925000Y-89195000D01*
X182925000Y-89635000D01*
X182925000Y-89642000D01*
X182924000Y-89648000D01*
X182923000Y-89655000D01*
X182922000Y-89661000D01*
X182921000Y-89667000D01*
X182919000Y-89674000D01*
X182917000Y-89680000D01*
X182914000Y-89686000D01*
X182911000Y-89692000D01*
X182908000Y-89698000D01*
X182905000Y-89703000D01*
X182901000Y-89708000D01*
X182897000Y-89714000D01*
X182893000Y-89719000D01*
X182888000Y-89723000D01*
X182884000Y-89728000D01*
X182879000Y-89732000D01*
X182873000Y-89736000D01*
X182868000Y-89740000D01*
X182862000Y-89743000D01*
X182857000Y-89746000D01*
X182851000Y-89749000D01*
X182845000Y-89752000D01*
X182839000Y-89754000D01*
X182832000Y-89756000D01*
X182826000Y-89757000D01*
X182820000Y-89758000D01*
X182813000Y-89759000D01*
X182807000Y-89760000D01*
X182800000Y-89760000D01*
X182600000Y-89760000D01*
X182593000Y-89760000D01*
X182587000Y-89759000D01*
X182580000Y-89758000D01*
X182574000Y-89757000D01*
X182568000Y-89756000D01*
X182561000Y-89754000D01*
X182555000Y-89752000D01*
X182549000Y-89749000D01*
X182543000Y-89746000D01*
X182538000Y-89743000D01*
X182532000Y-89740000D01*
X182527000Y-89736000D01*
X182521000Y-89732000D01*
X182516000Y-89728000D01*
X182512000Y-89723000D01*
X182507000Y-89719000D01*
X182503000Y-89714000D01*
X182499000Y-89708000D01*
X182495000Y-89703000D01*
X182492000Y-89698000D01*
X182489000Y-89692000D01*
X182486000Y-89686000D01*
X182483000Y-89680000D01*
X182481000Y-89674000D01*
X182479000Y-89667000D01*
X182478000Y-89661000D01*
X182477000Y-89655000D01*
X182476000Y-89648000D01*
X182475000Y-89642000D01*
X182475000Y-89635000D01*
X182475000Y-89195000D01*
X182475000Y-89188000D01*
X182476000Y-89182000D01*
X182477000Y-89175000D01*
X182478000Y-89169000D01*
X182479000Y-89163000D01*
X182481000Y-89156000D01*
X182483000Y-89150000D01*
X182486000Y-89144000D01*
X182489000Y-89138000D01*
X182492000Y-89132000D01*
X182495000Y-89127000D01*
X182499000Y-89122000D01*
X182503000Y-89116000D01*
X182507000Y-89111000D01*
X182512000Y-89107000D01*
X182516000Y-89102000D01*
X182521000Y-89098000D01*
X182527000Y-89094000D01*
X182532000Y-89090000D01*
X182538000Y-89087000D01*
X182543000Y-89084000D01*
X182549000Y-89081000D01*
X182555000Y-89078000D01*
X182561000Y-89076000D01*
X182568000Y-89074000D01*
X182574000Y-89073000D01*
X182580000Y-89072000D01*
X182587000Y-89071000D01*
X182593000Y-89070000D01*
X182600000Y-89070000D01*
X182800000Y-89070000D01*
X182807000Y-89070000D01*
X182813000Y-89071000D01*
G36*
X182813000Y-89071000D02*
G01*
X182820000Y-89072000D01*
X182826000Y-89073000D01*
X182832000Y-89074000D01*
X182839000Y-89076000D01*
X182845000Y-89078000D01*
X182851000Y-89081000D01*
X182857000Y-89084000D01*
X182862000Y-89087000D01*
X182868000Y-89090000D01*
X182873000Y-89094000D01*
X182879000Y-89098000D01*
X182884000Y-89102000D01*
X182888000Y-89107000D01*
X182893000Y-89111000D01*
X182897000Y-89116000D01*
X182901000Y-89122000D01*
X182905000Y-89127000D01*
X182908000Y-89132000D01*
X182911000Y-89138000D01*
X182914000Y-89144000D01*
X182917000Y-89150000D01*
X182919000Y-89156000D01*
X182921000Y-89163000D01*
X182922000Y-89169000D01*
X182923000Y-89175000D01*
X182924000Y-89182000D01*
X182925000Y-89188000D01*
X182925000Y-89195000D01*
X182925000Y-89635000D01*
X182925000Y-89642000D01*
X182924000Y-89648000D01*
X182923000Y-89655000D01*
X182922000Y-89661000D01*
X182921000Y-89667000D01*
X182919000Y-89674000D01*
X182917000Y-89680000D01*
X182914000Y-89686000D01*
X182911000Y-89692000D01*
X182908000Y-89698000D01*
X182905000Y-89703000D01*
X182901000Y-89708000D01*
X182897000Y-89714000D01*
X182893000Y-89719000D01*
X182888000Y-89723000D01*
X182884000Y-89728000D01*
X182879000Y-89732000D01*
X182873000Y-89736000D01*
X182868000Y-89740000D01*
X182862000Y-89743000D01*
X182857000Y-89746000D01*
X182851000Y-89749000D01*
X182845000Y-89752000D01*
X182839000Y-89754000D01*
X182832000Y-89756000D01*
X182826000Y-89757000D01*
X182820000Y-89758000D01*
X182813000Y-89759000D01*
X182807000Y-89760000D01*
X182800000Y-89760000D01*
X182600000Y-89760000D01*
X182593000Y-89760000D01*
X182587000Y-89759000D01*
X182580000Y-89758000D01*
X182574000Y-89757000D01*
X182568000Y-89756000D01*
X182561000Y-89754000D01*
X182555000Y-89752000D01*
X182549000Y-89749000D01*
X182543000Y-89746000D01*
X182538000Y-89743000D01*
X182532000Y-89740000D01*
X182527000Y-89736000D01*
X182521000Y-89732000D01*
X182516000Y-89728000D01*
X182512000Y-89723000D01*
X182507000Y-89719000D01*
X182503000Y-89714000D01*
X182499000Y-89708000D01*
X182495000Y-89703000D01*
X182492000Y-89698000D01*
X182489000Y-89692000D01*
X182486000Y-89686000D01*
X182483000Y-89680000D01*
X182481000Y-89674000D01*
X182479000Y-89667000D01*
X182478000Y-89661000D01*
X182477000Y-89655000D01*
X182476000Y-89648000D01*
X182475000Y-89642000D01*
X182475000Y-89635000D01*
X182475000Y-89195000D01*
X182475000Y-89188000D01*
X182476000Y-89182000D01*
X182477000Y-89175000D01*
X182478000Y-89169000D01*
X182479000Y-89163000D01*
X182481000Y-89156000D01*
X182483000Y-89150000D01*
X182486000Y-89144000D01*
X182489000Y-89138000D01*
X182492000Y-89132000D01*
X182495000Y-89127000D01*
X182499000Y-89122000D01*
X182503000Y-89116000D01*
X182507000Y-89111000D01*
X182512000Y-89107000D01*
X182516000Y-89102000D01*
X182521000Y-89098000D01*
X182527000Y-89094000D01*
X182532000Y-89090000D01*
X182538000Y-89087000D01*
X182543000Y-89084000D01*
X182549000Y-89081000D01*
X182555000Y-89078000D01*
X182561000Y-89076000D01*
X182568000Y-89074000D01*
X182574000Y-89073000D01*
X182580000Y-89072000D01*
X182587000Y-89071000D01*
X182593000Y-89070000D01*
X182600000Y-89070000D01*
X182800000Y-89070000D01*
X182807000Y-89070000D01*
X182813000Y-89071000D01*
G37*
X183313000Y-86741000D02*
X183320000Y-86742000D01*
X183326000Y-86743000D01*
X183332000Y-86744000D01*
X183339000Y-86746000D01*
X183345000Y-86748000D01*
X183351000Y-86751000D01*
X183357000Y-86754000D01*
X183362000Y-86757000D01*
X183368000Y-86760000D01*
X183373000Y-86764000D01*
X183379000Y-86768000D01*
X183384000Y-86772000D01*
X183388000Y-86777000D01*
X183393000Y-86781000D01*
X183397000Y-86786000D01*
X183401000Y-86792000D01*
X183405000Y-86797000D01*
X183408000Y-86802000D01*
X183411000Y-86808000D01*
X183414000Y-86814000D01*
X183417000Y-86820000D01*
X183419000Y-86826000D01*
X183421000Y-86833000D01*
X183422000Y-86839000D01*
X183423000Y-86845000D01*
X183424000Y-86852000D01*
X183425000Y-86858000D01*
X183425000Y-86865000D01*
X183425000Y-87305000D01*
X183425000Y-87312000D01*
X183424000Y-87318000D01*
X183423000Y-87325000D01*
X183422000Y-87331000D01*
X183421000Y-87337000D01*
X183419000Y-87344000D01*
X183417000Y-87350000D01*
X183414000Y-87356000D01*
X183411000Y-87362000D01*
X183408000Y-87368000D01*
X183405000Y-87373000D01*
X183401000Y-87378000D01*
X183397000Y-87384000D01*
X183393000Y-87389000D01*
X183388000Y-87393000D01*
X183384000Y-87398000D01*
X183379000Y-87402000D01*
X183373000Y-87406000D01*
X183368000Y-87410000D01*
X183362000Y-87413000D01*
X183357000Y-87416000D01*
X183351000Y-87419000D01*
X183345000Y-87422000D01*
X183339000Y-87424000D01*
X183332000Y-87426000D01*
X183326000Y-87427000D01*
X183320000Y-87428000D01*
X183313000Y-87429000D01*
X183307000Y-87430000D01*
X183300000Y-87430000D01*
X183100000Y-87430000D01*
X183093000Y-87430000D01*
X183087000Y-87429000D01*
X183080000Y-87428000D01*
X183074000Y-87427000D01*
X183068000Y-87426000D01*
X183061000Y-87424000D01*
X183055000Y-87422000D01*
X183049000Y-87419000D01*
X183043000Y-87416000D01*
X183038000Y-87413000D01*
X183032000Y-87410000D01*
X183027000Y-87406000D01*
X183021000Y-87402000D01*
X183016000Y-87398000D01*
X183012000Y-87393000D01*
X183007000Y-87389000D01*
X183003000Y-87384000D01*
X182999000Y-87378000D01*
X182995000Y-87373000D01*
X182992000Y-87368000D01*
X182989000Y-87362000D01*
X182986000Y-87356000D01*
X182983000Y-87350000D01*
X182981000Y-87344000D01*
X182979000Y-87337000D01*
X182978000Y-87331000D01*
X182977000Y-87325000D01*
X182976000Y-87318000D01*
X182975000Y-87312000D01*
X182975000Y-87305000D01*
X182975000Y-86865000D01*
X182975000Y-86858000D01*
X182976000Y-86852000D01*
X182977000Y-86845000D01*
X182978000Y-86839000D01*
X182979000Y-86833000D01*
X182981000Y-86826000D01*
X182983000Y-86820000D01*
X182986000Y-86814000D01*
X182989000Y-86808000D01*
X182992000Y-86802000D01*
X182995000Y-86797000D01*
X182999000Y-86792000D01*
X183003000Y-86786000D01*
X183007000Y-86781000D01*
X183012000Y-86777000D01*
X183016000Y-86772000D01*
X183021000Y-86768000D01*
X183027000Y-86764000D01*
X183032000Y-86760000D01*
X183038000Y-86757000D01*
X183043000Y-86754000D01*
X183049000Y-86751000D01*
X183055000Y-86748000D01*
X183061000Y-86746000D01*
X183068000Y-86744000D01*
X183074000Y-86743000D01*
X183080000Y-86742000D01*
X183087000Y-86741000D01*
X183093000Y-86740000D01*
X183100000Y-86740000D01*
X183300000Y-86740000D01*
X183307000Y-86740000D01*
X183313000Y-86741000D01*
G36*
X183313000Y-86741000D02*
G01*
X183320000Y-86742000D01*
X183326000Y-86743000D01*
X183332000Y-86744000D01*
X183339000Y-86746000D01*
X183345000Y-86748000D01*
X183351000Y-86751000D01*
X183357000Y-86754000D01*
X183362000Y-86757000D01*
X183368000Y-86760000D01*
X183373000Y-86764000D01*
X183379000Y-86768000D01*
X183384000Y-86772000D01*
X183388000Y-86777000D01*
X183393000Y-86781000D01*
X183397000Y-86786000D01*
X183401000Y-86792000D01*
X183405000Y-86797000D01*
X183408000Y-86802000D01*
X183411000Y-86808000D01*
X183414000Y-86814000D01*
X183417000Y-86820000D01*
X183419000Y-86826000D01*
X183421000Y-86833000D01*
X183422000Y-86839000D01*
X183423000Y-86845000D01*
X183424000Y-86852000D01*
X183425000Y-86858000D01*
X183425000Y-86865000D01*
X183425000Y-87305000D01*
X183425000Y-87312000D01*
X183424000Y-87318000D01*
X183423000Y-87325000D01*
X183422000Y-87331000D01*
X183421000Y-87337000D01*
X183419000Y-87344000D01*
X183417000Y-87350000D01*
X183414000Y-87356000D01*
X183411000Y-87362000D01*
X183408000Y-87368000D01*
X183405000Y-87373000D01*
X183401000Y-87378000D01*
X183397000Y-87384000D01*
X183393000Y-87389000D01*
X183388000Y-87393000D01*
X183384000Y-87398000D01*
X183379000Y-87402000D01*
X183373000Y-87406000D01*
X183368000Y-87410000D01*
X183362000Y-87413000D01*
X183357000Y-87416000D01*
X183351000Y-87419000D01*
X183345000Y-87422000D01*
X183339000Y-87424000D01*
X183332000Y-87426000D01*
X183326000Y-87427000D01*
X183320000Y-87428000D01*
X183313000Y-87429000D01*
X183307000Y-87430000D01*
X183300000Y-87430000D01*
X183100000Y-87430000D01*
X183093000Y-87430000D01*
X183087000Y-87429000D01*
X183080000Y-87428000D01*
X183074000Y-87427000D01*
X183068000Y-87426000D01*
X183061000Y-87424000D01*
X183055000Y-87422000D01*
X183049000Y-87419000D01*
X183043000Y-87416000D01*
X183038000Y-87413000D01*
X183032000Y-87410000D01*
X183027000Y-87406000D01*
X183021000Y-87402000D01*
X183016000Y-87398000D01*
X183012000Y-87393000D01*
X183007000Y-87389000D01*
X183003000Y-87384000D01*
X182999000Y-87378000D01*
X182995000Y-87373000D01*
X182992000Y-87368000D01*
X182989000Y-87362000D01*
X182986000Y-87356000D01*
X182983000Y-87350000D01*
X182981000Y-87344000D01*
X182979000Y-87337000D01*
X182978000Y-87331000D01*
X182977000Y-87325000D01*
X182976000Y-87318000D01*
X182975000Y-87312000D01*
X182975000Y-87305000D01*
X182975000Y-86865000D01*
X182975000Y-86858000D01*
X182976000Y-86852000D01*
X182977000Y-86845000D01*
X182978000Y-86839000D01*
X182979000Y-86833000D01*
X182981000Y-86826000D01*
X182983000Y-86820000D01*
X182986000Y-86814000D01*
X182989000Y-86808000D01*
X182992000Y-86802000D01*
X182995000Y-86797000D01*
X182999000Y-86792000D01*
X183003000Y-86786000D01*
X183007000Y-86781000D01*
X183012000Y-86777000D01*
X183016000Y-86772000D01*
X183021000Y-86768000D01*
X183027000Y-86764000D01*
X183032000Y-86760000D01*
X183038000Y-86757000D01*
X183043000Y-86754000D01*
X183049000Y-86751000D01*
X183055000Y-86748000D01*
X183061000Y-86746000D01*
X183068000Y-86744000D01*
X183074000Y-86743000D01*
X183080000Y-86742000D01*
X183087000Y-86741000D01*
X183093000Y-86740000D01*
X183100000Y-86740000D01*
X183300000Y-86740000D01*
X183307000Y-86740000D01*
X183313000Y-86741000D01*
G37*
X183313000Y-89071000D02*
X183320000Y-89072000D01*
X183326000Y-89073000D01*
X183332000Y-89074000D01*
X183339000Y-89076000D01*
X183345000Y-89078000D01*
X183351000Y-89081000D01*
X183357000Y-89084000D01*
X183362000Y-89087000D01*
X183368000Y-89090000D01*
X183373000Y-89094000D01*
X183379000Y-89098000D01*
X183384000Y-89102000D01*
X183388000Y-89107000D01*
X183393000Y-89111000D01*
X183397000Y-89116000D01*
X183401000Y-89122000D01*
X183405000Y-89127000D01*
X183408000Y-89132000D01*
X183411000Y-89138000D01*
X183414000Y-89144000D01*
X183417000Y-89150000D01*
X183419000Y-89156000D01*
X183421000Y-89163000D01*
X183422000Y-89169000D01*
X183423000Y-89175000D01*
X183424000Y-89182000D01*
X183425000Y-89188000D01*
X183425000Y-89195000D01*
X183425000Y-89635000D01*
X183425000Y-89642000D01*
X183424000Y-89648000D01*
X183423000Y-89655000D01*
X183422000Y-89661000D01*
X183421000Y-89667000D01*
X183419000Y-89674000D01*
X183417000Y-89680000D01*
X183414000Y-89686000D01*
X183411000Y-89692000D01*
X183408000Y-89698000D01*
X183405000Y-89703000D01*
X183401000Y-89708000D01*
X183397000Y-89714000D01*
X183393000Y-89719000D01*
X183388000Y-89723000D01*
X183384000Y-89728000D01*
X183379000Y-89732000D01*
X183373000Y-89736000D01*
X183368000Y-89740000D01*
X183362000Y-89743000D01*
X183357000Y-89746000D01*
X183351000Y-89749000D01*
X183345000Y-89752000D01*
X183339000Y-89754000D01*
X183332000Y-89756000D01*
X183326000Y-89757000D01*
X183320000Y-89758000D01*
X183313000Y-89759000D01*
X183307000Y-89760000D01*
X183300000Y-89760000D01*
X183100000Y-89760000D01*
X183093000Y-89760000D01*
X183087000Y-89759000D01*
X183080000Y-89758000D01*
X183074000Y-89757000D01*
X183068000Y-89756000D01*
X183061000Y-89754000D01*
X183055000Y-89752000D01*
X183049000Y-89749000D01*
X183043000Y-89746000D01*
X183038000Y-89743000D01*
X183032000Y-89740000D01*
X183027000Y-89736000D01*
X183021000Y-89732000D01*
X183016000Y-89728000D01*
X183012000Y-89723000D01*
X183007000Y-89719000D01*
X183003000Y-89714000D01*
X182999000Y-89708000D01*
X182995000Y-89703000D01*
X182992000Y-89698000D01*
X182989000Y-89692000D01*
X182986000Y-89686000D01*
X182983000Y-89680000D01*
X182981000Y-89674000D01*
X182979000Y-89667000D01*
X182978000Y-89661000D01*
X182977000Y-89655000D01*
X182976000Y-89648000D01*
X182975000Y-89642000D01*
X182975000Y-89635000D01*
X182975000Y-89195000D01*
X182975000Y-89188000D01*
X182976000Y-89182000D01*
X182977000Y-89175000D01*
X182978000Y-89169000D01*
X182979000Y-89163000D01*
X182981000Y-89156000D01*
X182983000Y-89150000D01*
X182986000Y-89144000D01*
X182989000Y-89138000D01*
X182992000Y-89132000D01*
X182995000Y-89127000D01*
X182999000Y-89122000D01*
X183003000Y-89116000D01*
X183007000Y-89111000D01*
X183012000Y-89107000D01*
X183016000Y-89102000D01*
X183021000Y-89098000D01*
X183027000Y-89094000D01*
X183032000Y-89090000D01*
X183038000Y-89087000D01*
X183043000Y-89084000D01*
X183049000Y-89081000D01*
X183055000Y-89078000D01*
X183061000Y-89076000D01*
X183068000Y-89074000D01*
X183074000Y-89073000D01*
X183080000Y-89072000D01*
X183087000Y-89071000D01*
X183093000Y-89070000D01*
X183100000Y-89070000D01*
X183300000Y-89070000D01*
X183307000Y-89070000D01*
X183313000Y-89071000D01*
G36*
X183313000Y-89071000D02*
G01*
X183320000Y-89072000D01*
X183326000Y-89073000D01*
X183332000Y-89074000D01*
X183339000Y-89076000D01*
X183345000Y-89078000D01*
X183351000Y-89081000D01*
X183357000Y-89084000D01*
X183362000Y-89087000D01*
X183368000Y-89090000D01*
X183373000Y-89094000D01*
X183379000Y-89098000D01*
X183384000Y-89102000D01*
X183388000Y-89107000D01*
X183393000Y-89111000D01*
X183397000Y-89116000D01*
X183401000Y-89122000D01*
X183405000Y-89127000D01*
X183408000Y-89132000D01*
X183411000Y-89138000D01*
X183414000Y-89144000D01*
X183417000Y-89150000D01*
X183419000Y-89156000D01*
X183421000Y-89163000D01*
X183422000Y-89169000D01*
X183423000Y-89175000D01*
X183424000Y-89182000D01*
X183425000Y-89188000D01*
X183425000Y-89195000D01*
X183425000Y-89635000D01*
X183425000Y-89642000D01*
X183424000Y-89648000D01*
X183423000Y-89655000D01*
X183422000Y-89661000D01*
X183421000Y-89667000D01*
X183419000Y-89674000D01*
X183417000Y-89680000D01*
X183414000Y-89686000D01*
X183411000Y-89692000D01*
X183408000Y-89698000D01*
X183405000Y-89703000D01*
X183401000Y-89708000D01*
X183397000Y-89714000D01*
X183393000Y-89719000D01*
X183388000Y-89723000D01*
X183384000Y-89728000D01*
X183379000Y-89732000D01*
X183373000Y-89736000D01*
X183368000Y-89740000D01*
X183362000Y-89743000D01*
X183357000Y-89746000D01*
X183351000Y-89749000D01*
X183345000Y-89752000D01*
X183339000Y-89754000D01*
X183332000Y-89756000D01*
X183326000Y-89757000D01*
X183320000Y-89758000D01*
X183313000Y-89759000D01*
X183307000Y-89760000D01*
X183300000Y-89760000D01*
X183100000Y-89760000D01*
X183093000Y-89760000D01*
X183087000Y-89759000D01*
X183080000Y-89758000D01*
X183074000Y-89757000D01*
X183068000Y-89756000D01*
X183061000Y-89754000D01*
X183055000Y-89752000D01*
X183049000Y-89749000D01*
X183043000Y-89746000D01*
X183038000Y-89743000D01*
X183032000Y-89740000D01*
X183027000Y-89736000D01*
X183021000Y-89732000D01*
X183016000Y-89728000D01*
X183012000Y-89723000D01*
X183007000Y-89719000D01*
X183003000Y-89714000D01*
X182999000Y-89708000D01*
X182995000Y-89703000D01*
X182992000Y-89698000D01*
X182989000Y-89692000D01*
X182986000Y-89686000D01*
X182983000Y-89680000D01*
X182981000Y-89674000D01*
X182979000Y-89667000D01*
X182978000Y-89661000D01*
X182977000Y-89655000D01*
X182976000Y-89648000D01*
X182975000Y-89642000D01*
X182975000Y-89635000D01*
X182975000Y-89195000D01*
X182975000Y-89188000D01*
X182976000Y-89182000D01*
X182977000Y-89175000D01*
X182978000Y-89169000D01*
X182979000Y-89163000D01*
X182981000Y-89156000D01*
X182983000Y-89150000D01*
X182986000Y-89144000D01*
X182989000Y-89138000D01*
X182992000Y-89132000D01*
X182995000Y-89127000D01*
X182999000Y-89122000D01*
X183003000Y-89116000D01*
X183007000Y-89111000D01*
X183012000Y-89107000D01*
X183016000Y-89102000D01*
X183021000Y-89098000D01*
X183027000Y-89094000D01*
X183032000Y-89090000D01*
X183038000Y-89087000D01*
X183043000Y-89084000D01*
X183049000Y-89081000D01*
X183055000Y-89078000D01*
X183061000Y-89076000D01*
X183068000Y-89074000D01*
X183074000Y-89073000D01*
X183080000Y-89072000D01*
X183087000Y-89071000D01*
X183093000Y-89070000D01*
X183100000Y-89070000D01*
X183300000Y-89070000D01*
X183307000Y-89070000D01*
X183313000Y-89071000D01*
G37*
X184098000Y-87526000D02*
X184105000Y-87527000D01*
X184111000Y-87528000D01*
X184117000Y-87529000D01*
X184124000Y-87531000D01*
X184130000Y-87533000D01*
X184136000Y-87536000D01*
X184142000Y-87539000D01*
X184148000Y-87542000D01*
X184153000Y-87545000D01*
X184158000Y-87549000D01*
X184164000Y-87553000D01*
X184169000Y-87557000D01*
X184173000Y-87562000D01*
X184178000Y-87566000D01*
X184182000Y-87571000D01*
X184186000Y-87577000D01*
X184190000Y-87582000D01*
X184193000Y-87588000D01*
X184196000Y-87593000D01*
X184199000Y-87599000D01*
X184202000Y-87605000D01*
X184204000Y-87611000D01*
X184206000Y-87618000D01*
X184207000Y-87624000D01*
X184208000Y-87630000D01*
X184209000Y-87637000D01*
X184210000Y-87643000D01*
X184210000Y-87650000D01*
X184210000Y-87850000D01*
X184210000Y-87857000D01*
X184209000Y-87863000D01*
X184208000Y-87870000D01*
X184207000Y-87876000D01*
X184206000Y-87882000D01*
X184204000Y-87889000D01*
X184202000Y-87895000D01*
X184199000Y-87901000D01*
X184196000Y-87907000D01*
X184193000Y-87913000D01*
X184190000Y-87918000D01*
X184186000Y-87923000D01*
X184182000Y-87929000D01*
X184178000Y-87934000D01*
X184173000Y-87938000D01*
X184169000Y-87943000D01*
X184164000Y-87947000D01*
X184158000Y-87951000D01*
X184153000Y-87955000D01*
X184148000Y-87958000D01*
X184142000Y-87961000D01*
X184136000Y-87964000D01*
X184130000Y-87967000D01*
X184124000Y-87969000D01*
X184117000Y-87971000D01*
X184111000Y-87972000D01*
X184105000Y-87973000D01*
X184098000Y-87974000D01*
X184092000Y-87975000D01*
X184085000Y-87975000D01*
X183645000Y-87975000D01*
X183638000Y-87975000D01*
X183632000Y-87974000D01*
X183625000Y-87973000D01*
X183619000Y-87972000D01*
X183613000Y-87971000D01*
X183606000Y-87969000D01*
X183600000Y-87967000D01*
X183594000Y-87964000D01*
X183588000Y-87961000D01*
X183582000Y-87958000D01*
X183577000Y-87955000D01*
X183572000Y-87951000D01*
X183566000Y-87947000D01*
X183561000Y-87943000D01*
X183557000Y-87938000D01*
X183552000Y-87934000D01*
X183548000Y-87929000D01*
X183544000Y-87923000D01*
X183540000Y-87918000D01*
X183537000Y-87912000D01*
X183534000Y-87907000D01*
X183531000Y-87901000D01*
X183528000Y-87895000D01*
X183526000Y-87889000D01*
X183524000Y-87882000D01*
X183523000Y-87876000D01*
X183522000Y-87870000D01*
X183521000Y-87863000D01*
X183520000Y-87857000D01*
X183520000Y-87850000D01*
X183520000Y-87650000D01*
X183520000Y-87643000D01*
X183521000Y-87637000D01*
X183522000Y-87630000D01*
X183523000Y-87624000D01*
X183524000Y-87618000D01*
X183526000Y-87611000D01*
X183528000Y-87605000D01*
X183531000Y-87599000D01*
X183534000Y-87593000D01*
X183537000Y-87588000D01*
X183540000Y-87582000D01*
X183544000Y-87577000D01*
X183548000Y-87571000D01*
X183552000Y-87566000D01*
X183557000Y-87562000D01*
X183561000Y-87557000D01*
X183566000Y-87553000D01*
X183572000Y-87549000D01*
X183577000Y-87545000D01*
X183582000Y-87542000D01*
X183588000Y-87539000D01*
X183594000Y-87536000D01*
X183600000Y-87533000D01*
X183606000Y-87531000D01*
X183613000Y-87529000D01*
X183619000Y-87528000D01*
X183625000Y-87527000D01*
X183632000Y-87526000D01*
X183638000Y-87525000D01*
X183645000Y-87525000D01*
X184085000Y-87525000D01*
X184092000Y-87525000D01*
X184098000Y-87526000D01*
G36*
X184098000Y-87526000D02*
G01*
X184105000Y-87527000D01*
X184111000Y-87528000D01*
X184117000Y-87529000D01*
X184124000Y-87531000D01*
X184130000Y-87533000D01*
X184136000Y-87536000D01*
X184142000Y-87539000D01*
X184148000Y-87542000D01*
X184153000Y-87545000D01*
X184158000Y-87549000D01*
X184164000Y-87553000D01*
X184169000Y-87557000D01*
X184173000Y-87562000D01*
X184178000Y-87566000D01*
X184182000Y-87571000D01*
X184186000Y-87577000D01*
X184190000Y-87582000D01*
X184193000Y-87588000D01*
X184196000Y-87593000D01*
X184199000Y-87599000D01*
X184202000Y-87605000D01*
X184204000Y-87611000D01*
X184206000Y-87618000D01*
X184207000Y-87624000D01*
X184208000Y-87630000D01*
X184209000Y-87637000D01*
X184210000Y-87643000D01*
X184210000Y-87650000D01*
X184210000Y-87850000D01*
X184210000Y-87857000D01*
X184209000Y-87863000D01*
X184208000Y-87870000D01*
X184207000Y-87876000D01*
X184206000Y-87882000D01*
X184204000Y-87889000D01*
X184202000Y-87895000D01*
X184199000Y-87901000D01*
X184196000Y-87907000D01*
X184193000Y-87913000D01*
X184190000Y-87918000D01*
X184186000Y-87923000D01*
X184182000Y-87929000D01*
X184178000Y-87934000D01*
X184173000Y-87938000D01*
X184169000Y-87943000D01*
X184164000Y-87947000D01*
X184158000Y-87951000D01*
X184153000Y-87955000D01*
X184148000Y-87958000D01*
X184142000Y-87961000D01*
X184136000Y-87964000D01*
X184130000Y-87967000D01*
X184124000Y-87969000D01*
X184117000Y-87971000D01*
X184111000Y-87972000D01*
X184105000Y-87973000D01*
X184098000Y-87974000D01*
X184092000Y-87975000D01*
X184085000Y-87975000D01*
X183645000Y-87975000D01*
X183638000Y-87975000D01*
X183632000Y-87974000D01*
X183625000Y-87973000D01*
X183619000Y-87972000D01*
X183613000Y-87971000D01*
X183606000Y-87969000D01*
X183600000Y-87967000D01*
X183594000Y-87964000D01*
X183588000Y-87961000D01*
X183582000Y-87958000D01*
X183577000Y-87955000D01*
X183572000Y-87951000D01*
X183566000Y-87947000D01*
X183561000Y-87943000D01*
X183557000Y-87938000D01*
X183552000Y-87934000D01*
X183548000Y-87929000D01*
X183544000Y-87923000D01*
X183540000Y-87918000D01*
X183537000Y-87912000D01*
X183534000Y-87907000D01*
X183531000Y-87901000D01*
X183528000Y-87895000D01*
X183526000Y-87889000D01*
X183524000Y-87882000D01*
X183523000Y-87876000D01*
X183522000Y-87870000D01*
X183521000Y-87863000D01*
X183520000Y-87857000D01*
X183520000Y-87850000D01*
X183520000Y-87650000D01*
X183520000Y-87643000D01*
X183521000Y-87637000D01*
X183522000Y-87630000D01*
X183523000Y-87624000D01*
X183524000Y-87618000D01*
X183526000Y-87611000D01*
X183528000Y-87605000D01*
X183531000Y-87599000D01*
X183534000Y-87593000D01*
X183537000Y-87588000D01*
X183540000Y-87582000D01*
X183544000Y-87577000D01*
X183548000Y-87571000D01*
X183552000Y-87566000D01*
X183557000Y-87562000D01*
X183561000Y-87557000D01*
X183566000Y-87553000D01*
X183572000Y-87549000D01*
X183577000Y-87545000D01*
X183582000Y-87542000D01*
X183588000Y-87539000D01*
X183594000Y-87536000D01*
X183600000Y-87533000D01*
X183606000Y-87531000D01*
X183613000Y-87529000D01*
X183619000Y-87528000D01*
X183625000Y-87527000D01*
X183632000Y-87526000D01*
X183638000Y-87525000D01*
X183645000Y-87525000D01*
X184085000Y-87525000D01*
X184092000Y-87525000D01*
X184098000Y-87526000D01*
G37*
X184098000Y-88026000D02*
X184105000Y-88027000D01*
X184111000Y-88028000D01*
X184117000Y-88029000D01*
X184124000Y-88031000D01*
X184130000Y-88033000D01*
X184136000Y-88036000D01*
X184142000Y-88039000D01*
X184148000Y-88042000D01*
X184153000Y-88045000D01*
X184158000Y-88049000D01*
X184164000Y-88053000D01*
X184169000Y-88057000D01*
X184173000Y-88062000D01*
X184178000Y-88066000D01*
X184182000Y-88071000D01*
X184186000Y-88077000D01*
X184190000Y-88082000D01*
X184193000Y-88087000D01*
X184196000Y-88093000D01*
X184199000Y-88099000D01*
X184202000Y-88105000D01*
X184204000Y-88111000D01*
X184206000Y-88118000D01*
X184207000Y-88124000D01*
X184208000Y-88130000D01*
X184209000Y-88137000D01*
X184210000Y-88143000D01*
X184210000Y-88150000D01*
X184210000Y-88350000D01*
X184210000Y-88357000D01*
X184209000Y-88363000D01*
X184208000Y-88370000D01*
X184207000Y-88376000D01*
X184206000Y-88382000D01*
X184204000Y-88389000D01*
X184202000Y-88395000D01*
X184199000Y-88401000D01*
X184196000Y-88407000D01*
X184193000Y-88413000D01*
X184190000Y-88418000D01*
X184186000Y-88423000D01*
X184182000Y-88429000D01*
X184178000Y-88434000D01*
X184173000Y-88438000D01*
X184169000Y-88443000D01*
X184164000Y-88447000D01*
X184158000Y-88451000D01*
X184153000Y-88455000D01*
X184148000Y-88458000D01*
X184142000Y-88461000D01*
X184136000Y-88464000D01*
X184130000Y-88467000D01*
X184124000Y-88469000D01*
X184117000Y-88471000D01*
X184111000Y-88472000D01*
X184105000Y-88473000D01*
X184098000Y-88474000D01*
X184092000Y-88475000D01*
X184085000Y-88475000D01*
X183645000Y-88475000D01*
X183638000Y-88475000D01*
X183632000Y-88474000D01*
X183625000Y-88473000D01*
X183619000Y-88472000D01*
X183613000Y-88471000D01*
X183606000Y-88469000D01*
X183600000Y-88467000D01*
X183594000Y-88464000D01*
X183588000Y-88461000D01*
X183582000Y-88458000D01*
X183577000Y-88455000D01*
X183572000Y-88451000D01*
X183566000Y-88447000D01*
X183561000Y-88443000D01*
X183557000Y-88438000D01*
X183552000Y-88434000D01*
X183548000Y-88429000D01*
X183544000Y-88423000D01*
X183540000Y-88418000D01*
X183537000Y-88412000D01*
X183534000Y-88407000D01*
X183531000Y-88401000D01*
X183528000Y-88395000D01*
X183526000Y-88389000D01*
X183524000Y-88382000D01*
X183523000Y-88376000D01*
X183522000Y-88370000D01*
X183521000Y-88363000D01*
X183520000Y-88357000D01*
X183520000Y-88350000D01*
X183520000Y-88150000D01*
X183520000Y-88143000D01*
X183521000Y-88137000D01*
X183522000Y-88130000D01*
X183523000Y-88124000D01*
X183524000Y-88118000D01*
X183526000Y-88111000D01*
X183528000Y-88105000D01*
X183531000Y-88099000D01*
X183534000Y-88093000D01*
X183537000Y-88087000D01*
X183540000Y-88082000D01*
X183544000Y-88077000D01*
X183548000Y-88071000D01*
X183552000Y-88066000D01*
X183557000Y-88062000D01*
X183561000Y-88057000D01*
X183566000Y-88053000D01*
X183572000Y-88049000D01*
X183577000Y-88045000D01*
X183582000Y-88042000D01*
X183588000Y-88039000D01*
X183594000Y-88036000D01*
X183600000Y-88033000D01*
X183606000Y-88031000D01*
X183613000Y-88029000D01*
X183619000Y-88028000D01*
X183625000Y-88027000D01*
X183632000Y-88026000D01*
X183638000Y-88025000D01*
X183645000Y-88025000D01*
X184085000Y-88025000D01*
X184092000Y-88025000D01*
X184098000Y-88026000D01*
G36*
X184098000Y-88026000D02*
G01*
X184105000Y-88027000D01*
X184111000Y-88028000D01*
X184117000Y-88029000D01*
X184124000Y-88031000D01*
X184130000Y-88033000D01*
X184136000Y-88036000D01*
X184142000Y-88039000D01*
X184148000Y-88042000D01*
X184153000Y-88045000D01*
X184158000Y-88049000D01*
X184164000Y-88053000D01*
X184169000Y-88057000D01*
X184173000Y-88062000D01*
X184178000Y-88066000D01*
X184182000Y-88071000D01*
X184186000Y-88077000D01*
X184190000Y-88082000D01*
X184193000Y-88087000D01*
X184196000Y-88093000D01*
X184199000Y-88099000D01*
X184202000Y-88105000D01*
X184204000Y-88111000D01*
X184206000Y-88118000D01*
X184207000Y-88124000D01*
X184208000Y-88130000D01*
X184209000Y-88137000D01*
X184210000Y-88143000D01*
X184210000Y-88150000D01*
X184210000Y-88350000D01*
X184210000Y-88357000D01*
X184209000Y-88363000D01*
X184208000Y-88370000D01*
X184207000Y-88376000D01*
X184206000Y-88382000D01*
X184204000Y-88389000D01*
X184202000Y-88395000D01*
X184199000Y-88401000D01*
X184196000Y-88407000D01*
X184193000Y-88413000D01*
X184190000Y-88418000D01*
X184186000Y-88423000D01*
X184182000Y-88429000D01*
X184178000Y-88434000D01*
X184173000Y-88438000D01*
X184169000Y-88443000D01*
X184164000Y-88447000D01*
X184158000Y-88451000D01*
X184153000Y-88455000D01*
X184148000Y-88458000D01*
X184142000Y-88461000D01*
X184136000Y-88464000D01*
X184130000Y-88467000D01*
X184124000Y-88469000D01*
X184117000Y-88471000D01*
X184111000Y-88472000D01*
X184105000Y-88473000D01*
X184098000Y-88474000D01*
X184092000Y-88475000D01*
X184085000Y-88475000D01*
X183645000Y-88475000D01*
X183638000Y-88475000D01*
X183632000Y-88474000D01*
X183625000Y-88473000D01*
X183619000Y-88472000D01*
X183613000Y-88471000D01*
X183606000Y-88469000D01*
X183600000Y-88467000D01*
X183594000Y-88464000D01*
X183588000Y-88461000D01*
X183582000Y-88458000D01*
X183577000Y-88455000D01*
X183572000Y-88451000D01*
X183566000Y-88447000D01*
X183561000Y-88443000D01*
X183557000Y-88438000D01*
X183552000Y-88434000D01*
X183548000Y-88429000D01*
X183544000Y-88423000D01*
X183540000Y-88418000D01*
X183537000Y-88412000D01*
X183534000Y-88407000D01*
X183531000Y-88401000D01*
X183528000Y-88395000D01*
X183526000Y-88389000D01*
X183524000Y-88382000D01*
X183523000Y-88376000D01*
X183522000Y-88370000D01*
X183521000Y-88363000D01*
X183520000Y-88357000D01*
X183520000Y-88350000D01*
X183520000Y-88150000D01*
X183520000Y-88143000D01*
X183521000Y-88137000D01*
X183522000Y-88130000D01*
X183523000Y-88124000D01*
X183524000Y-88118000D01*
X183526000Y-88111000D01*
X183528000Y-88105000D01*
X183531000Y-88099000D01*
X183534000Y-88093000D01*
X183537000Y-88087000D01*
X183540000Y-88082000D01*
X183544000Y-88077000D01*
X183548000Y-88071000D01*
X183552000Y-88066000D01*
X183557000Y-88062000D01*
X183561000Y-88057000D01*
X183566000Y-88053000D01*
X183572000Y-88049000D01*
X183577000Y-88045000D01*
X183582000Y-88042000D01*
X183588000Y-88039000D01*
X183594000Y-88036000D01*
X183600000Y-88033000D01*
X183606000Y-88031000D01*
X183613000Y-88029000D01*
X183619000Y-88028000D01*
X183625000Y-88027000D01*
X183632000Y-88026000D01*
X183638000Y-88025000D01*
X183645000Y-88025000D01*
X184085000Y-88025000D01*
X184092000Y-88025000D01*
X184098000Y-88026000D01*
G37*
X184098000Y-88526000D02*
X184105000Y-88527000D01*
X184111000Y-88528000D01*
X184117000Y-88529000D01*
X184124000Y-88531000D01*
X184130000Y-88533000D01*
X184136000Y-88536000D01*
X184142000Y-88539000D01*
X184148000Y-88542000D01*
X184153000Y-88545000D01*
X184158000Y-88549000D01*
X184164000Y-88553000D01*
X184169000Y-88557000D01*
X184173000Y-88562000D01*
X184178000Y-88566000D01*
X184182000Y-88571000D01*
X184186000Y-88577000D01*
X184190000Y-88582000D01*
X184193000Y-88588000D01*
X184196000Y-88593000D01*
X184199000Y-88599000D01*
X184202000Y-88605000D01*
X184204000Y-88611000D01*
X184206000Y-88618000D01*
X184207000Y-88624000D01*
X184208000Y-88630000D01*
X184209000Y-88637000D01*
X184210000Y-88643000D01*
X184210000Y-88650000D01*
X184210000Y-88850000D01*
X184210000Y-88857000D01*
X184209000Y-88863000D01*
X184208000Y-88870000D01*
X184207000Y-88876000D01*
X184206000Y-88882000D01*
X184204000Y-88889000D01*
X184202000Y-88895000D01*
X184199000Y-88901000D01*
X184196000Y-88907000D01*
X184193000Y-88913000D01*
X184190000Y-88918000D01*
X184186000Y-88923000D01*
X184182000Y-88929000D01*
X184178000Y-88934000D01*
X184173000Y-88938000D01*
X184169000Y-88943000D01*
X184164000Y-88947000D01*
X184158000Y-88951000D01*
X184153000Y-88955000D01*
X184148000Y-88958000D01*
X184142000Y-88961000D01*
X184136000Y-88964000D01*
X184130000Y-88967000D01*
X184124000Y-88969000D01*
X184117000Y-88971000D01*
X184111000Y-88972000D01*
X184105000Y-88973000D01*
X184098000Y-88974000D01*
X184092000Y-88975000D01*
X184085000Y-88975000D01*
X183645000Y-88975000D01*
X183638000Y-88975000D01*
X183632000Y-88974000D01*
X183625000Y-88973000D01*
X183619000Y-88972000D01*
X183613000Y-88971000D01*
X183606000Y-88969000D01*
X183600000Y-88967000D01*
X183594000Y-88964000D01*
X183588000Y-88961000D01*
X183582000Y-88958000D01*
X183577000Y-88955000D01*
X183572000Y-88951000D01*
X183566000Y-88947000D01*
X183561000Y-88943000D01*
X183557000Y-88938000D01*
X183552000Y-88934000D01*
X183548000Y-88929000D01*
X183544000Y-88923000D01*
X183540000Y-88918000D01*
X183537000Y-88912000D01*
X183534000Y-88907000D01*
X183531000Y-88901000D01*
X183528000Y-88895000D01*
X183526000Y-88889000D01*
X183524000Y-88882000D01*
X183523000Y-88876000D01*
X183522000Y-88870000D01*
X183521000Y-88863000D01*
X183520000Y-88857000D01*
X183520000Y-88850000D01*
X183520000Y-88650000D01*
X183520000Y-88643000D01*
X183521000Y-88637000D01*
X183522000Y-88630000D01*
X183523000Y-88624000D01*
X183524000Y-88618000D01*
X183526000Y-88611000D01*
X183528000Y-88605000D01*
X183531000Y-88599000D01*
X183534000Y-88593000D01*
X183537000Y-88588000D01*
X183540000Y-88582000D01*
X183544000Y-88577000D01*
X183548000Y-88571000D01*
X183552000Y-88566000D01*
X183557000Y-88562000D01*
X183561000Y-88557000D01*
X183566000Y-88553000D01*
X183572000Y-88549000D01*
X183577000Y-88545000D01*
X183582000Y-88542000D01*
X183588000Y-88539000D01*
X183594000Y-88536000D01*
X183600000Y-88533000D01*
X183606000Y-88531000D01*
X183613000Y-88529000D01*
X183619000Y-88528000D01*
X183625000Y-88527000D01*
X183632000Y-88526000D01*
X183638000Y-88525000D01*
X183645000Y-88525000D01*
X184085000Y-88525000D01*
X184092000Y-88525000D01*
X184098000Y-88526000D01*
G36*
X184098000Y-88526000D02*
G01*
X184105000Y-88527000D01*
X184111000Y-88528000D01*
X184117000Y-88529000D01*
X184124000Y-88531000D01*
X184130000Y-88533000D01*
X184136000Y-88536000D01*
X184142000Y-88539000D01*
X184148000Y-88542000D01*
X184153000Y-88545000D01*
X184158000Y-88549000D01*
X184164000Y-88553000D01*
X184169000Y-88557000D01*
X184173000Y-88562000D01*
X184178000Y-88566000D01*
X184182000Y-88571000D01*
X184186000Y-88577000D01*
X184190000Y-88582000D01*
X184193000Y-88588000D01*
X184196000Y-88593000D01*
X184199000Y-88599000D01*
X184202000Y-88605000D01*
X184204000Y-88611000D01*
X184206000Y-88618000D01*
X184207000Y-88624000D01*
X184208000Y-88630000D01*
X184209000Y-88637000D01*
X184210000Y-88643000D01*
X184210000Y-88650000D01*
X184210000Y-88850000D01*
X184210000Y-88857000D01*
X184209000Y-88863000D01*
X184208000Y-88870000D01*
X184207000Y-88876000D01*
X184206000Y-88882000D01*
X184204000Y-88889000D01*
X184202000Y-88895000D01*
X184199000Y-88901000D01*
X184196000Y-88907000D01*
X184193000Y-88913000D01*
X184190000Y-88918000D01*
X184186000Y-88923000D01*
X184182000Y-88929000D01*
X184178000Y-88934000D01*
X184173000Y-88938000D01*
X184169000Y-88943000D01*
X184164000Y-88947000D01*
X184158000Y-88951000D01*
X184153000Y-88955000D01*
X184148000Y-88958000D01*
X184142000Y-88961000D01*
X184136000Y-88964000D01*
X184130000Y-88967000D01*
X184124000Y-88969000D01*
X184117000Y-88971000D01*
X184111000Y-88972000D01*
X184105000Y-88973000D01*
X184098000Y-88974000D01*
X184092000Y-88975000D01*
X184085000Y-88975000D01*
X183645000Y-88975000D01*
X183638000Y-88975000D01*
X183632000Y-88974000D01*
X183625000Y-88973000D01*
X183619000Y-88972000D01*
X183613000Y-88971000D01*
X183606000Y-88969000D01*
X183600000Y-88967000D01*
X183594000Y-88964000D01*
X183588000Y-88961000D01*
X183582000Y-88958000D01*
X183577000Y-88955000D01*
X183572000Y-88951000D01*
X183566000Y-88947000D01*
X183561000Y-88943000D01*
X183557000Y-88938000D01*
X183552000Y-88934000D01*
X183548000Y-88929000D01*
X183544000Y-88923000D01*
X183540000Y-88918000D01*
X183537000Y-88912000D01*
X183534000Y-88907000D01*
X183531000Y-88901000D01*
X183528000Y-88895000D01*
X183526000Y-88889000D01*
X183524000Y-88882000D01*
X183523000Y-88876000D01*
X183522000Y-88870000D01*
X183521000Y-88863000D01*
X183520000Y-88857000D01*
X183520000Y-88850000D01*
X183520000Y-88650000D01*
X183520000Y-88643000D01*
X183521000Y-88637000D01*
X183522000Y-88630000D01*
X183523000Y-88624000D01*
X183524000Y-88618000D01*
X183526000Y-88611000D01*
X183528000Y-88605000D01*
X183531000Y-88599000D01*
X183534000Y-88593000D01*
X183537000Y-88588000D01*
X183540000Y-88582000D01*
X183544000Y-88577000D01*
X183548000Y-88571000D01*
X183552000Y-88566000D01*
X183557000Y-88562000D01*
X183561000Y-88557000D01*
X183566000Y-88553000D01*
X183572000Y-88549000D01*
X183577000Y-88545000D01*
X183582000Y-88542000D01*
X183588000Y-88539000D01*
X183594000Y-88536000D01*
X183600000Y-88533000D01*
X183606000Y-88531000D01*
X183613000Y-88529000D01*
X183619000Y-88528000D01*
X183625000Y-88527000D01*
X183632000Y-88526000D01*
X183638000Y-88525000D01*
X183645000Y-88525000D01*
X184085000Y-88525000D01*
X184092000Y-88525000D01*
X184098000Y-88526000D01*
G37*
X183813000Y-86741000D02*
X183820000Y-86742000D01*
X183826000Y-86743000D01*
X183832000Y-86744000D01*
X183839000Y-86746000D01*
X183845000Y-86748000D01*
X183851000Y-86751000D01*
X183857000Y-86754000D01*
X183862000Y-86757000D01*
X183868000Y-86760000D01*
X183873000Y-86764000D01*
X183879000Y-86768000D01*
X183884000Y-86772000D01*
X183888000Y-86777000D01*
X183893000Y-86781000D01*
X183897000Y-86786000D01*
X183901000Y-86792000D01*
X183905000Y-86797000D01*
X183908000Y-86802000D01*
X183911000Y-86808000D01*
X183914000Y-86814000D01*
X183917000Y-86820000D01*
X183919000Y-86826000D01*
X183921000Y-86833000D01*
X183922000Y-86839000D01*
X183923000Y-86845000D01*
X183924000Y-86852000D01*
X183925000Y-86858000D01*
X183925000Y-86865000D01*
X183925000Y-87305000D01*
X183925000Y-87312000D01*
X183924000Y-87318000D01*
X183923000Y-87325000D01*
X183922000Y-87331000D01*
X183921000Y-87337000D01*
X183919000Y-87344000D01*
X183917000Y-87350000D01*
X183914000Y-87356000D01*
X183911000Y-87362000D01*
X183908000Y-87368000D01*
X183905000Y-87373000D01*
X183901000Y-87378000D01*
X183897000Y-87384000D01*
X183893000Y-87389000D01*
X183888000Y-87393000D01*
X183884000Y-87398000D01*
X183879000Y-87402000D01*
X183873000Y-87406000D01*
X183868000Y-87410000D01*
X183862000Y-87413000D01*
X183857000Y-87416000D01*
X183851000Y-87419000D01*
X183845000Y-87422000D01*
X183839000Y-87424000D01*
X183832000Y-87426000D01*
X183826000Y-87427000D01*
X183820000Y-87428000D01*
X183813000Y-87429000D01*
X183807000Y-87430000D01*
X183800000Y-87430000D01*
X183600000Y-87430000D01*
X183593000Y-87430000D01*
X183587000Y-87429000D01*
X183580000Y-87428000D01*
X183574000Y-87427000D01*
X183568000Y-87426000D01*
X183561000Y-87424000D01*
X183555000Y-87422000D01*
X183549000Y-87419000D01*
X183543000Y-87416000D01*
X183538000Y-87413000D01*
X183532000Y-87410000D01*
X183527000Y-87406000D01*
X183521000Y-87402000D01*
X183516000Y-87398000D01*
X183512000Y-87393000D01*
X183507000Y-87389000D01*
X183503000Y-87384000D01*
X183499000Y-87378000D01*
X183495000Y-87373000D01*
X183492000Y-87368000D01*
X183489000Y-87362000D01*
X183486000Y-87356000D01*
X183483000Y-87350000D01*
X183481000Y-87344000D01*
X183479000Y-87337000D01*
X183478000Y-87331000D01*
X183477000Y-87325000D01*
X183476000Y-87318000D01*
X183475000Y-87312000D01*
X183475000Y-87305000D01*
X183475000Y-86865000D01*
X183475000Y-86858000D01*
X183476000Y-86852000D01*
X183477000Y-86845000D01*
X183478000Y-86839000D01*
X183479000Y-86833000D01*
X183481000Y-86826000D01*
X183483000Y-86820000D01*
X183486000Y-86814000D01*
X183489000Y-86808000D01*
X183492000Y-86802000D01*
X183495000Y-86797000D01*
X183499000Y-86792000D01*
X183503000Y-86786000D01*
X183507000Y-86781000D01*
X183512000Y-86777000D01*
X183516000Y-86772000D01*
X183521000Y-86768000D01*
X183527000Y-86764000D01*
X183532000Y-86760000D01*
X183538000Y-86757000D01*
X183543000Y-86754000D01*
X183549000Y-86751000D01*
X183555000Y-86748000D01*
X183561000Y-86746000D01*
X183568000Y-86744000D01*
X183574000Y-86743000D01*
X183580000Y-86742000D01*
X183587000Y-86741000D01*
X183593000Y-86740000D01*
X183600000Y-86740000D01*
X183800000Y-86740000D01*
X183807000Y-86740000D01*
X183813000Y-86741000D01*
G36*
X183813000Y-86741000D02*
G01*
X183820000Y-86742000D01*
X183826000Y-86743000D01*
X183832000Y-86744000D01*
X183839000Y-86746000D01*
X183845000Y-86748000D01*
X183851000Y-86751000D01*
X183857000Y-86754000D01*
X183862000Y-86757000D01*
X183868000Y-86760000D01*
X183873000Y-86764000D01*
X183879000Y-86768000D01*
X183884000Y-86772000D01*
X183888000Y-86777000D01*
X183893000Y-86781000D01*
X183897000Y-86786000D01*
X183901000Y-86792000D01*
X183905000Y-86797000D01*
X183908000Y-86802000D01*
X183911000Y-86808000D01*
X183914000Y-86814000D01*
X183917000Y-86820000D01*
X183919000Y-86826000D01*
X183921000Y-86833000D01*
X183922000Y-86839000D01*
X183923000Y-86845000D01*
X183924000Y-86852000D01*
X183925000Y-86858000D01*
X183925000Y-86865000D01*
X183925000Y-87305000D01*
X183925000Y-87312000D01*
X183924000Y-87318000D01*
X183923000Y-87325000D01*
X183922000Y-87331000D01*
X183921000Y-87337000D01*
X183919000Y-87344000D01*
X183917000Y-87350000D01*
X183914000Y-87356000D01*
X183911000Y-87362000D01*
X183908000Y-87368000D01*
X183905000Y-87373000D01*
X183901000Y-87378000D01*
X183897000Y-87384000D01*
X183893000Y-87389000D01*
X183888000Y-87393000D01*
X183884000Y-87398000D01*
X183879000Y-87402000D01*
X183873000Y-87406000D01*
X183868000Y-87410000D01*
X183862000Y-87413000D01*
X183857000Y-87416000D01*
X183851000Y-87419000D01*
X183845000Y-87422000D01*
X183839000Y-87424000D01*
X183832000Y-87426000D01*
X183826000Y-87427000D01*
X183820000Y-87428000D01*
X183813000Y-87429000D01*
X183807000Y-87430000D01*
X183800000Y-87430000D01*
X183600000Y-87430000D01*
X183593000Y-87430000D01*
X183587000Y-87429000D01*
X183580000Y-87428000D01*
X183574000Y-87427000D01*
X183568000Y-87426000D01*
X183561000Y-87424000D01*
X183555000Y-87422000D01*
X183549000Y-87419000D01*
X183543000Y-87416000D01*
X183538000Y-87413000D01*
X183532000Y-87410000D01*
X183527000Y-87406000D01*
X183521000Y-87402000D01*
X183516000Y-87398000D01*
X183512000Y-87393000D01*
X183507000Y-87389000D01*
X183503000Y-87384000D01*
X183499000Y-87378000D01*
X183495000Y-87373000D01*
X183492000Y-87368000D01*
X183489000Y-87362000D01*
X183486000Y-87356000D01*
X183483000Y-87350000D01*
X183481000Y-87344000D01*
X183479000Y-87337000D01*
X183478000Y-87331000D01*
X183477000Y-87325000D01*
X183476000Y-87318000D01*
X183475000Y-87312000D01*
X183475000Y-87305000D01*
X183475000Y-86865000D01*
X183475000Y-86858000D01*
X183476000Y-86852000D01*
X183477000Y-86845000D01*
X183478000Y-86839000D01*
X183479000Y-86833000D01*
X183481000Y-86826000D01*
X183483000Y-86820000D01*
X183486000Y-86814000D01*
X183489000Y-86808000D01*
X183492000Y-86802000D01*
X183495000Y-86797000D01*
X183499000Y-86792000D01*
X183503000Y-86786000D01*
X183507000Y-86781000D01*
X183512000Y-86777000D01*
X183516000Y-86772000D01*
X183521000Y-86768000D01*
X183527000Y-86764000D01*
X183532000Y-86760000D01*
X183538000Y-86757000D01*
X183543000Y-86754000D01*
X183549000Y-86751000D01*
X183555000Y-86748000D01*
X183561000Y-86746000D01*
X183568000Y-86744000D01*
X183574000Y-86743000D01*
X183580000Y-86742000D01*
X183587000Y-86741000D01*
X183593000Y-86740000D01*
X183600000Y-86740000D01*
X183800000Y-86740000D01*
X183807000Y-86740000D01*
X183813000Y-86741000D01*
G37*
X183813000Y-89071000D02*
X183820000Y-89072000D01*
X183826000Y-89073000D01*
X183832000Y-89074000D01*
X183839000Y-89076000D01*
X183845000Y-89078000D01*
X183851000Y-89081000D01*
X183857000Y-89084000D01*
X183862000Y-89087000D01*
X183868000Y-89090000D01*
X183873000Y-89094000D01*
X183879000Y-89098000D01*
X183884000Y-89102000D01*
X183888000Y-89107000D01*
X183893000Y-89111000D01*
X183897000Y-89116000D01*
X183901000Y-89122000D01*
X183905000Y-89127000D01*
X183908000Y-89132000D01*
X183911000Y-89138000D01*
X183914000Y-89144000D01*
X183917000Y-89150000D01*
X183919000Y-89156000D01*
X183921000Y-89163000D01*
X183922000Y-89169000D01*
X183923000Y-89175000D01*
X183924000Y-89182000D01*
X183925000Y-89188000D01*
X183925000Y-89195000D01*
X183925000Y-89635000D01*
X183925000Y-89642000D01*
X183924000Y-89648000D01*
X183923000Y-89655000D01*
X183922000Y-89661000D01*
X183921000Y-89667000D01*
X183919000Y-89674000D01*
X183917000Y-89680000D01*
X183914000Y-89686000D01*
X183911000Y-89692000D01*
X183908000Y-89698000D01*
X183905000Y-89703000D01*
X183901000Y-89708000D01*
X183897000Y-89714000D01*
X183893000Y-89719000D01*
X183888000Y-89723000D01*
X183884000Y-89728000D01*
X183879000Y-89732000D01*
X183873000Y-89736000D01*
X183868000Y-89740000D01*
X183862000Y-89743000D01*
X183857000Y-89746000D01*
X183851000Y-89749000D01*
X183845000Y-89752000D01*
X183839000Y-89754000D01*
X183832000Y-89756000D01*
X183826000Y-89757000D01*
X183820000Y-89758000D01*
X183813000Y-89759000D01*
X183807000Y-89760000D01*
X183800000Y-89760000D01*
X183600000Y-89760000D01*
X183593000Y-89760000D01*
X183587000Y-89759000D01*
X183580000Y-89758000D01*
X183574000Y-89757000D01*
X183568000Y-89756000D01*
X183561000Y-89754000D01*
X183555000Y-89752000D01*
X183549000Y-89749000D01*
X183543000Y-89746000D01*
X183538000Y-89743000D01*
X183532000Y-89740000D01*
X183527000Y-89736000D01*
X183521000Y-89732000D01*
X183516000Y-89728000D01*
X183512000Y-89723000D01*
X183507000Y-89719000D01*
X183503000Y-89714000D01*
X183499000Y-89708000D01*
X183495000Y-89703000D01*
X183492000Y-89698000D01*
X183489000Y-89692000D01*
X183486000Y-89686000D01*
X183483000Y-89680000D01*
X183481000Y-89674000D01*
X183479000Y-89667000D01*
X183478000Y-89661000D01*
X183477000Y-89655000D01*
X183476000Y-89648000D01*
X183475000Y-89642000D01*
X183475000Y-89635000D01*
X183475000Y-89195000D01*
X183475000Y-89188000D01*
X183476000Y-89182000D01*
X183477000Y-89175000D01*
X183478000Y-89169000D01*
X183479000Y-89163000D01*
X183481000Y-89156000D01*
X183483000Y-89150000D01*
X183486000Y-89144000D01*
X183489000Y-89138000D01*
X183492000Y-89132000D01*
X183495000Y-89127000D01*
X183499000Y-89122000D01*
X183503000Y-89116000D01*
X183507000Y-89111000D01*
X183512000Y-89107000D01*
X183516000Y-89102000D01*
X183521000Y-89098000D01*
X183527000Y-89094000D01*
X183532000Y-89090000D01*
X183538000Y-89087000D01*
X183543000Y-89084000D01*
X183549000Y-89081000D01*
X183555000Y-89078000D01*
X183561000Y-89076000D01*
X183568000Y-89074000D01*
X183574000Y-89073000D01*
X183580000Y-89072000D01*
X183587000Y-89071000D01*
X183593000Y-89070000D01*
X183600000Y-89070000D01*
X183800000Y-89070000D01*
X183807000Y-89070000D01*
X183813000Y-89071000D01*
G36*
X183813000Y-89071000D02*
G01*
X183820000Y-89072000D01*
X183826000Y-89073000D01*
X183832000Y-89074000D01*
X183839000Y-89076000D01*
X183845000Y-89078000D01*
X183851000Y-89081000D01*
X183857000Y-89084000D01*
X183862000Y-89087000D01*
X183868000Y-89090000D01*
X183873000Y-89094000D01*
X183879000Y-89098000D01*
X183884000Y-89102000D01*
X183888000Y-89107000D01*
X183893000Y-89111000D01*
X183897000Y-89116000D01*
X183901000Y-89122000D01*
X183905000Y-89127000D01*
X183908000Y-89132000D01*
X183911000Y-89138000D01*
X183914000Y-89144000D01*
X183917000Y-89150000D01*
X183919000Y-89156000D01*
X183921000Y-89163000D01*
X183922000Y-89169000D01*
X183923000Y-89175000D01*
X183924000Y-89182000D01*
X183925000Y-89188000D01*
X183925000Y-89195000D01*
X183925000Y-89635000D01*
X183925000Y-89642000D01*
X183924000Y-89648000D01*
X183923000Y-89655000D01*
X183922000Y-89661000D01*
X183921000Y-89667000D01*
X183919000Y-89674000D01*
X183917000Y-89680000D01*
X183914000Y-89686000D01*
X183911000Y-89692000D01*
X183908000Y-89698000D01*
X183905000Y-89703000D01*
X183901000Y-89708000D01*
X183897000Y-89714000D01*
X183893000Y-89719000D01*
X183888000Y-89723000D01*
X183884000Y-89728000D01*
X183879000Y-89732000D01*
X183873000Y-89736000D01*
X183868000Y-89740000D01*
X183862000Y-89743000D01*
X183857000Y-89746000D01*
X183851000Y-89749000D01*
X183845000Y-89752000D01*
X183839000Y-89754000D01*
X183832000Y-89756000D01*
X183826000Y-89757000D01*
X183820000Y-89758000D01*
X183813000Y-89759000D01*
X183807000Y-89760000D01*
X183800000Y-89760000D01*
X183600000Y-89760000D01*
X183593000Y-89760000D01*
X183587000Y-89759000D01*
X183580000Y-89758000D01*
X183574000Y-89757000D01*
X183568000Y-89756000D01*
X183561000Y-89754000D01*
X183555000Y-89752000D01*
X183549000Y-89749000D01*
X183543000Y-89746000D01*
X183538000Y-89743000D01*
X183532000Y-89740000D01*
X183527000Y-89736000D01*
X183521000Y-89732000D01*
X183516000Y-89728000D01*
X183512000Y-89723000D01*
X183507000Y-89719000D01*
X183503000Y-89714000D01*
X183499000Y-89708000D01*
X183495000Y-89703000D01*
X183492000Y-89698000D01*
X183489000Y-89692000D01*
X183486000Y-89686000D01*
X183483000Y-89680000D01*
X183481000Y-89674000D01*
X183479000Y-89667000D01*
X183478000Y-89661000D01*
X183477000Y-89655000D01*
X183476000Y-89648000D01*
X183475000Y-89642000D01*
X183475000Y-89635000D01*
X183475000Y-89195000D01*
X183475000Y-89188000D01*
X183476000Y-89182000D01*
X183477000Y-89175000D01*
X183478000Y-89169000D01*
X183479000Y-89163000D01*
X183481000Y-89156000D01*
X183483000Y-89150000D01*
X183486000Y-89144000D01*
X183489000Y-89138000D01*
X183492000Y-89132000D01*
X183495000Y-89127000D01*
X183499000Y-89122000D01*
X183503000Y-89116000D01*
X183507000Y-89111000D01*
X183512000Y-89107000D01*
X183516000Y-89102000D01*
X183521000Y-89098000D01*
X183527000Y-89094000D01*
X183532000Y-89090000D01*
X183538000Y-89087000D01*
X183543000Y-89084000D01*
X183549000Y-89081000D01*
X183555000Y-89078000D01*
X183561000Y-89076000D01*
X183568000Y-89074000D01*
X183574000Y-89073000D01*
X183580000Y-89072000D01*
X183587000Y-89071000D01*
X183593000Y-89070000D01*
X183600000Y-89070000D01*
X183800000Y-89070000D01*
X183807000Y-89070000D01*
X183813000Y-89071000D01*
G37*
%TD*%
D11*
%TO.C,C3*%
X165405000Y-86450000D03*
X164445000Y-86450000D03*
%TD*%
D12*
%TO.C,U4*%
X166737500Y-68280000D03*
X166737500Y-67010000D03*
X166737500Y-65740000D03*
X166737500Y-64470000D03*
X161467500Y-64470000D03*
X161467500Y-65740000D03*
X161467500Y-67010000D03*
X161467500Y-68280000D03*
%TD*%
D13*
%TO.C,C10*%
X172050000Y-82825000D03*
X172050000Y-83785000D03*
%TD*%
D14*
%TO.C,J5*%
X176900000Y-55075000D03*
X175650000Y-55075000D03*
X174400000Y-55075000D03*
X173150000Y-55075000D03*
D15*
X178750000Y-51875000D03*
X171300000Y-51875000D03*
%TD*%
D16*
%TO.C,C1*%
X164395000Y-81075000D03*
X165355000Y-81075000D03*
%TD*%
D17*
%TO.C,C21*%
X184875000Y-61725000D03*
X184875000Y-58775000D03*
%TD*%
D18*
%TO.C,H1*%
X157325000Y-59675000D03*
X158027944Y-57977944D03*
X158027944Y-61372056D03*
X159725000Y-57275000D03*
D19*
X159725000Y-59675000D03*
D18*
X159725000Y-62075000D03*
X161422056Y-57977944D03*
X161422056Y-61372056D03*
X162125000Y-59675000D03*
%TD*%
D20*
%TO.C,Y1*%
X163375000Y-72625000D03*
X160975000Y-72625000D03*
X160975000Y-74525000D03*
X163375000Y-74525000D03*
%TD*%
D21*
%TO.C,U3*%
X169325000Y-71250000D03*
X169325000Y-71750000D03*
X169325000Y-72250000D03*
X169325000Y-72750000D03*
X169325000Y-73250000D03*
X169325000Y-73750000D03*
X169325000Y-74250000D03*
X169325000Y-74750000D03*
X169325000Y-75250000D03*
X169325000Y-75750000D03*
X169325000Y-76250000D03*
X169325000Y-76750000D03*
X169325000Y-77250000D03*
X169325000Y-77750000D03*
X169325000Y-78250000D03*
X169325000Y-78750000D03*
D22*
X171250000Y-80675000D03*
X171750000Y-80675000D03*
X172250000Y-80675000D03*
X172750000Y-80675000D03*
X173250000Y-80675000D03*
X173750000Y-80675000D03*
X174250000Y-80675000D03*
X174750000Y-80675000D03*
X175250000Y-80675000D03*
X175750000Y-80675000D03*
X176250000Y-80675000D03*
X176750000Y-80675000D03*
X177250000Y-80675000D03*
X177750000Y-80675000D03*
X178250000Y-80675000D03*
X178750000Y-80675000D03*
D21*
X180675000Y-78750000D03*
X180675000Y-78250000D03*
X180675000Y-77750000D03*
X180675000Y-77250000D03*
X180675000Y-76750000D03*
X180675000Y-76250000D03*
X180675000Y-75750000D03*
X180675000Y-75250000D03*
X180675000Y-74750000D03*
X180675000Y-74250000D03*
X180675000Y-73750000D03*
X180675000Y-73250000D03*
X180675000Y-72750000D03*
X180675000Y-72250000D03*
X180675000Y-71750000D03*
X180675000Y-71250000D03*
D22*
X178750000Y-69325000D03*
X178250000Y-69325000D03*
X177750000Y-69325000D03*
X177250000Y-69325000D03*
X176750000Y-69325000D03*
X176250000Y-69325000D03*
X175750000Y-69325000D03*
X175250000Y-69325000D03*
X174750000Y-69325000D03*
X174250000Y-69325000D03*
X173750000Y-69325000D03*
X173250000Y-69325000D03*
X172750000Y-69325000D03*
X172250000Y-69325000D03*
X171750000Y-69325000D03*
X171250000Y-69325000D03*
%TD*%
D23*
%TO.C,J9*%
X194950000Y-71825000D03*
X194950000Y-70575000D03*
X194950000Y-69325000D03*
X194950000Y-68075000D03*
D24*
X198150000Y-73675000D03*
X198150000Y-66225000D03*
%TD*%
D13*
%TO.C,C16*%
X178050000Y-82820000D03*
X178050000Y-83780000D03*
%TD*%
D14*
%TO.C,J7*%
X186375000Y-55075000D03*
X185125000Y-55075000D03*
X183875000Y-55075000D03*
X182625000Y-55075000D03*
D15*
X188225000Y-51875000D03*
X180775000Y-51875000D03*
%TD*%
D25*
%TO.C,R5*%
X158600000Y-77515000D03*
X158600000Y-78535000D03*
%TD*%
D23*
%TO.C,J1*%
X194950000Y-81375000D03*
X194950000Y-80125000D03*
X194950000Y-78875000D03*
X194950000Y-77625000D03*
D24*
X198150000Y-83225000D03*
X198150000Y-75775000D03*
%TD*%
D26*
%TO.C,R24*%
X174250000Y-66060000D03*
X174250000Y-65040000D03*
%TD*%
D13*
%TO.C,C5*%
X185025000Y-88740000D03*
X185025000Y-89700000D03*
%TD*%
D27*
%TO.C,J3*%
X179100000Y-94900000D03*
X180350000Y-94900000D03*
X181600000Y-94900000D03*
X182850000Y-94900000D03*
D28*
X177250000Y-98100000D03*
X184700000Y-98100000D03*
%TD*%
D16*
%TO.C,C4*%
X182750000Y-85875000D03*
X183710000Y-85875000D03*
%TD*%
D11*
%TO.C,C14*%
X167110000Y-76400000D03*
X166150000Y-76400000D03*
%TD*%
D18*
%TO.C,H4*%
X187825000Y-90175000D03*
X188527944Y-88477944D03*
X188527944Y-91872056D03*
X190225000Y-87775000D03*
D19*
X190225000Y-90175000D03*
D18*
X190225000Y-92575000D03*
X191922056Y-88477944D03*
X191922056Y-91872056D03*
X192625000Y-90175000D03*
%TD*%
D27*
%TO.C,J4*%
X166100000Y-94900000D03*
X167350000Y-94900000D03*
X168600000Y-94900000D03*
X169850000Y-94900000D03*
X171100000Y-94900000D03*
X172350000Y-94900000D03*
D28*
X164250000Y-98100000D03*
X174200000Y-98100000D03*
%TD*%
D29*
%TO.C,C6*%
X166975000Y-75430000D03*
X166975000Y-74470000D03*
%TD*%
D30*
%TO.C,C25*%
X181050000Y-58800000D03*
X181050000Y-61750000D03*
%TD*%
D16*
%TO.C,C8*%
X160995000Y-76100000D03*
X161955000Y-76100000D03*
%TD*%
D14*
%TO.C,J2*%
X167400000Y-55075000D03*
X166150000Y-55075000D03*
X164900000Y-55075000D03*
X163650000Y-55075000D03*
D15*
X169250000Y-51875000D03*
X161800000Y-51875000D03*
%TD*%
D26*
%TO.C,R2*%
X166000000Y-75460000D03*
X166000000Y-74440000D03*
%TD*%
D16*
%TO.C,C49*%
X173247500Y-90672500D03*
X174207500Y-90672500D03*
%TD*%
D26*
%TO.C,R4*%
X157525000Y-78535000D03*
X157525000Y-77515000D03*
%TD*%
D13*
%TO.C,C19*%
X190175000Y-67370000D03*
X190175000Y-68330000D03*
%TD*%
D29*
%TO.C,C13*%
X170750000Y-66455000D03*
X170750000Y-65495000D03*
%TD*%
D25*
%TO.C,R23*%
X175225000Y-65035000D03*
X175225000Y-66055000D03*
%TD*%
D18*
%TO.C,H3*%
X157325000Y-90175000D03*
X158027944Y-88477944D03*
X158027944Y-91872056D03*
X159725000Y-87775000D03*
D19*
X159725000Y-90175000D03*
D18*
X159725000Y-92575000D03*
X161422056Y-88477944D03*
X161422056Y-91872056D03*
X162125000Y-90175000D03*
%TD*%
D31*
%TO.C,U11*%
X173250000Y-89125000D03*
X174500000Y-89125000D03*
X175750000Y-89125000D03*
X177000000Y-89125000D03*
X177000000Y-86975000D03*
X175750000Y-86975000D03*
X174500000Y-86975000D03*
X173250000Y-86975000D03*
%TD*%
D32*
%TO.C,R25*%
X157080000Y-72440000D03*
X158100000Y-72440000D03*
%TD*%
D33*
%TO.C,J6*%
X155000000Y-77250000D03*
X155000000Y-78500000D03*
X155000000Y-79750000D03*
X155000000Y-81000000D03*
X155000000Y-82250000D03*
X155000000Y-83500000D03*
X155000000Y-84750000D03*
X155000000Y-86000000D03*
D34*
X151800000Y-75400000D03*
X151800000Y-87850000D03*
%TD*%
D16*
%TO.C,C2*%
X182745000Y-84875000D03*
X183705000Y-84875000D03*
%TD*%
D20*
%TO.C,Y2*%
X186100000Y-69257500D03*
X188500000Y-69257500D03*
X188500000Y-67357500D03*
X186100000Y-67357500D03*
%TD*%
D13*
%TO.C,C11*%
X179050000Y-82820000D03*
X179050000Y-83780000D03*
%TD*%
D16*
%TO.C,C12*%
X182920000Y-71025000D03*
X183880000Y-71025000D03*
%TD*%
D25*
%TO.C,R3*%
X173250000Y-65035000D03*
X173250000Y-66055000D03*
%TD*%
D35*
%TO.C,R10*%
X182635000Y-57225000D03*
X181615000Y-57225000D03*
%TD*%
D32*
%TO.C,R1*%
X157165000Y-84750000D03*
X158185000Y-84750000D03*
%TD*%
D33*
%TO.C,J11*%
X155075000Y-66350000D03*
X155075000Y-67600000D03*
X155075000Y-68850000D03*
X155075000Y-70100000D03*
X155075000Y-71350000D03*
D34*
X151875000Y-64500000D03*
X151875000Y-73200000D03*
%TD*%
D11*
%TO.C,C9*%
X167150000Y-71275000D03*
X166190000Y-71275000D03*
%TD*%
D36*
%TO.C,U1*%
X163400000Y-82535000D03*
X163900000Y-82535000D03*
X164400000Y-82535000D03*
X164900000Y-82535000D03*
X165400000Y-82535000D03*
X165900000Y-82535000D03*
X166400000Y-82535000D03*
D37*
X166815000Y-83700000D03*
D36*
X166400000Y-84865000D03*
X165900000Y-84865000D03*
X165400000Y-84865000D03*
X164900000Y-84865000D03*
X164400000Y-84865000D03*
X163900000Y-84865000D03*
X163400000Y-84865000D03*
D37*
X162985000Y-83700000D03*
%TD*%
D11*
%TO.C,C15*%
X167110000Y-77375000D03*
X166150000Y-77375000D03*
%TD*%
D29*
%TO.C,C18*%
X184400000Y-69255000D03*
X184400000Y-68295000D03*
%TD*%
D38*
%TO.C,D1*%
X158917500Y-73970000D03*
X157342500Y-73970000D03*
%TD*%
D29*
%TO.C,C22*%
X168752500Y-65755000D03*
X168752500Y-64795000D03*
%TD*%
D16*
%TO.C,C17*%
X182920000Y-72000000D03*
X183880000Y-72000000D03*
%TD*%
D18*
%TO.C,H2*%
X187825000Y-59675000D03*
X188527944Y-57977944D03*
X188527944Y-61372056D03*
X190225000Y-57275000D03*
D19*
X190225000Y-59675000D03*
D18*
X190225000Y-62075000D03*
X191922056Y-57977944D03*
X191922056Y-61372056D03*
X192625000Y-59675000D03*
%TD*%
D35*
%TO.C,R8*%
X184910000Y-57125000D03*
X183890000Y-57125000D03*
%TD*%
D11*
%TO.C,C7*%
X163400000Y-70975000D03*
X162440000Y-70975000D03*
%TD*%
M02*
