%TF.GenerationSoftware,KiCad,Pcbnew,9.0.0*%
%TF.CreationDate,2025-03-25T12:29:50+03:00*%
%TF.ProjectId,Autopilot DronmarketV2,4175746f-7069-46c6-9f74-2044726f6e6d,rev?*%
%TF.SameCoordinates,Original*%
%TF.FileFunction,Copper,L2,Inr*%
%TF.FilePolarity,Positive*%
%FSLAX46Y46*%
G04 Gerber Fmt 4.6, Leading zero omitted, Abs format (unit mm)*
G04 Created by KiCad (PCBNEW 9.0.0) date 2025-03-25 12:29:50*
%MOMM*%
%LPD*%
G01*
G04 APERTURE LIST*
%TA.AperFunction,ComponentPad*%
%ADD10C,0.800000*%
%TD*%
%TA.AperFunction,ComponentPad*%
%ADD11C,6.400000*%
%TD*%
%TA.AperFunction,ViaPad*%
%ADD12C,0.600000*%
%TD*%
%TA.AperFunction,ViaPad*%
%ADD13C,0.450000*%
%TD*%
%TA.AperFunction,ViaPad*%
%ADD14C,0.762000*%
%TD*%
%TA.AperFunction,ViaPad*%
%ADD15C,0.500000*%
%TD*%
%TA.AperFunction,ViaPad*%
%ADD16C,0.800000*%
%TD*%
%TA.AperFunction,ViaPad*%
%ADD17C,0.700000*%
%TD*%
%TA.AperFunction,ViaPad*%
%ADD18C,1.000000*%
%TD*%
G04 APERTURE END LIST*
D10*
%TO.N,GND*%
%TO.C,H1*%
X157325000Y-59675000D03*
X158027944Y-57977944D03*
X158027944Y-61372056D03*
X159725000Y-57275000D03*
D11*
X159725000Y-59675000D03*
D10*
X159725000Y-62075000D03*
X161422056Y-57977944D03*
X161422056Y-61372056D03*
X162125000Y-59675000D03*
%TD*%
%TO.N,GND*%
%TO.C,H4*%
X187825000Y-90175000D03*
X188527944Y-88477944D03*
X188527944Y-91872056D03*
X190225000Y-87775000D03*
D11*
X190225000Y-90175000D03*
D10*
X190225000Y-92575000D03*
X191922056Y-88477944D03*
X191922056Y-91872056D03*
X192625000Y-90175000D03*
%TD*%
%TO.N,GND*%
%TO.C,H3*%
X157325000Y-90175000D03*
X158027944Y-88477944D03*
X158027944Y-91872056D03*
X159725000Y-87775000D03*
D11*
X159725000Y-90175000D03*
D10*
X159725000Y-92575000D03*
X161422056Y-88477944D03*
X161422056Y-91872056D03*
X162125000Y-90175000D03*
%TD*%
%TO.N,GND*%
%TO.C,H2*%
X187825000Y-59675000D03*
X188527944Y-57977944D03*
X188527944Y-61372056D03*
X190225000Y-57275000D03*
D11*
X190225000Y-59675000D03*
D10*
X190225000Y-62075000D03*
X191922056Y-57977944D03*
X191922056Y-61372056D03*
X192625000Y-59675000D03*
%TD*%
D12*
%TO.N,GND*%
X193125000Y-95850000D03*
X196575000Y-54250000D03*
X192200000Y-95850000D03*
X192200000Y-96800000D03*
X195650000Y-91100000D03*
X192250000Y-54275000D03*
X196800000Y-81725000D03*
X191400000Y-95850000D03*
X169703544Y-83745000D03*
D13*
X184450000Y-84775000D03*
D12*
X194900000Y-53250000D03*
X196575000Y-52300000D03*
X189675000Y-96775000D03*
X194900000Y-56125000D03*
X196525000Y-97775000D03*
X155725000Y-97775000D03*
X196575000Y-53250000D03*
D13*
X166100000Y-83275000D03*
D12*
X194900000Y-52300000D03*
X197375000Y-58050000D03*
X153400000Y-92825000D03*
X195650000Y-92050000D03*
D13*
X177200000Y-76000000D03*
D12*
X196450000Y-94000000D03*
X196450000Y-89175000D03*
X190475000Y-94900000D03*
X192250000Y-53275000D03*
X197325000Y-94950000D03*
X168625000Y-60775000D03*
X195650000Y-97775000D03*
X195700000Y-52300000D03*
X191400000Y-97750000D03*
X197325000Y-88225000D03*
D13*
X170425000Y-60925000D03*
D12*
X198125000Y-93050000D03*
X153825000Y-62550000D03*
X195650000Y-96825000D03*
D13*
X163395500Y-74525000D03*
D12*
X153400000Y-93825000D03*
X196150000Y-75875000D03*
X167825000Y-60775000D03*
X196450000Y-92050000D03*
X194850000Y-96825000D03*
X193125000Y-54275000D03*
X194900000Y-61900000D03*
X194900000Y-59000000D03*
X197325000Y-85325000D03*
X153775000Y-97775000D03*
X157925000Y-53725000D03*
D14*
X196125000Y-64125000D03*
D12*
X195650000Y-89175000D03*
X194725000Y-94925000D03*
X157125000Y-51775000D03*
X196450000Y-86275000D03*
X173975000Y-73250000D03*
X197325000Y-87275000D03*
X196450000Y-90175000D03*
D13*
X160800000Y-81625000D03*
D12*
X196575000Y-61900000D03*
X151875000Y-62550000D03*
X157625000Y-98600000D03*
X159600000Y-51775000D03*
X195700000Y-54250000D03*
X191450000Y-52325000D03*
X193125000Y-52325000D03*
X158625000Y-98600000D03*
X197325000Y-91100000D03*
X195650000Y-88225000D03*
X154725000Y-62550000D03*
X155725000Y-98575000D03*
X197325000Y-86275000D03*
X193925000Y-52325000D03*
X189675000Y-95825000D03*
X160550000Y-86250000D03*
X193125000Y-93975000D03*
X191400000Y-96800000D03*
X171175000Y-77953803D03*
X167260000Y-98590000D03*
X195650000Y-95875000D03*
X194850000Y-95875000D03*
X155054400Y-93827600D03*
X176623001Y-79433933D03*
X196575000Y-55175000D03*
D13*
X158625000Y-69900000D03*
X167625000Y-87075000D03*
D12*
X191450000Y-53275000D03*
X161500000Y-98600000D03*
X198125000Y-85325000D03*
D13*
X159150000Y-70400000D03*
D12*
X196450000Y-93050000D03*
X197325000Y-97775000D03*
D13*
X173510000Y-91640000D03*
X156750000Y-82850000D03*
D12*
X153800000Y-61550000D03*
D13*
X166810000Y-82500000D03*
D12*
X194725000Y-93975000D03*
X189675000Y-94900000D03*
X198125000Y-92050000D03*
D13*
X174120000Y-91650000D03*
D12*
X154775000Y-97775000D03*
X197375000Y-59000000D03*
X197375000Y-52300000D03*
X194725000Y-93025000D03*
X172400000Y-96900000D03*
X195700000Y-61900000D03*
X196575000Y-57125000D03*
X195650000Y-90175000D03*
X193925000Y-96800000D03*
X159600000Y-52725000D03*
X160575000Y-98600000D03*
X167825000Y-59775000D03*
X193925000Y-95850000D03*
X193125000Y-96800000D03*
X173850000Y-75750000D03*
X157925000Y-51775000D03*
X153400000Y-91875000D03*
X193125000Y-94925000D03*
X196575000Y-58050000D03*
X196450000Y-94950000D03*
X195700000Y-56125000D03*
X192200000Y-97750000D03*
X195700000Y-60950000D03*
D13*
X181550000Y-69300000D03*
D12*
X198125000Y-94000000D03*
X196800000Y-69950000D03*
X196450000Y-88225000D03*
X197375000Y-55175000D03*
X192250000Y-52325000D03*
X171425000Y-96875000D03*
X193925000Y-93975000D03*
D13*
X168300000Y-66950000D03*
D12*
X190475000Y-96775000D03*
X195700000Y-57125000D03*
X158800000Y-51775000D03*
X196575000Y-60950000D03*
X154675000Y-61550000D03*
X198125000Y-91100000D03*
X190475000Y-95825000D03*
X197325000Y-92050000D03*
X193925000Y-93025000D03*
X197325000Y-93050000D03*
X197375000Y-57125000D03*
X189675000Y-97725000D03*
X197325000Y-90175000D03*
X156650000Y-98575000D03*
X190475000Y-97725000D03*
X194850000Y-97775000D03*
X195650000Y-93050000D03*
X197325000Y-89175000D03*
X192200000Y-94925000D03*
X198125000Y-87275000D03*
D13*
X174700000Y-91640000D03*
D12*
X193125000Y-97750000D03*
X196525000Y-95875000D03*
X191450000Y-54275000D03*
X198125000Y-94950000D03*
X197325000Y-96825000D03*
X193925000Y-97750000D03*
X191275000Y-94900000D03*
D13*
X161025000Y-70225000D03*
D12*
X194900000Y-55175000D03*
X172400000Y-97700000D03*
D13*
X182750000Y-67725000D03*
D12*
X196450000Y-91100000D03*
X194900000Y-60950000D03*
X164025000Y-59925000D03*
X156650000Y-97775000D03*
X171425000Y-97675000D03*
X195700000Y-53250000D03*
X193925000Y-94925000D03*
X198125000Y-90175000D03*
X194900000Y-62900000D03*
X195700000Y-55175000D03*
X197375000Y-56125000D03*
X197375000Y-54250000D03*
D13*
X161775000Y-71600000D03*
D12*
X195650000Y-94000000D03*
X198125000Y-86275000D03*
X170600000Y-83750000D03*
X159080000Y-72625000D03*
X162475000Y-98625000D03*
X195650000Y-94950000D03*
D13*
X165000000Y-71275000D03*
D12*
X159625000Y-98600000D03*
X195700000Y-62900000D03*
X193925000Y-54275000D03*
X153775000Y-98575000D03*
X197375000Y-53250000D03*
X193925000Y-53275000D03*
D13*
X175925000Y-64000000D03*
D12*
X196525000Y-96825000D03*
X195700000Y-60000000D03*
X155050000Y-92825000D03*
X170520000Y-97690000D03*
X196575000Y-56125000D03*
X154200000Y-93825000D03*
X193125000Y-53275000D03*
X157125000Y-53725000D03*
X197325000Y-95875000D03*
X158399795Y-79363493D03*
X196575000Y-62900000D03*
X198125000Y-88225000D03*
X196450000Y-87275000D03*
X154200000Y-91875000D03*
D13*
X182950000Y-90425000D03*
D12*
X194900000Y-60000000D03*
X198125000Y-89175000D03*
X195650000Y-87275000D03*
X151875000Y-61550000D03*
X197325000Y-94000000D03*
X174925000Y-75875000D03*
X155854400Y-93827600D03*
X154200000Y-92825000D03*
D13*
X168125000Y-66475000D03*
D12*
X194900000Y-54250000D03*
D13*
X186325000Y-71182500D03*
D12*
X154775000Y-98575000D03*
X168625000Y-59775000D03*
D13*
%TO.N,VDD_3V3_SENS*%
X164800000Y-80375000D03*
D12*
X169550000Y-57450000D03*
X158375000Y-55000000D03*
D14*
X168300000Y-90672500D03*
D12*
X152600000Y-90525000D03*
X160825000Y-82450000D03*
X176800000Y-57450000D03*
X178137500Y-58787500D03*
X168075000Y-86450000D03*
X180450000Y-83375000D03*
X152300000Y-96375000D03*
X167400000Y-57450000D03*
X182886058Y-80937528D03*
X173825000Y-95975000D03*
X168357000Y-84969177D03*
X156905000Y-66350000D03*
D13*
%TO.N,NRST*%
X194275000Y-64650000D03*
X158825000Y-75150000D03*
D15*
%TO.N,VDD_3V3_MCU*%
X189750000Y-82100000D03*
D13*
X167925000Y-76750603D03*
D15*
X181726620Y-70398380D03*
X188725000Y-82925000D03*
D12*
X159290499Y-76502211D03*
D13*
X179752038Y-82752038D03*
D15*
X189850000Y-82925000D03*
D13*
X183100000Y-82900000D03*
D15*
X164350000Y-70425000D03*
D13*
X171047797Y-82846696D03*
D15*
X190325000Y-82375000D03*
X188450000Y-82150000D03*
X169495000Y-66530000D03*
D13*
%TO.N,/OSD and FRAM/CLKIN*%
X183275000Y-67100000D03*
%TO.N,/OSD and FRAM/XFB*%
X186700000Y-64040000D03*
%TO.N,/OSD and FRAM/SAG*%
X180950000Y-60100000D03*
D12*
%TO.N,Net-(U5-VIN)*%
X181672749Y-63567251D03*
%TO.N,VDD_5V_IN*%
X152750000Y-60300000D03*
D13*
X152750000Y-70840000D03*
D12*
X185402135Y-63752135D03*
X159050000Y-96115000D03*
D13*
X186780000Y-73480000D03*
D12*
X173370998Y-87904002D03*
D14*
X166075000Y-98775000D03*
D12*
X192125000Y-63750000D03*
X192125000Y-69550000D03*
X186540000Y-75140000D03*
X184875000Y-80925000D03*
%TO.N,Net-(U5-VOUT)*%
X184187840Y-72788891D03*
D16*
%TO.N,VCC*%
X172650000Y-93475000D03*
X157525000Y-79575000D03*
X161625000Y-97075000D03*
X175225000Y-93468000D03*
D14*
X184925000Y-93825000D03*
D16*
%TO.N,VDD_9V_OUT*%
X186875000Y-57025000D03*
X178750000Y-98500000D03*
D17*
X185350000Y-87000000D03*
D16*
X187650000Y-86375000D03*
D18*
%TO.N,VDD_3V3_SD*%
X156100000Y-52625000D03*
D16*
X175500000Y-71975000D03*
X170300000Y-63625000D03*
D13*
%TO.N,USART1_RX*%
X183245325Y-74558753D03*
X187024293Y-76799292D03*
%TO.N,USART1_TX*%
X182625000Y-75075000D03*
X186175000Y-77650000D03*
%TO.N,CAN1_TX*%
X170675000Y-59000000D03*
X167075000Y-53525000D03*
%TO.N,CAN1_RX*%
X171327821Y-58537585D03*
X166925000Y-52650000D03*
%TO.N,USART3_RX*%
X181862500Y-97512500D03*
X182059538Y-83119538D03*
%TO.N,USART3_TX*%
X180950000Y-98200000D03*
X177250000Y-78405403D03*
%TO.N,SPI2_MOSI*%
X163450000Y-64475000D03*
X172373401Y-76575000D03*
X163275000Y-86625000D03*
X162640000Y-80125000D03*
%TO.N,SPI2_ext_CS*%
X180650000Y-79550000D03*
X186400000Y-83900000D03*
%TO.N,SPI2_SCK*%
X169850000Y-97160000D03*
X159925000Y-69925000D03*
X182550000Y-77350000D03*
X167840000Y-83400000D03*
%TO.N,SPI2_MISO*%
X172650000Y-75275000D03*
X164675000Y-89890000D03*
X161777038Y-84647962D03*
X166650000Y-80675000D03*
X167180000Y-85840000D03*
X170260000Y-69150000D03*
X165575000Y-83825000D03*
%TO.N,I2C1_SCL*%
X175675000Y-56475000D03*
X175250000Y-66800000D03*
%TO.N,I2C1_SDA*%
X174400000Y-67420000D03*
X159475000Y-64850000D03*
X174425000Y-56525000D03*
%TO.N,TIM2_CH4*%
X167250000Y-81125000D03*
X156725000Y-83500000D03*
%TO.N,SWCLK*%
X193075000Y-70775000D03*
X179800000Y-65200000D03*
%TO.N,SWDIO*%
X188850000Y-75700000D03*
X192975000Y-71825000D03*
X182475000Y-72975000D03*
%TO.N,SDIO_D3*%
X177225000Y-67725000D03*
%TO.N,SDIO_SCK*%
X176511258Y-70611258D03*
%TO.N,SDIO_D1*%
X178287927Y-75236828D03*
X177800000Y-63750000D03*
%TO.N,SDIO_D2*%
X170060000Y-67500000D03*
X177887500Y-70662500D03*
X172600000Y-67525000D03*
%TO.N,SDIO_D0*%
X178320000Y-76030000D03*
X167960000Y-69200000D03*
%TO.N,ADC1_IN4*%
X172859500Y-82648874D03*
X164100000Y-90375000D03*
X168984000Y-88785002D03*
X158679076Y-84350000D03*
%TO.N,ADC1_IN11*%
X171167523Y-75494603D03*
X157675000Y-75575000D03*
%TO.N,USB_D_P*%
X190500000Y-76300000D03*
D12*
X180275000Y-66300000D03*
D13*
%TO.N,USB_D_N*%
X178750000Y-73925000D03*
%TO.N,BMI088_INT3_GYRO*%
X161720000Y-81950000D03*
X163900000Y-76025000D03*
X170780000Y-72750000D03*
%TO.N,BMI088_INT1_ACCEL*%
X162230000Y-81580000D03*
X165188000Y-71913000D03*
%TO.N,BMI088_GYRO_CS*%
X178050000Y-77953803D03*
X168500000Y-83975000D03*
%TO.N,BMI088_ACCEL_CS*%
X179300000Y-77750000D03*
X162400000Y-85600000D03*
X162950000Y-81420000D03*
%TO.N,BMI088_INT2_ACCEL*%
X165720000Y-79940000D03*
X165726711Y-72539999D03*
%TO.N,BMI088_INT4_GYRO*%
X159900000Y-85650000D03*
X159225000Y-82375000D03*
X170875000Y-74750000D03*
%TO.N,ICM42688_INT1_DRDY*%
X183700000Y-90365000D03*
X177575000Y-66975000D03*
%TO.N,ICM42688_INT2_FIFO*%
X177200000Y-66150000D03*
X180875000Y-85175000D03*
%TO.N,ICM42688_CS*%
X176055000Y-83351735D03*
X174752805Y-79127057D03*
%TO.N,SPI1_MOSI*%
X188952984Y-63140999D03*
X175600000Y-78600000D03*
X178950000Y-89760000D03*
X174745000Y-83105000D03*
X176656554Y-82524000D03*
%TO.N,SPI1_MISO*%
X175097400Y-91097400D03*
X180600000Y-81750000D03*
X174930000Y-85480000D03*
X174127000Y-82525000D03*
X193100000Y-63725000D03*
%TO.N,SPI1_SCK*%
X173250000Y-78800000D03*
X180075000Y-80325000D03*
X189034026Y-64349999D03*
%TO.N,SDIO_CMD*%
X172460000Y-66440000D03*
X171000000Y-71325000D03*
%TO.N,OSD_CS*%
X177930000Y-72560000D03*
%TO.N,FRAM_CS*%
X178720679Y-74751824D03*
X163450000Y-69300000D03*
%TD*%
%TA.AperFunction,Conductor*%
%TO.N,GND*%
G36*
X196455858Y-50085086D02*
G01*
X196455874Y-50085089D01*
X196455891Y-50085086D01*
X196457723Y-50085087D01*
X196475583Y-50085096D01*
X196475682Y-50085169D01*
X196497078Y-50085108D01*
X196497404Y-50085109D01*
X196503452Y-50085259D01*
X196850620Y-50102410D01*
X196863474Y-50103721D01*
X197203768Y-50156456D01*
X197216406Y-50159095D01*
X197549376Y-50247006D01*
X197561672Y-50250949D01*
X197883662Y-50373072D01*
X197895483Y-50378277D01*
X198013222Y-50437625D01*
X198202973Y-50533272D01*
X198214207Y-50539690D01*
X198503881Y-50725886D01*
X198514384Y-50733440D01*
X198783065Y-50948791D01*
X198792724Y-50957397D01*
X198939402Y-51102514D01*
X199037514Y-51199581D01*
X199046224Y-51209147D01*
X199264455Y-51475527D01*
X199272117Y-51485945D01*
X199461398Y-51773603D01*
X199467929Y-51784756D01*
X199552595Y-51948341D01*
X199626208Y-52090569D01*
X199631548Y-52102354D01*
X199757103Y-52423002D01*
X199761185Y-52435279D01*
X199852644Y-52767251D01*
X199855425Y-52779886D01*
X199911799Y-53119588D01*
X199913247Y-53132443D01*
X199914633Y-53155470D01*
X199934079Y-53478836D01*
X199934303Y-53486308D01*
X199924510Y-96466993D01*
X199924510Y-96466996D01*
X199924505Y-96485351D01*
X199924500Y-96485360D01*
X199924500Y-96506686D01*
X199924499Y-96506689D01*
X199924332Y-96513112D01*
X199906348Y-96858001D01*
X199905005Y-96870845D01*
X199851753Y-97208797D01*
X199849081Y-97221432D01*
X199760969Y-97552005D01*
X199756998Y-97564293D01*
X199634982Y-97883915D01*
X199629754Y-97895724D01*
X199475158Y-98200918D01*
X199468730Y-98212120D01*
X199283224Y-98499587D01*
X199275666Y-98510058D01*
X199061277Y-98776663D01*
X199052671Y-98786292D01*
X198811712Y-99029157D01*
X198802151Y-99037839D01*
X198537238Y-99254327D01*
X198526820Y-99261971D01*
X198516493Y-99268750D01*
X198512243Y-99271418D01*
X198049993Y-99548768D01*
X198043099Y-99552612D01*
X197925719Y-99613238D01*
X197913949Y-99618560D01*
X197868893Y-99636167D01*
X197855710Y-99640485D01*
X197193078Y-99817188D01*
X197167026Y-99821235D01*
X196658169Y-99845466D01*
X196652346Y-99845606D01*
X155530267Y-99870605D01*
X153540325Y-99870605D01*
X153520345Y-99868985D01*
X152326937Y-99674143D01*
X152286126Y-99659838D01*
X151517228Y-99227333D01*
X151495068Y-99211426D01*
X151409050Y-99134010D01*
X151013040Y-98777601D01*
X150998777Y-98762408D01*
X150947806Y-98698023D01*
X165490300Y-98698023D01*
X165490300Y-98851977D01*
X165530147Y-99000686D01*
X165530148Y-99000689D01*
X165551597Y-99037839D01*
X165607124Y-99134014D01*
X165715986Y-99242876D01*
X165809702Y-99296983D01*
X165849310Y-99319851D01*
X165849311Y-99319851D01*
X165849314Y-99319853D01*
X165998023Y-99359700D01*
X165998026Y-99359700D01*
X166151974Y-99359700D01*
X166151977Y-99359700D01*
X166300686Y-99319853D01*
X166434014Y-99242876D01*
X166542876Y-99134014D01*
X166619853Y-99000686D01*
X166659700Y-98851977D01*
X166659700Y-98698023D01*
X166619853Y-98549314D01*
X166545494Y-98420521D01*
X178146300Y-98420521D01*
X178146300Y-98579479D01*
X178187441Y-98733019D01*
X178266920Y-98870680D01*
X178379320Y-98983080D01*
X178516981Y-99062559D01*
X178670521Y-99103700D01*
X178670523Y-99103700D01*
X178829476Y-99103700D01*
X178829479Y-99103700D01*
X178983019Y-99062559D01*
X179120680Y-98983080D01*
X179233080Y-98870680D01*
X179312559Y-98733019D01*
X179353700Y-98579479D01*
X179353700Y-98420521D01*
X179312559Y-98266981D01*
X179241302Y-98143561D01*
X180521300Y-98143561D01*
X180521300Y-98256438D01*
X180550515Y-98365473D01*
X180578735Y-98414350D01*
X180606955Y-98463228D01*
X180686772Y-98543045D01*
X180784528Y-98599485D01*
X180893561Y-98628700D01*
X180893563Y-98628700D01*
X181006437Y-98628700D01*
X181006439Y-98628700D01*
X181115472Y-98599485D01*
X181213228Y-98543045D01*
X181293045Y-98463228D01*
X181349485Y-98365472D01*
X181378700Y-98256439D01*
X181378700Y-98143561D01*
X181349485Y-98034528D01*
X181293045Y-97936772D01*
X181213228Y-97856955D01*
X181164350Y-97828735D01*
X181115473Y-97800515D01*
X181060955Y-97785907D01*
X181006439Y-97771300D01*
X180893561Y-97771300D01*
X180784526Y-97800515D01*
X180686772Y-97856955D01*
X180686769Y-97856957D01*
X180606957Y-97936769D01*
X180606955Y-97936772D01*
X180550515Y-98034526D01*
X180521300Y-98143561D01*
X179241302Y-98143561D01*
X179233080Y-98129320D01*
X179120680Y-98016920D01*
X178983019Y-97937441D01*
X178829479Y-97896300D01*
X178670521Y-97896300D01*
X178516981Y-97937441D01*
X178516979Y-97937441D01*
X178516979Y-97937442D01*
X178379320Y-98016920D01*
X178379317Y-98016922D01*
X178266922Y-98129317D01*
X178266920Y-98129320D01*
X178193529Y-98256437D01*
X178187441Y-98266981D01*
X178146300Y-98420521D01*
X166545494Y-98420521D01*
X166542876Y-98415986D01*
X166434014Y-98307124D01*
X166394402Y-98284254D01*
X166300689Y-98230148D01*
X166300690Y-98230148D01*
X166273390Y-98222833D01*
X166151977Y-98190300D01*
X165998023Y-98190300D01*
X165876610Y-98222833D01*
X165849310Y-98230148D01*
X165715989Y-98307122D01*
X165715983Y-98307126D01*
X165607126Y-98415983D01*
X165607122Y-98415989D01*
X165530148Y-98549310D01*
X165530147Y-98549314D01*
X165490300Y-98698023D01*
X150947806Y-98698023D01*
X150540512Y-98183547D01*
X150523764Y-98155431D01*
X150308034Y-97652063D01*
X150303245Y-97638866D01*
X150110242Y-96995521D01*
X161021300Y-96995521D01*
X161021300Y-97154479D01*
X161062441Y-97308019D01*
X161141920Y-97445680D01*
X161254320Y-97558080D01*
X161391981Y-97637559D01*
X161545521Y-97678700D01*
X161545523Y-97678700D01*
X161704476Y-97678700D01*
X161704479Y-97678700D01*
X161858019Y-97637559D01*
X161995680Y-97558080D01*
X162108080Y-97445680D01*
X162187559Y-97308019D01*
X162228700Y-97154479D01*
X162228700Y-97103561D01*
X169421300Y-97103561D01*
X169421300Y-97216439D01*
X169435907Y-97270955D01*
X169450515Y-97325473D01*
X169462959Y-97347026D01*
X169506955Y-97423228D01*
X169586772Y-97503045D01*
X169671428Y-97551922D01*
X169682397Y-97558255D01*
X169684528Y-97559485D01*
X169793561Y-97588700D01*
X169793563Y-97588700D01*
X169906437Y-97588700D01*
X169906439Y-97588700D01*
X170015472Y-97559485D01*
X170113228Y-97503045D01*
X170160212Y-97456061D01*
X181433800Y-97456061D01*
X181433800Y-97568938D01*
X181463015Y-97677973D01*
X181463435Y-97678700D01*
X181519455Y-97775728D01*
X181599272Y-97855545D01*
X181697028Y-97911985D01*
X181806061Y-97941200D01*
X181806063Y-97941200D01*
X181918937Y-97941200D01*
X181918939Y-97941200D01*
X182027972Y-97911985D01*
X182125728Y-97855545D01*
X182205545Y-97775728D01*
X182261985Y-97677972D01*
X182291200Y-97568939D01*
X182291200Y-97456061D01*
X182261985Y-97347028D01*
X182205545Y-97249272D01*
X182125728Y-97169455D01*
X182076850Y-97141235D01*
X182027973Y-97113015D01*
X181973455Y-97098407D01*
X181918939Y-97083800D01*
X181806061Y-97083800D01*
X181697026Y-97113015D01*
X181599272Y-97169455D01*
X181599269Y-97169457D01*
X181519457Y-97249269D01*
X181519455Y-97249272D01*
X181463015Y-97347026D01*
X181433800Y-97456061D01*
X170160212Y-97456061D01*
X170193045Y-97423228D01*
X170249485Y-97325472D01*
X170278700Y-97216439D01*
X170278700Y-97103561D01*
X170249485Y-96994528D01*
X170193045Y-96896772D01*
X170113228Y-96816955D01*
X170045857Y-96778058D01*
X170015473Y-96760515D01*
X169960955Y-96745907D01*
X169906439Y-96731300D01*
X169793561Y-96731300D01*
X169684526Y-96760515D01*
X169586772Y-96816955D01*
X169586769Y-96816957D01*
X169506957Y-96896769D01*
X169506955Y-96896772D01*
X169450515Y-96994526D01*
X169436319Y-97047509D01*
X169421300Y-97103561D01*
X162228700Y-97103561D01*
X162228700Y-96995521D01*
X162187559Y-96841981D01*
X162108080Y-96704320D01*
X161995680Y-96591920D01*
X161858019Y-96512441D01*
X161704479Y-96471300D01*
X161545521Y-96471300D01*
X161391981Y-96512441D01*
X161391979Y-96512441D01*
X161391979Y-96512442D01*
X161254320Y-96591920D01*
X161254317Y-96591922D01*
X161141922Y-96704317D01*
X161141920Y-96704320D01*
X161062441Y-96841981D01*
X161021300Y-96995521D01*
X150110242Y-96995521D01*
X150083891Y-96907685D01*
X150079151Y-96883050D01*
X150076574Y-96854061D01*
X150076340Y-96850952D01*
X150056380Y-96528388D01*
X150056144Y-96520621D01*
X150056182Y-96478700D01*
X150056216Y-96441310D01*
X151796299Y-96441310D01*
X151830627Y-96569422D01*
X151830628Y-96569423D01*
X151896937Y-96684275D01*
X151896939Y-96684278D01*
X151896940Y-96684279D01*
X151990721Y-96778060D01*
X152105579Y-96844373D01*
X152233687Y-96878700D01*
X152233690Y-96878700D01*
X152366310Y-96878700D01*
X152366313Y-96878700D01*
X152494421Y-96844373D01*
X152609279Y-96778060D01*
X152703060Y-96684279D01*
X152769373Y-96569421D01*
X152803700Y-96441313D01*
X152803700Y-96308687D01*
X152769569Y-96181310D01*
X158546299Y-96181310D01*
X158580627Y-96309422D01*
X158580628Y-96309423D01*
X158646937Y-96424275D01*
X158646939Y-96424278D01*
X158646940Y-96424279D01*
X158740721Y-96518060D01*
X158740722Y-96518061D01*
X158740724Y-96518062D01*
X158758615Y-96528391D01*
X158855579Y-96584373D01*
X158983687Y-96618700D01*
X158983690Y-96618700D01*
X159116310Y-96618700D01*
X159116313Y-96618700D01*
X159244421Y-96584373D01*
X159359279Y-96518060D01*
X159453060Y-96424279D01*
X159519373Y-96309421D01*
X159553700Y-96181313D01*
X159553700Y-96048687D01*
X159551723Y-96041310D01*
X173321299Y-96041310D01*
X173355627Y-96169422D01*
X173355628Y-96169423D01*
X173421937Y-96284275D01*
X173421939Y-96284278D01*
X173421940Y-96284279D01*
X173515721Y-96378060D01*
X173630579Y-96444373D01*
X173758687Y-96478700D01*
X173758690Y-96478700D01*
X173891310Y-96478700D01*
X173891313Y-96478700D01*
X174019421Y-96444373D01*
X174134279Y-96378060D01*
X174228060Y-96284279D01*
X174294373Y-96169421D01*
X174328700Y-96041313D01*
X174328700Y-95908687D01*
X174294373Y-95780579D01*
X174228060Y-95665721D01*
X174134279Y-95571940D01*
X174134278Y-95571939D01*
X174134275Y-95571937D01*
X174019423Y-95505628D01*
X174019422Y-95505627D01*
X173987394Y-95497045D01*
X173891313Y-95471300D01*
X173758687Y-95471300D01*
X173681822Y-95491896D01*
X173630577Y-95505627D01*
X173630576Y-95505628D01*
X173515724Y-95571937D01*
X173515719Y-95571941D01*
X173421941Y-95665719D01*
X173421937Y-95665724D01*
X173355628Y-95780576D01*
X173355627Y-95780577D01*
X173348890Y-95805721D01*
X173321300Y-95908687D01*
X173321300Y-95908689D01*
X173321300Y-96041310D01*
X173321299Y-96041310D01*
X159551723Y-96041310D01*
X159519373Y-95920579D01*
X159453060Y-95805721D01*
X159359279Y-95711940D01*
X159359278Y-95711939D01*
X159359275Y-95711937D01*
X159244423Y-95645628D01*
X159244422Y-95645627D01*
X159212394Y-95637045D01*
X159116313Y-95611300D01*
X158983687Y-95611300D01*
X158906822Y-95631896D01*
X158855577Y-95645627D01*
X158855576Y-95645628D01*
X158740724Y-95711937D01*
X158740719Y-95711941D01*
X158646941Y-95805719D01*
X158646937Y-95805724D01*
X158580628Y-95920576D01*
X158580627Y-95920577D01*
X158566865Y-95971937D01*
X158546300Y-96048687D01*
X158546300Y-96048689D01*
X158546300Y-96181310D01*
X158546299Y-96181310D01*
X152769569Y-96181310D01*
X152769373Y-96180579D01*
X152703060Y-96065721D01*
X152609279Y-95971940D01*
X152609278Y-95971939D01*
X152609275Y-95971937D01*
X152494423Y-95905628D01*
X152494422Y-95905627D01*
X152462394Y-95897045D01*
X152366313Y-95871300D01*
X152233687Y-95871300D01*
X152156822Y-95891896D01*
X152105577Y-95905627D01*
X152105576Y-95905628D01*
X151990724Y-95971937D01*
X151990719Y-95971941D01*
X151896941Y-96065719D01*
X151896937Y-96065724D01*
X151830628Y-96180576D01*
X151830627Y-96180577D01*
X151830431Y-96181310D01*
X151796300Y-96308687D01*
X151796300Y-96308689D01*
X151796300Y-96441310D01*
X151796299Y-96441310D01*
X150056216Y-96441310D01*
X150057040Y-95524655D01*
X150057073Y-95522033D01*
X150074646Y-94795605D01*
X150074646Y-93395521D01*
X172046300Y-93395521D01*
X172046300Y-93554479D01*
X172087441Y-93708019D01*
X172166920Y-93845680D01*
X172279320Y-93958080D01*
X172416981Y-94037559D01*
X172570521Y-94078700D01*
X172570523Y-94078700D01*
X172729476Y-94078700D01*
X172729479Y-94078700D01*
X172883019Y-94037559D01*
X173020680Y-93958080D01*
X173133080Y-93845680D01*
X173212559Y-93708019D01*
X173253700Y-93554479D01*
X173253700Y-93395521D01*
X173251824Y-93388521D01*
X174621300Y-93388521D01*
X174621300Y-93547479D01*
X174662441Y-93701019D01*
X174741920Y-93838680D01*
X174854320Y-93951080D01*
X174991981Y-94030559D01*
X175145521Y-94071700D01*
X175145523Y-94071700D01*
X175304476Y-94071700D01*
X175304479Y-94071700D01*
X175458019Y-94030559D01*
X175595680Y-93951080D01*
X175708080Y-93838680D01*
X175760421Y-93748023D01*
X184340300Y-93748023D01*
X184340300Y-93901977D01*
X184374754Y-94030559D01*
X184380148Y-94050689D01*
X184434254Y-94144402D01*
X184457124Y-94184014D01*
X184565986Y-94292876D01*
X184659702Y-94346983D01*
X184699310Y-94369851D01*
X184699311Y-94369851D01*
X184699314Y-94369853D01*
X184848023Y-94409700D01*
X184848026Y-94409700D01*
X185001974Y-94409700D01*
X185001977Y-94409700D01*
X185150686Y-94369853D01*
X185284014Y-94292876D01*
X185392876Y-94184014D01*
X185469853Y-94050686D01*
X185509700Y-93901977D01*
X185509700Y-93748023D01*
X185469853Y-93599314D01*
X185392876Y-93465986D01*
X185284014Y-93357124D01*
X185244402Y-93334254D01*
X185150689Y-93280148D01*
X185150690Y-93280148D01*
X185138494Y-93276880D01*
X185001977Y-93240300D01*
X184848023Y-93240300D01*
X184711505Y-93276880D01*
X184699310Y-93280148D01*
X184565989Y-93357122D01*
X184565983Y-93357126D01*
X184457126Y-93465983D01*
X184457122Y-93465989D01*
X184380148Y-93599310D01*
X184380147Y-93599314D01*
X184340300Y-93748023D01*
X175760421Y-93748023D01*
X175787559Y-93701019D01*
X175828700Y-93547479D01*
X175828700Y-93388521D01*
X175787559Y-93234981D01*
X175708080Y-93097320D01*
X175595680Y-92984920D01*
X175458019Y-92905441D01*
X175304479Y-92864300D01*
X175145521Y-92864300D01*
X174991981Y-92905441D01*
X174991979Y-92905441D01*
X174991979Y-92905442D01*
X174854320Y-92984920D01*
X174854317Y-92984922D01*
X174741922Y-93097317D01*
X174741920Y-93097320D01*
X174662441Y-93234981D01*
X174621300Y-93388521D01*
X173251824Y-93388521D01*
X173212559Y-93241981D01*
X173133080Y-93104320D01*
X173020680Y-92991920D01*
X172883019Y-92912441D01*
X172729479Y-92871300D01*
X172570521Y-92871300D01*
X172416981Y-92912441D01*
X172416979Y-92912441D01*
X172416979Y-92912442D01*
X172279320Y-92991920D01*
X172279317Y-92991922D01*
X172166922Y-93104317D01*
X172166920Y-93104320D01*
X172088412Y-93240300D01*
X172087441Y-93241981D01*
X172046300Y-93395521D01*
X150074646Y-93395521D01*
X150074646Y-90591310D01*
X152096299Y-90591310D01*
X152130627Y-90719422D01*
X152130628Y-90719423D01*
X152196937Y-90834275D01*
X152196939Y-90834278D01*
X152196940Y-90834279D01*
X152290721Y-90928060D01*
X152290722Y-90928061D01*
X152290724Y-90928062D01*
X152348150Y-90961216D01*
X152405579Y-90994373D01*
X152533687Y-91028700D01*
X152533690Y-91028700D01*
X152666310Y-91028700D01*
X152666313Y-91028700D01*
X152794421Y-90994373D01*
X152909279Y-90928060D01*
X153003060Y-90834279D01*
X153069373Y-90719421D01*
X153103700Y-90591313D01*
X153103700Y-90458687D01*
X153069373Y-90330579D01*
X153062434Y-90318561D01*
X163671300Y-90318561D01*
X163671300Y-90431438D01*
X163700515Y-90540473D01*
X163728735Y-90589350D01*
X163756955Y-90638228D01*
X163836772Y-90718045D01*
X163934528Y-90774485D01*
X164043561Y-90803700D01*
X164043563Y-90803700D01*
X164156437Y-90803700D01*
X164156439Y-90803700D01*
X164265472Y-90774485D01*
X164363228Y-90718045D01*
X164443045Y-90638228D01*
X164467701Y-90595523D01*
X167715300Y-90595523D01*
X167715300Y-90749477D01*
X167755147Y-90898186D01*
X167755148Y-90898189D01*
X167797090Y-90970834D01*
X167832124Y-91031514D01*
X167940986Y-91140376D01*
X168034702Y-91194483D01*
X168074310Y-91217351D01*
X168074311Y-91217351D01*
X168074314Y-91217353D01*
X168223023Y-91257200D01*
X168223026Y-91257200D01*
X168376974Y-91257200D01*
X168376977Y-91257200D01*
X168525686Y-91217353D01*
X168659014Y-91140376D01*
X168758429Y-91040961D01*
X174668700Y-91040961D01*
X174668700Y-91153838D01*
X174697915Y-91262873D01*
X174726135Y-91311750D01*
X174754355Y-91360628D01*
X174834172Y-91440445D01*
X174931928Y-91496885D01*
X175040961Y-91526100D01*
X175040963Y-91526100D01*
X175153837Y-91526100D01*
X175153839Y-91526100D01*
X175262872Y-91496885D01*
X175360628Y-91440445D01*
X175440445Y-91360628D01*
X175496885Y-91262872D01*
X175526100Y-91153839D01*
X175526100Y-91040961D01*
X175496885Y-90931928D01*
X175440445Y-90834172D01*
X175360628Y-90754355D01*
X175280416Y-90708044D01*
X175262873Y-90697915D01*
X175208355Y-90683307D01*
X175153839Y-90668700D01*
X175040961Y-90668700D01*
X174931926Y-90697915D01*
X174834172Y-90754355D01*
X174834169Y-90754357D01*
X174754357Y-90834169D01*
X174754355Y-90834172D01*
X174697915Y-90931926D01*
X174668700Y-91040961D01*
X168758429Y-91040961D01*
X168767876Y-91031514D01*
X168844853Y-90898186D01*
X168884700Y-90749477D01*
X168884700Y-90595523D01*
X168844853Y-90446814D01*
X168767876Y-90313486D01*
X168762951Y-90308561D01*
X183271300Y-90308561D01*
X183271300Y-90421439D01*
X183281281Y-90458689D01*
X183300515Y-90530473D01*
X183306289Y-90540473D01*
X183356955Y-90628228D01*
X183436772Y-90708045D01*
X183534528Y-90764485D01*
X183643561Y-90793700D01*
X183643563Y-90793700D01*
X183756437Y-90793700D01*
X183756439Y-90793700D01*
X183865472Y-90764485D01*
X183963228Y-90708045D01*
X184043045Y-90628228D01*
X184099485Y-90530472D01*
X184128700Y-90421439D01*
X184128700Y-90308561D01*
X184099485Y-90199528D01*
X184043045Y-90101772D01*
X183963228Y-90021955D01*
X183914350Y-89993735D01*
X183865473Y-89965515D01*
X183810955Y-89950907D01*
X183756439Y-89936300D01*
X183643561Y-89936300D01*
X183534526Y-89965515D01*
X183436772Y-90021955D01*
X183436769Y-90021957D01*
X183356957Y-90101769D01*
X183356955Y-90101772D01*
X183300515Y-90199526D01*
X183291534Y-90233045D01*
X183271300Y-90308561D01*
X168762951Y-90308561D01*
X168659014Y-90204624D01*
X168617504Y-90180658D01*
X168525689Y-90127648D01*
X168525690Y-90127648D01*
X168504376Y-90121937D01*
X168376977Y-90087800D01*
X168223023Y-90087800D01*
X168095624Y-90121937D01*
X168074310Y-90127648D01*
X167940989Y-90204622D01*
X167940983Y-90204626D01*
X167832126Y-90313483D01*
X167832122Y-90313489D01*
X167755148Y-90446810D01*
X167755147Y-90446814D01*
X167715300Y-90595523D01*
X164467701Y-90595523D01*
X164499485Y-90540472D01*
X164528700Y-90431439D01*
X164528700Y-90425106D01*
X164532358Y-90411186D01*
X164546520Y-90387695D01*
X164557614Y-90362619D01*
X164564298Y-90358209D01*
X164568434Y-90351351D01*
X164593042Y-90339249D01*
X164615938Y-90324147D01*
X164627178Y-90322462D01*
X164631133Y-90320518D01*
X164636244Y-90321104D01*
X164652287Y-90318700D01*
X164731437Y-90318700D01*
X164731439Y-90318700D01*
X164840472Y-90289485D01*
X164938228Y-90233045D01*
X165018045Y-90153228D01*
X165074485Y-90055472D01*
X165103700Y-89946439D01*
X165103700Y-89833561D01*
X165074485Y-89724528D01*
X165062380Y-89703561D01*
X178521300Y-89703561D01*
X178521300Y-89816438D01*
X178550515Y-89925473D01*
X178559395Y-89940853D01*
X178606955Y-90023228D01*
X178686772Y-90103045D01*
X178784528Y-90159485D01*
X178893561Y-90188700D01*
X178893563Y-90188700D01*
X179006436Y-90188700D01*
X179006439Y-90188700D01*
X179115472Y-90159485D01*
X179213228Y-90103045D01*
X179293045Y-90023228D01*
X179349485Y-89925472D01*
X179378700Y-89816439D01*
X179378700Y-89703561D01*
X179349485Y-89594528D01*
X179293045Y-89496772D01*
X179213228Y-89416955D01*
X179164350Y-89388735D01*
X179115473Y-89360515D01*
X179060955Y-89345907D01*
X179006439Y-89331300D01*
X178893561Y-89331300D01*
X178784526Y-89360515D01*
X178686772Y-89416955D01*
X178686769Y-89416957D01*
X178606957Y-89496769D01*
X178606955Y-89496772D01*
X178550515Y-89594526D01*
X178521300Y-89703561D01*
X165062380Y-89703561D01*
X165018045Y-89626772D01*
X164938228Y-89546955D01*
X164889350Y-89518735D01*
X164840473Y-89490515D01*
X164785955Y-89475907D01*
X164731439Y-89461300D01*
X164618561Y-89461300D01*
X164509526Y-89490515D01*
X164411772Y-89546955D01*
X164411769Y-89546957D01*
X164331957Y-89626769D01*
X164331955Y-89626772D01*
X164275515Y-89724526D01*
X164246299Y-89833563D01*
X164245652Y-89838484D01*
X164217386Y-89902381D01*
X164159062Y-89940853D01*
X164122713Y-89946300D01*
X164043561Y-89946300D01*
X163934526Y-89975515D01*
X163836772Y-90031955D01*
X163836769Y-90031957D01*
X163756957Y-90111769D01*
X163756955Y-90111772D01*
X163700515Y-90209526D01*
X163671300Y-90318561D01*
X153062434Y-90318561D01*
X153013062Y-90233045D01*
X153003062Y-90215724D01*
X153003058Y-90215719D01*
X152909280Y-90121941D01*
X152909275Y-90121937D01*
X152794423Y-90055628D01*
X152794422Y-90055627D01*
X152762394Y-90047045D01*
X152666313Y-90021300D01*
X152533687Y-90021300D01*
X152456822Y-90041896D01*
X152405577Y-90055627D01*
X152405576Y-90055628D01*
X152290724Y-90121937D01*
X152290719Y-90121941D01*
X152196941Y-90215719D01*
X152196937Y-90215724D01*
X152130628Y-90330576D01*
X152130627Y-90330577D01*
X152115323Y-90387695D01*
X152096300Y-90458687D01*
X152096300Y-90458689D01*
X152096300Y-90591310D01*
X152096299Y-90591310D01*
X150074646Y-90591310D01*
X150074646Y-88728563D01*
X168555300Y-88728563D01*
X168555300Y-88841440D01*
X168584515Y-88950475D01*
X168612735Y-88999352D01*
X168640955Y-89048230D01*
X168720772Y-89128047D01*
X168818528Y-89184487D01*
X168927561Y-89213702D01*
X168927563Y-89213702D01*
X169040437Y-89213702D01*
X169040439Y-89213702D01*
X169149472Y-89184487D01*
X169247228Y-89128047D01*
X169327045Y-89048230D01*
X169383485Y-88950474D01*
X169412700Y-88841441D01*
X169412700Y-88728563D01*
X169383485Y-88619530D01*
X169327045Y-88521774D01*
X169247228Y-88441957D01*
X169187897Y-88407702D01*
X169149473Y-88385517D01*
X169094955Y-88370909D01*
X169040439Y-88356302D01*
X168927561Y-88356302D01*
X168818526Y-88385517D01*
X168720772Y-88441957D01*
X168720769Y-88441959D01*
X168640957Y-88521771D01*
X168640955Y-88521774D01*
X168584515Y-88619528D01*
X168555300Y-88728563D01*
X150074646Y-88728563D01*
X150074646Y-87970312D01*
X172867297Y-87970312D01*
X172901625Y-88098424D01*
X172901626Y-88098425D01*
X172967935Y-88213277D01*
X172967937Y-88213280D01*
X172967938Y-88213281D01*
X173061719Y-88307062D01*
X173176577Y-88373375D01*
X173304685Y-88407702D01*
X173304688Y-88407702D01*
X173437308Y-88407702D01*
X173437311Y-88407702D01*
X173565419Y-88373375D01*
X173680277Y-88307062D01*
X173774058Y-88213281D01*
X173840371Y-88098423D01*
X173874698Y-87970315D01*
X173874698Y-87837689D01*
X173840371Y-87709581D01*
X173774058Y-87594723D01*
X173680277Y-87500942D01*
X173680276Y-87500941D01*
X173680273Y-87500939D01*
X173565421Y-87434630D01*
X173565420Y-87434629D01*
X173533392Y-87426047D01*
X173437311Y-87400302D01*
X173304685Y-87400302D01*
X173227820Y-87420898D01*
X173176575Y-87434629D01*
X173176574Y-87434630D01*
X173061722Y-87500939D01*
X173061717Y-87500943D01*
X172967939Y-87594721D01*
X172967935Y-87594726D01*
X172901626Y-87709578D01*
X172901625Y-87709579D01*
X172884461Y-87773635D01*
X172867298Y-87837689D01*
X172867298Y-87837691D01*
X172867298Y-87970312D01*
X172867297Y-87970312D01*
X150074646Y-87970312D01*
X150074646Y-86568561D01*
X162846300Y-86568561D01*
X162846300Y-86681438D01*
X162875515Y-86790473D01*
X162899085Y-86831296D01*
X162931955Y-86888228D01*
X163011772Y-86968045D01*
X163109528Y-87024485D01*
X163218561Y-87053700D01*
X163218563Y-87053700D01*
X163331437Y-87053700D01*
X163331439Y-87053700D01*
X163440472Y-87024485D01*
X163538228Y-86968045D01*
X163618045Y-86888228D01*
X163674485Y-86790472D01*
X163703700Y-86681439D01*
X163703700Y-86568561D01*
X163674485Y-86459528D01*
X163618045Y-86361772D01*
X163538228Y-86281955D01*
X163464667Y-86239484D01*
X163440473Y-86225515D01*
X163377090Y-86208532D01*
X163331439Y-86196300D01*
X163218561Y-86196300D01*
X163109526Y-86225515D01*
X163011772Y-86281955D01*
X163011769Y-86281957D01*
X162931957Y-86361769D01*
X162931955Y-86361772D01*
X162875515Y-86459526D01*
X162846300Y-86568561D01*
X150074646Y-86568561D01*
X150074646Y-85593561D01*
X159471300Y-85593561D01*
X159471300Y-85706439D01*
X159481158Y-85743230D01*
X159500515Y-85815473D01*
X159504887Y-85823045D01*
X159556955Y-85913228D01*
X159636772Y-85993045D01*
X159734528Y-86049485D01*
X159843561Y-86078700D01*
X159843563Y-86078700D01*
X159956437Y-86078700D01*
X159956439Y-86078700D01*
X160065472Y-86049485D01*
X160163228Y-85993045D01*
X160243045Y-85913228D01*
X160299485Y-85815472D01*
X160328700Y-85706439D01*
X160328700Y-85593561D01*
X160315303Y-85543561D01*
X161971300Y-85543561D01*
X161971300Y-85656439D01*
X161976147Y-85674528D01*
X162000515Y-85765473D01*
X162010960Y-85783563D01*
X162056955Y-85863228D01*
X162136772Y-85943045D01*
X162201867Y-85980628D01*
X162223368Y-85993042D01*
X162234528Y-85999485D01*
X162343561Y-86028700D01*
X162343563Y-86028700D01*
X162456437Y-86028700D01*
X162456439Y-86028700D01*
X162565472Y-85999485D01*
X162663228Y-85943045D01*
X162743045Y-85863228D01*
X162789041Y-85783561D01*
X166751300Y-85783561D01*
X166751300Y-85896438D01*
X166780515Y-86005473D01*
X166792176Y-86025669D01*
X166836955Y-86103228D01*
X166916772Y-86183045D01*
X167014528Y-86239485D01*
X167123561Y-86268700D01*
X167123563Y-86268700D01*
X167236437Y-86268700D01*
X167236439Y-86268700D01*
X167345472Y-86239485D01*
X167399084Y-86208531D01*
X167466982Y-86192058D01*
X167533009Y-86214909D01*
X167576201Y-86269829D01*
X167582844Y-86339383D01*
X167580859Y-86348010D01*
X167571300Y-86383684D01*
X167571300Y-86516310D01*
X167571299Y-86516310D01*
X167605627Y-86644422D01*
X167605628Y-86644423D01*
X167671937Y-86759275D01*
X167671939Y-86759278D01*
X167671940Y-86759279D01*
X167765721Y-86853060D01*
X167765722Y-86853061D01*
X167765724Y-86853062D01*
X167774414Y-86858079D01*
X167880579Y-86919373D01*
X168008687Y-86953700D01*
X168008690Y-86953700D01*
X168141310Y-86953700D01*
X168141313Y-86953700D01*
X168240569Y-86927104D01*
X184796300Y-86927104D01*
X184796300Y-87072896D01*
X184824600Y-87178514D01*
X184834034Y-87213721D01*
X184834035Y-87213722D01*
X184906927Y-87339976D01*
X184906929Y-87339979D01*
X184906930Y-87339980D01*
X185010020Y-87443070D01*
X185136280Y-87515966D01*
X185277104Y-87553700D01*
X185277107Y-87553700D01*
X185422893Y-87553700D01*
X185422896Y-87553700D01*
X185563720Y-87515966D01*
X185689980Y-87443070D01*
X185793070Y-87339980D01*
X185865966Y-87213720D01*
X185903700Y-87072896D01*
X185903700Y-86927104D01*
X185865966Y-86786280D01*
X185793070Y-86660020D01*
X185689980Y-86556930D01*
X185689979Y-86556929D01*
X185689976Y-86556927D01*
X185563722Y-86484035D01*
X185563721Y-86484034D01*
X185528514Y-86474600D01*
X185422896Y-86446300D01*
X185277104Y-86446300D01*
X185192609Y-86468940D01*
X185136278Y-86484034D01*
X185136277Y-86484035D01*
X185010023Y-86556927D01*
X185010018Y-86556931D01*
X184906931Y-86660018D01*
X184906927Y-86660023D01*
X184834035Y-86786277D01*
X184834034Y-86786278D01*
X184832910Y-86790473D01*
X184796300Y-86927104D01*
X168240569Y-86927104D01*
X168269421Y-86919373D01*
X168384279Y-86853060D01*
X168478060Y-86759279D01*
X168544373Y-86644421D01*
X168578700Y-86516313D01*
X168578700Y-86383687D01*
X168555076Y-86295521D01*
X187046300Y-86295521D01*
X187046300Y-86454479D01*
X187087441Y-86608019D01*
X187166920Y-86745680D01*
X187279320Y-86858080D01*
X187416981Y-86937559D01*
X187570521Y-86978700D01*
X187570523Y-86978700D01*
X187729476Y-86978700D01*
X187729479Y-86978700D01*
X187883019Y-86937559D01*
X188020680Y-86858080D01*
X188133080Y-86745680D01*
X188212559Y-86608019D01*
X188253700Y-86454479D01*
X188253700Y-86295521D01*
X188212559Y-86141981D01*
X188133080Y-86004320D01*
X188020680Y-85891920D01*
X187883019Y-85812441D01*
X187729479Y-85771300D01*
X187570521Y-85771300D01*
X187416981Y-85812441D01*
X187416979Y-85812441D01*
X187416979Y-85812442D01*
X187279320Y-85891920D01*
X187279317Y-85891922D01*
X187166922Y-86004317D01*
X187166920Y-86004320D01*
X187088170Y-86140719D01*
X187087441Y-86141981D01*
X187046300Y-86295521D01*
X168555076Y-86295521D01*
X168544373Y-86255579D01*
X168502494Y-86183042D01*
X168478062Y-86140724D01*
X168478058Y-86140719D01*
X168384280Y-86046941D01*
X168384275Y-86046937D01*
X168269423Y-85980628D01*
X168269422Y-85980627D01*
X168232549Y-85970747D01*
X168141313Y-85946300D01*
X168008687Y-85946300D01*
X167917451Y-85970747D01*
X167880578Y-85980627D01*
X167791510Y-86032050D01*
X167723609Y-86048521D01*
X167657583Y-86025669D01*
X167614393Y-85970747D01*
X167608072Y-85904552D01*
X167607639Y-85904495D01*
X167607887Y-85902609D01*
X167607752Y-85901194D01*
X167608504Y-85897925D01*
X167608700Y-85896437D01*
X167608700Y-85783563D01*
X167608700Y-85783561D01*
X167579485Y-85674528D01*
X167523045Y-85576772D01*
X167443228Y-85496955D01*
X167394350Y-85468735D01*
X167345473Y-85440515D01*
X167290955Y-85425907D01*
X167236439Y-85411300D01*
X167123561Y-85411300D01*
X167014526Y-85440515D01*
X166916772Y-85496955D01*
X166916769Y-85496957D01*
X166836957Y-85576769D01*
X166836955Y-85576772D01*
X166780515Y-85674526D01*
X166751300Y-85783561D01*
X162789041Y-85783561D01*
X162799485Y-85765472D01*
X162802432Y-85754470D01*
X162805416Y-85743339D01*
X162812390Y-85717306D01*
X162828700Y-85656439D01*
X162828700Y-85543561D01*
X162799485Y-85434528D01*
X162743045Y-85336772D01*
X162663228Y-85256955D01*
X162614350Y-85228735D01*
X162565473Y-85200515D01*
X162510955Y-85185907D01*
X162456439Y-85171300D01*
X162343561Y-85171300D01*
X162234526Y-85200515D01*
X162136772Y-85256955D01*
X162136769Y-85256957D01*
X162056957Y-85336769D01*
X162056955Y-85336772D01*
X162000515Y-85434526D01*
X161983788Y-85496955D01*
X161971300Y-85543561D01*
X160315303Y-85543561D01*
X160299485Y-85484528D01*
X160243045Y-85386772D01*
X160163228Y-85306955D01*
X160114350Y-85278735D01*
X160065473Y-85250515D01*
X160010955Y-85235907D01*
X159956439Y-85221300D01*
X159843561Y-85221300D01*
X159734526Y-85250515D01*
X159636772Y-85306955D01*
X159636769Y-85306957D01*
X159556957Y-85386769D01*
X159556955Y-85386772D01*
X159500515Y-85484526D01*
X159471300Y-85593561D01*
X150074646Y-85593561D01*
X150074646Y-84293561D01*
X158250376Y-84293561D01*
X158250376Y-84406438D01*
X158279591Y-84515473D01*
X158304354Y-84558362D01*
X158336031Y-84613228D01*
X158415848Y-84693045D01*
X158513604Y-84749485D01*
X158622637Y-84778700D01*
X158622639Y-84778700D01*
X158735513Y-84778700D01*
X158735515Y-84778700D01*
X158844548Y-84749485D01*
X158942304Y-84693045D01*
X159022121Y-84613228D01*
X159034653Y-84591523D01*
X161348338Y-84591523D01*
X161348338Y-84704400D01*
X161377553Y-84813435D01*
X161388246Y-84831955D01*
X161433993Y-84911190D01*
X161513810Y-84991007D01*
X161611566Y-85047447D01*
X161720599Y-85076662D01*
X161720601Y-85076662D01*
X161833475Y-85076662D01*
X161833477Y-85076662D01*
X161942510Y-85047447D01*
X162040266Y-84991007D01*
X162120083Y-84911190D01*
X162176523Y-84813434D01*
X162205738Y-84704401D01*
X162205738Y-84591523D01*
X162176523Y-84482490D01*
X162120083Y-84384734D01*
X162040266Y-84304917D01*
X161991388Y-84276697D01*
X161942511Y-84248477D01*
X161887993Y-84233869D01*
X161833477Y-84219262D01*
X161720599Y-84219262D01*
X161611564Y-84248477D01*
X161513810Y-84304917D01*
X161513807Y-84304919D01*
X161433995Y-84384731D01*
X161433993Y-84384734D01*
X161377553Y-84482488D01*
X161348338Y-84591523D01*
X159034653Y-84591523D01*
X159078561Y-84515472D01*
X159107776Y-84406439D01*
X159107776Y-84293561D01*
X159078561Y-84184528D01*
X159022121Y-84086772D01*
X158942304Y-84006955D01*
X158854809Y-83956439D01*
X158844549Y-83950515D01*
X158790031Y-83935907D01*
X158735515Y-83921300D01*
X158622637Y-83921300D01*
X158513602Y-83950515D01*
X158415848Y-84006955D01*
X158415845Y-84006957D01*
X158336033Y-84086769D01*
X158336031Y-84086772D01*
X158279591Y-84184526D01*
X158250376Y-84293561D01*
X150074646Y-84293561D01*
X150074646Y-83443561D01*
X156296300Y-83443561D01*
X156296300Y-83556439D01*
X156310907Y-83610955D01*
X156325515Y-83665473D01*
X156342436Y-83694780D01*
X156381955Y-83763228D01*
X156461772Y-83843045D01*
X156559528Y-83899485D01*
X156668561Y-83928700D01*
X156668563Y-83928700D01*
X156781437Y-83928700D01*
X156781439Y-83928700D01*
X156890472Y-83899485D01*
X156988228Y-83843045D01*
X157062712Y-83768561D01*
X165146300Y-83768561D01*
X165146300Y-83881439D01*
X165156247Y-83918561D01*
X165175515Y-83990473D01*
X165203735Y-84039350D01*
X165231955Y-84088228D01*
X165311772Y-84168045D01*
X165409528Y-84224485D01*
X165518561Y-84253700D01*
X165518563Y-84253700D01*
X165631437Y-84253700D01*
X165631439Y-84253700D01*
X165740472Y-84224485D01*
X165838228Y-84168045D01*
X165918045Y-84088228D01*
X165974485Y-83990472D01*
X166003700Y-83881439D01*
X166003700Y-83768561D01*
X165974485Y-83659528D01*
X165918045Y-83561772D01*
X165838228Y-83481955D01*
X165770445Y-83442820D01*
X165770443Y-83442818D01*
X165740477Y-83425517D01*
X165740474Y-83425516D01*
X165740473Y-83425515D01*
X165740472Y-83425515D01*
X165631439Y-83396300D01*
X165518561Y-83396300D01*
X165409526Y-83425515D01*
X165311772Y-83481955D01*
X165311769Y-83481957D01*
X165231957Y-83561769D01*
X165231955Y-83561772D01*
X165175515Y-83659526D01*
X165155419Y-83734528D01*
X165146300Y-83768561D01*
X157062712Y-83768561D01*
X157068045Y-83763228D01*
X157074978Y-83751220D01*
X157105456Y-83698433D01*
X157124483Y-83665475D01*
X157124485Y-83665472D01*
X157153700Y-83556439D01*
X157153700Y-83443561D01*
X157126905Y-83343561D01*
X167411300Y-83343561D01*
X167411300Y-83456439D01*
X167424174Y-83504485D01*
X167440515Y-83565473D01*
X167442796Y-83569423D01*
X167496955Y-83663228D01*
X167576772Y-83743045D01*
X167674528Y-83799485D01*
X167783561Y-83828700D01*
X167783563Y-83828700D01*
X167896436Y-83828700D01*
X167896439Y-83828700D01*
X167915207Y-83823671D01*
X167985053Y-83825332D01*
X168042917Y-83864493D01*
X168070423Y-83928721D01*
X168071300Y-83943445D01*
X168071300Y-84031438D01*
X168100515Y-84140473D01*
X168116434Y-84168044D01*
X168156955Y-84238228D01*
X168156957Y-84238230D01*
X168212573Y-84293846D01*
X168246058Y-84355169D01*
X168241074Y-84424861D01*
X168199202Y-84480794D01*
X168169483Y-84495239D01*
X168170086Y-84496695D01*
X168162576Y-84499805D01*
X168047724Y-84566114D01*
X168047719Y-84566118D01*
X167953941Y-84659896D01*
X167953937Y-84659901D01*
X167887628Y-84774753D01*
X167887627Y-84774754D01*
X167886570Y-84778699D01*
X167853300Y-84902864D01*
X167853300Y-84902866D01*
X167853300Y-85035487D01*
X167853299Y-85035487D01*
X167887627Y-85163599D01*
X167887628Y-85163600D01*
X167953937Y-85278452D01*
X167953939Y-85278455D01*
X167953940Y-85278456D01*
X168047721Y-85372237D01*
X168162579Y-85438550D01*
X168290687Y-85472877D01*
X168290690Y-85472877D01*
X168423310Y-85472877D01*
X168423313Y-85472877D01*
X168551421Y-85438550D01*
X168577383Y-85423561D01*
X174501300Y-85423561D01*
X174501300Y-85536439D01*
X174503209Y-85543563D01*
X174530515Y-85645473D01*
X174558735Y-85694350D01*
X174586955Y-85743228D01*
X174666772Y-85823045D01*
X174764528Y-85879485D01*
X174873561Y-85908700D01*
X174873563Y-85908700D01*
X174986437Y-85908700D01*
X174986439Y-85908700D01*
X175095472Y-85879485D01*
X175193228Y-85823045D01*
X175273045Y-85743228D01*
X175329485Y-85645472D01*
X175358700Y-85536439D01*
X175358700Y-85423561D01*
X175329485Y-85314528D01*
X175273045Y-85216772D01*
X175193228Y-85136955D01*
X175161369Y-85118561D01*
X180446300Y-85118561D01*
X180446300Y-85231439D01*
X180458897Y-85278452D01*
X180475515Y-85340473D01*
X180493855Y-85372237D01*
X180531955Y-85438228D01*
X180611772Y-85518045D01*
X180696428Y-85566922D01*
X180697476Y-85567527D01*
X180709528Y-85574485D01*
X180818561Y-85603700D01*
X180818563Y-85603700D01*
X180931437Y-85603700D01*
X180931439Y-85603700D01*
X181040472Y-85574485D01*
X181138228Y-85518045D01*
X181218045Y-85438228D01*
X181274485Y-85340472D01*
X181303700Y-85231439D01*
X181303700Y-85118561D01*
X181274485Y-85009528D01*
X181218045Y-84911772D01*
X181138228Y-84831955D01*
X181045989Y-84778700D01*
X181040473Y-84775515D01*
X180985955Y-84760907D01*
X180931439Y-84746300D01*
X180818561Y-84746300D01*
X180709526Y-84775515D01*
X180611772Y-84831955D01*
X180611769Y-84831957D01*
X180531957Y-84911769D01*
X180531955Y-84911772D01*
X180475515Y-85009526D01*
X180456494Y-85080515D01*
X180446300Y-85118561D01*
X175161369Y-85118561D01*
X175144350Y-85108735D01*
X175095473Y-85080515D01*
X175040955Y-85065907D01*
X174986439Y-85051300D01*
X174873561Y-85051300D01*
X174764526Y-85080515D01*
X174666772Y-85136955D01*
X174666769Y-85136957D01*
X174586957Y-85216769D01*
X174586955Y-85216772D01*
X174530515Y-85314526D01*
X174511158Y-85386769D01*
X174501300Y-85423561D01*
X168577383Y-85423561D01*
X168666279Y-85372237D01*
X168760060Y-85278456D01*
X168826373Y-85163598D01*
X168860700Y-85035490D01*
X168860700Y-84902864D01*
X168826373Y-84774756D01*
X168760060Y-84659898D01*
X168666279Y-84566117D01*
X168660532Y-84560370D01*
X168662539Y-84558362D01*
X168629447Y-84513043D01*
X168625293Y-84443297D01*
X168659506Y-84382377D01*
X168684136Y-84363709D01*
X168763228Y-84318045D01*
X168843045Y-84238228D01*
X168899485Y-84140472D01*
X168928700Y-84031439D01*
X168928700Y-83918561D01*
X168899485Y-83809528D01*
X168843045Y-83711772D01*
X168763228Y-83631955D01*
X168714350Y-83603735D01*
X168665473Y-83575515D01*
X168596204Y-83556955D01*
X168556439Y-83546300D01*
X168443561Y-83546300D01*
X168443559Y-83546300D01*
X168424792Y-83551329D01*
X168354943Y-83549666D01*
X168297080Y-83510503D01*
X168269577Y-83446274D01*
X168268700Y-83431554D01*
X168268700Y-83343563D01*
X168268700Y-83343561D01*
X168239485Y-83234528D01*
X168183045Y-83136772D01*
X168103228Y-83056955D01*
X168054350Y-83028735D01*
X168005473Y-83000515D01*
X167946565Y-82984731D01*
X167896439Y-82971300D01*
X167783561Y-82971300D01*
X167674526Y-83000515D01*
X167576772Y-83056955D01*
X167576769Y-83056957D01*
X167496957Y-83136769D01*
X167496955Y-83136772D01*
X167440515Y-83234526D01*
X167426988Y-83285011D01*
X167411300Y-83343561D01*
X157126905Y-83343561D01*
X157124485Y-83334528D01*
X157068045Y-83236772D01*
X156988228Y-83156955D01*
X156918978Y-83116973D01*
X156890473Y-83100515D01*
X156804850Y-83077573D01*
X156781439Y-83071300D01*
X156668561Y-83071300D01*
X156559526Y-83100515D01*
X156461772Y-83156955D01*
X156461769Y-83156957D01*
X156381957Y-83236769D01*
X156381955Y-83236772D01*
X156325515Y-83334526D01*
X156313679Y-83378700D01*
X156296300Y-83443561D01*
X150074646Y-83443561D01*
X150074646Y-82318561D01*
X158796300Y-82318561D01*
X158796300Y-82431439D01*
X158797182Y-82434731D01*
X158825515Y-82540473D01*
X158850337Y-82583465D01*
X158881955Y-82638228D01*
X158961772Y-82718045D01*
X159059528Y-82774485D01*
X159168561Y-82803700D01*
X159168563Y-82803700D01*
X159281437Y-82803700D01*
X159281439Y-82803700D01*
X159390472Y-82774485D01*
X159488228Y-82718045D01*
X159568045Y-82638228D01*
X159624485Y-82540472D01*
X159630959Y-82516310D01*
X160321299Y-82516310D01*
X160355627Y-82644422D01*
X160355628Y-82644423D01*
X160421937Y-82759275D01*
X160421939Y-82759278D01*
X160421940Y-82759279D01*
X160515721Y-82853060D01*
X160515722Y-82853061D01*
X160515724Y-82853062D01*
X160541674Y-82868044D01*
X160630579Y-82919373D01*
X160758687Y-82953700D01*
X160758690Y-82953700D01*
X160891310Y-82953700D01*
X160891313Y-82953700D01*
X161019421Y-82919373D01*
X161134279Y-82853060D01*
X161197082Y-82790257D01*
X170619097Y-82790257D01*
X170619097Y-82903135D01*
X170632378Y-82952700D01*
X170648312Y-83012169D01*
X170669207Y-83048359D01*
X170704752Y-83109924D01*
X170784569Y-83189741D01*
X170862138Y-83234526D01*
X170876891Y-83243044D01*
X170882325Y-83246181D01*
X170991358Y-83275396D01*
X170991360Y-83275396D01*
X171104234Y-83275396D01*
X171104236Y-83275396D01*
X171213269Y-83246181D01*
X171311025Y-83189741D01*
X171390842Y-83109924D01*
X171447282Y-83012168D01*
X171476497Y-82903135D01*
X171476497Y-82790257D01*
X171447282Y-82681224D01*
X171447281Y-82681222D01*
X171447281Y-82681221D01*
X171427124Y-82646310D01*
X171427123Y-82646308D01*
X171421617Y-82636772D01*
X171396019Y-82592435D01*
X172430800Y-82592435D01*
X172430800Y-82705313D01*
X172442741Y-82749878D01*
X172460015Y-82814347D01*
X172482367Y-82853060D01*
X172516455Y-82912102D01*
X172596272Y-82991919D01*
X172694028Y-83048359D01*
X172803061Y-83077574D01*
X172803063Y-83077574D01*
X172915937Y-83077574D01*
X172915939Y-83077574D01*
X173024972Y-83048359D01*
X173122728Y-82991919D01*
X173202545Y-82912102D01*
X173258985Y-82814346D01*
X173288200Y-82705313D01*
X173288200Y-82592435D01*
X173258985Y-82483402D01*
X173250416Y-82468561D01*
X173698300Y-82468561D01*
X173698300Y-82581439D01*
X173701247Y-82592437D01*
X173727515Y-82690473D01*
X173743434Y-82718044D01*
X173783955Y-82788228D01*
X173863772Y-82868045D01*
X173940080Y-82912102D01*
X173959016Y-82923035D01*
X173961528Y-82924485D01*
X174070561Y-82953700D01*
X174070563Y-82953700D01*
X174191566Y-82953700D01*
X174191566Y-82957083D01*
X174245095Y-82965404D01*
X174297373Y-83011758D01*
X174316300Y-83077603D01*
X174316300Y-83161439D01*
X174324439Y-83191814D01*
X174345515Y-83270473D01*
X174367579Y-83308687D01*
X174401955Y-83368228D01*
X174481772Y-83448045D01*
X174579528Y-83504485D01*
X174688561Y-83533700D01*
X174688563Y-83533700D01*
X174801437Y-83533700D01*
X174801439Y-83533700D01*
X174910472Y-83504485D01*
X175008228Y-83448045D01*
X175088045Y-83368228D01*
X175130153Y-83295296D01*
X175626300Y-83295296D01*
X175626300Y-83408174D01*
X175636983Y-83448044D01*
X175655515Y-83517208D01*
X175678165Y-83556437D01*
X175711955Y-83614963D01*
X175791772Y-83694780D01*
X175889528Y-83751220D01*
X175998561Y-83780435D01*
X175998563Y-83780435D01*
X176111437Y-83780435D01*
X176111439Y-83780435D01*
X176220472Y-83751220D01*
X176318228Y-83694780D01*
X176398045Y-83614963D01*
X176454485Y-83517207D01*
X176483700Y-83408174D01*
X176483700Y-83295296D01*
X176454485Y-83186263D01*
X176417986Y-83123046D01*
X176401514Y-83055148D01*
X176424366Y-82989121D01*
X176479287Y-82945930D01*
X176548840Y-82939288D01*
X176557444Y-82941266D01*
X176600115Y-82952700D01*
X176600118Y-82952700D01*
X176712991Y-82952700D01*
X176712993Y-82952700D01*
X176822026Y-82923485D01*
X176919782Y-82867045D01*
X176999599Y-82787228D01*
X177052502Y-82695599D01*
X179323338Y-82695599D01*
X179323338Y-82808477D01*
X179332259Y-82841772D01*
X179352553Y-82917511D01*
X179373658Y-82954064D01*
X179408993Y-83015266D01*
X179488810Y-83095083D01*
X179586566Y-83151523D01*
X179695599Y-83180738D01*
X179695601Y-83180738D01*
X179816604Y-83180738D01*
X179816604Y-83182685D01*
X179875148Y-83191814D01*
X179927405Y-83238193D01*
X179946300Y-83303988D01*
X179946300Y-83441310D01*
X179946299Y-83441310D01*
X179980627Y-83569422D01*
X179980628Y-83569423D01*
X180046937Y-83684275D01*
X180046939Y-83684278D01*
X180046940Y-83684279D01*
X180140721Y-83778060D01*
X180140722Y-83778061D01*
X180140724Y-83778062D01*
X180177830Y-83799485D01*
X180255579Y-83844373D01*
X180383687Y-83878700D01*
X180383690Y-83878700D01*
X180516310Y-83878700D01*
X180516313Y-83878700D01*
X180644421Y-83844373D01*
X180645827Y-83843561D01*
X185971300Y-83843561D01*
X185971300Y-83956438D01*
X186000515Y-84065473D01*
X186013653Y-84088228D01*
X186056955Y-84163228D01*
X186136772Y-84243045D01*
X186234528Y-84299485D01*
X186343561Y-84328700D01*
X186343563Y-84328700D01*
X186456437Y-84328700D01*
X186456439Y-84328700D01*
X186565472Y-84299485D01*
X186663228Y-84243045D01*
X186743045Y-84163228D01*
X186799485Y-84065472D01*
X186828700Y-83956439D01*
X186828700Y-83843561D01*
X186799485Y-83734528D01*
X186743045Y-83636772D01*
X186663228Y-83556955D01*
X186614350Y-83528735D01*
X186565473Y-83500515D01*
X186496204Y-83481955D01*
X186456439Y-83471300D01*
X186343561Y-83471300D01*
X186234526Y-83500515D01*
X186136772Y-83556955D01*
X186136769Y-83556957D01*
X186056957Y-83636769D01*
X186056955Y-83636772D01*
X186000515Y-83734526D01*
X185971300Y-83843561D01*
X180645827Y-83843561D01*
X180759279Y-83778060D01*
X180853060Y-83684279D01*
X180919373Y-83569421D01*
X180953700Y-83441313D01*
X180953700Y-83308687D01*
X180919373Y-83180579D01*
X180916716Y-83175977D01*
X180882651Y-83116973D01*
X180882650Y-83116972D01*
X180853062Y-83065724D01*
X180853058Y-83065719D01*
X180850438Y-83063099D01*
X181630838Y-83063099D01*
X181630838Y-83175977D01*
X181638233Y-83203577D01*
X181660053Y-83285011D01*
X181668410Y-83299485D01*
X181716493Y-83382766D01*
X181796310Y-83462583D01*
X181862010Y-83500515D01*
X181890920Y-83517207D01*
X181894066Y-83519023D01*
X182003099Y-83548238D01*
X182003101Y-83548238D01*
X182115975Y-83548238D01*
X182115977Y-83548238D01*
X182225010Y-83519023D01*
X182322766Y-83462583D01*
X182402583Y-83382766D01*
X182459023Y-83285010D01*
X182488238Y-83175977D01*
X182488238Y-83160571D01*
X182507923Y-83093532D01*
X182560727Y-83047777D01*
X182629885Y-83037833D01*
X182693441Y-83066858D01*
X182719624Y-83098570D01*
X182756955Y-83163228D01*
X182836772Y-83243045D01*
X182914722Y-83288050D01*
X182927272Y-83295296D01*
X182934528Y-83299485D01*
X183043561Y-83328700D01*
X183043563Y-83328700D01*
X183156437Y-83328700D01*
X183156439Y-83328700D01*
X183265472Y-83299485D01*
X183363228Y-83243045D01*
X183443045Y-83163228D01*
X183499485Y-83065472D01*
X183528700Y-82956439D01*
X183528700Y-82843561D01*
X183499485Y-82734528D01*
X183443045Y-82636772D01*
X183363228Y-82556955D01*
X183314350Y-82528735D01*
X183265473Y-82500515D01*
X183201597Y-82483400D01*
X183156439Y-82471300D01*
X183043561Y-82471300D01*
X182934526Y-82500515D01*
X182836772Y-82556955D01*
X182836769Y-82556957D01*
X182756957Y-82636769D01*
X182756955Y-82636772D01*
X182700515Y-82734526D01*
X182671300Y-82843561D01*
X182671300Y-82858966D01*
X182651615Y-82926005D01*
X182598811Y-82971760D01*
X182529653Y-82981704D01*
X182466097Y-82952679D01*
X182439913Y-82920967D01*
X182434794Y-82912101D01*
X182402583Y-82856310D01*
X182322766Y-82776493D01*
X182273888Y-82748273D01*
X182225011Y-82720053D01*
X182169992Y-82705311D01*
X182115977Y-82690838D01*
X182003099Y-82690838D01*
X181894064Y-82720053D01*
X181796310Y-82776493D01*
X181796307Y-82776495D01*
X181716495Y-82856307D01*
X181716493Y-82856310D01*
X181660053Y-82954064D01*
X181634733Y-83048561D01*
X181630838Y-83063099D01*
X180850438Y-83063099D01*
X180759280Y-82971941D01*
X180759275Y-82971937D01*
X180644423Y-82905628D01*
X180644422Y-82905627D01*
X180612394Y-82897045D01*
X180516313Y-82871300D01*
X180383687Y-82871300D01*
X180336831Y-82883855D01*
X180266981Y-82882192D01*
X180209119Y-82843029D01*
X180181615Y-82778800D01*
X180180738Y-82764080D01*
X180180738Y-82695601D01*
X180180738Y-82695599D01*
X180151523Y-82586566D01*
X180095083Y-82488810D01*
X180015266Y-82408993D01*
X179966388Y-82380773D01*
X179917511Y-82352553D01*
X179862993Y-82337945D01*
X179808477Y-82323338D01*
X179695599Y-82323338D01*
X179586564Y-82352553D01*
X179488810Y-82408993D01*
X179488807Y-82408995D01*
X179408995Y-82488807D01*
X179408993Y-82488810D01*
X179352553Y-82586564D01*
X179324980Y-82689472D01*
X179323338Y-82695599D01*
X177052502Y-82695599D01*
X177056039Y-82689472D01*
X177085254Y-82580439D01*
X177085254Y-82467561D01*
X177056039Y-82358528D01*
X176999599Y-82260772D01*
X176919782Y-82180955D01*
X176850101Y-82140724D01*
X176822027Y-82124515D01*
X176767509Y-82109907D01*
X176712993Y-82095300D01*
X176600115Y-82095300D01*
X176491080Y-82124515D01*
X176393326Y-82180955D01*
X176393323Y-82180957D01*
X176313511Y-82260769D01*
X176313509Y-82260772D01*
X176257069Y-82358526D01*
X176236651Y-82434728D01*
X176227854Y-82467561D01*
X176227854Y-82580439D01*
X176256157Y-82686069D01*
X176257070Y-82689474D01*
X176257070Y-82689475D01*
X176293566Y-82752687D01*
X176310039Y-82820587D01*
X176287187Y-82886614D01*
X176232266Y-82929804D01*
X176162712Y-82936446D01*
X176154087Y-82934462D01*
X176111440Y-82923035D01*
X176111439Y-82923035D01*
X175998561Y-82923035D01*
X175889526Y-82952250D01*
X175791772Y-83008690D01*
X175791769Y-83008692D01*
X175711957Y-83088504D01*
X175711955Y-83088507D01*
X175655515Y-83186261D01*
X175632951Y-83270473D01*
X175626300Y-83295296D01*
X175130153Y-83295296D01*
X175144485Y-83270472D01*
X175173700Y-83161439D01*
X175173700Y-83048561D01*
X175144485Y-82939528D01*
X175144346Y-82939288D01*
X175131773Y-82917510D01*
X175088045Y-82841772D01*
X175008228Y-82761955D01*
X174935786Y-82720130D01*
X174910473Y-82705515D01*
X174850609Y-82689475D01*
X174801439Y-82676300D01*
X174688561Y-82676300D01*
X174680434Y-82676300D01*
X174680434Y-82672942D01*
X174626755Y-82664525D01*
X174574538Y-82618100D01*
X174555700Y-82552396D01*
X174555700Y-82468563D01*
X174555700Y-82468561D01*
X174526485Y-82359528D01*
X174525906Y-82358526D01*
X174505590Y-82323338D01*
X174470045Y-82261772D01*
X174390228Y-82181955D01*
X174318815Y-82140724D01*
X174292473Y-82125515D01*
X174237955Y-82110907D01*
X174183439Y-82096300D01*
X174070561Y-82096300D01*
X173961526Y-82125515D01*
X173863772Y-82181955D01*
X173863769Y-82181957D01*
X173783957Y-82261769D01*
X173783955Y-82261772D01*
X173727515Y-82359526D01*
X173704021Y-82447211D01*
X173698300Y-82468561D01*
X173250416Y-82468561D01*
X173202545Y-82385646D01*
X173122728Y-82305829D01*
X173069544Y-82275123D01*
X173024973Y-82249389D01*
X172970455Y-82234781D01*
X172915939Y-82220174D01*
X172803061Y-82220174D01*
X172694026Y-82249389D01*
X172596272Y-82305829D01*
X172596269Y-82305831D01*
X172516457Y-82385643D01*
X172516455Y-82385646D01*
X172460015Y-82483400D01*
X172434014Y-82580439D01*
X172430800Y-82592435D01*
X171396019Y-82592435D01*
X171390842Y-82583468D01*
X171311025Y-82503651D01*
X171250657Y-82468797D01*
X171213270Y-82447211D01*
X171143725Y-82428577D01*
X171104236Y-82417996D01*
X170991358Y-82417996D01*
X170882323Y-82447211D01*
X170784569Y-82503651D01*
X170784566Y-82503653D01*
X170704754Y-82583465D01*
X170704752Y-82583468D01*
X170648312Y-82681222D01*
X170627397Y-82759279D01*
X170619097Y-82790257D01*
X161197082Y-82790257D01*
X161228060Y-82759279D01*
X161251867Y-82718045D01*
X161273126Y-82681222D01*
X161294373Y-82644421D01*
X161328700Y-82516313D01*
X161328700Y-82433877D01*
X161348385Y-82366838D01*
X161401189Y-82321083D01*
X161470347Y-82311139D01*
X161514702Y-82326491D01*
X161554525Y-82349484D01*
X161554527Y-82349484D01*
X161554528Y-82349485D01*
X161663561Y-82378700D01*
X161663563Y-82378700D01*
X161776437Y-82378700D01*
X161776439Y-82378700D01*
X161885472Y-82349485D01*
X161983228Y-82293045D01*
X162063045Y-82213228D01*
X162119485Y-82115472D01*
X162123469Y-82100605D01*
X162159834Y-82040945D01*
X162222681Y-82010417D01*
X162243243Y-82008700D01*
X162286437Y-82008700D01*
X162286439Y-82008700D01*
X162395472Y-81979485D01*
X162493228Y-81923045D01*
X162573045Y-81843228D01*
X162574192Y-81841240D01*
X162575597Y-81839900D01*
X162577993Y-81836779D01*
X162578479Y-81837152D01*
X162624750Y-81793023D01*
X162693356Y-81779792D01*
X162743583Y-81795845D01*
X162756004Y-81803016D01*
X162784525Y-81819484D01*
X162784527Y-81819484D01*
X162784528Y-81819485D01*
X162893561Y-81848700D01*
X162893563Y-81848700D01*
X163006437Y-81848700D01*
X163006439Y-81848700D01*
X163115472Y-81819485D01*
X163213228Y-81763045D01*
X163282712Y-81693561D01*
X180171300Y-81693561D01*
X180171300Y-81806439D01*
X180181158Y-81843230D01*
X180200515Y-81915473D01*
X180217367Y-81944661D01*
X180256955Y-82013228D01*
X180336772Y-82093045D01*
X180434528Y-82149485D01*
X180543561Y-82178700D01*
X180543563Y-82178700D01*
X180656437Y-82178700D01*
X180656439Y-82178700D01*
X180765472Y-82149485D01*
X180863228Y-82093045D01*
X180866004Y-82090269D01*
X187996300Y-82090269D01*
X187996300Y-82209731D01*
X188027219Y-82325122D01*
X188086950Y-82428578D01*
X188171422Y-82513050D01*
X188256122Y-82561952D01*
X188264682Y-82566894D01*
X188312897Y-82617462D01*
X188326119Y-82686069D01*
X188310070Y-82736279D01*
X188309048Y-82738050D01*
X188302219Y-82749878D01*
X188271300Y-82865269D01*
X188271300Y-82984731D01*
X188302219Y-83100122D01*
X188361950Y-83203578D01*
X188446422Y-83288050D01*
X188549878Y-83347781D01*
X188665269Y-83378700D01*
X188665271Y-83378700D01*
X188784728Y-83378700D01*
X188784731Y-83378700D01*
X188900122Y-83347781D01*
X189003578Y-83288050D01*
X189088050Y-83203578D01*
X189147781Y-83100122D01*
X189167726Y-83025686D01*
X189204090Y-82966027D01*
X189266937Y-82935498D01*
X189336312Y-82943793D01*
X189390190Y-82988278D01*
X189407273Y-83025684D01*
X189427219Y-83100122D01*
X189486950Y-83203578D01*
X189571422Y-83288050D01*
X189674878Y-83347781D01*
X189790269Y-83378700D01*
X189790271Y-83378700D01*
X189909728Y-83378700D01*
X189909731Y-83378700D01*
X190025122Y-83347781D01*
X190128578Y-83288050D01*
X190213050Y-83203578D01*
X190272781Y-83100122D01*
X190303700Y-82984731D01*
X190303700Y-82945560D01*
X190323385Y-82878521D01*
X190376189Y-82832766D01*
X190395598Y-82825788D01*
X190500122Y-82797781D01*
X190603578Y-82738050D01*
X190688050Y-82653578D01*
X190747781Y-82550122D01*
X190778700Y-82434731D01*
X190778700Y-82315269D01*
X190747781Y-82199878D01*
X190688050Y-82096422D01*
X190603578Y-82011950D01*
X190500122Y-81952219D01*
X190384731Y-81921300D01*
X190265269Y-81921300D01*
X190265265Y-81921300D01*
X190259537Y-81922054D01*
X190190502Y-81911288D01*
X190138247Y-81864907D01*
X190135967Y-81861115D01*
X190113052Y-81821425D01*
X190113047Y-81821419D01*
X190028580Y-81736952D01*
X190028578Y-81736950D01*
X189925122Y-81677219D01*
X189809731Y-81646300D01*
X189690269Y-81646300D01*
X189574878Y-81677219D01*
X189574876Y-81677219D01*
X189574876Y-81677220D01*
X189471422Y-81736950D01*
X189471419Y-81736952D01*
X189386952Y-81821419D01*
X189386950Y-81821422D01*
X189328407Y-81922821D01*
X189327219Y-81924878D01*
X189296300Y-82040269D01*
X189296300Y-82159731D01*
X189327219Y-82275122D01*
X189386950Y-82378578D01*
X189386952Y-82378580D01*
X189471422Y-82463050D01*
X189471792Y-82463334D01*
X189472024Y-82463652D01*
X189477169Y-82468797D01*
X189476366Y-82469599D01*
X189512993Y-82519764D01*
X189517145Y-82589510D01*
X189490005Y-82638524D01*
X189491897Y-82639976D01*
X189486950Y-82646422D01*
X189434049Y-82738049D01*
X189427219Y-82749878D01*
X189407273Y-82824313D01*
X189370910Y-82883972D01*
X189308063Y-82914501D01*
X189238687Y-82906206D01*
X189184809Y-82861721D01*
X189167726Y-82824315D01*
X189147781Y-82749878D01*
X189088050Y-82646422D01*
X189003578Y-82561950D01*
X188918880Y-82513049D01*
X188910317Y-82508105D01*
X188862102Y-82457537D01*
X188848880Y-82388930D01*
X188864932Y-82338716D01*
X188872781Y-82325122D01*
X188903700Y-82209731D01*
X188903700Y-82090269D01*
X188872781Y-81974878D01*
X188813050Y-81871422D01*
X188728578Y-81786950D01*
X188625122Y-81727219D01*
X188509731Y-81696300D01*
X188390269Y-81696300D01*
X188274878Y-81727219D01*
X188274876Y-81727219D01*
X188274876Y-81727220D01*
X188171422Y-81786950D01*
X188171419Y-81786952D01*
X188086952Y-81871419D01*
X188086950Y-81871422D01*
X188027219Y-81974878D01*
X187996300Y-82090269D01*
X180866004Y-82090269D01*
X180943045Y-82013228D01*
X180999485Y-81915472D01*
X181028700Y-81806439D01*
X181028700Y-81693561D01*
X180999485Y-81584528D01*
X180943045Y-81486772D01*
X180863228Y-81406955D01*
X180788072Y-81363563D01*
X180765473Y-81350515D01*
X180681675Y-81328062D01*
X180656439Y-81321300D01*
X180543561Y-81321300D01*
X180434526Y-81350515D01*
X180336772Y-81406955D01*
X180336769Y-81406957D01*
X180256957Y-81486769D01*
X180256955Y-81486772D01*
X180200515Y-81584526D01*
X180174071Y-81683221D01*
X180171300Y-81693561D01*
X163282712Y-81693561D01*
X163293045Y-81683228D01*
X163314366Y-81646300D01*
X163327569Y-81623433D01*
X163349483Y-81585475D01*
X163349485Y-81585472D01*
X163378700Y-81476439D01*
X163378700Y-81363561D01*
X163349485Y-81254528D01*
X163293045Y-81156772D01*
X163213228Y-81076955D01*
X163164350Y-81048735D01*
X163115473Y-81020515D01*
X163053232Y-81003838D01*
X163006439Y-80991300D01*
X162893561Y-80991300D01*
X162784526Y-81020515D01*
X162686772Y-81076955D01*
X162686769Y-81076957D01*
X162606957Y-81156769D01*
X162606953Y-81156775D01*
X162605802Y-81158769D01*
X162604390Y-81160114D01*
X162602007Y-81163221D01*
X162601522Y-81162849D01*
X162555234Y-81206984D01*
X162486627Y-81220205D01*
X162436416Y-81204154D01*
X162395472Y-81180515D01*
X162286439Y-81151300D01*
X162173561Y-81151300D01*
X162064526Y-81180515D01*
X161966772Y-81236955D01*
X161966769Y-81236957D01*
X161886957Y-81316769D01*
X161886955Y-81316772D01*
X161830514Y-81414528D01*
X161830514Y-81414529D01*
X161826531Y-81429395D01*
X161790166Y-81489055D01*
X161727319Y-81519583D01*
X161706757Y-81521300D01*
X161663561Y-81521300D01*
X161554526Y-81550515D01*
X161456772Y-81606955D01*
X161456769Y-81606957D01*
X161376957Y-81686769D01*
X161376955Y-81686772D01*
X161320515Y-81784526D01*
X161291300Y-81893561D01*
X161291300Y-81922821D01*
X161271615Y-81989860D01*
X161218811Y-82035615D01*
X161149653Y-82045559D01*
X161105301Y-82030209D01*
X161019421Y-81980627D01*
X161019422Y-81980627D01*
X160987394Y-81972045D01*
X160891313Y-81946300D01*
X160758687Y-81946300D01*
X160681822Y-81966896D01*
X160630577Y-81980627D01*
X160630576Y-81980628D01*
X160515724Y-82046937D01*
X160515719Y-82046941D01*
X160421941Y-82140719D01*
X160421937Y-82140724D01*
X160355628Y-82255576D01*
X160355627Y-82255577D01*
X160345588Y-82293044D01*
X160321300Y-82383687D01*
X160321300Y-82383689D01*
X160321300Y-82516310D01*
X160321299Y-82516310D01*
X159630959Y-82516310D01*
X159653700Y-82431439D01*
X159653700Y-82318561D01*
X159624485Y-82209528D01*
X159568045Y-82111772D01*
X159488228Y-82031955D01*
X159436411Y-82002038D01*
X159390473Y-81975515D01*
X159335955Y-81960907D01*
X159281439Y-81946300D01*
X159168561Y-81946300D01*
X159059526Y-81975515D01*
X158961772Y-82031955D01*
X158961769Y-82031957D01*
X158881957Y-82111769D01*
X158881955Y-82111772D01*
X158825515Y-82209526D01*
X158811785Y-82260769D01*
X158796300Y-82318561D01*
X150074646Y-82318561D01*
X150074646Y-79495521D01*
X156921300Y-79495521D01*
X156921300Y-79654479D01*
X156962441Y-79808019D01*
X157041920Y-79945680D01*
X157154320Y-80058080D01*
X157291981Y-80137559D01*
X157445521Y-80178700D01*
X157445523Y-80178700D01*
X157604476Y-80178700D01*
X157604479Y-80178700D01*
X157758019Y-80137559D01*
X157877526Y-80068561D01*
X162211300Y-80068561D01*
X162211300Y-80181438D01*
X162240515Y-80290473D01*
X162256732Y-80318561D01*
X162296955Y-80388228D01*
X162376772Y-80468045D01*
X162474528Y-80524485D01*
X162583561Y-80553700D01*
X162583563Y-80553700D01*
X162696437Y-80553700D01*
X162696439Y-80553700D01*
X162805472Y-80524485D01*
X162903228Y-80468045D01*
X162983045Y-80388228D01*
X163023268Y-80318561D01*
X164371300Y-80318561D01*
X164371300Y-80431439D01*
X164381138Y-80468155D01*
X164400515Y-80540473D01*
X164408152Y-80553700D01*
X164456955Y-80638228D01*
X164536772Y-80718045D01*
X164634528Y-80774485D01*
X164743561Y-80803700D01*
X164743563Y-80803700D01*
X164856437Y-80803700D01*
X164856439Y-80803700D01*
X164965472Y-80774485D01*
X165063228Y-80718045D01*
X165143045Y-80638228D01*
X165154400Y-80618561D01*
X166221300Y-80618561D01*
X166221300Y-80731439D01*
X166227265Y-80753700D01*
X166250515Y-80840473D01*
X166268266Y-80871217D01*
X166306955Y-80938228D01*
X166386772Y-81018045D01*
X166484528Y-81074485D01*
X166593561Y-81103700D01*
X166593563Y-81103700D01*
X166705322Y-81103700D01*
X166772361Y-81123385D01*
X166818116Y-81176189D01*
X166825094Y-81195598D01*
X166840884Y-81254528D01*
X166850515Y-81290473D01*
X166865699Y-81316772D01*
X166906955Y-81388228D01*
X166986772Y-81468045D01*
X167071428Y-81516922D01*
X167082927Y-81523561D01*
X167084528Y-81524485D01*
X167193561Y-81553700D01*
X167193563Y-81553700D01*
X167306437Y-81553700D01*
X167306439Y-81553700D01*
X167415472Y-81524485D01*
X167513228Y-81468045D01*
X167593045Y-81388228D01*
X167649485Y-81290472D01*
X167678700Y-81181439D01*
X167678700Y-81068561D01*
X167661358Y-81003838D01*
X182382357Y-81003838D01*
X182416685Y-81131950D01*
X182416686Y-81131951D01*
X182482995Y-81246803D01*
X182482997Y-81246806D01*
X182482998Y-81246807D01*
X182576779Y-81340588D01*
X182576780Y-81340589D01*
X182576782Y-81340590D01*
X182616573Y-81363563D01*
X182691637Y-81406901D01*
X182819745Y-81441228D01*
X182819748Y-81441228D01*
X182952368Y-81441228D01*
X182952371Y-81441228D01*
X183080479Y-81406901D01*
X183195337Y-81340588D01*
X183289118Y-81246807D01*
X183355431Y-81131949D01*
X183389758Y-81003841D01*
X183389758Y-80991310D01*
X184371299Y-80991310D01*
X184405627Y-81119422D01*
X184405628Y-81119423D01*
X184471937Y-81234275D01*
X184471939Y-81234278D01*
X184471940Y-81234279D01*
X184565721Y-81328060D01*
X184565722Y-81328061D01*
X184565724Y-81328062D01*
X184604614Y-81350515D01*
X184680579Y-81394373D01*
X184808687Y-81428700D01*
X184808690Y-81428700D01*
X184941310Y-81428700D01*
X184941313Y-81428700D01*
X185069421Y-81394373D01*
X185184279Y-81328060D01*
X185278060Y-81234279D01*
X185344373Y-81119421D01*
X185378700Y-80991313D01*
X185378700Y-80858687D01*
X185344373Y-80730579D01*
X185291056Y-80638230D01*
X185278062Y-80615724D01*
X185278058Y-80615719D01*
X185184280Y-80521941D01*
X185184275Y-80521937D01*
X185069423Y-80455628D01*
X185069422Y-80455627D01*
X185037394Y-80447045D01*
X184941313Y-80421300D01*
X184808687Y-80421300D01*
X184731822Y-80441896D01*
X184680577Y-80455627D01*
X184680576Y-80455628D01*
X184565724Y-80521937D01*
X184565719Y-80521941D01*
X184471941Y-80615719D01*
X184471937Y-80615724D01*
X184405628Y-80730576D01*
X184405627Y-80730577D01*
X184393862Y-80774484D01*
X184371300Y-80858687D01*
X184371300Y-80858689D01*
X184371300Y-80991310D01*
X184371299Y-80991310D01*
X183389758Y-80991310D01*
X183389758Y-80871215D01*
X183355431Y-80743107D01*
X183294881Y-80638230D01*
X183289120Y-80628252D01*
X183289116Y-80628247D01*
X183195338Y-80534469D01*
X183195333Y-80534465D01*
X183080481Y-80468156D01*
X183080480Y-80468155D01*
X183033728Y-80455628D01*
X182952371Y-80433828D01*
X182819745Y-80433828D01*
X182742880Y-80454424D01*
X182691635Y-80468155D01*
X182691634Y-80468156D01*
X182576782Y-80534465D01*
X182576777Y-80534469D01*
X182482999Y-80628247D01*
X182482995Y-80628252D01*
X182416686Y-80743104D01*
X182416685Y-80743105D01*
X182406275Y-80781957D01*
X182382358Y-80871215D01*
X182382358Y-80871217D01*
X182382358Y-81003838D01*
X182382357Y-81003838D01*
X167661358Y-81003838D01*
X167649485Y-80959528D01*
X167593045Y-80861772D01*
X167513228Y-80781955D01*
X167445942Y-80743107D01*
X167415473Y-80725515D01*
X167360955Y-80710907D01*
X167306439Y-80696300D01*
X167194678Y-80696300D01*
X167127639Y-80676615D01*
X167081884Y-80623811D01*
X167074905Y-80604401D01*
X167049485Y-80509528D01*
X166993045Y-80411772D01*
X166913228Y-80331955D01*
X166841380Y-80290473D01*
X166815473Y-80275515D01*
X166789520Y-80268561D01*
X179646300Y-80268561D01*
X179646300Y-80381438D01*
X179675515Y-80490473D01*
X179700915Y-80534465D01*
X179731955Y-80588228D01*
X179811772Y-80668045D01*
X179860711Y-80696300D01*
X179898368Y-80718042D01*
X179909528Y-80724485D01*
X180018561Y-80753700D01*
X180018563Y-80753700D01*
X180131437Y-80753700D01*
X180131439Y-80753700D01*
X180240472Y-80724485D01*
X180338228Y-80668045D01*
X180418045Y-80588228D01*
X180474485Y-80490472D01*
X180503700Y-80381439D01*
X180503700Y-80268561D01*
X180474485Y-80159528D01*
X180474482Y-80159523D01*
X180471373Y-80152014D01*
X180474095Y-80150886D01*
X180460951Y-80096733D01*
X180483795Y-80030703D01*
X180538711Y-79987506D01*
X180585434Y-79981633D01*
X180585434Y-79978700D01*
X180706437Y-79978700D01*
X180706439Y-79978700D01*
X180815472Y-79949485D01*
X180913228Y-79893045D01*
X180993045Y-79813228D01*
X181049485Y-79715472D01*
X181078700Y-79606439D01*
X181078700Y-79493561D01*
X181049485Y-79384528D01*
X180993045Y-79286772D01*
X180913228Y-79206955D01*
X180864350Y-79178735D01*
X180815473Y-79150515D01*
X180760955Y-79135907D01*
X180706439Y-79121300D01*
X180593561Y-79121300D01*
X180484526Y-79150515D01*
X180386772Y-79206955D01*
X180386769Y-79206957D01*
X180306957Y-79286769D01*
X180306955Y-79286772D01*
X180250515Y-79384526D01*
X180227586Y-79470101D01*
X180221300Y-79493561D01*
X180221300Y-79606439D01*
X180240145Y-79676772D01*
X180250516Y-79715474D01*
X180253627Y-79722986D01*
X180250907Y-79724112D01*
X180264047Y-79778286D01*
X180241193Y-79844312D01*
X180186270Y-79887500D01*
X180139566Y-79893399D01*
X180139566Y-79896300D01*
X180018561Y-79896300D01*
X179909526Y-79925515D01*
X179811772Y-79981955D01*
X179811769Y-79981957D01*
X179731957Y-80061769D01*
X179731955Y-80061772D01*
X179675515Y-80159526D01*
X179646300Y-80268561D01*
X166789520Y-80268561D01*
X166759890Y-80260622D01*
X166706439Y-80246300D01*
X166593561Y-80246300D01*
X166484526Y-80275515D01*
X166386772Y-80331955D01*
X166386769Y-80331957D01*
X166306957Y-80411769D01*
X166306955Y-80411772D01*
X166250515Y-80509526D01*
X166222061Y-80615721D01*
X166221300Y-80618561D01*
X165154400Y-80618561D01*
X165199485Y-80540472D01*
X165228700Y-80431439D01*
X165228700Y-80354335D01*
X165248385Y-80287296D01*
X165301189Y-80241541D01*
X165370347Y-80231597D01*
X165433903Y-80260622D01*
X165440381Y-80266654D01*
X165456772Y-80283045D01*
X165554528Y-80339485D01*
X165663561Y-80368700D01*
X165663563Y-80368700D01*
X165776437Y-80368700D01*
X165776439Y-80368700D01*
X165885472Y-80339485D01*
X165983228Y-80283045D01*
X166063045Y-80203228D01*
X166119485Y-80105472D01*
X166148700Y-79996439D01*
X166148700Y-79883561D01*
X166119485Y-79774528D01*
X166063045Y-79676772D01*
X165983228Y-79596955D01*
X165911870Y-79555756D01*
X165885473Y-79540515D01*
X165830955Y-79525907D01*
X165776439Y-79511300D01*
X165663561Y-79511300D01*
X165554526Y-79540515D01*
X165456772Y-79596955D01*
X165456769Y-79596957D01*
X165376957Y-79676769D01*
X165376955Y-79676772D01*
X165320515Y-79774526D01*
X165291300Y-79883561D01*
X165291300Y-79960665D01*
X165271615Y-80027704D01*
X165218811Y-80073459D01*
X165149653Y-80083403D01*
X165086097Y-80054378D01*
X165079619Y-80048346D01*
X165063230Y-80031957D01*
X165063228Y-80031955D01*
X165001713Y-79996439D01*
X164965473Y-79975515D01*
X164905800Y-79959526D01*
X164856439Y-79946300D01*
X164743561Y-79946300D01*
X164634526Y-79975515D01*
X164536772Y-80031955D01*
X164536769Y-80031957D01*
X164456957Y-80111769D01*
X164456955Y-80111772D01*
X164400515Y-80209526D01*
X164380816Y-80283045D01*
X164371300Y-80318561D01*
X163023268Y-80318561D01*
X163039485Y-80290472D01*
X163068700Y-80181439D01*
X163068700Y-80068561D01*
X163039485Y-79959528D01*
X162983045Y-79861772D01*
X162903228Y-79781955D01*
X162854350Y-79753735D01*
X162805473Y-79725515D01*
X162750955Y-79710907D01*
X162696439Y-79696300D01*
X162583561Y-79696300D01*
X162474526Y-79725515D01*
X162376772Y-79781955D01*
X162376769Y-79781957D01*
X162296957Y-79861769D01*
X162296955Y-79861772D01*
X162240515Y-79959526D01*
X162211300Y-80068561D01*
X157877526Y-80068561D01*
X157895680Y-80058080D01*
X158008080Y-79945680D01*
X158087559Y-79808019D01*
X158128700Y-79654479D01*
X158128700Y-79495521D01*
X158087559Y-79341981D01*
X158008080Y-79204320D01*
X157895680Y-79091920D01*
X157758019Y-79012441D01*
X157604479Y-78971300D01*
X157445521Y-78971300D01*
X157291981Y-79012441D01*
X157291979Y-79012441D01*
X157291979Y-79012442D01*
X157154320Y-79091920D01*
X157154317Y-79091922D01*
X157041922Y-79204317D01*
X157041920Y-79204320D01*
X156962441Y-79341981D01*
X156921300Y-79495521D01*
X150074646Y-79495521D01*
X150074646Y-78743561D01*
X172821300Y-78743561D01*
X172821300Y-78856439D01*
X172823280Y-78863829D01*
X172850515Y-78965473D01*
X172870733Y-79000490D01*
X172906955Y-79063228D01*
X172986772Y-79143045D01*
X173084528Y-79199485D01*
X173193561Y-79228700D01*
X173193563Y-79228700D01*
X173306437Y-79228700D01*
X173306439Y-79228700D01*
X173415472Y-79199485D01*
X173513228Y-79143045D01*
X173585655Y-79070618D01*
X174324105Y-79070618D01*
X174324105Y-79183495D01*
X174353320Y-79292530D01*
X174381540Y-79341407D01*
X174409760Y-79390285D01*
X174489577Y-79470102D01*
X174587333Y-79526542D01*
X174696366Y-79555757D01*
X174696368Y-79555757D01*
X174809242Y-79555757D01*
X174809244Y-79555757D01*
X174918277Y-79526542D01*
X175016033Y-79470102D01*
X175095850Y-79390285D01*
X175152290Y-79292529D01*
X175181505Y-79183496D01*
X175181505Y-79070618D01*
X175181505Y-79068176D01*
X175201190Y-79001137D01*
X175253994Y-78955382D01*
X175323152Y-78945438D01*
X175367504Y-78960788D01*
X175434528Y-78999485D01*
X175543561Y-79028700D01*
X175543563Y-79028700D01*
X175656437Y-79028700D01*
X175656439Y-79028700D01*
X175765472Y-78999485D01*
X175863228Y-78943045D01*
X175943045Y-78863228D01*
X175999485Y-78765472D01*
X176028700Y-78656439D01*
X176028700Y-78543561D01*
X175999485Y-78434528D01*
X175999484Y-78434526D01*
X175999484Y-78434525D01*
X175981189Y-78402839D01*
X175981188Y-78402837D01*
X175950084Y-78348964D01*
X176821300Y-78348964D01*
X176821300Y-78461841D01*
X176850515Y-78570876D01*
X176878735Y-78619753D01*
X176906955Y-78668631D01*
X176986772Y-78748448D01*
X177084528Y-78804888D01*
X177193561Y-78834103D01*
X177193563Y-78834103D01*
X177306437Y-78834103D01*
X177306439Y-78834103D01*
X177415472Y-78804888D01*
X177513228Y-78748448D01*
X177593045Y-78668631D01*
X177649485Y-78570875D01*
X177678700Y-78461842D01*
X177678700Y-78449227D01*
X177698385Y-78382188D01*
X177751189Y-78336433D01*
X177820347Y-78326489D01*
X177864699Y-78341839D01*
X177884528Y-78353288D01*
X177993561Y-78382503D01*
X177993563Y-78382503D01*
X178106437Y-78382503D01*
X178106439Y-78382503D01*
X178215472Y-78353288D01*
X178313228Y-78296848D01*
X178393045Y-78217031D01*
X178449485Y-78119275D01*
X178478700Y-78010242D01*
X178478700Y-77897364D01*
X178449485Y-77788331D01*
X178443924Y-77778700D01*
X178425875Y-77747437D01*
X178425873Y-77747435D01*
X178394769Y-77693561D01*
X178871300Y-77693561D01*
X178871300Y-77806439D01*
X178873721Y-77815473D01*
X178900515Y-77915473D01*
X178928735Y-77964350D01*
X178956955Y-78013228D01*
X179036772Y-78093045D01*
X179134528Y-78149485D01*
X179243561Y-78178700D01*
X179243563Y-78178700D01*
X179356437Y-78178700D01*
X179356439Y-78178700D01*
X179465472Y-78149485D01*
X179563228Y-78093045D01*
X179643045Y-78013228D01*
X179699485Y-77915472D01*
X179728700Y-77806439D01*
X179728700Y-77693561D01*
X179699485Y-77584528D01*
X179643045Y-77486772D01*
X179563228Y-77406955D01*
X179563225Y-77406953D01*
X179563221Y-77406950D01*
X179538750Y-77392821D01*
X179538747Y-77392821D01*
X179465473Y-77350515D01*
X179410955Y-77335907D01*
X179356439Y-77321300D01*
X179243561Y-77321300D01*
X179134526Y-77350515D01*
X179036772Y-77406955D01*
X179036769Y-77406957D01*
X178956957Y-77486769D01*
X178956955Y-77486772D01*
X178900515Y-77584526D01*
X178892825Y-77613227D01*
X178871300Y-77693561D01*
X178394769Y-77693561D01*
X178393045Y-77690575D01*
X178313228Y-77610758D01*
X178264350Y-77582538D01*
X178215473Y-77554318D01*
X178160955Y-77539710D01*
X178106439Y-77525103D01*
X177993561Y-77525103D01*
X177884526Y-77554318D01*
X177786772Y-77610758D01*
X177786769Y-77610760D01*
X177706957Y-77690572D01*
X177706955Y-77690575D01*
X177650515Y-77788329D01*
X177621300Y-77897364D01*
X177621300Y-77909978D01*
X177601615Y-77977017D01*
X177548811Y-78022772D01*
X177479653Y-78032716D01*
X177435300Y-78017365D01*
X177415475Y-78005919D01*
X177415472Y-78005918D01*
X177306439Y-77976703D01*
X177193561Y-77976703D01*
X177084526Y-78005918D01*
X176986772Y-78062358D01*
X176986769Y-78062360D01*
X176906957Y-78142172D01*
X176906955Y-78142175D01*
X176850515Y-78239929D01*
X176821300Y-78348964D01*
X175950084Y-78348964D01*
X175943047Y-78336775D01*
X175943042Y-78336769D01*
X175863230Y-78256957D01*
X175863228Y-78256955D01*
X175794082Y-78217033D01*
X175765473Y-78200515D01*
X175684056Y-78178700D01*
X175656439Y-78171300D01*
X175543561Y-78171300D01*
X175434526Y-78200515D01*
X175336772Y-78256955D01*
X175336769Y-78256957D01*
X175256957Y-78336769D01*
X175256955Y-78336772D01*
X175200515Y-78434526D01*
X175171300Y-78543561D01*
X175171300Y-78658880D01*
X175151615Y-78725919D01*
X175098811Y-78771674D01*
X175029653Y-78781618D01*
X174985300Y-78766267D01*
X174918280Y-78727573D01*
X174918277Y-78727572D01*
X174809244Y-78698357D01*
X174696366Y-78698357D01*
X174587331Y-78727572D01*
X174489577Y-78784012D01*
X174489574Y-78784014D01*
X174409762Y-78863826D01*
X174409760Y-78863829D01*
X174353320Y-78961583D01*
X174324105Y-79070618D01*
X173585655Y-79070618D01*
X173593045Y-79063228D01*
X173649485Y-78965472D01*
X173678700Y-78856439D01*
X173678700Y-78743561D01*
X173649485Y-78634528D01*
X173593045Y-78536772D01*
X173513228Y-78456955D01*
X173464350Y-78428735D01*
X173415473Y-78400515D01*
X173360955Y-78385907D01*
X173306439Y-78371300D01*
X173193561Y-78371300D01*
X173084526Y-78400515D01*
X172986772Y-78456955D01*
X172986769Y-78456957D01*
X172906957Y-78536769D01*
X172906955Y-78536772D01*
X172850515Y-78634526D01*
X172833412Y-78698357D01*
X172821300Y-78743561D01*
X150074646Y-78743561D01*
X150074646Y-77293561D01*
X182121300Y-77293561D01*
X182121300Y-77406439D01*
X182121439Y-77406957D01*
X182150515Y-77515473D01*
X182172943Y-77554318D01*
X182206955Y-77613228D01*
X182286772Y-77693045D01*
X182384528Y-77749485D01*
X182493561Y-77778700D01*
X182493563Y-77778700D01*
X182606437Y-77778700D01*
X182606439Y-77778700D01*
X182715472Y-77749485D01*
X182813228Y-77693045D01*
X182893045Y-77613228D01*
X182904400Y-77593561D01*
X185746300Y-77593561D01*
X185746300Y-77706438D01*
X185775515Y-77815473D01*
X185803735Y-77864350D01*
X185831955Y-77913228D01*
X185911772Y-77993045D01*
X186009528Y-78049485D01*
X186118561Y-78078700D01*
X186118563Y-78078700D01*
X186231437Y-78078700D01*
X186231439Y-78078700D01*
X186340472Y-78049485D01*
X186438228Y-77993045D01*
X186518045Y-77913228D01*
X186574485Y-77815472D01*
X186603700Y-77706439D01*
X186603700Y-77593561D01*
X186574485Y-77484528D01*
X186518045Y-77386772D01*
X186438228Y-77306955D01*
X186389350Y-77278735D01*
X186340473Y-77250515D01*
X186256410Y-77227991D01*
X186231439Y-77221300D01*
X186118561Y-77221300D01*
X186009526Y-77250515D01*
X185911772Y-77306955D01*
X185911769Y-77306957D01*
X185831957Y-77386769D01*
X185831955Y-77386772D01*
X185775515Y-77484526D01*
X185746300Y-77593561D01*
X182904400Y-77593561D01*
X182935953Y-77538908D01*
X182944886Y-77523438D01*
X182944888Y-77523435D01*
X182949484Y-77515474D01*
X182949485Y-77515472D01*
X182978700Y-77406439D01*
X182978700Y-77293561D01*
X182949485Y-77184528D01*
X182893045Y-77086772D01*
X182813228Y-77006955D01*
X182751964Y-76971584D01*
X182715473Y-76950515D01*
X182660955Y-76935907D01*
X182606439Y-76921300D01*
X182493561Y-76921300D01*
X182384526Y-76950515D01*
X182286772Y-77006955D01*
X182286769Y-77006957D01*
X182206957Y-77086769D01*
X182206955Y-77086772D01*
X182150515Y-77184526D01*
X182146697Y-77198776D01*
X182121300Y-77293561D01*
X150074646Y-77293561D01*
X150074646Y-76568521D01*
X158786798Y-76568521D01*
X158821126Y-76696633D01*
X158821127Y-76696634D01*
X158887436Y-76811486D01*
X158887438Y-76811489D01*
X158887439Y-76811490D01*
X158981220Y-76905271D01*
X158981221Y-76905272D01*
X158981223Y-76905273D01*
X159003345Y-76918045D01*
X159096078Y-76971584D01*
X159224186Y-77005911D01*
X159224189Y-77005911D01*
X159356809Y-77005911D01*
X159356812Y-77005911D01*
X159484920Y-76971584D01*
X159599778Y-76905271D01*
X159693559Y-76811490D01*
X159759872Y-76696632D01*
X159760533Y-76694164D01*
X167496300Y-76694164D01*
X167496300Y-76807041D01*
X167525515Y-76916076D01*
X167545399Y-76950515D01*
X167581955Y-77013831D01*
X167661772Y-77093648D01*
X167759528Y-77150088D01*
X167868561Y-77179303D01*
X167868563Y-77179303D01*
X167981437Y-77179303D01*
X167981439Y-77179303D01*
X168090472Y-77150088D01*
X168188228Y-77093648D01*
X168268045Y-77013831D01*
X168324485Y-76916075D01*
X168353700Y-76807042D01*
X168353700Y-76694164D01*
X168324485Y-76585131D01*
X168324483Y-76585127D01*
X168317156Y-76572436D01*
X168317155Y-76572435D01*
X168296154Y-76536061D01*
X168286050Y-76518561D01*
X171944701Y-76518561D01*
X171944701Y-76631439D01*
X171945339Y-76633820D01*
X171973916Y-76740473D01*
X172002136Y-76789350D01*
X172030356Y-76838228D01*
X172110173Y-76918045D01*
X172191092Y-76964764D01*
X172202902Y-76971583D01*
X172207929Y-76974485D01*
X172316962Y-77003700D01*
X172316964Y-77003700D01*
X172429838Y-77003700D01*
X172429840Y-77003700D01*
X172538873Y-76974485D01*
X172636629Y-76918045D01*
X172716446Y-76838228D01*
X172771511Y-76742853D01*
X186595593Y-76742853D01*
X186595593Y-76855730D01*
X186624808Y-76964765D01*
X186630420Y-76974485D01*
X186681248Y-77062520D01*
X186761065Y-77142337D01*
X186858821Y-77198777D01*
X186967854Y-77227992D01*
X186967856Y-77227992D01*
X187080730Y-77227992D01*
X187080732Y-77227992D01*
X187189765Y-77198777D01*
X187287521Y-77142337D01*
X187367338Y-77062520D01*
X187423778Y-76964764D01*
X187452993Y-76855731D01*
X187452993Y-76742853D01*
X187423778Y-76633820D01*
X187367338Y-76536064D01*
X187287521Y-76456247D01*
X187232508Y-76424485D01*
X187189766Y-76399807D01*
X187135248Y-76385199D01*
X187080732Y-76370592D01*
X186967854Y-76370592D01*
X186858819Y-76399807D01*
X186761065Y-76456247D01*
X186761062Y-76456249D01*
X186681250Y-76536061D01*
X186681248Y-76536064D01*
X186624808Y-76633818D01*
X186595593Y-76742853D01*
X172771511Y-76742853D01*
X172772886Y-76740472D01*
X172802101Y-76631439D01*
X172802101Y-76518561D01*
X172772886Y-76409528D01*
X172716446Y-76311772D01*
X172636629Y-76231955D01*
X172569040Y-76192932D01*
X172538874Y-76175515D01*
X172484356Y-76160907D01*
X172429840Y-76146300D01*
X172316962Y-76146300D01*
X172207927Y-76175515D01*
X172110173Y-76231955D01*
X172110170Y-76231957D01*
X172030358Y-76311769D01*
X172030356Y-76311772D01*
X171973916Y-76409526D01*
X171953058Y-76487372D01*
X171944701Y-76518561D01*
X168286050Y-76518561D01*
X168268045Y-76487375D01*
X168188228Y-76407558D01*
X168139350Y-76379338D01*
X168090473Y-76351118D01*
X168035955Y-76336510D01*
X167981439Y-76321903D01*
X167868561Y-76321903D01*
X167759526Y-76351118D01*
X167661772Y-76407558D01*
X167661769Y-76407560D01*
X167581957Y-76487372D01*
X167581955Y-76487375D01*
X167525515Y-76585129D01*
X167496300Y-76694164D01*
X159760533Y-76694164D01*
X159794199Y-76568524D01*
X159794199Y-76435898D01*
X159759872Y-76307790D01*
X159695026Y-76195473D01*
X159693561Y-76192935D01*
X159693557Y-76192930D01*
X159599779Y-76099152D01*
X159599774Y-76099148D01*
X159545513Y-76067821D01*
X159484922Y-76032839D01*
X159484921Y-76032838D01*
X159452893Y-76024256D01*
X159356812Y-75998511D01*
X159224186Y-75998511D01*
X159147321Y-76019107D01*
X159096076Y-76032838D01*
X159096075Y-76032839D01*
X158981223Y-76099148D01*
X158981218Y-76099152D01*
X158887440Y-76192930D01*
X158887436Y-76192935D01*
X158821127Y-76307787D01*
X158821126Y-76307788D01*
X158808090Y-76356439D01*
X158786799Y-76435898D01*
X158786799Y-76435900D01*
X158786799Y-76568521D01*
X158786798Y-76568521D01*
X150074646Y-76568521D01*
X150074646Y-75966446D01*
X150075050Y-75518561D01*
X157246300Y-75518561D01*
X157246300Y-75631438D01*
X157275515Y-75740473D01*
X157290699Y-75766772D01*
X157331955Y-75838228D01*
X157411772Y-75918045D01*
X157490034Y-75963230D01*
X157507927Y-75973561D01*
X157509528Y-75974485D01*
X157618561Y-76003700D01*
X157618563Y-76003700D01*
X157731437Y-76003700D01*
X157731439Y-76003700D01*
X157840472Y-75974485D01*
X157850733Y-75968561D01*
X163471300Y-75968561D01*
X163471300Y-76081439D01*
X163480469Y-76115659D01*
X163500515Y-76190473D01*
X163503402Y-76195473D01*
X163556955Y-76288228D01*
X163636772Y-76368045D01*
X163734528Y-76424485D01*
X163843561Y-76453700D01*
X163843563Y-76453700D01*
X163956437Y-76453700D01*
X163956439Y-76453700D01*
X164065472Y-76424485D01*
X164163228Y-76368045D01*
X164243045Y-76288228D01*
X164299485Y-76190472D01*
X164328700Y-76081439D01*
X164328700Y-75968561D01*
X164299485Y-75859528D01*
X164243045Y-75761772D01*
X164163228Y-75681955D01*
X164096732Y-75643563D01*
X164065473Y-75625515D01*
X164005221Y-75609371D01*
X163956439Y-75596300D01*
X163843561Y-75596300D01*
X163734526Y-75625515D01*
X163636772Y-75681955D01*
X163636769Y-75681957D01*
X163556957Y-75761769D01*
X163556955Y-75761772D01*
X163500515Y-75859526D01*
X163474410Y-75956955D01*
X163471300Y-75968561D01*
X157850733Y-75968561D01*
X157938228Y-75918045D01*
X158018045Y-75838228D01*
X158074485Y-75740472D01*
X158103700Y-75631439D01*
X158103700Y-75518561D01*
X158074485Y-75409528D01*
X158070312Y-75402301D01*
X158066922Y-75396428D01*
X158018045Y-75311772D01*
X157938228Y-75231955D01*
X157870445Y-75192820D01*
X157870443Y-75192818D01*
X157840477Y-75175517D01*
X157840474Y-75175516D01*
X157840473Y-75175515D01*
X157840472Y-75175515D01*
X157731439Y-75146300D01*
X157618561Y-75146300D01*
X157509526Y-75175515D01*
X157411772Y-75231955D01*
X157411769Y-75231957D01*
X157331957Y-75311769D01*
X157331955Y-75311772D01*
X157275515Y-75409526D01*
X157246300Y-75518561D01*
X150075050Y-75518561D01*
X150075057Y-75510322D01*
X150075432Y-75093561D01*
X158396300Y-75093561D01*
X158396300Y-75206439D01*
X158405419Y-75240472D01*
X158425515Y-75315473D01*
X158438653Y-75338228D01*
X158481955Y-75413228D01*
X158561772Y-75493045D01*
X158659528Y-75549485D01*
X158768561Y-75578700D01*
X158768563Y-75578700D01*
X158881437Y-75578700D01*
X158881439Y-75578700D01*
X158990472Y-75549485D01*
X159088228Y-75493045D01*
X159168045Y-75413228D01*
X159224485Y-75315472D01*
X159253700Y-75206439D01*
X159253700Y-75093561D01*
X159224485Y-74984528D01*
X159168045Y-74886772D01*
X159088228Y-74806955D01*
X159088225Y-74806953D01*
X159088221Y-74806950D01*
X159063750Y-74792821D01*
X159063747Y-74792821D01*
X158990473Y-74750515D01*
X158921204Y-74731955D01*
X158881439Y-74721300D01*
X158768561Y-74721300D01*
X158659526Y-74750515D01*
X158561772Y-74806955D01*
X158561769Y-74806957D01*
X158481957Y-74886769D01*
X158481955Y-74886772D01*
X158425515Y-74984526D01*
X158416396Y-75018561D01*
X158396300Y-75093561D01*
X150075432Y-75093561D01*
X150075792Y-74693561D01*
X170446300Y-74693561D01*
X170446300Y-74806439D01*
X170450465Y-74821983D01*
X170475515Y-74915473D01*
X170492896Y-74945577D01*
X170531955Y-75013228D01*
X170611772Y-75093045D01*
X170709528Y-75149485D01*
X170709530Y-75149486D01*
X170709812Y-75149603D01*
X170710013Y-75149765D01*
X170716567Y-75153549D01*
X170715977Y-75154570D01*
X170764217Y-75193443D01*
X170786283Y-75259736D01*
X170770908Y-75321516D01*
X170771150Y-75321617D01*
X170770481Y-75323231D01*
X170769753Y-75326158D01*
X170768040Y-75329123D01*
X170768039Y-75329128D01*
X170768039Y-75329129D01*
X170768038Y-75329131D01*
X170746496Y-75409528D01*
X170738823Y-75438164D01*
X170738823Y-75551041D01*
X170768038Y-75660076D01*
X170783557Y-75686955D01*
X170824478Y-75757831D01*
X170904295Y-75837648D01*
X171002051Y-75894088D01*
X171111084Y-75923303D01*
X171111086Y-75923303D01*
X171223960Y-75923303D01*
X171223962Y-75923303D01*
X171332995Y-75894088D01*
X171430751Y-75837648D01*
X171510568Y-75757831D01*
X171567008Y-75660075D01*
X171596223Y-75551042D01*
X171596223Y-75438164D01*
X171567008Y-75329131D01*
X171567003Y-75329123D01*
X171546301Y-75293266D01*
X171510568Y-75231375D01*
X171497754Y-75218561D01*
X172221300Y-75218561D01*
X172221300Y-75331439D01*
X172235907Y-75385955D01*
X172250515Y-75440473D01*
X172278735Y-75489350D01*
X172306955Y-75538228D01*
X172386772Y-75618045D01*
X172484528Y-75674485D01*
X172593561Y-75703700D01*
X172593563Y-75703700D01*
X172706437Y-75703700D01*
X172706439Y-75703700D01*
X172815472Y-75674485D01*
X172913228Y-75618045D01*
X172993045Y-75538228D01*
X173049485Y-75440472D01*
X173078700Y-75331439D01*
X173078700Y-75218561D01*
X173068472Y-75180389D01*
X177859227Y-75180389D01*
X177859227Y-75293267D01*
X177868836Y-75329128D01*
X177888442Y-75402301D01*
X177909148Y-75438164D01*
X177944882Y-75500056D01*
X177944884Y-75500058D01*
X178006595Y-75561769D01*
X178040080Y-75623092D01*
X178035096Y-75692784D01*
X178006596Y-75737130D01*
X177976958Y-75766768D01*
X177976955Y-75766772D01*
X177920515Y-75864526D01*
X177895749Y-75956957D01*
X177891300Y-75973561D01*
X177891300Y-76086439D01*
X177902623Y-76128699D01*
X177920515Y-76195473D01*
X177941579Y-76231955D01*
X177976955Y-76293228D01*
X178056772Y-76373045D01*
X178154528Y-76429485D01*
X178263561Y-76458700D01*
X178263563Y-76458700D01*
X178376437Y-76458700D01*
X178376439Y-76458700D01*
X178485472Y-76429485D01*
X178583228Y-76373045D01*
X178663045Y-76293228D01*
X178691721Y-76243561D01*
X190071300Y-76243561D01*
X190071300Y-76356438D01*
X190100515Y-76465473D01*
X190113159Y-76487372D01*
X190156955Y-76563228D01*
X190236772Y-76643045D01*
X190321428Y-76691922D01*
X190329586Y-76696632D01*
X190334528Y-76699485D01*
X190443561Y-76728700D01*
X190443563Y-76728700D01*
X190556437Y-76728700D01*
X190556439Y-76728700D01*
X190665472Y-76699485D01*
X190763228Y-76643045D01*
X190843045Y-76563228D01*
X190899485Y-76465472D01*
X190928700Y-76356439D01*
X190928700Y-76243561D01*
X190899485Y-76134528D01*
X190843045Y-76036772D01*
X190763228Y-75956955D01*
X190695833Y-75918044D01*
X190665473Y-75900515D01*
X190610955Y-75885907D01*
X190556439Y-75871300D01*
X190443561Y-75871300D01*
X190334526Y-75900515D01*
X190236772Y-75956955D01*
X190236769Y-75956957D01*
X190156957Y-76036769D01*
X190156955Y-76036772D01*
X190100515Y-76134526D01*
X190071300Y-76243561D01*
X178691721Y-76243561D01*
X178719485Y-76195472D01*
X178748700Y-76086439D01*
X178748700Y-75973561D01*
X178719485Y-75864528D01*
X178663045Y-75766772D01*
X178601331Y-75705058D01*
X178567846Y-75643735D01*
X178572830Y-75574043D01*
X178601330Y-75529697D01*
X178630972Y-75500056D01*
X178687412Y-75402300D01*
X178716627Y-75293267D01*
X178716627Y-75291880D01*
X178716957Y-75290754D01*
X178717688Y-75285207D01*
X178718552Y-75285320D01*
X178736312Y-75224841D01*
X178789116Y-75179086D01*
X178808524Y-75172108D01*
X178886151Y-75151309D01*
X178983907Y-75094869D01*
X179060215Y-75018561D01*
X182196300Y-75018561D01*
X182196300Y-75131439D01*
X182202224Y-75153549D01*
X182225515Y-75240473D01*
X182236637Y-75259736D01*
X182281955Y-75338228D01*
X182361772Y-75418045D01*
X182459528Y-75474485D01*
X182568561Y-75503700D01*
X182568563Y-75503700D01*
X182681437Y-75503700D01*
X182681439Y-75503700D01*
X182790472Y-75474485D01*
X182888228Y-75418045D01*
X182968045Y-75338228D01*
X183024485Y-75240472D01*
X183033639Y-75206310D01*
X186036299Y-75206310D01*
X186070627Y-75334422D01*
X186070628Y-75334423D01*
X186136937Y-75449275D01*
X186136939Y-75449278D01*
X186136940Y-75449279D01*
X186230721Y-75543060D01*
X186230722Y-75543061D01*
X186230724Y-75543062D01*
X186244546Y-75551042D01*
X186345579Y-75609373D01*
X186473687Y-75643700D01*
X186473690Y-75643700D01*
X186606310Y-75643700D01*
X186606313Y-75643700D01*
X186606832Y-75643561D01*
X188421300Y-75643561D01*
X188421300Y-75756438D01*
X188450515Y-75865473D01*
X188470747Y-75900515D01*
X188506955Y-75963228D01*
X188586772Y-76043045D01*
X188661930Y-76086438D01*
X188683949Y-76099151D01*
X188684528Y-76099485D01*
X188793561Y-76128700D01*
X188793563Y-76128700D01*
X188906437Y-76128700D01*
X188906439Y-76128700D01*
X189015472Y-76099485D01*
X189113228Y-76043045D01*
X189193045Y-75963228D01*
X189249485Y-75865472D01*
X189278700Y-75756439D01*
X189278700Y-75643561D01*
X189249485Y-75534528D01*
X189193045Y-75436772D01*
X189113228Y-75356955D01*
X189054817Y-75323231D01*
X189015473Y-75300515D01*
X188958341Y-75285207D01*
X188906439Y-75271300D01*
X188793561Y-75271300D01*
X188684526Y-75300515D01*
X188586772Y-75356955D01*
X188586769Y-75356957D01*
X188506957Y-75436769D01*
X188506955Y-75436772D01*
X188450515Y-75534526D01*
X188421300Y-75643561D01*
X186606832Y-75643561D01*
X186734421Y-75609373D01*
X186849279Y-75543060D01*
X186943060Y-75449279D01*
X187009373Y-75334421D01*
X187043700Y-75206313D01*
X187043700Y-75073687D01*
X187009373Y-74945579D01*
X186968922Y-74875515D01*
X186943062Y-74830724D01*
X186943058Y-74830719D01*
X186849280Y-74736941D01*
X186849275Y-74736937D01*
X186734423Y-74670628D01*
X186734422Y-74670627D01*
X186702394Y-74662045D01*
X186606313Y-74636300D01*
X186473687Y-74636300D01*
X186396822Y-74656896D01*
X186345577Y-74670627D01*
X186345576Y-74670628D01*
X186230724Y-74736937D01*
X186230719Y-74736941D01*
X186136941Y-74830719D01*
X186136937Y-74830724D01*
X186070628Y-74945576D01*
X186070627Y-74945577D01*
X186060191Y-74984526D01*
X186036300Y-75073687D01*
X186036300Y-75073689D01*
X186036300Y-75206310D01*
X186036299Y-75206310D01*
X183033639Y-75206310D01*
X183053700Y-75131439D01*
X183053700Y-75111050D01*
X183073385Y-75044011D01*
X183126189Y-74998256D01*
X183180759Y-74990080D01*
X183180759Y-74987453D01*
X183301762Y-74987453D01*
X183301764Y-74987453D01*
X183410797Y-74958238D01*
X183508553Y-74901798D01*
X183588370Y-74821981D01*
X183644810Y-74724225D01*
X183674025Y-74615192D01*
X183674025Y-74502314D01*
X183644810Y-74393281D01*
X183588370Y-74295525D01*
X183508553Y-74215708D01*
X183459675Y-74187488D01*
X183410798Y-74159268D01*
X183356280Y-74144660D01*
X183301764Y-74130053D01*
X183188886Y-74130053D01*
X183079851Y-74159268D01*
X182982097Y-74215708D01*
X182982094Y-74215710D01*
X182902282Y-74295522D01*
X182902280Y-74295525D01*
X182845840Y-74393279D01*
X182816625Y-74502314D01*
X182816625Y-74522702D01*
X182796940Y-74589741D01*
X182744136Y-74635496D01*
X182689566Y-74643680D01*
X182689566Y-74646300D01*
X182568561Y-74646300D01*
X182459526Y-74675515D01*
X182361772Y-74731955D01*
X182361769Y-74731957D01*
X182281957Y-74811769D01*
X182281955Y-74811772D01*
X182225515Y-74909526D01*
X182204635Y-74987453D01*
X182196300Y-75018561D01*
X179060215Y-75018561D01*
X179063724Y-75015052D01*
X179087657Y-74973600D01*
X179102188Y-74948433D01*
X179117819Y-74921357D01*
X179120164Y-74917296D01*
X179149379Y-74808263D01*
X179149379Y-74695385D01*
X179120164Y-74586352D01*
X179063724Y-74488596D01*
X179015881Y-74440753D01*
X178982396Y-74379430D01*
X178987380Y-74309738D01*
X179015877Y-74265395D01*
X179093045Y-74188228D01*
X179149485Y-74090472D01*
X179178700Y-73981439D01*
X179178700Y-73868561D01*
X179149485Y-73759528D01*
X179093045Y-73661772D01*
X179013228Y-73581955D01*
X178934393Y-73536439D01*
X178915473Y-73525515D01*
X178860955Y-73510907D01*
X178806439Y-73496300D01*
X178693561Y-73496300D01*
X178584526Y-73525515D01*
X178486772Y-73581955D01*
X178486769Y-73581957D01*
X178406957Y-73661769D01*
X178406955Y-73661772D01*
X178350515Y-73759526D01*
X178321300Y-73868561D01*
X178321300Y-73981438D01*
X178350515Y-74090473D01*
X178373367Y-74130053D01*
X178406955Y-74188228D01*
X178406957Y-74188230D01*
X178454797Y-74236070D01*
X178488282Y-74297393D01*
X178483298Y-74367085D01*
X178454798Y-74411432D01*
X178377633Y-74488596D01*
X178321194Y-74586350D01*
X178291979Y-74695385D01*
X178291979Y-74696771D01*
X178291648Y-74697896D01*
X178290918Y-74703445D01*
X178290052Y-74703331D01*
X178272294Y-74763810D01*
X178219490Y-74809565D01*
X178200074Y-74816545D01*
X178179780Y-74821983D01*
X178122454Y-74837343D01*
X178024699Y-74893783D01*
X178024696Y-74893785D01*
X177944884Y-74973597D01*
X177944882Y-74973600D01*
X177888442Y-75071354D01*
X177866419Y-75153549D01*
X177859227Y-75180389D01*
X173068472Y-75180389D01*
X173049485Y-75109528D01*
X172993045Y-75011772D01*
X172913228Y-74931955D01*
X172860990Y-74901795D01*
X172815473Y-74875515D01*
X172760955Y-74860907D01*
X172706439Y-74846300D01*
X172593561Y-74846300D01*
X172484526Y-74875515D01*
X172386772Y-74931955D01*
X172386769Y-74931957D01*
X172306957Y-75011769D01*
X172306955Y-75011772D01*
X172250515Y-75109526D01*
X172231877Y-75179086D01*
X172221300Y-75218561D01*
X171497754Y-75218561D01*
X171430751Y-75151558D01*
X171332995Y-75095118D01*
X171332994Y-75095117D01*
X171332988Y-75095114D01*
X171332703Y-75094996D01*
X171332499Y-75094831D01*
X171325956Y-75091054D01*
X171326545Y-75090033D01*
X171278301Y-75051153D01*
X171256239Y-74984858D01*
X171271616Y-74923087D01*
X171271373Y-74922986D01*
X171272047Y-74921357D01*
X171272775Y-74918432D01*
X171274485Y-74915472D01*
X171303700Y-74806439D01*
X171303700Y-74693561D01*
X171274485Y-74584528D01*
X171218045Y-74486772D01*
X171138228Y-74406955D01*
X171069172Y-74367085D01*
X171040473Y-74350515D01*
X170980639Y-74334483D01*
X170931439Y-74321300D01*
X170818561Y-74321300D01*
X170709526Y-74350515D01*
X170611772Y-74406955D01*
X170611769Y-74406957D01*
X170531957Y-74486769D01*
X170531955Y-74486772D01*
X170475515Y-74584526D01*
X170461858Y-74635496D01*
X170446300Y-74693561D01*
X150075792Y-74693561D01*
X150076935Y-73423561D01*
X186351300Y-73423561D01*
X186351300Y-73536438D01*
X186380515Y-73645473D01*
X186389924Y-73661769D01*
X186436955Y-73743228D01*
X186516772Y-73823045D01*
X186614528Y-73879485D01*
X186723561Y-73908700D01*
X186723563Y-73908700D01*
X186836437Y-73908700D01*
X186836439Y-73908700D01*
X186945472Y-73879485D01*
X187043228Y-73823045D01*
X187123045Y-73743228D01*
X187179485Y-73645472D01*
X187208700Y-73536439D01*
X187208700Y-73423561D01*
X187179485Y-73314528D01*
X187123045Y-73216772D01*
X187043228Y-73136955D01*
X186976051Y-73098170D01*
X186945473Y-73080515D01*
X186890955Y-73065907D01*
X186836439Y-73051300D01*
X186723561Y-73051300D01*
X186614526Y-73080515D01*
X186516772Y-73136955D01*
X186516769Y-73136957D01*
X186436957Y-73216769D01*
X186436955Y-73216772D01*
X186380515Y-73314526D01*
X186351300Y-73423561D01*
X150076935Y-73423561D01*
X150078346Y-71856561D01*
X164759300Y-71856561D01*
X164759300Y-71969438D01*
X164788515Y-72078473D01*
X164800276Y-72098843D01*
X164844955Y-72176228D01*
X164924772Y-72256045D01*
X165022528Y-72312485D01*
X165131561Y-72341700D01*
X165131563Y-72341700D01*
X165175293Y-72341700D01*
X165242332Y-72361385D01*
X165288087Y-72414189D01*
X165297263Y-72475433D01*
X165298011Y-72475433D01*
X165298011Y-72480424D01*
X165298231Y-72481893D01*
X165298011Y-72483563D01*
X165298011Y-72596437D01*
X165327226Y-72705472D01*
X165338774Y-72725473D01*
X165383666Y-72803227D01*
X165463483Y-72883044D01*
X165561239Y-72939484D01*
X165670272Y-72968699D01*
X165670274Y-72968699D01*
X165783148Y-72968699D01*
X165783150Y-72968699D01*
X165892183Y-72939484D01*
X165989939Y-72883044D01*
X166069756Y-72803227D01*
X166126196Y-72705471D01*
X166129387Y-72693561D01*
X170351300Y-72693561D01*
X170351300Y-72806438D01*
X170380515Y-72915473D01*
X170394378Y-72939483D01*
X170436955Y-73013228D01*
X170516772Y-73093045D01*
X170614528Y-73149485D01*
X170723561Y-73178700D01*
X170723563Y-73178700D01*
X170836437Y-73178700D01*
X170836439Y-73178700D01*
X170945472Y-73149485D01*
X171043228Y-73093045D01*
X171123045Y-73013228D01*
X171179485Y-72915472D01*
X171208700Y-72806439D01*
X171208700Y-72693561D01*
X171179485Y-72584528D01*
X171123045Y-72486772D01*
X171043228Y-72406955D01*
X170987058Y-72374525D01*
X170945473Y-72350515D01*
X170890955Y-72335907D01*
X170836439Y-72321300D01*
X170723561Y-72321300D01*
X170614526Y-72350515D01*
X170516772Y-72406955D01*
X170516769Y-72406957D01*
X170436957Y-72486769D01*
X170436955Y-72486772D01*
X170380515Y-72584526D01*
X170351300Y-72693561D01*
X166129387Y-72693561D01*
X166155411Y-72596438D01*
X166155411Y-72483560D01*
X166126196Y-72374527D01*
X166069756Y-72276771D01*
X165989939Y-72196954D01*
X165939862Y-72168042D01*
X165892184Y-72140514D01*
X165837666Y-72125906D01*
X165783150Y-72111299D01*
X165739418Y-72111299D01*
X165729965Y-72108523D01*
X165720198Y-72109800D01*
X165696998Y-72098843D01*
X165672379Y-72091614D01*
X165665927Y-72084169D01*
X165657020Y-72079962D01*
X165643425Y-72058199D01*
X165626624Y-72038810D01*
X165624235Y-72027480D01*
X165620002Y-72020704D01*
X165618577Y-72000647D01*
X165615428Y-71985708D01*
X165615583Y-71973606D01*
X165616700Y-71969439D01*
X165616700Y-71895521D01*
X174896300Y-71895521D01*
X174896300Y-72054479D01*
X174937441Y-72208019D01*
X175016920Y-72345680D01*
X175129320Y-72458080D01*
X175266981Y-72537559D01*
X175420521Y-72578700D01*
X175420523Y-72578700D01*
X175579476Y-72578700D01*
X175579479Y-72578700D01*
X175733019Y-72537559D01*
X175791905Y-72503561D01*
X177501300Y-72503561D01*
X177501300Y-72616439D01*
X177515907Y-72670955D01*
X177530515Y-72725473D01*
X177558735Y-72774350D01*
X177586955Y-72823228D01*
X177666772Y-72903045D01*
X177764528Y-72959485D01*
X177873561Y-72988700D01*
X177873563Y-72988700D01*
X177986437Y-72988700D01*
X177986439Y-72988700D01*
X178095472Y-72959485D01*
X178166354Y-72918561D01*
X182046300Y-72918561D01*
X182046300Y-73031438D01*
X182075515Y-73140473D01*
X182097586Y-73178700D01*
X182131955Y-73238228D01*
X182211772Y-73318045D01*
X182309528Y-73374485D01*
X182418561Y-73403700D01*
X182418563Y-73403700D01*
X182531437Y-73403700D01*
X182531439Y-73403700D01*
X182640472Y-73374485D01*
X182738228Y-73318045D01*
X182818045Y-73238228D01*
X182874485Y-73140472D01*
X182903700Y-73031439D01*
X182903700Y-72918561D01*
X182886723Y-72855201D01*
X183684139Y-72855201D01*
X183718467Y-72983313D01*
X183718468Y-72983314D01*
X183784777Y-73098166D01*
X183784779Y-73098169D01*
X183784780Y-73098170D01*
X183878561Y-73191951D01*
X183993419Y-73258264D01*
X184121527Y-73292591D01*
X184121530Y-73292591D01*
X184254150Y-73292591D01*
X184254153Y-73292591D01*
X184382261Y-73258264D01*
X184497119Y-73191951D01*
X184590900Y-73098170D01*
X184657213Y-72983312D01*
X184691540Y-72855204D01*
X184691540Y-72722578D01*
X184657213Y-72594470D01*
X184593181Y-72483562D01*
X184590902Y-72479615D01*
X184590898Y-72479610D01*
X184497120Y-72385832D01*
X184497115Y-72385828D01*
X184382263Y-72319519D01*
X184382262Y-72319518D01*
X184350234Y-72310936D01*
X184254153Y-72285191D01*
X184121527Y-72285191D01*
X184050612Y-72304193D01*
X183993417Y-72319518D01*
X183993416Y-72319519D01*
X183878564Y-72385828D01*
X183878559Y-72385832D01*
X183784781Y-72479610D01*
X183784777Y-72479615D01*
X183718468Y-72594467D01*
X183718467Y-72594468D01*
X183712580Y-72616439D01*
X183684140Y-72722578D01*
X183684140Y-72722580D01*
X183684140Y-72855201D01*
X183684139Y-72855201D01*
X182886723Y-72855201D01*
X182874485Y-72809528D01*
X182872701Y-72806438D01*
X182855388Y-72776450D01*
X182855387Y-72776448D01*
X182818049Y-72711778D01*
X182818046Y-72711775D01*
X182818045Y-72711772D01*
X182738228Y-72631955D01*
X182689350Y-72603735D01*
X182640473Y-72575515D01*
X182585955Y-72560907D01*
X182531439Y-72546300D01*
X182418561Y-72546300D01*
X182309526Y-72575515D01*
X182211772Y-72631955D01*
X182211769Y-72631957D01*
X182131957Y-72711769D01*
X182131955Y-72711772D01*
X182075515Y-72809526D01*
X182046300Y-72918561D01*
X178166354Y-72918561D01*
X178193228Y-72903045D01*
X178273045Y-72823228D01*
X178329485Y-72725472D01*
X178358700Y-72616439D01*
X178358700Y-72503561D01*
X178329485Y-72394528D01*
X178273045Y-72296772D01*
X178193228Y-72216955D01*
X178122691Y-72176230D01*
X178095473Y-72160515D01*
X178020826Y-72140514D01*
X177986439Y-72131300D01*
X177873561Y-72131300D01*
X177764526Y-72160515D01*
X177666772Y-72216955D01*
X177666769Y-72216957D01*
X177586957Y-72296769D01*
X177586955Y-72296772D01*
X177530515Y-72394526D01*
X177501300Y-72503561D01*
X175791905Y-72503561D01*
X175870680Y-72458080D01*
X175983080Y-72345680D01*
X176062559Y-72208019D01*
X176103700Y-72054479D01*
X176103700Y-71895521D01*
X176069681Y-71768561D01*
X192546300Y-71768561D01*
X192546300Y-71881438D01*
X192575515Y-71990473D01*
X192596882Y-72027480D01*
X192631955Y-72088228D01*
X192711772Y-72168045D01*
X192809528Y-72224485D01*
X192918561Y-72253700D01*
X192918563Y-72253700D01*
X193031437Y-72253700D01*
X193031439Y-72253700D01*
X193140472Y-72224485D01*
X193238228Y-72168045D01*
X193318045Y-72088228D01*
X193374485Y-71990472D01*
X193403700Y-71881439D01*
X193403700Y-71768561D01*
X193374485Y-71659528D01*
X193318045Y-71561772D01*
X193238228Y-71481955D01*
X193140472Y-71425515D01*
X193140471Y-71425514D01*
X193134453Y-71422040D01*
X193086238Y-71371472D01*
X193073016Y-71302865D01*
X193098984Y-71238001D01*
X193155898Y-71197473D01*
X193164343Y-71194883D01*
X193240472Y-71174485D01*
X193338228Y-71118045D01*
X193418045Y-71038228D01*
X193474485Y-70940472D01*
X193503700Y-70831439D01*
X193503700Y-70718561D01*
X193474485Y-70609528D01*
X193472484Y-70606063D01*
X193455571Y-70576769D01*
X193418045Y-70511772D01*
X193338228Y-70431955D01*
X193281615Y-70399269D01*
X193240473Y-70375515D01*
X193159056Y-70353700D01*
X193131439Y-70346300D01*
X193018561Y-70346300D01*
X192909526Y-70375515D01*
X192811772Y-70431955D01*
X192811769Y-70431957D01*
X192731957Y-70511769D01*
X192731955Y-70511772D01*
X192675515Y-70609526D01*
X192646300Y-70718561D01*
X192646300Y-70831438D01*
X192675515Y-70940473D01*
X192683500Y-70954303D01*
X192731955Y-71038228D01*
X192811772Y-71118045D01*
X192811773Y-71118046D01*
X192811775Y-71118047D01*
X192915545Y-71177959D01*
X192963761Y-71228526D01*
X192976983Y-71297134D01*
X192951015Y-71361998D01*
X192894101Y-71402526D01*
X192885638Y-71405121D01*
X192809528Y-71425515D01*
X192809527Y-71425515D01*
X192809525Y-71425516D01*
X192711772Y-71481955D01*
X192711769Y-71481957D01*
X192631957Y-71561769D01*
X192631955Y-71561772D01*
X192575515Y-71659526D01*
X192546300Y-71768561D01*
X176069681Y-71768561D01*
X176062559Y-71741981D01*
X175983080Y-71604320D01*
X175870680Y-71491920D01*
X175733019Y-71412441D01*
X175579479Y-71371300D01*
X175420521Y-71371300D01*
X175266981Y-71412441D01*
X175266979Y-71412441D01*
X175266979Y-71412442D01*
X175129320Y-71491920D01*
X175129317Y-71491922D01*
X175016922Y-71604317D01*
X175016920Y-71604320D01*
X174937441Y-71741981D01*
X174896300Y-71895521D01*
X165616700Y-71895521D01*
X165616700Y-71856561D01*
X165587485Y-71747528D01*
X165531045Y-71649772D01*
X165451228Y-71569955D01*
X165402350Y-71541735D01*
X165353473Y-71513515D01*
X165272885Y-71491922D01*
X165244439Y-71484300D01*
X165131561Y-71484300D01*
X165022526Y-71513515D01*
X164924772Y-71569955D01*
X164924769Y-71569957D01*
X164844957Y-71649769D01*
X164844955Y-71649772D01*
X164788515Y-71747526D01*
X164759300Y-71856561D01*
X150078346Y-71856561D01*
X150078353Y-71848322D01*
X150079312Y-70783561D01*
X152321300Y-70783561D01*
X152321300Y-70896439D01*
X152333099Y-70940473D01*
X152350515Y-71005473D01*
X152353558Y-71010743D01*
X152406955Y-71103228D01*
X152486772Y-71183045D01*
X152565547Y-71228526D01*
X152581957Y-71238001D01*
X152584528Y-71239485D01*
X152693561Y-71268700D01*
X152693563Y-71268700D01*
X152806437Y-71268700D01*
X152806439Y-71268700D01*
X152806958Y-71268561D01*
X170571300Y-71268561D01*
X170571300Y-71381438D01*
X170600515Y-71490473D01*
X170601352Y-71491922D01*
X170656955Y-71588228D01*
X170736772Y-71668045D01*
X170834528Y-71724485D01*
X170943561Y-71753700D01*
X170943563Y-71753700D01*
X171056437Y-71753700D01*
X171056439Y-71753700D01*
X171165472Y-71724485D01*
X171263228Y-71668045D01*
X171343045Y-71588228D01*
X171399485Y-71490472D01*
X171428700Y-71381439D01*
X171428700Y-71268561D01*
X171399485Y-71159528D01*
X171343045Y-71061772D01*
X171263228Y-70981955D01*
X171191380Y-70940473D01*
X171165473Y-70925515D01*
X171110955Y-70910907D01*
X171056439Y-70896300D01*
X170943561Y-70896300D01*
X170834526Y-70925515D01*
X170736772Y-70981955D01*
X170736769Y-70981957D01*
X170656957Y-71061769D01*
X170656955Y-71061772D01*
X170600515Y-71159526D01*
X170571300Y-71268561D01*
X152806958Y-71268561D01*
X152915472Y-71239485D01*
X153013228Y-71183045D01*
X153093045Y-71103228D01*
X153149485Y-71005472D01*
X153178700Y-70896439D01*
X153178700Y-70783561D01*
X153149485Y-70674528D01*
X153093045Y-70576772D01*
X153013228Y-70496955D01*
X152924602Y-70445786D01*
X152915473Y-70440515D01*
X152860955Y-70425907D01*
X152806439Y-70411300D01*
X152693561Y-70411300D01*
X152584526Y-70440515D01*
X152486772Y-70496955D01*
X152486769Y-70496957D01*
X152406957Y-70576769D01*
X152406955Y-70576772D01*
X152350515Y-70674526D01*
X152338615Y-70718939D01*
X152321300Y-70783561D01*
X150079312Y-70783561D01*
X150079319Y-70775322D01*
X150079688Y-70365269D01*
X163896300Y-70365269D01*
X163896300Y-70484731D01*
X163927219Y-70600122D01*
X163986950Y-70703578D01*
X164071422Y-70788050D01*
X164174878Y-70847781D01*
X164290269Y-70878700D01*
X164290271Y-70878700D01*
X164409728Y-70878700D01*
X164409731Y-70878700D01*
X164525122Y-70847781D01*
X164628578Y-70788050D01*
X164713050Y-70703578D01*
X164772781Y-70600122D01*
X164784920Y-70554819D01*
X176082558Y-70554819D01*
X176082558Y-70667697D01*
X176085040Y-70676960D01*
X176111773Y-70776731D01*
X176137424Y-70821159D01*
X176168213Y-70874486D01*
X176248030Y-70954303D01*
X176345786Y-71010743D01*
X176454819Y-71039958D01*
X176454821Y-71039958D01*
X176567695Y-71039958D01*
X176567697Y-71039958D01*
X176676730Y-71010743D01*
X176774486Y-70954303D01*
X176854303Y-70874486D01*
X176910743Y-70776730D01*
X176939958Y-70667697D01*
X176939958Y-70606061D01*
X177458800Y-70606061D01*
X177458800Y-70718938D01*
X177488015Y-70827973D01*
X177501934Y-70852080D01*
X177544455Y-70925728D01*
X177624272Y-71005545D01*
X177722028Y-71061985D01*
X177831061Y-71091200D01*
X177831063Y-71091200D01*
X177943937Y-71091200D01*
X177943939Y-71091200D01*
X178052972Y-71061985D01*
X178150728Y-71005545D01*
X178230545Y-70925728D01*
X178286985Y-70827972D01*
X178316200Y-70718939D01*
X178316200Y-70606061D01*
X178286985Y-70497028D01*
X178230545Y-70399272D01*
X178169922Y-70338649D01*
X181272920Y-70338649D01*
X181272920Y-70458111D01*
X181303839Y-70573502D01*
X181363570Y-70676958D01*
X181448042Y-70761430D01*
X181551498Y-70821161D01*
X181666889Y-70852080D01*
X181666891Y-70852080D01*
X181786348Y-70852080D01*
X181786351Y-70852080D01*
X181901742Y-70821161D01*
X182005198Y-70761430D01*
X182089670Y-70676958D01*
X182149401Y-70573502D01*
X182180320Y-70458111D01*
X182180320Y-70338649D01*
X182149401Y-70223258D01*
X182089670Y-70119802D01*
X182005198Y-70035330D01*
X181901742Y-69975599D01*
X181786351Y-69944680D01*
X181666889Y-69944680D01*
X181551498Y-69975599D01*
X181551496Y-69975599D01*
X181551496Y-69975600D01*
X181448042Y-70035330D01*
X181448039Y-70035332D01*
X181363572Y-70119799D01*
X181363570Y-70119802D01*
X181348203Y-70146419D01*
X181303839Y-70223258D01*
X181272920Y-70338649D01*
X178169922Y-70338649D01*
X178150728Y-70319455D01*
X178061979Y-70268215D01*
X178052973Y-70263015D01*
X177998455Y-70248407D01*
X177943939Y-70233800D01*
X177831061Y-70233800D01*
X177722026Y-70263015D01*
X177624272Y-70319455D01*
X177624269Y-70319457D01*
X177544457Y-70399269D01*
X177544455Y-70399272D01*
X177488015Y-70497026D01*
X177458800Y-70606061D01*
X176939958Y-70606061D01*
X176939958Y-70554819D01*
X176910743Y-70445786D01*
X176854303Y-70348030D01*
X176774486Y-70268213D01*
X176714882Y-70233800D01*
X176676731Y-70211773D01*
X176588865Y-70188230D01*
X176567697Y-70182558D01*
X176454819Y-70182558D01*
X176345784Y-70211773D01*
X176248030Y-70268213D01*
X176248027Y-70268215D01*
X176168215Y-70348027D01*
X176168213Y-70348030D01*
X176111773Y-70445784D01*
X176098062Y-70496955D01*
X176082558Y-70554819D01*
X164784920Y-70554819D01*
X164803700Y-70484731D01*
X164803700Y-70365269D01*
X164772781Y-70249878D01*
X164713050Y-70146422D01*
X164628578Y-70061950D01*
X164525122Y-70002219D01*
X164409731Y-69971300D01*
X164290269Y-69971300D01*
X164174878Y-70002219D01*
X164174876Y-70002219D01*
X164174876Y-70002220D01*
X164071422Y-70061950D01*
X164071419Y-70061952D01*
X163986952Y-70146419D01*
X163986950Y-70146422D01*
X163927219Y-70249878D01*
X163896300Y-70365269D01*
X150079688Y-70365269D01*
X150080136Y-69868561D01*
X159496300Y-69868561D01*
X159496300Y-69981438D01*
X159525515Y-70090473D01*
X159542447Y-70119799D01*
X159581955Y-70188228D01*
X159661772Y-70268045D01*
X159759528Y-70324485D01*
X159868561Y-70353700D01*
X159868563Y-70353700D01*
X159981437Y-70353700D01*
X159981439Y-70353700D01*
X160090472Y-70324485D01*
X160188228Y-70268045D01*
X160268045Y-70188228D01*
X160324485Y-70090472D01*
X160353700Y-69981439D01*
X160353700Y-69868561D01*
X160324485Y-69759528D01*
X160268045Y-69661772D01*
X160188228Y-69581955D01*
X160120833Y-69543044D01*
X160090473Y-69525515D01*
X160035955Y-69510907D01*
X159981439Y-69496300D01*
X159868561Y-69496300D01*
X159759526Y-69525515D01*
X159661772Y-69581955D01*
X159661769Y-69581957D01*
X159581957Y-69661769D01*
X159581955Y-69661772D01*
X159525515Y-69759526D01*
X159496300Y-69868561D01*
X150080136Y-69868561D01*
X150080143Y-69860322D01*
X150080698Y-69243561D01*
X163021300Y-69243561D01*
X163021300Y-69356439D01*
X163023721Y-69365473D01*
X163050515Y-69465473D01*
X163066434Y-69493044D01*
X163106955Y-69563228D01*
X163186772Y-69643045D01*
X163284528Y-69699485D01*
X163393561Y-69728700D01*
X163393563Y-69728700D01*
X163506437Y-69728700D01*
X163506439Y-69728700D01*
X163615472Y-69699485D01*
X163713228Y-69643045D01*
X163793045Y-69563228D01*
X163849485Y-69465472D01*
X163878700Y-69356439D01*
X163878700Y-69243561D01*
X163851905Y-69143561D01*
X167531300Y-69143561D01*
X167531300Y-69256438D01*
X167560515Y-69365473D01*
X167588087Y-69413227D01*
X167616955Y-69463228D01*
X167696772Y-69543045D01*
X167794528Y-69599485D01*
X167903561Y-69628700D01*
X167903563Y-69628700D01*
X168016437Y-69628700D01*
X168016439Y-69628700D01*
X168062680Y-69616310D01*
X191621299Y-69616310D01*
X191655627Y-69744422D01*
X191655628Y-69744423D01*
X191721937Y-69859275D01*
X191721939Y-69859278D01*
X191721940Y-69859279D01*
X191815721Y-69953060D01*
X191815722Y-69953061D01*
X191815724Y-69953062D01*
X191864872Y-69981437D01*
X191930579Y-70019373D01*
X192058687Y-70053700D01*
X192058690Y-70053700D01*
X192191310Y-70053700D01*
X192191313Y-70053700D01*
X192319421Y-70019373D01*
X192434279Y-69953060D01*
X192528060Y-69859279D01*
X192594373Y-69744421D01*
X192628700Y-69616313D01*
X192628700Y-69483687D01*
X192594373Y-69355579D01*
X192528060Y-69240721D01*
X192434279Y-69146940D01*
X192434278Y-69146939D01*
X192434275Y-69146937D01*
X192319423Y-69080628D01*
X192319422Y-69080627D01*
X192287394Y-69072045D01*
X192191313Y-69046300D01*
X192058687Y-69046300D01*
X191981822Y-69066896D01*
X191930577Y-69080627D01*
X191930576Y-69080628D01*
X191815724Y-69146937D01*
X191815719Y-69146941D01*
X191721941Y-69240719D01*
X191721937Y-69240724D01*
X191655628Y-69355576D01*
X191655627Y-69355577D01*
X191640180Y-69413227D01*
X191621300Y-69483687D01*
X191621300Y-69483689D01*
X191621300Y-69616310D01*
X191621299Y-69616310D01*
X168062680Y-69616310D01*
X168125472Y-69599485D01*
X168223228Y-69543045D01*
X168303045Y-69463228D01*
X168359485Y-69365472D01*
X168388700Y-69256439D01*
X168388700Y-69143561D01*
X168375303Y-69093561D01*
X169831300Y-69093561D01*
X169831300Y-69206438D01*
X169860515Y-69315473D01*
X169888735Y-69364350D01*
X169916955Y-69413228D01*
X169996772Y-69493045D01*
X170081428Y-69541922D01*
X170083368Y-69543042D01*
X170094528Y-69549485D01*
X170203561Y-69578700D01*
X170203563Y-69578700D01*
X170316437Y-69578700D01*
X170316439Y-69578700D01*
X170425472Y-69549485D01*
X170523228Y-69493045D01*
X170603045Y-69413228D01*
X170659485Y-69315472D01*
X170688700Y-69206439D01*
X170688700Y-69093561D01*
X170659485Y-68984528D01*
X170603045Y-68886772D01*
X170523228Y-68806955D01*
X170474350Y-68778735D01*
X170425473Y-68750515D01*
X170370955Y-68735907D01*
X170316439Y-68721300D01*
X170203561Y-68721300D01*
X170094526Y-68750515D01*
X169996772Y-68806955D01*
X169996769Y-68806957D01*
X169916957Y-68886769D01*
X169916955Y-68886772D01*
X169860515Y-68984526D01*
X169831300Y-69093561D01*
X168375303Y-69093561D01*
X168359485Y-69034528D01*
X168303045Y-68936772D01*
X168223228Y-68856955D01*
X168174350Y-68828735D01*
X168125473Y-68800515D01*
X168070955Y-68785907D01*
X168016439Y-68771300D01*
X167903561Y-68771300D01*
X167794526Y-68800515D01*
X167696772Y-68856955D01*
X167696769Y-68856957D01*
X167616957Y-68936769D01*
X167616955Y-68936772D01*
X167560515Y-69034526D01*
X167531300Y-69143561D01*
X163851905Y-69143561D01*
X163849485Y-69134528D01*
X163793045Y-69036772D01*
X163713228Y-68956955D01*
X163664350Y-68928735D01*
X163615473Y-68900515D01*
X163560955Y-68885907D01*
X163506439Y-68871300D01*
X163393561Y-68871300D01*
X163284526Y-68900515D01*
X163186772Y-68956955D01*
X163186769Y-68956957D01*
X163106957Y-69036769D01*
X163106955Y-69036772D01*
X163050515Y-69134526D01*
X163022061Y-69240721D01*
X163021300Y-69243561D01*
X150080698Y-69243561D01*
X150080705Y-69235322D01*
X150081756Y-68068042D01*
X150082318Y-67443561D01*
X169631300Y-67443561D01*
X169631300Y-67556439D01*
X169637999Y-67581439D01*
X169660515Y-67665473D01*
X169674949Y-67690472D01*
X169716955Y-67763228D01*
X169796772Y-67843045D01*
X169894528Y-67899485D01*
X170003561Y-67928700D01*
X170003563Y-67928700D01*
X170116437Y-67928700D01*
X170116439Y-67928700D01*
X170225472Y-67899485D01*
X170323228Y-67843045D01*
X170403045Y-67763228D01*
X170459485Y-67665472D01*
X170488700Y-67556439D01*
X170488700Y-67468561D01*
X172171300Y-67468561D01*
X172171300Y-67581438D01*
X172200515Y-67690473D01*
X172228735Y-67739350D01*
X172256955Y-67788228D01*
X172336772Y-67868045D01*
X172434528Y-67924485D01*
X172543561Y-67953700D01*
X172543563Y-67953700D01*
X172656437Y-67953700D01*
X172656439Y-67953700D01*
X172765472Y-67924485D01*
X172863228Y-67868045D01*
X172943045Y-67788228D01*
X172999485Y-67690472D01*
X173028700Y-67581439D01*
X173028700Y-67468561D01*
X173000566Y-67363561D01*
X173971300Y-67363561D01*
X173971300Y-67476438D01*
X174000515Y-67585473D01*
X174028735Y-67634350D01*
X174056955Y-67683228D01*
X174136772Y-67763045D01*
X174234528Y-67819485D01*
X174343561Y-67848700D01*
X174343563Y-67848700D01*
X174456437Y-67848700D01*
X174456439Y-67848700D01*
X174565472Y-67819485D01*
X174663228Y-67763045D01*
X174743045Y-67683228D01*
X174799485Y-67585472D01*
X174828700Y-67476439D01*
X174828700Y-67363561D01*
X174807350Y-67283881D01*
X174809013Y-67214034D01*
X174848175Y-67156171D01*
X174912404Y-67128667D01*
X174981306Y-67140253D01*
X174989126Y-67144404D01*
X175084522Y-67199482D01*
X175084523Y-67199482D01*
X175084528Y-67199485D01*
X175193561Y-67228700D01*
X175193563Y-67228700D01*
X175306437Y-67228700D01*
X175306439Y-67228700D01*
X175415472Y-67199485D01*
X175513228Y-67143045D01*
X175593045Y-67063228D01*
X175649485Y-66965472D01*
X175678700Y-66856439D01*
X175678700Y-66743561D01*
X175649485Y-66634528D01*
X175647999Y-66631955D01*
X175615413Y-66575515D01*
X175593045Y-66536772D01*
X175513228Y-66456955D01*
X175442835Y-66416313D01*
X175415473Y-66400515D01*
X175360955Y-66385907D01*
X175306439Y-66371300D01*
X175193561Y-66371300D01*
X175084526Y-66400515D01*
X174986772Y-66456955D01*
X174986769Y-66456957D01*
X174906957Y-66536769D01*
X174906955Y-66536772D01*
X174850515Y-66634526D01*
X174821300Y-66743561D01*
X174821300Y-66856438D01*
X174842649Y-66936116D01*
X174840986Y-67005966D01*
X174801823Y-67063829D01*
X174737594Y-67091332D01*
X174668692Y-67079745D01*
X174660887Y-67075603D01*
X174565472Y-67020515D01*
X174456439Y-66991300D01*
X174343561Y-66991300D01*
X174234526Y-67020515D01*
X174136772Y-67076955D01*
X174136769Y-67076957D01*
X174056957Y-67156769D01*
X174056955Y-67156772D01*
X174000515Y-67254526D01*
X173971300Y-67363561D01*
X173000566Y-67363561D01*
X172999485Y-67359528D01*
X172943045Y-67261772D01*
X172863228Y-67181955D01*
X172804393Y-67147986D01*
X172765473Y-67125515D01*
X172710955Y-67110907D01*
X172656439Y-67096300D01*
X172543561Y-67096300D01*
X172475205Y-67114615D01*
X172475202Y-67114616D01*
X172434526Y-67125515D01*
X172336772Y-67181955D01*
X172336769Y-67181957D01*
X172256957Y-67261769D01*
X172256955Y-67261772D01*
X172200515Y-67359526D01*
X172171300Y-67468561D01*
X170488700Y-67468561D01*
X170488700Y-67443561D01*
X170459485Y-67334528D01*
X170403045Y-67236772D01*
X170323228Y-67156955D01*
X170268773Y-67125515D01*
X170225473Y-67100515D01*
X170137551Y-67076957D01*
X170116439Y-67071300D01*
X170003561Y-67071300D01*
X169909070Y-67096618D01*
X169909068Y-67096618D01*
X169894528Y-67100515D01*
X169796772Y-67156955D01*
X169783555Y-67170171D01*
X169783553Y-67170173D01*
X169716954Y-67236772D01*
X169660515Y-67334526D01*
X169634338Y-67432222D01*
X169631300Y-67443561D01*
X150082318Y-67443561D01*
X150083243Y-66416310D01*
X156401299Y-66416310D01*
X156435627Y-66544422D01*
X156435628Y-66544423D01*
X156501937Y-66659275D01*
X156501939Y-66659278D01*
X156501940Y-66659279D01*
X156595721Y-66753060D01*
X156595722Y-66753061D01*
X156595724Y-66753062D01*
X156623974Y-66769372D01*
X156710579Y-66819373D01*
X156838687Y-66853700D01*
X156838690Y-66853700D01*
X156971310Y-66853700D01*
X156971313Y-66853700D01*
X157099421Y-66819373D01*
X157214279Y-66753060D01*
X157308060Y-66659279D01*
X157374373Y-66544421D01*
X157394242Y-66470269D01*
X169041300Y-66470269D01*
X169041300Y-66589731D01*
X169072219Y-66705122D01*
X169131950Y-66808578D01*
X169216422Y-66893050D01*
X169319878Y-66952781D01*
X169435269Y-66983700D01*
X169435271Y-66983700D01*
X169554728Y-66983700D01*
X169554731Y-66983700D01*
X169670122Y-66952781D01*
X169773578Y-66893050D01*
X169858050Y-66808578D01*
X169917781Y-66705122D01*
X169948700Y-66589731D01*
X169948700Y-66470269D01*
X169925467Y-66383561D01*
X172031300Y-66383561D01*
X172031300Y-66496438D01*
X172060515Y-66605473D01*
X172088735Y-66654350D01*
X172116955Y-66703228D01*
X172196772Y-66783045D01*
X172294528Y-66839485D01*
X172403561Y-66868700D01*
X172403563Y-66868700D01*
X172443117Y-66868700D01*
X172516439Y-66868700D01*
X172625472Y-66839485D01*
X172723228Y-66783045D01*
X172803045Y-66703228D01*
X172859485Y-66605472D01*
X172888700Y-66496439D01*
X172888700Y-66383561D01*
X172859485Y-66274528D01*
X172803045Y-66176772D01*
X172723228Y-66096955D01*
X172717349Y-66093561D01*
X176771300Y-66093561D01*
X176771300Y-66206438D01*
X176800515Y-66315473D01*
X176823265Y-66354876D01*
X176856955Y-66413228D01*
X176936772Y-66493045D01*
X177034528Y-66549485D01*
X177130556Y-66575215D01*
X177190214Y-66611578D01*
X177220744Y-66674425D01*
X177212450Y-66743801D01*
X177205848Y-66756989D01*
X177175516Y-66809524D01*
X177175516Y-66809525D01*
X177175516Y-66809526D01*
X177175515Y-66809528D01*
X177146300Y-66918561D01*
X177146300Y-67031439D01*
X177175456Y-67140253D01*
X177175516Y-67140474D01*
X177178627Y-67147986D01*
X177175455Y-67149299D01*
X177188165Y-67201841D01*
X177165269Y-67267853D01*
X177110319Y-67311007D01*
X177096405Y-67315633D01*
X177059528Y-67325514D01*
X176961772Y-67381955D01*
X176961769Y-67381957D01*
X176881957Y-67461769D01*
X176881955Y-67461772D01*
X176825515Y-67559526D01*
X176796300Y-67668561D01*
X176796300Y-67781438D01*
X176825515Y-67890473D01*
X176847586Y-67928700D01*
X176881955Y-67988228D01*
X176961772Y-68068045D01*
X177059528Y-68124485D01*
X177168561Y-68153700D01*
X177168563Y-68153700D01*
X177281437Y-68153700D01*
X177281439Y-68153700D01*
X177390472Y-68124485D01*
X177488228Y-68068045D01*
X177568045Y-67988228D01*
X177624485Y-67890472D01*
X177653700Y-67781439D01*
X177653700Y-67668561D01*
X177624485Y-67559528D01*
X177624482Y-67559523D01*
X177621373Y-67552014D01*
X177624557Y-67550695D01*
X177611830Y-67498250D01*
X177634676Y-67432222D01*
X177689594Y-67389026D01*
X177703588Y-67384367D01*
X177740472Y-67374485D01*
X177838228Y-67318045D01*
X177918045Y-67238228D01*
X177974485Y-67140472D01*
X178000452Y-67043561D01*
X182846300Y-67043561D01*
X182846300Y-67156439D01*
X182857834Y-67199484D01*
X182875515Y-67265473D01*
X182893314Y-67296300D01*
X182931955Y-67363228D01*
X183011772Y-67443045D01*
X183109528Y-67499485D01*
X183218561Y-67528700D01*
X183218563Y-67528700D01*
X183331437Y-67528700D01*
X183331439Y-67528700D01*
X183440472Y-67499485D01*
X183538228Y-67443045D01*
X183618045Y-67363228D01*
X183674485Y-67265472D01*
X183703700Y-67156439D01*
X183703700Y-67043561D01*
X183674485Y-66934528D01*
X183618045Y-66836772D01*
X183538228Y-66756955D01*
X183459970Y-66711772D01*
X183440473Y-66700515D01*
X183385955Y-66685907D01*
X183331439Y-66671300D01*
X183218561Y-66671300D01*
X183109526Y-66700515D01*
X183011772Y-66756955D01*
X183011769Y-66756957D01*
X182931957Y-66836769D01*
X182931955Y-66836772D01*
X182875515Y-66934526D01*
X182860303Y-66991300D01*
X182846300Y-67043561D01*
X178000452Y-67043561D01*
X178003700Y-67031439D01*
X178003700Y-66918561D01*
X177974485Y-66809528D01*
X177973935Y-66808576D01*
X177951301Y-66769373D01*
X177918045Y-66711772D01*
X177838228Y-66631955D01*
X177740472Y-66575515D01*
X177644442Y-66549784D01*
X177584784Y-66513420D01*
X177554255Y-66450573D01*
X177560071Y-66387448D01*
X177563764Y-66377341D01*
X177570133Y-66366310D01*
X179771299Y-66366310D01*
X179805627Y-66494422D01*
X179805628Y-66494423D01*
X179871937Y-66609275D01*
X179871939Y-66609278D01*
X179871940Y-66609279D01*
X179965721Y-66703060D01*
X179965722Y-66703061D01*
X179965724Y-66703062D01*
X180023150Y-66736216D01*
X180080579Y-66769373D01*
X180208687Y-66803700D01*
X180208690Y-66803700D01*
X180341310Y-66803700D01*
X180341313Y-66803700D01*
X180469421Y-66769373D01*
X180584279Y-66703060D01*
X180678060Y-66609279D01*
X180744373Y-66494421D01*
X180778700Y-66366313D01*
X180778700Y-66233687D01*
X180744373Y-66105579D01*
X180678060Y-65990721D01*
X180584279Y-65896940D01*
X180584278Y-65896939D01*
X180584275Y-65896937D01*
X180469423Y-65830628D01*
X180469422Y-65830627D01*
X180437394Y-65822045D01*
X180341313Y-65796300D01*
X180208687Y-65796300D01*
X180131822Y-65816896D01*
X180080577Y-65830627D01*
X180080576Y-65830628D01*
X179965724Y-65896937D01*
X179965719Y-65896941D01*
X179871941Y-65990719D01*
X179871937Y-65990724D01*
X179805628Y-66105576D01*
X179805627Y-66105577D01*
X179805187Y-66107220D01*
X179771300Y-66233687D01*
X179771300Y-66233689D01*
X179771300Y-66366310D01*
X179771299Y-66366310D01*
X177570133Y-66366310D01*
X177599485Y-66315472D01*
X177628700Y-66206439D01*
X177628700Y-66093561D01*
X177599485Y-65984528D01*
X177543045Y-65886772D01*
X177463228Y-65806955D01*
X177414350Y-65778735D01*
X177365473Y-65750515D01*
X177310955Y-65735907D01*
X177256439Y-65721300D01*
X177143561Y-65721300D01*
X177034526Y-65750515D01*
X176936772Y-65806955D01*
X176936769Y-65806957D01*
X176856957Y-65886769D01*
X176856955Y-65886772D01*
X176800515Y-65984526D01*
X176771300Y-66093561D01*
X172717349Y-66093561D01*
X172674350Y-66068735D01*
X172625473Y-66040515D01*
X172570955Y-66025907D01*
X172516439Y-66011300D01*
X172403561Y-66011300D01*
X172294526Y-66040515D01*
X172196772Y-66096955D01*
X172196769Y-66096957D01*
X172116957Y-66176769D01*
X172116955Y-66176772D01*
X172060515Y-66274526D01*
X172031300Y-66383561D01*
X169925467Y-66383561D01*
X169917781Y-66354878D01*
X169858050Y-66251422D01*
X169773578Y-66166950D01*
X169670122Y-66107219D01*
X169554731Y-66076300D01*
X169435269Y-66076300D01*
X169319878Y-66107219D01*
X169319876Y-66107219D01*
X169319876Y-66107220D01*
X169216422Y-66166950D01*
X169216419Y-66166952D01*
X169131952Y-66251419D01*
X169131950Y-66251422D01*
X169072219Y-66354878D01*
X169041300Y-66470269D01*
X157394242Y-66470269D01*
X157408700Y-66416313D01*
X157408700Y-66283687D01*
X157374373Y-66155579D01*
X157338567Y-66093561D01*
X157308062Y-66040724D01*
X157308058Y-66040719D01*
X157214280Y-65946941D01*
X157214275Y-65946937D01*
X157099423Y-65880628D01*
X157099422Y-65880627D01*
X157067394Y-65872045D01*
X156971313Y-65846300D01*
X156838687Y-65846300D01*
X156761822Y-65866896D01*
X156710577Y-65880627D01*
X156710576Y-65880628D01*
X156595724Y-65946937D01*
X156595719Y-65946941D01*
X156501941Y-66040719D01*
X156501937Y-66040724D01*
X156435628Y-66155576D01*
X156435627Y-66155577D01*
X156429949Y-66176769D01*
X156401300Y-66283687D01*
X156401300Y-66283689D01*
X156401300Y-66416310D01*
X156401299Y-66416310D01*
X150083243Y-66416310D01*
X150084703Y-64793561D01*
X159046300Y-64793561D01*
X159046300Y-64906438D01*
X159075515Y-65015473D01*
X159103735Y-65064350D01*
X159131955Y-65113228D01*
X159211772Y-65193045D01*
X159309528Y-65249485D01*
X159418561Y-65278700D01*
X159418563Y-65278700D01*
X159531437Y-65278700D01*
X159531439Y-65278700D01*
X159640472Y-65249485D01*
X159738228Y-65193045D01*
X159787712Y-65143561D01*
X179371300Y-65143561D01*
X179371300Y-65256439D01*
X179377265Y-65278700D01*
X179400515Y-65365473D01*
X179428735Y-65414350D01*
X179456955Y-65463228D01*
X179536772Y-65543045D01*
X179634528Y-65599485D01*
X179743561Y-65628700D01*
X179743563Y-65628700D01*
X179856437Y-65628700D01*
X179856439Y-65628700D01*
X179965472Y-65599485D01*
X180063228Y-65543045D01*
X180143045Y-65463228D01*
X180199485Y-65365472D01*
X180228700Y-65256439D01*
X180228700Y-65143561D01*
X180199485Y-65034528D01*
X180143045Y-64936772D01*
X180063228Y-64856955D01*
X179995833Y-64818044D01*
X179965473Y-64800515D01*
X179908770Y-64785322D01*
X179856439Y-64771300D01*
X179743561Y-64771300D01*
X179634526Y-64800515D01*
X179536772Y-64856955D01*
X179536769Y-64856957D01*
X179456957Y-64936769D01*
X179456955Y-64936772D01*
X179400515Y-65034526D01*
X179379427Y-65113230D01*
X179371300Y-65143561D01*
X159787712Y-65143561D01*
X159818045Y-65113228D01*
X159837981Y-65078699D01*
X159841022Y-65073432D01*
X159841022Y-65073431D01*
X159874483Y-65015475D01*
X159874485Y-65015472D01*
X159903700Y-64906439D01*
X159903700Y-64793561D01*
X159874485Y-64684528D01*
X159818045Y-64586772D01*
X159738228Y-64506955D01*
X159671969Y-64468700D01*
X159640473Y-64450515D01*
X159585955Y-64435907D01*
X159531439Y-64421300D01*
X159418561Y-64421300D01*
X159309526Y-64450515D01*
X159211772Y-64506955D01*
X159211769Y-64506957D01*
X159131957Y-64586769D01*
X159131955Y-64586772D01*
X159075515Y-64684526D01*
X159046300Y-64793561D01*
X150084703Y-64793561D01*
X150085041Y-64418561D01*
X163021300Y-64418561D01*
X163021300Y-64531438D01*
X163050515Y-64640473D01*
X163075950Y-64684526D01*
X163106955Y-64738228D01*
X163186772Y-64818045D01*
X163284528Y-64874485D01*
X163393561Y-64903700D01*
X163393563Y-64903700D01*
X163506437Y-64903700D01*
X163506439Y-64903700D01*
X163615472Y-64874485D01*
X163713228Y-64818045D01*
X163793045Y-64738228D01*
X163849485Y-64640472D01*
X163878700Y-64531439D01*
X163878700Y-64418561D01*
X163849485Y-64309528D01*
X163847999Y-64306955D01*
X163802818Y-64228700D01*
X163793045Y-64211772D01*
X163713228Y-64131955D01*
X163651713Y-64096439D01*
X163615473Y-64075515D01*
X163560955Y-64060907D01*
X163506439Y-64046300D01*
X163393561Y-64046300D01*
X163284526Y-64075515D01*
X163186772Y-64131955D01*
X163186769Y-64131957D01*
X163106957Y-64211769D01*
X163106955Y-64211772D01*
X163050515Y-64309526D01*
X163021300Y-64418561D01*
X150085041Y-64418561D01*
X150085827Y-63545521D01*
X169696300Y-63545521D01*
X169696300Y-63704479D01*
X169737441Y-63858019D01*
X169816920Y-63995680D01*
X169929320Y-64108080D01*
X170066981Y-64187559D01*
X170220521Y-64228700D01*
X170220523Y-64228700D01*
X170379476Y-64228700D01*
X170379479Y-64228700D01*
X170533019Y-64187559D01*
X170670680Y-64108080D01*
X170783080Y-63995680D01*
X170862559Y-63858019D01*
X170903700Y-63704479D01*
X170903700Y-63693561D01*
X177371300Y-63693561D01*
X177371300Y-63806438D01*
X177400515Y-63915473D01*
X177419082Y-63947631D01*
X177456955Y-64013228D01*
X177536772Y-64093045D01*
X177634528Y-64149485D01*
X177743561Y-64178700D01*
X177743563Y-64178700D01*
X177856437Y-64178700D01*
X177856439Y-64178700D01*
X177965472Y-64149485D01*
X178063228Y-64093045D01*
X178143045Y-64013228D01*
X178199485Y-63915472D01*
X178228700Y-63806439D01*
X178228700Y-63693561D01*
X178212623Y-63633561D01*
X181169048Y-63633561D01*
X181203376Y-63761673D01*
X181203377Y-63761674D01*
X181269686Y-63876526D01*
X181269688Y-63876529D01*
X181269689Y-63876530D01*
X181363470Y-63970311D01*
X181363471Y-63970312D01*
X181363473Y-63970313D01*
X181407414Y-63995682D01*
X181478328Y-64036624D01*
X181606436Y-64070951D01*
X181606439Y-64070951D01*
X181739059Y-64070951D01*
X181739062Y-64070951D01*
X181867170Y-64036624D01*
X181982028Y-63970311D01*
X182075809Y-63876530D01*
X182109344Y-63818445D01*
X184898434Y-63818445D01*
X184932762Y-63946557D01*
X184932763Y-63946558D01*
X184999072Y-64061410D01*
X184999074Y-64061413D01*
X184999075Y-64061414D01*
X185092856Y-64155195D01*
X185207714Y-64221508D01*
X185335822Y-64255835D01*
X185335825Y-64255835D01*
X185468445Y-64255835D01*
X185468448Y-64255835D01*
X185596556Y-64221508D01*
X185711414Y-64155195D01*
X185805195Y-64061414D01*
X185850143Y-63983561D01*
X186271300Y-63983561D01*
X186271300Y-64096439D01*
X186274419Y-64108079D01*
X186300515Y-64205473D01*
X186310884Y-64223432D01*
X186356955Y-64303228D01*
X186436772Y-64383045D01*
X186534528Y-64439485D01*
X186643561Y-64468700D01*
X186643563Y-64468700D01*
X186756437Y-64468700D01*
X186756439Y-64468700D01*
X186865472Y-64439485D01*
X186963228Y-64383045D01*
X187043045Y-64303228D01*
X187048627Y-64293560D01*
X188605326Y-64293560D01*
X188605326Y-64406438D01*
X188608575Y-64418563D01*
X188634541Y-64515472D01*
X188643760Y-64531439D01*
X188690981Y-64613227D01*
X188770798Y-64693044D01*
X188868554Y-64749484D01*
X188977587Y-64778699D01*
X188977589Y-64778699D01*
X189090463Y-64778699D01*
X189090465Y-64778699D01*
X189199498Y-64749484D01*
X189297254Y-64693044D01*
X189377071Y-64613227D01*
X189388425Y-64593561D01*
X193846300Y-64593561D01*
X193846300Y-64706439D01*
X193857834Y-64749484D01*
X193875515Y-64815473D01*
X193899465Y-64856955D01*
X193931955Y-64913228D01*
X194011772Y-64993045D01*
X194109528Y-65049485D01*
X194218561Y-65078700D01*
X194218563Y-65078700D01*
X194331437Y-65078700D01*
X194331439Y-65078700D01*
X194440472Y-65049485D01*
X194538228Y-64993045D01*
X194618045Y-64913228D01*
X194674485Y-64815472D01*
X194703700Y-64706439D01*
X194703700Y-64593561D01*
X194674485Y-64484528D01*
X194618045Y-64386772D01*
X194538228Y-64306955D01*
X194489350Y-64278735D01*
X194440473Y-64250515D01*
X194359056Y-64228700D01*
X194331439Y-64221300D01*
X194218561Y-64221300D01*
X194109526Y-64250515D01*
X194011772Y-64306955D01*
X194011769Y-64306957D01*
X193931957Y-64386769D01*
X193931955Y-64386772D01*
X193875515Y-64484526D01*
X193862945Y-64531439D01*
X193846300Y-64593561D01*
X189388425Y-64593561D01*
X189433511Y-64515471D01*
X189462726Y-64406438D01*
X189462726Y-64293560D01*
X189433511Y-64184527D01*
X189377071Y-64086771D01*
X189297254Y-64006954D01*
X189233784Y-63970309D01*
X189199499Y-63950514D01*
X189144981Y-63935906D01*
X189090465Y-63921299D01*
X188977587Y-63921299D01*
X188868552Y-63950514D01*
X188770798Y-64006954D01*
X188770795Y-64006956D01*
X188690983Y-64086768D01*
X188690981Y-64086771D01*
X188634541Y-64184525D01*
X188622705Y-64228700D01*
X188605326Y-64293560D01*
X187048627Y-64293560D01*
X187070408Y-64255835D01*
X187089117Y-64223432D01*
X187089117Y-64223431D01*
X187099482Y-64205479D01*
X187099482Y-64205476D01*
X187099485Y-64205472D01*
X187128700Y-64096439D01*
X187128700Y-63983561D01*
X187099485Y-63874528D01*
X187065872Y-63816310D01*
X191621299Y-63816310D01*
X191655627Y-63944422D01*
X191655628Y-63944423D01*
X191721937Y-64059275D01*
X191721939Y-64059277D01*
X191721940Y-64059279D01*
X191815721Y-64153060D01*
X191815722Y-64153061D01*
X191815724Y-64153062D01*
X191819415Y-64155193D01*
X191930579Y-64219373D01*
X192058687Y-64253700D01*
X192058690Y-64253700D01*
X192191310Y-64253700D01*
X192191313Y-64253700D01*
X192319421Y-64219373D01*
X192434279Y-64153060D01*
X192528060Y-64059279D01*
X192557048Y-64009069D01*
X192607614Y-63960855D01*
X192676221Y-63947631D01*
X192741086Y-63973599D01*
X192752116Y-63983389D01*
X192756954Y-63988227D01*
X192756955Y-63988228D01*
X192836772Y-64068045D01*
X192934528Y-64124485D01*
X193043561Y-64153700D01*
X193043563Y-64153700D01*
X193156437Y-64153700D01*
X193156439Y-64153700D01*
X193265472Y-64124485D01*
X193363228Y-64068045D01*
X193443045Y-63988228D01*
X193499485Y-63890472D01*
X193528700Y-63781439D01*
X193528700Y-63668561D01*
X193499485Y-63559528D01*
X193443045Y-63461772D01*
X193363228Y-63381955D01*
X193308773Y-63350515D01*
X193265473Y-63325515D01*
X193194398Y-63306471D01*
X193156439Y-63296300D01*
X193043561Y-63296300D01*
X192934526Y-63325515D01*
X192836772Y-63381955D01*
X192836769Y-63381957D01*
X192756957Y-63461769D01*
X192756950Y-63461778D01*
X192755967Y-63463482D01*
X192754761Y-63464631D01*
X192752007Y-63468221D01*
X192751446Y-63467791D01*
X192705396Y-63511695D01*
X192636789Y-63524913D01*
X192571926Y-63498940D01*
X192541196Y-63463474D01*
X192540213Y-63461772D01*
X192528060Y-63440721D01*
X192434279Y-63346940D01*
X192434278Y-63346939D01*
X192434275Y-63346937D01*
X192319423Y-63280628D01*
X192319422Y-63280627D01*
X192287394Y-63272045D01*
X192191313Y-63246300D01*
X192058687Y-63246300D01*
X191981822Y-63266896D01*
X191930577Y-63280627D01*
X191930576Y-63280628D01*
X191815724Y-63346937D01*
X191815719Y-63346941D01*
X191721941Y-63440719D01*
X191721937Y-63440724D01*
X191655628Y-63555576D01*
X191655627Y-63555577D01*
X191647870Y-63584528D01*
X191621300Y-63683687D01*
X191621300Y-63683689D01*
X191621300Y-63816310D01*
X191621299Y-63816310D01*
X187065872Y-63816310D01*
X187043045Y-63776772D01*
X186963228Y-63696955D01*
X186914049Y-63668561D01*
X186865473Y-63640515D01*
X186810955Y-63625907D01*
X186756439Y-63611300D01*
X186643561Y-63611300D01*
X186534526Y-63640515D01*
X186436772Y-63696955D01*
X186436769Y-63696957D01*
X186356957Y-63776769D01*
X186356955Y-63776772D01*
X186300515Y-63874526D01*
X186281787Y-63944421D01*
X186271300Y-63983561D01*
X185850143Y-63983561D01*
X185871508Y-63946556D01*
X185905835Y-63818448D01*
X185905835Y-63685822D01*
X185871508Y-63557714D01*
X185828973Y-63484041D01*
X185805197Y-63442859D01*
X185805193Y-63442854D01*
X185711415Y-63349076D01*
X185711410Y-63349072D01*
X185596558Y-63282763D01*
X185596557Y-63282762D01*
X185564529Y-63274180D01*
X185468448Y-63248435D01*
X185335822Y-63248435D01*
X185258957Y-63269031D01*
X185207712Y-63282762D01*
X185207711Y-63282763D01*
X185092859Y-63349072D01*
X185092854Y-63349076D01*
X184999076Y-63442854D01*
X184999072Y-63442859D01*
X184932763Y-63557711D01*
X184932762Y-63557712D01*
X184925577Y-63584528D01*
X184898435Y-63685822D01*
X184898435Y-63685824D01*
X184898435Y-63818445D01*
X184898434Y-63818445D01*
X182109344Y-63818445D01*
X182142122Y-63761672D01*
X182176449Y-63633564D01*
X182176449Y-63500938D01*
X182142122Y-63372830D01*
X182090122Y-63282763D01*
X182075811Y-63257975D01*
X182075807Y-63257970D01*
X181982029Y-63164192D01*
X181982024Y-63164188D01*
X181867172Y-63097879D01*
X181867171Y-63097878D01*
X181835143Y-63089296D01*
X181817468Y-63084560D01*
X188524284Y-63084560D01*
X188524284Y-63197437D01*
X188553499Y-63306472D01*
X188578095Y-63349072D01*
X188609939Y-63404227D01*
X188689756Y-63484044D01*
X188787512Y-63540484D01*
X188896545Y-63569699D01*
X188896547Y-63569699D01*
X189009421Y-63569699D01*
X189009423Y-63569699D01*
X189118456Y-63540484D01*
X189216212Y-63484044D01*
X189296029Y-63404227D01*
X189352469Y-63306471D01*
X189381684Y-63197438D01*
X189381684Y-63084560D01*
X189352469Y-62975527D01*
X189296029Y-62877771D01*
X189216212Y-62797954D01*
X189167334Y-62769734D01*
X189118457Y-62741514D01*
X189063939Y-62726906D01*
X189009423Y-62712299D01*
X188896545Y-62712299D01*
X188787510Y-62741514D01*
X188689756Y-62797954D01*
X188689753Y-62797956D01*
X188609941Y-62877768D01*
X188609939Y-62877771D01*
X188553499Y-62975525D01*
X188524284Y-63084560D01*
X181817468Y-63084560D01*
X181739062Y-63063551D01*
X181606436Y-63063551D01*
X181529571Y-63084147D01*
X181478326Y-63097878D01*
X181478325Y-63097879D01*
X181363473Y-63164188D01*
X181363468Y-63164192D01*
X181269690Y-63257970D01*
X181269686Y-63257975D01*
X181203377Y-63372827D01*
X181203376Y-63372828D01*
X181186212Y-63436884D01*
X181169049Y-63500938D01*
X181169049Y-63500940D01*
X181169049Y-63633561D01*
X181169048Y-63633561D01*
X178212623Y-63633561D01*
X178199485Y-63584528D01*
X178199483Y-63584524D01*
X178182328Y-63554810D01*
X178182327Y-63554808D01*
X178143049Y-63486778D01*
X178143046Y-63486775D01*
X178143045Y-63486772D01*
X178063228Y-63406955D01*
X178014350Y-63378735D01*
X177965473Y-63350515D01*
X177910955Y-63335907D01*
X177856439Y-63321300D01*
X177743561Y-63321300D01*
X177634526Y-63350515D01*
X177536772Y-63406955D01*
X177536769Y-63406957D01*
X177456957Y-63486769D01*
X177456955Y-63486772D01*
X177400515Y-63584526D01*
X177371300Y-63693561D01*
X170903700Y-63693561D01*
X170903700Y-63545521D01*
X170862559Y-63391981D01*
X170783080Y-63254320D01*
X170670680Y-63141920D01*
X170533019Y-63062441D01*
X170379479Y-63021300D01*
X170220521Y-63021300D01*
X170066981Y-63062441D01*
X170066979Y-63062441D01*
X170066979Y-63062442D01*
X169929320Y-63141920D01*
X169929317Y-63141922D01*
X169816922Y-63254317D01*
X169816920Y-63254320D01*
X169743230Y-63381955D01*
X169737441Y-63391981D01*
X169696300Y-63545521D01*
X150085827Y-63545521D01*
X150088688Y-60366310D01*
X152246299Y-60366310D01*
X152280627Y-60494422D01*
X152280628Y-60494423D01*
X152346937Y-60609275D01*
X152346939Y-60609278D01*
X152346940Y-60609279D01*
X152440721Y-60703060D01*
X152555579Y-60769373D01*
X152683687Y-60803700D01*
X152683690Y-60803700D01*
X152816310Y-60803700D01*
X152816313Y-60803700D01*
X152944421Y-60769373D01*
X153059279Y-60703060D01*
X153153060Y-60609279D01*
X153219373Y-60494421D01*
X153253700Y-60366313D01*
X153253700Y-60233687D01*
X153219373Y-60105579D01*
X153183567Y-60043561D01*
X180521300Y-60043561D01*
X180521300Y-60156438D01*
X180550515Y-60265473D01*
X180578735Y-60314350D01*
X180606955Y-60363228D01*
X180686772Y-60443045D01*
X180784528Y-60499485D01*
X180893561Y-60528700D01*
X180893563Y-60528700D01*
X181006437Y-60528700D01*
X181006439Y-60528700D01*
X181115472Y-60499485D01*
X181213228Y-60443045D01*
X181293045Y-60363228D01*
X181349485Y-60265472D01*
X181378700Y-60156439D01*
X181378700Y-60043561D01*
X181349485Y-59934528D01*
X181293045Y-59836772D01*
X181213228Y-59756955D01*
X181164350Y-59728735D01*
X181115473Y-59700515D01*
X181060955Y-59685907D01*
X181006439Y-59671300D01*
X180893561Y-59671300D01*
X180784526Y-59700515D01*
X180686772Y-59756955D01*
X180686769Y-59756957D01*
X180606957Y-59836769D01*
X180606955Y-59836772D01*
X180550515Y-59934526D01*
X180521300Y-60043561D01*
X153183567Y-60043561D01*
X153153060Y-59990721D01*
X153059279Y-59896940D01*
X153059278Y-59896939D01*
X153059275Y-59896937D01*
X152944423Y-59830628D01*
X152944422Y-59830627D01*
X152912394Y-59822045D01*
X152816313Y-59796300D01*
X152683687Y-59796300D01*
X152606822Y-59816896D01*
X152555577Y-59830627D01*
X152555576Y-59830628D01*
X152440724Y-59896937D01*
X152440719Y-59896941D01*
X152346941Y-59990719D01*
X152346937Y-59990724D01*
X152280628Y-60105576D01*
X152280627Y-60105577D01*
X152266999Y-60156437D01*
X152246300Y-60233687D01*
X152246300Y-60233689D01*
X152246300Y-60366310D01*
X152246299Y-60366310D01*
X150088688Y-60366310D01*
X150089314Y-59671300D01*
X150089970Y-58943561D01*
X170246300Y-58943561D01*
X170246300Y-59056438D01*
X170275515Y-59165473D01*
X170290001Y-59190562D01*
X170331955Y-59263228D01*
X170411772Y-59343045D01*
X170509528Y-59399485D01*
X170618561Y-59428700D01*
X170618563Y-59428700D01*
X170731437Y-59428700D01*
X170731439Y-59428700D01*
X170840472Y-59399485D01*
X170938228Y-59343045D01*
X171018045Y-59263228D01*
X171074485Y-59165472D01*
X171103700Y-59056439D01*
X171103700Y-59056436D01*
X171105377Y-59050178D01*
X171141742Y-58990517D01*
X171204589Y-58959988D01*
X171257243Y-58962496D01*
X171271382Y-58966285D01*
X171271385Y-58966285D01*
X171384258Y-58966285D01*
X171384260Y-58966285D01*
X171493293Y-58937070D01*
X171591049Y-58880630D01*
X171617869Y-58853810D01*
X177633799Y-58853810D01*
X177668127Y-58981922D01*
X177668128Y-58981923D01*
X177734437Y-59096775D01*
X177734439Y-59096778D01*
X177734440Y-59096779D01*
X177828221Y-59190560D01*
X177943079Y-59256873D01*
X178071187Y-59291200D01*
X178071190Y-59291200D01*
X178203810Y-59291200D01*
X178203813Y-59291200D01*
X178331921Y-59256873D01*
X178446779Y-59190560D01*
X178540560Y-59096779D01*
X178606873Y-58981921D01*
X178641200Y-58853813D01*
X178641200Y-58721187D01*
X178606873Y-58593079D01*
X178540560Y-58478221D01*
X178446779Y-58384440D01*
X178446778Y-58384439D01*
X178446775Y-58384437D01*
X178331923Y-58318128D01*
X178331922Y-58318127D01*
X178299894Y-58309545D01*
X178203813Y-58283800D01*
X178071187Y-58283800D01*
X177994322Y-58304396D01*
X177943077Y-58318127D01*
X177943076Y-58318128D01*
X177828224Y-58384437D01*
X177828219Y-58384441D01*
X177734441Y-58478219D01*
X177734437Y-58478224D01*
X177668128Y-58593076D01*
X177668127Y-58593077D01*
X177666134Y-58600515D01*
X177633800Y-58721187D01*
X177633800Y-58721189D01*
X177633800Y-58853810D01*
X177633799Y-58853810D01*
X171617869Y-58853810D01*
X171670866Y-58800813D01*
X171727306Y-58703057D01*
X171756521Y-58594024D01*
X171756521Y-58481146D01*
X171727306Y-58372113D01*
X171670866Y-58274357D01*
X171591049Y-58194540D01*
X171542171Y-58166320D01*
X171493294Y-58138100D01*
X171438776Y-58123492D01*
X171384260Y-58108885D01*
X171271382Y-58108885D01*
X171162347Y-58138100D01*
X171064593Y-58194540D01*
X171064590Y-58194542D01*
X170984778Y-58274354D01*
X170984776Y-58274357D01*
X170928337Y-58372111D01*
X170897443Y-58487407D01*
X170861077Y-58547067D01*
X170798230Y-58577596D01*
X170745576Y-58575088D01*
X170731439Y-58571300D01*
X170618561Y-58571300D01*
X170509526Y-58600515D01*
X170411772Y-58656955D01*
X170411769Y-58656957D01*
X170331957Y-58736769D01*
X170331955Y-58736772D01*
X170275515Y-58834526D01*
X170246300Y-58943561D01*
X150089970Y-58943561D01*
X150089977Y-58935322D01*
X150091254Y-57516310D01*
X166896299Y-57516310D01*
X166930627Y-57644422D01*
X166930628Y-57644423D01*
X166996937Y-57759275D01*
X166996939Y-57759278D01*
X166996940Y-57759279D01*
X167090721Y-57853060D01*
X167205579Y-57919373D01*
X167333687Y-57953700D01*
X167333690Y-57953700D01*
X167466310Y-57953700D01*
X167466313Y-57953700D01*
X167594421Y-57919373D01*
X167709279Y-57853060D01*
X167803060Y-57759279D01*
X167869373Y-57644421D01*
X167903700Y-57516313D01*
X167903700Y-57516310D01*
X169046299Y-57516310D01*
X169080627Y-57644422D01*
X169080628Y-57644423D01*
X169146937Y-57759275D01*
X169146939Y-57759278D01*
X169146940Y-57759279D01*
X169240721Y-57853060D01*
X169355579Y-57919373D01*
X169483687Y-57953700D01*
X169483690Y-57953700D01*
X169616310Y-57953700D01*
X169616313Y-57953700D01*
X169744421Y-57919373D01*
X169859279Y-57853060D01*
X169953060Y-57759279D01*
X170019373Y-57644421D01*
X170053700Y-57516313D01*
X170053700Y-57516310D01*
X176296299Y-57516310D01*
X176330627Y-57644422D01*
X176330628Y-57644423D01*
X176396937Y-57759275D01*
X176396939Y-57759278D01*
X176396940Y-57759279D01*
X176490721Y-57853060D01*
X176605579Y-57919373D01*
X176733687Y-57953700D01*
X176733690Y-57953700D01*
X176866310Y-57953700D01*
X176866313Y-57953700D01*
X176994421Y-57919373D01*
X177109279Y-57853060D01*
X177203060Y-57759279D01*
X177269373Y-57644421D01*
X177303700Y-57516313D01*
X177303700Y-57383687D01*
X177269373Y-57255579D01*
X177203060Y-57140721D01*
X177109279Y-57046940D01*
X177105540Y-57044781D01*
X176994423Y-56980628D01*
X176994422Y-56980627D01*
X176962394Y-56972045D01*
X176866313Y-56946300D01*
X176733687Y-56946300D01*
X176656822Y-56966896D01*
X176605577Y-56980627D01*
X176605576Y-56980628D01*
X176490724Y-57046937D01*
X176490719Y-57046941D01*
X176396941Y-57140719D01*
X176396937Y-57140724D01*
X176330628Y-57255576D01*
X176330627Y-57255577D01*
X176313463Y-57319633D01*
X176296300Y-57383687D01*
X176296300Y-57383689D01*
X176296300Y-57516310D01*
X176296299Y-57516310D01*
X170053700Y-57516310D01*
X170053700Y-57383687D01*
X170019373Y-57255579D01*
X169953060Y-57140721D01*
X169859279Y-57046940D01*
X169859278Y-57046939D01*
X169859275Y-57046937D01*
X169744423Y-56980628D01*
X169744422Y-56980627D01*
X169712394Y-56972045D01*
X169616313Y-56946300D01*
X169483687Y-56946300D01*
X169406822Y-56966896D01*
X169355577Y-56980627D01*
X169355576Y-56980628D01*
X169240724Y-57046937D01*
X169240719Y-57046941D01*
X169146941Y-57140719D01*
X169146937Y-57140724D01*
X169080628Y-57255576D01*
X169080627Y-57255577D01*
X169063463Y-57319633D01*
X169046300Y-57383687D01*
X169046300Y-57383689D01*
X169046300Y-57516310D01*
X169046299Y-57516310D01*
X167903700Y-57516310D01*
X167903700Y-57383687D01*
X167869373Y-57255579D01*
X167803060Y-57140721D01*
X167709279Y-57046940D01*
X167709278Y-57046939D01*
X167709275Y-57046937D01*
X167594423Y-56980628D01*
X167594422Y-56980627D01*
X167562394Y-56972045D01*
X167466313Y-56946300D01*
X167333687Y-56946300D01*
X167256822Y-56966896D01*
X167205577Y-56980627D01*
X167205576Y-56980628D01*
X167090724Y-57046937D01*
X167090719Y-57046941D01*
X166996941Y-57140719D01*
X166996937Y-57140724D01*
X166930628Y-57255576D01*
X166930627Y-57255577D01*
X166913463Y-57319633D01*
X166896300Y-57383687D01*
X166896300Y-57383689D01*
X166896300Y-57516310D01*
X166896299Y-57516310D01*
X150091254Y-57516310D01*
X150091381Y-57375447D01*
X150092198Y-56468561D01*
X173996300Y-56468561D01*
X173996300Y-56581438D01*
X174025515Y-56690473D01*
X174053087Y-56738227D01*
X174081955Y-56788228D01*
X174161772Y-56868045D01*
X174259528Y-56924485D01*
X174368561Y-56953700D01*
X174368563Y-56953700D01*
X174481437Y-56953700D01*
X174481439Y-56953700D01*
X174511964Y-56945521D01*
X186271300Y-56945521D01*
X186271300Y-57104479D01*
X186312441Y-57258019D01*
X186391920Y-57395680D01*
X186504320Y-57508080D01*
X186641981Y-57587559D01*
X186795521Y-57628700D01*
X186795523Y-57628700D01*
X186954476Y-57628700D01*
X186954479Y-57628700D01*
X187108019Y-57587559D01*
X187245680Y-57508080D01*
X187358080Y-57395680D01*
X187437559Y-57258019D01*
X187478700Y-57104479D01*
X187478700Y-56945521D01*
X187437559Y-56791981D01*
X187358080Y-56654320D01*
X187245680Y-56541920D01*
X187108019Y-56462441D01*
X186954479Y-56421300D01*
X186795521Y-56421300D01*
X186641981Y-56462441D01*
X186641979Y-56462441D01*
X186641979Y-56462442D01*
X186504320Y-56541920D01*
X186504317Y-56541922D01*
X186391922Y-56654317D01*
X186391920Y-56654320D01*
X186371048Y-56690472D01*
X186312441Y-56791981D01*
X186271300Y-56945521D01*
X174511964Y-56945521D01*
X174590472Y-56924485D01*
X174688228Y-56868045D01*
X174768045Y-56788228D01*
X174824485Y-56690472D01*
X174853700Y-56581439D01*
X174853700Y-56468561D01*
X174840303Y-56418561D01*
X175246300Y-56418561D01*
X175246300Y-56531439D01*
X175249109Y-56541922D01*
X175275515Y-56640473D01*
X175283508Y-56654317D01*
X175331955Y-56738228D01*
X175411772Y-56818045D01*
X175496428Y-56866922D01*
X175498368Y-56868042D01*
X175509528Y-56874485D01*
X175618561Y-56903700D01*
X175618563Y-56903700D01*
X175731437Y-56903700D01*
X175731439Y-56903700D01*
X175840472Y-56874485D01*
X175938228Y-56818045D01*
X176018045Y-56738228D01*
X176074485Y-56640472D01*
X176103700Y-56531439D01*
X176103700Y-56418561D01*
X176074485Y-56309528D01*
X176018045Y-56211772D01*
X175938228Y-56131955D01*
X175889350Y-56103735D01*
X175840473Y-56075515D01*
X175785955Y-56060907D01*
X175731439Y-56046300D01*
X175618561Y-56046300D01*
X175509526Y-56075515D01*
X175411772Y-56131955D01*
X175411769Y-56131957D01*
X175331957Y-56211769D01*
X175331955Y-56211772D01*
X175275515Y-56309526D01*
X175246300Y-56418561D01*
X174840303Y-56418561D01*
X174824485Y-56359528D01*
X174768045Y-56261772D01*
X174688228Y-56181955D01*
X174639350Y-56153735D01*
X174590473Y-56125515D01*
X174535955Y-56110907D01*
X174481439Y-56096300D01*
X174368561Y-56096300D01*
X174259526Y-56125515D01*
X174161772Y-56181955D01*
X174161769Y-56181957D01*
X174081957Y-56261769D01*
X174081955Y-56261772D01*
X174025515Y-56359526D01*
X173996300Y-56468561D01*
X150092198Y-56468561D01*
X150092205Y-56460322D01*
X150093459Y-55066310D01*
X157871299Y-55066310D01*
X157905627Y-55194422D01*
X157905628Y-55194423D01*
X157971937Y-55309275D01*
X157971939Y-55309278D01*
X157971940Y-55309279D01*
X158065721Y-55403060D01*
X158180579Y-55469373D01*
X158308687Y-55503700D01*
X158308690Y-55503700D01*
X158441310Y-55503700D01*
X158441313Y-55503700D01*
X158569421Y-55469373D01*
X158684279Y-55403060D01*
X158778060Y-55309279D01*
X158844373Y-55194421D01*
X158878700Y-55066313D01*
X158878700Y-54933687D01*
X158844373Y-54805579D01*
X158778060Y-54690721D01*
X158684279Y-54596940D01*
X158684278Y-54596939D01*
X158684275Y-54596937D01*
X158569423Y-54530628D01*
X158569422Y-54530627D01*
X158537394Y-54522045D01*
X158441313Y-54496300D01*
X158308687Y-54496300D01*
X158231822Y-54516896D01*
X158180577Y-54530627D01*
X158180576Y-54530628D01*
X158065724Y-54596937D01*
X158065719Y-54596941D01*
X157971941Y-54690719D01*
X157971937Y-54690724D01*
X157905628Y-54805576D01*
X157905627Y-54805577D01*
X157888463Y-54869633D01*
X157871300Y-54933687D01*
X157871300Y-54933689D01*
X157871300Y-55066310D01*
X157871299Y-55066310D01*
X150093459Y-55066310D01*
X150093586Y-54925447D01*
X150094838Y-53534609D01*
X150094838Y-53534598D01*
X150094857Y-53514668D01*
X150094879Y-53514640D01*
X150094879Y-53493219D01*
X150094882Y-53493207D01*
X150095047Y-53486886D01*
X150095228Y-53483423D01*
X150113058Y-53141425D01*
X150114401Y-53128588D01*
X150114813Y-53125976D01*
X150167741Y-52790064D01*
X150170407Y-52777455D01*
X150229514Y-52555687D01*
X155396300Y-52555687D01*
X155396300Y-52694312D01*
X155423341Y-52830254D01*
X155423344Y-52830266D01*
X155476386Y-52958323D01*
X155553401Y-53073585D01*
X155651414Y-53171598D01*
X155766676Y-53248613D01*
X155894733Y-53301655D01*
X155894738Y-53301657D01*
X156030687Y-53328699D01*
X156030690Y-53328700D01*
X156030692Y-53328700D01*
X156169310Y-53328700D01*
X156169311Y-53328699D01*
X156305262Y-53301657D01*
X156369294Y-53275134D01*
X156433323Y-53248613D01*
X156433324Y-53248612D01*
X156433327Y-53248611D01*
X156548583Y-53171600D01*
X156646600Y-53073583D01*
X156723611Y-52958327D01*
X156725129Y-52954664D01*
X156776655Y-52830266D01*
X156776657Y-52830262D01*
X156803700Y-52694308D01*
X156803700Y-52593561D01*
X166496300Y-52593561D01*
X166496300Y-52706438D01*
X166525515Y-52815473D01*
X166534049Y-52830254D01*
X166581955Y-52913228D01*
X166661772Y-52993045D01*
X166736683Y-53036295D01*
X166784898Y-53086863D01*
X166798120Y-53155470D01*
X166772152Y-53220334D01*
X166762364Y-53231362D01*
X166731958Y-53261768D01*
X166731955Y-53261772D01*
X166675515Y-53359526D01*
X166646300Y-53468561D01*
X166646300Y-53581438D01*
X166675515Y-53690473D01*
X166703735Y-53739350D01*
X166731955Y-53788228D01*
X166811772Y-53868045D01*
X166909528Y-53924485D01*
X167018561Y-53953700D01*
X167018563Y-53953700D01*
X167131437Y-53953700D01*
X167131439Y-53953700D01*
X167240472Y-53924485D01*
X167338228Y-53868045D01*
X167418045Y-53788228D01*
X167474485Y-53690472D01*
X167503700Y-53581439D01*
X167503700Y-53468561D01*
X167474485Y-53359528D01*
X167418045Y-53261772D01*
X167338228Y-53181955D01*
X167263316Y-53138704D01*
X167215101Y-53088136D01*
X167201879Y-53019529D01*
X167227847Y-52954664D01*
X167237629Y-52943643D01*
X167268045Y-52913228D01*
X167324485Y-52815472D01*
X167353700Y-52706439D01*
X167353700Y-52593561D01*
X167324485Y-52484528D01*
X167268045Y-52386772D01*
X167188228Y-52306955D01*
X167139350Y-52278735D01*
X167090473Y-52250515D01*
X167035955Y-52235907D01*
X166981439Y-52221300D01*
X166868561Y-52221300D01*
X166759526Y-52250515D01*
X166661772Y-52306955D01*
X166661769Y-52306957D01*
X166581957Y-52386769D01*
X166581955Y-52386772D01*
X166525515Y-52484526D01*
X166496300Y-52593561D01*
X156803700Y-52593561D01*
X156803700Y-52555692D01*
X156803700Y-52555689D01*
X156803699Y-52555687D01*
X156796136Y-52517666D01*
X156776657Y-52419738D01*
X156729942Y-52306957D01*
X156723613Y-52291676D01*
X156646598Y-52176414D01*
X156548585Y-52078401D01*
X156433323Y-52001386D01*
X156305266Y-51948344D01*
X156305254Y-51948341D01*
X156169311Y-51921300D01*
X156169308Y-51921300D01*
X156030692Y-51921300D01*
X156030689Y-51921300D01*
X155894745Y-51948341D01*
X155894733Y-51948344D01*
X155766676Y-52001386D01*
X155651414Y-52078401D01*
X155553401Y-52176414D01*
X155476386Y-52291676D01*
X155423344Y-52419733D01*
X155423341Y-52419745D01*
X155396300Y-52555687D01*
X150229514Y-52555687D01*
X150258673Y-52446284D01*
X150262628Y-52434049D01*
X150384844Y-52113886D01*
X150390071Y-52102078D01*
X150441072Y-52001389D01*
X150544927Y-51796351D01*
X150551338Y-51785178D01*
X150737157Y-51497204D01*
X150744690Y-51486766D01*
X150959451Y-51219679D01*
X150968027Y-51210082D01*
X151209404Y-50966774D01*
X151218935Y-50958119D01*
X151484299Y-50741241D01*
X151494699Y-50733609D01*
X151781170Y-50545512D01*
X151792293Y-50539011D01*
X152096781Y-50381722D01*
X152108514Y-50376416D01*
X152427713Y-50251646D01*
X152439955Y-50247582D01*
X152770385Y-50156688D01*
X152782970Y-50153923D01*
X153121075Y-50097886D01*
X153133874Y-50096444D01*
X153478662Y-50075711D01*
X153486096Y-50075488D01*
X196455858Y-50085086D01*
G37*
%TD.AperFunction*%
%TD*%
M02*
