%TF.GenerationSoftware,KiCad,Pcbnew,9.0.0*%
%TF.CreationDate,2025-03-25T10:56:33+03:00*%
%TF.ProjectId,Autopilot DronmarketV2,4175746f-7069-46c6-9f74-2044726f6e6d,rev?*%
%TF.SameCoordinates,Original*%
%TF.FileFunction,Copper,L3,Inr*%
%TF.FilePolarity,Positive*%
%FSLAX46Y46*%
G04 Gerber Fmt 4.6, Leading zero omitted, Abs format (unit mm)*
G04 Created by KiCad (PCBNEW 9.0.0) date 2025-03-25 10:56:33*
%MOMM*%
%LPD*%
G01*
G04 APERTURE LIST*
%TA.AperFunction,ComponentPad*%
%ADD10C,0.800000*%
%TD*%
%TA.AperFunction,ComponentPad*%
%ADD11C,6.400000*%
%TD*%
%TA.AperFunction,ViaPad*%
%ADD12C,0.600000*%
%TD*%
%TA.AperFunction,ViaPad*%
%ADD13C,0.450000*%
%TD*%
%TA.AperFunction,ViaPad*%
%ADD14C,0.762000*%
%TD*%
%TA.AperFunction,ViaPad*%
%ADD15C,0.500000*%
%TD*%
%TA.AperFunction,ViaPad*%
%ADD16C,0.800000*%
%TD*%
%TA.AperFunction,ViaPad*%
%ADD17C,0.700000*%
%TD*%
%TA.AperFunction,ViaPad*%
%ADD18C,1.000000*%
%TD*%
%TA.AperFunction,Conductor*%
%ADD19C,0.200000*%
%TD*%
%TA.AperFunction,Conductor*%
%ADD20C,0.762000*%
%TD*%
%TA.AperFunction,Conductor*%
%ADD21C,0.635000*%
%TD*%
%TA.AperFunction,Conductor*%
%ADD22C,0.381000*%
%TD*%
%TA.AperFunction,Conductor*%
%ADD23C,0.508000*%
%TD*%
%TA.AperFunction,Conductor*%
%ADD24C,0.254000*%
%TD*%
G04 APERTURE END LIST*
D10*
%TO.N,GND*%
%TO.C,H1*%
X157325000Y-59675000D03*
X158027944Y-57977944D03*
X158027944Y-61372056D03*
X159725000Y-57275000D03*
D11*
X159725000Y-59675000D03*
D10*
X159725000Y-62075000D03*
X161422056Y-57977944D03*
X161422056Y-61372056D03*
X162125000Y-59675000D03*
%TD*%
%TO.N,GND*%
%TO.C,H4*%
X187825000Y-90175000D03*
X188527944Y-88477944D03*
X188527944Y-91872056D03*
X190225000Y-87775000D03*
D11*
X190225000Y-90175000D03*
D10*
X190225000Y-92575000D03*
X191922056Y-88477944D03*
X191922056Y-91872056D03*
X192625000Y-90175000D03*
%TD*%
%TO.N,GND*%
%TO.C,H3*%
X157325000Y-90175000D03*
X158027944Y-88477944D03*
X158027944Y-91872056D03*
X159725000Y-87775000D03*
D11*
X159725000Y-90175000D03*
D10*
X159725000Y-92575000D03*
X161422056Y-88477944D03*
X161422056Y-91872056D03*
X162125000Y-90175000D03*
%TD*%
%TO.N,GND*%
%TO.C,H2*%
X187825000Y-59675000D03*
X188527944Y-57977944D03*
X188527944Y-61372056D03*
X190225000Y-57275000D03*
D11*
X190225000Y-59675000D03*
D10*
X190225000Y-62075000D03*
X191922056Y-57977944D03*
X191922056Y-61372056D03*
X192625000Y-59675000D03*
%TD*%
D12*
%TO.N,GND*%
X193125000Y-95850000D03*
X196575000Y-54250000D03*
X192200000Y-95850000D03*
X192200000Y-96800000D03*
X195650000Y-91100000D03*
X192250000Y-54275000D03*
X196800000Y-81725000D03*
X191400000Y-95850000D03*
X169703544Y-83745000D03*
D13*
X184450000Y-84775000D03*
D12*
X194900000Y-53250000D03*
X196575000Y-52300000D03*
X189675000Y-96775000D03*
X194900000Y-56125000D03*
X196525000Y-97775000D03*
X155725000Y-97775000D03*
X196575000Y-53250000D03*
D13*
X166100000Y-83275000D03*
D12*
X194900000Y-52300000D03*
X197375000Y-58050000D03*
X153400000Y-92825000D03*
X195650000Y-92050000D03*
D13*
X177200000Y-76000000D03*
D12*
X196450000Y-94000000D03*
X196450000Y-89175000D03*
X190475000Y-94900000D03*
X192250000Y-53275000D03*
X197325000Y-94950000D03*
X168625000Y-60775000D03*
X195650000Y-97775000D03*
X195700000Y-52300000D03*
X191400000Y-97750000D03*
X197325000Y-88225000D03*
D13*
X170425000Y-60925000D03*
D12*
X198125000Y-93050000D03*
X153825000Y-62550000D03*
X195650000Y-96825000D03*
D13*
X163395500Y-74525000D03*
D12*
X153400000Y-93825000D03*
X196150000Y-75875000D03*
X167825000Y-60775000D03*
X196450000Y-92050000D03*
X194850000Y-96825000D03*
X193125000Y-54275000D03*
X194900000Y-61900000D03*
X194900000Y-59000000D03*
X197325000Y-85325000D03*
X153775000Y-97775000D03*
X157925000Y-53725000D03*
D14*
X196125000Y-64125000D03*
D12*
X195650000Y-89175000D03*
X194725000Y-94925000D03*
X157125000Y-51775000D03*
X196450000Y-86275000D03*
X173975000Y-73250000D03*
X197325000Y-87275000D03*
X196450000Y-90175000D03*
D13*
X160800000Y-81625000D03*
D12*
X196575000Y-61900000D03*
X151875000Y-62550000D03*
X157625000Y-98600000D03*
X159600000Y-51775000D03*
X195700000Y-54250000D03*
X191450000Y-52325000D03*
X193125000Y-52325000D03*
X158625000Y-98600000D03*
X197325000Y-91100000D03*
X195650000Y-88225000D03*
X154725000Y-62550000D03*
X155725000Y-98575000D03*
X197325000Y-86275000D03*
X193925000Y-52325000D03*
X189675000Y-95825000D03*
X160550000Y-86250000D03*
X193125000Y-93975000D03*
X191400000Y-96800000D03*
X171175000Y-77953803D03*
X167260000Y-98590000D03*
X195650000Y-95875000D03*
X194850000Y-95875000D03*
X155054400Y-93827600D03*
X176623001Y-79433933D03*
X196575000Y-55175000D03*
D13*
X158625000Y-69900000D03*
X167625000Y-87075000D03*
D12*
X191450000Y-53275000D03*
X161500000Y-98600000D03*
X198125000Y-85325000D03*
D13*
X159150000Y-70400000D03*
D12*
X196450000Y-93050000D03*
X197325000Y-97775000D03*
D13*
X173510000Y-91640000D03*
X156750000Y-82850000D03*
D12*
X153800000Y-61550000D03*
D13*
X166810000Y-82500000D03*
D12*
X194725000Y-93975000D03*
X189675000Y-94900000D03*
X198125000Y-92050000D03*
D13*
X174120000Y-91650000D03*
D12*
X154775000Y-97775000D03*
X197375000Y-59000000D03*
X197375000Y-52300000D03*
X194725000Y-93025000D03*
X172400000Y-96900000D03*
X195700000Y-61900000D03*
X196575000Y-57125000D03*
X195650000Y-90175000D03*
X193925000Y-96800000D03*
X159600000Y-52725000D03*
X160575000Y-98600000D03*
X167825000Y-59775000D03*
X193925000Y-95850000D03*
X193125000Y-96800000D03*
X173850000Y-75750000D03*
X157925000Y-51775000D03*
X153400000Y-91875000D03*
X193125000Y-94925000D03*
X196575000Y-58050000D03*
X196450000Y-94950000D03*
X195700000Y-56125000D03*
X192200000Y-97750000D03*
X195700000Y-60950000D03*
D13*
X181550000Y-69300000D03*
D12*
X198125000Y-94000000D03*
X196800000Y-69950000D03*
X196450000Y-88225000D03*
X197375000Y-55175000D03*
X192250000Y-52325000D03*
X171425000Y-96875000D03*
X193925000Y-93975000D03*
D13*
X168300000Y-66950000D03*
D12*
X190475000Y-96775000D03*
X195700000Y-57125000D03*
X158800000Y-51775000D03*
X196575000Y-60950000D03*
X154675000Y-61550000D03*
X198125000Y-91100000D03*
X190475000Y-95825000D03*
X197325000Y-92050000D03*
X193925000Y-93025000D03*
X197325000Y-93050000D03*
X197375000Y-57125000D03*
X189675000Y-97725000D03*
X197325000Y-90175000D03*
X156650000Y-98575000D03*
X190475000Y-97725000D03*
X194850000Y-97775000D03*
X195650000Y-93050000D03*
X197325000Y-89175000D03*
X192200000Y-94925000D03*
X198125000Y-87275000D03*
D13*
X174700000Y-91640000D03*
D12*
X193125000Y-97750000D03*
X196525000Y-95875000D03*
X191450000Y-54275000D03*
X198125000Y-94950000D03*
X197325000Y-96825000D03*
X193925000Y-97750000D03*
X191275000Y-94900000D03*
D13*
X161025000Y-70225000D03*
D12*
X194900000Y-55175000D03*
X172400000Y-97700000D03*
D13*
X182750000Y-67725000D03*
D12*
X196450000Y-91100000D03*
X194900000Y-60950000D03*
X164025000Y-59925000D03*
X156650000Y-97775000D03*
X171425000Y-97675000D03*
X195700000Y-53250000D03*
X193925000Y-94925000D03*
X198125000Y-90175000D03*
X194900000Y-62900000D03*
X195700000Y-55175000D03*
X197375000Y-56125000D03*
X197375000Y-54250000D03*
D13*
X161775000Y-71600000D03*
D12*
X195650000Y-94000000D03*
X198125000Y-86275000D03*
X170600000Y-83750000D03*
X159080000Y-72625000D03*
X162475000Y-98625000D03*
X195650000Y-94950000D03*
D13*
X165000000Y-71275000D03*
D12*
X159625000Y-98600000D03*
X195700000Y-62900000D03*
X193925000Y-54275000D03*
X153775000Y-98575000D03*
X197375000Y-53250000D03*
X193925000Y-53275000D03*
D13*
X175925000Y-64000000D03*
D12*
X196525000Y-96825000D03*
X195700000Y-60000000D03*
X155050000Y-92825000D03*
X170520000Y-97690000D03*
X196575000Y-56125000D03*
X154200000Y-93825000D03*
X193125000Y-53275000D03*
X157125000Y-53725000D03*
X197325000Y-95875000D03*
X158399795Y-79363493D03*
X196575000Y-62900000D03*
X198125000Y-88225000D03*
X196450000Y-87275000D03*
X154200000Y-91875000D03*
D13*
X182950000Y-90425000D03*
D12*
X194900000Y-60000000D03*
X198125000Y-89175000D03*
X195650000Y-87275000D03*
X151875000Y-61550000D03*
X197325000Y-94000000D03*
X174925000Y-75875000D03*
X155854400Y-93827600D03*
X154200000Y-92825000D03*
D13*
X168125000Y-66475000D03*
D12*
X194900000Y-54250000D03*
D13*
X186325000Y-71182500D03*
D12*
X154775000Y-98575000D03*
X168625000Y-59775000D03*
D13*
%TO.N,VDD_3V3_SENS*%
X164800000Y-80375000D03*
D12*
X169550000Y-57450000D03*
X158375000Y-55000000D03*
D14*
X168300000Y-90672500D03*
D12*
X152600000Y-90525000D03*
X160825000Y-82450000D03*
X176800000Y-57450000D03*
X178137500Y-58787500D03*
X168075000Y-86450000D03*
X180450000Y-83375000D03*
X152300000Y-96375000D03*
X167400000Y-57450000D03*
X182886058Y-80937528D03*
X173825000Y-95975000D03*
X168357000Y-84969177D03*
X156905000Y-66350000D03*
D13*
%TO.N,NRST*%
X194275000Y-64650000D03*
X158825000Y-75150000D03*
D15*
%TO.N,VDD_3V3_MCU*%
X189750000Y-82100000D03*
D13*
X167925000Y-76750603D03*
D15*
X181726620Y-70398380D03*
X188725000Y-82925000D03*
D12*
X159290499Y-76502211D03*
D13*
X179752038Y-82752038D03*
D15*
X189850000Y-82925000D03*
D13*
X183100000Y-82900000D03*
D15*
X164350000Y-70425000D03*
D13*
X171047797Y-82846696D03*
D15*
X190325000Y-82375000D03*
X188450000Y-82150000D03*
X169495000Y-66530000D03*
D13*
%TO.N,/OSD and FRAM/CLKIN*%
X183275000Y-67100000D03*
%TO.N,/OSD and FRAM/XFB*%
X186700000Y-64040000D03*
%TO.N,/OSD and FRAM/SAG*%
X180950000Y-60100000D03*
D12*
%TO.N,Net-(U5-VIN)*%
X181672749Y-63567251D03*
%TO.N,VDD_5V_IN*%
X152750000Y-60300000D03*
D13*
X152750000Y-70840000D03*
D12*
X185402135Y-63752135D03*
X159050000Y-96115000D03*
D13*
X186780000Y-73480000D03*
D12*
X173370998Y-87904002D03*
D14*
X166075000Y-98775000D03*
D12*
X192125000Y-63750000D03*
X192125000Y-69550000D03*
X186540000Y-75140000D03*
X184875000Y-80925000D03*
%TO.N,Net-(U5-VOUT)*%
X184187840Y-72788891D03*
D16*
%TO.N,VCC*%
X172650000Y-93475000D03*
X157525000Y-79575000D03*
X161625000Y-97075000D03*
X175225000Y-93468000D03*
D14*
X184925000Y-93825000D03*
D16*
%TO.N,VDD_9V_OUT*%
X186875000Y-57025000D03*
X178750000Y-98500000D03*
D17*
X185350000Y-87000000D03*
D16*
X187650000Y-86375000D03*
D18*
%TO.N,VDD_3V3_SD*%
X156100000Y-52625000D03*
D16*
X175500000Y-71975000D03*
X170300000Y-63625000D03*
D13*
%TO.N,USART1_RX*%
X183245325Y-74558753D03*
X187024293Y-76799292D03*
%TO.N,USART1_TX*%
X182625000Y-75075000D03*
X186175000Y-77650000D03*
%TO.N,CAN1_TX*%
X170675000Y-59000000D03*
X167075000Y-53525000D03*
%TO.N,CAN1_RX*%
X171327821Y-58537585D03*
X166925000Y-52650000D03*
%TO.N,USART3_RX*%
X181862500Y-97512500D03*
X182059538Y-83119538D03*
%TO.N,USART3_TX*%
X180950000Y-98200000D03*
X177250000Y-78405403D03*
%TO.N,SPI2_MOSI*%
X163450000Y-64475000D03*
X172373401Y-76575000D03*
X163275000Y-86625000D03*
X162640000Y-80125000D03*
%TO.N,SPI2_ext_CS*%
X180650000Y-79550000D03*
X186400000Y-83900000D03*
%TO.N,SPI2_SCK*%
X169850000Y-97160000D03*
X159925000Y-69925000D03*
X182550000Y-77350000D03*
X167840000Y-83400000D03*
%TO.N,SPI2_MISO*%
X172650000Y-75275000D03*
X164675000Y-89890000D03*
X161777038Y-84647962D03*
X166650000Y-80675000D03*
X167180000Y-85840000D03*
X170260000Y-69150000D03*
X165575000Y-83825000D03*
%TO.N,I2C1_SCL*%
X175675000Y-56475000D03*
X175250000Y-66800000D03*
%TO.N,I2C1_SDA*%
X174400000Y-67420000D03*
X159475000Y-64850000D03*
X174425000Y-56525000D03*
%TO.N,TIM2_CH4*%
X167250000Y-81125000D03*
X156725000Y-83500000D03*
%TO.N,SWCLK*%
X193075000Y-70775000D03*
X179800000Y-65200000D03*
%TO.N,SWDIO*%
X188850000Y-75700000D03*
X192975000Y-71825000D03*
X182475000Y-72975000D03*
%TO.N,SDIO_D3*%
X177225000Y-67725000D03*
%TO.N,SDIO_SCK*%
X176511258Y-70611258D03*
%TO.N,SDIO_D1*%
X178287927Y-75236828D03*
X177800000Y-63750000D03*
%TO.N,SDIO_D2*%
X170060000Y-67500000D03*
X177887500Y-70662500D03*
X172600000Y-67525000D03*
%TO.N,SDIO_D0*%
X178320000Y-76030000D03*
X167960000Y-69200000D03*
%TO.N,ADC1_IN4*%
X172859500Y-82648874D03*
X164100000Y-90375000D03*
X168984000Y-88785002D03*
X158679076Y-84350000D03*
%TO.N,ADC1_IN11*%
X171167523Y-75494603D03*
X157675000Y-75575000D03*
%TO.N,USB_D_P*%
X190500000Y-76300000D03*
D12*
X180275000Y-66300000D03*
D13*
%TO.N,USB_D_N*%
X178750000Y-73925000D03*
%TO.N,BMI088_INT3_GYRO*%
X161720000Y-81950000D03*
X163900000Y-76025000D03*
X170780000Y-72750000D03*
%TO.N,BMI088_INT1_ACCEL*%
X162230000Y-81580000D03*
X165188000Y-71913000D03*
%TO.N,BMI088_GYRO_CS*%
X178050000Y-77953803D03*
X168500000Y-83975000D03*
%TO.N,BMI088_ACCEL_CS*%
X179300000Y-77750000D03*
X162400000Y-85600000D03*
X162950000Y-81420000D03*
%TO.N,BMI088_INT2_ACCEL*%
X165720000Y-79940000D03*
X165726711Y-72539999D03*
%TO.N,BMI088_INT4_GYRO*%
X159900000Y-85650000D03*
X159225000Y-82375000D03*
X170875000Y-74750000D03*
%TO.N,ICM42688_INT1_DRDY*%
X183700000Y-90365000D03*
X177575000Y-66975000D03*
%TO.N,ICM42688_INT2_FIFO*%
X177200000Y-66150000D03*
X180875000Y-85175000D03*
%TO.N,ICM42688_CS*%
X176055000Y-83351735D03*
X174752805Y-79127057D03*
%TO.N,SPI1_MOSI*%
X188952984Y-63140999D03*
X175600000Y-78600000D03*
X178950000Y-89760000D03*
X174745000Y-83105000D03*
X176656554Y-82524000D03*
%TO.N,SPI1_MISO*%
X175097400Y-91097400D03*
X180600000Y-81750000D03*
X174930000Y-85480000D03*
X174127000Y-82525000D03*
X193100000Y-63725000D03*
%TO.N,SPI1_SCK*%
X173250000Y-78800000D03*
X180075000Y-80325000D03*
X189034026Y-64349999D03*
%TO.N,SDIO_CMD*%
X172460000Y-66440000D03*
X171000000Y-71325000D03*
%TO.N,OSD_CS*%
X177930000Y-72560000D03*
%TO.N,FRAM_CS*%
X178720679Y-74751824D03*
X163450000Y-69300000D03*
%TD*%
D19*
%TO.N,GND*%
X182750000Y-68100000D02*
X182750000Y-67725000D01*
X181550000Y-69300000D02*
X182750000Y-68100000D01*
D20*
%TO.N,VDD_3V3_SENS*%
X183500000Y-80250000D02*
X183500000Y-75550000D01*
X156975000Y-63250000D02*
X155650000Y-61925000D01*
X168357000Y-84969177D02*
X168358177Y-84968000D01*
X163343000Y-84968000D02*
X160825000Y-82450000D01*
X155650000Y-57725000D02*
X158375000Y-55000000D01*
D21*
X168576177Y-84750000D02*
X178564000Y-84750000D01*
D22*
X168075000Y-86450000D02*
X168357000Y-86168000D01*
D20*
X176800000Y-57450000D02*
X169550000Y-57450000D01*
X183500000Y-75550000D02*
X187440000Y-71610000D01*
X156975000Y-66280000D02*
X156975000Y-63250000D01*
X181880000Y-62180000D02*
X180520000Y-62180000D01*
X152300000Y-90825000D02*
X152600000Y-90525000D01*
X178137500Y-59797500D02*
X178137500Y-58787500D01*
X168355823Y-84968000D02*
X163343000Y-84968000D01*
X187440000Y-71610000D02*
X187440000Y-67740000D01*
X168357000Y-84969177D02*
X168355823Y-84968000D01*
X156905000Y-66350000D02*
X156975000Y-66280000D01*
X169550000Y-57450000D02*
X167400000Y-57450000D01*
X152300000Y-96375000D02*
X152300000Y-90825000D01*
D21*
X178564000Y-84750000D02*
X178782000Y-84968000D01*
D20*
X187440000Y-67740000D02*
X181880000Y-62180000D01*
D22*
X168357000Y-86168000D02*
X168357000Y-84969177D01*
D21*
X168358177Y-84968000D02*
X168576177Y-84750000D01*
D20*
X178782000Y-84968000D02*
X183500000Y-80250000D01*
X155650000Y-61925000D02*
X155650000Y-57725000D01*
X180520000Y-62180000D02*
X178137500Y-59797500D01*
X178137500Y-58787500D02*
X176800000Y-57450000D01*
D23*
%TO.N,VDD_3V3_MCU*%
X167925000Y-79723899D02*
X167925000Y-77200000D01*
D24*
X159290499Y-76502211D02*
X160063288Y-77275000D01*
D23*
X177580000Y-73970000D02*
X181151620Y-70398380D01*
X164350000Y-70425000D02*
X168455000Y-70425000D01*
X178525341Y-83978735D02*
X172179836Y-83978735D01*
X181151620Y-70398380D02*
X181726620Y-70398380D01*
X169160000Y-72400000D02*
X170730000Y-73970000D01*
X172179836Y-83978735D02*
X171047797Y-82846696D01*
X171047797Y-82846696D02*
X167925000Y-79723899D01*
X167925000Y-77200000D02*
X167925000Y-76750603D01*
X169160000Y-69720000D02*
X169160000Y-66865000D01*
X170730000Y-73970000D02*
X177580000Y-73970000D01*
X169160000Y-66865000D02*
X169160000Y-72400000D01*
X164350000Y-73175603D02*
X167925000Y-76750603D01*
X164350000Y-70425000D02*
X164350000Y-73175603D01*
X169495000Y-66530000D02*
X169160000Y-66865000D01*
X179752038Y-82752038D02*
X178525341Y-83978735D01*
D24*
X167850000Y-77275000D02*
X167925000Y-77200000D01*
D23*
X168455000Y-70425000D02*
X169160000Y-69720000D01*
D24*
X160063288Y-77275000D02*
X167850000Y-77275000D01*
D20*
%TO.N,VDD_5V_IN*%
X185793000Y-75882000D02*
X184825000Y-76850000D01*
X184825000Y-80975000D02*
X184875000Y-80925000D01*
X185798000Y-75882000D02*
X186540000Y-75140000D01*
X186540000Y-75135000D02*
X192125000Y-69550000D01*
X163425000Y-87900000D02*
X168116996Y-87900000D01*
X173275000Y-89375000D02*
X173275000Y-88325000D01*
X192125000Y-63750000D02*
X192125000Y-69550000D01*
X166075000Y-98775000D02*
X166075000Y-96575000D01*
X173179002Y-87904002D02*
X172825000Y-87904002D01*
X159910000Y-96115000D02*
X159050000Y-96115000D01*
X172825000Y-87904002D02*
X168120998Y-87904002D01*
X173370998Y-87904002D02*
X173179002Y-87904002D01*
X179495998Y-87904002D02*
X184825000Y-82575000D01*
X185793000Y-75882000D02*
X185798000Y-75882000D01*
X186540000Y-75140000D02*
X186540000Y-75135000D01*
X166075000Y-96575000D02*
X173275000Y-89375000D01*
X152750000Y-77225000D02*
X163425000Y-87900000D01*
X173370998Y-87904002D02*
X179495998Y-87904002D01*
X168120998Y-87904002D02*
X159910000Y-96115000D01*
X152750000Y-60300000D02*
X152750000Y-70840000D01*
X173275000Y-88000000D02*
X173275000Y-88325000D01*
X173370998Y-87904002D02*
X173275000Y-88000000D01*
X152750000Y-70840000D02*
X152750000Y-77225000D01*
X168116996Y-87900000D02*
X168120998Y-87904002D01*
X173245998Y-88325000D02*
X172825000Y-87904002D01*
X184825000Y-76850000D02*
X184825000Y-80875000D01*
X173179002Y-87904002D02*
X168120998Y-87904002D01*
X184825000Y-82575000D02*
X184825000Y-80975000D01*
X184825000Y-80875000D02*
X184875000Y-80925000D01*
X173275000Y-88325000D02*
X173245998Y-88325000D01*
D23*
%TO.N,VDD_9V_OUT*%
X192350000Y-55075000D02*
X188825000Y-55075000D01*
X197900000Y-60625000D02*
X192350000Y-55075000D01*
D20*
X185350000Y-91900000D02*
X178750000Y-98500000D01*
D23*
X197900000Y-83625000D02*
X197900000Y-60625000D01*
X188825000Y-55075000D02*
X186875000Y-57025000D01*
X195150000Y-86375000D02*
X197900000Y-83625000D01*
X187650000Y-86375000D02*
X195150000Y-86375000D01*
D20*
X185350000Y-87000000D02*
X185350000Y-91900000D01*
D23*
%TO.N,VDD_3V3_SD*%
X168723690Y-62775000D02*
X169450000Y-62775000D01*
X173545000Y-65825000D02*
X171345000Y-63625000D01*
X171345000Y-63625000D02*
X170300000Y-63625000D01*
X158573690Y-52625000D02*
X168723690Y-62775000D01*
X156100000Y-52625000D02*
X158573690Y-52625000D01*
X173545000Y-70155000D02*
X173545000Y-65825000D01*
X175365000Y-71975000D02*
X173545000Y-70155000D01*
X169450000Y-62775000D02*
X170300000Y-63625000D01*
X175500000Y-71975000D02*
X175365000Y-71975000D01*
D19*
%TO.N,SDIO_CMD*%
X172450000Y-66450000D02*
X172450000Y-66823586D01*
X172450000Y-66823586D02*
X171000000Y-68273586D01*
X171000000Y-68273586D02*
X171000000Y-71325000D01*
%TD*%
M02*
