%TF.GenerationSoftware,KiCad,Pcbnew,9.0.1*%
%TF.CreationDate,2025-04-09T16:15:18+03:00*%
%TF.ProjectId,G__ Da__t_m Kart_,47fce720-4461-41f3-9174-316d204b6172,rev?*%
%TF.SameCoordinates,Original*%
%TF.FileFunction,Soldermask,Top*%
%TF.FilePolarity,Negative*%
%FSLAX46Y46*%
G04 Gerber Fmt 4.6, Leading zero omitted, Abs format (unit mm)*
G04 Created by KiCad (PCBNEW 9.0.1) date 2025-04-09 16:15:18*
%MOMM*%
%LPD*%
G01*
G04 APERTURE LIST*
G04 Aperture macros list*
%AMRoundRect*
0 Rectangle with rounded corners*
0 $1 Rounding radius*
0 $2 $3 $4 $5 $6 $7 $8 $9 X,Y pos of 4 corners*
0 Add a 4 corners polygon primitive as box body*
4,1,4,$2,$3,$4,$5,$6,$7,$8,$9,$2,$3,0*
0 Add four circle primitives for the rounded corners*
1,1,$1+$1,$2,$3*
1,1,$1+$1,$4,$5*
1,1,$1+$1,$6,$7*
1,1,$1+$1,$8,$9*
0 Add four rect primitives between the rounded corners*
20,1,$1+$1,$2,$3,$4,$5,0*
20,1,$1+$1,$4,$5,$6,$7,0*
20,1,$1+$1,$6,$7,$8,$9,0*
20,1,$1+$1,$8,$9,$2,$3,0*%
G04 Aperture macros list end*
%ADD10RoundRect,0.800000X3.200000X4.200000X-3.200000X4.200000X-3.200000X-4.200000X3.200000X-4.200000X0*%
%ADD11C,6.000000*%
%ADD12RoundRect,1.500000X0.549038X-2.049038X2.049038X0.549038X-0.549038X2.049038X-2.049038X-0.549038X0*%
%ADD13RoundRect,0.237500X-0.237500X0.250000X-0.237500X-0.250000X0.237500X-0.250000X0.237500X0.250000X0*%
%ADD14RoundRect,0.250000X0.650000X-1.000000X0.650000X1.000000X-0.650000X1.000000X-0.650000X-1.000000X0*%
%ADD15R,2.200000X1.500000*%
%ADD16RoundRect,0.250001X1.044999X-0.872499X1.044999X0.872499X-1.044999X0.872499X-1.044999X-0.872499X0*%
%ADD17RoundRect,0.237500X0.237500X-0.300000X0.237500X0.300000X-0.237500X0.300000X-0.237500X-0.300000X0*%
%ADD18RoundRect,0.237500X-0.300000X-0.237500X0.300000X-0.237500X0.300000X0.237500X-0.300000X0.237500X0*%
%ADD19RoundRect,0.250000X-0.650000X1.000000X-0.650000X-1.000000X0.650000X-1.000000X0.650000X1.000000X0*%
%ADD20C,1.440000*%
%ADD21R,3.100000X2.600000*%
%ADD22R,0.600000X1.550000*%
%ADD23C,3.000000*%
%ADD24RoundRect,0.750000X0.750000X-0.750000X0.750000X0.750000X-0.750000X0.750000X-0.750000X-0.750000X0*%
%ADD25RoundRect,0.250001X-1.044999X0.872499X-1.044999X-0.872499X1.044999X-0.872499X1.044999X0.872499X0*%
%ADD26RoundRect,1.500000X2.049038X-0.549038X0.549038X2.049038X-2.049038X0.549038X-0.549038X-2.049038X0*%
%ADD27R,1.500000X2.200000*%
%ADD28RoundRect,0.237500X-0.250000X-0.237500X0.250000X-0.237500X0.250000X0.237500X-0.250000X0.237500X0*%
%ADD29RoundRect,0.237500X0.300000X0.237500X-0.300000X0.237500X-0.300000X-0.237500X0.300000X-0.237500X0*%
%ADD30RoundRect,0.250000X0.650000X-0.412500X0.650000X0.412500X-0.650000X0.412500X-0.650000X-0.412500X0*%
%ADD31C,3.200000*%
%ADD32RoundRect,0.250000X0.412500X0.650000X-0.412500X0.650000X-0.412500X-0.650000X0.412500X-0.650000X0*%
%ADD33RoundRect,0.250001X-0.872499X-1.044999X0.872499X-1.044999X0.872499X1.044999X-0.872499X1.044999X0*%
%ADD34RoundRect,0.250000X-0.650000X0.325000X-0.650000X-0.325000X0.650000X-0.325000X0.650000X0.325000X0*%
%ADD35RoundRect,0.237500X-0.237500X0.300000X-0.237500X-0.300000X0.237500X-0.300000X0.237500X0.300000X0*%
%ADD36RoundRect,0.750000X-0.750000X0.750000X-0.750000X-0.750000X0.750000X-0.750000X0.750000X0.750000X0*%
%ADD37R,2.600000X3.100000*%
%ADD38R,1.550000X0.600000*%
%ADD39RoundRect,0.237500X0.237500X-0.250000X0.237500X0.250000X-0.237500X0.250000X-0.237500X-0.250000X0*%
%ADD40RoundRect,0.237500X0.250000X0.237500X-0.250000X0.237500X-0.250000X-0.237500X0.250000X-0.237500X0*%
%ADD41RoundRect,0.250000X-0.650000X0.412500X-0.650000X-0.412500X0.650000X-0.412500X0.650000X0.412500X0*%
G04 APERTURE END LIST*
D10*
%TO.C,H7*%
X187200000Y-127700000D03*
%TD*%
%TO.C,H8*%
X198900000Y-127700000D03*
%TD*%
D11*
%TO.C,J3*%
X228000000Y-122000000D03*
D12*
X224400000Y-128235383D03*
%TD*%
D13*
%TO.C,R6*%
X228100000Y-101812500D03*
X228100000Y-99987500D03*
%TD*%
D14*
%TO.C,D5*%
X230900000Y-96000000D03*
X230900000Y-100000000D03*
%TD*%
D15*
%TO.C,L4*%
X217600000Y-92600000D03*
X217600000Y-99000000D03*
%TD*%
D16*
%TO.C,C23*%
X226700000Y-86192500D03*
X226700000Y-92607500D03*
%TD*%
D13*
%TO.C,R9*%
X228800000Y-107525000D03*
X228800000Y-105700000D03*
%TD*%
D17*
%TO.C,C22*%
X220400000Y-101837500D03*
X220400000Y-103562500D03*
%TD*%
D18*
%TO.C,C15*%
X225362500Y-99500000D03*
X223637500Y-99500000D03*
%TD*%
%TO.C,C18*%
X225362500Y-96100000D03*
X223637500Y-96100000D03*
%TD*%
%TO.C,C17*%
X225362500Y-97800000D03*
X223637500Y-97800000D03*
%TD*%
D19*
%TO.C,D7*%
X217600000Y-105900000D03*
X217600000Y-101900000D03*
%TD*%
D20*
%TO.C,RV1*%
X222060000Y-111300000D03*
X224600000Y-111300000D03*
X227140000Y-111300000D03*
%TD*%
D21*
%TO.C,U9*%
X224300000Y-104500000D03*
D22*
X222395000Y-101800000D03*
X223665000Y-101800000D03*
X224935000Y-101800000D03*
X226205000Y-101800000D03*
X226205000Y-107200000D03*
X224935000Y-107200000D03*
X223665000Y-107200000D03*
X222395000Y-107200000D03*
%TD*%
D17*
%TO.C,C26*%
X230900000Y-90875000D03*
X230900000Y-92600000D03*
%TD*%
D23*
%TO.C,U5*%
X236500000Y-96100000D03*
D24*
X236500000Y-101100000D03*
%TD*%
D25*
%TO.C,C27*%
X193600000Y-113500000D03*
X193600000Y-119915000D03*
%TD*%
D26*
%TO.C,J1*%
X228562500Y-52235383D03*
D11*
X224962500Y-46000000D03*
%TD*%
D27*
%TO.C,L3*%
X212800000Y-71560000D03*
X219200000Y-71560000D03*
%TD*%
D28*
%TO.C,R8*%
X213087500Y-60460000D03*
X214912500Y-60460000D03*
%TD*%
D29*
%TO.C,C3*%
X160662500Y-69600000D03*
X158937500Y-69600000D03*
%TD*%
%TO.C,C20*%
X208600000Y-63500000D03*
X206875000Y-63500000D03*
%TD*%
D30*
%TO.C,C24*%
X223200000Y-74622500D03*
X223200000Y-71497500D03*
%TD*%
D28*
%TO.C,R7*%
X209187500Y-60500000D03*
X211012500Y-60500000D03*
%TD*%
D19*
%TO.C,D8*%
X187800000Y-113700000D03*
X187800000Y-117700000D03*
%TD*%
D15*
%TO.C,L1*%
X160700000Y-93700000D03*
X160700000Y-100100000D03*
%TD*%
D31*
%TO.C,H5*%
X176500000Y-102000000D03*
%TD*%
D21*
%TO.C,U7*%
X167950000Y-96850000D03*
D22*
X166045000Y-99550000D03*
X167315000Y-99550000D03*
X168585000Y-99550000D03*
X169855000Y-99550000D03*
X169855000Y-94150000D03*
X168585000Y-94150000D03*
X167315000Y-94150000D03*
X166045000Y-94150000D03*
%TD*%
D32*
%TO.C,C5*%
X167562500Y-103800000D03*
X164437500Y-103800000D03*
%TD*%
D33*
%TO.C,C11*%
X167092500Y-78800000D03*
X173507500Y-78800000D03*
%TD*%
D13*
%TO.C,R3*%
X171700000Y-94087500D03*
X171700000Y-95912500D03*
%TD*%
D32*
%TO.C,C14*%
X162125000Y-106500000D03*
X159000000Y-106500000D03*
%TD*%
D34*
%TO.C,C2*%
X198900000Y-114525000D03*
X198900000Y-117475000D03*
%TD*%
D19*
%TO.C,D2*%
X154900000Y-72000000D03*
X154900000Y-76000000D03*
%TD*%
D14*
%TO.C,D6*%
X167500000Y-65600000D03*
X167500000Y-61600000D03*
%TD*%
D17*
%TO.C,C8*%
X168600000Y-89800000D03*
X168600000Y-88075000D03*
%TD*%
D35*
%TO.C,C21*%
X210900000Y-64775000D03*
X210900000Y-66500000D03*
%TD*%
D30*
%TO.C,C25*%
X226100000Y-74585000D03*
X226100000Y-71460000D03*
%TD*%
D29*
%TO.C,C6*%
X160662500Y-73000000D03*
X158937500Y-73000000D03*
%TD*%
%TO.C,C4*%
X160662500Y-71300000D03*
X158937500Y-71300000D03*
%TD*%
D36*
%TO.C,U3*%
X148000000Y-96000000D03*
D23*
X148000000Y-101000000D03*
%TD*%
D37*
%TO.C,U8*%
X215750000Y-64150000D03*
D38*
X218450000Y-66055000D03*
X218450000Y-64785000D03*
X218450000Y-63515000D03*
X218450000Y-62245000D03*
X213050000Y-62245000D03*
X213050000Y-63515000D03*
X213050000Y-64785000D03*
X213050000Y-66055000D03*
%TD*%
D29*
%TO.C,C10*%
X167300000Y-91600000D03*
X165575000Y-91600000D03*
%TD*%
D13*
%TO.C,R2*%
X171700000Y-90175000D03*
X171700000Y-92000000D03*
%TD*%
D31*
%TO.C,H4*%
X207000000Y-71500000D03*
%TD*%
D14*
%TO.C,D4*%
X230600000Y-75200000D03*
X230600000Y-71200000D03*
%TD*%
D32*
%TO.C,C12*%
X162100000Y-103800000D03*
X158975000Y-103800000D03*
%TD*%
D29*
%TO.C,C13*%
X160662500Y-74800000D03*
X158937500Y-74800000D03*
%TD*%
D22*
%TO.C,U6*%
X161905000Y-62100000D03*
X160635000Y-62100000D03*
X159365000Y-62100000D03*
X158095000Y-62100000D03*
X158095000Y-67500000D03*
X159365000Y-67500000D03*
X160635000Y-67500000D03*
X161905000Y-67500000D03*
D21*
X160000000Y-64800000D03*
%TD*%
D31*
%TO.C,H3*%
X176500000Y-71500000D03*
%TD*%
D39*
%TO.C,R1*%
X156200000Y-69300000D03*
X156200000Y-67475000D03*
%TD*%
D29*
%TO.C,C7*%
X167600000Y-101700000D03*
X165875000Y-101700000D03*
%TD*%
D40*
%TO.C,R4*%
X158012500Y-59800000D03*
X156187500Y-59800000D03*
%TD*%
D15*
%TO.C,L2*%
X167100000Y-68800000D03*
X167100000Y-75200000D03*
%TD*%
D26*
%TO.C,J4*%
X160000000Y-128235383D03*
D11*
X156400000Y-122000000D03*
%TD*%
D24*
%TO.C,U4*%
X236000000Y-76000000D03*
D23*
X236000000Y-71000000D03*
%TD*%
D31*
%TO.C,H6*%
X207000000Y-102000000D03*
%TD*%
D12*
%TO.C,J2*%
X154400000Y-52235383D03*
D11*
X158000000Y-46000000D03*
%TD*%
D35*
%TO.C,C19*%
X220800000Y-64797500D03*
X220800000Y-66522500D03*
%TD*%
D19*
%TO.C,D3*%
X154100000Y-96400000D03*
X154100000Y-100400000D03*
%TD*%
D39*
%TO.C,R5*%
X156200000Y-63912500D03*
X156200000Y-62087500D03*
%TD*%
D35*
%TO.C,C9*%
X163900000Y-64037500D03*
X163900000Y-65762500D03*
%TD*%
D41*
%TO.C,C16*%
X223200000Y-64797500D03*
X223200000Y-67922500D03*
%TD*%
D24*
%TO.C,U2*%
X148000000Y-76000000D03*
D23*
X148000000Y-71000000D03*
%TD*%
M02*
