%TF.GenerationSoftware,KiCad,Pcbnew,9.0.1*%
%TF.CreationDate,2025-04-09T16:15:18+03:00*%
%TF.ProjectId,G__ Da__t_m Kart_,47fce720-4461-41f3-9174-316d204b6172,rev?*%
%TF.SameCoordinates,Original*%
%TF.FileFunction,Legend,Bot*%
%TF.FilePolarity,Positive*%
%FSLAX46Y46*%
G04 Gerber Fmt 4.6, Leading zero omitted, Abs format (unit mm)*
G04 Created by KiCad (PCBNEW 9.0.1) date 2025-04-09 16:15:18*
%MOMM*%
%LPD*%
G01*
G04 APERTURE LIST*
%ADD10C,0.000000*%
G04 APERTURE END LIST*
D10*
%TO.C,G\u002A\u002A\u002A*%
G36*
X183132124Y-72599739D02*
G01*
X183178588Y-72609821D01*
X183217817Y-72631749D01*
X183249112Y-72665034D01*
X183271778Y-72709182D01*
X183271950Y-72709701D01*
X183272772Y-72713762D01*
X183273547Y-72720583D01*
X183274277Y-72730539D01*
X183274962Y-72744004D01*
X183275605Y-72761354D01*
X183276205Y-72782963D01*
X183276765Y-72809206D01*
X183277284Y-72840458D01*
X183277765Y-72877092D01*
X183278208Y-72919485D01*
X183278614Y-72968011D01*
X183278985Y-73023044D01*
X183279321Y-73084960D01*
X183279624Y-73154132D01*
X183279895Y-73230936D01*
X183280134Y-73315747D01*
X183280343Y-73408939D01*
X183280523Y-73510886D01*
X183280676Y-73621965D01*
X183280801Y-73742549D01*
X183280900Y-73873013D01*
X183280975Y-74013731D01*
X183281026Y-74165080D01*
X183281054Y-74327432D01*
X183281061Y-74501164D01*
X183281047Y-74686650D01*
X183281014Y-74884264D01*
X183280963Y-75094381D01*
X183280895Y-75317377D01*
X183280810Y-75553625D01*
X183280711Y-75803500D01*
X183279437Y-78869983D01*
X183260028Y-78903001D01*
X183236442Y-78935244D01*
X183200889Y-78964055D01*
X183156859Y-78982016D01*
X183138751Y-78986268D01*
X183119268Y-78988746D01*
X183099999Y-78987817D01*
X183078929Y-78982810D01*
X183054047Y-78973054D01*
X183023337Y-78957880D01*
X182984787Y-78936615D01*
X182936383Y-78908590D01*
X182919094Y-78898483D01*
X182890244Y-78881693D01*
X182865510Y-78867387D01*
X182848869Y-78857870D01*
X182832961Y-78848833D01*
X182808148Y-78834627D01*
X182782359Y-78819771D01*
X182760157Y-78806937D01*
X182741041Y-78795887D01*
X182729850Y-78789419D01*
X182708972Y-78777345D01*
X182661865Y-78750088D01*
X182607744Y-78718752D01*
X182549340Y-78684922D01*
X182489390Y-78650183D01*
X182430625Y-78616119D01*
X182375779Y-78584313D01*
X182327587Y-78556350D01*
X182288781Y-78533815D01*
X182285709Y-78532030D01*
X182246148Y-78509077D01*
X182208801Y-78487467D01*
X182176139Y-78468626D01*
X182150633Y-78453981D01*
X182134757Y-78444956D01*
X182123207Y-78438416D01*
X182099325Y-78424762D01*
X182068132Y-78406838D01*
X182032358Y-78386217D01*
X181994735Y-78364466D01*
X181966166Y-78347949D01*
X181929696Y-78326930D01*
X181897143Y-78308242D01*
X181871238Y-78293450D01*
X181854713Y-78284123D01*
X181851383Y-78282261D01*
X181831199Y-78270780D01*
X181803008Y-78254556D01*
X181770083Y-78235475D01*
X181735694Y-78215427D01*
X181698174Y-78193538D01*
X181650580Y-78165876D01*
X181602681Y-78138126D01*
X181560666Y-78113879D01*
X181553587Y-78109802D01*
X181518487Y-78089529D01*
X181485076Y-78070141D01*
X181456841Y-78053664D01*
X181437266Y-78042126D01*
X181434577Y-78040527D01*
X181391388Y-78015432D01*
X181344480Y-77989068D01*
X181301631Y-77965812D01*
X181296938Y-77963290D01*
X181281573Y-77954448D01*
X181273626Y-77948923D01*
X181270256Y-77946340D01*
X181257235Y-77938178D01*
X181238616Y-77927446D01*
X181222625Y-77918398D01*
X181197033Y-77903758D01*
X181164393Y-77884992D01*
X181127235Y-77863557D01*
X181088092Y-77840907D01*
X181049726Y-77818737D01*
X181011247Y-77796625D01*
X180976759Y-77776926D01*
X180948964Y-77761184D01*
X180930567Y-77750944D01*
X180912446Y-77740544D01*
X180896680Y-77730303D01*
X180889727Y-77724129D01*
X180889455Y-77723529D01*
X180881314Y-77718302D01*
X180880267Y-77718053D01*
X180869482Y-77713024D01*
X180849683Y-77702512D01*
X180823268Y-77687816D01*
X180792633Y-77670236D01*
X180787662Y-77667345D01*
X180755000Y-77648420D01*
X180724994Y-77631147D01*
X180700789Y-77617329D01*
X180685528Y-77608772D01*
X180675199Y-77603008D01*
X180652690Y-77590178D01*
X180624534Y-77573937D01*
X180594514Y-77556458D01*
X180587383Y-77552287D01*
X180538710Y-77523872D01*
X180487525Y-77494076D01*
X180435913Y-77464106D01*
X180385961Y-77435168D01*
X180339754Y-77408470D01*
X180299377Y-77385219D01*
X180266917Y-77366621D01*
X180244459Y-77353884D01*
X180219625Y-77339857D01*
X180186242Y-77320812D01*
X180156945Y-77303914D01*
X180148527Y-77299018D01*
X180104537Y-77273462D01*
X180060250Y-77247776D01*
X180017734Y-77223155D01*
X179979054Y-77200795D01*
X179946278Y-77181889D01*
X179921473Y-77167634D01*
X179906704Y-77159224D01*
X179902697Y-77156958D01*
X179884496Y-77146553D01*
X179858124Y-77131382D01*
X179826475Y-77113113D01*
X179792440Y-77093411D01*
X179780813Y-77086672D01*
X179746599Y-77066851D01*
X179715334Y-77048753D01*
X179690073Y-77034146D01*
X179673869Y-77024796D01*
X179649800Y-77010940D01*
X179610449Y-76988252D01*
X179572835Y-76966527D01*
X179539036Y-76946971D01*
X179511134Y-76930786D01*
X179491208Y-76919177D01*
X179481339Y-76913347D01*
X179481185Y-76913253D01*
X179468174Y-76905530D01*
X179446241Y-76892730D01*
X179418555Y-76876682D01*
X179388286Y-76859215D01*
X179358604Y-76842158D01*
X179332679Y-76827340D01*
X179313680Y-76816592D01*
X179299038Y-76808379D01*
X179266423Y-76789962D01*
X179237323Y-76773375D01*
X179214645Y-76760277D01*
X179201295Y-76752331D01*
X179185714Y-76742941D01*
X179161740Y-76728884D01*
X179133748Y-76712702D01*
X179105880Y-76696787D01*
X179082276Y-76683533D01*
X179072069Y-76677843D01*
X179040752Y-76660109D01*
X179002925Y-76638417D01*
X178961703Y-76614579D01*
X178920201Y-76590407D01*
X178881533Y-76567710D01*
X178848813Y-76548302D01*
X178825157Y-76533993D01*
X178822436Y-76532320D01*
X178801103Y-76519556D01*
X178785013Y-76510533D01*
X178777469Y-76507111D01*
X178777296Y-76507088D01*
X178769191Y-76503175D01*
X178751736Y-76493514D01*
X178727371Y-76479486D01*
X178698535Y-76462469D01*
X178680376Y-76451706D01*
X178646787Y-76431984D01*
X178605824Y-76408074D01*
X178559917Y-76381384D01*
X178511501Y-76353321D01*
X178463006Y-76325292D01*
X178416867Y-76298706D01*
X178375515Y-76274969D01*
X178341383Y-76255489D01*
X178316904Y-76241673D01*
X178306984Y-76236055D01*
X178284859Y-76223357D01*
X178255211Y-76206231D01*
X178220675Y-76186202D01*
X178183883Y-76164790D01*
X178159931Y-76150839D01*
X178108067Y-76120703D01*
X178055520Y-76090261D01*
X178004421Y-76060740D01*
X177956899Y-76033366D01*
X177915082Y-76009368D01*
X177881100Y-75989972D01*
X177857083Y-75976407D01*
X177831709Y-75961963D01*
X177789392Y-75935859D01*
X177757686Y-75912410D01*
X177735006Y-75889883D01*
X177719765Y-75866544D01*
X177710378Y-75840661D01*
X177705259Y-75810501D01*
X177705183Y-75784197D01*
X178229283Y-75784197D01*
X178230683Y-75795867D01*
X178244993Y-75810791D01*
X178271963Y-75828556D01*
X178281187Y-75833852D01*
X178308673Y-75849667D01*
X178345384Y-75870818D01*
X178389350Y-75896170D01*
X178438606Y-75924586D01*
X178491182Y-75954931D01*
X178545114Y-75986069D01*
X178598431Y-76016865D01*
X178649169Y-76046181D01*
X178695358Y-76072883D01*
X178735032Y-76095835D01*
X178766224Y-76113901D01*
X178778374Y-76120928D01*
X178808018Y-76137915D01*
X178832294Y-76151602D01*
X178848963Y-76160734D01*
X178855783Y-76164057D01*
X178858145Y-76164878D01*
X178867288Y-76171305D01*
X178874955Y-76176581D01*
X178892617Y-76187577D01*
X178917151Y-76202291D01*
X178945755Y-76219020D01*
X178978807Y-76238169D01*
X179019782Y-76261980D01*
X179062516Y-76286869D01*
X179101766Y-76309787D01*
X179113532Y-76316649D01*
X179143194Y-76333751D01*
X179167587Y-76347537D01*
X179184450Y-76356739D01*
X179191518Y-76360088D01*
X179195260Y-76361679D01*
X179208008Y-76369299D01*
X179225799Y-76381091D01*
X179237703Y-76389068D01*
X179252824Y-76398441D01*
X179260454Y-76402095D01*
X179262531Y-76402701D01*
X179273949Y-76408511D01*
X179290698Y-76418485D01*
X179298250Y-76423152D01*
X179323339Y-76438101D01*
X179348318Y-76452384D01*
X179348830Y-76452669D01*
X179361941Y-76460122D01*
X179385248Y-76473501D01*
X179416970Y-76491775D01*
X179455325Y-76513913D01*
X179498533Y-76538884D01*
X179544811Y-76565656D01*
X179592379Y-76593198D01*
X179639456Y-76620478D01*
X179684261Y-76646467D01*
X179725011Y-76670131D01*
X179759927Y-76690440D01*
X179787226Y-76706363D01*
X179805128Y-76716868D01*
X179815276Y-76722836D01*
X179844069Y-76739483D01*
X179871583Y-76755034D01*
X179895117Y-76767993D01*
X179911971Y-76776865D01*
X179919444Y-76780154D01*
X179922010Y-76780961D01*
X179931455Y-76787403D01*
X179940405Y-76793481D01*
X179958881Y-76804907D01*
X179984125Y-76819996D01*
X180013423Y-76837102D01*
X180043297Y-76854421D01*
X180085599Y-76879086D01*
X180129318Y-76904700D01*
X180168650Y-76927869D01*
X180176796Y-76932673D01*
X180206113Y-76949741D01*
X180230427Y-76963557D01*
X180247401Y-76972809D01*
X180254697Y-76976185D01*
X180254970Y-76976206D01*
X180263766Y-76980268D01*
X180277998Y-76989244D01*
X180290036Y-76997023D01*
X180311524Y-77010199D01*
X180338043Y-77026063D01*
X180366196Y-77042619D01*
X180392585Y-77057872D01*
X180413815Y-77069825D01*
X180426488Y-77076484D01*
X180428672Y-77077541D01*
X180443172Y-77085377D01*
X180461493Y-77096016D01*
X180472731Y-77102639D01*
X180494703Y-77115477D01*
X180525753Y-77133564D01*
X180564347Y-77156007D01*
X180608948Y-77181914D01*
X180658022Y-77210392D01*
X180710032Y-77240548D01*
X180757312Y-77267967D01*
X180809339Y-77298182D01*
X180858101Y-77326545D01*
X180901826Y-77352021D01*
X180938744Y-77373581D01*
X180967083Y-77390191D01*
X180985074Y-77400821D01*
X180994072Y-77406159D01*
X181016185Y-77418985D01*
X181032311Y-77427909D01*
X181039455Y-77431257D01*
X181042120Y-77432383D01*
X181054584Y-77439308D01*
X181074561Y-77451143D01*
X181099271Y-77466262D01*
X181113600Y-77475092D01*
X181135867Y-77488551D01*
X181151774Y-77497818D01*
X181158570Y-77501268D01*
X181164590Y-77504295D01*
X181180229Y-77512946D01*
X181202856Y-77525731D01*
X181229865Y-77541158D01*
X181258652Y-77557731D01*
X181286612Y-77573956D01*
X181311140Y-77588340D01*
X181329630Y-77599387D01*
X181336757Y-77603626D01*
X181354011Y-77613706D01*
X181375137Y-77625925D01*
X181378473Y-77627849D01*
X181399842Y-77640242D01*
X181429107Y-77657290D01*
X181462851Y-77676997D01*
X181497656Y-77697373D01*
X181503317Y-77700689D01*
X181539692Y-77721924D01*
X181575628Y-77742790D01*
X181607248Y-77761043D01*
X181630677Y-77774437D01*
X181655593Y-77788625D01*
X181688935Y-77807776D01*
X181718191Y-77824739D01*
X181728720Y-77830876D01*
X181754947Y-77846113D01*
X181788692Y-77865677D01*
X181827992Y-77888433D01*
X181870883Y-77913247D01*
X181915402Y-77938984D01*
X181959586Y-77964510D01*
X182001471Y-77988690D01*
X182039093Y-78010389D01*
X182070490Y-78028473D01*
X182093698Y-78041808D01*
X182106752Y-78049259D01*
X182118267Y-78055887D01*
X182141116Y-78069295D01*
X182169497Y-78086126D01*
X182199764Y-78104224D01*
X182224876Y-78119159D01*
X182248278Y-78132755D01*
X182264785Y-78141975D01*
X182271861Y-78145369D01*
X182278446Y-78148467D01*
X182293600Y-78157306D01*
X182313757Y-78169873D01*
X182332734Y-78181820D01*
X182347784Y-78190902D01*
X182354423Y-78194377D01*
X182357207Y-78195627D01*
X182369878Y-78202467D01*
X182390236Y-78213933D01*
X182415546Y-78228498D01*
X182440084Y-78242748D01*
X182509310Y-78282986D01*
X182568338Y-78317351D01*
X182616683Y-78345563D01*
X182653865Y-78367341D01*
X182679401Y-78382402D01*
X182696844Y-78392503D01*
X182712728Y-78401103D01*
X182720326Y-78404410D01*
X182720547Y-78404427D01*
X182728895Y-78408510D01*
X182742772Y-78417601D01*
X182751859Y-78423707D01*
X182773295Y-78437036D01*
X182800612Y-78453230D01*
X182831249Y-78470857D01*
X182862646Y-78488488D01*
X182892244Y-78504691D01*
X182917482Y-78518037D01*
X182935801Y-78527093D01*
X182944641Y-78530430D01*
X182945199Y-78529533D01*
X182945972Y-78524849D01*
X182946700Y-78515826D01*
X182947384Y-78502093D01*
X182948025Y-78483277D01*
X182948625Y-78459007D01*
X182949184Y-78428912D01*
X182949705Y-78392620D01*
X182950188Y-78349759D01*
X182950635Y-78299957D01*
X182951047Y-78242844D01*
X182951424Y-78178046D01*
X182951769Y-78105193D01*
X182952083Y-78023912D01*
X182952367Y-77933833D01*
X182952622Y-77834583D01*
X182952849Y-77725791D01*
X182953050Y-77607086D01*
X182953226Y-77478094D01*
X182953377Y-77338446D01*
X182953507Y-77187768D01*
X182953615Y-77025691D01*
X182953703Y-76851840D01*
X182953772Y-76665846D01*
X182953824Y-76467337D01*
X182953859Y-76255940D01*
X182953879Y-76031285D01*
X182953886Y-75792999D01*
X182953879Y-75591359D01*
X182953850Y-75353581D01*
X182953798Y-75129312D01*
X182953722Y-74918278D01*
X182953621Y-74720204D01*
X182953495Y-74534818D01*
X182953343Y-74361846D01*
X182953164Y-74201014D01*
X182952957Y-74052049D01*
X182952721Y-73914677D01*
X182952456Y-73788625D01*
X182952161Y-73673619D01*
X182951834Y-73569386D01*
X182951476Y-73475651D01*
X182951086Y-73392142D01*
X182950662Y-73318585D01*
X182950204Y-73254706D01*
X182949711Y-73200232D01*
X182949182Y-73154889D01*
X182948617Y-73118404D01*
X182948015Y-73090503D01*
X182947374Y-73070912D01*
X182946695Y-73059358D01*
X182945976Y-73055568D01*
X182942390Y-73056715D01*
X182927950Y-73063629D01*
X182905015Y-73075750D01*
X182875848Y-73091869D01*
X182842709Y-73110777D01*
X182825951Y-73120474D01*
X182791826Y-73140186D01*
X182761397Y-73157718D01*
X182737469Y-73171455D01*
X182722849Y-73179782D01*
X182715926Y-73183723D01*
X182694681Y-73196010D01*
X182667592Y-73211839D01*
X182638836Y-73228775D01*
X182625031Y-73236927D01*
X182596554Y-73253664D01*
X182571758Y-73268142D01*
X182554823Y-73277916D01*
X182548422Y-73281576D01*
X182528654Y-73292955D01*
X182500960Y-73308952D01*
X182467343Y-73328405D01*
X182429809Y-73350149D01*
X182390362Y-73373023D01*
X182351007Y-73395862D01*
X182313749Y-73417504D01*
X182280591Y-73436785D01*
X182253539Y-73452543D01*
X182234598Y-73463615D01*
X182225771Y-73468837D01*
X182217657Y-73473762D01*
X182196273Y-73486379D01*
X182171643Y-73500581D01*
X182146834Y-73514639D01*
X182124913Y-73526821D01*
X182108947Y-73535400D01*
X182102004Y-73538644D01*
X182101801Y-73538660D01*
X182093638Y-73542700D01*
X182079829Y-73551708D01*
X182072164Y-73556606D01*
X182053204Y-73568079D01*
X182025635Y-73584445D01*
X181991423Y-73604559D01*
X181952533Y-73627278D01*
X181910930Y-73651456D01*
X181868580Y-73675949D01*
X181827447Y-73699613D01*
X181789498Y-73721303D01*
X181756697Y-73739875D01*
X181749264Y-73744096D01*
X181727165Y-73756821D01*
X181697478Y-73774050D01*
X181663162Y-73794066D01*
X181627177Y-73815147D01*
X181619152Y-73819854D01*
X181573733Y-73846347D01*
X181522911Y-73875802D01*
X181472333Y-73904953D01*
X181427645Y-73930535D01*
X181419143Y-73935385D01*
X181372483Y-73962151D01*
X181320692Y-73992059D01*
X181269493Y-74021796D01*
X181224613Y-74048048D01*
X181203039Y-74060727D01*
X181171302Y-74079358D01*
X181142967Y-74095948D01*
X181115814Y-74111786D01*
X181087622Y-74128160D01*
X181056171Y-74146359D01*
X181019242Y-74167671D01*
X180974613Y-74193385D01*
X180920065Y-74224788D01*
X180846296Y-74267314D01*
X180777518Y-74307123D01*
X180717797Y-74341886D01*
X180665505Y-74372551D01*
X180619018Y-74400063D01*
X180608752Y-74406155D01*
X180580593Y-74422725D01*
X180555545Y-74437282D01*
X180538058Y-74447235D01*
X180533552Y-74449760D01*
X180514234Y-74460751D01*
X180485189Y-74477408D01*
X180448131Y-74498740D01*
X180404773Y-74523758D01*
X180356827Y-74551471D01*
X180306009Y-74580890D01*
X180254030Y-74611024D01*
X180202604Y-74640884D01*
X180153445Y-74669479D01*
X180144250Y-74674823D01*
X180119454Y-74689191D01*
X180087040Y-74707940D01*
X180049938Y-74729380D01*
X180011079Y-74751817D01*
X179973393Y-74773559D01*
X179939810Y-74792913D01*
X179913263Y-74808187D01*
X179874683Y-74830369D01*
X179815559Y-74864434D01*
X179757962Y-74897694D01*
X179703663Y-74929125D01*
X179654433Y-74957700D01*
X179612040Y-74982392D01*
X179578256Y-75002175D01*
X179554850Y-75016022D01*
X179546294Y-75021120D01*
X179515716Y-75039103D01*
X179486453Y-75056011D01*
X179463836Y-75068756D01*
X179448986Y-75077142D01*
X179432958Y-75086831D01*
X179425330Y-75092341D01*
X179418445Y-75097416D01*
X179404327Y-75105046D01*
X179394896Y-75109898D01*
X179374437Y-75121282D01*
X179351818Y-75134566D01*
X179336578Y-75143639D01*
X179317856Y-75154395D01*
X179306311Y-75160531D01*
X179304657Y-75161342D01*
X179291570Y-75168528D01*
X179271065Y-75180360D01*
X179246802Y-75194735D01*
X179228225Y-75205765D01*
X179195523Y-75224908D01*
X179159214Y-75245933D01*
X179124283Y-75265942D01*
X179089994Y-75285481D01*
X179042191Y-75312836D01*
X178999100Y-75337629D01*
X178962215Y-75358994D01*
X178933032Y-75376063D01*
X178913044Y-75387969D01*
X178903748Y-75393846D01*
X178899410Y-75396702D01*
X178884730Y-75405426D01*
X178865242Y-75416405D01*
X178849305Y-75425360D01*
X178822664Y-75440562D01*
X178787381Y-75460826D01*
X178745208Y-75485136D01*
X178697895Y-75512480D01*
X178647195Y-75541842D01*
X178594856Y-75572210D01*
X178542632Y-75602568D01*
X178492272Y-75631903D01*
X178445528Y-75659201D01*
X178404151Y-75683447D01*
X178388288Y-75692710D01*
X178359343Y-75709432D01*
X178334140Y-75723799D01*
X178323805Y-75729677D01*
X178298464Y-75744399D01*
X178277149Y-75757152D01*
X178272781Y-75759785D01*
X178254159Y-75770096D01*
X178240393Y-75776411D01*
X178229283Y-75784197D01*
X177705183Y-75784197D01*
X177705146Y-75771227D01*
X177716706Y-75728506D01*
X177741380Y-75690096D01*
X177745100Y-75686153D01*
X177764824Y-75669694D01*
X177795346Y-75648129D01*
X177835330Y-75622299D01*
X177883440Y-75593050D01*
X177938340Y-75561223D01*
X177998695Y-75527663D01*
X178016536Y-75517785D01*
X178031128Y-75509454D01*
X178039800Y-75504377D01*
X178058553Y-75493438D01*
X178083878Y-75478688D01*
X178112818Y-75461849D01*
X178138263Y-75447047D01*
X178163845Y-75432160D01*
X178183099Y-75420947D01*
X178193136Y-75415091D01*
X178196616Y-75413067D01*
X178211538Y-75404448D01*
X178233678Y-75391700D01*
X178259646Y-75376774D01*
X178271652Y-75369861D01*
X178296323Y-75355529D01*
X178315623Y-75344150D01*
X178326157Y-75337717D01*
X178336977Y-75331327D01*
X178354161Y-75322381D01*
X178368051Y-75314972D01*
X178389688Y-75302535D01*
X178413671Y-75288126D01*
X178417721Y-75285664D01*
X178437892Y-75273689D01*
X178467695Y-75256251D01*
X178505205Y-75234466D01*
X178548495Y-75209453D01*
X178595638Y-75182327D01*
X178644707Y-75154205D01*
X178656425Y-75147502D01*
X178706853Y-75118608D01*
X178756044Y-75090357D01*
X178801815Y-75064007D01*
X178841979Y-75040817D01*
X178874351Y-75022048D01*
X178896747Y-75008958D01*
X178910763Y-75000716D01*
X178945006Y-74980691D01*
X178978367Y-74961315D01*
X179005264Y-74945833D01*
X179018525Y-74938240D01*
X179049255Y-74920564D01*
X179083930Y-74900543D01*
X179117282Y-74881216D01*
X179119490Y-74879933D01*
X179152418Y-74860847D01*
X179192269Y-74837797D01*
X179234218Y-74813571D01*
X179273438Y-74790960D01*
X179286754Y-74783289D01*
X179318253Y-74765133D01*
X179345129Y-74749624D01*
X179364879Y-74738209D01*
X179374997Y-74732332D01*
X179376499Y-74731454D01*
X179390086Y-74723628D01*
X179411173Y-74711571D01*
X179435874Y-74697506D01*
X179438620Y-74695946D01*
X179465822Y-74680465D01*
X179491185Y-74666001D01*
X179509540Y-74655499D01*
X179551065Y-74631650D01*
X179590962Y-74608715D01*
X179620125Y-74591921D01*
X179639334Y-74580818D01*
X179649365Y-74574959D01*
X179651402Y-74573760D01*
X179665307Y-74565668D01*
X179687607Y-74552759D01*
X179715395Y-74536709D01*
X179745764Y-74519193D01*
X179775805Y-74501888D01*
X179802613Y-74486470D01*
X179823278Y-74474616D01*
X179834895Y-74468000D01*
X179840984Y-74464528D01*
X179858504Y-74454437D01*
X179884156Y-74439609D01*
X179915578Y-74421408D01*
X179950413Y-74401197D01*
X179959342Y-74396015D01*
X180005602Y-74369225D01*
X180056511Y-74339815D01*
X180106486Y-74311010D01*
X180149944Y-74286030D01*
X180202861Y-74255593D01*
X180260202Y-74222456D01*
X180317062Y-74189455D01*
X180370520Y-74158290D01*
X180417656Y-74130660D01*
X180455547Y-74108264D01*
X180475465Y-74096750D01*
X180491655Y-74088055D01*
X180499476Y-74084730D01*
X180499851Y-74084672D01*
X180508733Y-74080405D01*
X180525693Y-74070699D01*
X180547428Y-74057433D01*
X180555935Y-74052184D01*
X180581742Y-74036661D01*
X180615946Y-74016426D01*
X180655978Y-73992972D01*
X180699267Y-73967792D01*
X180743239Y-73942380D01*
X180785326Y-73918227D01*
X180822955Y-73896828D01*
X180853555Y-73879675D01*
X180870790Y-73869975D01*
X180897106Y-73854721D01*
X180918176Y-73842014D01*
X180925283Y-73837680D01*
X180940722Y-73829100D01*
X180949130Y-73825689D01*
X180953898Y-73823975D01*
X180965021Y-73816220D01*
X180968216Y-73813827D01*
X180983261Y-73804340D01*
X181005734Y-73791352D01*
X181032083Y-73776944D01*
X181043282Y-73770937D01*
X181068296Y-73757176D01*
X181087900Y-73745919D01*
X181098594Y-73739155D01*
X181106724Y-73733477D01*
X181123097Y-73723532D01*
X181124220Y-73722913D01*
X181137536Y-73715369D01*
X181162369Y-73701143D01*
X181198217Y-73680525D01*
X181244573Y-73653807D01*
X181300933Y-73621278D01*
X181366793Y-73583230D01*
X181441648Y-73539954D01*
X181462408Y-73527969D01*
X181491595Y-73511188D01*
X181516282Y-73497071D01*
X181532662Y-73487800D01*
X181532878Y-73487678D01*
X181549475Y-73478252D01*
X181576562Y-73462691D01*
X181612572Y-73441904D01*
X181655938Y-73416801D01*
X181705091Y-73388291D01*
X181758464Y-73357284D01*
X181814489Y-73324688D01*
X181871599Y-73291413D01*
X181928224Y-73258369D01*
X181944496Y-73248892D01*
X181975188Y-73231139D01*
X182002761Y-73215332D01*
X182022739Y-73204045D01*
X182030112Y-73199900D01*
X182052203Y-73187293D01*
X182081902Y-73170196D01*
X182116243Y-73150319D01*
X182152259Y-73129372D01*
X182173728Y-73116886D01*
X182205545Y-73098505D01*
X182232195Y-73083261D01*
X182251374Y-73072468D01*
X182260777Y-73067440D01*
X182266397Y-73064660D01*
X182281780Y-73055674D01*
X182285988Y-73053047D01*
X182301161Y-73043982D01*
X182324614Y-73030182D01*
X182354310Y-73012826D01*
X182388212Y-72993095D01*
X182424283Y-72972168D01*
X182460486Y-72951225D01*
X182494783Y-72931444D01*
X182525137Y-72914006D01*
X182549511Y-72900090D01*
X182565868Y-72890875D01*
X182572170Y-72887541D01*
X182577463Y-72884724D01*
X182593363Y-72875693D01*
X182618255Y-72861354D01*
X182650527Y-72842640D01*
X182688564Y-72820484D01*
X182730754Y-72795819D01*
X182764586Y-72776040D01*
X182808087Y-72750705D01*
X182848117Y-72727497D01*
X182882526Y-72707657D01*
X182909164Y-72692429D01*
X182925881Y-72683055D01*
X182944133Y-72672911D01*
X182945976Y-72671845D01*
X182961851Y-72662664D01*
X182971388Y-72656630D01*
X182972256Y-72656010D01*
X182983329Y-72649254D01*
X183002510Y-72638291D01*
X183026229Y-72625171D01*
X183045244Y-72615213D01*
X183069041Y-72605154D01*
X183090649Y-72600334D01*
X183115759Y-72599096D01*
X183132124Y-72599739D01*
G37*
G36*
X181318889Y-75162878D02*
G01*
X181313511Y-75178627D01*
X181301201Y-75206287D01*
X181282004Y-75245756D01*
X181255965Y-75296929D01*
X181251166Y-75306224D01*
X181226643Y-75353880D01*
X181201791Y-75402404D01*
X181178305Y-75448475D01*
X181157882Y-75488767D01*
X181142216Y-75519956D01*
X181139976Y-75524444D01*
X181124853Y-75554462D01*
X181112055Y-75579379D01*
X181102871Y-75596710D01*
X181098594Y-75603969D01*
X181097491Y-75605329D01*
X181090282Y-75617188D01*
X181078587Y-75638592D01*
X181063397Y-75667540D01*
X181045704Y-75702036D01*
X181026499Y-75740079D01*
X181006774Y-75779671D01*
X180987520Y-75818812D01*
X180969728Y-75855504D01*
X180954391Y-75887749D01*
X180942498Y-75913546D01*
X180935043Y-75930897D01*
X180933016Y-75937803D01*
X180933564Y-75938030D01*
X180944091Y-75938013D01*
X180966279Y-75936265D01*
X180998302Y-75933006D01*
X181038332Y-75928457D01*
X181084542Y-75922840D01*
X181135103Y-75916375D01*
X181188189Y-75909283D01*
X181241972Y-75901785D01*
X181294624Y-75894101D01*
X181298791Y-75893483D01*
X181325672Y-75889624D01*
X181363454Y-75884335D01*
X181409691Y-75877953D01*
X181461937Y-75870815D01*
X181517745Y-75863257D01*
X181574669Y-75855614D01*
X181686905Y-75840561D01*
X181791213Y-75826449D01*
X181882137Y-75814007D01*
X181959604Y-75803246D01*
X182023541Y-75794177D01*
X182073875Y-75786808D01*
X182110535Y-75781151D01*
X182133446Y-75777217D01*
X182142537Y-75775014D01*
X182146694Y-75771319D01*
X182146830Y-75765852D01*
X182140582Y-75757938D01*
X182126596Y-75746304D01*
X182103519Y-75729676D01*
X182069997Y-75706781D01*
X182040764Y-75686983D01*
X182002521Y-75660746D01*
X181974891Y-75641248D01*
X181957161Y-75627968D01*
X181948617Y-75620383D01*
X181948543Y-75617971D01*
X181955427Y-75618858D01*
X181974170Y-75621738D01*
X182002337Y-75626254D01*
X182037610Y-75632033D01*
X182077674Y-75638704D01*
X182111555Y-75644349D01*
X182151017Y-75650822D01*
X182185073Y-75656300D01*
X182210925Y-75660333D01*
X182225771Y-75662471D01*
X182227740Y-75662733D01*
X182243108Y-75665015D01*
X182269575Y-75669100D01*
X182304995Y-75674646D01*
X182347224Y-75681310D01*
X182394117Y-75688750D01*
X182443529Y-75696624D01*
X182493316Y-75704589D01*
X182541333Y-75712304D01*
X182585435Y-75719426D01*
X182623478Y-75725612D01*
X182653317Y-75730521D01*
X182672807Y-75733811D01*
X182675684Y-75734329D01*
X182689493Y-75737512D01*
X182693810Y-75739840D01*
X182693311Y-75740203D01*
X182684649Y-75746201D01*
X182667121Y-75758220D01*
X182642943Y-75774745D01*
X182614332Y-75794256D01*
X182586870Y-75813046D01*
X182548458Y-75839471D01*
X182505223Y-75869327D01*
X182460668Y-75900193D01*
X182418301Y-75929647D01*
X182410066Y-75935384D01*
X182339131Y-75984769D01*
X182277693Y-76027471D01*
X182223978Y-76064722D01*
X182176213Y-76097751D01*
X182132622Y-76127788D01*
X182127176Y-76131535D01*
X182103208Y-76148057D01*
X182082968Y-76162054D01*
X182070364Y-76170825D01*
X182067186Y-76172174D01*
X182067907Y-76165915D01*
X182076542Y-76148988D01*
X182092897Y-76121817D01*
X182100129Y-76110270D01*
X182127553Y-76066252D01*
X182148332Y-76032356D01*
X182163220Y-76007229D01*
X182172970Y-75989520D01*
X182178334Y-75977876D01*
X182180066Y-75970947D01*
X182178918Y-75967380D01*
X182178216Y-75966764D01*
X182176118Y-75965814D01*
X182172409Y-75965513D01*
X182166174Y-75966097D01*
X182156498Y-75967799D01*
X182142466Y-75970853D01*
X182123163Y-75975494D01*
X182097674Y-75981955D01*
X182065084Y-75990472D01*
X182024478Y-76001278D01*
X181974941Y-76014607D01*
X181915559Y-76030694D01*
X181845415Y-76049772D01*
X181763594Y-76072077D01*
X181669183Y-76097841D01*
X181656989Y-76101165D01*
X181625772Y-76109655D01*
X181585437Y-76120609D01*
X181538825Y-76133256D01*
X181488781Y-76146823D01*
X181438147Y-76160540D01*
X181391624Y-76173142D01*
X181344319Y-76185974D01*
X181306526Y-76196255D01*
X181276028Y-76204597D01*
X181250605Y-76211609D01*
X181228040Y-76217899D01*
X181206113Y-76224079D01*
X181182607Y-76230757D01*
X181178016Y-76232045D01*
X181158365Y-76237452D01*
X181127953Y-76245743D01*
X181088725Y-76256391D01*
X181042622Y-76268868D01*
X180991589Y-76282647D01*
X180937568Y-76297203D01*
X180934759Y-76297959D01*
X180873540Y-76314453D01*
X180809233Y-76331808D01*
X180745159Y-76349123D01*
X180684641Y-76365501D01*
X180631001Y-76380044D01*
X180587561Y-76391852D01*
X180578264Y-76394379D01*
X180537734Y-76405258D01*
X180502513Y-76414492D01*
X180474648Y-76421561D01*
X180456187Y-76425942D01*
X180449175Y-76427115D01*
X180449923Y-76425131D01*
X180456169Y-76412710D01*
X180468143Y-76390006D01*
X180485156Y-76358294D01*
X180506519Y-76318849D01*
X180531544Y-76272945D01*
X180559540Y-76221857D01*
X180589821Y-76166860D01*
X180601656Y-76145410D01*
X180633047Y-76088482D01*
X180663046Y-76034034D01*
X180690757Y-75983693D01*
X180715284Y-75939091D01*
X180735730Y-75901856D01*
X180751199Y-75873619D01*
X180760794Y-75856009D01*
X180766220Y-75846020D01*
X180782252Y-75816735D01*
X180802179Y-75780543D01*
X180823983Y-75741108D01*
X180845645Y-75702094D01*
X180859231Y-75677207D01*
X180875475Y-75645952D01*
X180887776Y-75620424D01*
X180895118Y-75602759D01*
X180896487Y-75595093D01*
X180890892Y-75594516D01*
X180872746Y-75599313D01*
X180842765Y-75610460D01*
X180801259Y-75627839D01*
X180748538Y-75651332D01*
X180743150Y-75653772D01*
X180721401Y-75663519D01*
X180691303Y-75676921D01*
X180656096Y-75692537D01*
X180619018Y-75708926D01*
X180603196Y-75715910D01*
X180568204Y-75731368D01*
X180537432Y-75744980D01*
X180513742Y-75755480D01*
X180499999Y-75761598D01*
X180487014Y-75767383D01*
X180460781Y-75778994D01*
X180425592Y-75794522D01*
X180383608Y-75813017D01*
X180336991Y-75833530D01*
X180287900Y-75855112D01*
X180238497Y-75876813D01*
X180190943Y-75897683D01*
X180147399Y-75916774D01*
X180110025Y-75933135D01*
X180080981Y-75945817D01*
X180062430Y-75953870D01*
X180030626Y-75967779D01*
X179992458Y-75984814D01*
X179958540Y-76000266D01*
X179951233Y-76003633D01*
X179928255Y-76014031D01*
X179911546Y-76021300D01*
X179904311Y-76024035D01*
X179903119Y-76024369D01*
X179892298Y-76028807D01*
X179873013Y-76037324D01*
X179848415Y-76048539D01*
X179839639Y-76052575D01*
X179816507Y-76063026D01*
X179799768Y-76070308D01*
X179792568Y-76073043D01*
X179787717Y-76074715D01*
X179773157Y-76080873D01*
X179752823Y-76090004D01*
X179737948Y-76096798D01*
X179701987Y-76113010D01*
X179663459Y-76130141D01*
X179624556Y-76147243D01*
X179587469Y-76163365D01*
X179554391Y-76177558D01*
X179527513Y-76188872D01*
X179509028Y-76196357D01*
X179501129Y-76199063D01*
X179499847Y-76192805D01*
X179498620Y-76174062D01*
X179497536Y-76144386D01*
X179496629Y-76105343D01*
X179495938Y-76058496D01*
X179495496Y-76005408D01*
X179495341Y-75947646D01*
X179495341Y-75696229D01*
X179553100Y-75678276D01*
X179579018Y-75670349D01*
X179616934Y-75658985D01*
X179658475Y-75646720D01*
X179698373Y-75635118D01*
X179732889Y-75625155D01*
X179774498Y-75613099D01*
X179813171Y-75601851D01*
X179843646Y-75592939D01*
X179879442Y-75582421D01*
X179917099Y-75571361D01*
X179953269Y-75560746D01*
X179990083Y-75549950D01*
X180029675Y-75538349D01*
X180074176Y-75525319D01*
X180125719Y-75510234D01*
X180186436Y-75492469D01*
X180258461Y-75471400D01*
X180307931Y-75456905D01*
X180362544Y-75440846D01*
X180412581Y-75426072D01*
X180456269Y-75413109D01*
X180491835Y-75402485D01*
X180517504Y-75394725D01*
X180531504Y-75390356D01*
X180549033Y-75384847D01*
X180577266Y-75376359D01*
X180611265Y-75366387D01*
X180647022Y-75356119D01*
X180674919Y-75348164D01*
X180728180Y-75332829D01*
X180792119Y-75314263D01*
X180867419Y-75292266D01*
X180954764Y-75266639D01*
X181054837Y-75237184D01*
X181083637Y-75228704D01*
X181131730Y-75214567D01*
X181180532Y-75200245D01*
X181222973Y-75187813D01*
X181255899Y-75178095D01*
X181284702Y-75169432D01*
X181306260Y-75162775D01*
X181317470Y-75159066D01*
X181318889Y-75162878D01*
G37*
G36*
X183800832Y-85424126D02*
G01*
X183807225Y-85424908D01*
X183814857Y-85426220D01*
X183818974Y-85427442D01*
X183819880Y-85428090D01*
X183821602Y-85431980D01*
X183818360Y-85435253D01*
X183816562Y-85436792D01*
X183819021Y-85439469D01*
X183821332Y-85441877D01*
X183820193Y-85444833D01*
X183814117Y-85447073D01*
X183803406Y-85448424D01*
X183797535Y-85448494D01*
X183791454Y-85447642D01*
X183788586Y-85446124D01*
X183789665Y-85444431D01*
X183795420Y-85443056D01*
X183795663Y-85443024D01*
X183800346Y-85441229D01*
X183800695Y-85437057D01*
X183798900Y-85433954D01*
X183793686Y-85431057D01*
X183790217Y-85429882D01*
X183786761Y-85426382D01*
X183786579Y-85425610D01*
X183787634Y-85423899D01*
X183792047Y-85423458D01*
X183800832Y-85424126D01*
G37*
G36*
X183809232Y-85453595D02*
G01*
X183816366Y-85454229D01*
X183819881Y-85455211D01*
X183820839Y-85457711D01*
X183818770Y-85460390D01*
X183814666Y-85460571D01*
X183813814Y-85460279D01*
X183811083Y-85460599D01*
X183811982Y-85463662D01*
X183816310Y-85468502D01*
X183817557Y-85469749D01*
X183820839Y-85474660D01*
X183821929Y-85478962D01*
X183820235Y-85480807D01*
X183819757Y-85480623D01*
X183816454Y-85477733D01*
X183811658Y-85472449D01*
X183804626Y-85464092D01*
X183797096Y-85471306D01*
X183797033Y-85471366D01*
X183791264Y-85475370D01*
X183787564Y-85475519D01*
X183786963Y-85472492D01*
X183790488Y-85466963D01*
X183792991Y-85463284D01*
X183792124Y-85461666D01*
X183790665Y-85461200D01*
X183788965Y-85457564D01*
X183790119Y-85455214D01*
X183794635Y-85453852D01*
X183803549Y-85453463D01*
X183809232Y-85453595D01*
G37*
G36*
X183801735Y-85484509D02*
G01*
X183801828Y-85487176D01*
X183801618Y-85490534D01*
X183803897Y-85496161D01*
X183804683Y-85497196D01*
X183807970Y-85499571D01*
X183811912Y-85497459D01*
X183814318Y-85494594D01*
X183816310Y-85488514D01*
X183816849Y-85485699D01*
X183819044Y-85484909D01*
X183820877Y-85486747D01*
X183821828Y-85492150D01*
X183819800Y-85498290D01*
X183815607Y-85503316D01*
X183810061Y-85505375D01*
X183808344Y-85505314D01*
X183800773Y-85502921D01*
X183796371Y-85496530D01*
X183796207Y-85496106D01*
X183793249Y-85492231D01*
X183790475Y-85492589D01*
X183789681Y-85497041D01*
X183789556Y-85500116D01*
X183787598Y-85502510D01*
X183787382Y-85502496D01*
X183785596Y-85499788D01*
X183784864Y-85493795D01*
X183785296Y-85488155D01*
X183787818Y-85485178D01*
X183794120Y-85484024D01*
X183797878Y-85483781D01*
X183801735Y-85484509D01*
G37*
G36*
X183799480Y-85512871D02*
G01*
X183801638Y-85516354D01*
X183801787Y-85518003D01*
X183802322Y-85523874D01*
X183803005Y-85525600D01*
X183806696Y-85527199D01*
X183811406Y-85526251D01*
X183814659Y-85522944D01*
X183815267Y-85520568D01*
X183814790Y-85516108D01*
X183814607Y-85514835D01*
X183817515Y-85513620D01*
X183819458Y-85514052D01*
X183821564Y-85517585D01*
X183820665Y-85523430D01*
X183816823Y-85530071D01*
X183814489Y-85532370D01*
X183807989Y-85534624D01*
X183801670Y-85532230D01*
X183797017Y-85525526D01*
X183795822Y-85523097D01*
X183792534Y-85520538D01*
X183790173Y-85522331D01*
X183790508Y-85527846D01*
X183791049Y-85531706D01*
X183788569Y-85532190D01*
X183788457Y-85532150D01*
X183785655Y-85528683D01*
X183784007Y-85522296D01*
X183783790Y-85518641D01*
X183784907Y-85514502D01*
X183788792Y-85513210D01*
X183792341Y-85512948D01*
X183797852Y-85512526D01*
X183799480Y-85512871D01*
G37*
G36*
X183812363Y-85542540D02*
G01*
X183813575Y-85547508D01*
X183814490Y-85551965D01*
X183817677Y-85555625D01*
X183820812Y-85557193D01*
X183822189Y-85559603D01*
X183819574Y-85561379D01*
X183813889Y-85562075D01*
X183806055Y-85561246D01*
X183804601Y-85560872D01*
X183800639Y-85558469D01*
X183800276Y-85555860D01*
X183804005Y-85554636D01*
X183805892Y-85554328D01*
X183808106Y-85551902D01*
X183808086Y-85551065D01*
X183807326Y-85549456D01*
X183804467Y-85550124D01*
X183798165Y-85553252D01*
X183791313Y-85556273D01*
X183785532Y-85557099D01*
X183783497Y-85554502D01*
X183785370Y-85552222D01*
X183790746Y-85548729D01*
X183797863Y-85545095D01*
X183804929Y-85542225D01*
X183810157Y-85541024D01*
X183812363Y-85542540D01*
G37*
G36*
X183806232Y-85571193D02*
G01*
X183807889Y-85571445D01*
X183813953Y-85572367D01*
X183818497Y-85574324D01*
X183819251Y-85575177D01*
X183821675Y-85582302D01*
X183820119Y-85591327D01*
X183818552Y-85593381D01*
X183812788Y-85595501D01*
X183804822Y-85595569D01*
X183796408Y-85593848D01*
X183789298Y-85590602D01*
X183785246Y-85586093D01*
X183784394Y-85582859D01*
X183784889Y-85580717D01*
X183790671Y-85580717D01*
X183790922Y-85584749D01*
X183795898Y-85586981D01*
X183805585Y-85586958D01*
X183812410Y-85585303D01*
X183815824Y-85582186D01*
X183814544Y-85578391D01*
X183813490Y-85577650D01*
X183807889Y-85576406D01*
X183800654Y-85576654D01*
X183794132Y-85578168D01*
X183790671Y-85580717D01*
X183784889Y-85580717D01*
X183785856Y-85576535D01*
X183791923Y-85572476D01*
X183802187Y-85571043D01*
X183806232Y-85571193D01*
G37*
G36*
X183806848Y-85601805D02*
G01*
X183808348Y-85604371D01*
X183811954Y-85606590D01*
X183813832Y-85606963D01*
X183818497Y-85609871D01*
X183820399Y-85612929D01*
X183821652Y-85618504D01*
X183821226Y-85623540D01*
X183819044Y-85625731D01*
X183817817Y-85625302D01*
X183816310Y-85621726D01*
X183814751Y-85617312D01*
X183809685Y-85614165D01*
X183802725Y-85613486D01*
X183795554Y-85615386D01*
X183789855Y-85619976D01*
X183788884Y-85621254D01*
X183786590Y-85622831D01*
X183784753Y-85619544D01*
X183784676Y-85613894D01*
X183788403Y-85608747D01*
X183794633Y-85606590D01*
X183797804Y-85605807D01*
X183802318Y-85601805D01*
X183803362Y-85600000D01*
X183805157Y-85598471D01*
X183806848Y-85601805D01*
G37*
G36*
X183797859Y-85630843D02*
G01*
X183798124Y-85635389D01*
X183798138Y-85637716D01*
X183801444Y-85639042D01*
X183809181Y-85639403D01*
X183812071Y-85639453D01*
X183819398Y-85640508D01*
X183821778Y-85642996D01*
X183821764Y-85643264D01*
X183819976Y-85645114D01*
X183814582Y-85645795D01*
X183804688Y-85645433D01*
X183796562Y-85644673D01*
X183789128Y-85643499D01*
X183785438Y-85642278D01*
X183785012Y-85641638D01*
X183785756Y-85637881D01*
X183789004Y-85633380D01*
X183793154Y-85629971D01*
X183796606Y-85629485D01*
X183797859Y-85630843D01*
G37*
G36*
X183801090Y-85661054D02*
G01*
X183806174Y-85667193D01*
X183807729Y-85669762D01*
X183811227Y-85673520D01*
X183814125Y-85672760D01*
X183815685Y-85669951D01*
X183813616Y-85665430D01*
X183811407Y-85660908D01*
X183813117Y-85659073D01*
X183817611Y-85661224D01*
X183821226Y-85666589D01*
X183821392Y-85672999D01*
X183818260Y-85678246D01*
X183812354Y-85680419D01*
X183807978Y-85679239D01*
X183803135Y-85673583D01*
X183800279Y-85668966D01*
X183797175Y-85666747D01*
X183795669Y-85668348D01*
X183796046Y-85673583D01*
X183796543Y-85678168D01*
X183794783Y-85680419D01*
X183792874Y-85679356D01*
X183790492Y-85674676D01*
X183789309Y-85668340D01*
X183789952Y-85662652D01*
X183791283Y-85660393D01*
X183795693Y-85658666D01*
X183801090Y-85661054D01*
G37*
G36*
X183810785Y-85687316D02*
G01*
X183815191Y-85690250D01*
X183818206Y-85696826D01*
X183819765Y-85701620D01*
X183821569Y-85709150D01*
X183820918Y-85712078D01*
X183817808Y-85710607D01*
X183814784Y-85709084D01*
X183808552Y-85708989D01*
X183806362Y-85709428D01*
X183798814Y-85708374D01*
X183791918Y-85704574D01*
X183788073Y-85699179D01*
X183787741Y-85697020D01*
X183788147Y-85695842D01*
X183795463Y-85695842D01*
X183796297Y-85699429D01*
X183801212Y-85701888D01*
X183804531Y-85701747D01*
X183804489Y-85698470D01*
X183803933Y-85695296D01*
X183805983Y-85694340D01*
X183810294Y-85697373D01*
X183812518Y-85699104D01*
X183813575Y-85697557D01*
X183813520Y-85697008D01*
X183810610Y-85693828D01*
X183804934Y-85692254D01*
X183798805Y-85692999D01*
X183795463Y-85695842D01*
X183788147Y-85695842D01*
X183789797Y-85691057D01*
X183795891Y-85687277D01*
X183804934Y-85686436D01*
X183805028Y-85686427D01*
X183810785Y-85687316D01*
G37*
G36*
X183787304Y-85716929D02*
G01*
X183790965Y-85720752D01*
X183791938Y-85721967D01*
X183797724Y-85725620D01*
X183804920Y-85727092D01*
X183811471Y-85726211D01*
X183815321Y-85722803D01*
X183816347Y-85720877D01*
X183819336Y-85718701D01*
X183821580Y-85720082D01*
X183821685Y-85724158D01*
X183819527Y-85729016D01*
X183815626Y-85732686D01*
X183811331Y-85735377D01*
X183807590Y-85738826D01*
X183805373Y-85739895D01*
X183800538Y-85737050D01*
X183796489Y-85734068D01*
X183792109Y-85732373D01*
X183789172Y-85730684D01*
X183785990Y-85725910D01*
X183784126Y-85720422D01*
X183784718Y-85716639D01*
X183787304Y-85716929D01*
G37*
G36*
X183802469Y-85778533D02*
G01*
X183806450Y-85784574D01*
X183807298Y-85785961D01*
X183811250Y-85790531D01*
X183814306Y-85790159D01*
X183815629Y-85787737D01*
X183813616Y-85783010D01*
X183811407Y-85778488D01*
X183813117Y-85776653D01*
X183817611Y-85778804D01*
X183818634Y-85779727D01*
X183821616Y-85785621D01*
X183820119Y-85793674D01*
X183819183Y-85795433D01*
X183814760Y-85797836D01*
X183808952Y-85796104D01*
X183803088Y-85790485D01*
X183802427Y-85789611D01*
X183798313Y-85785588D01*
X183795523Y-85785061D01*
X183794912Y-85786584D01*
X183796667Y-85790388D01*
X183798609Y-85792679D01*
X183799581Y-85796519D01*
X183796094Y-85797999D01*
X183793905Y-85797459D01*
X183790502Y-85793477D01*
X183789065Y-85787426D01*
X183789894Y-85781472D01*
X183793291Y-85777784D01*
X183794609Y-85777293D01*
X183799133Y-85776422D01*
X183802469Y-85778533D01*
G37*
G36*
X183819955Y-85805291D02*
G01*
X183821463Y-85808664D01*
X183821357Y-85815549D01*
X183818948Y-85822789D01*
X183816853Y-85825331D01*
X183811234Y-85827787D01*
X183805334Y-85827249D01*
X183801506Y-85823604D01*
X183800518Y-85821452D01*
X183798484Y-85820801D01*
X183794434Y-85823976D01*
X183790796Y-85826665D01*
X183788474Y-85826120D01*
X183786911Y-85821597D01*
X183785540Y-85812355D01*
X183785531Y-85812277D01*
X183785593Y-85805601D01*
X183788072Y-85803468D01*
X183790187Y-85804500D01*
X183791700Y-85808937D01*
X183792213Y-85812116D01*
X183794434Y-85814406D01*
X183795088Y-85814326D01*
X183797169Y-85811671D01*
X183797203Y-85810935D01*
X183798737Y-85808885D01*
X183801718Y-85810804D01*
X183805001Y-85816051D01*
X183806284Y-85818640D01*
X183808956Y-85821356D01*
X183812250Y-85819840D01*
X183814344Y-85816967D01*
X183814619Y-85809991D01*
X183814251Y-85805988D01*
X183816137Y-85803390D01*
X183819955Y-85805291D01*
G37*
G36*
X183807769Y-85833937D02*
G01*
X183813700Y-85834717D01*
X183818497Y-85836828D01*
X183820298Y-85839577D01*
X183821778Y-85845852D01*
X183821237Y-85849544D01*
X183818497Y-85854875D01*
X183816752Y-85856030D01*
X183810183Y-85857691D01*
X183801901Y-85858022D01*
X183794249Y-85857034D01*
X183789567Y-85854738D01*
X183787365Y-85850960D01*
X183786034Y-85844667D01*
X183790259Y-85844667D01*
X183790983Y-85847897D01*
X183795435Y-85849513D01*
X183804460Y-85849953D01*
X183806901Y-85849888D01*
X183814106Y-85848403D01*
X183816779Y-85845255D01*
X183814487Y-85840838D01*
X183813330Y-85840075D01*
X183807769Y-85838965D01*
X183800601Y-85839191D01*
X183794169Y-85840552D01*
X183790814Y-85842850D01*
X183790259Y-85844667D01*
X183786034Y-85844667D01*
X183785763Y-85843387D01*
X183787144Y-85836965D01*
X183790593Y-85834977D01*
X183797642Y-85833800D01*
X183806046Y-85833711D01*
X183807769Y-85833937D01*
G37*
G36*
X183812502Y-79547627D02*
G01*
X183811877Y-79551101D01*
X183811789Y-79551290D01*
X183808708Y-79554367D01*
X183802740Y-79558737D01*
X183795348Y-79563500D01*
X183787997Y-79567756D01*
X183782148Y-79570605D01*
X183779267Y-79571148D01*
X183779127Y-79569284D01*
X183782093Y-79565362D01*
X183787598Y-79561288D01*
X183790480Y-79559559D01*
X183791306Y-79557932D01*
X183787104Y-79556467D01*
X183783714Y-79554929D01*
X183780200Y-79551641D01*
X183779189Y-79548514D01*
X183781607Y-79547122D01*
X183785423Y-79548215D01*
X183791209Y-79551461D01*
X183794640Y-79553635D01*
X183798755Y-79554260D01*
X183804026Y-79551461D01*
X183808984Y-79548464D01*
X183812026Y-79547122D01*
X183812502Y-79547627D01*
G37*
G36*
X183791173Y-79634221D02*
G01*
X183796485Y-79634858D01*
X183800595Y-79637613D01*
X183802637Y-79644267D01*
X183803338Y-79648737D01*
X183805503Y-79649582D01*
X183806812Y-79648188D01*
X183807922Y-79643268D01*
X183807662Y-79638374D01*
X183808513Y-79635256D01*
X183810841Y-79637358D01*
X183812171Y-79639602D01*
X183813320Y-79644689D01*
X183810937Y-79650850D01*
X183809170Y-79653038D01*
X183803884Y-79655264D01*
X183794530Y-79656090D01*
X183780762Y-79656400D01*
X183780762Y-79646975D01*
X183780801Y-79645520D01*
X183781460Y-79643235D01*
X183787349Y-79643235D01*
X183787726Y-79646770D01*
X183791051Y-79649435D01*
X183794987Y-79649321D01*
X183795857Y-79648454D01*
X183797169Y-79644032D01*
X183795286Y-79640786D01*
X183791173Y-79640376D01*
X183787409Y-79643132D01*
X183787349Y-79643235D01*
X183781460Y-79643235D01*
X183783087Y-79637599D01*
X183788502Y-79633901D01*
X183791173Y-79634221D01*
G37*
G36*
X183811939Y-79751747D02*
G01*
X183812502Y-79753211D01*
X183809888Y-79756340D01*
X183807388Y-79758831D01*
X183805372Y-79763579D01*
X183805361Y-79764014D01*
X183802805Y-79769830D01*
X183797097Y-79773340D01*
X183790193Y-79773883D01*
X183784043Y-79770797D01*
X183781910Y-79766876D01*
X183781140Y-79762344D01*
X183787889Y-79762344D01*
X183788573Y-79765692D01*
X183793030Y-79767242D01*
X183796246Y-79766421D01*
X183799425Y-79762235D01*
X183799530Y-79761628D01*
X183798708Y-79758367D01*
X183793994Y-79758134D01*
X183790772Y-79759148D01*
X183787889Y-79762344D01*
X183781140Y-79762344D01*
X183780762Y-79760123D01*
X183780947Y-79756743D01*
X183782485Y-79753915D01*
X183786753Y-79752469D01*
X183793994Y-79751712D01*
X183795118Y-79751594D01*
X183800576Y-79751266D01*
X183807993Y-79751217D01*
X183811939Y-79751747D01*
G37*
G36*
X183807187Y-79780557D02*
G01*
X183812594Y-79781713D01*
X183813520Y-79783608D01*
X183809473Y-79786005D01*
X183807136Y-79787909D01*
X183805372Y-79793192D01*
X183803967Y-79797434D01*
X183798547Y-79801915D01*
X183796764Y-79802673D01*
X183791342Y-79803348D01*
X183786113Y-79799948D01*
X183782936Y-79795911D01*
X183782116Y-79791852D01*
X183786231Y-79791852D01*
X183786605Y-79793506D01*
X183790067Y-79796841D01*
X183793047Y-79797078D01*
X183798517Y-79794939D01*
X183799560Y-79794150D01*
X183801637Y-79791303D01*
X183799129Y-79788243D01*
X183798691Y-79787905D01*
X183793371Y-79786323D01*
X183788416Y-79787863D01*
X183786231Y-79791852D01*
X183782116Y-79791852D01*
X183781316Y-79787893D01*
X183782016Y-79784388D01*
X183784128Y-79782001D01*
X183788946Y-79780874D01*
X183793371Y-79780627D01*
X183797852Y-79780377D01*
X183807187Y-79780557D01*
G37*
G36*
X183811003Y-85751591D02*
G01*
X183812136Y-85754017D01*
X183812924Y-85759608D01*
X183811957Y-85764352D01*
X183809473Y-85766014D01*
X183807024Y-85764049D01*
X183805622Y-85758626D01*
X183806655Y-85752115D01*
X183806832Y-85751661D01*
X183808627Y-85749075D01*
X183811003Y-85751591D01*
G37*
G36*
X183796781Y-79722668D02*
G01*
X183801544Y-79724217D01*
X183802879Y-79725385D01*
X183805896Y-79730328D01*
X183806230Y-79731576D01*
X183805223Y-79737941D01*
X183799869Y-79742351D01*
X183791042Y-79744000D01*
X183784164Y-79743332D01*
X183781036Y-79741553D01*
X183782790Y-79739501D01*
X183789627Y-79738021D01*
X183795954Y-79736450D01*
X183799398Y-79732379D01*
X183799461Y-79730172D01*
X183797085Y-79728128D01*
X183790533Y-79727593D01*
X183789104Y-79727564D01*
X183783169Y-79726651D01*
X183780762Y-79724859D01*
X183780930Y-79724324D01*
X183784287Y-79722789D01*
X183790300Y-79722214D01*
X183796781Y-79722668D01*
G37*
G36*
X183784654Y-79840169D02*
G01*
X183786231Y-79843806D01*
X183786539Y-79845233D01*
X183789906Y-79847293D01*
X183797715Y-79847908D01*
X183801960Y-79848014D01*
X183806510Y-79848908D01*
X183806279Y-79850829D01*
X183805641Y-79851305D01*
X183800320Y-79852743D01*
X183792744Y-79852880D01*
X183787443Y-79852191D01*
X183782939Y-79850090D01*
X183781256Y-79845857D01*
X183781365Y-79841970D01*
X183783306Y-79839705D01*
X183784654Y-79840169D01*
G37*
G36*
X183799005Y-79867883D02*
G01*
X183804264Y-79871043D01*
X183806146Y-79876213D01*
X183805484Y-79883052D01*
X183802071Y-79887907D01*
X183800452Y-79886971D01*
X183800351Y-79881950D01*
X183800124Y-79876525D01*
X183797852Y-79873212D01*
X183795338Y-79874445D01*
X183794434Y-79880693D01*
X183794378Y-79882975D01*
X183793177Y-79887689D01*
X183789942Y-79888441D01*
X183784189Y-79885268D01*
X183781233Y-79879457D01*
X183781481Y-79878148D01*
X183786231Y-79878148D01*
X183786446Y-79879137D01*
X183788965Y-79879354D01*
X183789784Y-79878792D01*
X183791700Y-79876458D01*
X183791629Y-79876185D01*
X183788965Y-79875252D01*
X183788216Y-79875363D01*
X183786231Y-79878148D01*
X183781481Y-79878148D01*
X183782419Y-79873201D01*
X183785137Y-79870404D01*
X183788965Y-79868883D01*
X183791812Y-79867751D01*
X183799005Y-79867883D01*
G37*
G36*
X183793907Y-79982713D02*
G01*
X183796862Y-79982739D01*
X183802962Y-79987084D01*
X183805453Y-79991410D01*
X183805781Y-79998627D01*
X183801470Y-80004411D01*
X183795629Y-80006410D01*
X183788477Y-80005283D01*
X183783441Y-80000932D01*
X183782533Y-79998919D01*
X183782285Y-79995723D01*
X183786641Y-79995723D01*
X183789141Y-79998467D01*
X183791250Y-79999592D01*
X183796192Y-80000993D01*
X183798243Y-80000411D01*
X183800867Y-79996457D01*
X183800640Y-79990781D01*
X183798571Y-79988123D01*
X183793907Y-79987902D01*
X183788792Y-79991673D01*
X183788543Y-79991977D01*
X183786641Y-79995723D01*
X183782285Y-79995723D01*
X183781974Y-79991705D01*
X183785053Y-79985982D01*
X183790454Y-79982682D01*
X183793907Y-79982713D01*
G37*
G36*
X183806095Y-80019076D02*
G01*
X183806640Y-80020066D01*
X183806324Y-80024372D01*
X183806264Y-80024522D01*
X183803313Y-80026862D01*
X183799787Y-80025544D01*
X183798080Y-80021426D01*
X183798565Y-80019449D01*
X183801887Y-80017428D01*
X183806095Y-80019076D01*
G37*
G36*
X183792156Y-80072141D02*
G01*
X183801536Y-80072771D01*
X183807124Y-80074189D01*
X183808361Y-80076146D01*
X183804688Y-80078396D01*
X183802641Y-80080028D01*
X183804688Y-80083273D01*
X183807953Y-80088167D01*
X183807338Y-80090862D01*
X183803779Y-80090554D01*
X183798398Y-80086640D01*
X183796120Y-80084485D01*
X183793297Y-80083519D01*
X183790381Y-80086640D01*
X183788199Y-80089128D01*
X183784400Y-80091340D01*
X183782331Y-80090247D01*
X183783400Y-80085982D01*
X183783814Y-80085203D01*
X183785882Y-80080129D01*
X183784180Y-80078019D01*
X183777866Y-80077599D01*
X183777580Y-80077597D01*
X183772260Y-80076801D01*
X183771192Y-80074864D01*
X183774162Y-80073556D01*
X183781160Y-80072525D01*
X183790494Y-80072130D01*
X183792156Y-80072141D01*
G37*
G36*
X183799925Y-79492399D02*
G01*
X183803287Y-79497347D01*
X183803537Y-79498762D01*
X183803487Y-79504889D01*
X183801922Y-79509210D01*
X183799406Y-79509900D01*
X183798442Y-79508890D01*
X183798187Y-79504662D01*
X183798242Y-79502027D01*
X183795396Y-79497566D01*
X183794897Y-79497156D01*
X183792050Y-79495539D01*
X183791781Y-79498049D01*
X183792184Y-79502440D01*
X183791227Y-79509174D01*
X183787933Y-79511574D01*
X183783150Y-79509835D01*
X183779497Y-79504646D01*
X183779425Y-79502165D01*
X183783497Y-79502165D01*
X183783568Y-79502438D01*
X183786231Y-79503371D01*
X183786980Y-79503260D01*
X183788965Y-79500475D01*
X183788751Y-79499486D01*
X183786231Y-79499270D01*
X183785413Y-79499831D01*
X183783497Y-79502165D01*
X183779425Y-79502165D01*
X183779309Y-79498173D01*
X183781420Y-79494553D01*
X183786231Y-79491585D01*
X183787069Y-79491068D01*
X183793878Y-79490328D01*
X183799925Y-79492399D01*
G37*
G36*
X183783041Y-79522703D02*
G01*
X183785611Y-79524419D01*
X183791381Y-79525247D01*
X183797027Y-79526052D01*
X183802125Y-79528562D01*
X183803398Y-79530097D01*
X183804293Y-79534944D01*
X183800414Y-79538293D01*
X183798752Y-79538251D01*
X183798827Y-79535046D01*
X183799059Y-79534366D01*
X183798367Y-79531511D01*
X183793274Y-79530715D01*
X183788114Y-79531744D01*
X183784485Y-79534817D01*
X183782433Y-79537949D01*
X183779461Y-79538550D01*
X183778028Y-79535045D01*
X183777743Y-79533396D01*
X183774610Y-79529890D01*
X183773296Y-79528006D01*
X183776660Y-79524384D01*
X183780555Y-79522215D01*
X183783041Y-79522703D01*
G37*
G36*
X183803561Y-79580619D02*
G01*
X183804891Y-79586505D01*
X183804005Y-79592849D01*
X183801126Y-79597137D01*
X183797100Y-79598241D01*
X183792771Y-79595032D01*
X183790426Y-79591351D01*
X183788965Y-79587616D01*
X183788880Y-79587072D01*
X183786179Y-79585404D01*
X183784703Y-79587264D01*
X183785265Y-79592923D01*
X183786078Y-79596594D01*
X183785734Y-79598742D01*
X183782965Y-79597008D01*
X183781480Y-79595295D01*
X183779957Y-79589186D01*
X183781462Y-79582758D01*
X183785612Y-79578659D01*
X183788468Y-79578383D01*
X183792619Y-79581356D01*
X183794392Y-79587455D01*
X183794623Y-79588716D01*
X183797465Y-79590873D01*
X183799131Y-79589406D01*
X183798780Y-79584037D01*
X183798531Y-79582858D01*
X183798848Y-79578275D01*
X183800963Y-79577215D01*
X183803561Y-79580619D01*
G37*
G36*
X183784569Y-79610697D02*
G01*
X183789098Y-79613922D01*
X183796786Y-79615482D01*
X183797208Y-79615486D01*
X183802988Y-79616393D01*
X183805372Y-79618419D01*
X183804894Y-79619278D01*
X183800349Y-79620543D01*
X183791764Y-79620634D01*
X183787000Y-79620497D01*
X183779914Y-79620810D01*
X183776343Y-79621724D01*
X183775199Y-79622436D01*
X183771649Y-79621643D01*
X183769824Y-79618055D01*
X183770849Y-79616561D01*
X183775293Y-79615482D01*
X183778534Y-79614728D01*
X183780849Y-79610697D01*
X183780931Y-79608557D01*
X183781777Y-79607408D01*
X183784569Y-79610697D01*
G37*
G36*
X183795443Y-79664755D02*
G01*
X183802428Y-79665730D01*
X183805179Y-79667458D01*
X183803322Y-79669316D01*
X183796485Y-79670681D01*
X183790141Y-79672254D01*
X183787598Y-79675639D01*
X183789681Y-79678768D01*
X183796485Y-79680598D01*
X183798572Y-79680848D01*
X183804212Y-79682461D01*
X183805025Y-79684391D01*
X183801406Y-79685850D01*
X183793751Y-79686051D01*
X183789789Y-79685726D01*
X183784442Y-79684517D01*
X183782154Y-79681415D01*
X183781281Y-79674956D01*
X183780432Y-79664702D01*
X183792902Y-79664702D01*
X183795443Y-79664755D01*
G37*
G36*
X183790575Y-79695976D02*
G01*
X183794497Y-79701781D01*
X183797136Y-79706123D01*
X183800031Y-79707006D01*
X183801348Y-79705416D01*
X183799646Y-79701307D01*
X183797827Y-79697944D01*
X183798746Y-79695292D01*
X183802612Y-79696132D01*
X183804440Y-79699238D01*
X183804845Y-79705293D01*
X183802982Y-79710264D01*
X183798939Y-79712793D01*
X183794707Y-79711562D01*
X183792193Y-79706402D01*
X183791025Y-79702575D01*
X183788456Y-79700249D01*
X183787020Y-79701365D01*
X183787023Y-79705718D01*
X183787295Y-79709177D01*
X183784608Y-79711187D01*
X183781918Y-79709346D01*
X183780762Y-79702984D01*
X183782149Y-79697104D01*
X183785937Y-79694462D01*
X183790575Y-79695976D01*
G37*
G36*
X183799219Y-79813853D02*
G01*
X183803631Y-79816106D01*
X183805372Y-79821983D01*
X183804699Y-79826428D01*
X183802637Y-79828767D01*
X183801426Y-79828354D01*
X183799903Y-79824808D01*
X183799354Y-79823205D01*
X183795141Y-79821126D01*
X183786195Y-79820023D01*
X183781282Y-79819550D01*
X183774697Y-79818178D01*
X183771839Y-79816462D01*
X183772417Y-79815396D01*
X183776743Y-79813916D01*
X183783805Y-79813056D01*
X183791873Y-79812980D01*
X183799219Y-79813853D01*
G37*
G36*
X183804607Y-79899454D02*
G01*
X183804862Y-79905992D01*
X183803066Y-79912466D01*
X183799577Y-79915851D01*
X183795748Y-79915038D01*
X183792873Y-79909633D01*
X183790983Y-79905284D01*
X183788562Y-79904212D01*
X183787402Y-79906064D01*
X183787671Y-79911029D01*
X183787860Y-79914755D01*
X183785472Y-79916245D01*
X183782033Y-79913378D01*
X183781163Y-79910696D01*
X183781715Y-79904791D01*
X183784183Y-79899452D01*
X183787709Y-79897127D01*
X183791243Y-79898863D01*
X183794893Y-79903878D01*
X183795738Y-79905548D01*
X183798947Y-79909080D01*
X183801024Y-79908001D01*
X183800695Y-79902593D01*
X183800428Y-79899282D01*
X183802492Y-79897127D01*
X183804607Y-79899454D01*
G37*
G36*
X183804066Y-79928279D02*
G01*
X183805372Y-79932447D01*
X183804620Y-79935843D01*
X183801070Y-79938144D01*
X183799649Y-79937867D01*
X183797711Y-79934965D01*
X183798549Y-79930830D01*
X183801954Y-79927888D01*
X183804066Y-79928279D01*
G37*
G36*
X183801306Y-79957314D02*
G01*
X183801993Y-79958001D01*
X183804328Y-79962842D01*
X183805314Y-79968958D01*
X183804800Y-79974201D01*
X183802637Y-79976425D01*
X183800860Y-79974812D01*
X183799903Y-79969751D01*
X183799260Y-79965145D01*
X183797049Y-79961312D01*
X183796136Y-79960881D01*
X183791840Y-79961639D01*
X183788653Y-79965626D01*
X183788199Y-79971057D01*
X183788493Y-79974259D01*
X183786869Y-79976425D01*
X183785846Y-79976124D01*
X183783315Y-79972497D01*
X183782014Y-79966676D01*
X183782618Y-79961099D01*
X183783517Y-79959562D01*
X183788698Y-79956255D01*
X183795520Y-79955324D01*
X183801306Y-79957314D01*
G37*
G36*
X183805372Y-80053146D02*
G01*
X183805372Y-80064241D01*
X183793751Y-80063400D01*
X183793740Y-80063400D01*
X183786840Y-80062079D01*
X183783673Y-80059966D01*
X183784705Y-80057957D01*
X183790401Y-80056949D01*
X183793894Y-80056671D01*
X183799988Y-80054572D01*
X183801378Y-80051501D01*
X183798096Y-80048727D01*
X183790171Y-80047520D01*
X183789054Y-80047501D01*
X183783163Y-80046605D01*
X183780762Y-80044786D01*
X183781327Y-80043969D01*
X183785729Y-80042594D01*
X183793067Y-80042051D01*
X183805372Y-80042051D01*
X183805372Y-80053146D01*
G37*
G36*
X183799791Y-79403544D02*
G01*
X183801811Y-79407891D01*
X183802637Y-79414854D01*
X183802337Y-79420514D01*
X183800624Y-79423455D01*
X183796485Y-79423580D01*
X183795671Y-79423429D01*
X183792160Y-79421221D01*
X183792370Y-79418546D01*
X183796351Y-79417595D01*
X183798407Y-79415906D01*
X183797975Y-79409650D01*
X183797702Y-79408190D01*
X183797513Y-79403492D01*
X183799476Y-79403301D01*
X183799791Y-79403544D01*
G37*
G36*
X183801003Y-79432812D02*
G01*
X183802365Y-79435538D01*
X183802132Y-79442261D01*
X183802087Y-79442787D01*
X183801012Y-79449394D01*
X183798360Y-79452345D01*
X183792671Y-79453356D01*
X183785850Y-79452782D01*
X183780824Y-79450125D01*
X183778615Y-79445214D01*
X183779278Y-79439295D01*
X183783100Y-79435597D01*
X183785511Y-79435915D01*
X183784966Y-79440156D01*
X183784399Y-79443796D01*
X183785856Y-79445948D01*
X183787626Y-79444689D01*
X183792063Y-79444689D01*
X183794605Y-79445436D01*
X183795928Y-79444795D01*
X183799390Y-79440651D01*
X183799540Y-79439004D01*
X183796998Y-79438258D01*
X183795674Y-79438899D01*
X183792212Y-79443043D01*
X183792063Y-79444689D01*
X183787626Y-79444689D01*
X183787744Y-79444605D01*
X183789459Y-79439796D01*
X183791018Y-79435793D01*
X183796663Y-79432747D01*
X183796998Y-79432701D01*
X183797232Y-79432669D01*
X183801003Y-79432812D01*
G37*
G36*
X183784671Y-79465170D02*
G01*
X183788413Y-79466942D01*
X183794981Y-79467824D01*
X183800211Y-79468656D01*
X183802637Y-79471857D01*
X183802614Y-79472376D01*
X183800661Y-79474707D01*
X183794828Y-79474328D01*
X183788469Y-79474109D01*
X183785343Y-79477131D01*
X183784117Y-79479296D01*
X183780687Y-79481496D01*
X183779660Y-79481279D01*
X183779395Y-79478761D01*
X183779833Y-79477712D01*
X183778350Y-79476027D01*
X183777362Y-79476189D01*
X183773779Y-79479000D01*
X183772223Y-79480459D01*
X183768832Y-79478796D01*
X183767915Y-79477460D01*
X183768722Y-79474010D01*
X183773870Y-79469067D01*
X183774071Y-79468906D01*
X183780672Y-79464862D01*
X183784671Y-79465170D01*
G37*
G36*
X183790108Y-79405927D02*
G01*
X183791700Y-79410315D01*
X183791032Y-79413549D01*
X183787798Y-79414201D01*
X183787652Y-79414146D01*
X183785091Y-79414410D01*
X183785478Y-79418754D01*
X183785842Y-79423121D01*
X183783228Y-79423529D01*
X183781070Y-79422336D01*
X183778679Y-79417676D01*
X183779358Y-79411909D01*
X183782609Y-79407005D01*
X183787933Y-79404932D01*
X183790108Y-79405927D01*
G37*
G36*
X183777741Y-79847155D02*
G01*
X183777679Y-79851266D01*
X183775580Y-79854567D01*
X183774248Y-79854826D01*
X183771667Y-79852261D01*
X183771626Y-79852153D01*
X183771708Y-79847180D01*
X183775749Y-79845173D01*
X183777741Y-79847155D01*
G37*
G36*
X183310442Y-85263421D02*
G01*
X183309075Y-85264788D01*
X183307708Y-85263421D01*
X183309075Y-85262054D01*
X183310442Y-85263421D01*
G37*
G36*
X183117577Y-79419457D02*
G01*
X183128589Y-79420170D01*
X183138263Y-79421702D01*
X183148224Y-79424191D01*
X183161467Y-79428589D01*
X183182088Y-79437612D01*
X183202193Y-79448723D01*
X183220146Y-79460987D01*
X183234313Y-79473467D01*
X183236530Y-79475832D01*
X183253930Y-79497892D01*
X183268118Y-79522349D01*
X183278421Y-79547864D01*
X183284170Y-79573099D01*
X183284327Y-79575041D01*
X183284502Y-79579101D01*
X183284678Y-79585296D01*
X183284855Y-79593777D01*
X183285034Y-79604695D01*
X183285217Y-79618202D01*
X183285404Y-79634449D01*
X183285596Y-79653589D01*
X183285795Y-79675772D01*
X183286001Y-79701150D01*
X183286216Y-79729875D01*
X183286440Y-79762099D01*
X183286674Y-79797972D01*
X183286920Y-79837647D01*
X183287179Y-79881275D01*
X183287451Y-79929007D01*
X183287738Y-79980996D01*
X183288040Y-80037393D01*
X183288358Y-80098349D01*
X183288695Y-80164015D01*
X183289050Y-80234545D01*
X183289424Y-80310088D01*
X183289820Y-80390797D01*
X183290236Y-80476824D01*
X183290274Y-80484576D01*
X183290520Y-80532912D01*
X183290791Y-80582886D01*
X183291085Y-80633851D01*
X183291395Y-80685161D01*
X183291718Y-80736170D01*
X183292050Y-80786232D01*
X183292386Y-80834701D01*
X183292721Y-80880931D01*
X183293052Y-80924276D01*
X183293374Y-80964091D01*
X183293682Y-80999728D01*
X183293973Y-81030543D01*
X183294163Y-81051218D01*
X183294397Y-81081151D01*
X183294632Y-81115733D01*
X183294866Y-81154513D01*
X183295098Y-81197041D01*
X183295325Y-81242865D01*
X183295545Y-81291534D01*
X183295757Y-81342597D01*
X183295959Y-81395604D01*
X183296149Y-81450102D01*
X183296325Y-81505642D01*
X183296485Y-81561771D01*
X183296627Y-81618039D01*
X183296750Y-81673994D01*
X183296852Y-81729187D01*
X183296895Y-81754899D01*
X183296986Y-81806022D01*
X183297080Y-81855718D01*
X183297178Y-81903698D01*
X183297278Y-81949673D01*
X183297379Y-81993354D01*
X183297480Y-82034454D01*
X183297582Y-82072682D01*
X183297682Y-82107751D01*
X183297781Y-82139372D01*
X183297876Y-82167257D01*
X183297969Y-82191116D01*
X183298057Y-82210660D01*
X183298139Y-82225602D01*
X183298216Y-82235652D01*
X183298287Y-82240523D01*
X183298299Y-82241091D01*
X183298349Y-82246652D01*
X183298408Y-82257445D01*
X183298474Y-82273284D01*
X183298547Y-82293981D01*
X183298627Y-82319351D01*
X183298713Y-82349204D01*
X183298805Y-82383356D01*
X183298902Y-82421618D01*
X183299005Y-82463804D01*
X183299112Y-82509726D01*
X183299223Y-82559197D01*
X183299338Y-82612031D01*
X183299457Y-82668041D01*
X183299578Y-82727038D01*
X183299702Y-82788837D01*
X183299829Y-82853251D01*
X183299957Y-82920091D01*
X183300086Y-82989172D01*
X183300216Y-83060306D01*
X183300347Y-83133306D01*
X183300478Y-83207986D01*
X183300609Y-83284157D01*
X183300739Y-83361634D01*
X183300778Y-83385019D01*
X183300909Y-83461933D01*
X183301042Y-83537411D01*
X183301176Y-83611272D01*
X183301310Y-83683332D01*
X183301445Y-83753407D01*
X183301579Y-83821314D01*
X183301713Y-83886869D01*
X183301846Y-83949890D01*
X183301977Y-84010193D01*
X183302107Y-84067594D01*
X183302234Y-84121911D01*
X183302358Y-84172959D01*
X183302479Y-84220556D01*
X183302596Y-84264517D01*
X183302709Y-84304661D01*
X183302817Y-84340802D01*
X183302920Y-84372758D01*
X183303018Y-84400346D01*
X183303110Y-84423382D01*
X183303195Y-84441682D01*
X183303274Y-84455064D01*
X183303345Y-84463344D01*
X183303408Y-84466338D01*
X183303426Y-84466448D01*
X183303592Y-84470527D01*
X183303733Y-84479744D01*
X183303849Y-84493795D01*
X183303940Y-84512379D01*
X183304009Y-84535192D01*
X183304055Y-84561931D01*
X183304079Y-84592295D01*
X183304084Y-84625981D01*
X183304069Y-84662685D01*
X183304035Y-84702106D01*
X183303983Y-84743941D01*
X183303915Y-84787886D01*
X183303831Y-84833641D01*
X183303733Y-84880901D01*
X183303620Y-84929364D01*
X183303494Y-84978728D01*
X183303356Y-85028690D01*
X183303207Y-85078947D01*
X183303048Y-85129197D01*
X183302879Y-85179138D01*
X183302702Y-85228466D01*
X183302518Y-85276879D01*
X183302327Y-85324074D01*
X183302130Y-85369748D01*
X183301929Y-85413600D01*
X183301724Y-85455327D01*
X183301516Y-85494625D01*
X183301306Y-85531192D01*
X183301095Y-85564726D01*
X183300885Y-85594924D01*
X183300675Y-85621483D01*
X183300466Y-85644101D01*
X183300261Y-85662476D01*
X183300059Y-85676303D01*
X183299862Y-85685282D01*
X183299670Y-85689109D01*
X183294135Y-85712983D01*
X183283325Y-85740184D01*
X183267682Y-85766309D01*
X183246889Y-85791975D01*
X183235820Y-85802393D01*
X183218077Y-85815236D01*
X183197876Y-85826673D01*
X183176906Y-85835774D01*
X183156851Y-85841610D01*
X183149226Y-85842878D01*
X183132953Y-85844356D01*
X183114977Y-85844811D01*
X183097071Y-85844268D01*
X183081007Y-85842756D01*
X183068562Y-85840299D01*
X183062606Y-85838445D01*
X183041912Y-85830420D01*
X183018003Y-85818949D01*
X182990516Y-85803860D01*
X182990059Y-85803597D01*
X182979198Y-85797336D01*
X182964911Y-85789101D01*
X182948444Y-85779610D01*
X182931042Y-85769583D01*
X182913952Y-85759737D01*
X182911613Y-85758389D01*
X182892765Y-85747501D01*
X182871106Y-85734953D01*
X182848303Y-85721712D01*
X182826025Y-85708749D01*
X182805942Y-85697032D01*
X182786562Y-85685707D01*
X182767489Y-85674571D01*
X182751494Y-85665251D01*
X182737691Y-85657234D01*
X182725197Y-85650009D01*
X182713125Y-85643063D01*
X182700589Y-85635885D01*
X182686706Y-85627963D01*
X182670589Y-85618786D01*
X182668097Y-85617365D01*
X182651811Y-85608012D01*
X182632585Y-85596875D01*
X182611908Y-85584822D01*
X182591267Y-85572720D01*
X182572150Y-85561435D01*
X182568390Y-85559207D01*
X182549131Y-85547806D01*
X182528885Y-85535840D01*
X182509073Y-85524147D01*
X182491119Y-85513568D01*
X182476445Y-85504942D01*
X182474817Y-85503986D01*
X182462747Y-85496888D01*
X182446891Y-85487547D01*
X182428036Y-85476428D01*
X182406969Y-85463994D01*
X182384476Y-85450710D01*
X182361343Y-85437040D01*
X182338357Y-85423448D01*
X182329899Y-85418445D01*
X182308465Y-85405770D01*
X182288189Y-85393783D01*
X182269662Y-85382834D01*
X182253476Y-85373272D01*
X182240223Y-85365446D01*
X182230493Y-85359707D01*
X182224879Y-85356404D01*
X182216806Y-85351670D01*
X182174841Y-85327004D01*
X182134061Y-85302941D01*
X182095657Y-85280185D01*
X182060814Y-85259435D01*
X182042904Y-85248743D01*
X182027275Y-85239431D01*
X182013567Y-85231294D01*
X182000671Y-85223678D01*
X181987478Y-85215930D01*
X181972879Y-85207399D01*
X181955766Y-85197431D01*
X181935031Y-85185373D01*
X181920304Y-85176768D01*
X181902053Y-85166021D01*
X181883849Y-85155229D01*
X181868037Y-85145780D01*
X181855757Y-85138422D01*
X181832315Y-85124469D01*
X181806310Y-85109086D01*
X181779109Y-85093075D01*
X181752076Y-85077238D01*
X181726575Y-85062378D01*
X181703972Y-85049298D01*
X181684344Y-85037979D01*
X181662856Y-85025544D01*
X181642558Y-85013738D01*
X181621978Y-85001703D01*
X181599645Y-84988581D01*
X181574088Y-84973511D01*
X181557560Y-84963780D01*
X181538639Y-84952692D01*
X181519886Y-84941750D01*
X181502208Y-84931482D01*
X181486515Y-84922415D01*
X181473713Y-84915077D01*
X181464711Y-84909995D01*
X181463202Y-84909146D01*
X181455628Y-84904786D01*
X181444213Y-84898127D01*
X181429603Y-84889551D01*
X181412444Y-84879441D01*
X181393384Y-84868179D01*
X181373069Y-84856147D01*
X181352146Y-84843728D01*
X181331260Y-84831305D01*
X181311060Y-84819259D01*
X181292191Y-84807973D01*
X181280075Y-84800739D01*
X181261716Y-84789839D01*
X181241669Y-84777989D01*
X181221636Y-84766196D01*
X181203322Y-84755468D01*
X181199360Y-84753152D01*
X181180955Y-84742362D01*
X181159807Y-84729922D01*
X181137483Y-84716754D01*
X181115547Y-84703782D01*
X181095565Y-84691930D01*
X181087045Y-84686873D01*
X181065544Y-84674153D01*
X181041644Y-84660062D01*
X181016952Y-84645544D01*
X180993072Y-84631543D01*
X180971610Y-84619004D01*
X180959844Y-84612134D01*
X180938405Y-84599570D01*
X180916302Y-84586565D01*
X180894885Y-84573917D01*
X180875501Y-84562420D01*
X180859499Y-84552870D01*
X180856681Y-84551181D01*
X180838943Y-84540592D01*
X180818345Y-84528348D01*
X180796461Y-84515382D01*
X180774864Y-84502627D01*
X180755130Y-84491015D01*
X180745911Y-84485599D01*
X180728924Y-84475595D01*
X180712961Y-84466164D01*
X180698947Y-84457854D01*
X180687805Y-84451212D01*
X180680459Y-84446786D01*
X180679200Y-84446019D01*
X180670895Y-84441073D01*
X180664726Y-84437582D01*
X180661947Y-84436260D01*
X180660767Y-84435793D01*
X180655995Y-84433148D01*
X180649117Y-84428944D01*
X180645831Y-84426884D01*
X180641287Y-84424085D01*
X180635520Y-84420591D01*
X180628031Y-84416104D01*
X180618323Y-84410328D01*
X180605896Y-84402967D01*
X180590251Y-84393723D01*
X180570890Y-84382300D01*
X180547314Y-84368402D01*
X180539133Y-84363598D01*
X180524071Y-84354805D01*
X180506851Y-84344797D01*
X180489018Y-84334472D01*
X180472117Y-84324728D01*
X180460199Y-84317856D01*
X180443220Y-84308020D01*
X180426758Y-84298433D01*
X180412222Y-84289917D01*
X180401023Y-84283295D01*
X180396681Y-84280709D01*
X180383413Y-84272818D01*
X180367704Y-84263488D01*
X180351162Y-84253675D01*
X180335397Y-84244333D01*
X180331043Y-84241755D01*
X180313425Y-84231315D01*
X180294495Y-84220089D01*
X180276259Y-84209268D01*
X180260724Y-84200040D01*
X180254718Y-84196480D01*
X180243123Y-84189663D01*
X180233683Y-84184189D01*
X180227244Y-84180547D01*
X180224653Y-84179224D01*
X180224160Y-84179020D01*
X180219986Y-84176748D01*
X180212316Y-84172357D01*
X180202016Y-84166345D01*
X180189949Y-84159210D01*
X180156172Y-84139139D01*
X180121819Y-84118759D01*
X180090340Y-84100120D01*
X180062098Y-84083438D01*
X180037458Y-84068927D01*
X180016781Y-84056801D01*
X180000431Y-84047275D01*
X179977590Y-84034020D01*
X179950076Y-84018028D01*
X179921209Y-84001226D01*
X179891394Y-83983850D01*
X179861037Y-83966138D01*
X179830541Y-83948328D01*
X179800314Y-83930657D01*
X179770760Y-83913363D01*
X179742284Y-83896682D01*
X179715293Y-83880853D01*
X179690190Y-83866113D01*
X179667382Y-83852699D01*
X179647274Y-83840849D01*
X179630272Y-83830800D01*
X179616779Y-83822790D01*
X179607203Y-83817056D01*
X179601948Y-83813836D01*
X179599124Y-83812078D01*
X179593204Y-83808689D01*
X179590065Y-83807344D01*
X179589981Y-83807338D01*
X179586606Y-83805766D01*
X179581120Y-83802239D01*
X179581010Y-83802162D01*
X179576369Y-83799218D01*
X179567891Y-83794089D01*
X179556445Y-83787282D01*
X179542898Y-83779306D01*
X179528120Y-83770667D01*
X179512978Y-83761874D01*
X179498341Y-83753434D01*
X179485078Y-83745854D01*
X179474055Y-83739643D01*
X179470188Y-83737442D01*
X179461465Y-83732383D01*
X179449440Y-83725353D01*
X179434917Y-83716821D01*
X179418701Y-83707260D01*
X179401593Y-83697140D01*
X179401358Y-83697001D01*
X179369657Y-83678219D01*
X179342291Y-83662012D01*
X179318894Y-83648163D01*
X179299101Y-83636458D01*
X179282545Y-83626681D01*
X179268861Y-83618618D01*
X179257684Y-83612053D01*
X179248647Y-83606770D01*
X179241385Y-83602555D01*
X179235532Y-83599193D01*
X179230722Y-83596468D01*
X179226591Y-83594165D01*
X179218372Y-83589557D01*
X179207139Y-83583104D01*
X179197879Y-83577624D01*
X179196529Y-83576807D01*
X179188936Y-83572260D01*
X179177511Y-83565459D01*
X179162941Y-83556811D01*
X179145915Y-83546721D01*
X179127118Y-83535597D01*
X179107239Y-83523844D01*
X179086966Y-83511868D01*
X179066984Y-83500076D01*
X179047984Y-83488875D01*
X179030650Y-83478670D01*
X179015672Y-83469869D01*
X179003736Y-83462876D01*
X179001015Y-83461286D01*
X178977702Y-83447626D01*
X178951065Y-83431973D01*
X178922319Y-83415042D01*
X178892678Y-83397549D01*
X178863356Y-83380210D01*
X178835569Y-83363741D01*
X178829148Y-83359933D01*
X178811610Y-83349549D01*
X178793317Y-83338741D01*
X178776087Y-83328581D01*
X178761740Y-83320144D01*
X178758196Y-83318061D01*
X178747571Y-83311802D01*
X178733146Y-83303290D01*
X178715536Y-83292890D01*
X178695354Y-83280963D01*
X178673213Y-83267874D01*
X178649728Y-83253985D01*
X178625512Y-83239660D01*
X178601179Y-83225260D01*
X178577342Y-83211150D01*
X178554616Y-83197692D01*
X178533614Y-83185250D01*
X178514949Y-83174186D01*
X178499236Y-83164863D01*
X178494198Y-83161876D01*
X178482145Y-83154748D01*
X178467551Y-83146133D01*
X178451816Y-83136856D01*
X178436344Y-83127747D01*
X178430693Y-83124418D01*
X178414511Y-83114853D01*
X178395534Y-83103601D01*
X178375095Y-83091454D01*
X178354530Y-83079205D01*
X178335171Y-83067646D01*
X178325151Y-83061663D01*
X178306384Y-83050498D01*
X178287870Y-83039531D01*
X178270718Y-83029415D01*
X178256037Y-83020805D01*
X178244935Y-83014358D01*
X178243436Y-83013492D01*
X178234164Y-83008083D01*
X178220912Y-83000293D01*
X178204263Y-82990467D01*
X178184799Y-82978949D01*
X178163102Y-82966086D01*
X178139755Y-82952221D01*
X178115340Y-82937700D01*
X178090440Y-82922866D01*
X178088214Y-82921539D01*
X178062488Y-82906205D01*
X178036671Y-82890823D01*
X178011448Y-82875799D01*
X177987502Y-82861541D01*
X177965518Y-82848456D01*
X177946179Y-82836952D01*
X177930169Y-82827434D01*
X177918172Y-82820311D01*
X177915785Y-82818894D01*
X177892766Y-82805115D01*
X177873873Y-82793483D01*
X177858509Y-82783528D01*
X177846077Y-82774782D01*
X177835983Y-82766773D01*
X177827629Y-82759033D01*
X177820419Y-82751090D01*
X177813757Y-82742475D01*
X177807048Y-82732718D01*
X177793799Y-82709612D01*
X177784604Y-82685712D01*
X177779409Y-82660152D01*
X177777913Y-82633350D01*
X178332989Y-82633350D01*
X178336371Y-82636537D01*
X178344267Y-82641330D01*
X178347262Y-82643028D01*
X178355912Y-82648032D01*
X178367908Y-82655046D01*
X178382375Y-82663555D01*
X178398441Y-82673047D01*
X178415230Y-82683008D01*
X178425935Y-82689370D01*
X178441122Y-82698388D01*
X178454425Y-82706278D01*
X178465141Y-82712621D01*
X178472565Y-82717001D01*
X178475993Y-82719002D01*
X178478801Y-82720608D01*
X178487218Y-82725517D01*
X178499719Y-82732880D01*
X178515919Y-82742468D01*
X178535432Y-82754049D01*
X178557870Y-82767397D01*
X178582848Y-82782281D01*
X178609979Y-82798473D01*
X178614170Y-82800974D01*
X178628822Y-82809690D01*
X178639445Y-82815945D01*
X178646559Y-82820039D01*
X178650687Y-82822275D01*
X178652349Y-82822954D01*
X178654635Y-82824052D01*
X178660731Y-82827463D01*
X178669624Y-82832633D01*
X178680329Y-82838999D01*
X178688930Y-82844156D01*
X178701340Y-82851578D01*
X178712389Y-82858165D01*
X178720415Y-82862925D01*
X178725694Y-82866045D01*
X178734436Y-82871244D01*
X178740924Y-82875138D01*
X178743703Y-82876793D01*
X178751740Y-82881446D01*
X178760565Y-82886431D01*
X178761044Y-82886698D01*
X178769936Y-82891819D01*
X178781019Y-82898396D01*
X178792011Y-82905076D01*
X178793046Y-82905713D01*
X178803793Y-82912234D01*
X178814111Y-82918350D01*
X178821897Y-82922813D01*
X178825852Y-82925061D01*
X178834985Y-82930428D01*
X178846186Y-82937146D01*
X178857868Y-82944270D01*
X178866173Y-82949339D01*
X178875121Y-82954686D01*
X178881445Y-82958329D01*
X178884136Y-82959674D01*
X178886241Y-82960601D01*
X178892597Y-82964013D01*
X178902570Y-82969615D01*
X178915568Y-82977069D01*
X178931002Y-82986036D01*
X178948283Y-82996177D01*
X178966821Y-83007153D01*
X178970403Y-83009279D01*
X178982324Y-83016295D01*
X178992510Y-83022201D01*
X178999975Y-83026429D01*
X179003736Y-83028412D01*
X179003956Y-83028512D01*
X179008224Y-83030842D01*
X179015993Y-83035372D01*
X179026233Y-83041494D01*
X179037916Y-83048600D01*
X179038523Y-83048972D01*
X179050683Y-83056376D01*
X179061822Y-83063075D01*
X179070729Y-83068346D01*
X179076195Y-83071465D01*
X179076819Y-83071803D01*
X179082627Y-83075135D01*
X179085766Y-83077259D01*
X179085864Y-83077349D01*
X179089338Y-83079525D01*
X179095338Y-83082672D01*
X179095665Y-83082834D01*
X179103833Y-83087483D01*
X179112003Y-83092922D01*
X179113220Y-83093782D01*
X179119935Y-83097585D01*
X179125077Y-83099130D01*
X179127503Y-83099632D01*
X179131224Y-83103127D01*
X179133277Y-83105849D01*
X179138658Y-83108982D01*
X179141270Y-83110087D01*
X179148332Y-83113740D01*
X179157891Y-83119115D01*
X179168643Y-83125492D01*
X179176008Y-83129929D01*
X179184995Y-83135204D01*
X179191435Y-83138810D01*
X179194273Y-83140146D01*
X179195062Y-83140429D01*
X179199659Y-83142846D01*
X179207244Y-83147201D01*
X179216674Y-83152845D01*
X179230592Y-83161266D01*
X179242487Y-83168305D01*
X179254498Y-83175203D01*
X179268974Y-83183327D01*
X179272921Y-83185592D01*
X179281454Y-83190858D01*
X179287800Y-83195245D01*
X179293035Y-83198770D01*
X179296746Y-83200303D01*
X179298122Y-83200584D01*
X179300743Y-83201785D01*
X179305196Y-83204321D01*
X179312171Y-83208603D01*
X179322355Y-83215042D01*
X179336435Y-83224051D01*
X179343025Y-83228147D01*
X179350641Y-83232549D01*
X179355576Y-83234997D01*
X179355970Y-83235156D01*
X179361131Y-83237821D01*
X179369108Y-83242457D01*
X179378351Y-83248165D01*
X179388736Y-83254560D01*
X179400851Y-83261663D01*
X179411164Y-83267368D01*
X179418044Y-83271069D01*
X179426857Y-83276035D01*
X179433039Y-83279783D01*
X179435629Y-83281434D01*
X179443472Y-83286165D01*
X179452180Y-83291173D01*
X179463619Y-83297594D01*
X179482560Y-83308357D01*
X179497424Y-83317018D01*
X179508713Y-83323870D01*
X179516931Y-83329210D01*
X179521096Y-83331994D01*
X179526891Y-83335609D01*
X179529761Y-83337024D01*
X179531498Y-83337811D01*
X179537117Y-83340933D01*
X179545577Y-83345882D01*
X179555847Y-83352063D01*
X179563774Y-83356842D01*
X179572807Y-83362146D01*
X179579267Y-83365764D01*
X179582114Y-83367103D01*
X179584442Y-83368123D01*
X179590210Y-83371405D01*
X179597919Y-83376165D01*
X179604366Y-83380182D01*
X179613454Y-83385589D01*
X179620347Y-83389399D01*
X179624376Y-83391547D01*
X179633042Y-83396447D01*
X179642222Y-83401886D01*
X179645777Y-83404028D01*
X179655058Y-83409545D01*
X179667228Y-83416721D01*
X179681113Y-83424867D01*
X179695543Y-83433293D01*
X179705980Y-83439379D01*
X179721297Y-83448330D01*
X179737742Y-83457958D01*
X179754480Y-83467772D01*
X179770676Y-83477281D01*
X179785493Y-83485995D01*
X179798095Y-83493423D01*
X179807648Y-83499074D01*
X179813314Y-83502456D01*
X179816664Y-83504379D01*
X179823882Y-83508352D01*
X179832568Y-83513022D01*
X179839264Y-83516699D01*
X179846837Y-83521170D01*
X179851405Y-83524260D01*
X179855460Y-83527024D01*
X179862908Y-83531480D01*
X179871913Y-83536499D01*
X179880363Y-83541239D01*
X179888064Y-83545938D01*
X179892636Y-83549187D01*
X179895532Y-83551409D01*
X179899177Y-83553043D01*
X179899398Y-83553075D01*
X179903202Y-83554820D01*
X179910081Y-83558701D01*
X179918719Y-83563981D01*
X179920146Y-83564878D01*
X179928444Y-83569970D01*
X179934647Y-83573560D01*
X179937502Y-83574918D01*
X179937553Y-83574926D01*
X179940602Y-83576436D01*
X179947483Y-83580247D01*
X179957391Y-83585889D01*
X179969521Y-83592893D01*
X179983069Y-83600790D01*
X179997230Y-83609111D01*
X180011199Y-83617388D01*
X180024171Y-83625151D01*
X180035343Y-83631932D01*
X180037724Y-83633386D01*
X180046138Y-83638422D01*
X180052298Y-83641950D01*
X180055009Y-83643279D01*
X180055143Y-83643308D01*
X180058428Y-83644985D01*
X180064935Y-83648733D01*
X180073418Y-83653837D01*
X180076060Y-83655450D01*
X180087601Y-83662423D01*
X180100824Y-83670334D01*
X180113358Y-83677764D01*
X180118282Y-83680664D01*
X180129149Y-83687068D01*
X180138527Y-83692595D01*
X180144804Y-83696297D01*
X180147368Y-83697800D01*
X180156251Y-83702929D01*
X180165452Y-83708159D01*
X180169276Y-83710340D01*
X180179940Y-83716598D01*
X180190062Y-83722730D01*
X180194268Y-83725298D01*
X180204617Y-83731398D01*
X180213715Y-83736515D01*
X180219179Y-83739549D01*
X180227426Y-83744272D01*
X180238714Y-83750844D01*
X180253457Y-83759505D01*
X180272066Y-83770498D01*
X180294952Y-83784062D01*
X180297092Y-83785325D01*
X180304906Y-83789888D01*
X180315824Y-83796230D01*
X180328868Y-83803785D01*
X180343058Y-83811988D01*
X180357415Y-83820273D01*
X180370959Y-83828074D01*
X180382711Y-83834827D01*
X180391691Y-83839966D01*
X180396921Y-83842926D01*
X180399239Y-83844235D01*
X180407987Y-83849479D01*
X180415117Y-83854149D01*
X180415479Y-83854405D01*
X180420850Y-83857869D01*
X180423951Y-83859298D01*
X180426598Y-83860503D01*
X180432583Y-83863956D01*
X180440487Y-83868868D01*
X180447935Y-83873501D01*
X180454105Y-83877072D01*
X180457078Y-83878439D01*
X180459899Y-83879727D01*
X180466003Y-83883251D01*
X180474008Y-83888226D01*
X180481803Y-83893071D01*
X180489792Y-83897743D01*
X180495068Y-83900483D01*
X180496914Y-83901346D01*
X180503837Y-83905066D01*
X180511767Y-83909772D01*
X180513796Y-83911024D01*
X180523962Y-83917052D01*
X180533642Y-83922498D01*
X180535986Y-83923794D01*
X180546020Y-83929746D01*
X180555517Y-83935861D01*
X180557862Y-83937429D01*
X180567896Y-83943735D01*
X180577393Y-83949216D01*
X180581890Y-83951688D01*
X180592027Y-83957430D01*
X180602002Y-83963251D01*
X180607920Y-83966722D01*
X180615254Y-83970875D01*
X180619776Y-83973248D01*
X180621785Y-83974264D01*
X180625245Y-83976678D01*
X180627826Y-83978663D01*
X180633139Y-83981920D01*
X180634152Y-83982491D01*
X180641427Y-83986611D01*
X180649546Y-83991229D01*
X180656688Y-83995238D01*
X180666735Y-84000790D01*
X180677199Y-84006507D01*
X180682640Y-84009535D01*
X180693556Y-84015802D01*
X180707078Y-84023715D01*
X180721995Y-84032562D01*
X180737096Y-84041632D01*
X180749582Y-84049148D01*
X180761654Y-84056332D01*
X180771364Y-84062022D01*
X180777941Y-84065765D01*
X180780617Y-84067113D01*
X180781091Y-84067267D01*
X180785180Y-84069408D01*
X180792338Y-84073545D01*
X180801385Y-84079000D01*
X180806519Y-84082119D01*
X180819221Y-84089687D01*
X180833365Y-84097969D01*
X180846733Y-84105660D01*
X180855274Y-84110523D01*
X180865381Y-84116289D01*
X180873147Y-84120734D01*
X180877365Y-84123169D01*
X180879716Y-84124548D01*
X180890220Y-84130678D01*
X180902538Y-84137834D01*
X180915363Y-84145259D01*
X180927388Y-84152197D01*
X180937304Y-84157892D01*
X180943804Y-84161587D01*
X180944591Y-84162029D01*
X180953460Y-84167091D01*
X180965433Y-84174009D01*
X180979081Y-84181949D01*
X180992974Y-84190080D01*
X181005685Y-84197566D01*
X181015784Y-84203574D01*
X181021817Y-84207195D01*
X181029905Y-84212034D01*
X181036479Y-84215935D01*
X181043563Y-84220094D01*
X181053181Y-84225709D01*
X181061874Y-84230789D01*
X181069930Y-84235511D01*
X181075056Y-84238534D01*
X181081200Y-84242011D01*
X181088729Y-84246041D01*
X181096648Y-84250380D01*
X181105135Y-84255388D01*
X181108988Y-84257723D01*
X181117477Y-84262768D01*
X181129236Y-84269699D01*
X181143448Y-84278037D01*
X181159297Y-84287303D01*
X181175965Y-84297018D01*
X181192636Y-84306704D01*
X181194443Y-84307746D01*
X181204701Y-84313536D01*
X181214512Y-84318916D01*
X181217281Y-84320438D01*
X181224646Y-84324810D01*
X181229551Y-84328182D01*
X181230040Y-84328561D01*
X181235079Y-84331831D01*
X181243164Y-84336593D01*
X181252793Y-84341958D01*
X181254181Y-84342714D01*
X181264266Y-84348347D01*
X181273052Y-84353479D01*
X181278770Y-84357080D01*
X181280462Y-84358214D01*
X181287090Y-84362408D01*
X181296495Y-84368170D01*
X181307746Y-84374950D01*
X181319911Y-84382199D01*
X181332059Y-84389364D01*
X181343258Y-84395895D01*
X181352576Y-84401242D01*
X181359081Y-84404855D01*
X181361842Y-84406181D01*
X181362189Y-84406270D01*
X181366084Y-84408223D01*
X181373080Y-84412207D01*
X181381947Y-84417529D01*
X181383047Y-84418203D01*
X181393133Y-84424335D01*
X181402289Y-84429827D01*
X181408655Y-84433564D01*
X181414530Y-84436925D01*
X181421956Y-84441190D01*
X181430061Y-84445866D01*
X181439519Y-84451346D01*
X181451005Y-84458020D01*
X181465191Y-84466279D01*
X181482751Y-84476515D01*
X181504360Y-84489118D01*
X181518527Y-84497389D01*
X181538777Y-84509231D01*
X181558886Y-84521009D01*
X181577707Y-84532052D01*
X181594094Y-84541688D01*
X181606901Y-84549244D01*
X181612863Y-84552766D01*
X181626569Y-84560820D01*
X181639140Y-84568153D01*
X181649386Y-84574072D01*
X181656120Y-84577887D01*
X181662353Y-84581366D01*
X181672479Y-84587089D01*
X181683964Y-84593633D01*
X181695584Y-84600296D01*
X181706114Y-84606374D01*
X181714332Y-84611166D01*
X181719012Y-84613970D01*
X181719608Y-84614340D01*
X181724698Y-84617400D01*
X181732731Y-84622157D01*
X181742254Y-84627751D01*
X181745378Y-84629581D01*
X181757810Y-84636900D01*
X181771718Y-84645125D01*
X181784638Y-84652800D01*
X181789645Y-84655773D01*
X181801448Y-84662712D01*
X181812241Y-84668975D01*
X181820185Y-84673490D01*
X181824449Y-84675913D01*
X181831861Y-84680372D01*
X181836592Y-84683550D01*
X181840775Y-84686335D01*
X181847529Y-84689970D01*
X181849462Y-84690921D01*
X181857020Y-84695020D01*
X181865303Y-84699890D01*
X181869453Y-84702383D01*
X181879736Y-84708312D01*
X181889913Y-84713929D01*
X181895510Y-84717027D01*
X181903040Y-84721526D01*
X181907686Y-84724733D01*
X181908919Y-84725675D01*
X181914995Y-84729474D01*
X181922726Y-84733607D01*
X181928870Y-84736856D01*
X181938681Y-84742346D01*
X181950488Y-84749150D01*
X181962904Y-84756480D01*
X181972149Y-84761997D01*
X181989011Y-84772030D01*
X182006385Y-84782338D01*
X182021694Y-84791390D01*
X182033481Y-84798358D01*
X182045447Y-84805461D01*
X182055476Y-84811444D01*
X182062181Y-84815481D01*
X182067451Y-84818680D01*
X182084642Y-84828982D01*
X182100405Y-84838227D01*
X182114093Y-84846051D01*
X182125064Y-84852091D01*
X182132673Y-84855982D01*
X182136275Y-84857360D01*
X182137421Y-84857475D01*
X182140568Y-84859492D01*
X182140599Y-84859547D01*
X182143390Y-84861683D01*
X182149823Y-84865880D01*
X182158865Y-84871522D01*
X182169485Y-84877990D01*
X182180650Y-84884666D01*
X182191328Y-84890934D01*
X182200488Y-84896176D01*
X182207097Y-84899774D01*
X182210123Y-84901110D01*
X182211394Y-84901622D01*
X182216209Y-84904444D01*
X182223019Y-84908909D01*
X182225471Y-84910557D01*
X182233263Y-84915506D01*
X182243117Y-84921352D01*
X182255963Y-84928636D01*
X182272731Y-84937902D01*
X182274549Y-84938934D01*
X182281304Y-84942999D01*
X182289138Y-84947920D01*
X182298803Y-84953990D01*
X182311400Y-84961580D01*
X182322881Y-84968177D01*
X182331521Y-84972772D01*
X182331764Y-84972892D01*
X182338932Y-84976985D01*
X182346560Y-84982046D01*
X182347043Y-84982389D01*
X182353906Y-84986809D01*
X182363499Y-84992493D01*
X182373905Y-84998303D01*
X182375301Y-84999061D01*
X182385334Y-85004716D01*
X182394004Y-85009931D01*
X182399567Y-85013663D01*
X182404870Y-85017153D01*
X182408841Y-85018690D01*
X182410746Y-85019375D01*
X182416627Y-85022457D01*
X182425224Y-85027450D01*
X182435429Y-85033730D01*
X182442715Y-85038282D01*
X182451612Y-85043696D01*
X182457987Y-85047398D01*
X182460799Y-85048769D01*
X182462408Y-85049462D01*
X182467927Y-85052469D01*
X182476302Y-85057311D01*
X182486479Y-85063388D01*
X182490587Y-85065872D01*
X182506090Y-85075198D01*
X182522384Y-85084938D01*
X182538784Y-85094687D01*
X182554604Y-85104042D01*
X182569160Y-85112600D01*
X182581766Y-85119958D01*
X182591738Y-85125714D01*
X182598390Y-85129462D01*
X182601037Y-85130802D01*
X182603283Y-85131861D01*
X182608956Y-85135180D01*
X182616626Y-85139973D01*
X182617078Y-85140262D01*
X182629272Y-85147909D01*
X182643530Y-85156609D01*
X182658890Y-85165801D01*
X182674395Y-85174926D01*
X182689083Y-85183422D01*
X182701994Y-85190729D01*
X182712170Y-85196287D01*
X182718651Y-85199536D01*
X182722364Y-85201260D01*
X182728769Y-85204691D01*
X182731938Y-85207081D01*
X182732898Y-85208082D01*
X182735487Y-85209996D01*
X182740175Y-85213051D01*
X182747487Y-85217569D01*
X182757946Y-85223875D01*
X182772079Y-85232292D01*
X182790409Y-85243143D01*
X182793106Y-85244720D01*
X182801211Y-85249375D01*
X182810044Y-85254370D01*
X182813655Y-85256411D01*
X182824189Y-85262467D01*
X182837074Y-85269970D01*
X182851130Y-85278223D01*
X182865175Y-85286528D01*
X182878028Y-85294189D01*
X182888509Y-85300507D01*
X182895436Y-85304785D01*
X182898192Y-85306481D01*
X182904500Y-85309909D01*
X182908236Y-85311273D01*
X182909115Y-85308636D01*
X182909865Y-85301087D01*
X182910457Y-85289183D01*
X182910864Y-85273479D01*
X182911058Y-85254534D01*
X182911075Y-85250341D01*
X182911149Y-85233261D01*
X182911227Y-85218010D01*
X182911304Y-85205497D01*
X182911373Y-85196632D01*
X182911429Y-85192326D01*
X182911434Y-85192096D01*
X182911461Y-85187490D01*
X182911474Y-85178138D01*
X182911475Y-85164674D01*
X182911463Y-85147733D01*
X182911440Y-85127949D01*
X182911404Y-85105957D01*
X182911358Y-85082390D01*
X182911350Y-85078436D01*
X182911313Y-85055274D01*
X182911296Y-85033929D01*
X182911300Y-85015008D01*
X182911323Y-84999121D01*
X182911365Y-84986876D01*
X182911424Y-84978882D01*
X182911500Y-84975748D01*
X182911535Y-84975508D01*
X182911427Y-84970838D01*
X182911346Y-84968042D01*
X182911267Y-84960260D01*
X182911200Y-84948069D01*
X182911144Y-84932021D01*
X182911102Y-84912667D01*
X182911075Y-84890556D01*
X182911065Y-84866240D01*
X182911073Y-84840270D01*
X182911068Y-84812632D01*
X182910998Y-84786075D01*
X182910849Y-84764278D01*
X182910613Y-84746865D01*
X182910279Y-84733461D01*
X182909837Y-84723688D01*
X182909278Y-84717170D01*
X182908592Y-84713531D01*
X182907769Y-84712394D01*
X182905916Y-84711994D01*
X182907953Y-84710087D01*
X182908211Y-84709858D01*
X182909108Y-84707690D01*
X182909840Y-84703156D01*
X182910423Y-84695811D01*
X182910870Y-84685214D01*
X182911198Y-84670921D01*
X182911421Y-84652489D01*
X182911553Y-84629475D01*
X182911611Y-84601436D01*
X182911615Y-84595961D01*
X182911613Y-84572641D01*
X182911585Y-84551147D01*
X182911533Y-84532086D01*
X182911459Y-84516065D01*
X182911366Y-84503692D01*
X182911257Y-84495573D01*
X182911134Y-84492315D01*
X182911091Y-84492092D01*
X182911121Y-84486846D01*
X182911164Y-84486174D01*
X182911260Y-84480885D01*
X182911340Y-84470811D01*
X182911404Y-84456437D01*
X182911453Y-84438250D01*
X182911487Y-84416735D01*
X182911507Y-84392377D01*
X182911511Y-84365663D01*
X182911501Y-84337077D01*
X182911476Y-84307106D01*
X182911436Y-84276235D01*
X182911383Y-84244950D01*
X182911315Y-84213737D01*
X182911233Y-84183080D01*
X182911137Y-84153466D01*
X182911027Y-84125380D01*
X182911015Y-84122353D01*
X182910999Y-84102517D01*
X182911086Y-84084551D01*
X182911266Y-84069174D01*
X182911527Y-84057107D01*
X182911859Y-84049069D01*
X182912250Y-84045780D01*
X182912596Y-84045080D01*
X182912230Y-84041693D01*
X182911664Y-84038718D01*
X182911235Y-84031346D01*
X182911010Y-84020738D01*
X182911030Y-84008034D01*
X182911024Y-83993414D01*
X182910543Y-83982859D01*
X182909519Y-83976496D01*
X182907893Y-83973679D01*
X182905934Y-83971814D01*
X182907583Y-83969330D01*
X182907708Y-83968885D01*
X182908035Y-83963954D01*
X182908336Y-83953629D01*
X182908613Y-83937967D01*
X182908864Y-83917021D01*
X182909091Y-83890848D01*
X182909292Y-83859502D01*
X182909468Y-83823039D01*
X182909620Y-83781515D01*
X182909746Y-83734983D01*
X182909846Y-83683500D01*
X182909922Y-83627121D01*
X182909972Y-83565901D01*
X182909997Y-83499896D01*
X182909996Y-83429159D01*
X182909970Y-83353748D01*
X182909919Y-83273716D01*
X182909842Y-83189120D01*
X182909740Y-83100015D01*
X182909612Y-83006455D01*
X182909459Y-82908496D01*
X182909279Y-82806193D01*
X182909075Y-82699602D01*
X182908844Y-82588777D01*
X182908588Y-82473775D01*
X182908570Y-82468199D01*
X182908361Y-82444792D01*
X182907951Y-82426126D01*
X182907346Y-82412382D01*
X182906556Y-82403742D01*
X182905586Y-82400386D01*
X182904458Y-82399246D01*
X182905281Y-82395457D01*
X182905650Y-82392476D01*
X182905987Y-82384680D01*
X182906283Y-82372763D01*
X182906535Y-82357405D01*
X182906744Y-82339290D01*
X182906906Y-82319099D01*
X182907021Y-82297514D01*
X182907089Y-82275216D01*
X182907106Y-82252889D01*
X182907073Y-82231212D01*
X182906988Y-82210869D01*
X182906850Y-82192542D01*
X182906656Y-82176911D01*
X182906407Y-82164660D01*
X182906101Y-82156469D01*
X182905736Y-82153021D01*
X182905428Y-82149593D01*
X182905660Y-82147184D01*
X182905959Y-82139647D01*
X182906133Y-82128794D01*
X182906190Y-82115724D01*
X182906142Y-82101535D01*
X182905996Y-82087325D01*
X182905761Y-82074192D01*
X182905447Y-82063233D01*
X182905063Y-82055547D01*
X182904619Y-82052232D01*
X182904059Y-82050912D01*
X182904629Y-82045978D01*
X182904847Y-82044064D01*
X182905104Y-82037006D01*
X182905328Y-82025115D01*
X182905522Y-82008748D01*
X182905684Y-81988259D01*
X182905817Y-81964003D01*
X182905922Y-81936336D01*
X182905998Y-81905613D01*
X182906048Y-81872189D01*
X182906073Y-81836420D01*
X182906072Y-81798660D01*
X182906047Y-81759264D01*
X182906000Y-81718589D01*
X182905930Y-81676989D01*
X182905840Y-81634819D01*
X182905729Y-81592434D01*
X182905599Y-81550191D01*
X182905451Y-81508443D01*
X182905286Y-81467547D01*
X182905104Y-81427856D01*
X182904907Y-81389728D01*
X182904696Y-81353516D01*
X182904471Y-81319576D01*
X182904233Y-81288264D01*
X182903984Y-81259934D01*
X182903725Y-81234941D01*
X182903455Y-81213641D01*
X182903177Y-81196389D01*
X182902891Y-81183541D01*
X182902599Y-81175451D01*
X182902300Y-81172474D01*
X182901721Y-81170901D01*
X182903373Y-81166832D01*
X182905008Y-81164202D01*
X182903188Y-81163162D01*
X182901979Y-81162876D01*
X182901780Y-81160213D01*
X182902040Y-81159767D01*
X182902287Y-81159121D01*
X182902506Y-81158033D01*
X182902697Y-81156237D01*
X182902861Y-81153470D01*
X182902996Y-81149467D01*
X182903104Y-81143963D01*
X182903183Y-81136695D01*
X182903234Y-81127396D01*
X182903256Y-81115803D01*
X182903250Y-81101652D01*
X182903215Y-81084677D01*
X182903152Y-81064614D01*
X182903059Y-81041199D01*
X182902937Y-81014167D01*
X182902786Y-80983253D01*
X182902720Y-80970386D01*
X183099892Y-80970386D01*
X183101259Y-80971753D01*
X183102627Y-80970386D01*
X183101259Y-80969019D01*
X183099892Y-80970386D01*
X182902720Y-80970386D01*
X182902606Y-80948193D01*
X182902396Y-80908723D01*
X182902156Y-80864577D01*
X182901887Y-80815492D01*
X182901588Y-80761203D01*
X182901269Y-80703434D01*
X182900915Y-80639587D01*
X182900586Y-80580823D01*
X182900282Y-80526932D01*
X182900000Y-80477704D01*
X182899739Y-80432931D01*
X182899497Y-80392401D01*
X182899273Y-80355907D01*
X182899064Y-80323237D01*
X182898869Y-80294183D01*
X182898686Y-80268534D01*
X182898514Y-80246081D01*
X182898350Y-80226615D01*
X182898194Y-80209926D01*
X182898043Y-80195803D01*
X182897897Y-80184038D01*
X182897752Y-80174421D01*
X182897608Y-80166742D01*
X182897462Y-80160791D01*
X182897314Y-80156359D01*
X182897161Y-80153237D01*
X182897002Y-80151214D01*
X182896834Y-80150081D01*
X182896657Y-80149628D01*
X182896422Y-80147009D01*
X182898130Y-80141666D01*
X182899683Y-80136036D01*
X182897613Y-80131001D01*
X182895672Y-80127552D01*
X182897187Y-80123149D01*
X182898567Y-80121026D01*
X182898820Y-80118066D01*
X182898316Y-80115039D01*
X182897859Y-80107862D01*
X182897477Y-80097855D01*
X182897193Y-80086341D01*
X182897033Y-80074640D01*
X182897023Y-80064072D01*
X182897187Y-80055959D01*
X182897551Y-80051622D01*
X182897604Y-80051378D01*
X182897701Y-80046153D01*
X182897581Y-80044091D01*
X182897433Y-80037208D01*
X182897316Y-80026524D01*
X182897240Y-80013004D01*
X182897213Y-79997617D01*
X182897173Y-79986024D01*
X182897008Y-79972400D01*
X182896735Y-79961560D01*
X182896380Y-79954401D01*
X182895968Y-79951816D01*
X182895463Y-79951990D01*
X182891325Y-79954146D01*
X182884094Y-79958246D01*
X182874940Y-79963633D01*
X182868498Y-79967471D01*
X182855588Y-79975126D01*
X182841334Y-79983544D01*
X182827818Y-79991495D01*
X182826611Y-79992204D01*
X182815143Y-79998953D01*
X182800369Y-80007670D01*
X182783519Y-80017628D01*
X182765826Y-80028100D01*
X182748520Y-80038356D01*
X182743419Y-80041380D01*
X182727572Y-80050765D01*
X182712835Y-80059477D01*
X182700105Y-80066985D01*
X182690281Y-80072760D01*
X182684261Y-80076272D01*
X182677160Y-80080398D01*
X182666235Y-80086801D01*
X182655549Y-80093114D01*
X182646893Y-80098228D01*
X182637044Y-80103994D01*
X182629573Y-80108312D01*
X182615907Y-80116146D01*
X182605705Y-80122115D01*
X182598791Y-80126354D01*
X182594403Y-80129331D01*
X182591779Y-80131511D01*
X182589508Y-80133267D01*
X182584728Y-80135022D01*
X182582667Y-80135545D01*
X182576710Y-80138339D01*
X182569201Y-80142739D01*
X182564263Y-80145817D01*
X182553792Y-80152169D01*
X182540018Y-80160401D01*
X182523785Y-80170020D01*
X182505936Y-80180531D01*
X182487315Y-80191441D01*
X182468767Y-80202255D01*
X182451137Y-80212478D01*
X182435267Y-80221617D01*
X182422002Y-80229178D01*
X182412186Y-80234666D01*
X182399831Y-80241493D01*
X182379680Y-80252834D01*
X182361694Y-80263220D01*
X182346541Y-80272256D01*
X182334893Y-80279545D01*
X182327419Y-80284692D01*
X182326911Y-80285049D01*
X182322056Y-80287801D01*
X182315115Y-80291227D01*
X182314191Y-80291672D01*
X182307459Y-80295265D01*
X182297514Y-80300895D01*
X182285543Y-80307882D01*
X182272731Y-80315545D01*
X182271486Y-80316298D01*
X182257618Y-80324598D01*
X182243788Y-80332731D01*
X182231536Y-80339799D01*
X182222403Y-80344903D01*
X182213065Y-80350109D01*
X182200806Y-80357263D01*
X182190405Y-80363651D01*
X182183426Y-80367993D01*
X182177275Y-80371551D01*
X182174292Y-80372916D01*
X182171621Y-80374120D01*
X182165615Y-80377573D01*
X182157701Y-80382486D01*
X182150288Y-80387151D01*
X182144401Y-80390699D01*
X182141795Y-80392057D01*
X182141413Y-80392180D01*
X182137368Y-80394232D01*
X182129697Y-80398442D01*
X182119231Y-80404331D01*
X182106806Y-80411419D01*
X182093251Y-80419228D01*
X182079402Y-80427279D01*
X182066090Y-80435092D01*
X182054147Y-80442188D01*
X182044407Y-80448088D01*
X182037810Y-80452119D01*
X182023306Y-80460844D01*
X182008777Y-80469437D01*
X181996555Y-80476514D01*
X181991562Y-80479397D01*
X181982710Y-80484747D01*
X181976405Y-80488885D01*
X181973768Y-80491095D01*
X181973350Y-80491731D01*
X181969618Y-80493230D01*
X181968661Y-80493392D01*
X181963548Y-80495639D01*
X181956857Y-80499690D01*
X181952370Y-80502557D01*
X181943601Y-80507909D01*
X181931900Y-80514902D01*
X181918239Y-80522960D01*
X181903585Y-80531501D01*
X181890611Y-80539020D01*
X181877031Y-80546890D01*
X181865386Y-80553641D01*
X181856609Y-80558732D01*
X181851631Y-80561621D01*
X181845886Y-80564953D01*
X181836792Y-80570215D01*
X181827021Y-80575859D01*
X181818501Y-80580850D01*
X181808576Y-80586818D01*
X181801044Y-80591514D01*
X181800268Y-80592011D01*
X181793590Y-80596127D01*
X181783620Y-80602126D01*
X181771572Y-80609280D01*
X181758661Y-80616864D01*
X181745524Y-80624558D01*
X181727417Y-80635207D01*
X181709104Y-80646017D01*
X181693035Y-80655545D01*
X181679831Y-80663396D01*
X181668328Y-80670222D01*
X181659251Y-80675580D01*
X181651393Y-80680172D01*
X181643550Y-80684704D01*
X181634516Y-80689880D01*
X181623087Y-80696402D01*
X181618178Y-80699209D01*
X181606911Y-80705700D01*
X181596992Y-80711474D01*
X181590125Y-80715543D01*
X181587894Y-80716893D01*
X181575120Y-80724646D01*
X181560014Y-80733845D01*
X181543575Y-80743876D01*
X181526806Y-80754129D01*
X181510707Y-80763990D01*
X181496278Y-80772847D01*
X181484521Y-80780088D01*
X181476436Y-80785101D01*
X181474411Y-80786362D01*
X181465325Y-80791939D01*
X181458005Y-80796304D01*
X181453879Y-80798603D01*
X181452392Y-80799392D01*
X181446535Y-80802692D01*
X181437386Y-80807953D01*
X181425857Y-80814648D01*
X181412863Y-80822252D01*
X181406227Y-80826148D01*
X181393181Y-80833807D01*
X181381701Y-80840543D01*
X181372837Y-80845742D01*
X181367639Y-80848788D01*
X181355248Y-80856072D01*
X181338343Y-80866099D01*
X181321119Y-80876399D01*
X181304836Y-80886215D01*
X181290756Y-80894788D01*
X181280138Y-80901362D01*
X181268224Y-80908720D01*
X181254587Y-80916934D01*
X181242539Y-80924001D01*
X181240453Y-80925214D01*
X181232129Y-80930363D01*
X181226287Y-80934483D01*
X181224082Y-80936774D01*
X181223333Y-80937927D01*
X181219235Y-80938940D01*
X181215804Y-80939805D01*
X181208772Y-80943032D01*
X181200516Y-80947827D01*
X181194311Y-80951794D01*
X181186557Y-80956727D01*
X181181438Y-80959953D01*
X181179732Y-80960995D01*
X181173029Y-80965006D01*
X181163174Y-80970846D01*
X181151248Y-80977879D01*
X181138335Y-80985470D01*
X181125518Y-80992983D01*
X181113879Y-80999781D01*
X181104501Y-81005228D01*
X181098467Y-81008689D01*
X181098406Y-81008724D01*
X181091059Y-81012990D01*
X181081207Y-81018868D01*
X181070964Y-81025095D01*
X181068396Y-81026673D01*
X181058201Y-81032917D01*
X181050782Y-81037389D01*
X181044579Y-81041000D01*
X181038032Y-81044662D01*
X181029582Y-81049288D01*
X181023458Y-81052709D01*
X181014613Y-81057904D01*
X181008247Y-81061947D01*
X181007180Y-81062658D01*
X181001047Y-81066497D01*
X180991595Y-81072221D01*
X180979902Y-81079181D01*
X180967047Y-81086729D01*
X180966669Y-81086950D01*
X180951400Y-81095881D01*
X180935058Y-81105485D01*
X180919576Y-81114622D01*
X180906890Y-81122153D01*
X180829288Y-81167205D01*
X180815702Y-81175211D01*
X180801782Y-81184101D01*
X180790805Y-81191874D01*
X180786961Y-81194476D01*
X180783478Y-81195975D01*
X180781139Y-81197026D01*
X180774763Y-81200474D01*
X180765188Y-81205891D01*
X180753203Y-81212829D01*
X180739600Y-81220840D01*
X180738075Y-81221745D01*
X180718209Y-81233533D01*
X180702330Y-81242948D01*
X180689765Y-81250383D01*
X180679844Y-81256231D01*
X180671897Y-81260884D01*
X180665254Y-81264734D01*
X180659243Y-81268175D01*
X180653194Y-81271599D01*
X180646437Y-81275399D01*
X180642023Y-81277925D01*
X180633426Y-81283170D01*
X180627471Y-81287265D01*
X180625245Y-81289490D01*
X180625087Y-81290176D01*
X180622128Y-81291680D01*
X180621192Y-81291894D01*
X180616094Y-81294178D01*
X180608120Y-81298429D01*
X180598539Y-81303985D01*
X180594501Y-81306397D01*
X180585835Y-81311461D01*
X180579548Y-81314975D01*
X180576785Y-81316290D01*
X180576401Y-81316395D01*
X180572723Y-81318496D01*
X180566915Y-81322442D01*
X180566039Y-81323066D01*
X180558771Y-81327966D01*
X180552821Y-81331589D01*
X180541268Y-81337987D01*
X180521948Y-81349074D01*
X180503563Y-81360040D01*
X180494964Y-81365231D01*
X180483931Y-81371761D01*
X180474852Y-81377001D01*
X180474706Y-81377083D01*
X180468097Y-81380852D01*
X180458279Y-81386498D01*
X180446386Y-81393362D01*
X180433554Y-81400786D01*
X180420919Y-81408114D01*
X180409617Y-81414687D01*
X180400784Y-81419847D01*
X180395554Y-81422936D01*
X180393299Y-81424265D01*
X180386781Y-81428057D01*
X180377557Y-81433395D01*
X180366842Y-81439574D01*
X180362700Y-81441969D01*
X180347942Y-81450613D01*
X180332458Y-81459810D01*
X180318990Y-81467937D01*
X180315424Y-81470108D01*
X180301665Y-81478401D01*
X180287413Y-81486890D01*
X180275239Y-81494039D01*
X180271717Y-81496085D01*
X180254452Y-81506119D01*
X180241168Y-81513855D01*
X180231228Y-81519666D01*
X180223993Y-81523928D01*
X180218824Y-81527015D01*
X180215082Y-81529301D01*
X180208925Y-81533034D01*
X180200946Y-81537710D01*
X180199447Y-81538573D01*
X180193109Y-81542255D01*
X180183201Y-81548031D01*
X180170511Y-81555441D01*
X180155827Y-81564025D01*
X180139935Y-81573325D01*
X180133539Y-81577067D01*
X180117360Y-81586506D01*
X180102291Y-81595265D01*
X180089233Y-81602821D01*
X180079087Y-81608652D01*
X180072755Y-81612235D01*
X180068190Y-81614813D01*
X180057255Y-81621248D01*
X180047632Y-81627204D01*
X180043796Y-81629651D01*
X180036041Y-81634466D01*
X180030509Y-81637733D01*
X180029782Y-81638138D01*
X180023660Y-81641632D01*
X180014937Y-81646678D01*
X180005383Y-81652248D01*
X179996767Y-81657309D01*
X179990860Y-81660830D01*
X179989315Y-81661764D01*
X179981710Y-81666309D01*
X179971369Y-81672439D01*
X179959533Y-81679426D01*
X179947440Y-81686540D01*
X179936330Y-81693050D01*
X179927445Y-81698228D01*
X179922021Y-81701344D01*
X179918302Y-81703452D01*
X179907729Y-81709524D01*
X179893640Y-81717686D01*
X179876826Y-81727474D01*
X179858079Y-81738422D01*
X179838192Y-81750067D01*
X179817957Y-81761942D01*
X179798167Y-81773584D01*
X179779613Y-81784527D01*
X179763088Y-81794308D01*
X179749384Y-81802461D01*
X179739294Y-81808522D01*
X179738325Y-81809102D01*
X179732857Y-81812324D01*
X179724516Y-81817203D01*
X179714684Y-81822931D01*
X179709283Y-81826074D01*
X179696132Y-81833747D01*
X179681680Y-81842197D01*
X179668199Y-81850095D01*
X179662143Y-81853628D01*
X179647222Y-81862220D01*
X179632002Y-81870857D01*
X179618982Y-81878119D01*
X179613217Y-81881326D01*
X179603369Y-81886982D01*
X179595743Y-81891587D01*
X179591637Y-81894371D01*
X179591157Y-81894753D01*
X179586155Y-81898106D01*
X179578136Y-81903006D01*
X179568595Y-81908534D01*
X179561224Y-81912710D01*
X179546816Y-81920974D01*
X179531752Y-81929770D01*
X179514029Y-81940261D01*
X179511804Y-81941581D01*
X179503261Y-81946608D01*
X179496255Y-81950674D01*
X179495058Y-81951361D01*
X179488321Y-81955226D01*
X179478949Y-81960606D01*
X179468586Y-81966558D01*
X179466615Y-81967690D01*
X179455159Y-81974250D01*
X179444166Y-81980518D01*
X179435773Y-81985276D01*
X179432834Y-81986943D01*
X179423413Y-81992349D01*
X179411926Y-81998999D01*
X179400226Y-82005823D01*
X179394135Y-82009387D01*
X179384428Y-82015058D01*
X179376924Y-82019428D01*
X179372882Y-82021765D01*
X179372436Y-82022019D01*
X179367326Y-82024972D01*
X179358701Y-82029983D01*
X179347592Y-82036451D01*
X179335029Y-82043775D01*
X179322043Y-82051354D01*
X179309664Y-82058588D01*
X179298923Y-82064874D01*
X179290849Y-82069613D01*
X179290772Y-82069658D01*
X179282433Y-82074566D01*
X179270912Y-82081347D01*
X179257718Y-82089113D01*
X179244364Y-82096973D01*
X179243095Y-82097720D01*
X179230469Y-82105129D01*
X179218802Y-82111939D01*
X179209346Y-82117424D01*
X179203348Y-82120856D01*
X179199176Y-82123210D01*
X179185983Y-82130781D01*
X179172609Y-82138619D01*
X179160040Y-82146128D01*
X179149264Y-82152716D01*
X179141268Y-82157788D01*
X179137038Y-82160751D01*
X179133950Y-82162842D01*
X179132253Y-82162592D01*
X179131050Y-82162223D01*
X179127412Y-82164758D01*
X179123689Y-82167644D01*
X179117158Y-82171335D01*
X179115560Y-82172102D01*
X179109386Y-82175468D01*
X179099984Y-82180842D01*
X179088311Y-82187671D01*
X179075325Y-82195405D01*
X179069934Y-82198635D01*
X179056104Y-82206857D01*
X179043227Y-82214426D01*
X179032546Y-82220616D01*
X179025301Y-82224700D01*
X179020083Y-82227628D01*
X179010879Y-82233118D01*
X179003875Y-82237689D01*
X179003019Y-82238292D01*
X178997519Y-82241818D01*
X178994368Y-82243257D01*
X178993539Y-82243494D01*
X178989042Y-82245769D01*
X178982485Y-82249677D01*
X178981223Y-82250465D01*
X178973160Y-82255361D01*
X178962702Y-82261566D01*
X178951782Y-82267932D01*
X178951407Y-82268148D01*
X178938485Y-82275698D01*
X178924317Y-82284105D01*
X178911903Y-82291591D01*
X178908829Y-82293454D01*
X178900203Y-82298537D01*
X178893815Y-82302082D01*
X178890866Y-82303414D01*
X178888654Y-82304402D01*
X178882380Y-82307809D01*
X178872871Y-82313210D01*
X178860901Y-82320146D01*
X178847245Y-82328159D01*
X178832680Y-82336793D01*
X178817979Y-82345590D01*
X178803920Y-82354091D01*
X178791276Y-82361839D01*
X178780824Y-82368377D01*
X178775957Y-82371236D01*
X178768576Y-82375096D01*
X178763916Y-82377585D01*
X178755736Y-82382371D01*
X178746700Y-82387966D01*
X178739244Y-82392683D01*
X178731350Y-82397598D01*
X178726192Y-82400715D01*
X178723120Y-82402484D01*
X178715801Y-82406692D01*
X178705927Y-82412363D01*
X178694746Y-82418779D01*
X178686899Y-82423305D01*
X178675098Y-82430191D01*
X178664880Y-82436243D01*
X178657832Y-82440527D01*
X178654623Y-82442504D01*
X178647514Y-82446677D01*
X178642792Y-82449164D01*
X178641717Y-82449675D01*
X178635977Y-82452835D01*
X178628787Y-82457167D01*
X178624054Y-82460055D01*
X178614883Y-82465499D01*
X178603538Y-82472130D01*
X178591467Y-82479099D01*
X178582971Y-82484011D01*
X178569324Y-82492039D01*
X178556585Y-82499677D01*
X178546682Y-82505776D01*
X178545687Y-82506402D01*
X178536783Y-82511919D01*
X178529498Y-82516281D01*
X178525326Y-82518594D01*
X178524654Y-82518931D01*
X178519579Y-82521796D01*
X178511629Y-82526512D01*
X178502209Y-82532250D01*
X178499517Y-82533888D01*
X178490504Y-82539062D01*
X178483394Y-82542681D01*
X178479537Y-82544043D01*
X178478176Y-82544201D01*
X178475976Y-82546094D01*
X178475027Y-82547652D01*
X178470221Y-82551353D01*
X178461076Y-82556955D01*
X178447282Y-82564660D01*
X178438202Y-82569700D01*
X178424624Y-82577421D01*
X178408822Y-82586538D01*
X178392103Y-82596293D01*
X178375776Y-82605927D01*
X178361148Y-82614679D01*
X178354915Y-82618440D01*
X178345297Y-82624232D01*
X178337893Y-82628675D01*
X178333935Y-82631029D01*
X178333599Y-82631245D01*
X178332989Y-82633350D01*
X177777913Y-82633350D01*
X177777812Y-82631544D01*
X177778011Y-82621579D01*
X177780528Y-82596510D01*
X177786323Y-82573568D01*
X177795889Y-82551146D01*
X177809721Y-82527636D01*
X177813198Y-82522350D01*
X177816585Y-82517415D01*
X177820073Y-82512821D01*
X177823993Y-82508345D01*
X177828675Y-82503766D01*
X177834448Y-82498863D01*
X177841643Y-82493415D01*
X177850590Y-82487199D01*
X177861618Y-82479995D01*
X177875057Y-82471582D01*
X177891238Y-82461737D01*
X177910491Y-82450239D01*
X177933145Y-82436867D01*
X177959530Y-82421399D01*
X177989976Y-82403614D01*
X178024814Y-82383291D01*
X178033507Y-82378187D01*
X178046463Y-82370530D01*
X178062302Y-82361133D01*
X178080090Y-82350551D01*
X178098896Y-82339339D01*
X178117784Y-82328051D01*
X178132181Y-82319454D01*
X178153705Y-82306650D01*
X178175652Y-82293645D01*
X178196746Y-82281194D01*
X178215709Y-82270051D01*
X178231263Y-82260973D01*
X178244855Y-82253053D01*
X178263218Y-82242301D01*
X178283995Y-82230095D01*
X178305989Y-82217139D01*
X178328004Y-82204137D01*
X178348843Y-82191794D01*
X178354445Y-82188470D01*
X178372426Y-82177809D01*
X178389050Y-82167965D01*
X178403648Y-82159331D01*
X178415552Y-82152304D01*
X178424092Y-82147279D01*
X178428599Y-82144651D01*
X178432953Y-82142116D01*
X178441577Y-82137016D01*
X178452430Y-82130548D01*
X178464146Y-82123522D01*
X178466716Y-82121978D01*
X178478400Y-82114990D01*
X178493303Y-82106111D01*
X178510265Y-82096030D01*
X178528125Y-82085439D01*
X178545721Y-82075026D01*
X178549440Y-82072828D01*
X178567831Y-82061942D01*
X178586703Y-82050754D01*
X178604757Y-82040032D01*
X178620696Y-82030549D01*
X178633222Y-82023073D01*
X178636100Y-82021355D01*
X178649589Y-82013381D01*
X178666212Y-82003642D01*
X178684689Y-81992882D01*
X178703742Y-81981847D01*
X178722091Y-81971284D01*
X178744757Y-81958245D01*
X178818529Y-81915260D01*
X178890257Y-81872588D01*
X178891542Y-81871817D01*
X178904739Y-81863960D01*
X178921172Y-81854266D01*
X178939491Y-81843528D01*
X178958347Y-81832535D01*
X178976391Y-81822079D01*
X178987123Y-81815866D01*
X179007094Y-81804241D01*
X179029453Y-81791166D01*
X179052785Y-81777471D01*
X179075674Y-81763986D01*
X179096706Y-81751540D01*
X179114825Y-81740800D01*
X179140939Y-81725365D01*
X179165671Y-81710800D01*
X179188357Y-81697491D01*
X179208337Y-81685827D01*
X179224948Y-81676196D01*
X179237528Y-81668986D01*
X179239975Y-81667578D01*
X179247358Y-81663269D01*
X179257839Y-81657113D01*
X179270397Y-81649708D01*
X179284013Y-81641655D01*
X179289139Y-81638619D01*
X179314030Y-81623881D01*
X179335399Y-81611239D01*
X179354240Y-81600107D01*
X179371549Y-81589901D01*
X179388319Y-81580033D01*
X179405545Y-81569918D01*
X179424222Y-81558969D01*
X179445344Y-81546602D01*
X179452892Y-81542179D01*
X179472854Y-81530446D01*
X179495825Y-81516908D01*
X179520633Y-81502257D01*
X179546108Y-81487183D01*
X179571077Y-81472380D01*
X179594370Y-81458540D01*
X179607868Y-81450518D01*
X179630506Y-81437102D01*
X179653207Y-81423690D01*
X179675022Y-81410843D01*
X179694997Y-81399119D01*
X179712181Y-81389080D01*
X179725622Y-81381286D01*
X179728012Y-81379906D01*
X179742975Y-81371205D01*
X179761340Y-81360442D01*
X179782032Y-81348251D01*
X179803974Y-81335269D01*
X179826090Y-81322130D01*
X179847303Y-81309470D01*
X179858628Y-81302694D01*
X179878198Y-81290992D01*
X179895873Y-81280434D01*
X179912387Y-81270583D01*
X179928475Y-81261006D01*
X179944870Y-81251264D01*
X179962306Y-81240924D01*
X179981516Y-81229548D01*
X180003236Y-81216701D01*
X180028198Y-81201947D01*
X180057137Y-81184850D01*
X180071215Y-81176532D01*
X180088410Y-81166371D01*
X180104273Y-81156993D01*
X180117959Y-81148897D01*
X180128625Y-81142584D01*
X180135427Y-81138553D01*
X180140335Y-81135655D01*
X180150730Y-81129564D01*
X180163860Y-81121904D01*
X180178536Y-81113370D01*
X180193566Y-81104655D01*
X180196758Y-81102804D01*
X180209776Y-81095220D01*
X180226480Y-81085448D01*
X180246095Y-81073944D01*
X180267844Y-81061165D01*
X180290950Y-81047565D01*
X180314638Y-81033603D01*
X180338131Y-81019732D01*
X180347647Y-81014111D01*
X180370474Y-81000643D01*
X180392692Y-80987556D01*
X180413618Y-80975250D01*
X180432570Y-80964127D01*
X180448865Y-80954588D01*
X180461819Y-80947033D01*
X180470750Y-80941863D01*
X180470883Y-80941787D01*
X180483173Y-80934728D01*
X180494459Y-80928243D01*
X180503494Y-80923050D01*
X180509032Y-80919863D01*
X180512048Y-80918091D01*
X180519583Y-80913618D01*
X180530724Y-80906980D01*
X180544867Y-80898537D01*
X180561407Y-80888650D01*
X180579743Y-80877680D01*
X180599268Y-80865987D01*
X180611413Y-80858712D01*
X180632245Y-80846244D01*
X180652507Y-80834127D01*
X180671376Y-80822855D01*
X180688027Y-80812918D01*
X180701636Y-80804810D01*
X180711379Y-80799023D01*
X180748603Y-80776968D01*
X180786011Y-80754786D01*
X180818943Y-80735235D01*
X180847361Y-80718339D01*
X180871225Y-80704122D01*
X180890495Y-80692607D01*
X180905131Y-80683819D01*
X180915093Y-80677780D01*
X180916283Y-80677054D01*
X180924201Y-80672266D01*
X180936141Y-80665088D01*
X180951553Y-80655849D01*
X180969885Y-80644878D01*
X180990585Y-80632507D01*
X181013102Y-80619063D01*
X181036886Y-80604878D01*
X181061384Y-80590280D01*
X181098129Y-80568389D01*
X181147754Y-80538800D01*
X181193094Y-80511735D01*
X181234087Y-80487231D01*
X181270674Y-80465323D01*
X181302794Y-80446049D01*
X181330385Y-80429443D01*
X181353388Y-80415544D01*
X181371741Y-80404387D01*
X181373601Y-80403252D01*
X181390441Y-80393045D01*
X181409013Y-80381882D01*
X181427187Y-80371039D01*
X181442836Y-80361791D01*
X181443360Y-80361483D01*
X181453838Y-80355305D01*
X181468194Y-80346803D01*
X181485663Y-80336433D01*
X181505479Y-80324650D01*
X181526876Y-80311908D01*
X181549089Y-80298664D01*
X181571353Y-80285372D01*
X181572773Y-80284524D01*
X181595056Y-80271221D01*
X181617240Y-80257994D01*
X181638559Y-80245298D01*
X181658247Y-80233589D01*
X181675539Y-80223322D01*
X181689668Y-80214952D01*
X181699871Y-80208935D01*
X181700002Y-80208858D01*
X181715414Y-80199780D01*
X181732121Y-80189901D01*
X181748116Y-80180409D01*
X181761395Y-80172490D01*
X181770915Y-80166814D01*
X181782813Y-80159777D01*
X181793027Y-80153797D01*
X181800055Y-80149757D01*
X181803446Y-80147816D01*
X181811753Y-80142987D01*
X181823409Y-80136167D01*
X181837612Y-80127824D01*
X181853565Y-80118426D01*
X181870468Y-80108444D01*
X181877824Y-80104099D01*
X181897349Y-80092599D01*
X181917337Y-80080870D01*
X181936496Y-80069668D01*
X181953534Y-80059748D01*
X181967162Y-80051866D01*
X181974472Y-80047657D01*
X181991462Y-80037843D01*
X182007319Y-80028626D01*
X182023206Y-80019323D01*
X182040287Y-80009251D01*
X182059727Y-79997726D01*
X182082689Y-79984067D01*
X182087496Y-79981210D01*
X182099543Y-79974107D01*
X182109777Y-79968152D01*
X182117239Y-79963899D01*
X182120971Y-79961904D01*
X182122453Y-79961150D01*
X182128318Y-79957898D01*
X182137475Y-79952675D01*
X182149004Y-79946006D01*
X182161987Y-79938419D01*
X182164432Y-79936985D01*
X182180810Y-79927420D01*
X182198327Y-79917256D01*
X182215033Y-79907620D01*
X182228980Y-79899640D01*
X182232278Y-79897759D01*
X182245021Y-79890412D01*
X182260872Y-79881191D01*
X182278636Y-79870797D01*
X182297115Y-79859927D01*
X182315115Y-79849281D01*
X182324026Y-79843998D01*
X182340235Y-79834416D01*
X182355131Y-79825640D01*
X182367868Y-79818169D01*
X182377598Y-79812499D01*
X182383475Y-79809129D01*
X182388725Y-79806172D01*
X182396612Y-79801675D01*
X182406267Y-79796110D01*
X182418426Y-79789049D01*
X182433826Y-79780068D01*
X182453203Y-79768738D01*
X182460122Y-79764692D01*
X182471032Y-79758320D01*
X182480152Y-79753004D01*
X182486016Y-79749598D01*
X182487245Y-79748883D01*
X182493496Y-79745209D01*
X182503333Y-79739403D01*
X182515936Y-79731948D01*
X182530489Y-79723327D01*
X182546173Y-79714025D01*
X182559575Y-79706071D01*
X182584375Y-79691357D01*
X182605083Y-79679077D01*
X182622111Y-79668986D01*
X182635872Y-79660842D01*
X182646778Y-79654399D01*
X182655241Y-79649415D01*
X182661673Y-79645644D01*
X182666487Y-79642844D01*
X182674760Y-79638048D01*
X182691083Y-79628545D01*
X182710284Y-79617332D01*
X182731276Y-79605046D01*
X182752973Y-79592325D01*
X182774289Y-79579806D01*
X182794137Y-79568126D01*
X182811430Y-79557921D01*
X182825083Y-79549829D01*
X182828382Y-79547869D01*
X182846105Y-79537384D01*
X182865910Y-79525725D01*
X182885609Y-79514180D01*
X182895968Y-79508141D01*
X182903014Y-79504034D01*
X182907784Y-79501260D01*
X182925028Y-79491180D01*
X182943207Y-79480488D01*
X182960430Y-79470299D01*
X182974806Y-79461727D01*
X182988473Y-79453884D01*
X183004706Y-79445225D01*
X183020429Y-79437422D01*
X183033596Y-79431526D01*
X183042064Y-79428106D01*
X183051713Y-79424568D01*
X183060093Y-79422281D01*
X183068889Y-79420916D01*
X183079786Y-79420143D01*
X183094466Y-79419635D01*
X183101259Y-79419478D01*
X183103601Y-79419424D01*
X183117577Y-79419457D01*
G37*
G36*
X182222144Y-85994877D02*
G01*
X182221947Y-85996325D01*
X182220321Y-85996700D01*
X182219994Y-85996299D01*
X182220321Y-85993054D01*
X182221144Y-85992627D01*
X182222144Y-85994877D01*
G37*
G36*
X179395995Y-84216972D02*
G01*
X179397179Y-84219339D01*
X179393229Y-84220241D01*
X179391277Y-84219840D01*
X179390683Y-84217462D01*
X179391434Y-84216599D01*
X179394946Y-84216256D01*
X179395995Y-84216972D01*
G37*
G36*
X179365311Y-81253503D02*
G01*
X179367413Y-81256133D01*
X179367382Y-81256751D01*
X179366207Y-81258867D01*
X179365769Y-81258741D01*
X179363311Y-81256133D01*
X179362884Y-81255073D01*
X179364517Y-81253398D01*
X179365311Y-81253503D01*
G37*
G36*
X179144638Y-84852088D02*
G01*
X179145014Y-84853714D01*
X179144613Y-84854041D01*
X179141368Y-84853714D01*
X179140940Y-84852891D01*
X179143191Y-84851891D01*
X179144638Y-84852088D01*
G37*
G36*
X178584083Y-80884449D02*
G01*
X178584458Y-80886075D01*
X178584057Y-80886402D01*
X178580812Y-80886075D01*
X178580385Y-80885252D01*
X178582635Y-80884252D01*
X178584083Y-80884449D01*
G37*
G36*
X178333803Y-84639974D02*
G01*
X178332436Y-84641341D01*
X178331069Y-84639974D01*
X178332436Y-84638606D01*
X178333803Y-84639974D01*
G37*
G36*
X182905749Y-84095825D02*
G01*
X182904381Y-84097192D01*
X182903014Y-84095825D01*
X182904381Y-84094457D01*
X182905749Y-84095825D01*
G37*
G36*
X182905749Y-85210100D02*
G01*
X182905551Y-85211547D01*
X182903926Y-85211923D01*
X182903598Y-85211522D01*
X182903926Y-85208277D01*
X182904748Y-85207849D01*
X182905749Y-85210100D01*
G37*
G36*
X182905749Y-85227873D02*
G01*
X182904381Y-85229241D01*
X182903014Y-85227873D01*
X182904381Y-85226506D01*
X182905749Y-85227873D01*
G37*
G36*
X182903014Y-84481377D02*
G01*
X182901647Y-84482745D01*
X182900280Y-84481377D01*
X182901647Y-84480010D01*
X182903014Y-84481377D01*
G37*
G36*
X182903014Y-84842321D02*
G01*
X182901647Y-84843688D01*
X182900280Y-84842321D01*
X182901647Y-84840953D01*
X182903014Y-84842321D01*
G37*
G36*
X182903014Y-84979041D02*
G01*
X182901647Y-84980409D01*
X182900280Y-84979041D01*
X182901647Y-84977674D01*
X182903014Y-84979041D01*
G37*
G36*
X182901727Y-85059904D02*
G01*
X182902103Y-85061530D01*
X182901702Y-85061857D01*
X182898457Y-85061530D01*
X182898029Y-85060707D01*
X182900280Y-85059707D01*
X182901727Y-85059904D01*
G37*
G36*
X182903014Y-85080215D02*
G01*
X182901647Y-85081582D01*
X182900280Y-85080215D01*
X182901647Y-85078848D01*
X182903014Y-85080215D01*
G37*
G36*
X182902798Y-85093659D02*
G01*
X182902605Y-85096432D01*
X182901362Y-85097248D01*
X182900820Y-85096281D01*
X182901146Y-85092007D01*
X182902131Y-85090741D01*
X182902798Y-85093659D01*
G37*
G36*
X182903014Y-85151310D02*
G01*
X182901647Y-85152677D01*
X182900280Y-85151310D01*
X182901647Y-85149942D01*
X182903014Y-85151310D01*
G37*
G36*
X182903014Y-85238811D02*
G01*
X182901647Y-85240178D01*
X182900280Y-85238811D01*
X182901647Y-85237444D01*
X182903014Y-85238811D01*
G37*
G36*
X182901727Y-85256782D02*
G01*
X182902103Y-85258408D01*
X182901702Y-85258735D01*
X182898457Y-85258408D01*
X182898029Y-85257585D01*
X182900280Y-85256585D01*
X182901727Y-85256782D01*
G37*
G36*
X182900280Y-83477846D02*
G01*
X182898913Y-83479214D01*
X182897545Y-83477846D01*
X182898913Y-83476479D01*
X182900280Y-83477846D01*
G37*
G36*
X182900280Y-83525699D02*
G01*
X182900082Y-83527146D01*
X182898457Y-83527522D01*
X182898130Y-83527121D01*
X182898457Y-83523876D01*
X182899279Y-83523448D01*
X182900280Y-83525699D01*
G37*
G36*
X182900280Y-83595426D02*
G01*
X182898913Y-83596794D01*
X182897545Y-83595426D01*
X182898913Y-83594059D01*
X182900280Y-83595426D01*
G37*
G36*
X182900280Y-83950901D02*
G01*
X182898913Y-83952268D01*
X182897545Y-83950901D01*
X182898913Y-83949533D01*
X182900280Y-83950901D01*
G37*
G36*
X182900280Y-84090356D02*
G01*
X182898913Y-84091723D01*
X182897545Y-84090356D01*
X182898913Y-84088989D01*
X182900280Y-84090356D01*
G37*
G36*
X182898993Y-84502083D02*
G01*
X182899368Y-84503709D01*
X182898968Y-84504036D01*
X182895722Y-84503709D01*
X182895295Y-84502886D01*
X182897545Y-84501886D01*
X182898993Y-84502083D01*
G37*
G36*
X182900280Y-85104502D02*
G01*
X182900157Y-85104983D01*
X182897545Y-85107559D01*
X182896577Y-85108068D01*
X182894811Y-85107882D01*
X182894934Y-85107401D01*
X182897545Y-85104825D01*
X182898514Y-85104315D01*
X182900280Y-85104502D01*
G37*
G36*
X182900280Y-85201896D02*
G01*
X182900082Y-85203344D01*
X182898457Y-85203719D01*
X182898130Y-85203319D01*
X182898457Y-85200073D01*
X182899279Y-85199646D01*
X182900280Y-85201896D01*
G37*
G36*
X182897545Y-84664583D02*
G01*
X182896178Y-84665951D01*
X182894811Y-84664583D01*
X182896178Y-84663216D01*
X182897545Y-84664583D01*
G37*
G36*
X182897545Y-84902478D02*
G01*
X182896178Y-84903845D01*
X182894811Y-84902478D01*
X182896178Y-84901110D01*
X182897545Y-84902478D01*
G37*
G36*
X182897545Y-85020058D02*
G01*
X182896178Y-85021425D01*
X182894811Y-85020058D01*
X182896178Y-85018690D01*
X182897545Y-85020058D01*
G37*
G36*
X182897545Y-85212834D02*
G01*
X182897348Y-85214282D01*
X182895722Y-85214657D01*
X182895395Y-85214256D01*
X182895722Y-85211011D01*
X182896545Y-85210583D01*
X182897545Y-85212834D01*
G37*
G36*
X182897545Y-85230608D02*
G01*
X182896178Y-85231975D01*
X182894811Y-85230608D01*
X182896178Y-85229241D01*
X182897545Y-85230608D01*
G37*
G36*
X182897545Y-85245647D02*
G01*
X182897348Y-85247095D01*
X182895722Y-85247470D01*
X182895395Y-85247069D01*
X182895722Y-85243824D01*
X182896545Y-85243396D01*
X182897545Y-85245647D01*
G37*
G36*
X182897545Y-85266155D02*
G01*
X182896178Y-85267522D01*
X182894811Y-85266155D01*
X182896178Y-85264788D01*
X182897545Y-85266155D01*
G37*
G36*
X182897545Y-85274358D02*
G01*
X182896178Y-85275726D01*
X182894811Y-85274358D01*
X182896178Y-85272991D01*
X182897545Y-85274358D01*
G37*
G36*
X182893255Y-83955411D02*
G01*
X182894070Y-83956654D01*
X182893103Y-83957196D01*
X182888829Y-83956870D01*
X182887564Y-83955886D01*
X182890481Y-83955218D01*
X182893255Y-83955411D01*
G37*
G36*
X182886608Y-85279827D02*
G01*
X182885241Y-85281194D01*
X182883873Y-85279827D01*
X182885241Y-85278460D01*
X182886608Y-85279827D01*
G37*
G36*
X182871649Y-84994278D02*
G01*
X182872024Y-84995904D01*
X182871623Y-84996231D01*
X182868378Y-84995904D01*
X182867950Y-84995081D01*
X182870201Y-84994081D01*
X182871649Y-84994278D01*
G37*
G36*
X182872936Y-85014589D02*
G01*
X182871568Y-85015956D01*
X182870201Y-85014589D01*
X182871568Y-85013222D01*
X182872936Y-85014589D01*
G37*
G36*
X182864732Y-85104825D02*
G01*
X182863365Y-85106192D01*
X182861998Y-85104825D01*
X182863365Y-85103457D01*
X182864732Y-85104825D01*
G37*
G36*
X182861998Y-85123965D02*
G01*
X182860631Y-85125333D01*
X182859264Y-85123965D01*
X182860631Y-85122598D01*
X182861998Y-85123965D01*
G37*
G36*
X182847039Y-85259516D02*
G01*
X182847414Y-85261142D01*
X182847014Y-85261469D01*
X182843769Y-85261142D01*
X182843341Y-85260320D01*
X182845591Y-85259319D01*
X182847039Y-85259516D01*
G37*
G36*
X182843684Y-85242106D02*
G01*
X182845591Y-85244280D01*
X182845463Y-85244675D01*
X182842857Y-85247014D01*
X182841409Y-85247233D01*
X182840123Y-85244280D01*
X182840540Y-85242195D01*
X182842857Y-85241545D01*
X182843684Y-85242106D01*
G37*
G36*
X182841570Y-84832947D02*
G01*
X182841946Y-84834573D01*
X182841545Y-84834900D01*
X182838300Y-84834573D01*
X182837872Y-84833751D01*
X182840123Y-84832750D01*
X182841570Y-84832947D01*
G37*
G36*
X182840123Y-84570246D02*
G01*
X182839925Y-84571694D01*
X182838300Y-84572069D01*
X182837972Y-84571668D01*
X182838300Y-84568423D01*
X182839122Y-84567995D01*
X182840123Y-84570246D01*
G37*
G36*
X182831919Y-84557941D02*
G01*
X182830552Y-84559308D01*
X182829185Y-84557941D01*
X182830552Y-84556574D01*
X182831919Y-84557941D01*
G37*
G36*
X182827687Y-85246331D02*
G01*
X182827143Y-85249091D01*
X182828892Y-85251116D01*
X182829966Y-85251333D01*
X182831919Y-85254436D01*
X182830869Y-85255681D01*
X182827251Y-85253089D01*
X182826576Y-85252396D01*
X182824166Y-85248434D01*
X182826046Y-85244983D01*
X182826417Y-85244619D01*
X182828492Y-85243208D01*
X182827687Y-85246331D01*
G37*
G36*
X182829185Y-84973573D02*
G01*
X182827818Y-84974940D01*
X182826451Y-84973573D01*
X182827818Y-84972205D01*
X182829185Y-84973573D01*
G37*
G36*
X182822429Y-85237641D02*
G01*
X182822805Y-85239267D01*
X182822404Y-85239594D01*
X182819159Y-85239267D01*
X182818731Y-85238444D01*
X182820982Y-85237444D01*
X182822429Y-85237641D01*
G37*
G36*
X182814967Y-85243651D02*
G01*
X182819155Y-85244050D01*
X182818914Y-85244909D01*
X182817606Y-85245758D01*
X182817388Y-85249299D01*
X182817879Y-85250846D01*
X182815103Y-85249089D01*
X182812380Y-85247474D01*
X182809109Y-85247494D01*
X182808506Y-85247931D01*
X182807310Y-85246445D01*
X182809374Y-85244504D01*
X182814829Y-85243650D01*
X182814967Y-85243651D01*
G37*
G36*
X182807310Y-85236077D02*
G01*
X182805942Y-85237444D01*
X182804575Y-85236077D01*
X182805942Y-85234709D01*
X182807310Y-85236077D01*
G37*
G36*
X182799106Y-85238811D02*
G01*
X182797739Y-85240178D01*
X182796372Y-85238811D01*
X182797739Y-85237444D01*
X182799106Y-85238811D01*
G37*
G36*
X182785434Y-85222404D02*
G01*
X182784067Y-85223772D01*
X182782700Y-85222404D01*
X182784067Y-85221037D01*
X182785434Y-85222404D01*
G37*
G36*
X182763559Y-85214201D02*
G01*
X182762192Y-85215568D01*
X182760825Y-85214201D01*
X182762192Y-85212834D01*
X182763559Y-85214201D01*
G37*
G36*
X182695199Y-83095028D02*
G01*
X182693831Y-83096395D01*
X182692464Y-83095028D01*
X182693831Y-83093661D01*
X182695199Y-83095028D01*
G37*
G36*
X182695199Y-83488784D02*
G01*
X182693831Y-83490151D01*
X182692464Y-83488784D01*
X182693831Y-83487417D01*
X182695199Y-83488784D01*
G37*
G36*
X182692464Y-83494253D02*
G01*
X182691097Y-83495620D01*
X182689730Y-83494253D01*
X182691097Y-83492886D01*
X182692464Y-83494253D01*
G37*
G36*
X182692464Y-83598161D02*
G01*
X182691097Y-83599528D01*
X182689730Y-83598161D01*
X182691097Y-83596794D01*
X182692464Y-83598161D01*
G37*
G36*
X182692464Y-83929025D02*
G01*
X182691097Y-83930392D01*
X182689730Y-83929025D01*
X182691097Y-83927658D01*
X182692464Y-83929025D01*
G37*
G36*
X182692464Y-83956369D02*
G01*
X182691097Y-83957737D01*
X182689730Y-83956369D01*
X182691097Y-83955002D01*
X182692464Y-83956369D01*
G37*
G36*
X182692464Y-85110293D02*
G01*
X182691097Y-85111661D01*
X182689730Y-85110293D01*
X182691097Y-85108926D01*
X182692464Y-85110293D01*
G37*
G36*
X182689730Y-83499722D02*
G01*
X182688362Y-83501089D01*
X182686995Y-83499722D01*
X182688362Y-83498355D01*
X182689730Y-83499722D01*
G37*
G36*
X182688443Y-83506755D02*
G01*
X182688818Y-83508381D01*
X182688417Y-83508708D01*
X182685172Y-83508381D01*
X182684745Y-83507558D01*
X182686995Y-83506558D01*
X182688443Y-83506755D01*
G37*
G36*
X182686995Y-83330188D02*
G01*
X182685628Y-83331555D01*
X182684261Y-83330188D01*
X182685628Y-83328821D01*
X182686995Y-83330188D01*
G37*
G36*
X182686995Y-83406752D02*
G01*
X182685628Y-83408119D01*
X182684261Y-83406752D01*
X182685628Y-83405384D01*
X182686995Y-83406752D01*
G37*
G36*
X182686995Y-83620036D02*
G01*
X182685628Y-83621403D01*
X182684261Y-83620036D01*
X182685628Y-83618669D01*
X182686995Y-83620036D01*
G37*
G36*
X182686995Y-83630974D02*
G01*
X182685628Y-83632341D01*
X182684261Y-83630974D01*
X182685628Y-83629607D01*
X182686995Y-83630974D01*
G37*
G36*
X182686995Y-83767695D02*
G01*
X182685628Y-83769062D01*
X182684261Y-83767695D01*
X182685628Y-83766327D01*
X182686995Y-83767695D01*
G37*
G36*
X182686995Y-83778632D02*
G01*
X182685628Y-83779999D01*
X182684261Y-83778632D01*
X182685628Y-83777265D01*
X182686995Y-83778632D01*
G37*
G36*
X182686995Y-83827852D02*
G01*
X182685628Y-83829219D01*
X182684261Y-83827852D01*
X182685628Y-83826485D01*
X182686995Y-83827852D01*
G37*
G36*
X182686995Y-83923556D02*
G01*
X182685628Y-83924924D01*
X182684261Y-83923556D01*
X182685628Y-83922189D01*
X182686995Y-83923556D01*
G37*
G36*
X182686995Y-83934494D02*
G01*
X182685628Y-83935861D01*
X182684261Y-83934494D01*
X182685628Y-83933127D01*
X182686995Y-83934494D01*
G37*
G36*
X182685125Y-85105376D02*
G01*
X182686995Y-85107559D01*
X182686958Y-85107769D01*
X182684717Y-85110012D01*
X182683653Y-85110220D01*
X182682438Y-85107559D01*
X182682703Y-85105921D01*
X182684717Y-85105106D01*
X182685125Y-85105376D01*
G37*
G36*
X182671351Y-81345645D02*
G01*
X182671506Y-81348799D01*
X182671667Y-81357090D01*
X182671827Y-81370135D01*
X182671985Y-81387572D01*
X182672137Y-81409040D01*
X182672283Y-81434174D01*
X182672421Y-81462613D01*
X182672547Y-81493994D01*
X182672662Y-81527955D01*
X182672761Y-81564132D01*
X182672845Y-81602163D01*
X182672911Y-81641685D01*
X182672940Y-81661691D01*
X182673008Y-81702511D01*
X182673093Y-81747853D01*
X182673193Y-81797099D01*
X182673307Y-81849636D01*
X182673432Y-81904849D01*
X182673569Y-81962121D01*
X182673714Y-82020838D01*
X182673867Y-82080385D01*
X182674027Y-82140147D01*
X182674190Y-82199509D01*
X182674357Y-82257855D01*
X182674526Y-82314570D01*
X182674694Y-82369040D01*
X182674766Y-82391670D01*
X182674919Y-82440799D01*
X182675066Y-82488925D01*
X182675208Y-82535703D01*
X182675342Y-82580792D01*
X182675468Y-82623846D01*
X182675585Y-82664522D01*
X182675691Y-82702478D01*
X182675787Y-82737370D01*
X182675870Y-82768853D01*
X182675941Y-82796585D01*
X182675997Y-82820222D01*
X182676039Y-82839421D01*
X182676064Y-82853838D01*
X182676073Y-82863129D01*
X182676137Y-82879348D01*
X182676458Y-82898001D01*
X182677053Y-82911402D01*
X182677929Y-82919676D01*
X182679091Y-82922945D01*
X182680323Y-82924022D01*
X182679417Y-82926520D01*
X182678956Y-82928392D01*
X182678422Y-82935164D01*
X182677959Y-82946273D01*
X182677568Y-82961108D01*
X182677248Y-82979055D01*
X182676999Y-82999501D01*
X182676821Y-83021834D01*
X182676713Y-83045440D01*
X182676676Y-83069707D01*
X182676710Y-83094022D01*
X182676813Y-83117771D01*
X182676987Y-83140343D01*
X182677230Y-83161123D01*
X182677544Y-83179500D01*
X182677926Y-83194860D01*
X182678379Y-83206590D01*
X182678900Y-83214078D01*
X182679491Y-83216710D01*
X182680689Y-83217131D01*
X182679460Y-83220128D01*
X182679133Y-83222041D01*
X182678731Y-83229362D01*
X182678377Y-83242093D01*
X182678070Y-83260200D01*
X182677812Y-83283650D01*
X182677602Y-83312408D01*
X182677439Y-83346442D01*
X182677326Y-83385717D01*
X182677261Y-83430199D01*
X182677245Y-83479855D01*
X182677278Y-83534652D01*
X182677361Y-83594555D01*
X182677997Y-83965564D01*
X182537364Y-83964336D01*
X182396730Y-83963107D01*
X182396674Y-83740985D01*
X182396653Y-83713904D01*
X182396571Y-83675363D01*
X182396429Y-83640400D01*
X182396231Y-83609250D01*
X182395979Y-83582152D01*
X182395677Y-83559340D01*
X182395326Y-83541051D01*
X182394931Y-83527522D01*
X182394493Y-83518989D01*
X182394015Y-83515688D01*
X182392996Y-83513990D01*
X182394121Y-83510840D01*
X182394954Y-83508334D01*
X182395744Y-83501180D01*
X182396351Y-83490397D01*
X182396772Y-83476970D01*
X182397006Y-83461883D01*
X182397050Y-83446120D01*
X182396902Y-83430665D01*
X182396561Y-83416502D01*
X182396024Y-83404616D01*
X182395290Y-83395990D01*
X182394357Y-83391608D01*
X182393036Y-83388189D01*
X182394111Y-83386243D01*
X182394270Y-83386008D01*
X182394774Y-83381861D01*
X182395227Y-83372970D01*
X182395627Y-83359893D01*
X182395974Y-83343190D01*
X182396268Y-83323420D01*
X182396508Y-83301142D01*
X182396693Y-83276915D01*
X182396824Y-83251299D01*
X182396898Y-83224852D01*
X182396917Y-83198134D01*
X182396878Y-83171704D01*
X182396782Y-83146121D01*
X182396629Y-83121944D01*
X182396416Y-83099732D01*
X182396145Y-83080045D01*
X182395814Y-83063442D01*
X182395423Y-83050482D01*
X182394972Y-83041724D01*
X182394459Y-83037726D01*
X182393312Y-83032965D01*
X182394356Y-83029437D01*
X182394388Y-83029413D01*
X182395110Y-83026101D01*
X182395611Y-83018128D01*
X182395874Y-83006265D01*
X182395880Y-82991287D01*
X182395613Y-82973968D01*
X182395562Y-82971685D01*
X182395195Y-82955155D01*
X182394878Y-82940569D01*
X182394629Y-82928810D01*
X182394468Y-82920757D01*
X182394412Y-82917291D01*
X182394418Y-82916242D01*
X182394452Y-82910470D01*
X182394513Y-82900742D01*
X182394592Y-82888088D01*
X182394685Y-82873540D01*
X182394722Y-82867383D01*
X182394827Y-82843951D01*
X182394901Y-82817121D01*
X182394946Y-82787261D01*
X182394963Y-82754742D01*
X182394953Y-82719933D01*
X182394918Y-82683202D01*
X182394860Y-82644921D01*
X182394780Y-82605457D01*
X182394680Y-82565182D01*
X182394561Y-82524463D01*
X182394424Y-82483672D01*
X182394272Y-82443176D01*
X182394105Y-82403346D01*
X182393926Y-82364551D01*
X182393736Y-82327160D01*
X182393535Y-82291544D01*
X182393327Y-82258071D01*
X182393112Y-82227111D01*
X182392891Y-82199034D01*
X182392834Y-82192670D01*
X182558478Y-82192670D01*
X182559845Y-82194038D01*
X182561212Y-82192670D01*
X182559845Y-82191303D01*
X182558478Y-82192670D01*
X182392834Y-82192670D01*
X182392667Y-82174209D01*
X182392441Y-82153005D01*
X182392215Y-82135791D01*
X182391989Y-82122939D01*
X182391766Y-82114816D01*
X182391547Y-82111793D01*
X182390791Y-82109729D01*
X182392141Y-82104612D01*
X182393351Y-82102042D01*
X182392917Y-82096317D01*
X182391921Y-82093377D01*
X182391543Y-82088763D01*
X182391709Y-82087563D01*
X182392020Y-82081406D01*
X182392268Y-82070950D01*
X182392456Y-82056892D01*
X182392586Y-82039931D01*
X182392659Y-82020765D01*
X182392679Y-82000090D01*
X182392647Y-81978604D01*
X182392566Y-81957006D01*
X182392438Y-81935993D01*
X182392265Y-81916262D01*
X182392049Y-81898512D01*
X182391794Y-81883440D01*
X182391500Y-81871743D01*
X182391171Y-81864120D01*
X182390808Y-81861268D01*
X182389903Y-81859940D01*
X182390257Y-81855491D01*
X182390468Y-81854015D01*
X182390806Y-81847495D01*
X182391111Y-81836436D01*
X182391373Y-81821425D01*
X182391586Y-81803048D01*
X182391742Y-81781892D01*
X182391834Y-81758544D01*
X182391853Y-81733589D01*
X182391834Y-81718875D01*
X182391745Y-81691508D01*
X182391579Y-81669017D01*
X182391325Y-81650998D01*
X182390970Y-81637049D01*
X182390502Y-81626766D01*
X182389909Y-81619747D01*
X182389180Y-81615588D01*
X182388302Y-81613887D01*
X182386278Y-81612248D01*
X182388249Y-81611649D01*
X182388304Y-81611644D01*
X182389110Y-81610392D01*
X182389785Y-81606668D01*
X182390337Y-81600099D01*
X182390777Y-81590310D01*
X182391114Y-81576925D01*
X182391357Y-81559571D01*
X182391517Y-81537872D01*
X182391602Y-81511454D01*
X182391623Y-81479943D01*
X182391623Y-81478421D01*
X182391636Y-81452217D01*
X182391682Y-81427757D01*
X182391758Y-81405571D01*
X182391861Y-81386194D01*
X182391986Y-81370156D01*
X182392131Y-81357990D01*
X182392292Y-81350228D01*
X182392466Y-81347403D01*
X182392572Y-81347373D01*
X182396262Y-81347178D01*
X182404808Y-81346962D01*
X182417684Y-81346730D01*
X182434367Y-81346491D01*
X182454330Y-81346251D01*
X182477050Y-81346017D01*
X182502001Y-81345796D01*
X182528659Y-81345596D01*
X182532828Y-81345566D01*
X182559363Y-81345335D01*
X182559845Y-81345329D01*
X182584184Y-81345046D01*
X182606756Y-81344712D01*
X182626540Y-81344344D01*
X182643002Y-81343951D01*
X182655605Y-81343546D01*
X182663811Y-81343139D01*
X182667086Y-81342742D01*
X182669049Y-81342445D01*
X182671351Y-81345645D01*
G37*
G36*
X182681526Y-83056746D02*
G01*
X182680159Y-83058113D01*
X182678792Y-83056746D01*
X182680159Y-83055379D01*
X182681526Y-83056746D01*
G37*
G36*
X182678792Y-85118497D02*
G01*
X182677425Y-85119864D01*
X182676058Y-85118497D01*
X182677425Y-85117129D01*
X182678792Y-85118497D01*
G37*
G36*
X182673323Y-85107559D02*
G01*
X182671956Y-85108926D01*
X182670589Y-85107559D01*
X182671956Y-85106192D01*
X182673323Y-85107559D01*
G37*
G36*
X182673323Y-85148575D02*
G01*
X182671956Y-85149942D01*
X182670589Y-85148575D01*
X182671956Y-85147208D01*
X182673323Y-85148575D01*
G37*
G36*
X182665120Y-85104825D02*
G01*
X182663753Y-85106192D01*
X182662386Y-85104825D01*
X182663753Y-85103457D01*
X182665120Y-85104825D01*
G37*
G36*
X182662386Y-85115762D02*
G01*
X182661018Y-85117129D01*
X182659651Y-85115762D01*
X182661018Y-85114395D01*
X182662386Y-85115762D01*
G37*
G36*
X182656494Y-85120970D02*
G01*
X182657051Y-85121333D01*
X182659569Y-85124035D01*
X182658445Y-85125333D01*
X182657830Y-85125088D01*
X182655288Y-85122176D01*
X182654623Y-85120648D01*
X182656494Y-85120970D01*
G37*
G36*
X182656917Y-85110293D02*
G01*
X182655549Y-85111661D01*
X182654182Y-85110293D01*
X182655549Y-85108926D01*
X182656917Y-85110293D01*
G37*
G36*
X182588556Y-85115762D02*
G01*
X182587189Y-85117129D01*
X182585822Y-85115762D01*
X182587189Y-85114395D01*
X182588556Y-85115762D01*
G37*
G36*
X182577196Y-85107298D02*
G01*
X182578411Y-85108142D01*
X182580353Y-85110455D01*
X182580326Y-85110837D01*
X182578744Y-85111439D01*
X182575990Y-85108504D01*
X182575325Y-85106976D01*
X182577196Y-85107298D01*
G37*
G36*
X182554456Y-85092717D02*
G01*
X182554832Y-85094343D01*
X182554431Y-85094670D01*
X182551186Y-85094343D01*
X182550758Y-85093520D01*
X182553009Y-85092520D01*
X182554456Y-85092717D01*
G37*
G36*
X182539337Y-85082949D02*
G01*
X182537970Y-85084316D01*
X182536602Y-85082949D01*
X182537970Y-85081582D01*
X182539337Y-85082949D01*
G37*
G36*
X182408085Y-84998182D02*
G01*
X182406718Y-84999549D01*
X182405350Y-84998182D01*
X182406718Y-84996815D01*
X182408085Y-84998182D01*
G37*
G36*
X182388944Y-83726678D02*
G01*
X182387577Y-83728046D01*
X182386209Y-83726678D01*
X182387577Y-83725311D01*
X182388944Y-83726678D01*
G37*
G36*
X182383475Y-83661052D02*
G01*
X182382108Y-83662420D01*
X182380741Y-83661052D01*
X182382108Y-83659685D01*
X182383475Y-83661052D01*
G37*
G36*
X182378006Y-83212608D02*
G01*
X182376639Y-83213975D01*
X182375272Y-83212608D01*
X182376639Y-83211241D01*
X182378006Y-83212608D01*
G37*
G36*
X182372537Y-81468050D02*
G01*
X182371170Y-81469417D01*
X182369803Y-81468050D01*
X182371170Y-81466683D01*
X182372537Y-81468050D01*
G37*
G36*
X182363912Y-84978780D02*
G01*
X182364468Y-84979144D01*
X182366987Y-84981845D01*
X182365863Y-84983143D01*
X182365248Y-84982899D01*
X182362706Y-84979986D01*
X182362040Y-84978458D01*
X182363912Y-84978780D01*
G37*
G36*
X182326052Y-84959900D02*
G01*
X182324685Y-84961268D01*
X182323318Y-84959900D01*
X182324685Y-84958533D01*
X182326052Y-84959900D01*
G37*
G36*
X182260426Y-84913415D02*
G01*
X182259059Y-84914783D01*
X182257692Y-84913415D01*
X182259059Y-84912048D01*
X182260426Y-84913415D01*
G37*
G36*
X182249489Y-84910681D02*
G01*
X182248121Y-84912048D01*
X182246754Y-84910681D01*
X182248121Y-84909314D01*
X182249489Y-84910681D01*
G37*
G36*
X180690528Y-83021253D02*
G01*
X180703587Y-83021481D01*
X180713596Y-83021859D01*
X180719582Y-83022395D01*
X180726587Y-83023466D01*
X180738931Y-83025066D01*
X180751028Y-83026369D01*
X180756204Y-83026933D01*
X180769060Y-83028788D01*
X180783032Y-83031260D01*
X180796484Y-83034025D01*
X180807781Y-83036757D01*
X180815287Y-83039133D01*
X180815480Y-83039212D01*
X180822132Y-83041293D01*
X180830326Y-83043164D01*
X180832307Y-83043561D01*
X180841917Y-83045925D01*
X180851759Y-83048842D01*
X180854540Y-83049717D01*
X180863725Y-83052173D01*
X180871024Y-83053554D01*
X180876529Y-83054462D01*
X180881036Y-83055886D01*
X180884114Y-83057186D01*
X180891321Y-83059770D01*
X180900986Y-83063034D01*
X180911610Y-83066492D01*
X180921692Y-83069656D01*
X180929733Y-83072039D01*
X180934234Y-83073156D01*
X180939103Y-83074400D01*
X180946033Y-83076868D01*
X180952345Y-83079009D01*
X180957493Y-83079989D01*
X180958984Y-83080161D01*
X180962759Y-83082422D01*
X180963432Y-83083004D01*
X180968250Y-83085397D01*
X180976487Y-83088669D01*
X180986847Y-83092289D01*
X180988680Y-83092898D01*
X181001634Y-83097463D01*
X181014405Y-83102334D01*
X181024470Y-83106554D01*
X181030449Y-83109219D01*
X181042490Y-83114380D01*
X181053181Y-83118742D01*
X181060669Y-83121714D01*
X181081487Y-83130475D01*
X181101299Y-83139693D01*
X181120984Y-83149860D01*
X181141423Y-83161470D01*
X181163496Y-83175014D01*
X181188083Y-83190984D01*
X181216064Y-83209874D01*
X181233554Y-83221819D01*
X181247678Y-83231391D01*
X181258637Y-83238704D01*
X181267101Y-83244192D01*
X181273742Y-83248290D01*
X181279231Y-83251433D01*
X181284239Y-83254056D01*
X181285713Y-83254817D01*
X181292412Y-83258808D01*
X181296544Y-83262106D01*
X181298348Y-83263490D01*
X181304605Y-83267303D01*
X181314470Y-83272877D01*
X181327173Y-83279811D01*
X181341946Y-83287704D01*
X181358020Y-83296157D01*
X181374628Y-83304769D01*
X181391001Y-83313140D01*
X181406370Y-83320869D01*
X181419968Y-83327557D01*
X181431025Y-83332802D01*
X181438775Y-83336205D01*
X181442201Y-83337603D01*
X181451067Y-83341297D01*
X181460609Y-83345344D01*
X181463168Y-83346404D01*
X181473458Y-83350330D01*
X181486087Y-83354811D01*
X181498891Y-83359074D01*
X181504088Y-83360737D01*
X181515673Y-83364444D01*
X181525444Y-83367572D01*
X181531704Y-83369577D01*
X181532313Y-83369771D01*
X181570157Y-83378979D01*
X181609785Y-83383183D01*
X181650651Y-83382326D01*
X181651932Y-83382221D01*
X181661407Y-83381464D01*
X181673599Y-83380511D01*
X181686199Y-83379543D01*
X181689692Y-83379264D01*
X181700762Y-83378201D01*
X181709727Y-83377082D01*
X181714910Y-83376109D01*
X181719459Y-83374997D01*
X181727215Y-83373777D01*
X181737679Y-83372660D01*
X181752133Y-83370695D01*
X181762852Y-83368657D01*
X181768971Y-83366692D01*
X181772109Y-83365525D01*
X181776371Y-83365696D01*
X181776971Y-83365910D01*
X181781789Y-83365453D01*
X181788686Y-83363199D01*
X181790272Y-83362574D01*
X181797386Y-83360615D01*
X181802202Y-83360564D01*
X181804029Y-83360895D01*
X181807793Y-83359041D01*
X181808685Y-83358033D01*
X181812203Y-83357669D01*
X181812479Y-83357779D01*
X181816863Y-83357581D01*
X181824726Y-83356032D01*
X181834573Y-83353416D01*
X181845825Y-83350112D01*
X181858753Y-83346349D01*
X181869405Y-83343282D01*
X181875637Y-83341464D01*
X181884267Y-83338815D01*
X181889913Y-83336916D01*
X181894505Y-83335330D01*
X181903114Y-83332498D01*
X181914477Y-83328831D01*
X181927356Y-83324732D01*
X181939747Y-83320666D01*
X181952330Y-83316234D01*
X181962580Y-83312307D01*
X181969046Y-83309418D01*
X181970993Y-83308403D01*
X181977509Y-83305413D01*
X181981494Y-83304211D01*
X181982579Y-83303991D01*
X181988244Y-83301899D01*
X181997632Y-83297893D01*
X182009923Y-83292339D01*
X182024297Y-83285604D01*
X182039936Y-83278056D01*
X182046898Y-83274417D01*
X182055240Y-83269450D01*
X182060678Y-83265469D01*
X182064635Y-83262095D01*
X182066913Y-83260812D01*
X182067155Y-83260875D01*
X182070801Y-83259545D01*
X182077392Y-83255922D01*
X182085679Y-83250806D01*
X182094413Y-83244992D01*
X182102345Y-83239277D01*
X182108223Y-83234459D01*
X182118718Y-83224750D01*
X182128732Y-83236337D01*
X182131591Y-83239612D01*
X182139260Y-83248253D01*
X182148496Y-83258533D01*
X182157886Y-83268872D01*
X182161502Y-83272847D01*
X182173087Y-83285727D01*
X182185348Y-83299526D01*
X182196167Y-83311868D01*
X182202550Y-83318936D01*
X182209988Y-83326411D01*
X182215723Y-83331293D01*
X182218868Y-83332766D01*
X182220364Y-83332553D01*
X182220736Y-83334356D01*
X182221243Y-83337151D01*
X182224609Y-83342890D01*
X182230147Y-83350047D01*
X182235330Y-83356258D01*
X182239594Y-83361740D01*
X182241218Y-83364368D01*
X182241148Y-83364676D01*
X182238241Y-83368095D01*
X182231629Y-83373807D01*
X182222085Y-83381253D01*
X182210382Y-83389876D01*
X182197293Y-83399115D01*
X182183590Y-83408412D01*
X182170048Y-83417208D01*
X182157438Y-83424945D01*
X182153708Y-83427113D01*
X182136115Y-83436716D01*
X182115589Y-83447152D01*
X182093886Y-83457574D01*
X182072763Y-83467132D01*
X182053978Y-83474976D01*
X182053676Y-83475094D01*
X182043009Y-83479343D01*
X182033306Y-83483290D01*
X182026634Y-83486094D01*
X182025559Y-83486553D01*
X182016849Y-83489883D01*
X182007493Y-83493006D01*
X182005138Y-83493750D01*
X181998024Y-83496343D01*
X181993821Y-83498405D01*
X181992305Y-83499247D01*
X181988311Y-83500813D01*
X181981580Y-83503037D01*
X181971603Y-83506075D01*
X181957873Y-83510079D01*
X181939880Y-83515203D01*
X181917117Y-83521602D01*
X181887910Y-83529408D01*
X181841084Y-83540446D01*
X181794569Y-83549672D01*
X181749026Y-83557010D01*
X181705117Y-83562383D01*
X181663503Y-83565717D01*
X181624846Y-83566935D01*
X181589807Y-83565961D01*
X181559048Y-83562719D01*
X181534682Y-83558220D01*
X181505035Y-83551333D01*
X181473687Y-83542832D01*
X181442276Y-83533192D01*
X181412442Y-83522889D01*
X181385825Y-83512399D01*
X181383212Y-83511305D01*
X181373916Y-83507747D01*
X181366894Y-83505571D01*
X181363500Y-83505214D01*
X181362970Y-83505470D01*
X181360353Y-83504421D01*
X181360113Y-83504163D01*
X181356331Y-83501788D01*
X181348571Y-83497510D01*
X181337576Y-83491722D01*
X181324087Y-83484817D01*
X181308849Y-83477187D01*
X181278545Y-83461700D01*
X181210262Y-83423252D01*
X181142050Y-83379862D01*
X181132675Y-83373573D01*
X181114244Y-83361284D01*
X181095984Y-83349194D01*
X181078985Y-83338022D01*
X181064335Y-83328484D01*
X181053124Y-83321298D01*
X181051632Y-83320373D01*
X181039264Y-83313489D01*
X181022837Y-83305312D01*
X181003319Y-83296250D01*
X180981676Y-83286712D01*
X180958876Y-83277106D01*
X180935885Y-83267843D01*
X180913672Y-83259330D01*
X180893202Y-83251977D01*
X180875444Y-83246191D01*
X180867313Y-83243711D01*
X180856170Y-83240244D01*
X180847478Y-83237458D01*
X180842631Y-83235793D01*
X180841981Y-83235543D01*
X180828666Y-83230997D01*
X180811375Y-83225902D01*
X180791442Y-83220599D01*
X180770204Y-83215427D01*
X180748996Y-83210729D01*
X180729153Y-83206843D01*
X180710371Y-83204178D01*
X180678577Y-83202110D01*
X180644069Y-83202325D01*
X180608145Y-83204690D01*
X180572101Y-83209070D01*
X180537235Y-83215332D01*
X180504842Y-83223342D01*
X180476219Y-83232966D01*
X180474691Y-83233568D01*
X180468077Y-83236166D01*
X180458513Y-83239918D01*
X180447508Y-83244232D01*
X180441602Y-83246598D01*
X180427071Y-83252689D01*
X180411343Y-83259554D01*
X180396921Y-83266110D01*
X180388743Y-83269921D01*
X180375821Y-83275916D01*
X180364280Y-83281239D01*
X180355905Y-83285065D01*
X180355728Y-83285145D01*
X180348872Y-83288515D01*
X180338299Y-83294009D01*
X180325020Y-83301087D01*
X180310043Y-83309213D01*
X180294380Y-83317848D01*
X180292947Y-83318645D01*
X180270473Y-83331114D01*
X180252290Y-83341121D01*
X180237944Y-83348869D01*
X180226982Y-83354559D01*
X180218950Y-83358392D01*
X180213395Y-83360571D01*
X180209864Y-83361297D01*
X180207904Y-83360771D01*
X180207060Y-83359196D01*
X180206879Y-83356773D01*
X180205920Y-83352313D01*
X180202706Y-83345955D01*
X180202467Y-83345608D01*
X180198940Y-83339910D01*
X180193968Y-83331272D01*
X180188548Y-83321421D01*
X180188217Y-83320806D01*
X180182634Y-83310525D01*
X180177455Y-83301149D01*
X180173764Y-83294640D01*
X180170783Y-83289245D01*
X180165986Y-83280016D01*
X180161028Y-83270031D01*
X180160729Y-83269417D01*
X180155176Y-83258452D01*
X180148359Y-83245603D01*
X180141686Y-83233525D01*
X180137596Y-83226227D01*
X180132017Y-83215514D01*
X180129118Y-83208099D01*
X180128736Y-83203118D01*
X180130711Y-83199707D01*
X180134882Y-83196999D01*
X180141093Y-83193778D01*
X180151303Y-83188379D01*
X180163719Y-83181751D01*
X180176982Y-83174626D01*
X180189730Y-83167734D01*
X180200605Y-83161806D01*
X180208246Y-83157573D01*
X180214058Y-83154409D01*
X180225883Y-83148255D01*
X180240988Y-83140602D01*
X180258388Y-83131930D01*
X180277099Y-83122720D01*
X180296139Y-83113453D01*
X180314523Y-83104609D01*
X180331268Y-83096669D01*
X180345390Y-83090113D01*
X180355905Y-83085423D01*
X180358757Y-83084193D01*
X180366234Y-83080949D01*
X180375046Y-83077112D01*
X180382109Y-83074134D01*
X180396825Y-83068328D01*
X180413224Y-83062226D01*
X180429626Y-83056433D01*
X180444349Y-83051550D01*
X180455711Y-83048182D01*
X180465341Y-83045712D01*
X180479515Y-83042257D01*
X180494594Y-83038735D01*
X180509336Y-83035423D01*
X180522497Y-83032599D01*
X180532836Y-83030542D01*
X180539111Y-83029528D01*
X180539828Y-83029454D01*
X180547164Y-83028737D01*
X180557623Y-83027753D01*
X180569189Y-83026693D01*
X180572034Y-83026427D01*
X180582062Y-83025351D01*
X180589523Y-83024333D01*
X180592976Y-83023564D01*
X180595342Y-83023080D01*
X180602540Y-83022515D01*
X180613491Y-83022036D01*
X180627223Y-83021652D01*
X180642765Y-83021373D01*
X180659145Y-83021208D01*
X180675390Y-83021165D01*
X180690528Y-83021253D01*
G37*
G36*
X180677337Y-81758689D02*
G01*
X180727151Y-81760788D01*
X180775160Y-81766713D01*
X180823490Y-81776718D01*
X180830971Y-81778516D01*
X180840909Y-81780774D01*
X180848100Y-81782258D01*
X180853999Y-81783619D01*
X180863590Y-81786253D01*
X180874077Y-81789441D01*
X180889798Y-81794459D01*
X180905920Y-81799550D01*
X180918028Y-81803282D01*
X180926787Y-81805848D01*
X180932863Y-81807442D01*
X180936922Y-81808256D01*
X180939630Y-81808485D01*
X180942876Y-81808961D01*
X180945172Y-81810979D01*
X180945457Y-81811593D01*
X180949266Y-81813614D01*
X180956095Y-81815318D01*
X180958376Y-81815752D01*
X180965099Y-81817660D01*
X180968561Y-81819660D01*
X180969868Y-81820857D01*
X180974728Y-81822169D01*
X180978558Y-81822954D01*
X180986489Y-81825396D01*
X180997023Y-81829040D01*
X181008866Y-81833421D01*
X181020725Y-81838073D01*
X181031306Y-81842531D01*
X181038727Y-81845550D01*
X181046345Y-81848204D01*
X181050223Y-81849610D01*
X181059077Y-81853323D01*
X181071067Y-81858669D01*
X181085173Y-81865183D01*
X181100373Y-81872398D01*
X181115649Y-81879849D01*
X181121387Y-81882841D01*
X181132627Y-81889128D01*
X181145443Y-81896655D01*
X181158032Y-81904379D01*
X181167374Y-81910245D01*
X181177530Y-81916590D01*
X181185435Y-81921492D01*
X181189902Y-81924214D01*
X181193512Y-81926472D01*
X181196738Y-81928879D01*
X181199662Y-81931297D01*
X181205517Y-81935600D01*
X181212766Y-81940692D01*
X181219955Y-81945569D01*
X181225631Y-81949231D01*
X181228340Y-81950674D01*
X181228354Y-81950675D01*
X181231294Y-81952108D01*
X181237443Y-81955787D01*
X181245489Y-81960929D01*
X181253663Y-81966248D01*
X181261493Y-81971265D01*
X181266531Y-81974400D01*
X181270233Y-81976612D01*
X181277832Y-81981162D01*
X181287906Y-81987199D01*
X181299279Y-81994018D01*
X181302930Y-81996198D01*
X181320226Y-82006296D01*
X181338177Y-82016459D01*
X181355455Y-82025953D01*
X181370732Y-82034046D01*
X181382678Y-82040006D01*
X181394558Y-82045610D01*
X181409970Y-82052832D01*
X181421463Y-82058129D01*
X181429656Y-82061772D01*
X181435172Y-82064037D01*
X181438631Y-82065195D01*
X181440654Y-82065520D01*
X181442104Y-82065674D01*
X181447074Y-82068116D01*
X181447122Y-82068160D01*
X181450788Y-82069982D01*
X181458652Y-82073060D01*
X181469724Y-82077062D01*
X181483015Y-82081657D01*
X181497535Y-82086514D01*
X181512294Y-82091302D01*
X181526303Y-82095688D01*
X181538571Y-82099343D01*
X181548111Y-82101935D01*
X181556135Y-82103735D01*
X181576113Y-82107081D01*
X181597211Y-82109373D01*
X181616471Y-82110252D01*
X181619011Y-82110235D01*
X181629821Y-82109897D01*
X181643451Y-82109209D01*
X181658245Y-82108281D01*
X181672545Y-82107225D01*
X181684694Y-82106149D01*
X181693035Y-82105164D01*
X181693921Y-82105028D01*
X181702689Y-82103707D01*
X181712176Y-82102303D01*
X181715393Y-82101814D01*
X181726053Y-82100060D01*
X181736785Y-82098153D01*
X181740877Y-82097401D01*
X181751284Y-82095563D01*
X181759740Y-82094160D01*
X181760979Y-82093958D01*
X181770447Y-82092131D01*
X181780248Y-82089892D01*
X181788100Y-82087946D01*
X181796752Y-82085947D01*
X181805511Y-82084173D01*
X181817020Y-82082061D01*
X181822731Y-82080892D01*
X181830447Y-82078789D01*
X181834794Y-82076892D01*
X181836020Y-82076167D01*
X181841988Y-82074105D01*
X181850102Y-82072337D01*
X181857432Y-82070664D01*
X181869207Y-82067318D01*
X181883991Y-82062718D01*
X181900700Y-82057230D01*
X181918250Y-82051217D01*
X181935557Y-82045043D01*
X181951538Y-82039074D01*
X181965109Y-82033673D01*
X181979336Y-82027542D01*
X181998841Y-82018587D01*
X182018446Y-82009057D01*
X182036857Y-81999601D01*
X182052778Y-81990870D01*
X182064915Y-81983516D01*
X182065210Y-81983323D01*
X182073923Y-81977702D01*
X182081175Y-81973200D01*
X182085424Y-81970777D01*
X182088506Y-81968840D01*
X182094842Y-81964139D01*
X182102384Y-81958061D01*
X182115243Y-81947303D01*
X182137909Y-81971548D01*
X182146331Y-81980531D01*
X182156200Y-81990999D01*
X182164779Y-82000041D01*
X182170852Y-82006368D01*
X182174871Y-82010631D01*
X182179432Y-82015903D01*
X182181263Y-82018673D01*
X182181844Y-82019628D01*
X182185412Y-82024081D01*
X182191683Y-82031426D01*
X182200022Y-82040927D01*
X182209797Y-82051848D01*
X182215420Y-82058101D01*
X182224441Y-82068261D01*
X182231661Y-82076558D01*
X182236452Y-82082267D01*
X182238185Y-82084661D01*
X182237380Y-82085964D01*
X182232904Y-82090201D01*
X182225232Y-82096483D01*
X182215195Y-82104178D01*
X182203627Y-82112652D01*
X182191362Y-82121276D01*
X182179231Y-82129415D01*
X182176770Y-82130998D01*
X182161769Y-82140071D01*
X182143310Y-82150510D01*
X182122689Y-82161626D01*
X182101202Y-82172734D01*
X182080145Y-82183146D01*
X182060814Y-82192175D01*
X182055080Y-82194681D01*
X182042051Y-82200080D01*
X182026667Y-82206189D01*
X182010164Y-82212542D01*
X181993778Y-82218674D01*
X181978742Y-82224118D01*
X181966293Y-82228408D01*
X181957664Y-82231080D01*
X181951641Y-82232778D01*
X181939242Y-82236513D01*
X181927519Y-82240290D01*
X181925113Y-82241085D01*
X181910312Y-82245580D01*
X181891968Y-82250670D01*
X181871544Y-82255991D01*
X181850503Y-82261181D01*
X181830309Y-82265878D01*
X181812423Y-82269717D01*
X181798310Y-82272337D01*
X181797275Y-82272508D01*
X181790652Y-82273824D01*
X181787030Y-82274924D01*
X181785705Y-82275360D01*
X181780080Y-82276424D01*
X181771991Y-82277530D01*
X181768317Y-82277974D01*
X181757731Y-82279328D01*
X181744726Y-82281053D01*
X181731317Y-82282884D01*
X181727887Y-82283352D01*
X181696685Y-82286913D01*
X181665120Y-82289357D01*
X181634144Y-82290674D01*
X181604707Y-82290858D01*
X181577761Y-82289901D01*
X181554256Y-82287794D01*
X181535143Y-82284529D01*
X181530806Y-82283575D01*
X181523785Y-82282280D01*
X181520104Y-82281966D01*
X181518744Y-82281990D01*
X181513930Y-82280772D01*
X181512693Y-82280348D01*
X181506546Y-82278591D01*
X181497161Y-82276129D01*
X181486020Y-82273354D01*
X181481469Y-82272226D01*
X181453055Y-82264316D01*
X181422625Y-82254575D01*
X181392036Y-82243659D01*
X181363145Y-82232226D01*
X181337807Y-82220931D01*
X181329658Y-82217223D01*
X181322321Y-82214299D01*
X181318211Y-82213179D01*
X181317007Y-82213050D01*
X181313862Y-82210959D01*
X181312198Y-82209554D01*
X181306479Y-82206040D01*
X181297718Y-82201182D01*
X181286974Y-82195585D01*
X181273325Y-82188528D01*
X181257441Y-82179986D01*
X181239319Y-82169917D01*
X181218154Y-82157874D01*
X181193139Y-82143409D01*
X181188819Y-82140885D01*
X181171584Y-82130560D01*
X181153957Y-82119554D01*
X181134938Y-82107221D01*
X181113528Y-82092916D01*
X181088729Y-82075993D01*
X181076469Y-82067869D01*
X181061190Y-82058355D01*
X181046391Y-82049695D01*
X181034040Y-82043074D01*
X181024210Y-82038289D01*
X181003100Y-82028550D01*
X180980401Y-82018668D01*
X180957196Y-82009075D01*
X180934563Y-82000198D01*
X180913585Y-81992468D01*
X180895341Y-81986315D01*
X180880913Y-81982169D01*
X180880556Y-81982080D01*
X180870454Y-81979411D01*
X180862145Y-81976915D01*
X180857397Y-81975122D01*
X180853919Y-81973669D01*
X180845026Y-81970778D01*
X180832418Y-81967162D01*
X180817062Y-81963064D01*
X180799924Y-81958728D01*
X180781969Y-81954395D01*
X180764164Y-81950308D01*
X180747473Y-81946710D01*
X180732863Y-81943844D01*
X180728693Y-81943150D01*
X180709364Y-81941126D01*
X180686230Y-81940169D01*
X180660520Y-81940220D01*
X180633465Y-81941217D01*
X180606293Y-81943102D01*
X180580234Y-81945812D01*
X180556519Y-81949289D01*
X180536376Y-81953472D01*
X180533804Y-81954118D01*
X180522899Y-81956830D01*
X180513785Y-81959058D01*
X180508216Y-81960371D01*
X180501080Y-81962277D01*
X180489327Y-81966062D01*
X180476638Y-81970651D01*
X180465281Y-81975256D01*
X180461852Y-81976730D01*
X180452495Y-81980644D01*
X180440749Y-81985471D01*
X180428367Y-81990488D01*
X180421924Y-81993154D01*
X180406287Y-82000030D01*
X180389777Y-82007714D01*
X180375046Y-82014987D01*
X180365603Y-82019858D01*
X180348595Y-82028708D01*
X180332743Y-82037049D01*
X180318791Y-82044486D01*
X180307479Y-82050620D01*
X180299551Y-82055055D01*
X180295748Y-82057394D01*
X180293899Y-82058587D01*
X180287882Y-82062110D01*
X180278997Y-82067131D01*
X180268403Y-82072989D01*
X180264669Y-82075035D01*
X180248338Y-82084031D01*
X180236145Y-82090853D01*
X180227512Y-82095833D01*
X180221863Y-82099303D01*
X180218620Y-82101594D01*
X180215683Y-82103133D01*
X180212378Y-82101999D01*
X180208478Y-82097108D01*
X180203252Y-82087806D01*
X180199629Y-82080932D01*
X180193491Y-82069420D01*
X180187543Y-82058388D01*
X180184588Y-82052942D01*
X180167082Y-82020481D01*
X180147295Y-81983487D01*
X180144336Y-81977976D01*
X180138733Y-81967751D01*
X180134108Y-81959578D01*
X180131244Y-81954851D01*
X180130071Y-81953052D01*
X180128127Y-81948473D01*
X180129266Y-81944670D01*
X180134118Y-81940625D01*
X180143312Y-81935319D01*
X180145248Y-81934268D01*
X180156030Y-81928362D01*
X180168698Y-81921370D01*
X180180902Y-81914586D01*
X180197892Y-81905109D01*
X180212757Y-81896846D01*
X180223980Y-81890647D01*
X180232154Y-81886189D01*
X180237871Y-81883147D01*
X180241721Y-81881195D01*
X180245690Y-81878777D01*
X180247874Y-81876162D01*
X180248116Y-81875415D01*
X180251313Y-81874082D01*
X180251351Y-81874080D01*
X180254912Y-81872827D01*
X180262503Y-81869494D01*
X180273299Y-81864465D01*
X180286477Y-81858122D01*
X180301216Y-81850850D01*
X180301870Y-81850524D01*
X180316461Y-81843301D01*
X180329359Y-81837021D01*
X180339767Y-81832063D01*
X180346887Y-81828808D01*
X180349922Y-81827637D01*
X180352126Y-81827048D01*
X180358215Y-81824698D01*
X180366328Y-81821168D01*
X180372949Y-81818199D01*
X180427853Y-81796810D01*
X180485032Y-81780196D01*
X180544637Y-81768323D01*
X180606819Y-81761162D01*
X180671730Y-81758681D01*
X180677337Y-81758689D01*
G37*
G36*
X180701706Y-82388626D02*
G01*
X180728972Y-82390920D01*
X180758459Y-82394725D01*
X180788648Y-82399842D01*
X180818021Y-82406072D01*
X180818203Y-82406115D01*
X180828526Y-82408493D01*
X180837296Y-82410409D01*
X180842631Y-82411452D01*
X180847061Y-82412267D01*
X180860686Y-82415570D01*
X180878229Y-82420598D01*
X180898929Y-82427071D01*
X180922025Y-82434711D01*
X180946755Y-82443239D01*
X180972355Y-82452376D01*
X180998066Y-82461845D01*
X181023125Y-82471365D01*
X181046769Y-82480659D01*
X181068238Y-82489447D01*
X181086769Y-82497451D01*
X181101601Y-82504392D01*
X181111971Y-82509991D01*
X181116097Y-82512362D01*
X181124468Y-82516837D01*
X181133846Y-82521594D01*
X181140815Y-82525103D01*
X181147246Y-82528525D01*
X181150253Y-82530375D01*
X181150355Y-82530469D01*
X181153830Y-82532661D01*
X181159823Y-82535840D01*
X181160296Y-82536077D01*
X181166217Y-82539399D01*
X181169454Y-82541823D01*
X181172327Y-82544332D01*
X181177871Y-82548393D01*
X181184303Y-82552774D01*
X181189865Y-82556280D01*
X181192800Y-82557715D01*
X181193500Y-82558031D01*
X181197753Y-82560761D01*
X181204845Y-82565686D01*
X181213707Y-82572071D01*
X181216633Y-82574200D01*
X181226790Y-82581427D01*
X181235937Y-82587714D01*
X181242386Y-82591895D01*
X181243534Y-82592591D01*
X181250249Y-82596707D01*
X181260147Y-82602812D01*
X181272089Y-82610202D01*
X181284933Y-82618173D01*
X181287979Y-82620063D01*
X181301179Y-82628205D01*
X181313549Y-82635762D01*
X181323820Y-82641962D01*
X181330724Y-82646034D01*
X181337354Y-82649711D01*
X181348895Y-82655800D01*
X181362503Y-82662733D01*
X181377310Y-82670095D01*
X181392450Y-82677467D01*
X181407055Y-82684433D01*
X181420260Y-82690577D01*
X181431196Y-82695481D01*
X181438996Y-82698729D01*
X181442795Y-82699905D01*
X181445011Y-82700278D01*
X181450392Y-82702381D01*
X181452192Y-82703294D01*
X181463844Y-82708533D01*
X181478416Y-82714312D01*
X181493944Y-82719884D01*
X181508462Y-82724500D01*
X181532674Y-82731312D01*
X181553512Y-82736564D01*
X181571460Y-82740269D01*
X181587642Y-82742624D01*
X181603183Y-82743828D01*
X181619205Y-82744081D01*
X181626312Y-82743985D01*
X181641373Y-82743607D01*
X181655472Y-82743041D01*
X181667482Y-82742347D01*
X181676277Y-82741585D01*
X181680730Y-82740815D01*
X181684120Y-82740588D01*
X181684422Y-82740627D01*
X181690679Y-82740425D01*
X181701396Y-82739116D01*
X181715786Y-82736862D01*
X181733059Y-82733827D01*
X181752428Y-82730174D01*
X181773105Y-82726066D01*
X181794302Y-82721667D01*
X181815230Y-82717140D01*
X181835100Y-82712649D01*
X181853126Y-82708356D01*
X181868519Y-82704425D01*
X181880490Y-82701019D01*
X181888251Y-82698301D01*
X181890533Y-82697420D01*
X181896749Y-82695678D01*
X181897308Y-82695565D01*
X181903530Y-82693779D01*
X181913547Y-82690447D01*
X181926243Y-82685975D01*
X181940503Y-82680769D01*
X181955211Y-82675236D01*
X181969254Y-82669781D01*
X181981516Y-82664810D01*
X181982661Y-82664330D01*
X181999035Y-82657124D01*
X182014659Y-82649659D01*
X182028672Y-82642400D01*
X182040210Y-82635815D01*
X182048412Y-82630367D01*
X182052414Y-82626524D01*
X182054021Y-82624127D01*
X182055836Y-82623059D01*
X182057350Y-82623643D01*
X182062784Y-82622349D01*
X182070785Y-82618561D01*
X182080272Y-82612890D01*
X182090168Y-82605951D01*
X182099392Y-82598353D01*
X182105477Y-82593006D01*
X182112160Y-82588328D01*
X182117310Y-82587418D01*
X182122295Y-82590192D01*
X182128482Y-82596567D01*
X182128506Y-82596594D01*
X182138307Y-82607583D01*
X182149108Y-82619638D01*
X182159752Y-82631471D01*
X182169078Y-82641794D01*
X182175929Y-82649318D01*
X182176338Y-82649765D01*
X182182172Y-82656199D01*
X182189917Y-82664822D01*
X182198016Y-82673896D01*
X182206843Y-82683717D01*
X182216861Y-82694682D01*
X182225503Y-82703975D01*
X182225558Y-82704032D01*
X182232053Y-82711349D01*
X182236699Y-82717394D01*
X182238492Y-82720864D01*
X182237416Y-82723640D01*
X182232226Y-82729571D01*
X182223312Y-82737387D01*
X182211309Y-82746655D01*
X182196853Y-82756940D01*
X182180580Y-82767810D01*
X182163126Y-82778830D01*
X182145126Y-82789567D01*
X182127216Y-82799587D01*
X182110033Y-82808457D01*
X182088863Y-82818707D01*
X182066877Y-82828899D01*
X182046909Y-82837519D01*
X182027473Y-82845175D01*
X182007083Y-82852477D01*
X181984250Y-82860036D01*
X181982547Y-82860586D01*
X181972120Y-82864066D01*
X181963452Y-82867137D01*
X181958273Y-82869187D01*
X181952386Y-82871456D01*
X181942350Y-82874406D01*
X181932296Y-82876612D01*
X181932044Y-82876659D01*
X181927367Y-82877782D01*
X181918708Y-82880024D01*
X181907209Y-82883083D01*
X181894014Y-82886661D01*
X181875889Y-82891465D01*
X181826295Y-82903079D01*
X181778035Y-82912182D01*
X181732684Y-82918461D01*
X181725575Y-82919257D01*
X181710786Y-82920986D01*
X181696905Y-82922693D01*
X181686199Y-82924104D01*
X181684088Y-82924368D01*
X181673521Y-82925263D01*
X181659501Y-82926014D01*
X181643605Y-82926549D01*
X181627409Y-82926795D01*
X181622286Y-82926805D01*
X181600766Y-82926439D01*
X181580518Y-82925280D01*
X181560631Y-82923167D01*
X181540190Y-82919938D01*
X181518283Y-82915431D01*
X181493996Y-82909485D01*
X181466417Y-82901937D01*
X181434632Y-82892625D01*
X181419594Y-82887600D01*
X181400663Y-82880447D01*
X181379136Y-82871709D01*
X181356138Y-82861878D01*
X181332794Y-82851447D01*
X181310229Y-82840907D01*
X181289567Y-82830750D01*
X181271934Y-82821468D01*
X181266088Y-82818264D01*
X181254312Y-82811874D01*
X181243223Y-82805922D01*
X181237205Y-82802674D01*
X181228274Y-82797671D01*
X181218667Y-82792037D01*
X181207740Y-82785370D01*
X181194847Y-82777269D01*
X181179344Y-82767331D01*
X181160585Y-82755156D01*
X181137927Y-82740341D01*
X181125417Y-82732154D01*
X181109859Y-82721996D01*
X181095242Y-82712477D01*
X181082774Y-82704386D01*
X181073668Y-82698509D01*
X181061266Y-82691097D01*
X181044175Y-82681801D01*
X181024201Y-82671603D01*
X181002487Y-82661058D01*
X180980176Y-82650719D01*
X180958411Y-82641142D01*
X180938336Y-82632880D01*
X180924389Y-82627412D01*
X180913111Y-82623082D01*
X180903869Y-82619707D01*
X180895098Y-82616738D01*
X180885233Y-82613625D01*
X180872710Y-82609818D01*
X180858191Y-82605444D01*
X180840174Y-82600046D01*
X180826339Y-82595954D01*
X180816058Y-82592987D01*
X180808702Y-82590965D01*
X180803641Y-82589706D01*
X180800248Y-82589032D01*
X180798871Y-82588810D01*
X180790244Y-82587261D01*
X180783890Y-82585609D01*
X180777005Y-82583143D01*
X180769038Y-82580679D01*
X180754169Y-82577568D01*
X180735804Y-82574854D01*
X180715083Y-82572618D01*
X180693144Y-82570943D01*
X180671126Y-82569912D01*
X180650169Y-82569607D01*
X180631412Y-82570110D01*
X180615992Y-82571503D01*
X180608913Y-82572458D01*
X180596337Y-82574042D01*
X180585596Y-82575274D01*
X180584300Y-82575411D01*
X180568686Y-82577279D01*
X180553944Y-82579394D01*
X180541219Y-82581562D01*
X180531651Y-82583590D01*
X180526384Y-82585285D01*
X180523099Y-82586591D01*
X180515952Y-82587794D01*
X180510520Y-82588874D01*
X180503587Y-82592131D01*
X180498277Y-82594665D01*
X180494298Y-82594818D01*
X180491298Y-82594838D01*
X180484624Y-82596689D01*
X180476064Y-82600051D01*
X180468657Y-82603202D01*
X180461649Y-82605898D01*
X180457979Y-82606935D01*
X180457545Y-82606998D01*
X180453062Y-82608544D01*
X180445340Y-82611740D01*
X180435760Y-82616021D01*
X180434621Y-82616546D01*
X180423851Y-82621429D01*
X180414036Y-82625761D01*
X180407175Y-82628657D01*
X180406151Y-82629083D01*
X180400566Y-82632099D01*
X180398288Y-82634610D01*
X180398006Y-82635544D01*
X180394724Y-82637013D01*
X180391127Y-82638218D01*
X180383546Y-82641574D01*
X180372838Y-82646650D01*
X180359854Y-82653011D01*
X180345443Y-82660226D01*
X180330455Y-82667860D01*
X180315740Y-82675482D01*
X180302148Y-82682659D01*
X180290529Y-82688957D01*
X180281732Y-82693943D01*
X180276607Y-82697185D01*
X180273958Y-82698768D01*
X180267265Y-82702442D01*
X180257753Y-82707510D01*
X180246528Y-82713378D01*
X180236910Y-82718439D01*
X180227096Y-82723786D01*
X180219954Y-82727889D01*
X180216586Y-82730132D01*
X180215051Y-82731443D01*
X180211206Y-82732457D01*
X180209613Y-82729217D01*
X180209006Y-82727302D01*
X180206149Y-82721080D01*
X180201355Y-82711576D01*
X180195069Y-82699667D01*
X180187738Y-82686233D01*
X180182460Y-82676681D01*
X180175857Y-82664652D01*
X180170598Y-82654972D01*
X180167120Y-82648451D01*
X180165863Y-82645899D01*
X180165618Y-82645312D01*
X180163378Y-82640913D01*
X180159175Y-82632960D01*
X180153470Y-82622320D01*
X180146722Y-82609858D01*
X180143766Y-82604396D01*
X180137383Y-82592390D01*
X180132249Y-82582439D01*
X180128829Y-82575453D01*
X180127587Y-82572344D01*
X180127590Y-82572304D01*
X180130005Y-82569984D01*
X180136082Y-82566223D01*
X180144543Y-82561817D01*
X180151656Y-82558239D01*
X180163581Y-82551955D01*
X180177066Y-82544623D01*
X180190338Y-82537195D01*
X180201587Y-82530829D01*
X180212440Y-82524760D01*
X180220991Y-82520054D01*
X180226020Y-82517390D01*
X180231379Y-82514585D01*
X180236958Y-82511333D01*
X180241160Y-82508968D01*
X180249629Y-82504583D01*
X180261333Y-82498703D01*
X180275384Y-82491758D01*
X180290895Y-82484179D01*
X180306976Y-82476394D01*
X180322741Y-82468834D01*
X180337303Y-82461927D01*
X180349772Y-82456104D01*
X180359262Y-82451793D01*
X180364885Y-82449425D01*
X180369331Y-82447739D01*
X180376495Y-82444816D01*
X180380514Y-82442883D01*
X180381948Y-82442167D01*
X180387855Y-82439707D01*
X180396921Y-82436188D01*
X180407859Y-82432115D01*
X180413672Y-82429981D01*
X180424458Y-82425962D01*
X180433035Y-82422690D01*
X180437937Y-82420720D01*
X180441628Y-82419355D01*
X180451393Y-82416509D01*
X180464762Y-82413133D01*
X180480620Y-82409466D01*
X180497853Y-82405744D01*
X180515346Y-82402205D01*
X180531987Y-82399087D01*
X180546660Y-82396628D01*
X180558252Y-82395064D01*
X180568496Y-82393971D01*
X180579221Y-82392834D01*
X180586963Y-82392020D01*
X180590343Y-82391709D01*
X180601603Y-82390926D01*
X180616266Y-82390126D01*
X180632881Y-82389373D01*
X180649999Y-82388730D01*
X180666166Y-82388257D01*
X180679933Y-82388019D01*
X180701706Y-82388626D01*
G37*
G36*
X182142846Y-84845055D02*
G01*
X182141479Y-84846422D01*
X182140112Y-84845055D01*
X182141479Y-84843688D01*
X182142846Y-84845055D01*
G37*
G36*
X182106136Y-84540509D02*
G01*
X182106943Y-84543534D01*
X182105614Y-84547651D01*
X182102729Y-84550351D01*
X182100913Y-84549993D01*
X182100997Y-84545792D01*
X182102386Y-84542451D01*
X182105084Y-84540167D01*
X182106136Y-84540509D01*
G37*
G36*
X182058803Y-81969822D02*
G01*
X182060397Y-81971591D01*
X182059135Y-81974888D01*
X182055856Y-81977393D01*
X182054194Y-81977351D01*
X182054268Y-81974146D01*
X182055440Y-81972006D01*
X182058600Y-81969815D01*
X182058803Y-81969822D01*
G37*
G36*
X181885811Y-84700131D02*
G01*
X181884444Y-84701498D01*
X181883077Y-84700131D01*
X181884444Y-84698764D01*
X181885811Y-84700131D01*
G37*
G36*
X181820185Y-84650911D02*
G01*
X181818818Y-84652279D01*
X181817451Y-84650911D01*
X181818818Y-84649544D01*
X181820185Y-84650911D01*
G37*
G36*
X181820185Y-84661849D02*
G01*
X181818818Y-84663216D01*
X181817451Y-84661849D01*
X181818818Y-84660482D01*
X181820185Y-84661849D01*
G37*
G36*
X181814716Y-84659115D02*
G01*
X181813349Y-84660482D01*
X181811982Y-84659115D01*
X181813349Y-84657747D01*
X181814716Y-84659115D01*
G37*
G36*
X181338746Y-80945664D02*
G01*
X181340548Y-80946950D01*
X181341295Y-80948787D01*
X181337443Y-80948087D01*
X181335449Y-80947060D01*
X181334526Y-80945165D01*
X181335167Y-80944823D01*
X181338746Y-80945664D01*
G37*
G36*
X180827592Y-84082153D02*
G01*
X180826224Y-84083520D01*
X180824857Y-84082153D01*
X180826224Y-84080785D01*
X180827592Y-84082153D01*
G37*
G36*
X180335397Y-83797773D02*
G01*
X180334029Y-83799140D01*
X180332662Y-83797773D01*
X180334029Y-83796406D01*
X180335397Y-83797773D01*
G37*
G36*
X179755700Y-81993058D02*
G01*
X179754333Y-81994425D01*
X179752966Y-81993058D01*
X179754333Y-81991691D01*
X179755700Y-81993058D01*
G37*
G36*
X212620300Y-89013284D02*
G01*
X212796006Y-89249697D01*
X212854013Y-89342253D01*
X212953658Y-89475252D01*
X213021650Y-89487595D01*
X213095558Y-89397864D01*
X213263746Y-89162412D01*
X213433578Y-88988834D01*
X213548411Y-88972160D01*
X213613475Y-89112508D01*
X213634001Y-89409996D01*
X213630328Y-89519340D01*
X213600107Y-89710386D01*
X213549334Y-89785999D01*
X213490422Y-89722199D01*
X213461623Y-89553166D01*
X213458578Y-89320333D01*
X213267942Y-89553166D01*
X213245637Y-89579783D01*
X213100148Y-89726258D01*
X212999001Y-89785999D01*
X212988802Y-89784476D01*
X212877314Y-89708476D01*
X212730059Y-89553166D01*
X212539424Y-89320333D01*
X212536379Y-89553166D01*
X212511090Y-89712879D01*
X212448667Y-89785999D01*
X212418169Y-89757431D01*
X212379230Y-89604153D01*
X212364001Y-89362666D01*
X212365382Y-89281436D01*
X212402484Y-89029808D01*
X212488292Y-88940206D01*
X212620300Y-89013284D01*
G37*
G36*
X211347978Y-88941685D02*
G01*
X211461163Y-89027871D01*
X211614593Y-89201589D01*
X211770700Y-89412757D01*
X211891914Y-89611294D01*
X211940667Y-89747117D01*
X211931117Y-89762674D01*
X211827000Y-89785999D01*
X211801614Y-89780242D01*
X211681611Y-89678423D01*
X211553746Y-89489666D01*
X211519430Y-89428248D01*
X211409446Y-89260625D01*
X211337110Y-89193333D01*
X211320129Y-89200703D01*
X211227591Y-89303788D01*
X211105219Y-89489666D01*
X211066313Y-89550881D01*
X210922746Y-89718643D01*
X210801306Y-89785999D01*
X210789874Y-89785477D01*
X210747446Y-89740807D01*
X210792649Y-89607636D01*
X210932712Y-89362666D01*
X211055628Y-89184033D01*
X211215543Y-89007303D01*
X211334713Y-88939333D01*
X211347978Y-88941685D01*
G37*
G36*
X210047954Y-88949536D02*
G01*
X210254205Y-88979809D01*
X210332001Y-89023999D01*
X210331919Y-89042984D01*
X210319205Y-89087969D01*
X210256842Y-89113989D01*
X210105039Y-89130758D01*
X209824001Y-89147988D01*
X209765713Y-89151365D01*
X209509257Y-89168665D01*
X209375356Y-89188746D01*
X209324205Y-89221795D01*
X209316001Y-89277999D01*
X209339893Y-89306534D01*
X209486525Y-89346839D01*
X209722401Y-89362666D01*
X210030891Y-89390515D01*
X210256600Y-89494763D01*
X210332001Y-89675933D01*
X210317438Y-89726954D01*
X210205001Y-89785999D01*
X210145774Y-89771248D01*
X210078001Y-89658999D01*
X210077907Y-89654102D01*
X210006286Y-89561367D01*
X209790726Y-89531999D01*
X209575823Y-89563090D01*
X209454716Y-89658999D01*
X209417857Y-89717546D01*
X209278982Y-89785999D01*
X209213532Y-89767780D01*
X209201130Y-89657921D01*
X209214140Y-89589632D01*
X209165890Y-89425088D01*
X209128470Y-89334567D01*
X209153690Y-89129833D01*
X209204286Y-89033536D01*
X209298774Y-88972415D01*
X209475907Y-88945407D01*
X209778939Y-88939333D01*
X210047954Y-88949536D01*
G37*
G36*
X207701271Y-88942961D02*
G01*
X207879619Y-89013626D01*
X208113993Y-89152891D01*
X208427001Y-89366450D01*
X208453791Y-89152891D01*
X208468504Y-89063769D01*
X208518882Y-88944116D01*
X208574732Y-88966185D01*
X208620009Y-89111771D01*
X208638667Y-89362666D01*
X208626176Y-89586227D01*
X208581866Y-89753082D01*
X208515771Y-89782687D01*
X208438716Y-89658999D01*
X208386698Y-89590471D01*
X208228358Y-89531999D01*
X208129980Y-89550254D01*
X207961334Y-89658999D01*
X207872064Y-89729122D01*
X207675801Y-89782954D01*
X207648812Y-89782280D01*
X207565744Y-89765141D01*
X207595959Y-89703570D01*
X207749667Y-89567829D01*
X208003667Y-89355749D01*
X207749667Y-89147961D01*
X207747124Y-89145876D01*
X207610549Y-89008755D01*
X207603422Y-88941227D01*
X207701271Y-88942961D01*
G37*
G36*
X206442270Y-88939540D02*
G01*
X206738196Y-88953696D01*
X206905460Y-88995666D01*
X206978609Y-89073257D01*
X207003164Y-89159960D01*
X207027579Y-89382673D01*
X207017505Y-89599176D01*
X206973556Y-89729555D01*
X206970011Y-89732675D01*
X206847943Y-89767107D01*
X206628707Y-89783902D01*
X206365533Y-89784392D01*
X206111649Y-89769906D01*
X205920284Y-89741776D01*
X205844667Y-89701333D01*
X205886178Y-89666488D01*
X206055319Y-89630584D01*
X206310334Y-89616666D01*
X206501976Y-89609119D01*
X206699449Y-89578366D01*
X206776001Y-89531999D01*
X206734491Y-89497155D01*
X206565349Y-89461251D01*
X206310334Y-89447333D01*
X206118692Y-89439785D01*
X205921219Y-89409032D01*
X205844667Y-89362666D01*
X205886178Y-89327822D01*
X206055319Y-89291918D01*
X206310334Y-89277999D01*
X206533946Y-89270137D01*
X206722846Y-89239527D01*
X206763160Y-89198196D01*
X206648839Y-89159569D01*
X206373834Y-89137072D01*
X206262915Y-89133938D01*
X206021306Y-89124397D01*
X205897118Y-89108461D01*
X205851266Y-89077779D01*
X205844667Y-89023999D01*
X205907908Y-88983553D01*
X206101948Y-88951475D01*
X206385942Y-88939333D01*
X206442270Y-88939540D01*
G37*
G36*
X204935952Y-88940397D02*
G01*
X205223372Y-88954600D01*
X205371125Y-88988196D01*
X205400287Y-89044807D01*
X205376448Y-89087339D01*
X205245065Y-89158911D01*
X205203018Y-89162190D01*
X205019167Y-89180437D01*
X205012348Y-89181769D01*
X204940935Y-89278890D01*
X204913334Y-89489666D01*
X204913105Y-89516655D01*
X204880266Y-89721740D01*
X204786334Y-89785999D01*
X204746950Y-89778696D01*
X204679573Y-89679033D01*
X204659334Y-89441273D01*
X204658902Y-89363616D01*
X204641986Y-89185550D01*
X204577369Y-89120231D01*
X204433888Y-89123773D01*
X204274107Y-89115470D01*
X204172833Y-89045166D01*
X204171289Y-89019901D01*
X204243210Y-88972681D01*
X204441097Y-88947055D01*
X204786334Y-88939333D01*
X204935952Y-88940397D01*
G37*
G36*
X208677465Y-87611695D02*
G01*
X208532897Y-88025369D01*
X208264703Y-88387273D01*
X207879211Y-88664166D01*
X207756846Y-88723599D01*
X207462302Y-88828921D01*
X207192527Y-88842076D01*
X206866482Y-88771667D01*
X206861750Y-88770299D01*
X206456343Y-88569135D01*
X206134108Y-88244876D01*
X205921424Y-87833663D01*
X205859417Y-87460422D01*
X206056346Y-87460422D01*
X206150599Y-87865626D01*
X206374926Y-88211156D01*
X206715301Y-88459275D01*
X206723481Y-88463129D01*
X207141606Y-88585778D01*
X207523531Y-88566209D01*
X207856879Y-88429415D01*
X208129270Y-88200387D01*
X208328325Y-87904118D01*
X208441666Y-87565600D01*
X208456915Y-87209825D01*
X208361691Y-86861786D01*
X208143617Y-86546473D01*
X207790313Y-86288880D01*
X207494465Y-86183595D01*
X207084359Y-86173324D01*
X206698000Y-86302712D01*
X206372366Y-86557503D01*
X206144435Y-86923440D01*
X206106197Y-87033286D01*
X206056346Y-87460422D01*
X205859417Y-87460422D01*
X205844667Y-87371638D01*
X205876304Y-87010575D01*
X205997900Y-86700710D01*
X206240112Y-86390421D01*
X206445532Y-86169843D01*
X204938600Y-86113443D01*
X204549561Y-86097821D01*
X204039803Y-86074268D01*
X203583826Y-86049838D01*
X203220118Y-86026636D01*
X202987167Y-86006766D01*
X202713089Y-85956712D01*
X202565110Y-85888519D01*
X202560591Y-85814528D01*
X202712001Y-85746531D01*
X202852062Y-85690067D01*
X202870913Y-85624298D01*
X202751719Y-85573215D01*
X202510917Y-85552666D01*
X202449658Y-85551889D01*
X202131168Y-85530565D01*
X201854751Y-85489166D01*
X201784683Y-85460722D01*
X201839304Y-85430304D01*
X202013685Y-85403872D01*
X202281275Y-85382907D01*
X202615519Y-85368890D01*
X202989864Y-85363302D01*
X203377756Y-85367622D01*
X203752642Y-85383333D01*
X203822065Y-85387644D01*
X204119085Y-85410004D01*
X204264651Y-85431771D01*
X204273887Y-85456854D01*
X204161917Y-85489166D01*
X204148950Y-85491977D01*
X203854727Y-85534934D01*
X203548084Y-85552666D01*
X203496090Y-85553700D01*
X203296534Y-85585163D01*
X203220001Y-85650588D01*
X203247542Y-85680452D01*
X203376991Y-85706125D01*
X203627112Y-85716466D01*
X204013937Y-85711988D01*
X204553501Y-85693203D01*
X204768843Y-85684509D01*
X205266658Y-85666085D01*
X205725731Y-85651233D01*
X206102589Y-85641295D01*
X206353757Y-85637615D01*
X206485407Y-85636206D01*
X206708374Y-85616071D01*
X206831608Y-85558607D01*
X206904091Y-85446833D01*
X206956763Y-85361959D01*
X207140169Y-85248520D01*
X207365314Y-85244882D01*
X207577229Y-85344673D01*
X207720941Y-85541521D01*
X207730552Y-85550227D01*
X207861925Y-85580864D01*
X208122156Y-85609740D01*
X208481458Y-85635988D01*
X208910044Y-85658738D01*
X209378127Y-85677125D01*
X209855921Y-85690279D01*
X210313638Y-85697333D01*
X210721491Y-85697419D01*
X211049694Y-85689669D01*
X211268460Y-85673216D01*
X211348001Y-85647191D01*
X211343411Y-85630896D01*
X211236650Y-85574689D01*
X211030501Y-85551734D01*
X211006017Y-85551493D01*
X210690594Y-85531105D01*
X210374334Y-85488234D01*
X210285565Y-85470745D01*
X210202147Y-85444587D01*
X210242554Y-85424075D01*
X210421909Y-85405045D01*
X210755334Y-85383333D01*
X211078103Y-85369209D01*
X211472226Y-85362379D01*
X211859476Y-85364779D01*
X212212777Y-85375193D01*
X212505055Y-85392406D01*
X212709234Y-85415201D01*
X212798241Y-85442364D01*
X212745001Y-85472678D01*
X212673396Y-85487159D01*
X212394029Y-85523364D01*
X212088834Y-85542649D01*
X211846084Y-85565643D01*
X211706146Y-85616459D01*
X211704332Y-85681237D01*
X211856001Y-85746531D01*
X211878076Y-85752580D01*
X212014427Y-85820321D01*
X211995260Y-85891631D01*
X211832607Y-85956690D01*
X211538501Y-86005677D01*
X211383357Y-86019292D01*
X211041226Y-86042306D01*
X210597679Y-86067097D01*
X210092956Y-86091471D01*
X209567298Y-86113231D01*
X208082928Y-86169234D01*
X208310826Y-86397132D01*
X208570407Y-86761996D01*
X208692078Y-87179490D01*
X208691052Y-87209825D01*
X208677465Y-87611695D01*
G37*
G36*
X215060756Y-87593091D02*
G01*
X215060243Y-87938051D01*
X215051981Y-88193689D01*
X215036682Y-88320058D01*
X214938903Y-88365199D01*
X214708525Y-88399245D01*
X214381963Y-88422126D01*
X213995621Y-88433805D01*
X213585902Y-88434242D01*
X213189209Y-88423399D01*
X212841948Y-88401238D01*
X212580520Y-88367720D01*
X212441331Y-88322806D01*
X212421004Y-88306677D01*
X212241110Y-88086642D01*
X212140999Y-87771652D01*
X212110001Y-87329719D01*
X212113735Y-87111385D01*
X212142750Y-86884362D01*
X212171243Y-86822666D01*
X212618001Y-86822666D01*
X212618001Y-87372999D01*
X212618001Y-87923333D01*
X213591667Y-87923333D01*
X214565334Y-87923333D01*
X214565334Y-87372999D01*
X214565334Y-86822666D01*
X213591667Y-86822666D01*
X212618001Y-86822666D01*
X212171243Y-86822666D01*
X212217988Y-86721447D01*
X212359838Y-86559803D01*
X212609675Y-86309966D01*
X213820338Y-86333482D01*
X215031001Y-86356999D01*
X215055191Y-87282891D01*
X215056808Y-87372999D01*
X215060756Y-87593091D01*
G37*
G36*
X210687671Y-86333482D02*
G01*
X211898334Y-86356999D01*
X211898334Y-86568666D01*
X211898334Y-86780333D01*
X210691834Y-86803824D01*
X209485334Y-86827315D01*
X209485334Y-87078990D01*
X209485334Y-87330666D01*
X210447583Y-87330666D01*
X210835188Y-87333465D01*
X211148847Y-87346493D01*
X211360773Y-87374922D01*
X211506913Y-87423884D01*
X211623215Y-87498513D01*
X211765367Y-87671093D01*
X211876126Y-87917830D01*
X211927456Y-88166130D01*
X211897444Y-88348106D01*
X211818219Y-88400670D01*
X211639337Y-88431333D01*
X211519997Y-88417754D01*
X211448745Y-88335659D01*
X211432667Y-88134999D01*
X211432667Y-87838666D01*
X210677573Y-87838666D01*
X209922478Y-87838666D01*
X209739334Y-88134999D01*
X209666399Y-88243469D01*
X209506461Y-88390900D01*
X209309095Y-88431333D01*
X209186874Y-88426510D01*
X209083310Y-88383787D01*
X209098840Y-88270749D01*
X209226625Y-88056295D01*
X209390133Y-87808257D01*
X209183734Y-87562966D01*
X209121116Y-87481450D01*
X208987955Y-87167392D01*
X209023440Y-86857099D01*
X209227171Y-86559803D01*
X209477009Y-86309966D01*
X210687671Y-86333482D01*
G37*
G36*
X202944834Y-86330209D02*
G01*
X202950370Y-86330848D01*
X203060721Y-86350782D01*
X203130405Y-86402267D01*
X203171876Y-86519687D01*
X203197590Y-86737424D01*
X203220001Y-87089863D01*
X203262334Y-87822727D01*
X204219259Y-87057123D01*
X204595910Y-86758452D01*
X204868307Y-86552207D01*
X205058885Y-86425885D01*
X205192017Y-86365434D01*
X205292074Y-86356803D01*
X205383426Y-86385943D01*
X205451856Y-86420141D01*
X205518189Y-86478666D01*
X205559101Y-86579825D01*
X205580728Y-86755293D01*
X205589205Y-87036743D01*
X205590667Y-87455851D01*
X205590667Y-88431333D01*
X205382178Y-88431333D01*
X205372460Y-88431317D01*
X205276751Y-88422347D01*
X205216579Y-88374507D01*
X205181950Y-88255197D01*
X205162869Y-88031816D01*
X205149345Y-87671761D01*
X205125001Y-86912189D01*
X204166568Y-87671761D01*
X204028727Y-87780244D01*
X203694480Y-88036748D01*
X203413316Y-88243362D01*
X203211401Y-88381190D01*
X203114901Y-88431333D01*
X203021820Y-88400070D01*
X202866834Y-88291210D01*
X202813325Y-88231211D01*
X202761648Y-88116254D01*
X202730801Y-87933047D01*
X202715885Y-87647932D01*
X202712001Y-87227253D01*
X202712001Y-86303418D01*
X202944834Y-86330209D01*
G37*
G36*
X207862083Y-86611719D02*
G01*
X208026617Y-86780333D01*
X208033874Y-86787770D01*
X208118199Y-86949666D01*
X208206397Y-87118999D01*
X208213602Y-87132832D01*
X208226594Y-87314773D01*
X208239673Y-87497921D01*
X208112670Y-87851771D01*
X207934422Y-88050333D01*
X207833176Y-88163117D01*
X207746244Y-88219666D01*
X207744782Y-88220617D01*
X207491751Y-88308580D01*
X207208163Y-88334792D01*
X206933489Y-88305769D01*
X206707202Y-88228032D01*
X206697546Y-88219666D01*
X207284001Y-88219666D01*
X207326334Y-88261999D01*
X207368667Y-88219666D01*
X207326334Y-88177333D01*
X207284001Y-88219666D01*
X206697546Y-88219666D01*
X206568774Y-88108097D01*
X206564655Y-88050333D01*
X207199334Y-88050333D01*
X207241667Y-88092666D01*
X207284001Y-88050333D01*
X207241667Y-88007999D01*
X207199334Y-88050333D01*
X206564655Y-88050333D01*
X206557677Y-87952484D01*
X206570467Y-87895421D01*
X206525279Y-87878973D01*
X206469851Y-87883771D01*
X206374534Y-87786747D01*
X206344029Y-87711666D01*
X206606667Y-87711666D01*
X206649001Y-87753999D01*
X206691334Y-87711666D01*
X206649001Y-87669333D01*
X206606667Y-87711666D01*
X206344029Y-87711666D01*
X206298840Y-87600446D01*
X206284418Y-87494718D01*
X206780640Y-87494718D01*
X206818647Y-87530497D01*
X206889789Y-87537024D01*
X206994336Y-87644671D01*
X207057135Y-87711666D01*
X207089725Y-87746434D01*
X207272328Y-87774201D01*
X207472652Y-87685765D01*
X207642714Y-87492394D01*
X207665348Y-87451916D01*
X207728700Y-87314773D01*
X207718056Y-87281706D01*
X207648313Y-87260853D01*
X207558345Y-87129839D01*
X207553182Y-87118999D01*
X207792001Y-87118999D01*
X207834334Y-87161333D01*
X207876667Y-87118999D01*
X207834334Y-87076666D01*
X207792001Y-87118999D01*
X207553182Y-87118999D01*
X207552551Y-87117675D01*
X207408504Y-86974778D01*
X207215366Y-86962038D01*
X207016260Y-87069753D01*
X206854311Y-87288222D01*
X206833855Y-87332547D01*
X206780640Y-87494718D01*
X206284418Y-87494718D01*
X206268001Y-87374361D01*
X206269170Y-87327702D01*
X206359766Y-86976243D01*
X206379490Y-86949666D01*
X207876667Y-86949666D01*
X207919001Y-86991999D01*
X207961334Y-86949666D01*
X207919001Y-86907333D01*
X207876667Y-86949666D01*
X206379490Y-86949666D01*
X206505160Y-86780333D01*
X207284001Y-86780333D01*
X207326334Y-86822666D01*
X207368667Y-86780333D01*
X207326334Y-86737999D01*
X207284001Y-86780333D01*
X206505160Y-86780333D01*
X206568961Y-86694364D01*
X206693599Y-86610999D01*
X207199334Y-86610999D01*
X207241667Y-86653333D01*
X207284001Y-86610999D01*
X207241667Y-86568666D01*
X207199334Y-86610999D01*
X206693599Y-86610999D01*
X206860272Y-86499518D01*
X207197218Y-86409159D01*
X207543316Y-86440742D01*
X207860741Y-86610999D01*
X207862083Y-86611719D01*
G37*
%TD*%
M02*
