M48
; DRILL file {KiCad 9.0.1} date 2025-04-09T16:16:00+0300
; FORMAT={-:-/ absolute / metric / decimal}
; #@! TF.CreationDate,2025-04-09T16:16:00+03:00
; #@! TF.GenerationSoftware,Kicad,Pcbnew,9.0.1
; #@! TF.FileFunction,Plated,1,4,PTH
FMAT,2
METRIC
; #@! TA.AperFunction,Plated,PTH,ComponentDrill
T1C0.300
; #@! TA.AperFunction,Plated,PTH,ViaDrill
T2C0.400
; #@! TA.AperFunction,Plated,PTH,ComponentDrill
T3C0.800
; #@! TA.AperFunction,Plated,PTH,ComponentDrill
T4C1.800
; #@! TA.AperFunction,Plated,PTH,ComponentDrill
T5C4.500
%
G90
G05
T1
X158.2Y-64.2
X158.2Y-65.4
X159.3Y-64.2
X159.3Y-65.4
X160.6Y-64.2
X160.6Y-65.4
X161.8Y-64.2
X161.8Y-65.4
X166.0Y-96.2
X166.0Y-97.5
X167.3Y-96.2
X167.3Y-97.5
X168.6Y-96.2
X168.6Y-97.5
X169.9Y-96.2
X169.9Y-97.5
X215.1Y-62.2
X215.1Y-63.5
X215.1Y-64.8
X215.1Y-66.1
X216.4Y-62.2
X216.4Y-63.5
X216.4Y-64.8
X216.4Y-66.1
X222.5Y-103.9
X222.5Y-105.1
X223.7Y-103.9
X223.7Y-105.1
X225.0Y-103.9
X225.0Y-105.1
X226.1Y-103.9
X226.1Y-105.1
T2
X157.15Y-101.95
X157.5Y-69.3
X159.0Y-116.0
X159.0Y-118.0
X159.9Y-59.8
X160.6Y-76.5
X161.0Y-114.0
X161.0Y-116.0
X161.0Y-118.0
X161.0Y-120.0
X162.5Y-70.5
X162.5Y-71.5
X162.5Y-72.5
X162.5Y-73.5
X163.0Y-112.0
X163.0Y-114.0
X163.0Y-116.0
X163.0Y-118.0
X163.0Y-120.0
X165.0Y-42.0
X165.0Y-44.0
X165.0Y-46.0
X165.0Y-48.0
X165.0Y-50.0
X165.0Y-52.0
X165.0Y-112.0
X165.0Y-114.0
X165.0Y-116.0
X165.0Y-118.0
X165.0Y-120.0
X167.0Y-42.0
X167.0Y-44.0
X167.0Y-46.0
X167.0Y-48.0
X167.0Y-50.0
X167.0Y-52.0
X167.0Y-110.0
X167.0Y-112.0
X167.0Y-114.0
X167.0Y-116.0
X167.0Y-118.0
X169.0Y-42.0
X169.0Y-44.0
X169.0Y-46.0
X169.0Y-48.0
X169.0Y-50.0
X169.0Y-52.0
X169.0Y-108.0
X169.0Y-110.0
X169.0Y-112.0
X169.0Y-114.0
X169.0Y-116.0
X169.2Y-102.95
X169.2Y-103.95
X171.0Y-42.0
X171.0Y-44.0
X171.0Y-46.0
X171.0Y-48.0
X171.0Y-50.0
X171.0Y-52.0
X171.0Y-56.0
X171.0Y-58.0
X171.0Y-60.0
X171.0Y-62.0
X171.0Y-64.0
X171.0Y-66.0
X171.0Y-108.0
X171.0Y-110.0
X171.0Y-112.0
X171.0Y-114.0
X171.0Y-116.0
X171.7Y-87.3
X173.0Y-42.0
X173.0Y-44.0
X173.0Y-46.0
X173.0Y-48.0
X173.0Y-50.0
X173.0Y-52.0
X173.0Y-56.0
X173.0Y-58.0
X173.0Y-60.0
X173.0Y-62.0
X173.0Y-64.0
X173.0Y-66.0
X173.0Y-108.0
X173.0Y-110.0
X173.0Y-112.0
X173.0Y-114.0
X175.0Y-42.0
X175.0Y-44.0
X175.0Y-46.0
X175.0Y-48.0
X175.0Y-50.0
X175.0Y-52.0
X175.0Y-56.0
X175.0Y-58.0
X175.0Y-60.0
X175.0Y-62.0
X175.0Y-64.0
X175.0Y-66.0
X175.0Y-86.0
X175.0Y-88.0
X175.0Y-90.0
X175.0Y-92.0
X175.0Y-94.0
X175.0Y-96.0
X175.0Y-98.0
X175.0Y-108.0
X175.0Y-110.0
X175.0Y-112.0
X175.0Y-114.0
X177.0Y-42.0
X177.0Y-44.0
X177.0Y-46.0
X177.0Y-48.0
X177.0Y-50.0
X177.0Y-52.0
X177.0Y-56.0
X177.0Y-58.0
X177.0Y-60.0
X177.0Y-62.0
X177.0Y-64.0
X177.0Y-66.0
X177.0Y-86.0
X177.0Y-88.0
X177.0Y-90.0
X177.0Y-92.0
X177.0Y-94.0
X177.0Y-96.0
X177.0Y-98.0
X177.0Y-108.0
X177.0Y-110.0
X177.0Y-112.0
X177.0Y-114.0
X179.0Y-42.0
X179.0Y-44.0
X179.0Y-46.0
X179.0Y-48.0
X179.0Y-50.0
X179.0Y-52.0
X179.0Y-56.0
X179.0Y-58.0
X179.0Y-60.0
X179.0Y-62.0
X179.0Y-64.0
X179.0Y-66.0
X179.0Y-86.0
X179.0Y-88.0
X179.0Y-90.0
X179.0Y-92.0
X179.0Y-94.0
X179.0Y-96.0
X179.0Y-98.0
X179.0Y-108.0
X179.0Y-110.0
X179.0Y-112.0
X179.0Y-114.0
X181.0Y-42.0
X181.0Y-44.0
X181.0Y-46.0
X181.0Y-48.0
X181.0Y-50.0
X181.0Y-52.0
X181.0Y-56.0
X181.0Y-58.0
X181.0Y-60.0
X181.0Y-62.0
X181.0Y-64.0
X181.0Y-66.0
X181.0Y-68.0
X181.0Y-70.0
X181.0Y-72.0
X181.0Y-74.0
X181.0Y-86.0
X181.0Y-88.0
X181.0Y-90.0
X181.0Y-92.0
X181.0Y-94.0
X181.0Y-96.0
X181.0Y-98.0
X181.0Y-108.0
X181.0Y-110.0
X181.0Y-112.0
X181.0Y-114.0
X183.0Y-42.0
X183.0Y-44.0
X183.0Y-46.0
X183.0Y-48.0
X183.0Y-50.0
X183.0Y-52.0
X183.0Y-56.0
X183.0Y-58.0
X183.0Y-60.0
X183.0Y-62.0
X183.0Y-64.0
X183.0Y-66.0
X183.0Y-68.0
X183.0Y-70.0
X183.0Y-72.0
X183.0Y-74.0
X183.0Y-86.0
X183.0Y-88.0
X183.0Y-90.0
X183.0Y-92.0
X183.0Y-94.0
X183.0Y-96.0
X183.0Y-98.0
X183.0Y-106.0
X183.0Y-108.0
X183.0Y-110.0
X183.0Y-112.0
X183.0Y-114.0
X183.5Y-118.8
X183.5Y-119.8
X183.5Y-120.8
X184.5Y-118.8
X184.5Y-119.8
X184.5Y-120.8
X184.5Y-121.8
X184.7Y-124.1
X184.7Y-125.1
X184.7Y-126.1
X184.7Y-127.1
X184.7Y-128.1
X184.7Y-129.1
X184.7Y-130.1
X184.7Y-131.1
X185.0Y-42.0
X185.0Y-44.0
X185.0Y-46.0
X185.0Y-48.0
X185.0Y-50.0
X185.0Y-52.0
X185.0Y-106.0
X185.0Y-108.0
X185.0Y-110.0
X185.0Y-112.0
X185.0Y-114.0
X185.5Y-118.8
X185.5Y-119.8
X185.5Y-120.8
X185.5Y-121.8
X185.7Y-124.1
X185.7Y-125.1
X185.7Y-126.1
X185.7Y-127.1
X185.7Y-128.1
X185.7Y-129.1
X185.7Y-130.1
X185.7Y-131.1
X186.5Y-119.8
X186.5Y-120.8
X186.5Y-121.8
X186.7Y-124.1
X186.7Y-125.1
X186.7Y-126.1
X186.7Y-127.1
X186.7Y-128.1
X186.7Y-129.1
X186.7Y-130.1
X186.7Y-131.1
X187.0Y-42.0
X187.0Y-44.0
X187.0Y-46.0
X187.0Y-48.0
X187.0Y-50.0
X187.0Y-52.0
X187.0Y-54.0
X187.0Y-56.0
X187.0Y-58.0
X187.0Y-60.0
X187.0Y-62.0
X187.0Y-64.0
X187.0Y-66.0
X187.0Y-68.0
X187.0Y-70.0
X187.0Y-72.0
X187.0Y-74.0
X187.0Y-76.0
X187.0Y-78.0
X187.0Y-80.0
X187.0Y-82.0
X187.0Y-84.0
X187.0Y-86.0
X187.0Y-88.0
X187.0Y-90.0
X187.0Y-92.0
X187.0Y-94.0
X187.0Y-96.0
X187.0Y-98.0
X187.0Y-100.0
X187.0Y-102.0
X187.0Y-104.0
X187.0Y-106.0
X187.0Y-108.0
X187.0Y-110.0
X187.5Y-119.8
X187.5Y-120.8
X187.5Y-121.8
X187.7Y-124.1
X187.7Y-125.1
X187.7Y-126.1
X187.7Y-127.1
X187.7Y-128.1
X187.7Y-129.1
X187.7Y-130.1
X187.7Y-131.1
X188.5Y-119.8
X188.5Y-120.8
X188.5Y-121.8
X188.7Y-124.1
X188.7Y-125.1
X188.7Y-126.1
X188.7Y-127.1
X188.7Y-128.1
X188.7Y-129.1
X188.7Y-130.1
X188.7Y-131.1
X189.0Y-42.0
X189.0Y-44.0
X189.0Y-46.0
X189.0Y-48.0
X189.0Y-50.0
X189.0Y-52.0
X189.0Y-54.0
X189.0Y-56.0
X189.0Y-58.0
X189.0Y-60.0
X189.0Y-62.0
X189.0Y-64.0
X189.0Y-66.0
X189.0Y-68.0
X189.0Y-70.0
X189.0Y-72.0
X189.0Y-74.0
X189.0Y-76.0
X189.0Y-78.0
X189.0Y-80.0
X189.0Y-82.0
X189.0Y-84.0
X189.0Y-86.0
X189.0Y-88.0
X189.0Y-90.0
X189.0Y-92.0
X189.0Y-94.0
X189.0Y-96.0
X189.0Y-98.0
X189.0Y-100.0
X189.0Y-102.0
X189.0Y-104.0
X189.0Y-106.0
X189.0Y-108.0
X189.0Y-110.0
X189.5Y-121.8
X189.7Y-124.1
X189.7Y-125.1
X189.7Y-126.1
X189.7Y-127.1
X189.7Y-128.1
X189.7Y-129.1
X189.7Y-130.1
X189.7Y-131.1
X191.0Y-42.0
X191.0Y-44.0
X191.0Y-46.0
X191.0Y-48.0
X191.0Y-50.0
X191.0Y-52.0
X191.0Y-54.0
X191.0Y-56.0
X191.0Y-58.0
X191.0Y-60.0
X191.0Y-62.0
X191.0Y-64.0
X191.0Y-66.0
X191.0Y-68.0
X191.0Y-70.0
X191.0Y-72.0
X191.0Y-74.0
X191.0Y-76.0
X191.0Y-78.0
X191.0Y-80.0
X191.0Y-82.0
X191.0Y-84.0
X191.0Y-86.0
X191.0Y-88.0
X191.0Y-90.0
X191.0Y-92.0
X191.0Y-94.0
X191.0Y-96.0
X191.0Y-98.0
X191.0Y-100.0
X191.0Y-102.0
X191.0Y-104.0
X191.0Y-106.0
X191.0Y-108.0
X191.0Y-110.0
X193.0Y-42.0
X193.0Y-44.0
X193.0Y-46.0
X193.0Y-48.0
X193.0Y-50.0
X193.0Y-52.0
X193.0Y-54.0
X193.0Y-56.0
X193.0Y-58.0
X193.0Y-60.0
X193.0Y-62.0
X193.0Y-64.0
X193.0Y-66.0
X193.0Y-68.0
X193.0Y-70.0
X193.0Y-72.0
X193.0Y-74.0
X193.0Y-76.0
X193.0Y-78.0
X193.0Y-80.0
X193.0Y-82.0
X193.0Y-84.0
X193.0Y-86.0
X193.0Y-88.0
X193.0Y-90.0
X193.0Y-92.0
X193.0Y-94.0
X193.0Y-96.0
X193.0Y-98.0
X193.0Y-100.0
X193.0Y-102.0
X193.0Y-104.0
X193.0Y-106.0
X193.0Y-108.0
X193.0Y-110.0
X195.0Y-42.0
X195.0Y-44.0
X195.0Y-46.0
X195.0Y-48.0
X195.0Y-50.0
X195.0Y-52.0
X195.0Y-54.0
X195.0Y-56.0
X195.0Y-58.0
X195.0Y-60.0
X195.0Y-62.0
X195.0Y-64.0
X195.0Y-66.0
X195.0Y-68.0
X195.0Y-70.0
X195.0Y-72.0
X195.0Y-74.0
X195.0Y-76.0
X195.0Y-78.0
X195.0Y-80.0
X195.0Y-82.0
X195.0Y-84.0
X195.0Y-86.0
X195.0Y-88.0
X195.0Y-90.0
X195.0Y-92.0
X195.0Y-94.0
X195.0Y-96.0
X195.0Y-98.0
X195.0Y-100.0
X195.0Y-102.0
X195.0Y-104.0
X195.0Y-106.0
X195.0Y-108.0
X195.0Y-110.0
X196.4Y-124.0
X196.4Y-125.0
X196.4Y-126.0
X196.4Y-127.0
X196.4Y-128.0
X196.4Y-129.0
X196.4Y-130.0
X196.4Y-131.0
X197.0Y-42.0
X197.0Y-44.0
X197.0Y-46.0
X197.0Y-48.0
X197.0Y-50.0
X197.0Y-52.0
X197.0Y-54.0
X197.0Y-56.0
X197.0Y-58.0
X197.0Y-60.0
X197.0Y-62.0
X197.0Y-64.0
X197.0Y-66.0
X197.0Y-68.0
X197.0Y-70.0
X197.0Y-72.0
X197.0Y-74.0
X197.0Y-76.0
X197.0Y-78.0
X197.0Y-80.0
X197.0Y-82.0
X197.0Y-84.0
X197.0Y-86.0
X197.0Y-88.0
X197.0Y-90.0
X197.0Y-92.0
X197.0Y-94.0
X197.0Y-96.0
X197.0Y-98.0
X197.0Y-100.0
X197.0Y-102.0
X197.0Y-104.0
X197.0Y-106.0
X197.0Y-108.0
X197.0Y-110.0
X197.0Y-112.0
X197.4Y-124.0
X197.4Y-125.0
X197.4Y-126.0
X197.4Y-127.0
X197.4Y-128.0
X197.4Y-129.0
X197.4Y-130.0
X197.4Y-131.0
X198.4Y-124.0
X198.4Y-125.0
X198.4Y-126.0
X198.4Y-127.0
X198.4Y-128.0
X198.4Y-129.0
X198.4Y-130.0
X198.4Y-131.0
X199.0Y-42.0
X199.0Y-44.0
X199.0Y-46.0
X199.0Y-48.0
X199.0Y-50.0
X199.0Y-52.0
X199.0Y-54.0
X199.0Y-56.0
X199.0Y-58.0
X199.0Y-60.0
X199.0Y-62.0
X199.0Y-64.0
X199.0Y-66.0
X199.0Y-68.0
X199.0Y-70.0
X199.0Y-72.0
X199.0Y-74.0
X199.0Y-76.0
X199.0Y-78.0
X199.0Y-80.0
X199.0Y-82.0
X199.0Y-84.0
X199.0Y-86.0
X199.0Y-88.0
X199.0Y-90.0
X199.0Y-92.0
X199.0Y-94.0
X199.0Y-96.0
X199.0Y-98.0
X199.0Y-100.0
X199.0Y-102.0
X199.0Y-104.0
X199.0Y-106.0
X199.0Y-108.0
X199.0Y-110.0
X199.0Y-112.0
X199.4Y-124.0
X199.4Y-125.0
X199.4Y-126.0
X199.4Y-127.0
X199.4Y-128.0
X199.4Y-129.0
X199.4Y-130.0
X199.4Y-131.0
X200.4Y-124.0
X200.4Y-125.0
X200.4Y-126.0
X200.4Y-127.0
X200.4Y-128.0
X200.4Y-129.0
X200.4Y-130.0
X200.4Y-131.0
X201.0Y-42.0
X201.0Y-44.0
X201.0Y-46.0
X201.0Y-48.0
X201.0Y-50.0
X201.0Y-52.0
X201.0Y-106.0
X201.0Y-108.0
X201.0Y-110.0
X201.0Y-112.0
X201.4Y-124.0
X201.4Y-125.0
X201.4Y-126.0
X201.4Y-127.0
X201.4Y-128.0
X201.4Y-129.0
X201.4Y-130.0
X201.4Y-131.0
X203.0Y-42.0
X203.0Y-44.0
X203.0Y-46.0
X203.0Y-48.0
X203.0Y-50.0
X203.0Y-52.0
X203.0Y-76.0
X203.0Y-78.0
X203.0Y-80.0
X203.0Y-82.0
X203.0Y-84.0
X203.0Y-92.0
X203.0Y-94.0
X203.0Y-96.0
X203.0Y-106.0
X203.0Y-108.0
X203.0Y-110.0
X203.0Y-112.0
X203.0Y-114.0
X205.0Y-42.0
X205.0Y-44.0
X205.0Y-46.0
X205.0Y-48.0
X205.0Y-50.0
X205.0Y-52.0
X205.0Y-55.0
X205.0Y-57.0
X205.0Y-59.0
X205.0Y-61.0
X205.0Y-76.0
X205.0Y-78.0
X205.0Y-80.0
X205.0Y-82.0
X205.0Y-84.0
X205.0Y-92.0
X205.0Y-94.0
X205.0Y-96.0
X205.0Y-108.0
X205.0Y-110.0
X205.0Y-112.0
X205.0Y-114.0
X207.0Y-42.0
X207.0Y-44.0
X207.0Y-46.0
X207.0Y-48.0
X207.0Y-50.0
X207.0Y-52.0
X207.0Y-55.0
X207.0Y-57.0
X207.0Y-59.0
X207.0Y-78.0
X207.0Y-80.0
X207.0Y-82.0
X207.0Y-84.0
X207.0Y-92.0
X207.0Y-94.0
X207.0Y-96.0
X207.0Y-108.0
X207.0Y-110.0
X207.0Y-112.0
X207.0Y-114.0
X209.0Y-42.0
X209.0Y-44.0
X209.0Y-46.0
X209.0Y-48.0
X209.0Y-50.0
X209.0Y-52.0
X209.0Y-55.0
X209.0Y-57.0
X209.0Y-59.0
X209.0Y-78.0
X209.0Y-80.0
X209.0Y-82.0
X209.0Y-84.0
X209.0Y-92.0
X209.0Y-94.0
X209.0Y-96.0
X209.0Y-108.0
X209.0Y-110.0
X209.0Y-112.0
X209.0Y-114.0
X209.2Y-61.9
X211.0Y-42.0
X211.0Y-44.0
X211.0Y-46.0
X211.0Y-48.0
X211.0Y-50.0
X211.0Y-52.0
X211.0Y-55.0
X211.0Y-57.0
X211.0Y-59.0
X211.0Y-78.0
X211.0Y-80.0
X211.0Y-82.0
X211.0Y-84.0
X211.0Y-92.0
X211.0Y-94.0
X211.0Y-96.0
X211.0Y-108.0
X211.0Y-110.0
X211.0Y-112.0
X211.0Y-114.0
X213.0Y-42.0
X213.0Y-44.0
X213.0Y-46.0
X213.0Y-48.0
X213.0Y-50.0
X213.0Y-52.0
X213.0Y-80.0
X213.0Y-82.0
X213.0Y-84.0
X213.0Y-92.0
X213.0Y-94.0
X213.0Y-96.0
X213.0Y-110.0
X213.0Y-112.0
X213.0Y-114.0
X215.0Y-42.0
X215.0Y-44.0
X215.0Y-46.0
X215.0Y-48.0
X215.0Y-50.0
X215.0Y-52.0
X215.0Y-80.0
X215.0Y-82.0
X215.0Y-84.0
X215.0Y-110.0
X215.0Y-112.0
X215.0Y-114.0
X215.0Y-116.0
X217.0Y-42.0
X217.0Y-44.0
X217.0Y-46.0
X217.0Y-48.0
X217.0Y-50.0
X217.0Y-52.0
X217.0Y-80.0
X217.0Y-82.0
X217.0Y-84.0
X217.0Y-112.0
X217.0Y-114.0
X217.0Y-116.0
X217.0Y-118.0
X219.0Y-42.0
X219.0Y-44.0
X219.0Y-46.0
X219.0Y-48.0
X219.0Y-50.0
X219.0Y-52.0
X219.0Y-80.0
X219.0Y-82.0
X219.0Y-84.0
X219.0Y-114.0
X219.0Y-116.0
X219.0Y-118.0
X221.0Y-71.6
X221.0Y-80.0
X221.0Y-82.0
X221.0Y-84.0
X221.0Y-114.0
X221.0Y-116.0
X221.0Y-118.0
X221.0Y-120.0
X221.85Y-94.9
X221.85Y-96.2
X222.8Y-61.25
X222.8Y-62.25
X222.8Y-63.25
X222.85Y-94.9
X223.0Y-116.0
X223.0Y-118.0
X223.0Y-120.0
X223.8Y-61.25
X223.8Y-62.25
X223.8Y-63.25
X223.85Y-94.9
X225.0Y-118.0
X228.1Y-97.8
X230.5Y-103.2
X232.4Y-93.1
T3
X222.06Y-111.3
X224.6Y-111.3
X227.14Y-111.3
T4
X148.0Y-71.0
X148.0Y-76.0
X148.0Y-96.0
X148.0Y-101.0
X236.0Y-71.0
X236.0Y-76.0
X236.5Y-96.1
X236.5Y-101.1
T5
X154.4Y-52.235
X156.4Y-122.0
X158.0Y-46.0
X160.0Y-128.235
X224.4Y-128.235
X224.962Y-46.0
X228.0Y-122.0
X228.562Y-52.235
M30
