%TF.GenerationSoftware,KiCad,Pcbnew,9.0.1*%
%TF.CreationDate,2025-04-09T16:15:18+03:00*%
%TF.ProjectId,G__ Da__t_m Kart_,47fce720-4461-41f3-9174-316d204b6172,rev?*%
%TF.SameCoordinates,Original*%
%TF.FileFunction,Paste,Bot*%
%TF.FilePolarity,Positive*%
%FSLAX46Y46*%
G04 Gerber Fmt 4.6, Leading zero omitted, Abs format (unit mm)*
G04 Created by KiCad (PCBNEW 9.0.1) date 2025-04-09 16:15:18*
%MOMM*%
%LPD*%
G01*
G04 APERTURE LIST*
%ADD10C,0.100000*%
G04 APERTURE END LIST*
D10*
X226650000Y-40650000D02*
X229150000Y-45000000D01*
X228950000Y-47600000D01*
X220250000Y-52500000D01*
X205000000Y-52500000D01*
X201300000Y-56800000D01*
X201300000Y-101900000D01*
X205700000Y-105700000D01*
X210050000Y-105750000D01*
X232500000Y-120250000D01*
X232700000Y-122600000D01*
X231200000Y-125300000D01*
X228650000Y-126400000D01*
X211150000Y-115400000D01*
X173600000Y-115400000D01*
X156100000Y-126350000D01*
X153550000Y-125300000D01*
X151350000Y-121400000D01*
X151650000Y-118400000D01*
X171250000Y-105700000D01*
X180950000Y-105700000D01*
X184750000Y-101250000D01*
X184750000Y-56250000D01*
X180400000Y-52500000D01*
X163550000Y-52500000D01*
X153950000Y-47200000D01*
X153750000Y-45400000D01*
X156650000Y-40400000D01*
X226650000Y-40650000D01*
G36*
X226650000Y-40650000D02*
G01*
X229150000Y-45000000D01*
X228950000Y-47600000D01*
X220250000Y-52500000D01*
X205000000Y-52500000D01*
X201300000Y-56800000D01*
X201300000Y-101900000D01*
X205700000Y-105700000D01*
X210050000Y-105750000D01*
X232500000Y-120250000D01*
X232700000Y-122600000D01*
X231200000Y-125300000D01*
X228650000Y-126400000D01*
X211150000Y-115400000D01*
X173600000Y-115400000D01*
X156100000Y-126350000D01*
X153550000Y-125300000D01*
X151350000Y-121400000D01*
X151650000Y-118400000D01*
X171250000Y-105700000D01*
X180950000Y-105700000D01*
X184750000Y-101250000D01*
X184750000Y-56250000D01*
X180400000Y-52500000D01*
X163550000Y-52500000D01*
X153950000Y-47200000D01*
X153750000Y-45400000D01*
X156650000Y-40400000D01*
X226650000Y-40650000D01*
G37*
M02*
