%TF.GenerationSoftware,KiCad,Pcbnew,9.0.1*%
%TF.CreationDate,2025-04-09T16:15:18+03:00*%
%TF.ProjectId,G__ Da__t_m Kart_,47fce720-4461-41f3-9174-316d204b6172,rev?*%
%TF.SameCoordinates,Original*%
%TF.FileFunction,Copper,L1,Top*%
%TF.FilePolarity,Positive*%
%FSLAX46Y46*%
G04 Gerber Fmt 4.6, Leading zero omitted, Abs format (unit mm)*
G04 Created by KiCad (PCBNEW 9.0.1) date 2025-04-09 16:15:18*
%MOMM*%
%LPD*%
G01*
G04 APERTURE LIST*
G04 Aperture macros list*
%AMRoundRect*
0 Rectangle with rounded corners*
0 $1 Rounding radius*
0 $2 $3 $4 $5 $6 $7 $8 $9 X,Y pos of 4 corners*
0 Add a 4 corners polygon primitive as box body*
4,1,4,$2,$3,$4,$5,$6,$7,$8,$9,$2,$3,0*
0 Add four circle primitives for the rounded corners*
1,1,$1+$1,$2,$3*
1,1,$1+$1,$4,$5*
1,1,$1+$1,$6,$7*
1,1,$1+$1,$8,$9*
0 Add four rect primitives between the rounded corners*
20,1,$1+$1,$2,$3,$4,$5,0*
20,1,$1+$1,$4,$5,$6,$7,0*
20,1,$1+$1,$6,$7,$8,$9,0*
20,1,$1+$1,$8,$9,$2,$3,0*%
G04 Aperture macros list end*
%TA.AperFunction,SMDPad,CuDef*%
%ADD10RoundRect,0.800000X3.200000X4.200000X-3.200000X4.200000X-3.200000X-4.200000X3.200000X-4.200000X0*%
%TD*%
%TA.AperFunction,ComponentPad*%
%ADD11C,6.000000*%
%TD*%
%TA.AperFunction,ComponentPad*%
%ADD12RoundRect,1.500000X0.549038X-2.049038X2.049038X0.549038X-0.549038X2.049038X-2.049038X-0.549038X0*%
%TD*%
%TA.AperFunction,SMDPad,CuDef*%
%ADD13RoundRect,0.237500X-0.237500X0.250000X-0.237500X-0.250000X0.237500X-0.250000X0.237500X0.250000X0*%
%TD*%
%TA.AperFunction,SMDPad,CuDef*%
%ADD14RoundRect,0.250000X0.650000X-1.000000X0.650000X1.000000X-0.650000X1.000000X-0.650000X-1.000000X0*%
%TD*%
%TA.AperFunction,SMDPad,CuDef*%
%ADD15R,2.200000X1.500000*%
%TD*%
%TA.AperFunction,SMDPad,CuDef*%
%ADD16RoundRect,0.250001X1.044999X-0.872499X1.044999X0.872499X-1.044999X0.872499X-1.044999X-0.872499X0*%
%TD*%
%TA.AperFunction,SMDPad,CuDef*%
%ADD17RoundRect,0.237500X0.237500X-0.300000X0.237500X0.300000X-0.237500X0.300000X-0.237500X-0.300000X0*%
%TD*%
%TA.AperFunction,SMDPad,CuDef*%
%ADD18RoundRect,0.237500X-0.300000X-0.237500X0.300000X-0.237500X0.300000X0.237500X-0.300000X0.237500X0*%
%TD*%
%TA.AperFunction,SMDPad,CuDef*%
%ADD19RoundRect,0.250000X-0.650000X1.000000X-0.650000X-1.000000X0.650000X-1.000000X0.650000X1.000000X0*%
%TD*%
%TA.AperFunction,ComponentPad*%
%ADD20C,1.440000*%
%TD*%
%TA.AperFunction,ComponentPad*%
%ADD21C,0.600000*%
%TD*%
%TA.AperFunction,SMDPad,CuDef*%
%ADD22R,4.500000X2.950000*%
%TD*%
%TA.AperFunction,SMDPad,CuDef*%
%ADD23R,3.100000X2.600000*%
%TD*%
%TA.AperFunction,SMDPad,CuDef*%
%ADD24R,0.600000X1.550000*%
%TD*%
%TA.AperFunction,ComponentPad*%
%ADD25C,3.000000*%
%TD*%
%TA.AperFunction,ComponentPad*%
%ADD26RoundRect,0.750000X0.750000X-0.750000X0.750000X0.750000X-0.750000X0.750000X-0.750000X-0.750000X0*%
%TD*%
%TA.AperFunction,SMDPad,CuDef*%
%ADD27RoundRect,0.250001X-1.044999X0.872499X-1.044999X-0.872499X1.044999X-0.872499X1.044999X0.872499X0*%
%TD*%
%TA.AperFunction,ComponentPad*%
%ADD28RoundRect,1.500000X2.049038X-0.549038X0.549038X2.049038X-2.049038X0.549038X-0.549038X-2.049038X0*%
%TD*%
%TA.AperFunction,SMDPad,CuDef*%
%ADD29R,1.500000X2.200000*%
%TD*%
%TA.AperFunction,SMDPad,CuDef*%
%ADD30RoundRect,0.237500X-0.250000X-0.237500X0.250000X-0.237500X0.250000X0.237500X-0.250000X0.237500X0*%
%TD*%
%TA.AperFunction,SMDPad,CuDef*%
%ADD31RoundRect,0.237500X0.300000X0.237500X-0.300000X0.237500X-0.300000X-0.237500X0.300000X-0.237500X0*%
%TD*%
%TA.AperFunction,SMDPad,CuDef*%
%ADD32RoundRect,0.250000X0.650000X-0.412500X0.650000X0.412500X-0.650000X0.412500X-0.650000X-0.412500X0*%
%TD*%
%TA.AperFunction,SMDPad,CuDef*%
%ADD33R,4.900000X2.950000*%
%TD*%
%TA.AperFunction,SMDPad,CuDef*%
%ADD34RoundRect,0.250000X0.412500X0.650000X-0.412500X0.650000X-0.412500X-0.650000X0.412500X-0.650000X0*%
%TD*%
%TA.AperFunction,SMDPad,CuDef*%
%ADD35RoundRect,0.250001X-0.872499X-1.044999X0.872499X-1.044999X0.872499X1.044999X-0.872499X1.044999X0*%
%TD*%
%TA.AperFunction,SMDPad,CuDef*%
%ADD36RoundRect,0.250000X-0.650000X0.325000X-0.650000X-0.325000X0.650000X-0.325000X0.650000X0.325000X0*%
%TD*%
%TA.AperFunction,SMDPad,CuDef*%
%ADD37RoundRect,0.237500X-0.237500X0.300000X-0.237500X-0.300000X0.237500X-0.300000X0.237500X0.300000X0*%
%TD*%
%TA.AperFunction,ComponentPad*%
%ADD38RoundRect,0.750000X-0.750000X0.750000X-0.750000X-0.750000X0.750000X-0.750000X0.750000X0.750000X0*%
%TD*%
%TA.AperFunction,SMDPad,CuDef*%
%ADD39R,1.550000X0.600000*%
%TD*%
%TA.AperFunction,SMDPad,CuDef*%
%ADD40R,2.950000X4.900000*%
%TD*%
%TA.AperFunction,SMDPad,CuDef*%
%ADD41RoundRect,0.237500X0.237500X-0.250000X0.237500X0.250000X-0.237500X0.250000X-0.237500X-0.250000X0*%
%TD*%
%TA.AperFunction,SMDPad,CuDef*%
%ADD42RoundRect,0.237500X0.250000X0.237500X-0.250000X0.237500X-0.250000X-0.237500X0.250000X-0.237500X0*%
%TD*%
%TA.AperFunction,SMDPad,CuDef*%
%ADD43RoundRect,0.250000X-0.650000X0.412500X-0.650000X-0.412500X0.650000X-0.412500X0.650000X0.412500X0*%
%TD*%
%TA.AperFunction,ViaPad*%
%ADD44C,0.600000*%
%TD*%
%TA.AperFunction,Conductor*%
%ADD45C,0.508000*%
%TD*%
%TA.AperFunction,Conductor*%
%ADD46C,0.762000*%
%TD*%
G04 APERTURE END LIST*
D10*
%TO.P,H7,1,1*%
%TO.N,VCC*%
X187200000Y-127700000D03*
%TD*%
%TO.P,H8,1,1*%
%TO.N,GND*%
X198900000Y-127700000D03*
%TD*%
D11*
%TO.P,J3,2,POS*%
%TO.N,VBAT*%
X228000000Y-122000000D03*
D12*
%TO.P,J3,1,NEG*%
%TO.N,GND*%
X224400000Y-128235383D03*
%TD*%
D13*
%TO.P,R6,2*%
%TO.N,Net-(U9-EN)*%
X228100000Y-101812500D03*
%TO.P,R6,1*%
%TO.N,VBAT*%
X228100000Y-99987500D03*
%TD*%
D14*
%TO.P,D5,2,A*%
%TO.N,5V_ADJ_VDD*%
X230900000Y-96000000D03*
%TO.P,D5,1,K*%
%TO.N,GND*%
X230900000Y-100000000D03*
%TD*%
D15*
%TO.P,L4,2*%
%TO.N,5V_ADJ_VDD*%
X217600000Y-92600000D03*
%TO.P,L4,1*%
%TO.N,Net-(D7-K)*%
X217600000Y-99000000D03*
%TD*%
D16*
%TO.P,C23,2*%
%TO.N,GND*%
X226700000Y-86192500D03*
%TO.P,C23,1*%
%TO.N,5V_ADJ_VDD*%
X226700000Y-92607500D03*
%TD*%
D13*
%TO.P,R9,2*%
%TO.N,Net-(R9-Pad2)*%
X228800000Y-107525000D03*
%TO.P,R9,1*%
%TO.N,5V_ADJ_VDD*%
X228800000Y-105700000D03*
%TD*%
D17*
%TO.P,C22,2*%
%TO.N,Net-(D7-K)*%
X220400000Y-101837500D03*
%TO.P,C22,1*%
%TO.N,Net-(U9-BOOT)*%
X220400000Y-103562500D03*
%TD*%
D18*
%TO.P,C15,2*%
%TO.N,GND*%
X225362500Y-99500000D03*
%TO.P,C15,1*%
%TO.N,VBAT*%
X223637500Y-99500000D03*
%TD*%
%TO.P,C18,2*%
%TO.N,GND*%
X225362500Y-96100000D03*
%TO.P,C18,1*%
%TO.N,VBAT*%
X223637500Y-96100000D03*
%TD*%
%TO.P,C17,2*%
%TO.N,GND*%
X225362500Y-97800000D03*
%TO.P,C17,1*%
%TO.N,VBAT*%
X223637500Y-97800000D03*
%TD*%
D19*
%TO.P,D7,2,A*%
%TO.N,GND*%
X217600000Y-105900000D03*
%TO.P,D7,1,K*%
%TO.N,Net-(D7-K)*%
X217600000Y-101900000D03*
%TD*%
D20*
%TO.P,RV1,3,3*%
%TO.N,GND*%
X222060000Y-111300000D03*
%TO.P,RV1,2,2*%
%TO.N,/5V_Regulators/V_Sense_ADJ*%
X224600000Y-111300000D03*
%TO.P,RV1,1,1*%
%TO.N,Net-(R9-Pad2)*%
X227140000Y-111300000D03*
%TD*%
D21*
%TO.P,U9,9,GNDPAD*%
%TO.N,GND*%
X226100000Y-103900000D03*
X225000000Y-103900000D03*
X223700000Y-103900000D03*
X222500000Y-103900000D03*
D22*
X224300000Y-104500000D03*
D23*
X224300000Y-104500000D03*
D21*
X226100000Y-105100000D03*
X225000000Y-105100000D03*
X223700000Y-105100000D03*
X222500000Y-105100000D03*
D24*
%TO.P,U9,8,PH*%
%TO.N,Net-(D7-K)*%
X222395000Y-101800000D03*
%TO.P,U9,7,VIN*%
%TO.N,VBAT*%
X223665000Y-101800000D03*
%TO.P,U9,6,GND*%
%TO.N,GND*%
X224935000Y-101800000D03*
%TO.P,U9,5,EN*%
%TO.N,Net-(U9-EN)*%
X226205000Y-101800000D03*
%TO.P,U9,4,VSENSE*%
%TO.N,/5V_Regulators/V_Sense_ADJ*%
X226205000Y-107200000D03*
%TO.P,U9,3,NC*%
%TO.N,unconnected-(U9-NC-Pad3)*%
X224935000Y-107200000D03*
%TO.P,U9,2,NC*%
%TO.N,unconnected-(U9-NC-Pad2)*%
X223665000Y-107200000D03*
%TO.P,U9,1,BOOT*%
%TO.N,Net-(U9-BOOT)*%
X222395000Y-107200000D03*
%TD*%
D17*
%TO.P,C26,2*%
%TO.N,GND*%
X230900000Y-90875000D03*
%TO.P,C26,1*%
%TO.N,5V_ADJ_VDD*%
X230900000Y-92600000D03*
%TD*%
D25*
%TO.P,U5,2,+*%
%TO.N,5V_ADJ_VDD*%
X236500000Y-96100000D03*
D26*
%TO.P,U5,1,-*%
%TO.N,GND*%
X236500000Y-101100000D03*
%TD*%
D27*
%TO.P,C27,1*%
%TO.N,VBAT*%
X193600000Y-113500000D03*
%TO.P,C27,2*%
%TO.N,GND*%
X193600000Y-119915000D03*
%TD*%
D28*
%TO.P,J1,1,NEG*%
%TO.N,GND*%
X228562500Y-52235383D03*
D11*
%TO.P,J1,2,POS*%
%TO.N,VBAT*%
X224962500Y-46000000D03*
%TD*%
D29*
%TO.P,L3,1*%
%TO.N,Net-(U8-SW)*%
X212800000Y-71560000D03*
%TO.P,L3,2*%
%TO.N,5V_1A_VDD*%
X219200000Y-71560000D03*
%TD*%
D30*
%TO.P,R8,1*%
%TO.N,Net-(U8-FB)*%
X213087500Y-60460000D03*
%TO.P,R8,2*%
%TO.N,GND*%
X214912500Y-60460000D03*
%TD*%
D31*
%TO.P,C3,1*%
%TO.N,VBAT*%
X160662500Y-69600000D03*
%TO.P,C3,2*%
%TO.N,GND*%
X158937500Y-69600000D03*
%TD*%
%TO.P,C20,1*%
%TO.N,Net-(U8-VCC)*%
X208600000Y-63500000D03*
%TO.P,C20,2*%
%TO.N,GND*%
X206875000Y-63500000D03*
%TD*%
D32*
%TO.P,C24,1*%
%TO.N,GND*%
X223200000Y-74622500D03*
%TO.P,C24,2*%
%TO.N,5V_1A_VDD*%
X223200000Y-71497500D03*
%TD*%
D30*
%TO.P,R7,1*%
%TO.N,5V_1A_VDD*%
X209187500Y-60500000D03*
%TO.P,R7,2*%
%TO.N,Net-(U8-FB)*%
X211012500Y-60500000D03*
%TD*%
D19*
%TO.P,D8,1,K*%
%TO.N,VBAT*%
X187800000Y-113700000D03*
%TO.P,D8,2,A*%
%TO.N,VCC*%
X187800000Y-117700000D03*
%TD*%
D15*
%TO.P,L1,1*%
%TO.N,Net-(U7-SW)*%
X160700000Y-93700000D03*
%TO.P,L1,2*%
%TO.N,12V_1A_VDD*%
X160700000Y-100100000D03*
%TD*%
D24*
%TO.P,U7,1,GND*%
%TO.N,GND*%
X166045000Y-99550000D03*
%TO.P,U7,2,VIN*%
%TO.N,VBAT*%
X167315000Y-99550000D03*
%TO.P,U7,3,EN*%
X168585000Y-99550000D03*
%TO.P,U7,4,PG*%
%TO.N,unconnected-(U7-PG-Pad4)*%
X169855000Y-99550000D03*
%TO.P,U7,5,FB*%
%TO.N,Net-(U7-FB)*%
X169855000Y-94150000D03*
%TO.P,U7,6,VCC*%
%TO.N,Net-(U7-VCC)*%
X168585000Y-94150000D03*
%TO.P,U7,7,BOOT*%
%TO.N,Net-(U7-BOOT)*%
X167315000Y-94150000D03*
%TO.P,U7,8,SW*%
%TO.N,Net-(U7-SW)*%
X166045000Y-94150000D03*
D21*
%TO.P,U7,9,GND*%
%TO.N,GND*%
X166000000Y-97500000D03*
X167300000Y-97500000D03*
X168600000Y-97500000D03*
X169900000Y-97500000D03*
D33*
X167950000Y-96850000D03*
D21*
X166000000Y-96200000D03*
X167300000Y-96200000D03*
X168600000Y-96200000D03*
X169900000Y-96200000D03*
%TD*%
D34*
%TO.P,C5,1*%
%TO.N,VBAT*%
X167562500Y-103800000D03*
%TO.P,C5,2*%
%TO.N,GND*%
X164437500Y-103800000D03*
%TD*%
D35*
%TO.P,C11,1*%
%TO.N,12V_5A_VDD*%
X167092500Y-78800000D03*
%TO.P,C11,2*%
%TO.N,GND*%
X173507500Y-78800000D03*
%TD*%
D13*
%TO.P,R3,1*%
%TO.N,Net-(U7-FB)*%
X171700000Y-94087500D03*
%TO.P,R3,2*%
%TO.N,GND*%
X171700000Y-95912500D03*
%TD*%
D34*
%TO.P,C14,1*%
%TO.N,GND*%
X162125000Y-106500000D03*
%TO.P,C14,2*%
%TO.N,12V_1A_VDD*%
X159000000Y-106500000D03*
%TD*%
D36*
%TO.P,C2,1*%
%TO.N,VBAT*%
X198900000Y-114525000D03*
%TO.P,C2,2*%
%TO.N,GND*%
X198900000Y-117475000D03*
%TD*%
D19*
%TO.P,D2,1,K*%
%TO.N,GND*%
X154900000Y-72000000D03*
%TO.P,D2,2,A*%
%TO.N,12V_5A_VDD*%
X154900000Y-76000000D03*
%TD*%
D14*
%TO.P,D6,1,K*%
%TO.N,Net-(D6-K)*%
X167500000Y-65600000D03*
%TO.P,D6,2,A*%
%TO.N,GND*%
X167500000Y-61600000D03*
%TD*%
D17*
%TO.P,C8,1*%
%TO.N,Net-(U7-VCC)*%
X168600000Y-89800000D03*
%TO.P,C8,2*%
%TO.N,GND*%
X168600000Y-88075000D03*
%TD*%
D37*
%TO.P,C21,1*%
%TO.N,Net-(U8-BOOT)*%
X210900000Y-64775000D03*
%TO.P,C21,2*%
%TO.N,Net-(U8-SW)*%
X210900000Y-66500000D03*
%TD*%
D32*
%TO.P,C25,1*%
%TO.N,GND*%
X226100000Y-74585000D03*
%TO.P,C25,2*%
%TO.N,5V_1A_VDD*%
X226100000Y-71460000D03*
%TD*%
D31*
%TO.P,C6,1*%
%TO.N,VBAT*%
X160662500Y-73000000D03*
%TO.P,C6,2*%
%TO.N,GND*%
X158937500Y-73000000D03*
%TD*%
%TO.P,C4,1*%
%TO.N,VBAT*%
X160662500Y-71300000D03*
%TO.P,C4,2*%
%TO.N,GND*%
X158937500Y-71300000D03*
%TD*%
D38*
%TO.P,U3,1,-*%
%TO.N,GND*%
X148000000Y-96000000D03*
D25*
%TO.P,U3,2,+*%
%TO.N,12V_1A_VDD*%
X148000000Y-101000000D03*
%TD*%
D39*
%TO.P,U8,1,GND*%
%TO.N,GND*%
X218450000Y-66055000D03*
%TO.P,U8,2,VIN*%
%TO.N,VBAT*%
X218450000Y-64785000D03*
%TO.P,U8,3,EN*%
X218450000Y-63515000D03*
%TO.P,U8,4,PG*%
%TO.N,unconnected-(U8-PG-Pad4)*%
X218450000Y-62245000D03*
%TO.P,U8,5,FB*%
%TO.N,Net-(U8-FB)*%
X213050000Y-62245000D03*
%TO.P,U8,6,VCC*%
%TO.N,Net-(U8-VCC)*%
X213050000Y-63515000D03*
%TO.P,U8,7,BOOT*%
%TO.N,Net-(U8-BOOT)*%
X213050000Y-64785000D03*
%TO.P,U8,8,SW*%
%TO.N,Net-(U8-SW)*%
X213050000Y-66055000D03*
D21*
%TO.P,U8,9,GND*%
%TO.N,GND*%
X216400000Y-66100000D03*
X216400000Y-64800000D03*
X216400000Y-63500000D03*
X216400000Y-62200000D03*
D40*
X215750000Y-64150000D03*
D21*
X215100000Y-66100000D03*
X215100000Y-64800000D03*
X215100000Y-63500000D03*
X215100000Y-62200000D03*
%TD*%
D31*
%TO.P,C10,1*%
%TO.N,Net-(U7-BOOT)*%
X167300000Y-91600000D03*
%TO.P,C10,2*%
%TO.N,Net-(U7-SW)*%
X165575000Y-91600000D03*
%TD*%
D13*
%TO.P,R2,1*%
%TO.N,12V_1A_VDD*%
X171700000Y-90175000D03*
%TO.P,R2,2*%
%TO.N,Net-(U7-FB)*%
X171700000Y-92000000D03*
%TD*%
D14*
%TO.P,D4,1,K*%
%TO.N,GND*%
X230600000Y-75200000D03*
%TO.P,D4,2,A*%
%TO.N,5V_1A_VDD*%
X230600000Y-71200000D03*
%TD*%
D34*
%TO.P,C12,1*%
%TO.N,GND*%
X162100000Y-103800000D03*
%TO.P,C12,2*%
%TO.N,12V_1A_VDD*%
X158975000Y-103800000D03*
%TD*%
D31*
%TO.P,C13,1*%
%TO.N,12V_5A_VDD*%
X160662500Y-74800000D03*
%TO.P,C13,2*%
%TO.N,GND*%
X158937500Y-74800000D03*
%TD*%
D24*
%TO.P,U6,1,BOOT*%
%TO.N,Net-(U6-BOOT)*%
X161905000Y-62100000D03*
%TO.P,U6,2,NC*%
%TO.N,unconnected-(U6-NC-Pad2)*%
X160635000Y-62100000D03*
%TO.P,U6,3,NC*%
%TO.N,unconnected-(U6-NC-Pad3)*%
X159365000Y-62100000D03*
%TO.P,U6,4,VSENSE*%
%TO.N,/12V_Regulators/V_Sense_ADJ*%
X158095000Y-62100000D03*
%TO.P,U6,5,EN*%
%TO.N,Net-(U6-EN)*%
X158095000Y-67500000D03*
%TO.P,U6,6,GND*%
%TO.N,GND*%
X159365000Y-67500000D03*
%TO.P,U6,7,VIN*%
%TO.N,VBAT*%
X160635000Y-67500000D03*
%TO.P,U6,8,PH*%
%TO.N,Net-(D6-K)*%
X161905000Y-67500000D03*
D21*
%TO.P,U6,9,GNDPAD*%
%TO.N,GND*%
X161800000Y-64200000D03*
X160600000Y-64200000D03*
X159300000Y-64200000D03*
X158200000Y-64200000D03*
D23*
X160000000Y-64800000D03*
D22*
X160000000Y-64800000D03*
D21*
X161800000Y-65400000D03*
X160600000Y-65400000D03*
X159300000Y-65400000D03*
X158200000Y-65400000D03*
%TD*%
D41*
%TO.P,R1,1*%
%TO.N,VBAT*%
X156200000Y-69300000D03*
%TO.P,R1,2*%
%TO.N,Net-(U6-EN)*%
X156200000Y-67475000D03*
%TD*%
D31*
%TO.P,C7,1*%
%TO.N,VBAT*%
X167600000Y-101700000D03*
%TO.P,C7,2*%
%TO.N,GND*%
X165875000Y-101700000D03*
%TD*%
D42*
%TO.P,R4,1*%
%TO.N,12V_5A_VDD*%
X158012500Y-59800000D03*
%TO.P,R4,2*%
%TO.N,/12V_Regulators/V_Sense_ADJ*%
X156187500Y-59800000D03*
%TD*%
D15*
%TO.P,L2,1*%
%TO.N,Net-(D6-K)*%
X167100000Y-68800000D03*
%TO.P,L2,2*%
%TO.N,12V_5A_VDD*%
X167100000Y-75200000D03*
%TD*%
D28*
%TO.P,J4,1,NEG*%
%TO.N,GND*%
X160000000Y-128235383D03*
D11*
%TO.P,J4,2,POS*%
%TO.N,VBAT*%
X156400000Y-122000000D03*
%TD*%
D26*
%TO.P,U4,1,-*%
%TO.N,GND*%
X236000000Y-76000000D03*
D25*
%TO.P,U4,2,+*%
%TO.N,5V_1A_VDD*%
X236000000Y-71000000D03*
%TD*%
D12*
%TO.P,J2,1,NEG*%
%TO.N,GND*%
X154400000Y-52235383D03*
D11*
%TO.P,J2,2,POS*%
%TO.N,VBAT*%
X158000000Y-46000000D03*
%TD*%
D37*
%TO.P,C19,1*%
%TO.N,VBAT*%
X220800000Y-64797500D03*
%TO.P,C19,2*%
%TO.N,GND*%
X220800000Y-66522500D03*
%TD*%
D19*
%TO.P,D3,1,K*%
%TO.N,GND*%
X154100000Y-96400000D03*
%TO.P,D3,2,A*%
%TO.N,12V_1A_VDD*%
X154100000Y-100400000D03*
%TD*%
D41*
%TO.P,R5,1*%
%TO.N,GND*%
X156200000Y-63912500D03*
%TO.P,R5,2*%
%TO.N,/12V_Regulators/V_Sense_ADJ*%
X156200000Y-62087500D03*
%TD*%
D37*
%TO.P,C9,1*%
%TO.N,Net-(U6-BOOT)*%
X163900000Y-64037500D03*
%TO.P,C9,2*%
%TO.N,Net-(D6-K)*%
X163900000Y-65762500D03*
%TD*%
D43*
%TO.P,C16,1*%
%TO.N,VBAT*%
X223200000Y-64797500D03*
%TO.P,C16,2*%
%TO.N,GND*%
X223200000Y-67922500D03*
%TD*%
D26*
%TO.P,U2,1,-*%
%TO.N,GND*%
X148000000Y-76000000D03*
D25*
%TO.P,U2,2,+*%
%TO.N,12V_5A_VDD*%
X148000000Y-71000000D03*
%TD*%
D44*
%TO.N,GND*%
X213000000Y-96000000D03*
X213000000Y-94000000D03*
X213000000Y-92000000D03*
X211000000Y-92000000D03*
X211000000Y-94000000D03*
X211000000Y-96000000D03*
X205000000Y-76000000D03*
X203000000Y-76000000D03*
X205000000Y-61000000D03*
X207000000Y-59000000D03*
X205000000Y-57000000D03*
X211000000Y-59000000D03*
X207000000Y-57000000D03*
X211000000Y-57000000D03*
X211000000Y-55000000D03*
X207000000Y-55000000D03*
X209000000Y-55000000D03*
X205000000Y-59000000D03*
X209000000Y-59000000D03*
X205000000Y-55000000D03*
X209000000Y-57000000D03*
X205000000Y-96000000D03*
X203000000Y-94000000D03*
X209000000Y-96000000D03*
X205000000Y-94000000D03*
X209000000Y-94000000D03*
X209000000Y-92000000D03*
X205000000Y-92000000D03*
X207000000Y-92000000D03*
X203000000Y-96000000D03*
X207000000Y-96000000D03*
X203000000Y-92000000D03*
X207000000Y-94000000D03*
X221000000Y-84000000D03*
X219000000Y-84000000D03*
X217000000Y-84000000D03*
X219000000Y-82000000D03*
X217000000Y-82000000D03*
X221000000Y-82000000D03*
X217000000Y-80000000D03*
X219000000Y-80000000D03*
X215000000Y-82000000D03*
X213000000Y-82000000D03*
X221000000Y-80000000D03*
X213000000Y-80000000D03*
X215000000Y-80000000D03*
X213000000Y-84000000D03*
X215000000Y-84000000D03*
X209000000Y-84000000D03*
X207000000Y-84000000D03*
X211000000Y-84000000D03*
X205000000Y-84000000D03*
X203000000Y-84000000D03*
X209000000Y-82000000D03*
X211000000Y-82000000D03*
X205000000Y-82000000D03*
X203000000Y-82000000D03*
X207000000Y-82000000D03*
X209000000Y-80000000D03*
X205000000Y-78000000D03*
X207000000Y-78000000D03*
X207000000Y-80000000D03*
X211000000Y-80000000D03*
X209000000Y-78000000D03*
X211000000Y-78000000D03*
X205000000Y-80000000D03*
X203000000Y-80000000D03*
X203000000Y-78000000D03*
X181000000Y-70000000D03*
X181000000Y-72000000D03*
X183000000Y-72000000D03*
X183000000Y-70000000D03*
X183000000Y-74000000D03*
X181000000Y-68000000D03*
X183000000Y-68000000D03*
X181000000Y-74000000D03*
X181000000Y-88000000D03*
X181000000Y-86000000D03*
X183000000Y-86000000D03*
X177000000Y-86000000D03*
X183000000Y-88000000D03*
X175000000Y-86000000D03*
X177000000Y-88000000D03*
X179000000Y-88000000D03*
X179000000Y-86000000D03*
X175000000Y-88000000D03*
X175000000Y-98000000D03*
X175000000Y-94000000D03*
X177000000Y-94000000D03*
X175000000Y-92000000D03*
X183000000Y-96000000D03*
X175000000Y-96000000D03*
X183000000Y-94000000D03*
X179000000Y-94000000D03*
X181000000Y-92000000D03*
X179000000Y-98000000D03*
X179000000Y-92000000D03*
X177000000Y-96000000D03*
X177000000Y-92000000D03*
X181000000Y-98000000D03*
X177000000Y-98000000D03*
X183000000Y-98000000D03*
X181000000Y-90000000D03*
X181000000Y-94000000D03*
X183000000Y-90000000D03*
X175000000Y-90000000D03*
X179000000Y-96000000D03*
X179000000Y-90000000D03*
X177000000Y-90000000D03*
X181000000Y-96000000D03*
X183000000Y-92000000D03*
X173000000Y-60000000D03*
X171000000Y-60000000D03*
X175000000Y-60000000D03*
X181000000Y-60000000D03*
X183000000Y-60000000D03*
X181000000Y-56000000D03*
X183000000Y-56000000D03*
X175000000Y-56000000D03*
X173000000Y-56000000D03*
X171000000Y-56000000D03*
X177000000Y-56000000D03*
X179000000Y-56000000D03*
X177000000Y-58000000D03*
X171000000Y-66000000D03*
X181000000Y-66000000D03*
X175000000Y-66000000D03*
X179000000Y-66000000D03*
X183000000Y-58000000D03*
X175000000Y-58000000D03*
X171000000Y-58000000D03*
X179000000Y-58000000D03*
X173000000Y-66000000D03*
X177000000Y-66000000D03*
X181000000Y-58000000D03*
X173000000Y-58000000D03*
X183000000Y-66000000D03*
X173000000Y-64000000D03*
X177000000Y-64000000D03*
X175000000Y-62000000D03*
X175000000Y-64000000D03*
X171000000Y-62000000D03*
X179000000Y-62000000D03*
X177000000Y-62000000D03*
X179000000Y-64000000D03*
X183000000Y-64000000D03*
X177000000Y-60000000D03*
X183000000Y-62000000D03*
X181000000Y-64000000D03*
X179000000Y-60000000D03*
X173000000Y-62000000D03*
X171000000Y-64000000D03*
X181000000Y-62000000D03*
%TO.N,VBAT*%
X225000000Y-118000000D03*
X221000000Y-120000000D03*
X223000000Y-120000000D03*
X221000000Y-118000000D03*
X223000000Y-118000000D03*
X221000000Y-114000000D03*
X221000000Y-116000000D03*
X223000000Y-116000000D03*
X217000000Y-118000000D03*
X219000000Y-116000000D03*
X217000000Y-116000000D03*
X215000000Y-116000000D03*
X219000000Y-118000000D03*
X215000000Y-110000000D03*
X217000000Y-114000000D03*
X219000000Y-114000000D03*
X217000000Y-112000000D03*
X211000000Y-114000000D03*
X215000000Y-112000000D03*
X215000000Y-114000000D03*
X213000000Y-114000000D03*
X211000000Y-112000000D03*
X213000000Y-112000000D03*
X169000000Y-108000000D03*
X165000000Y-120000000D03*
X171000000Y-116000000D03*
X167000000Y-118000000D03*
X161000000Y-120000000D03*
X163000000Y-120000000D03*
X159000000Y-118000000D03*
X161000000Y-118000000D03*
X161000000Y-116000000D03*
X161000000Y-114000000D03*
X159000000Y-116000000D03*
X163000000Y-118000000D03*
X165000000Y-118000000D03*
X163000000Y-116000000D03*
X165000000Y-116000000D03*
X165000000Y-114000000D03*
X163000000Y-112000000D03*
X165000000Y-112000000D03*
X163000000Y-114000000D03*
X167000000Y-116000000D03*
X169000000Y-116000000D03*
X167000000Y-114000000D03*
X169000000Y-114000000D03*
X169000000Y-112000000D03*
X167000000Y-110000000D03*
X169000000Y-110000000D03*
X167000000Y-112000000D03*
X173000000Y-112000000D03*
X173000000Y-114000000D03*
X171000000Y-114000000D03*
X171000000Y-112000000D03*
X197000000Y-112000000D03*
X199000000Y-112000000D03*
X201000000Y-112000000D03*
X181000000Y-112000000D03*
X177000000Y-112000000D03*
X181000000Y-114000000D03*
X175000000Y-114000000D03*
X175000000Y-112000000D03*
X177000000Y-114000000D03*
X179000000Y-114000000D03*
X179000000Y-112000000D03*
X185000000Y-114000000D03*
X183000000Y-112000000D03*
X185000000Y-112000000D03*
X183000000Y-114000000D03*
X209000000Y-114000000D03*
X209000000Y-112000000D03*
X205000000Y-114000000D03*
X207000000Y-114000000D03*
X205000000Y-112000000D03*
X207000000Y-112000000D03*
X203000000Y-112000000D03*
X203000000Y-114000000D03*
X211000000Y-108000000D03*
X207000000Y-110000000D03*
X209000000Y-110000000D03*
X205000000Y-108000000D03*
X209000000Y-108000000D03*
X207000000Y-108000000D03*
X205000000Y-110000000D03*
X211000000Y-110000000D03*
X213000000Y-110000000D03*
X173000000Y-108000000D03*
X171000000Y-110000000D03*
X171000000Y-108000000D03*
X173000000Y-110000000D03*
X181000000Y-108000000D03*
X181000000Y-110000000D03*
X179000000Y-110000000D03*
X179000000Y-108000000D03*
X177000000Y-110000000D03*
X175000000Y-108000000D03*
X177000000Y-108000000D03*
X175000000Y-110000000D03*
X203000000Y-108000000D03*
X203000000Y-110000000D03*
X201000000Y-110000000D03*
X201000000Y-108000000D03*
X201000000Y-106000000D03*
X203000000Y-106000000D03*
X185000000Y-108000000D03*
X185000000Y-110000000D03*
X183000000Y-110000000D03*
X183000000Y-108000000D03*
X183000000Y-106000000D03*
X185000000Y-106000000D03*
X219000000Y-42000000D03*
X209000000Y-52000000D03*
X219000000Y-50000000D03*
X215000000Y-50000000D03*
X211000000Y-48000000D03*
X219000000Y-48000000D03*
X213000000Y-42000000D03*
X211000000Y-42000000D03*
X213000000Y-50000000D03*
X217000000Y-42000000D03*
X217000000Y-50000000D03*
X213000000Y-46000000D03*
X213000000Y-52000000D03*
X217000000Y-52000000D03*
X215000000Y-42000000D03*
X209000000Y-42000000D03*
X211000000Y-50000000D03*
X209000000Y-50000000D03*
X219000000Y-52000000D03*
X215000000Y-52000000D03*
X211000000Y-52000000D03*
X217000000Y-46000000D03*
X217000000Y-48000000D03*
X209000000Y-44000000D03*
X217000000Y-44000000D03*
X211000000Y-46000000D03*
X213000000Y-48000000D03*
X209000000Y-46000000D03*
X209000000Y-48000000D03*
X215000000Y-48000000D03*
X215000000Y-44000000D03*
X213000000Y-44000000D03*
X211000000Y-44000000D03*
X219000000Y-46000000D03*
X215000000Y-46000000D03*
X219000000Y-44000000D03*
X205000000Y-46000000D03*
X201000000Y-48000000D03*
X203000000Y-42000000D03*
X207000000Y-48000000D03*
X203000000Y-50000000D03*
X201000000Y-52000000D03*
X207000000Y-42000000D03*
X203000000Y-46000000D03*
X201000000Y-44000000D03*
X203000000Y-52000000D03*
X207000000Y-44000000D03*
X205000000Y-48000000D03*
X201000000Y-46000000D03*
X205000000Y-42000000D03*
X203000000Y-48000000D03*
X207000000Y-52000000D03*
X201000000Y-50000000D03*
X203000000Y-44000000D03*
X207000000Y-46000000D03*
X205000000Y-44000000D03*
X205000000Y-52000000D03*
X205000000Y-50000000D03*
X207000000Y-50000000D03*
X201000000Y-42000000D03*
X169000000Y-50000000D03*
X165000000Y-48000000D03*
X167000000Y-42000000D03*
X165000000Y-42000000D03*
X167000000Y-50000000D03*
X171000000Y-42000000D03*
X171000000Y-50000000D03*
X167000000Y-46000000D03*
X167000000Y-52000000D03*
X171000000Y-52000000D03*
X169000000Y-42000000D03*
X165000000Y-50000000D03*
X169000000Y-52000000D03*
X165000000Y-52000000D03*
X171000000Y-46000000D03*
X171000000Y-48000000D03*
X171000000Y-44000000D03*
X165000000Y-46000000D03*
X167000000Y-48000000D03*
X169000000Y-48000000D03*
X169000000Y-44000000D03*
X167000000Y-44000000D03*
X165000000Y-44000000D03*
X169000000Y-46000000D03*
X177000000Y-42000000D03*
X183000000Y-42000000D03*
X179000000Y-42000000D03*
X175000000Y-42000000D03*
X185000000Y-42000000D03*
X181000000Y-42000000D03*
X173000000Y-42000000D03*
X175000000Y-50000000D03*
X177000000Y-50000000D03*
X183000000Y-50000000D03*
X179000000Y-50000000D03*
X181000000Y-50000000D03*
X173000000Y-50000000D03*
X177000000Y-52000000D03*
X179000000Y-52000000D03*
X185000000Y-52000000D03*
X175000000Y-52000000D03*
X181000000Y-52000000D03*
X173000000Y-52000000D03*
X185000000Y-50000000D03*
X183000000Y-52000000D03*
X175000000Y-48000000D03*
X183000000Y-48000000D03*
X177000000Y-46000000D03*
X183000000Y-46000000D03*
X175000000Y-46000000D03*
X173000000Y-46000000D03*
X181000000Y-46000000D03*
X173000000Y-48000000D03*
X179000000Y-46000000D03*
X179000000Y-48000000D03*
X181000000Y-48000000D03*
X185000000Y-48000000D03*
X185000000Y-46000000D03*
X177000000Y-48000000D03*
X179000000Y-44000000D03*
X181000000Y-44000000D03*
X173000000Y-44000000D03*
X177000000Y-44000000D03*
X183000000Y-44000000D03*
X175000000Y-44000000D03*
X185000000Y-44000000D03*
X199000000Y-108000000D03*
X191000000Y-108000000D03*
X197000000Y-108000000D03*
X187000000Y-110000000D03*
X195000000Y-108000000D03*
X193000000Y-108000000D03*
X197000000Y-110000000D03*
X199000000Y-110000000D03*
X189000000Y-108000000D03*
X187000000Y-108000000D03*
X189000000Y-110000000D03*
X191000000Y-110000000D03*
X195000000Y-110000000D03*
X193000000Y-110000000D03*
X197000000Y-104000000D03*
X187000000Y-106000000D03*
X191000000Y-104000000D03*
X187000000Y-98000000D03*
X199000000Y-104000000D03*
X195000000Y-104000000D03*
X197000000Y-96000000D03*
X197000000Y-102000000D03*
X197000000Y-94000000D03*
X197000000Y-100000000D03*
X199000000Y-92000000D03*
X187000000Y-94000000D03*
X197000000Y-106000000D03*
X191000000Y-94000000D03*
X193000000Y-92000000D03*
X191000000Y-100000000D03*
X189000000Y-94000000D03*
X187000000Y-100000000D03*
X187000000Y-92000000D03*
X195000000Y-100000000D03*
X191000000Y-92000000D03*
X199000000Y-94000000D03*
X189000000Y-100000000D03*
X193000000Y-100000000D03*
X197000000Y-92000000D03*
X199000000Y-106000000D03*
X193000000Y-104000000D03*
X187000000Y-102000000D03*
X195000000Y-96000000D03*
X195000000Y-94000000D03*
X195000000Y-98000000D03*
X189000000Y-96000000D03*
X199000000Y-96000000D03*
X189000000Y-92000000D03*
X189000000Y-104000000D03*
X189000000Y-102000000D03*
X189000000Y-106000000D03*
X191000000Y-98000000D03*
X193000000Y-102000000D03*
X187000000Y-104000000D03*
X193000000Y-98000000D03*
X199000000Y-100000000D03*
X189000000Y-98000000D03*
X187000000Y-96000000D03*
X197000000Y-98000000D03*
X191000000Y-106000000D03*
X199000000Y-102000000D03*
X193000000Y-96000000D03*
X195000000Y-92000000D03*
X195000000Y-106000000D03*
X195000000Y-102000000D03*
X191000000Y-102000000D03*
X199000000Y-98000000D03*
X191000000Y-96000000D03*
X193000000Y-106000000D03*
X193000000Y-94000000D03*
X197000000Y-90000000D03*
X189000000Y-90000000D03*
X199000000Y-90000000D03*
X193000000Y-90000000D03*
X195000000Y-90000000D03*
X191000000Y-90000000D03*
X187000000Y-90000000D03*
X189000000Y-76000000D03*
X187000000Y-76000000D03*
X191000000Y-76000000D03*
X197000000Y-76000000D03*
X199000000Y-76000000D03*
X197000000Y-88000000D03*
X193000000Y-74000000D03*
X187000000Y-82000000D03*
X197000000Y-82000000D03*
X191000000Y-82000000D03*
X195000000Y-82000000D03*
X199000000Y-74000000D03*
X191000000Y-74000000D03*
X187000000Y-74000000D03*
X195000000Y-74000000D03*
X189000000Y-82000000D03*
X193000000Y-82000000D03*
X197000000Y-74000000D03*
X189000000Y-74000000D03*
X191000000Y-84000000D03*
X189000000Y-86000000D03*
X189000000Y-84000000D03*
X193000000Y-86000000D03*
X189000000Y-88000000D03*
X195000000Y-84000000D03*
X187000000Y-84000000D03*
X199000000Y-88000000D03*
X199000000Y-82000000D03*
X193000000Y-88000000D03*
X195000000Y-88000000D03*
X189000000Y-80000000D03*
X193000000Y-80000000D03*
X191000000Y-78000000D03*
X191000000Y-80000000D03*
X187000000Y-78000000D03*
X195000000Y-78000000D03*
X193000000Y-78000000D03*
X195000000Y-80000000D03*
X199000000Y-80000000D03*
X193000000Y-76000000D03*
X199000000Y-78000000D03*
X197000000Y-80000000D03*
X195000000Y-76000000D03*
X189000000Y-78000000D03*
X191000000Y-88000000D03*
X187000000Y-86000000D03*
X193000000Y-84000000D03*
X199000000Y-84000000D03*
X197000000Y-86000000D03*
X187000000Y-88000000D03*
X191000000Y-86000000D03*
X187000000Y-80000000D03*
X197000000Y-84000000D03*
X199000000Y-86000000D03*
X195000000Y-86000000D03*
X197000000Y-78000000D03*
X191000000Y-58000000D03*
X197000000Y-58000000D03*
X193000000Y-58000000D03*
X189000000Y-58000000D03*
X199000000Y-58000000D03*
X195000000Y-58000000D03*
X187000000Y-58000000D03*
X189000000Y-66000000D03*
X191000000Y-66000000D03*
X197000000Y-66000000D03*
X193000000Y-66000000D03*
X195000000Y-66000000D03*
X187000000Y-66000000D03*
X197000000Y-72000000D03*
X187000000Y-70000000D03*
X191000000Y-68000000D03*
X189000000Y-70000000D03*
X193000000Y-68000000D03*
X199000000Y-68000000D03*
X189000000Y-68000000D03*
X193000000Y-70000000D03*
X195000000Y-68000000D03*
X187000000Y-68000000D03*
X199000000Y-72000000D03*
X191000000Y-72000000D03*
X189000000Y-72000000D03*
X187000000Y-72000000D03*
X199000000Y-70000000D03*
X199000000Y-66000000D03*
X197000000Y-70000000D03*
X195000000Y-70000000D03*
X193000000Y-72000000D03*
X191000000Y-70000000D03*
X195000000Y-72000000D03*
X197000000Y-68000000D03*
X189000000Y-64000000D03*
X197000000Y-64000000D03*
X191000000Y-62000000D03*
X197000000Y-62000000D03*
X189000000Y-62000000D03*
X187000000Y-62000000D03*
X195000000Y-62000000D03*
X187000000Y-64000000D03*
X193000000Y-62000000D03*
X193000000Y-64000000D03*
X195000000Y-64000000D03*
X199000000Y-64000000D03*
X199000000Y-62000000D03*
X191000000Y-64000000D03*
X193000000Y-60000000D03*
X195000000Y-60000000D03*
X187000000Y-60000000D03*
X191000000Y-60000000D03*
X197000000Y-60000000D03*
X189000000Y-60000000D03*
X199000000Y-60000000D03*
X191000000Y-50000000D03*
X197000000Y-50000000D03*
X193000000Y-50000000D03*
X189000000Y-50000000D03*
X199000000Y-50000000D03*
X195000000Y-50000000D03*
X187000000Y-50000000D03*
X189000000Y-56000000D03*
X197000000Y-56000000D03*
X191000000Y-54000000D03*
X197000000Y-54000000D03*
X189000000Y-54000000D03*
X187000000Y-54000000D03*
X195000000Y-54000000D03*
X187000000Y-56000000D03*
X193000000Y-54000000D03*
X193000000Y-56000000D03*
X195000000Y-56000000D03*
X199000000Y-56000000D03*
X199000000Y-54000000D03*
X191000000Y-56000000D03*
X193000000Y-52000000D03*
X195000000Y-52000000D03*
X187000000Y-52000000D03*
X191000000Y-52000000D03*
X197000000Y-52000000D03*
X189000000Y-52000000D03*
X199000000Y-52000000D03*
X191000000Y-46000000D03*
X197000000Y-46000000D03*
X193000000Y-46000000D03*
X189000000Y-46000000D03*
X199000000Y-46000000D03*
X195000000Y-46000000D03*
X187000000Y-46000000D03*
X193000000Y-48000000D03*
X195000000Y-48000000D03*
X187000000Y-48000000D03*
X191000000Y-48000000D03*
X197000000Y-48000000D03*
X189000000Y-48000000D03*
X199000000Y-48000000D03*
X191000000Y-44000000D03*
X197000000Y-44000000D03*
X193000000Y-44000000D03*
X189000000Y-44000000D03*
X199000000Y-44000000D03*
X195000000Y-44000000D03*
X187000000Y-44000000D03*
X187000000Y-42000000D03*
X195000000Y-42000000D03*
X199000000Y-42000000D03*
X189000000Y-42000000D03*
X193000000Y-42000000D03*
X197000000Y-42000000D03*
X191000000Y-42000000D03*
X223800000Y-61250000D03*
X222800000Y-61250000D03*
X223800000Y-62250000D03*
X222800000Y-62250000D03*
X162500000Y-73500000D03*
X162500000Y-72500000D03*
X162500000Y-71500000D03*
X221850000Y-96200000D03*
X221850000Y-94900000D03*
X222850000Y-94900000D03*
X223850000Y-94900000D03*
X169200000Y-103950000D03*
X169200000Y-102950000D03*
%TO.N,12V_1A_VDD*%
X157150000Y-101950000D03*
X171700000Y-87300000D03*
%TO.N,VBAT*%
X222800000Y-63250000D03*
X223800000Y-63250000D03*
%TO.N,GND*%
X199400000Y-125000000D03*
X197400000Y-125000000D03*
X196400000Y-125000000D03*
X200400000Y-125000000D03*
X201400000Y-125000000D03*
X198400000Y-125000000D03*
X196400000Y-129000000D03*
X199400000Y-129000000D03*
X197400000Y-129000000D03*
X196400000Y-128000000D03*
X200400000Y-129000000D03*
X201400000Y-129000000D03*
X198400000Y-129000000D03*
X197400000Y-131000000D03*
X199400000Y-130000000D03*
X199400000Y-128000000D03*
X200400000Y-128000000D03*
X201400000Y-130000000D03*
X198400000Y-128000000D03*
X200400000Y-130000000D03*
X196400000Y-131000000D03*
X198400000Y-130000000D03*
X197400000Y-130000000D03*
X200400000Y-131000000D03*
X197400000Y-128000000D03*
X198400000Y-131000000D03*
X201400000Y-131000000D03*
X197400000Y-127000000D03*
X199400000Y-126000000D03*
X200400000Y-124000000D03*
X199400000Y-124000000D03*
X196400000Y-124000000D03*
X196400000Y-126000000D03*
X201400000Y-126000000D03*
X201400000Y-124000000D03*
X200400000Y-126000000D03*
X196400000Y-127000000D03*
X196400000Y-130000000D03*
X201400000Y-128000000D03*
X199400000Y-131000000D03*
X198400000Y-126000000D03*
X197400000Y-126000000D03*
X198400000Y-124000000D03*
X200400000Y-127000000D03*
X197400000Y-124000000D03*
X199400000Y-127000000D03*
X198400000Y-127000000D03*
X201400000Y-127000000D03*
%TO.N,VCC*%
X187700000Y-129100000D03*
X185700000Y-129100000D03*
X184700000Y-129100000D03*
X188700000Y-129100000D03*
X189700000Y-129100000D03*
X186700000Y-129100000D03*
X185700000Y-131100000D03*
X187700000Y-130100000D03*
X188700000Y-128100000D03*
X187700000Y-128100000D03*
X184700000Y-128100000D03*
X184700000Y-130100000D03*
X189700000Y-130100000D03*
X189700000Y-128100000D03*
X188700000Y-130100000D03*
X184700000Y-131100000D03*
X186700000Y-130100000D03*
X185700000Y-130100000D03*
X186700000Y-128100000D03*
X188700000Y-131100000D03*
X185700000Y-128100000D03*
X187700000Y-131100000D03*
X186700000Y-131100000D03*
X189700000Y-131100000D03*
X187700000Y-127100000D03*
X185700000Y-127100000D03*
X184700000Y-127100000D03*
X188700000Y-127100000D03*
X189700000Y-127100000D03*
X186700000Y-127100000D03*
X188700000Y-126100000D03*
X187700000Y-126100000D03*
X184700000Y-126100000D03*
X189700000Y-126100000D03*
X186700000Y-126100000D03*
X185700000Y-126100000D03*
X187700000Y-125100000D03*
X186700000Y-125100000D03*
X185700000Y-125100000D03*
X184700000Y-125100000D03*
X189700000Y-125100000D03*
X188700000Y-125100000D03*
X187700000Y-124100000D03*
X186700000Y-124100000D03*
X185700000Y-124100000D03*
X184700000Y-124100000D03*
X189700000Y-124100000D03*
X188700000Y-124100000D03*
X184500000Y-118800000D03*
X183500000Y-118800000D03*
X185500000Y-118800000D03*
X186500000Y-119800000D03*
X185500000Y-119800000D03*
X184500000Y-119800000D03*
X183500000Y-119800000D03*
X188500000Y-119800000D03*
X187500000Y-119800000D03*
X186500000Y-120800000D03*
X185500000Y-120800000D03*
X184500000Y-120800000D03*
X183500000Y-120800000D03*
X188500000Y-120800000D03*
X187500000Y-120800000D03*
X189500000Y-121800000D03*
X188500000Y-121800000D03*
X187500000Y-121800000D03*
X186500000Y-121800000D03*
X185500000Y-121800000D03*
X184500000Y-121800000D03*
%TO.N,5V_ADJ_VDD*%
X232400000Y-93100000D03*
X230500000Y-103200000D03*
%TO.N,VBAT*%
X228100000Y-97800000D03*
%TO.N,5V_1A_VDD*%
X221000000Y-71600000D03*
X209200000Y-61900000D03*
%TO.N,12V_5A_VDD*%
X160600000Y-76500000D03*
X159900000Y-59800000D03*
%TO.N,VBAT*%
X162500000Y-70500000D03*
X157500000Y-69300000D03*
%TD*%
D45*
%TO.N,12V_1A_VDD*%
X171700000Y-90175000D02*
X171700000Y-87300000D01*
%TO.N,5V_ADJ_VDD*%
X228800000Y-104900000D02*
X230500000Y-103200000D01*
X228800000Y-105700000D02*
X228800000Y-104900000D01*
%TO.N,Net-(R9-Pad2)*%
X228800000Y-109640000D02*
X227140000Y-111300000D01*
%TO.N,/5V_Regulators/V_Sense_ADJ*%
X226205000Y-107200000D02*
X226205000Y-109695000D01*
X226205000Y-109695000D02*
X224600000Y-111300000D01*
%TO.N,Net-(R9-Pad2)*%
X228800000Y-107525000D02*
X228800000Y-109640000D01*
%TO.N,Net-(U9-EN)*%
X226205000Y-101800000D02*
X228087500Y-101800000D01*
%TO.N,VBAT*%
X228100000Y-99987500D02*
X228100000Y-97800000D01*
%TO.N,Net-(U9-EN)*%
X228087500Y-101800000D02*
X228100000Y-101812500D01*
%TO.N,5V_1A_VDD*%
X209187500Y-61887500D02*
X209200000Y-61900000D01*
X209187500Y-60500000D02*
X209187500Y-61887500D01*
%TO.N,12V_5A_VDD*%
X158012500Y-59800000D02*
X159900000Y-59800000D01*
%TO.N,/12V_Regulators/V_Sense_ADJ*%
X156200000Y-59812500D02*
X156187500Y-59800000D01*
X156200000Y-62087500D02*
X156200000Y-59812500D01*
X158082500Y-62087500D02*
X158095000Y-62100000D01*
X156200000Y-62087500D02*
X158082500Y-62087500D01*
%TO.N,VBAT*%
X156200000Y-69300000D02*
X157500000Y-69300000D01*
D46*
%TO.N,Net-(U7-VCC)*%
X168585000Y-89815000D02*
X168600000Y-89800000D01*
D45*
X168585000Y-94150000D02*
X168585000Y-89815000D01*
%TO.N,Net-(U7-BOOT)*%
X167315000Y-91615000D02*
X167300000Y-91600000D01*
X167315000Y-94150000D02*
X167315000Y-91615000D01*
%TO.N,Net-(U8-VCC)*%
X213050000Y-63515000D02*
X208615000Y-63515000D01*
X208615000Y-63515000D02*
X208600000Y-63500000D01*
%TO.N,Net-(U8-BOOT)*%
X210910000Y-64785000D02*
X210900000Y-64775000D01*
X213050000Y-64785000D02*
X210910000Y-64785000D01*
%TO.N,Net-(U6-EN)*%
X158070000Y-67475000D02*
X158095000Y-67500000D01*
X156200000Y-67475000D02*
X158070000Y-67475000D01*
%TD*%
%TA.AperFunction,Conductor*%
%TO.N,VCC*%
G36*
X189012747Y-115919685D02*
G01*
X189036824Y-115939893D01*
X190167116Y-117164376D01*
X190198123Y-117226988D01*
X190200000Y-117248482D01*
X190200000Y-121300000D01*
X192269320Y-123664937D01*
X192298651Y-123728352D01*
X192300000Y-123746592D01*
X192300000Y-132950963D01*
X192280315Y-133018002D01*
X192266463Y-133035772D01*
X190836742Y-134560809D01*
X190776530Y-134596253D01*
X190746279Y-134600000D01*
X183554072Y-134600000D01*
X183487033Y-134580315D01*
X183463206Y-134560376D01*
X181933134Y-132912605D01*
X181901941Y-132850084D01*
X181900000Y-132828229D01*
X181900000Y-119033884D01*
X181919685Y-118966845D01*
X181939393Y-118943233D01*
X185164269Y-115933349D01*
X185226709Y-115901997D01*
X185248876Y-115900000D01*
X188945708Y-115900000D01*
X189012747Y-115919685D01*
G37*
%TD.AperFunction*%
%TD*%
%TA.AperFunction,Conductor*%
%TO.N,5V_ADJ_VDD*%
G36*
X228800676Y-90719685D02*
G01*
X228836811Y-90755217D01*
X229600000Y-91900000D01*
X232351517Y-91900000D01*
X232418556Y-91919685D01*
X232435624Y-91932884D01*
X233700000Y-93100000D01*
X237646116Y-93100000D01*
X237713155Y-93119685D01*
X237736766Y-93139392D01*
X239066652Y-94564270D01*
X239098003Y-94626708D01*
X239100000Y-94648875D01*
X239100000Y-96456503D01*
X239080315Y-96523542D01*
X239072828Y-96533965D01*
X237937230Y-97953462D01*
X237879979Y-97993514D01*
X237840402Y-98000000D01*
X229857032Y-98000000D01*
X229789993Y-97980315D01*
X229762884Y-97956698D01*
X229229852Y-97334827D01*
X229201169Y-97271116D01*
X229200000Y-97254129D01*
X229200000Y-95799999D01*
X227800000Y-94100000D01*
X217800000Y-94100000D01*
X215451362Y-94100000D01*
X215384323Y-94080315D01*
X215363681Y-94063681D01*
X214836319Y-93536319D01*
X214802834Y-93474996D01*
X214800000Y-93448638D01*
X214800000Y-91477253D01*
X214819685Y-91410214D01*
X214834657Y-91391266D01*
X215463415Y-90738009D01*
X215524087Y-90703359D01*
X215552755Y-90700000D01*
X228733637Y-90700000D01*
X228800676Y-90719685D01*
G37*
%TD.AperFunction*%
%TD*%
%TA.AperFunction,Conductor*%
%TO.N,Net-(D7-K)*%
G36*
X221515677Y-97419685D02*
G01*
X221536319Y-97436319D01*
X222263681Y-98163681D01*
X222297166Y-98225004D01*
X222300000Y-98251362D01*
X222300000Y-100200000D01*
X222863681Y-100763681D01*
X222897166Y-100825004D01*
X222900000Y-100851362D01*
X222900000Y-102448638D01*
X222880315Y-102515677D01*
X222863681Y-102536319D01*
X222636319Y-102763681D01*
X222574996Y-102797166D01*
X222548638Y-102800000D01*
X221851362Y-102800000D01*
X221784323Y-102780315D01*
X221763681Y-102763681D01*
X221600000Y-102600000D01*
X219500000Y-102600000D01*
X219499999Y-102600000D01*
X218737140Y-103648933D01*
X218681790Y-103691573D01*
X218636857Y-103700000D01*
X216651362Y-103700000D01*
X216584323Y-103680315D01*
X216563681Y-103663681D01*
X215636319Y-102736319D01*
X215602834Y-102674996D01*
X215600000Y-102648638D01*
X215600000Y-98347144D01*
X215619685Y-98280105D01*
X215631316Y-98264768D01*
X216363005Y-97441618D01*
X216422256Y-97404591D01*
X216455684Y-97400000D01*
X221448638Y-97400000D01*
X221515677Y-97419685D01*
G37*
%TD.AperFunction*%
%TD*%
%TA.AperFunction,Conductor*%
%TO.N,VBAT*%
G36*
X224142539Y-94369685D02*
G01*
X224174700Y-94399600D01*
X224375200Y-94666933D01*
X224399676Y-94732375D01*
X224400000Y-94741333D01*
X224400000Y-100548638D01*
X224380315Y-100615677D01*
X224363681Y-100636319D01*
X224200000Y-100799999D01*
X224200000Y-102548638D01*
X224191355Y-102578078D01*
X224184832Y-102608065D01*
X224181077Y-102613080D01*
X224180315Y-102615677D01*
X224163681Y-102636319D01*
X224036319Y-102763681D01*
X223974996Y-102797166D01*
X223948638Y-102800000D01*
X223351362Y-102800000D01*
X223284323Y-102780315D01*
X223263681Y-102763681D01*
X223136319Y-102636319D01*
X223102834Y-102574996D01*
X223100000Y-102548638D01*
X223100000Y-102495759D01*
X223101262Y-102478111D01*
X223105500Y-102448636D01*
X223105500Y-100851361D01*
X223104321Y-100829381D01*
X223101488Y-100803034D01*
X223101487Y-100803032D01*
X223100537Y-100799999D01*
X223077529Y-100726518D01*
X223044044Y-100665195D01*
X223008991Y-100618371D01*
X222636319Y-100245699D01*
X222602834Y-100184376D01*
X222600000Y-100158018D01*
X222600000Y-97000000D01*
X222300000Y-96700000D01*
X221661017Y-96700000D01*
X221633202Y-96691832D01*
X221604707Y-96686477D01*
X221597388Y-96681316D01*
X221593978Y-96680315D01*
X221575863Y-96666138D01*
X221438846Y-96536697D01*
X221403632Y-96476350D01*
X221400000Y-96446559D01*
X221400000Y-94701161D01*
X221419685Y-94634122D01*
X221430101Y-94620173D01*
X221626027Y-94393012D01*
X221684718Y-94355103D01*
X221719926Y-94350000D01*
X224075500Y-94350000D01*
X224142539Y-94369685D01*
G37*
%TD.AperFunction*%
%TD*%
%TA.AperFunction,Conductor*%
%TO.N,Net-(U9-BOOT)*%
G36*
X220821177Y-102825185D02*
G01*
X220841819Y-102841819D01*
X221063681Y-103063681D01*
X221097166Y-103125004D01*
X221100000Y-103151362D01*
X221100000Y-105700000D01*
X221500000Y-106200000D01*
X222548638Y-106200000D01*
X222615677Y-106219685D01*
X222636319Y-106236319D01*
X222863681Y-106463681D01*
X222897166Y-106525004D01*
X222900000Y-106551362D01*
X222900000Y-108048638D01*
X222891355Y-108078078D01*
X222884832Y-108108065D01*
X222881077Y-108113080D01*
X222880315Y-108115677D01*
X222863681Y-108136319D01*
X222736319Y-108263681D01*
X222674996Y-108297166D01*
X222648638Y-108300000D01*
X220151362Y-108300000D01*
X220084323Y-108280315D01*
X220063681Y-108263681D01*
X219636319Y-107836319D01*
X219602834Y-107774996D01*
X219600000Y-107748638D01*
X219600000Y-103187536D01*
X219619685Y-103120497D01*
X219620794Y-103118801D01*
X219792850Y-102860716D01*
X219846415Y-102815856D01*
X219896024Y-102805500D01*
X220754138Y-102805500D01*
X220821177Y-102825185D01*
G37*
%TD.AperFunction*%
%TD*%
%TA.AperFunction,Conductor*%
%TO.N,12V_5A_VDD*%
G36*
X149206127Y-69019685D02*
G01*
X149226223Y-69035776D01*
X149963135Y-69763590D01*
X149997000Y-69824704D01*
X150000000Y-69851814D01*
X150000000Y-71200000D01*
X153399998Y-74099999D01*
X153399999Y-74100000D01*
X153400000Y-74100000D01*
X157044775Y-74100000D01*
X157111814Y-74119685D01*
X157136943Y-74141048D01*
X157768168Y-74842409D01*
X157798384Y-74905408D01*
X157800000Y-74925361D01*
X157800000Y-75400000D01*
X158300000Y-75900000D01*
X159580000Y-75900000D01*
X159900000Y-75500000D01*
X159900000Y-74451362D01*
X159919685Y-74384323D01*
X159936319Y-74363681D01*
X160163681Y-74136319D01*
X160225004Y-74102834D01*
X160251362Y-74100000D01*
X163200000Y-74100000D01*
X163662910Y-73451926D01*
X163717894Y-73408816D01*
X163763813Y-73400000D01*
X168641239Y-73400000D01*
X168708278Y-73419685D01*
X168737207Y-73445475D01*
X169571972Y-74465743D01*
X169599188Y-74530092D01*
X169600000Y-74544263D01*
X169600000Y-80652416D01*
X169580315Y-80719455D01*
X169568170Y-80735366D01*
X168736942Y-81658953D01*
X168677465Y-81695613D01*
X168644775Y-81700000D01*
X163359598Y-81700000D01*
X163292559Y-81680315D01*
X163262770Y-81653462D01*
X160500000Y-78200000D01*
X154154072Y-78200000D01*
X154087033Y-78180315D01*
X154063206Y-78160376D01*
X153233134Y-77266451D01*
X153201941Y-77203930D01*
X153200000Y-77182075D01*
X153200000Y-76300000D01*
X152305881Y-75499999D01*
X149400000Y-72900000D01*
X149399999Y-72900000D01*
X147248234Y-72900000D01*
X147181195Y-72880315D01*
X147164444Y-72867407D01*
X146040210Y-71836859D01*
X146004093Y-71777048D01*
X146000000Y-71745452D01*
X146000000Y-69942887D01*
X146019685Y-69875848D01*
X146026497Y-69866277D01*
X146669908Y-69047390D01*
X146726804Y-69006837D01*
X146767411Y-69000000D01*
X149139088Y-69000000D01*
X149206127Y-69019685D01*
G37*
%TD.AperFunction*%
%TD*%
%TA.AperFunction,Conductor*%
%TO.N,Net-(U6-BOOT)*%
G36*
X164115677Y-61019685D02*
G01*
X164136319Y-61036319D01*
X164563681Y-61463681D01*
X164597166Y-61525004D01*
X164600000Y-61551362D01*
X164600000Y-64462456D01*
X164580315Y-64529495D01*
X164579174Y-64531239D01*
X164436811Y-64744783D01*
X164383246Y-64789644D01*
X164333637Y-64800000D01*
X163351362Y-64800000D01*
X163321921Y-64791355D01*
X163291935Y-64784832D01*
X163286919Y-64781077D01*
X163284323Y-64780315D01*
X163263681Y-64763681D01*
X163136319Y-64636319D01*
X163102834Y-64574996D01*
X163100000Y-64548638D01*
X163100000Y-63800000D01*
X162400000Y-63100000D01*
X161751362Y-63100000D01*
X161684323Y-63080315D01*
X161663681Y-63063681D01*
X161436319Y-62836319D01*
X161402834Y-62774996D01*
X161400000Y-62748638D01*
X161400000Y-61351362D01*
X161419685Y-61284323D01*
X161436319Y-61263681D01*
X161663681Y-61036319D01*
X161725004Y-61002834D01*
X161751362Y-61000000D01*
X164048638Y-61000000D01*
X164115677Y-61019685D01*
G37*
%TD.AperFunction*%
%TD*%
%TA.AperFunction,Conductor*%
%TO.N,Net-(D6-K)*%
G36*
X168615677Y-63819685D02*
G01*
X168636319Y-63836319D01*
X169063681Y-64263681D01*
X169097166Y-64325004D01*
X169100000Y-64351362D01*
X169100000Y-69254129D01*
X169080315Y-69321168D01*
X169070148Y-69334827D01*
X168537116Y-69956698D01*
X168478542Y-69994788D01*
X168442968Y-70000000D01*
X164055684Y-70000000D01*
X163988645Y-69980315D01*
X163963005Y-69958381D01*
X163337003Y-69254129D01*
X163200000Y-69100000D01*
X161958078Y-69100000D01*
X161891039Y-69080315D01*
X161862819Y-69055383D01*
X161428741Y-68534489D01*
X161400945Y-68470386D01*
X161400000Y-68455106D01*
X161400000Y-66851362D01*
X161408644Y-66821921D01*
X161415168Y-66791935D01*
X161418922Y-66786919D01*
X161419685Y-66784323D01*
X161436319Y-66763681D01*
X161563681Y-66636319D01*
X161625004Y-66602834D01*
X161651362Y-66600000D01*
X162700000Y-66600000D01*
X163000000Y-66300000D01*
X163000000Y-65351362D01*
X163019685Y-65284323D01*
X163036319Y-65263681D01*
X163258254Y-65041745D01*
X163319575Y-65008262D01*
X163346933Y-65006311D01*
X163346933Y-65005500D01*
X164333638Y-65005500D01*
X164341714Y-65004665D01*
X164375630Y-65001164D01*
X164375634Y-65001163D01*
X164378802Y-65000836D01*
X164378826Y-65001072D01*
X164392697Y-65000000D01*
X165299999Y-65000000D01*
X165300000Y-65000000D01*
X166262819Y-63844616D01*
X166320858Y-63805718D01*
X166358078Y-63800000D01*
X168548638Y-63800000D01*
X168615677Y-63819685D01*
G37*
%TD.AperFunction*%
%TD*%
%TA.AperFunction,Conductor*%
%TO.N,Net-(U7-FB)*%
G36*
X172115677Y-91319685D02*
G01*
X172136319Y-91336319D01*
X172463681Y-91663681D01*
X172497166Y-91725004D01*
X172500000Y-91751362D01*
X172500000Y-94562456D01*
X172480315Y-94629495D01*
X172479174Y-94631239D01*
X172336811Y-94844783D01*
X172283246Y-94889644D01*
X172233637Y-94900000D01*
X170800000Y-94900000D01*
X170426181Y-95086909D01*
X170370728Y-95100000D01*
X169651362Y-95100000D01*
X169584323Y-95080315D01*
X169563681Y-95063681D01*
X169336319Y-94836319D01*
X169302834Y-94774996D01*
X169300000Y-94748638D01*
X169300000Y-91751362D01*
X169319685Y-91684323D01*
X169336319Y-91663681D01*
X169663681Y-91336319D01*
X169725004Y-91302834D01*
X169751362Y-91300000D01*
X172048638Y-91300000D01*
X172115677Y-91319685D01*
G37*
%TD.AperFunction*%
%TD*%
%TA.AperFunction,Conductor*%
%TO.N,Net-(U8-FB)*%
G36*
X213629495Y-59719685D02*
G01*
X213631239Y-59720826D01*
X213844784Y-59863189D01*
X213889644Y-59916753D01*
X213900000Y-59966362D01*
X213900000Y-61400000D01*
X214061409Y-61722818D01*
X214074500Y-61778272D01*
X214074500Y-62574138D01*
X214054815Y-62641177D01*
X214038181Y-62661819D01*
X213836319Y-62863681D01*
X213774996Y-62897166D01*
X213748638Y-62900000D01*
X210751362Y-62900000D01*
X210684323Y-62880315D01*
X210663681Y-62863681D01*
X210336319Y-62536319D01*
X210302834Y-62474996D01*
X210300000Y-62448638D01*
X210300000Y-60151362D01*
X210319685Y-60084323D01*
X210336319Y-60063681D01*
X210663681Y-59736319D01*
X210725004Y-59702834D01*
X210751362Y-59700000D01*
X213562456Y-59700000D01*
X213629495Y-59719685D01*
G37*
%TD.AperFunction*%
%TD*%
%TA.AperFunction,Conductor*%
%TO.N,Net-(U8-SW)*%
G36*
X213915677Y-65519685D02*
G01*
X213936319Y-65536319D01*
X214038181Y-65638181D01*
X214071666Y-65699504D01*
X214074500Y-65725862D01*
X214074500Y-66619752D01*
X214086131Y-66678229D01*
X214090560Y-66688919D01*
X214100000Y-66736374D01*
X214100000Y-72555106D01*
X214080315Y-72622145D01*
X214071259Y-72634489D01*
X213637181Y-73155383D01*
X213579142Y-73194282D01*
X213541922Y-73200000D01*
X210966363Y-73200000D01*
X210899324Y-73180315D01*
X210863189Y-73144783D01*
X210520826Y-72631239D01*
X210500018Y-72564540D01*
X210500000Y-72562456D01*
X210500000Y-68599999D01*
X209742345Y-67937050D01*
X209704855Y-67878090D01*
X209700000Y-67843731D01*
X209700000Y-66451362D01*
X209719685Y-66384323D01*
X209736319Y-66363681D01*
X210263681Y-65836319D01*
X210325004Y-65802834D01*
X210351362Y-65800000D01*
X211500000Y-65800000D01*
X211763681Y-65536319D01*
X211825004Y-65502834D01*
X211851362Y-65500000D01*
X213848638Y-65500000D01*
X213915677Y-65519685D01*
G37*
%TD.AperFunction*%
%TD*%
%TA.AperFunction,Conductor*%
%TO.N,Net-(U7-SW)*%
G36*
X166015677Y-90419685D02*
G01*
X166036319Y-90436319D01*
X166263681Y-90663681D01*
X166297166Y-90725004D01*
X166300000Y-90751362D01*
X166300000Y-92500000D01*
X166563681Y-92763681D01*
X166597166Y-92825004D01*
X166600000Y-92851362D01*
X166600000Y-94848638D01*
X166591355Y-94878078D01*
X166584832Y-94908065D01*
X166581077Y-94913080D01*
X166580315Y-94915677D01*
X166563681Y-94936319D01*
X166436319Y-95063681D01*
X166374996Y-95097166D01*
X166348638Y-95100000D01*
X159544894Y-95100000D01*
X159477855Y-95080315D01*
X159465511Y-95071259D01*
X158944617Y-94637180D01*
X158905718Y-94579141D01*
X158900000Y-94541921D01*
X158900000Y-91145870D01*
X158919685Y-91078831D01*
X158929848Y-91065177D01*
X159462884Y-90443302D01*
X159521459Y-90405212D01*
X159557032Y-90400000D01*
X165948638Y-90400000D01*
X166015677Y-90419685D01*
G37*
%TD.AperFunction*%
%TD*%
%TA.AperFunction,Conductor*%
%TO.N,VBAT*%
G36*
X224058278Y-62469685D02*
G01*
X224087207Y-62495475D01*
X224471972Y-62965743D01*
X224499188Y-63030092D01*
X224500000Y-63044263D01*
X224500000Y-65313000D01*
X224480315Y-65380039D01*
X224450400Y-65412200D01*
X223699734Y-65975200D01*
X223634292Y-65999676D01*
X223625334Y-66000000D01*
X221942747Y-66000000D01*
X221875708Y-65980315D01*
X221848599Y-65956698D01*
X221838958Y-65945450D01*
X221371429Y-65400000D01*
X221371428Y-65400000D01*
X217851362Y-65400000D01*
X217784323Y-65380315D01*
X217763681Y-65363681D01*
X217536319Y-65136319D01*
X217502834Y-65074996D01*
X217500000Y-65048638D01*
X217500000Y-63251362D01*
X217508644Y-63221921D01*
X217515168Y-63191935D01*
X217518922Y-63186919D01*
X217519685Y-63184323D01*
X217536319Y-63163681D01*
X217663681Y-63036319D01*
X217725004Y-63002834D01*
X217751362Y-63000000D01*
X221899998Y-63000000D01*
X221900000Y-63000000D01*
X222312791Y-62495476D01*
X222370477Y-62456058D01*
X222408761Y-62450000D01*
X223991239Y-62450000D01*
X224058278Y-62469685D01*
G37*
%TD.AperFunction*%
%TD*%
%TA.AperFunction,Conductor*%
%TO.N,VBAT*%
G36*
X161015677Y-66619685D02*
G01*
X161036319Y-66636319D01*
X161158252Y-66758252D01*
X161191737Y-66819575D01*
X161193702Y-66846934D01*
X161194500Y-66846934D01*
X161194500Y-68455104D01*
X161194892Y-68467808D01*
X161195613Y-68479464D01*
X161195614Y-68479466D01*
X161195837Y-68483071D01*
X161200000Y-68500423D01*
X161200000Y-68600000D01*
X161267255Y-68660176D01*
X161270871Y-68666047D01*
X161279703Y-68676646D01*
X161279704Y-68676647D01*
X161704947Y-69186939D01*
X161726747Y-69209378D01*
X161726752Y-69209382D01*
X161726758Y-69209388D01*
X161754978Y-69234320D01*
X161833141Y-69277490D01*
X161900180Y-69297175D01*
X161957224Y-69305377D01*
X162020778Y-69334401D01*
X162022221Y-69335671D01*
X163058683Y-70263032D01*
X163095518Y-70322403D01*
X163100000Y-70355442D01*
X163100000Y-73439515D01*
X163080315Y-73506554D01*
X163061946Y-73528898D01*
X162717723Y-73859883D01*
X162655755Y-73892160D01*
X162631777Y-73894500D01*
X160257875Y-73894500D01*
X160190836Y-73874815D01*
X160158675Y-73844900D01*
X159924800Y-73533066D01*
X159900324Y-73467624D01*
X159900000Y-73458666D01*
X159900000Y-68851362D01*
X159919685Y-68784323D01*
X159936319Y-68763681D01*
X160100000Y-68600000D01*
X160100000Y-66851362D01*
X160108644Y-66821921D01*
X160115168Y-66791935D01*
X160118922Y-66786919D01*
X160119685Y-66784323D01*
X160136319Y-66763681D01*
X160263681Y-66636319D01*
X160325004Y-66602834D01*
X160351362Y-66600000D01*
X160948638Y-66600000D01*
X161015677Y-66619685D01*
G37*
%TD.AperFunction*%
%TD*%
%TA.AperFunction,Conductor*%
%TO.N,5V_1A_VDD*%
G36*
X237215677Y-68619685D02*
G01*
X237236319Y-68636319D01*
X237863681Y-69263681D01*
X237897166Y-69325004D01*
X237900000Y-69351362D01*
X237900000Y-72248638D01*
X237880315Y-72315677D01*
X237863681Y-72336319D01*
X237236319Y-72963681D01*
X237174996Y-72997166D01*
X237148638Y-73000000D01*
X228851362Y-73000000D01*
X228784323Y-72980315D01*
X228763681Y-72963681D01*
X228600000Y-72800000D01*
X221900000Y-72800000D01*
X221437090Y-73448074D01*
X221382106Y-73491184D01*
X221336187Y-73500000D01*
X218457032Y-73500000D01*
X218389993Y-73480315D01*
X218362884Y-73456698D01*
X217829852Y-72834827D01*
X217801169Y-72771116D01*
X217800000Y-72754129D01*
X217800000Y-70244893D01*
X217819685Y-70177854D01*
X217828736Y-70165516D01*
X218262819Y-69644616D01*
X218320858Y-69605718D01*
X218358078Y-69600000D01*
X225000000Y-69600000D01*
X225863057Y-68641048D01*
X225922535Y-68604387D01*
X225955225Y-68600000D01*
X237148638Y-68600000D01*
X237215677Y-68619685D01*
G37*
%TD.AperFunction*%
%TD*%
%TA.AperFunction,Conductor*%
%TO.N,VBAT*%
G36*
X185800000Y-115500000D02*
G01*
X184731906Y-115491719D01*
X184731905Y-115491719D01*
X173562742Y-115405137D01*
X173562739Y-115405138D01*
X156124916Y-126347964D01*
X156057668Y-126366925D01*
X156010886Y-126357215D01*
X153539059Y-125316446D01*
X153484912Y-125272289D01*
X153479177Y-125263087D01*
X151319290Y-121434196D01*
X151303497Y-121366134D01*
X151303903Y-121360962D01*
X151594064Y-118459356D01*
X151620321Y-118394611D01*
X151650080Y-118367594D01*
X171196529Y-105719892D01*
X171263507Y-105700001D01*
X171263892Y-105700000D01*
X180899999Y-105700000D01*
X180900000Y-105700000D01*
X185800000Y-105700000D01*
X185800000Y-115500000D01*
G37*
%TD.AperFunction*%
%TD*%
%TA.AperFunction,Conductor*%
%TO.N,VBAT*%
G36*
X185800000Y-115500000D02*
G01*
X184760106Y-115500000D01*
X184753779Y-115499838D01*
X184700000Y-115497090D01*
X184700000Y-115491472D01*
X185800000Y-115500000D01*
G37*
%TD.AperFunction*%
%TA.AperFunction,Conductor*%
G36*
X201273964Y-56877515D02*
G01*
X201300000Y-56847368D01*
X201300000Y-105720678D01*
X198849777Y-105720678D01*
X198849777Y-115500000D01*
X185800000Y-115500000D01*
X185800000Y-105700000D01*
X184700000Y-105700000D01*
X184700000Y-53500000D01*
X201273964Y-53500000D01*
X201273964Y-56877515D01*
G37*
%TD.AperFunction*%
%TD*%
%TA.AperFunction,Conductor*%
%TO.N,VBAT*%
G36*
X201510609Y-102077086D02*
G01*
X204557249Y-104708275D01*
X205453319Y-105482154D01*
X205491190Y-105540870D01*
X205491304Y-105610740D01*
X205453626Y-105669580D01*
X205390118Y-105698709D01*
X205372270Y-105700000D01*
X201429562Y-105700000D01*
X201362523Y-105680315D01*
X201316768Y-105627511D01*
X201305562Y-105576000D01*
X201305562Y-102170933D01*
X201325247Y-102103894D01*
X201378051Y-102058139D01*
X201447209Y-102048195D01*
X201510609Y-102077086D01*
G37*
%TD.AperFunction*%
%TD*%
%TA.AperFunction,Conductor*%
%TO.N,VBAT*%
G36*
X184700000Y-105700000D02*
G01*
X180900000Y-105700000D01*
X184700000Y-101300000D01*
X184700000Y-105700000D01*
G37*
%TD.AperFunction*%
%TD*%
%TA.AperFunction,Conductor*%
%TO.N,VBAT*%
G36*
X226528542Y-40649744D02*
G01*
X226595509Y-40669668D01*
X226635607Y-40711956D01*
X229080941Y-44966838D01*
X229097279Y-45034770D01*
X229097066Y-45038135D01*
X228905079Y-47533968D01*
X228880310Y-47599301D01*
X228842295Y-47632500D01*
X218452823Y-53484042D01*
X218391972Y-53500000D01*
X165529272Y-53500000D01*
X165473818Y-53486909D01*
X159503826Y-50501913D01*
X159496326Y-50497835D01*
X153953438Y-47231490D01*
X153905675Y-47180495D01*
X153893150Y-47138353D01*
X153704509Y-45440584D01*
X153716670Y-45371780D01*
X153720487Y-45364677D01*
X156564016Y-40462040D01*
X156614678Y-40413927D01*
X156671721Y-40400256D01*
X226528542Y-40649744D01*
G37*
%TD.AperFunction*%
%TD*%
%TA.AperFunction,Conductor*%
%TO.N,VBAT*%
G36*
X184700000Y-56250000D02*
G01*
X181515789Y-53500000D01*
X184700000Y-53500000D01*
X184700000Y-56250000D01*
G37*
%TD.AperFunction*%
%TD*%
%TA.AperFunction,Conductor*%
%TO.N,VBAT*%
G36*
X168815677Y-98619685D02*
G01*
X168836319Y-98636319D01*
X169063681Y-98863681D01*
X169097166Y-98925004D01*
X169100000Y-98951362D01*
X169100000Y-102050000D01*
X170120410Y-102957031D01*
X170408381Y-103213005D01*
X170445409Y-103272256D01*
X170450000Y-103305684D01*
X170450000Y-104195449D01*
X170430315Y-104262488D01*
X170409790Y-104286856D01*
X169670950Y-104964126D01*
X169608230Y-104994916D01*
X169580968Y-104996564D01*
X168285678Y-104931798D01*
X167963905Y-105396582D01*
X167909561Y-105440497D01*
X167861953Y-105450000D01*
X166789561Y-105450000D01*
X166722522Y-105430315D01*
X166687976Y-105397109D01*
X166222415Y-104732021D01*
X166200097Y-104665812D01*
X166200000Y-104660912D01*
X166200000Y-102957031D01*
X166219685Y-102889992D01*
X166243298Y-102862886D01*
X166800000Y-102385714D01*
X166800000Y-98951362D01*
X166819685Y-98884323D01*
X166836319Y-98863681D01*
X167063681Y-98636319D01*
X167125004Y-98602834D01*
X167151362Y-98600000D01*
X168748638Y-98600000D01*
X168815677Y-98619685D01*
G37*
%TD.AperFunction*%
%TD*%
%TA.AperFunction,Conductor*%
%TO.N,VBAT*%
G36*
X210016592Y-105740363D02*
G01*
X210016881Y-105740548D01*
X232382081Y-120212147D01*
X232427672Y-120265093D01*
X232438103Y-120303916D01*
X232666335Y-122586242D01*
X232653418Y-122654907D01*
X232650951Y-122659504D01*
X231170599Y-125283765D01*
X231120517Y-125332483D01*
X231110717Y-125337124D01*
X228638890Y-126377893D01*
X228569465Y-126385766D01*
X228524860Y-126368642D01*
X211087037Y-115425816D01*
X211087034Y-115425815D01*
X198922220Y-115520116D01*
X198908691Y-115519481D01*
X198849777Y-115513478D01*
X198849777Y-105720678D01*
X201300000Y-105720678D01*
X209949553Y-105720678D01*
X210016592Y-105740363D01*
G37*
%TD.AperFunction*%
%TD*%
%TA.AperFunction,Conductor*%
%TO.N,VBAT*%
G36*
X201300000Y-56847367D02*
G01*
X201300000Y-56847368D01*
X201273964Y-56877515D01*
X201273964Y-53500000D01*
X204190908Y-53500000D01*
X201300000Y-56847367D01*
G37*
%TD.AperFunction*%
%TD*%
%TA.AperFunction,Conductor*%
%TO.N,GND*%
G36*
X227413572Y-36520185D02*
G01*
X227452848Y-36560679D01*
X228269875Y-37921712D01*
X228271124Y-37923842D01*
X229233000Y-39602320D01*
X229234227Y-39604512D01*
X230161923Y-41302170D01*
X230163105Y-41304387D01*
X231056177Y-43020409D01*
X231057315Y-43022649D01*
X231845026Y-44614147D01*
X231915499Y-44756530D01*
X231916573Y-44758758D01*
X232657053Y-46334339D01*
X232739414Y-46509585D01*
X232740460Y-46511869D01*
X233527683Y-48279054D01*
X233528682Y-48281359D01*
X234279936Y-50064110D01*
X234280888Y-50066435D01*
X234995875Y-51864049D01*
X234996779Y-51866392D01*
X235675193Y-53678095D01*
X235676050Y-53680457D01*
X236317603Y-55505482D01*
X236318413Y-55507860D01*
X236922911Y-57345657D01*
X236923671Y-57348052D01*
X237490774Y-59197585D01*
X237491486Y-59199994D01*
X238021003Y-61060636D01*
X238021667Y-61063059D01*
X238513414Y-62934173D01*
X238514027Y-62936609D01*
X238967730Y-64817150D01*
X238968295Y-64819598D01*
X239383827Y-66709026D01*
X239384342Y-66711485D01*
X239761518Y-68608982D01*
X239761982Y-68611451D01*
X240100620Y-70516086D01*
X240101035Y-70518563D01*
X240401035Y-72429773D01*
X240401399Y-72432259D01*
X240662608Y-74349083D01*
X240662922Y-74351575D01*
X240885247Y-76273303D01*
X240885511Y-76275802D01*
X241068862Y-78201674D01*
X241069075Y-78204177D01*
X241213373Y-80133368D01*
X241213535Y-80135875D01*
X241318720Y-82067590D01*
X241318831Y-82070100D01*
X241384859Y-84003546D01*
X241384919Y-84006057D01*
X241411766Y-85940444D01*
X241411775Y-85942956D01*
X241399429Y-87877439D01*
X241399388Y-87879951D01*
X241347851Y-89813837D01*
X241347759Y-89816348D01*
X241257055Y-91748845D01*
X241256911Y-91751353D01*
X241127080Y-93681520D01*
X241126886Y-93684025D01*
X240957980Y-95611172D01*
X240957736Y-95613672D01*
X240749812Y-97537099D01*
X240749516Y-97539594D01*
X240502685Y-99458281D01*
X240502340Y-99460769D01*
X240216677Y-101374158D01*
X240216281Y-101376639D01*
X239891910Y-103283863D01*
X239891463Y-103286335D01*
X239528540Y-105186501D01*
X239528044Y-105188964D01*
X239126685Y-107081454D01*
X239126139Y-107083906D01*
X238686522Y-108967888D01*
X238685926Y-108970328D01*
X238208244Y-110844971D01*
X238207599Y-110847399D01*
X237692034Y-112711991D01*
X237691340Y-112714406D01*
X237138113Y-114568151D01*
X237137371Y-114570551D01*
X236546669Y-116412812D01*
X236545877Y-116415196D01*
X235918019Y-118244980D01*
X235917180Y-118247348D01*
X235252356Y-120064112D01*
X235251469Y-120066462D01*
X234549975Y-121869384D01*
X234549040Y-121871716D01*
X233811195Y-123659988D01*
X233810214Y-123662301D01*
X233036240Y-125435377D01*
X233035211Y-125437669D01*
X232225523Y-127194599D01*
X232224449Y-127196870D01*
X231379304Y-128937096D01*
X231378183Y-128939344D01*
X230497988Y-130662033D01*
X230496823Y-130664258D01*
X229581880Y-132368817D01*
X229580669Y-132371019D01*
X228631388Y-134056680D01*
X228630133Y-134058856D01*
X227824939Y-135423250D01*
X227773915Y-135470981D01*
X227718149Y-135484228D01*
X156375501Y-135484227D01*
X156308462Y-135464542D01*
X156268977Y-135423698D01*
X155474049Y-134089511D01*
X155472813Y-134087388D01*
X155287511Y-133761815D01*
X154533224Y-132436543D01*
X154532036Y-132434406D01*
X154497611Y-132371019D01*
X153625478Y-130765161D01*
X153624382Y-130763093D01*
X152751213Y-129076106D01*
X152750145Y-129073993D01*
X151910746Y-127370001D01*
X151909677Y-127367776D01*
X151104372Y-125647438D01*
X151103348Y-125645192D01*
X151041467Y-125505841D01*
X150332453Y-123909185D01*
X150331474Y-123906919D01*
X149849481Y-122760511D01*
X149595286Y-122155917D01*
X149594365Y-122153663D01*
X149275166Y-121350051D01*
X151098627Y-121350051D01*
X151098627Y-121350057D01*
X151103314Y-121412583D01*
X151119107Y-121480644D01*
X151140305Y-121535165D01*
X153300186Y-125364045D01*
X153304779Y-125371787D01*
X153310507Y-125380979D01*
X153355037Y-125431547D01*
X153392472Y-125462074D01*
X153409184Y-125475703D01*
X153409187Y-125475705D01*
X153409186Y-125475705D01*
X153449409Y-125499887D01*
X153459313Y-125505842D01*
X155931140Y-126546611D01*
X155969120Y-126558426D01*
X155969121Y-126558426D01*
X155969123Y-126558427D01*
X156015905Y-126568137D01*
X156022096Y-126569323D01*
X156113436Y-126564713D01*
X156180684Y-126545752D01*
X156234148Y-126522029D01*
X173590483Y-115630339D01*
X173657349Y-115611376D01*
X184653094Y-115696613D01*
X184659945Y-115696857D01*
X184673131Y-115697691D01*
X184689513Y-115702322D01*
X184743292Y-115705070D01*
X184748519Y-115705271D01*
X184754846Y-115705433D01*
X184760106Y-115705500D01*
X184796535Y-115705500D01*
X184800454Y-115705748D01*
X184829754Y-115716403D01*
X184859662Y-115725185D01*
X184862311Y-115728242D01*
X184866116Y-115729626D01*
X184885008Y-115754436D01*
X184905417Y-115777989D01*
X184905992Y-115781993D01*
X184908445Y-115785214D01*
X184910923Y-115816286D01*
X184915361Y-115847147D01*
X184913679Y-115850829D01*
X184914001Y-115854863D01*
X184899287Y-115882342D01*
X184886336Y-115910703D01*
X184881311Y-115915915D01*
X184881021Y-115916459D01*
X184880518Y-115916738D01*
X184877230Y-115920151D01*
X181799174Y-118793002D01*
X181781628Y-118811551D01*
X181781613Y-118811567D01*
X181761921Y-118835160D01*
X181761918Y-118835165D01*
X181722511Y-118908943D01*
X181722510Y-118908945D01*
X181702826Y-118975980D01*
X181694500Y-119033887D01*
X181694500Y-132828238D01*
X181695304Y-132846390D01*
X181697247Y-132868266D01*
X181718056Y-132941827D01*
X181749248Y-133004346D01*
X181749250Y-133004349D01*
X181782545Y-133052439D01*
X181782549Y-133052444D01*
X183312616Y-134700208D01*
X183312617Y-134700209D01*
X183331324Y-134717975D01*
X183355151Y-134737914D01*
X183429135Y-134777490D01*
X183471176Y-134789834D01*
X183496166Y-134797173D01*
X183496168Y-134797173D01*
X183496174Y-134797175D01*
X183554072Y-134805500D01*
X183554076Y-134805500D01*
X190746269Y-134805500D01*
X190746279Y-134805500D01*
X190771540Y-134803941D01*
X190801791Y-134800194D01*
X190880778Y-134773348D01*
X190940990Y-134737904D01*
X190986662Y-134701359D01*
X192416383Y-133176322D01*
X192428538Y-133162112D01*
X192442390Y-133144342D01*
X192477490Y-133075900D01*
X192497175Y-133008861D01*
X192505500Y-132950963D01*
X192505500Y-123746592D01*
X192504940Y-123731435D01*
X192503591Y-123713195D01*
X192503589Y-123713190D01*
X192503589Y-123713185D01*
X192485167Y-123642085D01*
X192485166Y-123642082D01*
X192455836Y-123578669D01*
X192455835Y-123578667D01*
X192423981Y-123529623D01*
X192423980Y-123529622D01*
X192423975Y-123529614D01*
X190971274Y-121869384D01*
X190436180Y-121257847D01*
X190406849Y-121194432D01*
X190405500Y-121176192D01*
X190405500Y-117248470D01*
X190404722Y-117230618D01*
X190404721Y-117230604D01*
X190402844Y-117209110D01*
X190402843Y-117209106D01*
X190402843Y-117209104D01*
X190382278Y-117135790D01*
X190351273Y-117073183D01*
X190351272Y-117073180D01*
X190318120Y-117024991D01*
X189292227Y-115913607D01*
X189261220Y-115850994D01*
X189268986Y-115781557D01*
X189313059Y-115727342D01*
X189379447Y-115705561D01*
X189383343Y-115705500D01*
X198771814Y-115705500D01*
X198811519Y-115712029D01*
X198816618Y-115713752D01*
X198828946Y-115717919D01*
X198874003Y-115722510D01*
X198887870Y-115723923D01*
X198899024Y-115724753D01*
X198899037Y-115724753D01*
X198899056Y-115724755D01*
X198912585Y-115725390D01*
X198923813Y-115725610D01*
X210992424Y-115632054D01*
X211059292Y-115651017D01*
X220349035Y-121480646D01*
X228415629Y-126542708D01*
X228451190Y-126560481D01*
X228451196Y-126560483D01*
X228451209Y-126560490D01*
X228495814Y-126577614D01*
X228501732Y-126579783D01*
X228592618Y-126589957D01*
X228592619Y-126589956D01*
X228592621Y-126589957D01*
X228662046Y-126582084D01*
X228718636Y-126567289D01*
X231190463Y-125526520D01*
X231198672Y-125522850D01*
X231208472Y-125518209D01*
X231263808Y-125479786D01*
X231313890Y-125431068D01*
X231349585Y-125384731D01*
X232829937Y-122760470D01*
X232832024Y-122756678D01*
X232834491Y-122752081D01*
X232855376Y-122692899D01*
X232868293Y-122624234D01*
X232870815Y-122565794D01*
X232642583Y-120283468D01*
X232636564Y-120250593D01*
X232626133Y-120211770D01*
X232583396Y-120131002D01*
X232537805Y-120078056D01*
X232493719Y-120039615D01*
X218846920Y-111209334D01*
X223679500Y-111209334D01*
X223679500Y-111390665D01*
X223714872Y-111568492D01*
X223714874Y-111568500D01*
X223784261Y-111736017D01*
X223784266Y-111736026D01*
X223885000Y-111886784D01*
X223885003Y-111886788D01*
X224013211Y-112014996D01*
X224013215Y-112014999D01*
X224163973Y-112115733D01*
X224163979Y-112115736D01*
X224163980Y-112115737D01*
X224331500Y-112185126D01*
X224509334Y-112220499D01*
X224509338Y-112220500D01*
X224509339Y-112220500D01*
X224690662Y-112220500D01*
X224690663Y-112220499D01*
X224868500Y-112185126D01*
X225036020Y-112115737D01*
X225186785Y-112014999D01*
X225314999Y-111886785D01*
X225378404Y-111791891D01*
X225389773Y-111776736D01*
X225392931Y-111770151D01*
X225415737Y-111736020D01*
X225455207Y-111640729D01*
X225457929Y-111634633D01*
X225661916Y-111209334D01*
X226219500Y-111209334D01*
X226219500Y-111390665D01*
X226254872Y-111568492D01*
X226254874Y-111568500D01*
X226324261Y-111736017D01*
X226324266Y-111736026D01*
X226425000Y-111886784D01*
X226425003Y-111886788D01*
X226553211Y-112014996D01*
X226553215Y-112014999D01*
X226703973Y-112115733D01*
X226703979Y-112115736D01*
X226703980Y-112115737D01*
X226871500Y-112185126D01*
X227049334Y-112220499D01*
X227049338Y-112220500D01*
X227049339Y-112220500D01*
X227230662Y-112220500D01*
X227230663Y-112220499D01*
X227408500Y-112185126D01*
X227576020Y-112115737D01*
X227726785Y-112014999D01*
X227854999Y-111886785D01*
X227918404Y-111791891D01*
X227929773Y-111776736D01*
X227932931Y-111770151D01*
X227955737Y-111736020D01*
X227995207Y-111640729D01*
X227997929Y-111634633D01*
X228495538Y-110597150D01*
X228519657Y-110563101D01*
X229068860Y-110013899D01*
X229068865Y-110013895D01*
X229079068Y-110003691D01*
X229079070Y-110003691D01*
X229163691Y-109919070D01*
X229223527Y-109815431D01*
X229223528Y-109815430D01*
X229254501Y-109699836D01*
X229254501Y-109580164D01*
X229254501Y-109572569D01*
X229254500Y-109572551D01*
X229254500Y-108555236D01*
X229260622Y-108516755D01*
X229449673Y-107937632D01*
X229455016Y-107911399D01*
X229459473Y-107895220D01*
X229472725Y-107857349D01*
X229475500Y-107827756D01*
X229475500Y-107222244D01*
X229474474Y-107211305D01*
X229472725Y-107192650D01*
X229429115Y-107068023D01*
X229350711Y-106961789D01*
X229350710Y-106961788D01*
X229244476Y-106883384D01*
X229119848Y-106839774D01*
X229119849Y-106839774D01*
X229090260Y-106837000D01*
X229090256Y-106837000D01*
X228509744Y-106837000D01*
X228509740Y-106837000D01*
X228480150Y-106839774D01*
X228355523Y-106883384D01*
X228249289Y-106961788D01*
X228249288Y-106961789D01*
X228170884Y-107068023D01*
X228127274Y-107192650D01*
X228124500Y-107222239D01*
X228124500Y-107827760D01*
X228127274Y-107857349D01*
X228127274Y-107857351D01*
X228143233Y-107902956D01*
X228149311Y-107929159D01*
X228150324Y-107937620D01*
X228150326Y-107937627D01*
X228339378Y-108516754D01*
X228345500Y-108555234D01*
X228345500Y-109400377D01*
X228325815Y-109467416D01*
X228309181Y-109488058D01*
X227876905Y-109920333D01*
X227842849Y-109944457D01*
X226805384Y-110442057D01*
X226805385Y-110442058D01*
X226802319Y-110443528D01*
X226703980Y-110484263D01*
X226669859Y-110507060D01*
X226663269Y-110510222D01*
X226650422Y-110516951D01*
X226649037Y-110517740D01*
X226649008Y-110517757D01*
X226646535Y-110519189D01*
X226646533Y-110519190D01*
X226646527Y-110519195D01*
X226641490Y-110523944D01*
X226625326Y-110536815D01*
X226553217Y-110584998D01*
X226553208Y-110585007D01*
X226425003Y-110713211D01*
X226425000Y-110713215D01*
X226324266Y-110863973D01*
X226324261Y-110863982D01*
X226254874Y-111031499D01*
X226254872Y-111031507D01*
X226219500Y-111209334D01*
X225661916Y-111209334D01*
X225955538Y-110597150D01*
X225979657Y-110563101D01*
X226473860Y-110068899D01*
X226473865Y-110068895D01*
X226484068Y-110058691D01*
X226484070Y-110058691D01*
X226568691Y-109974070D01*
X226628527Y-109870431D01*
X226631293Y-109860105D01*
X226635073Y-109846001D01*
X226635073Y-109845998D01*
X226659501Y-109754836D01*
X226659501Y-109635164D01*
X226659501Y-109627569D01*
X226659500Y-109627551D01*
X226659500Y-108328044D01*
X226662745Y-108302244D01*
X226662724Y-108302241D01*
X226662846Y-108301439D01*
X226663364Y-108297329D01*
X226663644Y-108296228D01*
X226663648Y-108296219D01*
X226707653Y-108009228D01*
X226708821Y-107955852D01*
X226708169Y-107949860D01*
X226708168Y-107949858D01*
X226708168Y-107949853D01*
X226707471Y-107945875D01*
X226708102Y-107945764D01*
X226705500Y-107924022D01*
X226705500Y-106405249D01*
X226705499Y-106405247D01*
X226693868Y-106346770D01*
X226693867Y-106346769D01*
X226649552Y-106280447D01*
X226583230Y-106236132D01*
X226583229Y-106236131D01*
X226524752Y-106224500D01*
X226524748Y-106224500D01*
X225885252Y-106224500D01*
X225885247Y-106224500D01*
X225826770Y-106236131D01*
X225826769Y-106236132D01*
X225760447Y-106280447D01*
X225716132Y-106346769D01*
X225716131Y-106346770D01*
X225704500Y-106405247D01*
X225704500Y-107924026D01*
X225701894Y-107945779D01*
X225702526Y-107945890D01*
X225701827Y-107949877D01*
X225701176Y-107955860D01*
X225701176Y-107955862D01*
X225702345Y-108009218D01*
X225702346Y-108009235D01*
X225746350Y-108296210D01*
X225747199Y-108299814D01*
X225750500Y-108328237D01*
X225750500Y-109455377D01*
X225730815Y-109522416D01*
X225714181Y-109543058D01*
X225336905Y-109920333D01*
X225302849Y-109944457D01*
X224265384Y-110442057D01*
X224265385Y-110442058D01*
X224262319Y-110443528D01*
X224163980Y-110484263D01*
X224129859Y-110507060D01*
X224123269Y-110510222D01*
X224110422Y-110516951D01*
X224109037Y-110517740D01*
X224109008Y-110517757D01*
X224106535Y-110519189D01*
X224106533Y-110519190D01*
X224106527Y-110519195D01*
X224101490Y-110523944D01*
X224085326Y-110536815D01*
X224013217Y-110584998D01*
X224013208Y-110585007D01*
X223885003Y-110713211D01*
X223885000Y-110713215D01*
X223784266Y-110863973D01*
X223784261Y-110863982D01*
X223714874Y-111031499D01*
X223714872Y-111031507D01*
X223679500Y-111209334D01*
X218846920Y-111209334D01*
X210128519Y-105568016D01*
X210128399Y-105567938D01*
X210127816Y-105567563D01*
X210127674Y-105567472D01*
X210127385Y-105567287D01*
X210127381Y-105567285D01*
X210127374Y-105567281D01*
X210074502Y-105543192D01*
X210074493Y-105543189D01*
X210007456Y-105523504D01*
X210007452Y-105523503D01*
X210007451Y-105523503D01*
X209949553Y-105515178D01*
X209949549Y-105515178D01*
X205781898Y-105515178D01*
X205714859Y-105495493D01*
X205669104Y-105442689D01*
X205665349Y-105433513D01*
X205663885Y-105429484D01*
X205663885Y-105429483D01*
X205626015Y-105370769D01*
X205626014Y-105370767D01*
X205587636Y-105326625D01*
X201704074Y-101972639D01*
X201704070Y-101972636D01*
X201644928Y-101921559D01*
X201595823Y-101890087D01*
X201570859Y-101878711D01*
X205149500Y-101878711D01*
X205149500Y-102121288D01*
X205181161Y-102361785D01*
X205243947Y-102596104D01*
X205336773Y-102820205D01*
X205336777Y-102820214D01*
X205341446Y-102828301D01*
X205458064Y-103030289D01*
X205458066Y-103030292D01*
X205458067Y-103030293D01*
X205605733Y-103222736D01*
X205605739Y-103222743D01*
X205777256Y-103394260D01*
X205777262Y-103394265D01*
X205969711Y-103541936D01*
X206179788Y-103663224D01*
X206403900Y-103756054D01*
X206638211Y-103818838D01*
X206801439Y-103840327D01*
X206878711Y-103850500D01*
X206878712Y-103850500D01*
X207121289Y-103850500D01*
X207169388Y-103844167D01*
X207361789Y-103818838D01*
X207596100Y-103756054D01*
X207820212Y-103663224D01*
X208030289Y-103541936D01*
X208222738Y-103394265D01*
X208394265Y-103222738D01*
X208541936Y-103030289D01*
X208663224Y-102820212D01*
X208756054Y-102596100D01*
X208818838Y-102361789D01*
X208850500Y-102121288D01*
X208850500Y-101878712D01*
X208818838Y-101638211D01*
X208756054Y-101403900D01*
X208663224Y-101179788D01*
X208541936Y-100969711D01*
X208464999Y-100869444D01*
X208394266Y-100777263D01*
X208394260Y-100777256D01*
X208222743Y-100605739D01*
X208222736Y-100605733D01*
X208030293Y-100458067D01*
X208030292Y-100458066D01*
X208030289Y-100458064D01*
X207834027Y-100344752D01*
X207820214Y-100336777D01*
X207820205Y-100336773D01*
X207596104Y-100243947D01*
X207361785Y-100181161D01*
X207121289Y-100149500D01*
X207121288Y-100149500D01*
X206878712Y-100149500D01*
X206878711Y-100149500D01*
X206638214Y-100181161D01*
X206403895Y-100243947D01*
X206179794Y-100336773D01*
X206179785Y-100336777D01*
X205969706Y-100458067D01*
X205777263Y-100605733D01*
X205777256Y-100605739D01*
X205605739Y-100777256D01*
X205605733Y-100777263D01*
X205458067Y-100969706D01*
X205336777Y-101179785D01*
X205336773Y-101179794D01*
X205243947Y-101403895D01*
X205181161Y-101638214D01*
X205149500Y-101878711D01*
X201570859Y-101878711D01*
X201567743Y-101877291D01*
X201558432Y-101870779D01*
X201543414Y-101852013D01*
X201525239Y-101836290D01*
X201521981Y-101825228D01*
X201514777Y-101816226D01*
X201512289Y-101792319D01*
X201505500Y-101769266D01*
X201505500Y-91477256D01*
X214594500Y-91477256D01*
X214594500Y-93448638D01*
X214595678Y-93470618D01*
X214598511Y-93496965D01*
X214598512Y-93496967D01*
X214622470Y-93573478D01*
X214622471Y-93573483D01*
X214636872Y-93599855D01*
X214655956Y-93634805D01*
X214655958Y-93634808D01*
X214655960Y-93634811D01*
X214690998Y-93681615D01*
X214691002Y-93681619D01*
X214691009Y-93681629D01*
X214691016Y-93681636D01*
X215218365Y-94208986D01*
X215218366Y-94208987D01*
X215234716Y-94223674D01*
X215234730Y-94223686D01*
X215234738Y-94223693D01*
X215243136Y-94230460D01*
X215255379Y-94240327D01*
X215326424Y-94277490D01*
X215393456Y-94297173D01*
X215393458Y-94297173D01*
X215393464Y-94297175D01*
X215451362Y-94305500D01*
X221161253Y-94305500D01*
X221228292Y-94325185D01*
X221274047Y-94377989D01*
X221283991Y-94447147D01*
X221260607Y-94503694D01*
X221255026Y-94511167D01*
X221222511Y-94576221D01*
X221222510Y-94576223D01*
X221202826Y-94643257D01*
X221202825Y-94643262D01*
X221202825Y-94643263D01*
X221195594Y-94693558D01*
X221194500Y-94701164D01*
X221194500Y-96446561D01*
X221196009Y-96471423D01*
X221199641Y-96501218D01*
X221226138Y-96579917D01*
X221226139Y-96579919D01*
X221226140Y-96579921D01*
X221261354Y-96640268D01*
X221297724Y-96686079D01*
X221434741Y-96815520D01*
X221449211Y-96827970D01*
X221467326Y-96842147D01*
X221467328Y-96842148D01*
X221472279Y-96845318D01*
X221472273Y-96845326D01*
X221480104Y-96850066D01*
X221486281Y-96854422D01*
X221514032Y-96866154D01*
X221536096Y-96877495D01*
X221539506Y-96878496D01*
X221539916Y-96877097D01*
X221558218Y-96884834D01*
X221558219Y-96884835D01*
X221566744Y-96888439D01*
X221566747Y-96888440D01*
X221566752Y-96888442D01*
X221566756Y-96888442D01*
X221566760Y-96888444D01*
X221579070Y-96890757D01*
X221591113Y-96893649D01*
X221603105Y-96897171D01*
X221603106Y-96897171D01*
X221603116Y-96897174D01*
X221661017Y-96905500D01*
X222163518Y-96905500D01*
X222192958Y-96914144D01*
X222222945Y-96920668D01*
X222227960Y-96924422D01*
X222230557Y-96925185D01*
X222251199Y-96941819D01*
X222358181Y-97048801D01*
X222391666Y-97110124D01*
X222394500Y-97136482D01*
X222394500Y-97704517D01*
X222374815Y-97771556D01*
X222322011Y-97817311D01*
X222252853Y-97827255D01*
X222189297Y-97798230D01*
X222182819Y-97792198D01*
X221681633Y-97291012D01*
X221665283Y-97276325D01*
X221665269Y-97276313D01*
X221644620Y-97259672D01*
X221573575Y-97222509D01*
X221506543Y-97202826D01*
X221505894Y-97202732D01*
X221448638Y-97194500D01*
X216455684Y-97194500D01*
X216455676Y-97194500D01*
X216427723Y-97196410D01*
X216394295Y-97201001D01*
X216313349Y-97230322D01*
X216313347Y-97230323D01*
X216254104Y-97267345D01*
X216209411Y-97305091D01*
X215477717Y-98128246D01*
X215467592Y-98140573D01*
X215467576Y-98140593D01*
X215458271Y-98152862D01*
X215455941Y-98155935D01*
X215422510Y-98222205D01*
X215402826Y-98289238D01*
X215400872Y-98302827D01*
X215394507Y-98347100D01*
X215394500Y-98347147D01*
X215394500Y-102648638D01*
X215395678Y-102670618D01*
X215398511Y-102696965D01*
X215398512Y-102696967D01*
X215422470Y-102773478D01*
X215422471Y-102773483D01*
X215434120Y-102794815D01*
X215455956Y-102834805D01*
X215455958Y-102834808D01*
X215455960Y-102834811D01*
X215490998Y-102881615D01*
X215491002Y-102881619D01*
X215491009Y-102881629D01*
X215491016Y-102881636D01*
X216418365Y-103808986D01*
X216418366Y-103808987D01*
X216434716Y-103823674D01*
X216434730Y-103823686D01*
X216434738Y-103823693D01*
X216443136Y-103830460D01*
X216455379Y-103840327D01*
X216526424Y-103877490D01*
X216593456Y-103897173D01*
X216593458Y-103897173D01*
X216593464Y-103897175D01*
X216651362Y-103905500D01*
X216651366Y-103905500D01*
X218636858Y-103905500D01*
X218640739Y-103905139D01*
X218674737Y-103901979D01*
X218719670Y-103893552D01*
X218724148Y-103892660D01*
X218807202Y-103854368D01*
X218862552Y-103811728D01*
X218903335Y-103769802D01*
X219170219Y-103402834D01*
X219225567Y-103360198D01*
X219295183Y-103354251D01*
X219356962Y-103386887D01*
X219391291Y-103447742D01*
X219394500Y-103475770D01*
X219394500Y-107748638D01*
X219395678Y-107770618D01*
X219398511Y-107796965D01*
X219398512Y-107796967D01*
X219415586Y-107851494D01*
X219417419Y-107857349D01*
X219422470Y-107873478D01*
X219422471Y-107873483D01*
X219434331Y-107895202D01*
X219455956Y-107934805D01*
X219455958Y-107934808D01*
X219455960Y-107934811D01*
X219490998Y-107981615D01*
X219491002Y-107981619D01*
X219491009Y-107981629D01*
X219491016Y-107981636D01*
X219918365Y-108408986D01*
X219918366Y-108408987D01*
X219934716Y-108423674D01*
X219934730Y-108423686D01*
X219934738Y-108423693D01*
X219943136Y-108430460D01*
X219955379Y-108440327D01*
X220026424Y-108477490D01*
X220093456Y-108497173D01*
X220093458Y-108497173D01*
X220093464Y-108497175D01*
X220151362Y-108505500D01*
X220151366Y-108505500D01*
X222648639Y-108505500D01*
X222651180Y-108505363D01*
X222670607Y-108504322D01*
X222670614Y-108504321D01*
X222670618Y-108504321D01*
X222696965Y-108501488D01*
X222773482Y-108477529D01*
X222834805Y-108444044D01*
X222881629Y-108408991D01*
X223008991Y-108281629D01*
X223023693Y-108265262D01*
X223040327Y-108244620D01*
X223040330Y-108244612D01*
X223043668Y-108239520D01*
X223043909Y-108239677D01*
X223048680Y-108232100D01*
X223049330Y-108231234D01*
X223061772Y-108203990D01*
X223064667Y-108198073D01*
X223071461Y-108185084D01*
X223119973Y-108134803D01*
X223187969Y-108118731D01*
X223250231Y-108139453D01*
X223286768Y-108163867D01*
X223286770Y-108163868D01*
X223345247Y-108175499D01*
X223345250Y-108175500D01*
X223345252Y-108175500D01*
X223984750Y-108175500D01*
X223984751Y-108175499D01*
X224009498Y-108170577D01*
X224043229Y-108163868D01*
X224043229Y-108163867D01*
X224043231Y-108163867D01*
X224109552Y-108119552D01*
X224153867Y-108053231D01*
X224153867Y-108053229D01*
X224153868Y-108053229D01*
X224165499Y-107994752D01*
X224165500Y-107994750D01*
X224165500Y-106405249D01*
X224165499Y-106405247D01*
X224434500Y-106405247D01*
X224434500Y-107994752D01*
X224446131Y-108053229D01*
X224446132Y-108053230D01*
X224490447Y-108119552D01*
X224556769Y-108163867D01*
X224556770Y-108163868D01*
X224615247Y-108175499D01*
X224615250Y-108175500D01*
X224615252Y-108175500D01*
X225254750Y-108175500D01*
X225254751Y-108175499D01*
X225279498Y-108170577D01*
X225313229Y-108163868D01*
X225313229Y-108163867D01*
X225313231Y-108163867D01*
X225379552Y-108119552D01*
X225423867Y-108053231D01*
X225423867Y-108053229D01*
X225423868Y-108053229D01*
X225435499Y-107994752D01*
X225435500Y-107994750D01*
X225435500Y-106405249D01*
X225435499Y-106405247D01*
X225423868Y-106346770D01*
X225423867Y-106346769D01*
X225379552Y-106280447D01*
X225313230Y-106236132D01*
X225313229Y-106236131D01*
X225254752Y-106224500D01*
X225254748Y-106224500D01*
X224615252Y-106224500D01*
X224615247Y-106224500D01*
X224556770Y-106236131D01*
X224556769Y-106236132D01*
X224490447Y-106280447D01*
X224446132Y-106346769D01*
X224446131Y-106346770D01*
X224434500Y-106405247D01*
X224165499Y-106405247D01*
X224153868Y-106346770D01*
X224153867Y-106346769D01*
X224109552Y-106280447D01*
X224043230Y-106236132D01*
X224043229Y-106236131D01*
X223984752Y-106224500D01*
X223984748Y-106224500D01*
X223345252Y-106224500D01*
X223345247Y-106224500D01*
X223286770Y-106236131D01*
X223286769Y-106236132D01*
X223220446Y-106280448D01*
X223204409Y-106304450D01*
X223150796Y-106349255D01*
X223081471Y-106357961D01*
X223018444Y-106327805D01*
X223012187Y-106321436D01*
X223012122Y-106321502D01*
X222781634Y-106091013D01*
X222781633Y-106091012D01*
X222765283Y-106076325D01*
X222765269Y-106076313D01*
X222744620Y-106059672D01*
X222673575Y-106022509D01*
X222606543Y-106002826D01*
X222605894Y-106002732D01*
X222548638Y-105994500D01*
X222548634Y-105994500D01*
X221658367Y-105994500D01*
X221591328Y-105974815D01*
X221561539Y-105947962D01*
X221332672Y-105661878D01*
X221323538Y-105639603D01*
X221310523Y-105619351D01*
X221307979Y-105601658D01*
X221306164Y-105597232D01*
X221305500Y-105584416D01*
X221305500Y-105397239D01*
X228124500Y-105397239D01*
X228124500Y-106002760D01*
X228127274Y-106032349D01*
X228170884Y-106156976D01*
X228249288Y-106263210D01*
X228249289Y-106263211D01*
X228355523Y-106341615D01*
X228355524Y-106341615D01*
X228355525Y-106341616D01*
X228480151Y-106385225D01*
X228480150Y-106385225D01*
X228509740Y-106388000D01*
X228509744Y-106388000D01*
X229090260Y-106388000D01*
X229119849Y-106385225D01*
X229244475Y-106341616D01*
X229350711Y-106263211D01*
X229429116Y-106156975D01*
X229472725Y-106032349D01*
X229473648Y-106022509D01*
X229475500Y-106002760D01*
X229475500Y-105397239D01*
X229472725Y-105367651D01*
X229458369Y-105326625D01*
X229448701Y-105298995D01*
X229443482Y-105272467D01*
X229365515Y-105083128D01*
X229364999Y-105081781D01*
X229362292Y-105048376D01*
X229358783Y-105015083D01*
X229359482Y-105013692D01*
X229359357Y-105012139D01*
X229375141Y-104982572D01*
X229390188Y-104952669D01*
X229392236Y-104950550D01*
X229392262Y-104950503D01*
X229392306Y-104950478D01*
X229393056Y-104949703D01*
X230372689Y-103970069D01*
X230399398Y-103949778D01*
X230401664Y-103948499D01*
X230792862Y-103611959D01*
X230792865Y-103611955D01*
X230795067Y-103610061D01*
X230801119Y-103605776D01*
X230800866Y-103605447D01*
X230807306Y-103600504D01*
X230807314Y-103600500D01*
X230900500Y-103507314D01*
X230966392Y-103393186D01*
X231000500Y-103265892D01*
X231000500Y-103134108D01*
X230966392Y-103006814D01*
X230965633Y-103005500D01*
X230953488Y-102984463D01*
X230900500Y-102892686D01*
X230807314Y-102799500D01*
X230730252Y-102755008D01*
X230693187Y-102733608D01*
X230629539Y-102716554D01*
X230565892Y-102699500D01*
X230434108Y-102699500D01*
X230306812Y-102733608D01*
X230192686Y-102799500D01*
X230099498Y-102892687D01*
X230094554Y-102899131D01*
X230094230Y-102898882D01*
X230089941Y-102904927D01*
X229751500Y-103298333D01*
X229748848Y-103302831D01*
X229729724Y-103327514D01*
X228520932Y-104536307D01*
X228436311Y-104620927D01*
X228436307Y-104620933D01*
X228377083Y-104723511D01*
X228377082Y-104723513D01*
X228376473Y-104724569D01*
X228376473Y-104724570D01*
X228345499Y-104840164D01*
X228345499Y-104896702D01*
X228343487Y-104907735D01*
X228337029Y-104920573D01*
X228331845Y-104942054D01*
X228197349Y-105204425D01*
X228186778Y-105221486D01*
X228170882Y-105243026D01*
X228127274Y-105367648D01*
X228127274Y-105367650D01*
X228124500Y-105397239D01*
X221305500Y-105397239D01*
X221305500Y-103151361D01*
X221304321Y-103129381D01*
X221301488Y-103103034D01*
X221301487Y-103103032D01*
X221293489Y-103077490D01*
X221277529Y-103026518D01*
X221257002Y-102988926D01*
X221256031Y-102984463D01*
X221253040Y-102981011D01*
X221248672Y-102950639D01*
X221242150Y-102920656D01*
X221243746Y-102916375D01*
X221243096Y-102911853D01*
X221255841Y-102883943D01*
X221266565Y-102855191D01*
X221270223Y-102852452D01*
X221272121Y-102848297D01*
X221297931Y-102831709D01*
X221322498Y-102813319D01*
X221328129Y-102812302D01*
X221330899Y-102810523D01*
X221365834Y-102805500D01*
X221463518Y-102805500D01*
X221530557Y-102825185D01*
X221551194Y-102841814D01*
X221590995Y-102881615D01*
X221618375Y-102908995D01*
X221634716Y-102923674D01*
X221634730Y-102923686D01*
X221634738Y-102923693D01*
X221643136Y-102930460D01*
X221655379Y-102940327D01*
X221726424Y-102977490D01*
X221793456Y-102997173D01*
X221793458Y-102997173D01*
X221793464Y-102997175D01*
X221851362Y-103005500D01*
X221851366Y-103005500D01*
X222548639Y-103005500D01*
X222551180Y-103005363D01*
X222570607Y-103004322D01*
X222570614Y-103004321D01*
X222570618Y-103004321D01*
X222596965Y-103001488D01*
X222673482Y-102977529D01*
X222734805Y-102944044D01*
X222781629Y-102908991D01*
X222862320Y-102828299D01*
X222923639Y-102794815D01*
X222993331Y-102799799D01*
X223037678Y-102828298D01*
X223082599Y-102873219D01*
X223118375Y-102908995D01*
X223134716Y-102923674D01*
X223134730Y-102923686D01*
X223134738Y-102923693D01*
X223143136Y-102930460D01*
X223155379Y-102940327D01*
X223226424Y-102977490D01*
X223293456Y-102997173D01*
X223293458Y-102997173D01*
X223293464Y-102997175D01*
X223351362Y-103005500D01*
X223351366Y-103005500D01*
X223948639Y-103005500D01*
X223951180Y-103005363D01*
X223970607Y-103004322D01*
X223970614Y-103004321D01*
X223970618Y-103004321D01*
X223996965Y-103001488D01*
X224073482Y-102977529D01*
X224134805Y-102944044D01*
X224181629Y-102908991D01*
X224308991Y-102781629D01*
X224323693Y-102765262D01*
X224340327Y-102744620D01*
X224340330Y-102744612D01*
X224343668Y-102739520D01*
X224343909Y-102739677D01*
X224348680Y-102732100D01*
X224349330Y-102731234D01*
X224363141Y-102700993D01*
X224377502Y-102673535D01*
X224378264Y-102670938D01*
X224377034Y-102670577D01*
X224385636Y-102651745D01*
X224389655Y-102633263D01*
X224391844Y-102624688D01*
X224397175Y-102606538D01*
X224405500Y-102548638D01*
X224405500Y-101005247D01*
X225704500Y-101005247D01*
X225704500Y-102594752D01*
X225716131Y-102653229D01*
X225716132Y-102653230D01*
X225760447Y-102719552D01*
X225826769Y-102763867D01*
X225826770Y-102763868D01*
X225885247Y-102775499D01*
X225885250Y-102775500D01*
X225885252Y-102775500D01*
X226524750Y-102775500D01*
X226524751Y-102775499D01*
X226539568Y-102772552D01*
X226583229Y-102763868D01*
X226583229Y-102763867D01*
X226583231Y-102763867D01*
X226649552Y-102719552D01*
X226693867Y-102653231D01*
X226693867Y-102653229D01*
X226693868Y-102653229D01*
X226705499Y-102594752D01*
X226705500Y-102594750D01*
X226705500Y-102383594D01*
X226714791Y-102351951D01*
X226723051Y-102319996D01*
X226724593Y-102318568D01*
X226725185Y-102316555D01*
X226750101Y-102294964D01*
X226774333Y-102272542D01*
X226776925Y-102271721D01*
X226777989Y-102270800D01*
X226807855Y-102261498D01*
X226809295Y-102261242D01*
X226826218Y-102258648D01*
X226829042Y-102257741D01*
X226836589Y-102256404D01*
X226839285Y-102256702D01*
X226858234Y-102254500D01*
X227077861Y-102254500D01*
X227120548Y-102262079D01*
X227140722Y-102269476D01*
X227692429Y-102471765D01*
X227722936Y-102478592D01*
X227736790Y-102482551D01*
X227780151Y-102497725D01*
X227794947Y-102499112D01*
X227809740Y-102500500D01*
X227809744Y-102500500D01*
X228390260Y-102500500D01*
X228419849Y-102497725D01*
X228445252Y-102488836D01*
X228544475Y-102454116D01*
X228650711Y-102375711D01*
X228729116Y-102269475D01*
X228772725Y-102144849D01*
X228775500Y-102115260D01*
X228775500Y-101509739D01*
X228772725Y-101480150D01*
X228729115Y-101355523D01*
X228650711Y-101249289D01*
X228650710Y-101249288D01*
X228544476Y-101170884D01*
X228419848Y-101127274D01*
X228419849Y-101127274D01*
X228390260Y-101124500D01*
X228390256Y-101124500D01*
X227809744Y-101124500D01*
X227809740Y-101124500D01*
X227780156Y-101127274D01*
X227780150Y-101127275D01*
X227734305Y-101143316D01*
X227708111Y-101149392D01*
X227699611Y-101150410D01*
X227699604Y-101150412D01*
X227368621Y-101258459D01*
X227121983Y-101338972D01*
X227120739Y-101339378D01*
X227118300Y-101339765D01*
X227117194Y-101340477D01*
X227082259Y-101345500D01*
X226858044Y-101345500D01*
X226832241Y-101342253D01*
X226832238Y-101342275D01*
X226831444Y-101342153D01*
X226827325Y-101341635D01*
X226826225Y-101341353D01*
X226826221Y-101341352D01*
X226826215Y-101341351D01*
X226810702Y-101338972D01*
X226747421Y-101309352D01*
X226710200Y-101250222D01*
X226705500Y-101216405D01*
X226705500Y-101005249D01*
X226705499Y-101005247D01*
X226693868Y-100946770D01*
X226693867Y-100946769D01*
X226649552Y-100880447D01*
X226583230Y-100836132D01*
X226583229Y-100836131D01*
X226524752Y-100824500D01*
X226524748Y-100824500D01*
X225885252Y-100824500D01*
X225885247Y-100824500D01*
X225826770Y-100836131D01*
X225826769Y-100836132D01*
X225760447Y-100880447D01*
X225716132Y-100946769D01*
X225716131Y-100946770D01*
X225704500Y-101005247D01*
X224405500Y-101005247D01*
X224405500Y-100936483D01*
X224425185Y-100869444D01*
X224441819Y-100848802D01*
X224468256Y-100822364D01*
X224508991Y-100781630D01*
X224523693Y-100765262D01*
X224523698Y-100765254D01*
X224523704Y-100765249D01*
X224540325Y-100744623D01*
X224540325Y-100744622D01*
X224540327Y-100744620D01*
X224577490Y-100673575D01*
X224597175Y-100606536D01*
X224605500Y-100548638D01*
X224605500Y-99684744D01*
X227424500Y-99684744D01*
X227424500Y-99695190D01*
X227424500Y-100290260D01*
X227427274Y-100319849D01*
X227470884Y-100444476D01*
X227549288Y-100550710D01*
X227549289Y-100550711D01*
X227655523Y-100629115D01*
X227655524Y-100629115D01*
X227655525Y-100629116D01*
X227780151Y-100672725D01*
X227780150Y-100672725D01*
X227809740Y-100675500D01*
X227809744Y-100675500D01*
X228390260Y-100675500D01*
X228419849Y-100672725D01*
X228544475Y-100629116D01*
X228650711Y-100550711D01*
X228729116Y-100444475D01*
X228772725Y-100319849D01*
X228775500Y-100290256D01*
X228775500Y-99684744D01*
X228772725Y-99655151D01*
X228756763Y-99609537D01*
X228750685Y-99583331D01*
X228749672Y-99574867D01*
X228560621Y-98995745D01*
X228554500Y-98957265D01*
X228554500Y-98434552D01*
X228559037Y-98401317D01*
X228559240Y-98400584D01*
X228559736Y-98398803D01*
X228598385Y-97884214D01*
X228598384Y-97884213D01*
X228598603Y-97881311D01*
X228599846Y-97874009D01*
X228599439Y-97873956D01*
X228600500Y-97865896D01*
X228600500Y-97734110D01*
X228600500Y-97734108D01*
X228566392Y-97606814D01*
X228500500Y-97492686D01*
X228407314Y-97399500D01*
X228331052Y-97355470D01*
X228293187Y-97333608D01*
X228229539Y-97316554D01*
X228165892Y-97299500D01*
X228034108Y-97299500D01*
X227906812Y-97333608D01*
X227792686Y-97399500D01*
X227792683Y-97399502D01*
X227699502Y-97492683D01*
X227699500Y-97492686D01*
X227633608Y-97606812D01*
X227599500Y-97734108D01*
X227599500Y-97865891D01*
X227600561Y-97873953D01*
X227600157Y-97874006D01*
X227601395Y-97881304D01*
X227625055Y-98196305D01*
X227640264Y-98398803D01*
X227641565Y-98403846D01*
X227645500Y-98434832D01*
X227645500Y-98957264D01*
X227639378Y-98995745D01*
X227450327Y-99574864D01*
X227444984Y-99601093D01*
X227444675Y-99602211D01*
X227444639Y-99602726D01*
X227443024Y-99610138D01*
X227427275Y-99655151D01*
X227424500Y-99684744D01*
X224605500Y-99684744D01*
X224605500Y-94741333D01*
X224605366Y-94733905D01*
X224605042Y-94724947D01*
X224592154Y-94660386D01*
X224567678Y-94594944D01*
X224539600Y-94543633D01*
X224509799Y-94503899D01*
X224485324Y-94438458D01*
X224500114Y-94370171D01*
X224549475Y-94320721D01*
X224609000Y-94305500D01*
X227644501Y-94305500D01*
X227711540Y-94325185D01*
X227740218Y-94350670D01*
X228966219Y-95839384D01*
X228993642Y-95903647D01*
X228994500Y-95918211D01*
X228994500Y-97254126D01*
X228994985Y-97268249D01*
X228996153Y-97285223D01*
X228996154Y-97285229D01*
X229013780Y-97355470D01*
X229013784Y-97355483D01*
X229042466Y-97419190D01*
X229073824Y-97468565D01*
X229073826Y-97468567D01*
X229606853Y-98090432D01*
X229627893Y-98111642D01*
X229627897Y-98111646D01*
X229655002Y-98135260D01*
X229655005Y-98135262D01*
X229732094Y-98177490D01*
X229799126Y-98197173D01*
X229799128Y-98197173D01*
X229799134Y-98197175D01*
X229857032Y-98205500D01*
X229857036Y-98205500D01*
X237840409Y-98205500D01*
X237855626Y-98204260D01*
X237873637Y-98202795D01*
X237913214Y-98196309D01*
X237913224Y-98196305D01*
X237997770Y-98161903D01*
X237997772Y-98161901D01*
X237997779Y-98161899D01*
X238055030Y-98121847D01*
X238097699Y-98081837D01*
X239233297Y-96662340D01*
X239239732Y-96653854D01*
X239247219Y-96643431D01*
X239277490Y-96581440D01*
X239297175Y-96514401D01*
X239305500Y-96456503D01*
X239305500Y-94648875D01*
X239304671Y-94630436D01*
X239302674Y-94608269D01*
X239281652Y-94534495D01*
X239250301Y-94472057D01*
X239216884Y-94424054D01*
X239216882Y-94424051D01*
X238277252Y-93417305D01*
X237886998Y-92999176D01*
X237868447Y-92981625D01*
X237844836Y-92961918D01*
X237844837Y-92961918D01*
X237844834Y-92961916D01*
X237771058Y-92922511D01*
X237771055Y-92922510D01*
X237704025Y-92902827D01*
X237704016Y-92902825D01*
X237704014Y-92902825D01*
X237646116Y-92894500D01*
X237646112Y-92894500D01*
X233828830Y-92894500D01*
X233761791Y-92874815D01*
X233744723Y-92861616D01*
X233160790Y-92322601D01*
X232575011Y-91781882D01*
X232575003Y-91781875D01*
X232574993Y-91781866D01*
X232561339Y-91770322D01*
X232544274Y-91757125D01*
X232544270Y-91757123D01*
X232544269Y-91757122D01*
X232476454Y-91722510D01*
X232476453Y-91722509D01*
X232409426Y-91702827D01*
X232409417Y-91702825D01*
X232409415Y-91702825D01*
X232351517Y-91694500D01*
X232351513Y-91694500D01*
X229776343Y-91694500D01*
X229709304Y-91674815D01*
X229673169Y-91639283D01*
X229007800Y-90641230D01*
X229007798Y-90641228D01*
X229007797Y-90641226D01*
X228980894Y-90608689D01*
X228944759Y-90573157D01*
X228938391Y-90567157D01*
X228938389Y-90567155D01*
X228938388Y-90567154D01*
X228878528Y-90533671D01*
X228858574Y-90522510D01*
X228858573Y-90522509D01*
X228858572Y-90522509D01*
X228791540Y-90502826D01*
X228791536Y-90502825D01*
X228791535Y-90502825D01*
X228733637Y-90494500D01*
X215552755Y-90494500D01*
X215552731Y-90494500D01*
X215528855Y-90495894D01*
X215528820Y-90495897D01*
X215500173Y-90499254D01*
X215500171Y-90499255D01*
X215422172Y-90524910D01*
X215361509Y-90559554D01*
X215361499Y-90559562D01*
X215315351Y-90595503D01*
X214686631Y-91248720D01*
X214686581Y-91248775D01*
X214673418Y-91263860D01*
X214658448Y-91282805D01*
X214622509Y-91352316D01*
X214602826Y-91419347D01*
X214602825Y-91419355D01*
X214599163Y-91444827D01*
X214594500Y-91477256D01*
X201505500Y-91477256D01*
X201505500Y-71378711D01*
X205149500Y-71378711D01*
X205149500Y-71621288D01*
X205181161Y-71861785D01*
X205243947Y-72096104D01*
X205307127Y-72248634D01*
X205336776Y-72320212D01*
X205458064Y-72530289D01*
X205458066Y-72530292D01*
X205458067Y-72530293D01*
X205605733Y-72722736D01*
X205605739Y-72722743D01*
X205777256Y-72894260D01*
X205777263Y-72894266D01*
X205809745Y-72919190D01*
X205969711Y-73041936D01*
X206179788Y-73163224D01*
X206403900Y-73256054D01*
X206638211Y-73318838D01*
X206794398Y-73339400D01*
X206878711Y-73350500D01*
X206878712Y-73350500D01*
X207121289Y-73350500D01*
X207169388Y-73344167D01*
X207361789Y-73318838D01*
X207596100Y-73256054D01*
X207820212Y-73163224D01*
X208030289Y-73041936D01*
X208222738Y-72894265D01*
X208394265Y-72722738D01*
X208541936Y-72530289D01*
X208663224Y-72320212D01*
X208756054Y-72096100D01*
X208818838Y-71861789D01*
X208850500Y-71621288D01*
X208850500Y-71378712D01*
X208818838Y-71138211D01*
X208756054Y-70903900D01*
X208663224Y-70679788D01*
X208541936Y-70469711D01*
X208454261Y-70355450D01*
X208394266Y-70277263D01*
X208394260Y-70277256D01*
X208222743Y-70105739D01*
X208222736Y-70105733D01*
X208030293Y-69958067D01*
X208030292Y-69958066D01*
X208030289Y-69958064D01*
X207820212Y-69836776D01*
X207820205Y-69836773D01*
X207596104Y-69743947D01*
X207433955Y-69700499D01*
X207361789Y-69681162D01*
X207361788Y-69681161D01*
X207361785Y-69681161D01*
X207121289Y-69649500D01*
X207121288Y-69649500D01*
X206878712Y-69649500D01*
X206878711Y-69649500D01*
X206638214Y-69681161D01*
X206403895Y-69743947D01*
X206179794Y-69836773D01*
X206179785Y-69836777D01*
X205969706Y-69958067D01*
X205777263Y-70105733D01*
X205777256Y-70105739D01*
X205605739Y-70277256D01*
X205605733Y-70277263D01*
X205458067Y-70469706D01*
X205336777Y-70679785D01*
X205336773Y-70679794D01*
X205243947Y-70903895D01*
X205181161Y-71138214D01*
X205149500Y-71378711D01*
X201505500Y-71378711D01*
X201505500Y-63209739D01*
X207862000Y-63209739D01*
X207862000Y-63790260D01*
X207864774Y-63819849D01*
X207908384Y-63944476D01*
X207986788Y-64050710D01*
X207986789Y-64050711D01*
X208093023Y-64129115D01*
X208093024Y-64129115D01*
X208093025Y-64129116D01*
X208217651Y-64172725D01*
X208217650Y-64172725D01*
X208247240Y-64175500D01*
X208247244Y-64175500D01*
X208952760Y-64175500D01*
X208964593Y-64174390D01*
X208982349Y-64172725D01*
X209023584Y-64158295D01*
X209052502Y-64151923D01*
X209057655Y-64151421D01*
X209641874Y-63974805D01*
X209677757Y-63969500D01*
X210245575Y-63969500D01*
X210312614Y-63989185D01*
X210358369Y-64041989D01*
X210368313Y-64111147D01*
X210345345Y-64167131D01*
X210301515Y-64226521D01*
X210270884Y-64268025D01*
X210227274Y-64392650D01*
X210224500Y-64422239D01*
X210224500Y-65127760D01*
X210227274Y-65157349D01*
X210270884Y-65281976D01*
X210349288Y-65388210D01*
X210353595Y-65392517D01*
X210387080Y-65453840D01*
X210382096Y-65523532D01*
X210340224Y-65579465D01*
X210302968Y-65598532D01*
X210226521Y-65622469D01*
X210226516Y-65622471D01*
X210165188Y-65655960D01*
X210118384Y-65690998D01*
X210118363Y-65691016D01*
X209591013Y-66218365D01*
X209591012Y-66218366D01*
X209576325Y-66234716D01*
X209576313Y-66234730D01*
X209559672Y-66255379D01*
X209522509Y-66326424D01*
X209502826Y-66393456D01*
X209502825Y-66393464D01*
X209494500Y-66451362D01*
X209494500Y-67843731D01*
X209496521Y-67872483D01*
X209496522Y-67872496D01*
X209501374Y-67906835D01*
X209501375Y-67906840D01*
X209531442Y-67988354D01*
X209531443Y-67988356D01*
X209568927Y-68047307D01*
X209568932Y-68047314D01*
X209579781Y-68059958D01*
X209607022Y-68091704D01*
X210063375Y-68491013D01*
X210252155Y-68656196D01*
X210289645Y-68715155D01*
X210294500Y-68749515D01*
X210294500Y-72562429D01*
X210294508Y-72564345D01*
X210294525Y-72566307D01*
X210303843Y-72625744D01*
X210324651Y-72692441D01*
X210349838Y-72745228D01*
X210449197Y-72894266D01*
X210692203Y-73258774D01*
X210692205Y-73258776D01*
X210692214Y-73258788D01*
X210719104Y-73291309D01*
X210755234Y-73326836D01*
X210761610Y-73332844D01*
X210761611Y-73332845D01*
X210793175Y-73350500D01*
X210841426Y-73377490D01*
X210908465Y-73397175D01*
X210966363Y-73405500D01*
X210966367Y-73405500D01*
X213541922Y-73405500D01*
X213573126Y-73403117D01*
X213610346Y-73397399D01*
X213693553Y-73364988D01*
X213751592Y-73326089D01*
X213795051Y-73286941D01*
X214229129Y-72766047D01*
X214236951Y-72756047D01*
X214246007Y-72743703D01*
X214277490Y-72680043D01*
X214297175Y-72613004D01*
X214305500Y-72555106D01*
X214305500Y-70244896D01*
X217594500Y-70244896D01*
X217594500Y-72754126D01*
X217594985Y-72768249D01*
X217596153Y-72785223D01*
X217596154Y-72785229D01*
X217613780Y-72855470D01*
X217613784Y-72855483D01*
X217642466Y-72919190D01*
X217673824Y-72968565D01*
X217673826Y-72968567D01*
X218206853Y-73590432D01*
X218227893Y-73611642D01*
X218227897Y-73611646D01*
X218255002Y-73635260D01*
X218255005Y-73635262D01*
X218332094Y-73677490D01*
X218399126Y-73697173D01*
X218399128Y-73697173D01*
X218399134Y-73697175D01*
X218457032Y-73705500D01*
X218457036Y-73705500D01*
X221336182Y-73705500D01*
X221336187Y-73705500D01*
X221374933Y-73701814D01*
X221420852Y-73692998D01*
X221426177Y-73691903D01*
X221508901Y-73652903D01*
X221563885Y-73609793D01*
X221604312Y-73567518D01*
X221968662Y-73057426D01*
X222023646Y-73014316D01*
X222069565Y-73005500D01*
X228463518Y-73005500D01*
X228530557Y-73025185D01*
X228551194Y-73041814D01*
X228586870Y-73077490D01*
X228618375Y-73108995D01*
X228634716Y-73123674D01*
X228634730Y-73123686D01*
X228634738Y-73123693D01*
X228636590Y-73125185D01*
X228655379Y-73140327D01*
X228726424Y-73177490D01*
X228793456Y-73197173D01*
X228793458Y-73197173D01*
X228793464Y-73197175D01*
X228851362Y-73205500D01*
X228851366Y-73205500D01*
X237148639Y-73205500D01*
X237151180Y-73205363D01*
X237170607Y-73204322D01*
X237170614Y-73204321D01*
X237170618Y-73204321D01*
X237196965Y-73201488D01*
X237273482Y-73177529D01*
X237334805Y-73144044D01*
X237381629Y-73108991D01*
X238008991Y-72481629D01*
X238023693Y-72465262D01*
X238040327Y-72444620D01*
X238077490Y-72373575D01*
X238097175Y-72306536D01*
X238105500Y-72248638D01*
X238105500Y-69351362D01*
X238104322Y-69329393D01*
X238101488Y-69303035D01*
X238077529Y-69226518D01*
X238044044Y-69165195D01*
X238008991Y-69118371D01*
X237705019Y-68814399D01*
X237381634Y-68491013D01*
X237381633Y-68491012D01*
X237365283Y-68476325D01*
X237365269Y-68476313D01*
X237364260Y-68475500D01*
X237352612Y-68466113D01*
X237344620Y-68459672D01*
X237273575Y-68422509D01*
X237206543Y-68402826D01*
X237205894Y-68402732D01*
X237148638Y-68394500D01*
X225955225Y-68394500D01*
X225955222Y-68394500D01*
X225927889Y-68396326D01*
X225927882Y-68396327D01*
X225895210Y-68400711D01*
X225895203Y-68400712D01*
X225895202Y-68400713D01*
X225854954Y-68415081D01*
X225814706Y-68429449D01*
X225755229Y-68466110D01*
X225755225Y-68466113D01*
X225710314Y-68503571D01*
X225710303Y-68503582D01*
X224945421Y-69353452D01*
X224885943Y-69390113D01*
X224853253Y-69394500D01*
X218358078Y-69394500D01*
X218326874Y-69396883D01*
X218326872Y-69396883D01*
X218326865Y-69396884D01*
X218289654Y-69402600D01*
X218289651Y-69402601D01*
X218206453Y-69435009D01*
X218206443Y-69435014D01*
X218148413Y-69473906D01*
X218148410Y-69473909D01*
X218104949Y-69513058D01*
X218104947Y-69513059D01*
X218104944Y-69513063D01*
X217670869Y-70033953D01*
X217663039Y-70043963D01*
X217653992Y-70056296D01*
X217653988Y-70056303D01*
X217622511Y-70119952D01*
X217602826Y-70186989D01*
X217602825Y-70186994D01*
X217602825Y-70186995D01*
X217600477Y-70203329D01*
X217594500Y-70244896D01*
X214305500Y-70244896D01*
X214305500Y-66736374D01*
X214301551Y-66696280D01*
X214295181Y-66664259D01*
X214292113Y-66648833D01*
X214289628Y-66640643D01*
X214287190Y-66632607D01*
X214284236Y-66620816D01*
X214282379Y-66611477D01*
X214280000Y-66587304D01*
X214280000Y-65725861D01*
X214278821Y-65703881D01*
X214275988Y-65677534D01*
X214275987Y-65677532D01*
X214258746Y-65622471D01*
X214252029Y-65601018D01*
X214218544Y-65539695D01*
X214206565Y-65523693D01*
X214183501Y-65492884D01*
X214183498Y-65492881D01*
X214183491Y-65492871D01*
X214081629Y-65391009D01*
X214081628Y-65391008D01*
X214081624Y-65391004D01*
X214065283Y-65376325D01*
X214065269Y-65376313D01*
X214044618Y-65359671D01*
X214039531Y-65356338D01*
X214040565Y-65354759D01*
X213996606Y-65312337D01*
X213980543Y-65244339D01*
X214001264Y-65182093D01*
X214013867Y-65163231D01*
X214013868Y-65163229D01*
X214025499Y-65104752D01*
X214025500Y-65104750D01*
X214025500Y-64465249D01*
X214025499Y-64465247D01*
X214013868Y-64406770D01*
X214013867Y-64406769D01*
X213969552Y-64340447D01*
X213903230Y-64296132D01*
X213903229Y-64296131D01*
X213844752Y-64284500D01*
X213844748Y-64284500D01*
X212325974Y-64284500D01*
X212317275Y-64281945D01*
X212308304Y-64283234D01*
X212304113Y-64282425D01*
X212304096Y-64282524D01*
X212300116Y-64281826D01*
X212294125Y-64281175D01*
X212240779Y-64282345D01*
X212240760Y-64282346D01*
X211948924Y-64327096D01*
X211948765Y-64326063D01*
X211932550Y-64325180D01*
X211911558Y-64328862D01*
X211887785Y-64322743D01*
X211884064Y-64322541D01*
X211882439Y-64321367D01*
X211878058Y-64320240D01*
X211836420Y-64303034D01*
X211606686Y-64208100D01*
X211552247Y-64164305D01*
X211530127Y-64098030D01*
X211547349Y-64030316D01*
X211598446Y-63982663D01*
X211654044Y-63969500D01*
X211921958Y-63969500D01*
X211932606Y-63970839D01*
X211935815Y-63970277D01*
X211939101Y-63971656D01*
X211947756Y-63972745D01*
X211947760Y-63972725D01*
X211948536Y-63972843D01*
X211952677Y-63973365D01*
X211953769Y-63973643D01*
X211953781Y-63973648D01*
X212133542Y-64001211D01*
X212240763Y-64017652D01*
X212240767Y-64017652D01*
X212240771Y-64017653D01*
X212246701Y-64017782D01*
X212294131Y-64018821D01*
X212294135Y-64018820D01*
X212294147Y-64018821D01*
X212300139Y-64018169D01*
X212300140Y-64018168D01*
X212300146Y-64018168D01*
X212304131Y-64017470D01*
X212304242Y-64018107D01*
X212325978Y-64015500D01*
X213844750Y-64015500D01*
X213844751Y-64015499D01*
X213859568Y-64012552D01*
X213903229Y-64003868D01*
X213903229Y-64003867D01*
X213903231Y-64003867D01*
X213969552Y-63959552D01*
X214013867Y-63893231D01*
X214013867Y-63893229D01*
X214013868Y-63893229D01*
X214025499Y-63834752D01*
X214025500Y-63834750D01*
X214025500Y-63259849D01*
X214025500Y-63251359D01*
X217294500Y-63251359D01*
X217294500Y-65048638D01*
X217295678Y-65070618D01*
X217298511Y-65096965D01*
X217298512Y-65096967D01*
X217310331Y-65134712D01*
X217317419Y-65157349D01*
X217322470Y-65173478D01*
X217322471Y-65173483D01*
X217327173Y-65182093D01*
X217355956Y-65234805D01*
X217355958Y-65234808D01*
X217355960Y-65234811D01*
X217390998Y-65281615D01*
X217391002Y-65281619D01*
X217391009Y-65281629D01*
X217391016Y-65281636D01*
X217618365Y-65508986D01*
X217618366Y-65508987D01*
X217634716Y-65523674D01*
X217634730Y-65523686D01*
X217634738Y-65523693D01*
X217643136Y-65530460D01*
X217655379Y-65540327D01*
X217726424Y-65577490D01*
X217793456Y-65597173D01*
X217793458Y-65597173D01*
X217793464Y-65597175D01*
X217851362Y-65605500D01*
X221219880Y-65605500D01*
X221286919Y-65625185D01*
X221314028Y-65648802D01*
X221692568Y-66090432D01*
X221713608Y-66111642D01*
X221713612Y-66111646D01*
X221740717Y-66135260D01*
X221740720Y-66135262D01*
X221817809Y-66177490D01*
X221884841Y-66197173D01*
X221884843Y-66197173D01*
X221884849Y-66197175D01*
X221942747Y-66205500D01*
X221942751Y-66205500D01*
X223625332Y-66205500D01*
X223625334Y-66205500D01*
X223627456Y-66205461D01*
X223632767Y-66205366D01*
X223638360Y-66205163D01*
X223641720Y-66205042D01*
X223706281Y-66192154D01*
X223771723Y-66167678D01*
X223823034Y-66139600D01*
X224573700Y-65576600D01*
X224600870Y-65552161D01*
X224630785Y-65520000D01*
X224632843Y-65517754D01*
X224677490Y-65437937D01*
X224697175Y-65370898D01*
X224705500Y-65313000D01*
X224705500Y-63044263D01*
X224705163Y-63032507D01*
X224704351Y-63018336D01*
X224688456Y-62950042D01*
X224661240Y-62885693D01*
X224653871Y-62873482D01*
X224631020Y-62835613D01*
X224317394Y-62452292D01*
X224290177Y-62387942D01*
X224293589Y-62341681D01*
X224300500Y-62315892D01*
X224300500Y-62184108D01*
X224266392Y-62056814D01*
X224200500Y-61942686D01*
X224107314Y-61849500D01*
X224107311Y-61849498D01*
X224105847Y-61848375D01*
X224104921Y-61847107D01*
X224101567Y-61843753D01*
X224102090Y-61843229D01*
X224064645Y-61791947D01*
X224060491Y-61722201D01*
X224094704Y-61661281D01*
X224105847Y-61651625D01*
X224107306Y-61650504D01*
X224107314Y-61650500D01*
X224200500Y-61557314D01*
X224266392Y-61443186D01*
X224300500Y-61315892D01*
X224300500Y-61184108D01*
X224266392Y-61056814D01*
X224200500Y-60942686D01*
X224107314Y-60849500D01*
X224028553Y-60804027D01*
X223993187Y-60783608D01*
X223929539Y-60766554D01*
X223865892Y-60749500D01*
X223734108Y-60749500D01*
X223606812Y-60783608D01*
X223492686Y-60849500D01*
X223492683Y-60849502D01*
X223399498Y-60942687D01*
X223398370Y-60944158D01*
X223397102Y-60945083D01*
X223393753Y-60948433D01*
X223393230Y-60947910D01*
X223341940Y-60985356D01*
X223272193Y-60989506D01*
X223211275Y-60955289D01*
X223201630Y-60944158D01*
X223200501Y-60942687D01*
X223107316Y-60849502D01*
X223107314Y-60849500D01*
X223028553Y-60804027D01*
X222993187Y-60783608D01*
X222929539Y-60766554D01*
X222865892Y-60749500D01*
X222734108Y-60749500D01*
X222606812Y-60783608D01*
X222492686Y-60849500D01*
X222492683Y-60849502D01*
X222399502Y-60942683D01*
X222399500Y-60942686D01*
X222333608Y-61056812D01*
X222306322Y-61158648D01*
X222299500Y-61184108D01*
X222299500Y-61315892D01*
X222309004Y-61351362D01*
X222333608Y-61443187D01*
X222357646Y-61484821D01*
X222399500Y-61557314D01*
X222399502Y-61557316D01*
X222492687Y-61650501D01*
X222494158Y-61651630D01*
X222495083Y-61652897D01*
X222498433Y-61656247D01*
X222497910Y-61656769D01*
X222535356Y-61708060D01*
X222539506Y-61777807D01*
X222505289Y-61838725D01*
X222494158Y-61848370D01*
X222492687Y-61849498D01*
X222399502Y-61942683D01*
X222399500Y-61942686D01*
X222333608Y-62056812D01*
X222299500Y-62184108D01*
X222299500Y-62190209D01*
X222279815Y-62257248D01*
X222245459Y-62292589D01*
X222196858Y-62325798D01*
X222196850Y-62325805D01*
X222153747Y-62365340D01*
X222153745Y-62365342D01*
X221839828Y-62749021D01*
X221782141Y-62788442D01*
X221743857Y-62794500D01*
X219528504Y-62794500D01*
X219461465Y-62774815D01*
X219415710Y-62722011D01*
X219405766Y-62652853D01*
X219413800Y-62623567D01*
X219423762Y-62573483D01*
X219425500Y-62564748D01*
X219425500Y-61925252D01*
X219425500Y-61925249D01*
X219425499Y-61925247D01*
X219413868Y-61866770D01*
X219413867Y-61866769D01*
X219369552Y-61800447D01*
X219303230Y-61756132D01*
X219303229Y-61756131D01*
X219244752Y-61744500D01*
X219244748Y-61744500D01*
X217655252Y-61744500D01*
X217655247Y-61744500D01*
X217596770Y-61756131D01*
X217596769Y-61756132D01*
X217530447Y-61800447D01*
X217486132Y-61866769D01*
X217486131Y-61866770D01*
X217474500Y-61925247D01*
X217474500Y-62564752D01*
X217486131Y-62623229D01*
X217486132Y-62623230D01*
X217530448Y-62689553D01*
X217539083Y-62698188D01*
X217536331Y-62700939D01*
X217551425Y-62712395D01*
X217556243Y-62725580D01*
X217565269Y-62736338D01*
X217567999Y-62757749D01*
X217575408Y-62778020D01*
X217572332Y-62791719D01*
X217574109Y-62805647D01*
X217564831Y-62825133D01*
X217560104Y-62846193D01*
X217548438Y-62859566D01*
X217544075Y-62868732D01*
X217538766Y-62874306D01*
X217532741Y-62880250D01*
X217518371Y-62891009D01*
X217391009Y-63018371D01*
X217377197Y-63033746D01*
X217375970Y-63034958D01*
X217375233Y-63035944D01*
X217372516Y-63039442D01*
X217359670Y-63055383D01*
X217356332Y-63060476D01*
X217356100Y-63060324D01*
X217351355Y-63067848D01*
X217350646Y-63068795D01*
X217350641Y-63068803D01*
X217338258Y-63095919D01*
X217336873Y-63098951D01*
X217322525Y-63126375D01*
X217321762Y-63128971D01*
X217322999Y-63129334D01*
X217315549Y-63145652D01*
X217315550Y-63145652D01*
X217314367Y-63148242D01*
X217314367Y-63148243D01*
X217310376Y-63166583D01*
X217308311Y-63174733D01*
X217307416Y-63177821D01*
X217307393Y-63177856D01*
X217307317Y-63178114D01*
X217307297Y-63178226D01*
X217302823Y-63193466D01*
X217302823Y-63193467D01*
X217294500Y-63251359D01*
X214025500Y-63251359D01*
X214025500Y-63195252D01*
X214013867Y-63136769D01*
X213993006Y-63105550D01*
X213988073Y-63082121D01*
X213989005Y-63070197D01*
X213985432Y-63058786D01*
X213991679Y-63036010D01*
X213993521Y-63012464D01*
X214000751Y-63002937D01*
X214003915Y-62991405D01*
X214021723Y-62968896D01*
X214183491Y-62807129D01*
X214198193Y-62790762D01*
X214214827Y-62770120D01*
X214251990Y-62699075D01*
X214271675Y-62632036D01*
X214280000Y-62574138D01*
X214280000Y-61778272D01*
X214274503Y-61731057D01*
X214261412Y-61675603D01*
X214245214Y-61630916D01*
X214237815Y-61616117D01*
X214236250Y-61612987D01*
X214208413Y-61557313D01*
X214197694Y-61535875D01*
X214194453Y-61529393D01*
X214185408Y-61511303D01*
X214175329Y-61491145D01*
X214165132Y-61470751D01*
X214143017Y-61426521D01*
X214118591Y-61377670D01*
X214105500Y-61322216D01*
X214105500Y-59966360D01*
X214103737Y-59949288D01*
X214101164Y-59924369D01*
X214090808Y-59874760D01*
X214088837Y-59866231D01*
X214047190Y-59784808D01*
X214002330Y-59731244D01*
X213958775Y-59692203D01*
X213958772Y-59692201D01*
X213958770Y-59692199D01*
X213958765Y-59692195D01*
X213745343Y-59549915D01*
X213743838Y-59548920D01*
X213743817Y-59548906D01*
X213743747Y-59548860D01*
X213742003Y-59547719D01*
X213742001Y-59547718D01*
X213741998Y-59547716D01*
X213741996Y-59547715D01*
X213687397Y-59522511D01*
X213687394Y-59522510D01*
X213620361Y-59502826D01*
X213619712Y-59502732D01*
X213562456Y-59494500D01*
X210751362Y-59494500D01*
X210751361Y-59494500D01*
X210729381Y-59495678D01*
X210703034Y-59498511D01*
X210703032Y-59498512D01*
X210626521Y-59522470D01*
X210626516Y-59522471D01*
X210565188Y-59555960D01*
X210518384Y-59590998D01*
X210518363Y-59591016D01*
X210191013Y-59918365D01*
X210191012Y-59918366D01*
X210176325Y-59934716D01*
X210176313Y-59934730D01*
X210159672Y-59955379D01*
X210122509Y-60026424D01*
X210102825Y-60093462D01*
X210099184Y-60118782D01*
X210070158Y-60182337D01*
X210011379Y-60220110D01*
X209941509Y-60220108D01*
X209882732Y-60182332D01*
X209859406Y-60142087D01*
X209847238Y-60107313D01*
X209829116Y-60055525D01*
X209807639Y-60026425D01*
X209750711Y-59949289D01*
X209750710Y-59949288D01*
X209644476Y-59870884D01*
X209519848Y-59827274D01*
X209519849Y-59827274D01*
X209490260Y-59824500D01*
X209490256Y-59824500D01*
X208884744Y-59824500D01*
X208884740Y-59824500D01*
X208855150Y-59827274D01*
X208730523Y-59870884D01*
X208624289Y-59949288D01*
X208624288Y-59949289D01*
X208545884Y-60055523D01*
X208502274Y-60180150D01*
X208499500Y-60209739D01*
X208499500Y-60790260D01*
X208502274Y-60819844D01*
X208502276Y-60819856D01*
X208519487Y-60869040D01*
X208525280Y-60893027D01*
X208526798Y-60904018D01*
X208711784Y-61437806D01*
X208718454Y-61484821D01*
X208701186Y-61818315D01*
X208700293Y-61828074D01*
X208699500Y-61834102D01*
X208699500Y-61965891D01*
X208733608Y-62093187D01*
X208766554Y-62150250D01*
X208799500Y-62207314D01*
X208892686Y-62300500D01*
X209006814Y-62366392D01*
X209134108Y-62400500D01*
X209134110Y-62400500D01*
X209265890Y-62400500D01*
X209265892Y-62400500D01*
X209393186Y-62366392D01*
X209507314Y-62300500D01*
X209600500Y-62207314D01*
X209666392Y-62093186D01*
X209700500Y-61965892D01*
X209700500Y-61834108D01*
X209700499Y-61834106D01*
X209699439Y-61826052D01*
X209700156Y-61825957D01*
X209698954Y-61816821D01*
X209698307Y-61816885D01*
X209697710Y-61810826D01*
X209697711Y-61810822D01*
X209664146Y-61469861D01*
X209670385Y-61417117D01*
X209848202Y-60904015D01*
X209849141Y-60899539D01*
X209882168Y-60837968D01*
X209943240Y-60804027D01*
X210012967Y-60808493D01*
X210069211Y-60849946D01*
X210094115Y-60915227D01*
X210094500Y-60924994D01*
X210094500Y-62448638D01*
X210095678Y-62470618D01*
X210098511Y-62496965D01*
X210098512Y-62496967D01*
X210114186Y-62547023D01*
X210119737Y-62564752D01*
X210122470Y-62573478D01*
X210122471Y-62573483D01*
X210136872Y-62599855D01*
X210155956Y-62634805D01*
X210155958Y-62634808D01*
X210155960Y-62634811D01*
X210190998Y-62681615D01*
X210191002Y-62681619D01*
X210191009Y-62681629D01*
X210191016Y-62681636D01*
X210358198Y-62848819D01*
X210391683Y-62910142D01*
X210386699Y-62979834D01*
X210344827Y-63035767D01*
X210279363Y-63060184D01*
X210270517Y-63060500D01*
X209682845Y-63060500D01*
X209641822Y-63053517D01*
X209618885Y-63045476D01*
X209581878Y-63032502D01*
X209066429Y-62851798D01*
X209066418Y-62851795D01*
X209066417Y-62851795D01*
X209042888Y-62846193D01*
X209028839Y-62842848D01*
X209016608Y-62839262D01*
X208982348Y-62827274D01*
X208952760Y-62824500D01*
X208952756Y-62824500D01*
X208247244Y-62824500D01*
X208247240Y-62824500D01*
X208217650Y-62827274D01*
X208093023Y-62870884D01*
X207986789Y-62949288D01*
X207986788Y-62949289D01*
X207908384Y-63055523D01*
X207864774Y-63180150D01*
X207862000Y-63209739D01*
X201505500Y-63209739D01*
X201505500Y-56969955D01*
X201525185Y-56902916D01*
X201535649Y-56888912D01*
X204247866Y-53748451D01*
X204306582Y-53710580D01*
X204341712Y-53705500D01*
X218391966Y-53705500D01*
X218391972Y-53705500D01*
X218444101Y-53698778D01*
X218504952Y-53682820D01*
X218553669Y-53663096D01*
X221743735Y-51866392D01*
X228943138Y-47811556D01*
X228943141Y-47811554D01*
X228977470Y-47787284D01*
X229015485Y-47754085D01*
X229021827Y-47748309D01*
X229072464Y-47672150D01*
X229097233Y-47606817D01*
X229109974Y-47549729D01*
X229301961Y-45053896D01*
X229302156Y-45051117D01*
X229302369Y-45047752D01*
X229297082Y-44986716D01*
X229280744Y-44918784D01*
X229259112Y-44864441D01*
X226813778Y-40609559D01*
X226784727Y-40570558D01*
X226744629Y-40528270D01*
X226733768Y-40517633D01*
X226654111Y-40472701D01*
X226587144Y-40452777D01*
X226529276Y-40444245D01*
X156672455Y-40194757D01*
X156672454Y-40194757D01*
X156672453Y-40194757D01*
X156672451Y-40194757D01*
X156623824Y-40200415D01*
X156566790Y-40214083D01*
X156551833Y-40218272D01*
X156551826Y-40218275D01*
X156473168Y-40264914D01*
X156473167Y-40264914D01*
X156473165Y-40264916D01*
X156422503Y-40313029D01*
X156422498Y-40313034D01*
X156422496Y-40313037D01*
X156386252Y-40358936D01*
X156386251Y-40358937D01*
X154908962Y-42905989D01*
X153663233Y-45053799D01*
X153542707Y-45261602D01*
X153539472Y-45267391D01*
X153535651Y-45274502D01*
X153535648Y-45274509D01*
X153514307Y-45336009D01*
X153502145Y-45404823D01*
X153500266Y-45463278D01*
X153688907Y-47161047D01*
X153696166Y-47196898D01*
X153696168Y-47196906D01*
X153696170Y-47196914D01*
X153708665Y-47238955D01*
X153709591Y-47241986D01*
X153709591Y-47241988D01*
X153755689Y-47320976D01*
X153755693Y-47320980D01*
X153803445Y-47371964D01*
X153803449Y-47371968D01*
X153849099Y-47408530D01*
X153849101Y-47408531D01*
X153849107Y-47408536D01*
X159391995Y-50674881D01*
X159398161Y-50678373D01*
X159400706Y-50679756D01*
X159405669Y-50682456D01*
X159410410Y-50684928D01*
X159411924Y-50685718D01*
X165381916Y-53670714D01*
X165426603Y-53686912D01*
X165482057Y-53700003D01*
X165520352Y-53704461D01*
X165529270Y-53705500D01*
X165529272Y-53705500D01*
X181393199Y-53705500D01*
X181460238Y-53725185D01*
X181474249Y-53735654D01*
X184451550Y-56306959D01*
X184489420Y-56365673D01*
X184494500Y-56400803D01*
X184494500Y-101177410D01*
X184474815Y-101244449D01*
X184464346Y-101258459D01*
X180843041Y-105451549D01*
X180784325Y-105489420D01*
X180749195Y-105494500D01*
X171263411Y-105494500D01*
X171263358Y-105494501D01*
X171262973Y-105494502D01*
X171262967Y-105494502D01*
X171262965Y-105494503D01*
X171205002Y-105503005D01*
X171138018Y-105522898D01*
X171084896Y-105547356D01*
X171084892Y-105547359D01*
X151538434Y-118195067D01*
X151511939Y-118215450D01*
X151482187Y-118242461D01*
X151429884Y-118317379D01*
X151403630Y-118382119D01*
X151389585Y-118438904D01*
X151389583Y-118438911D01*
X151099423Y-121340508D01*
X151099033Y-121344878D01*
X151098627Y-121350051D01*
X149275166Y-121350051D01*
X148893141Y-120388270D01*
X148892297Y-120386079D01*
X148226342Y-118607056D01*
X148225540Y-118604847D01*
X147595135Y-116812943D01*
X147594351Y-116810642D01*
X147464015Y-116415196D01*
X146999782Y-115006684D01*
X146999032Y-115004333D01*
X146440449Y-113188777D01*
X146439747Y-113186410D01*
X146304409Y-112713210D01*
X145917441Y-111360197D01*
X145916786Y-111357818D01*
X145692522Y-110510231D01*
X145430902Y-109521462D01*
X145430305Y-109519106D01*
X145427295Y-109506740D01*
X144981102Y-107673573D01*
X144980542Y-107671170D01*
X144911020Y-107358592D01*
X144568139Y-105816970D01*
X144567632Y-105814578D01*
X144536845Y-105661878D01*
X144192225Y-103952574D01*
X144191765Y-103950168D01*
X144171886Y-103840327D01*
X143853479Y-102080984D01*
X143853072Y-102078595D01*
X143834958Y-101965733D01*
X143552067Y-100203107D01*
X143551707Y-100200710D01*
X143548967Y-100181161D01*
X143515135Y-99939741D01*
X145594500Y-99939741D01*
X145594500Y-101548638D01*
X145595678Y-101570618D01*
X145598511Y-101596965D01*
X145598512Y-101596967D01*
X145622470Y-101673478D01*
X145622471Y-101673483D01*
X145636872Y-101699855D01*
X145655956Y-101734805D01*
X145655958Y-101734808D01*
X145655960Y-101734811D01*
X145690998Y-101781615D01*
X145691002Y-101781619D01*
X145691009Y-101781629D01*
X145691016Y-101781636D01*
X146918365Y-103008986D01*
X146918366Y-103008987D01*
X146934716Y-103023674D01*
X146934730Y-103023686D01*
X146934738Y-103023693D01*
X146942923Y-103030289D01*
X146955379Y-103040327D01*
X147026424Y-103077490D01*
X147093456Y-103097173D01*
X147093458Y-103097173D01*
X147093464Y-103097175D01*
X147151362Y-103105500D01*
X152559641Y-103105500D01*
X152626680Y-103125185D01*
X152649058Y-103143590D01*
X157309978Y-107994752D01*
X157415217Y-108104286D01*
X157432867Y-108120625D01*
X157455245Y-108139030D01*
X157455248Y-108139032D01*
X157455252Y-108139034D01*
X157527880Y-108177488D01*
X157527884Y-108177490D01*
X157594923Y-108197175D01*
X157652821Y-108205500D01*
X157652825Y-108205500D01*
X159543726Y-108205500D01*
X159543732Y-108205500D01*
X159572483Y-108203479D01*
X159606843Y-108198624D01*
X159688357Y-108168557D01*
X159747317Y-108131067D01*
X159791707Y-108092978D01*
X160423975Y-107370385D01*
X160433542Y-107358599D01*
X160444537Y-107343983D01*
X160477490Y-107278344D01*
X160497175Y-107211305D01*
X160505500Y-107153407D01*
X160505500Y-103019293D01*
X160512620Y-102995042D01*
X160515735Y-102969963D01*
X160523695Y-102957034D01*
X165994500Y-102957034D01*
X165994500Y-104660914D01*
X165994539Y-104664947D01*
X165994637Y-104669875D01*
X165994638Y-104669891D01*
X166005361Y-104731450D01*
X166027679Y-104797658D01*
X166027684Y-104797670D01*
X166054060Y-104849861D01*
X166054061Y-104849864D01*
X166518644Y-105513556D01*
X166519624Y-105514955D01*
X166545567Y-105545264D01*
X166580113Y-105578470D01*
X166584807Y-105582843D01*
X166650073Y-105619351D01*
X166664624Y-105627490D01*
X166731663Y-105647175D01*
X166789561Y-105655500D01*
X166789565Y-105655500D01*
X167861948Y-105655500D01*
X167861953Y-105655500D01*
X167902179Y-105651524D01*
X167949787Y-105642021D01*
X167956582Y-105640545D01*
X168038723Y-105600333D01*
X168093067Y-105556418D01*
X168132866Y-105513555D01*
X168350318Y-105199456D01*
X168404661Y-105155542D01*
X168458460Y-105146194D01*
X169570706Y-105201808D01*
X169593368Y-105201690D01*
X169620630Y-105200042D01*
X169698789Y-105179386D01*
X169761509Y-105148596D01*
X169761518Y-105148590D01*
X169809804Y-105115616D01*
X169809805Y-105115614D01*
X169809811Y-105115611D01*
X170548651Y-104438341D01*
X170566965Y-104419243D01*
X170587490Y-104394875D01*
X170627490Y-104320386D01*
X170647175Y-104253347D01*
X170655500Y-104195449D01*
X170655500Y-103305684D01*
X170655500Y-103305675D01*
X170653589Y-103277723D01*
X170651964Y-103265890D01*
X170648998Y-103244295D01*
X170619678Y-103163349D01*
X170612187Y-103151362D01*
X170582654Y-103104103D01*
X170581749Y-103103032D01*
X170544908Y-103059412D01*
X170035419Y-102606533D01*
X169347119Y-101994710D01*
X169329010Y-101965733D01*
X169310523Y-101936966D01*
X169310370Y-101935906D01*
X169310091Y-101935459D01*
X169305500Y-101902031D01*
X169305500Y-101878711D01*
X174649500Y-101878711D01*
X174649500Y-102121288D01*
X174681161Y-102361785D01*
X174743947Y-102596104D01*
X174836773Y-102820205D01*
X174836777Y-102820214D01*
X174841446Y-102828301D01*
X174958064Y-103030289D01*
X174958066Y-103030292D01*
X174958067Y-103030293D01*
X175105733Y-103222736D01*
X175105739Y-103222743D01*
X175277256Y-103394260D01*
X175277262Y-103394265D01*
X175469711Y-103541936D01*
X175679788Y-103663224D01*
X175903900Y-103756054D01*
X176138211Y-103818838D01*
X176301439Y-103840327D01*
X176378711Y-103850500D01*
X176378712Y-103850500D01*
X176621289Y-103850500D01*
X176669388Y-103844167D01*
X176861789Y-103818838D01*
X177096100Y-103756054D01*
X177320212Y-103663224D01*
X177530289Y-103541936D01*
X177722738Y-103394265D01*
X177894265Y-103222738D01*
X178041936Y-103030289D01*
X178163224Y-102820212D01*
X178256054Y-102596100D01*
X178318838Y-102361789D01*
X178350500Y-102121288D01*
X178350500Y-101878712D01*
X178318838Y-101638211D01*
X178256054Y-101403900D01*
X178163224Y-101179788D01*
X178041936Y-100969711D01*
X177964999Y-100869444D01*
X177894266Y-100777263D01*
X177894260Y-100777256D01*
X177722743Y-100605739D01*
X177722736Y-100605733D01*
X177530293Y-100458067D01*
X177530292Y-100458066D01*
X177530289Y-100458064D01*
X177334027Y-100344752D01*
X177320214Y-100336777D01*
X177320205Y-100336773D01*
X177096104Y-100243947D01*
X176861785Y-100181161D01*
X176621289Y-100149500D01*
X176621288Y-100149500D01*
X176378712Y-100149500D01*
X176378711Y-100149500D01*
X176138214Y-100181161D01*
X175903895Y-100243947D01*
X175679794Y-100336773D01*
X175679785Y-100336777D01*
X175469706Y-100458067D01*
X175277263Y-100605733D01*
X175277256Y-100605739D01*
X175105739Y-100777256D01*
X175105733Y-100777263D01*
X174958067Y-100969706D01*
X174836777Y-101179785D01*
X174836773Y-101179794D01*
X174743947Y-101403895D01*
X174681161Y-101638214D01*
X174649500Y-101878711D01*
X169305500Y-101878711D01*
X169305500Y-100628504D01*
X169325185Y-100561465D01*
X169377989Y-100515710D01*
X169447147Y-100505766D01*
X169476432Y-100513800D01*
X169535247Y-100525499D01*
X169535250Y-100525500D01*
X169535252Y-100525500D01*
X170174750Y-100525500D01*
X170174751Y-100525499D01*
X170189568Y-100522552D01*
X170233229Y-100513868D01*
X170233229Y-100513867D01*
X170233231Y-100513867D01*
X170299552Y-100469552D01*
X170343867Y-100403231D01*
X170343867Y-100403229D01*
X170343868Y-100403229D01*
X170355499Y-100344752D01*
X170355500Y-100344750D01*
X170355500Y-98755249D01*
X170355499Y-98755247D01*
X170343868Y-98696770D01*
X170343867Y-98696769D01*
X170299552Y-98630447D01*
X170233230Y-98586132D01*
X170233229Y-98586131D01*
X170174752Y-98574500D01*
X170174748Y-98574500D01*
X169535252Y-98574500D01*
X169535247Y-98574500D01*
X169476770Y-98586131D01*
X169476769Y-98586132D01*
X169410446Y-98630448D01*
X169378480Y-98678289D01*
X169324868Y-98723093D01*
X169255543Y-98731800D01*
X169192515Y-98701645D01*
X169187698Y-98697078D01*
X168981634Y-98491013D01*
X168981633Y-98491012D01*
X168965283Y-98476325D01*
X168965269Y-98476313D01*
X168944620Y-98459672D01*
X168873575Y-98422509D01*
X168806543Y-98402826D01*
X168796048Y-98401317D01*
X168748638Y-98394500D01*
X167151362Y-98394500D01*
X167151361Y-98394500D01*
X167129381Y-98395678D01*
X167103034Y-98398511D01*
X167103032Y-98398512D01*
X167026521Y-98422470D01*
X167026516Y-98422471D01*
X166965188Y-98455960D01*
X166918384Y-98490998D01*
X166918363Y-98491016D01*
X166691013Y-98718365D01*
X166691012Y-98718366D01*
X166676325Y-98734716D01*
X166676313Y-98734730D01*
X166659672Y-98755379D01*
X166622509Y-98826424D01*
X166602826Y-98893456D01*
X166594500Y-98951365D01*
X166594500Y-102234164D01*
X166574815Y-102301203D01*
X166551198Y-102328312D01*
X166109557Y-102706861D01*
X166088349Y-102727899D01*
X166064734Y-102755008D01*
X166040200Y-102799799D01*
X166026295Y-102825185D01*
X166022509Y-102832096D01*
X166002826Y-102899125D01*
X166001407Y-102908995D01*
X165996368Y-102944044D01*
X165994500Y-102957034D01*
X160523695Y-102957034D01*
X160523858Y-102956770D01*
X160525185Y-102952254D01*
X160534235Y-102939917D01*
X160859070Y-102550116D01*
X160917110Y-102511218D01*
X160954329Y-102505500D01*
X162433638Y-102505500D01*
X162439920Y-102504851D01*
X162475630Y-102501164D01*
X162525239Y-102490808D01*
X162533768Y-102488837D01*
X162615191Y-102447190D01*
X162668756Y-102402329D01*
X162707797Y-102358774D01*
X163250160Y-101545230D01*
X163251140Y-101543747D01*
X163252281Y-101542003D01*
X163277490Y-101487393D01*
X163297175Y-101420354D01*
X163305500Y-101362456D01*
X163305500Y-99543497D01*
X163305225Y-99532864D01*
X163304561Y-99520048D01*
X163289472Y-99452716D01*
X163262964Y-99388070D01*
X163233297Y-99337660D01*
X162632074Y-98586132D01*
X162497705Y-98418170D01*
X162497701Y-98418166D01*
X162497699Y-98418163D01*
X162474824Y-98393900D01*
X162474811Y-98393888D01*
X162445038Y-98367049D01*
X162445036Y-98367047D01*
X162365346Y-98322514D01*
X162365339Y-98322510D01*
X162365332Y-98322508D01*
X162365330Y-98322507D01*
X162298311Y-98302827D01*
X162298302Y-98302825D01*
X162298300Y-98302825D01*
X162240402Y-98294500D01*
X146863813Y-98294500D01*
X146825067Y-98298186D01*
X146825061Y-98298187D01*
X146825054Y-98298188D01*
X146779189Y-98306993D01*
X146773824Y-98308096D01*
X146773816Y-98308099D01*
X146691102Y-98347095D01*
X146691094Y-98347100D01*
X146636116Y-98390205D01*
X146636115Y-98390206D01*
X146595693Y-98432475D01*
X146595691Y-98432477D01*
X145655874Y-99748221D01*
X145652965Y-99752399D01*
X145649568Y-99757413D01*
X145622507Y-99814808D01*
X145602826Y-99881832D01*
X145594500Y-99939741D01*
X143515135Y-99939741D01*
X143288083Y-98319550D01*
X143287780Y-98317214D01*
X143061652Y-96431180D01*
X143061395Y-96428845D01*
X142872838Y-94538553D01*
X142872634Y-94536276D01*
X142721746Y-92642700D01*
X142721583Y-92640358D01*
X142632390Y-91145873D01*
X158694500Y-91145873D01*
X158694500Y-94541920D01*
X158696883Y-94573123D01*
X158696884Y-94573133D01*
X158702600Y-94610343D01*
X158735010Y-94693549D01*
X158735015Y-94693558D01*
X158773911Y-94751591D01*
X158813053Y-94795043D01*
X158813059Y-94795049D01*
X159333953Y-95229128D01*
X159343953Y-95236951D01*
X159356297Y-95246007D01*
X159356299Y-95246008D01*
X159356302Y-95246010D01*
X159388127Y-95261748D01*
X159419957Y-95277490D01*
X159486996Y-95297175D01*
X159544894Y-95305500D01*
X159544898Y-95305500D01*
X166348639Y-95305500D01*
X166351180Y-95305363D01*
X166370607Y-95304322D01*
X166370614Y-95304321D01*
X166370618Y-95304321D01*
X166396965Y-95301488D01*
X166473482Y-95277529D01*
X166534805Y-95244044D01*
X166581629Y-95208991D01*
X166708943Y-95081677D01*
X166770266Y-95048192D01*
X166839958Y-95053176D01*
X166865516Y-95066256D01*
X166870447Y-95069551D01*
X166870448Y-95069552D01*
X166936769Y-95113867D01*
X166936771Y-95113867D01*
X166936772Y-95113868D01*
X166936770Y-95113868D01*
X166995247Y-95125499D01*
X166995250Y-95125500D01*
X166995252Y-95125500D01*
X167634750Y-95125500D01*
X167634751Y-95125499D01*
X167649568Y-95122552D01*
X167693229Y-95113868D01*
X167693229Y-95113867D01*
X167693231Y-95113867D01*
X167759552Y-95069552D01*
X167803867Y-95003231D01*
X167803867Y-95003229D01*
X167803868Y-95003229D01*
X167815499Y-94944752D01*
X167815500Y-94944750D01*
X167815500Y-93425978D01*
X167818046Y-93417305D01*
X167816758Y-93408360D01*
X167817570Y-93404148D01*
X167817470Y-93404131D01*
X167818168Y-93400146D01*
X167818171Y-93400120D01*
X167818821Y-93394147D01*
X167817653Y-93340771D01*
X167817651Y-93340761D01*
X167773649Y-93053790D01*
X167773648Y-93053781D01*
X167773643Y-93053767D01*
X167772801Y-93050187D01*
X167773374Y-93039646D01*
X167769500Y-93021764D01*
X167769500Y-92623188D01*
X167777431Y-92579554D01*
X167890431Y-92278967D01*
X167932447Y-92223142D01*
X167997974Y-92198894D01*
X168066208Y-92213923D01*
X168115486Y-92263456D01*
X168130500Y-92322601D01*
X168130500Y-93021957D01*
X168128701Y-93036250D01*
X168129208Y-93039814D01*
X168127892Y-93042680D01*
X168127254Y-93047756D01*
X168127275Y-93047760D01*
X168127157Y-93048524D01*
X168126636Y-93052672D01*
X168126350Y-93053787D01*
X168082346Y-93340761D01*
X168082345Y-93340779D01*
X168081175Y-93394128D01*
X168081826Y-93400116D01*
X168082524Y-93404096D01*
X168081886Y-93404207D01*
X168084500Y-93425973D01*
X168084500Y-94944752D01*
X168096131Y-95003229D01*
X168096132Y-95003230D01*
X168140447Y-95069552D01*
X168206769Y-95113867D01*
X168206770Y-95113868D01*
X168265247Y-95125499D01*
X168265250Y-95125500D01*
X168265252Y-95125500D01*
X168904750Y-95125500D01*
X168904751Y-95125499D01*
X168919568Y-95122552D01*
X168963229Y-95113868D01*
X168963229Y-95113867D01*
X168963231Y-95113867D01*
X169029552Y-95069552D01*
X169045496Y-95045690D01*
X169099105Y-95000885D01*
X169168430Y-94992176D01*
X169231458Y-95022330D01*
X169236279Y-95026899D01*
X169418365Y-95208986D01*
X169418366Y-95208987D01*
X169434716Y-95223674D01*
X169434730Y-95223686D01*
X169434738Y-95223693D01*
X169441473Y-95229120D01*
X169455379Y-95240327D01*
X169526424Y-95277490D01*
X169593456Y-95297173D01*
X169593458Y-95297173D01*
X169593464Y-95297175D01*
X169651362Y-95305500D01*
X169651366Y-95305500D01*
X170370728Y-95305500D01*
X170417943Y-95300002D01*
X170473396Y-95286911D01*
X170518083Y-95270714D01*
X170822330Y-95118591D01*
X170877784Y-95105500D01*
X172233638Y-95105500D01*
X172239920Y-95104851D01*
X172275630Y-95101164D01*
X172325239Y-95090808D01*
X172333768Y-95088837D01*
X172415191Y-95047190D01*
X172468756Y-95002329D01*
X172507797Y-94958774D01*
X172650160Y-94745230D01*
X172651140Y-94743747D01*
X172652281Y-94742003D01*
X172677490Y-94687393D01*
X172697175Y-94620354D01*
X172705500Y-94562456D01*
X172705500Y-91751362D01*
X172705430Y-91750061D01*
X172704321Y-91729381D01*
X172701488Y-91703034D01*
X172701487Y-91703032D01*
X172700785Y-91700790D01*
X172677529Y-91626518D01*
X172644044Y-91565195D01*
X172644039Y-91565188D01*
X172609001Y-91518384D01*
X172608998Y-91518381D01*
X172608991Y-91518371D01*
X172461137Y-91370517D01*
X172281634Y-91191013D01*
X172281633Y-91191012D01*
X172265283Y-91176325D01*
X172265269Y-91176313D01*
X172244620Y-91159672D01*
X172173575Y-91122509D01*
X172106537Y-91102825D01*
X172055899Y-91095543D01*
X171992344Y-91066517D01*
X171954571Y-91007738D01*
X171954573Y-90937868D01*
X171992349Y-90879091D01*
X172032588Y-90855767D01*
X172144475Y-90816616D01*
X172250711Y-90738211D01*
X172329116Y-90631975D01*
X172372725Y-90507349D01*
X172375500Y-90477756D01*
X172375500Y-89872244D01*
X172372725Y-89842651D01*
X172356763Y-89797037D01*
X172350685Y-89770831D01*
X172349672Y-89762367D01*
X172160621Y-89183245D01*
X172154500Y-89144765D01*
X172154500Y-87546559D01*
X172163941Y-87499102D01*
X172166388Y-87493192D01*
X172166392Y-87493186D01*
X172200500Y-87365892D01*
X172200500Y-87234108D01*
X172166392Y-87106814D01*
X172100500Y-86992686D01*
X172007314Y-86899500D01*
X171950250Y-86866554D01*
X171893187Y-86833608D01*
X171829539Y-86816554D01*
X171765892Y-86799500D01*
X171634108Y-86799500D01*
X171506812Y-86833608D01*
X171392686Y-86899500D01*
X171392683Y-86899502D01*
X171299502Y-86992683D01*
X171299500Y-86992686D01*
X171233608Y-87106812D01*
X171199500Y-87234108D01*
X171199500Y-87365891D01*
X171233608Y-87493186D01*
X171236059Y-87499102D01*
X171245500Y-87546559D01*
X171245500Y-89144764D01*
X171239378Y-89183245D01*
X171050327Y-89762364D01*
X171044984Y-89788593D01*
X171040523Y-89804789D01*
X171027274Y-89842653D01*
X171027274Y-89842656D01*
X171024500Y-89872239D01*
X171024500Y-90477760D01*
X171027274Y-90507349D01*
X171070884Y-90631976D01*
X171149288Y-90738210D01*
X171149289Y-90738211D01*
X171255523Y-90816615D01*
X171255524Y-90816615D01*
X171255525Y-90816616D01*
X171301792Y-90832806D01*
X171360814Y-90853459D01*
X171417589Y-90894181D01*
X171443336Y-90959134D01*
X171429879Y-91027695D01*
X171381492Y-91078098D01*
X171319858Y-91094500D01*
X169751361Y-91094500D01*
X169729381Y-91095678D01*
X169703034Y-91098511D01*
X169703032Y-91098512D01*
X169626521Y-91122470D01*
X169626516Y-91122471D01*
X169578249Y-91148828D01*
X169565985Y-91155525D01*
X169565188Y-91155960D01*
X169518384Y-91190998D01*
X169518363Y-91191016D01*
X169251181Y-91458198D01*
X169189858Y-91491683D01*
X169120166Y-91486699D01*
X169064233Y-91444827D01*
X169039816Y-91379363D01*
X169039500Y-91370517D01*
X169039500Y-90882846D01*
X169046482Y-90841823D01*
X169055319Y-90816616D01*
X169248203Y-90266419D01*
X169257161Y-90228803D01*
X169260740Y-90216595D01*
X169272725Y-90182349D01*
X169275500Y-90152756D01*
X169275500Y-89447244D01*
X169272725Y-89417651D01*
X169229116Y-89293025D01*
X169150711Y-89186789D01*
X169150710Y-89186788D01*
X169044476Y-89108384D01*
X168919848Y-89064774D01*
X168919849Y-89064774D01*
X168890260Y-89062000D01*
X168890256Y-89062000D01*
X168309744Y-89062000D01*
X168309740Y-89062000D01*
X168280150Y-89064774D01*
X168155523Y-89108384D01*
X168049289Y-89186788D01*
X168049288Y-89186789D01*
X167970884Y-89293023D01*
X167927274Y-89417650D01*
X167924500Y-89447239D01*
X167924500Y-90152760D01*
X167927274Y-90182347D01*
X167941702Y-90223580D01*
X167948073Y-90252485D01*
X167948577Y-90257649D01*
X167948577Y-90257653D01*
X168021617Y-90499255D01*
X168117558Y-90816613D01*
X168125195Y-90841873D01*
X168125292Y-90842534D01*
X168125477Y-90842821D01*
X168130500Y-90877756D01*
X168130500Y-90967216D01*
X168110815Y-91034255D01*
X168058011Y-91080010D01*
X167988853Y-91089954D01*
X167925297Y-91060929D01*
X167918819Y-91054897D01*
X167913210Y-91049288D01*
X167806976Y-90970884D01*
X167682348Y-90927274D01*
X167682349Y-90927274D01*
X167652760Y-90924500D01*
X167652756Y-90924500D01*
X166947244Y-90924500D01*
X166947240Y-90924500D01*
X166917650Y-90927274D01*
X166793025Y-90970883D01*
X166703133Y-91037227D01*
X166637504Y-91061197D01*
X166569334Y-91045881D01*
X166520266Y-90996141D01*
X166505500Y-90937456D01*
X166505500Y-90751361D01*
X166505049Y-90742953D01*
X166504322Y-90729393D01*
X166501488Y-90703035D01*
X166477529Y-90626518D01*
X166444044Y-90565195D01*
X166413886Y-90524910D01*
X166409001Y-90518384D01*
X166408998Y-90518381D01*
X166408991Y-90518371D01*
X166368376Y-90477756D01*
X166181634Y-90291013D01*
X166181633Y-90291012D01*
X166165283Y-90276325D01*
X166165269Y-90276313D01*
X166144620Y-90259672D01*
X166073575Y-90222509D01*
X166006543Y-90202826D01*
X166005894Y-90202732D01*
X165948638Y-90194500D01*
X159557032Y-90194500D01*
X159527241Y-90196671D01*
X159527229Y-90196672D01*
X159491672Y-90201881D01*
X159491665Y-90201883D01*
X159409433Y-90232932D01*
X159409430Y-90232933D01*
X159350852Y-90271025D01*
X159306854Y-90309565D01*
X159306853Y-90309567D01*
X158773822Y-90931438D01*
X158764997Y-90942480D01*
X158754836Y-90956131D01*
X158722511Y-91020930D01*
X158722507Y-91020940D01*
X158702826Y-91087964D01*
X158702825Y-91087972D01*
X158697865Y-91122471D01*
X158694500Y-91145873D01*
X142632390Y-91145873D01*
X142608415Y-90744159D01*
X142608293Y-90741694D01*
X142587668Y-90222510D01*
X142532894Y-88843764D01*
X142532821Y-88841311D01*
X142498472Y-87106814D01*
X142495211Y-86942158D01*
X142495188Y-86939702D01*
X142495288Y-85989877D01*
X142495387Y-85040153D01*
X142495411Y-85037860D01*
X142533419Y-83138650D01*
X142533492Y-83136222D01*
X142576069Y-82070100D01*
X142609292Y-81238198D01*
X142609408Y-81235878D01*
X142722976Y-79339654D01*
X142723136Y-79337363D01*
X142874425Y-77443773D01*
X142874635Y-77441445D01*
X143063584Y-75551240D01*
X143063835Y-75548956D01*
X143290363Y-73662932D01*
X143290680Y-73660503D01*
X143297537Y-73611646D01*
X143554696Y-71779414D01*
X143555036Y-71777148D01*
X143849819Y-69942887D01*
X145794500Y-69942887D01*
X145794500Y-71745452D01*
X145796032Y-71769212D01*
X145796203Y-71771853D01*
X145800296Y-71803448D01*
X145828177Y-71883274D01*
X145828179Y-71883277D01*
X145864294Y-71943085D01*
X145901349Y-71988344D01*
X147025580Y-73018890D01*
X147039013Y-73030188D01*
X147055757Y-73043090D01*
X147055761Y-73043093D01*
X147123297Y-73077490D01*
X147161698Y-73088766D01*
X147190328Y-73097173D01*
X147190330Y-73097173D01*
X147190336Y-73097175D01*
X147248234Y-73105500D01*
X149274108Y-73105500D01*
X149341147Y-73125185D01*
X149356791Y-73137090D01*
X152953183Y-76354912D01*
X152990018Y-76414283D01*
X152994500Y-76447322D01*
X152994500Y-77182084D01*
X152995304Y-77200236D01*
X152997247Y-77222112D01*
X153018056Y-77295673D01*
X153049248Y-77358192D01*
X153049250Y-77358195D01*
X153082545Y-77406285D01*
X153082549Y-77406290D01*
X153874930Y-78259623D01*
X153912617Y-78300209D01*
X153931324Y-78317975D01*
X153955151Y-78337914D01*
X154029135Y-78377490D01*
X154071176Y-78389834D01*
X154096166Y-78397173D01*
X154096168Y-78397173D01*
X154096174Y-78397175D01*
X154154072Y-78405500D01*
X160341633Y-78405500D01*
X160408672Y-78425185D01*
X160438461Y-78452038D01*
X163102294Y-81781829D01*
X163102296Y-81781831D01*
X163102301Y-81781837D01*
X163125176Y-81806100D01*
X163125186Y-81806109D01*
X163125188Y-81806111D01*
X163154961Y-81832950D01*
X163154963Y-81832952D01*
X163154965Y-81832953D01*
X163234661Y-81877490D01*
X163261476Y-81885364D01*
X163301688Y-81897172D01*
X163301691Y-81897172D01*
X163301700Y-81897175D01*
X163359598Y-81905500D01*
X163359602Y-81905500D01*
X168644773Y-81905500D01*
X168644775Y-81905500D01*
X168672108Y-81903674D01*
X168704798Y-81899287D01*
X168745045Y-81884919D01*
X168785290Y-81870553D01*
X168785292Y-81870552D01*
X168844769Y-81833892D01*
X168889689Y-81796425D01*
X169720917Y-80872838D01*
X169731521Y-80860053D01*
X169743666Y-80844142D01*
X169777490Y-80777353D01*
X169797175Y-80710314D01*
X169805500Y-80652416D01*
X169805500Y-74544263D01*
X169805163Y-74532507D01*
X169804351Y-74518336D01*
X169788456Y-74450042D01*
X169761240Y-74385693D01*
X169731020Y-74335613D01*
X168896255Y-73315345D01*
X168873957Y-73292081D01*
X168845028Y-73266291D01*
X168766176Y-73222510D01*
X168766175Y-73222509D01*
X168766174Y-73222509D01*
X168766172Y-73222508D01*
X168699144Y-73202826D01*
X168698495Y-73202732D01*
X168641239Y-73194500D01*
X163763813Y-73194500D01*
X163725067Y-73198186D01*
X163725061Y-73198187D01*
X163725054Y-73198188D01*
X163679189Y-73206993D01*
X163673824Y-73208096D01*
X163673816Y-73208099D01*
X163591102Y-73247095D01*
X163591094Y-73247100D01*
X163536116Y-73290205D01*
X163536114Y-73290207D01*
X163519116Y-73307982D01*
X163458556Y-73342828D01*
X163388770Y-73339400D01*
X163331916Y-73298787D01*
X163306044Y-73233884D01*
X163305500Y-73222280D01*
X163305500Y-71378711D01*
X174649500Y-71378711D01*
X174649500Y-71621288D01*
X174681161Y-71861785D01*
X174743947Y-72096104D01*
X174807127Y-72248634D01*
X174836776Y-72320212D01*
X174958064Y-72530289D01*
X174958066Y-72530292D01*
X174958067Y-72530293D01*
X175105733Y-72722736D01*
X175105739Y-72722743D01*
X175277256Y-72894260D01*
X175277263Y-72894266D01*
X175309745Y-72919190D01*
X175469711Y-73041936D01*
X175679788Y-73163224D01*
X175903900Y-73256054D01*
X176138211Y-73318838D01*
X176294398Y-73339400D01*
X176378711Y-73350500D01*
X176378712Y-73350500D01*
X176621289Y-73350500D01*
X176669388Y-73344167D01*
X176861789Y-73318838D01*
X177096100Y-73256054D01*
X177320212Y-73163224D01*
X177530289Y-73041936D01*
X177722738Y-72894265D01*
X177894265Y-72722738D01*
X178041936Y-72530289D01*
X178163224Y-72320212D01*
X178256054Y-72096100D01*
X178318838Y-71861789D01*
X178350500Y-71621288D01*
X178350500Y-71378712D01*
X178318838Y-71138211D01*
X178256054Y-70903900D01*
X178163224Y-70679788D01*
X178041936Y-70469711D01*
X177954261Y-70355450D01*
X177894266Y-70277263D01*
X177894260Y-70277256D01*
X177722743Y-70105739D01*
X177722736Y-70105733D01*
X177530293Y-69958067D01*
X177530292Y-69958066D01*
X177530289Y-69958064D01*
X177320212Y-69836776D01*
X177320205Y-69836773D01*
X177096104Y-69743947D01*
X176933955Y-69700499D01*
X176861789Y-69681162D01*
X176861788Y-69681161D01*
X176861785Y-69681161D01*
X176621289Y-69649500D01*
X176621288Y-69649500D01*
X176378712Y-69649500D01*
X176378711Y-69649500D01*
X176138214Y-69681161D01*
X175903895Y-69743947D01*
X175679794Y-69836773D01*
X175679785Y-69836777D01*
X175469706Y-69958067D01*
X175277263Y-70105733D01*
X175277256Y-70105739D01*
X175105739Y-70277256D01*
X175105733Y-70277263D01*
X174958067Y-70469706D01*
X174836777Y-70679785D01*
X174836773Y-70679794D01*
X174743947Y-70903895D01*
X174681161Y-71138214D01*
X174649500Y-71378711D01*
X163305500Y-71378711D01*
X163305500Y-70355450D01*
X163305500Y-70355442D01*
X163303635Y-70327817D01*
X163299153Y-70294778D01*
X163270140Y-70214064D01*
X163233305Y-70154693D01*
X163233304Y-70154692D01*
X163233303Y-70154690D01*
X163195707Y-70109883D01*
X162538561Y-69521910D01*
X162501726Y-69462539D01*
X162502837Y-69392678D01*
X162541542Y-69334508D01*
X162605551Y-69306497D01*
X162621244Y-69305500D01*
X163052032Y-69305500D01*
X163119071Y-69325185D01*
X163144709Y-69347117D01*
X163344119Y-69571453D01*
X163809405Y-70094901D01*
X163809422Y-70094919D01*
X163829403Y-70114523D01*
X163829426Y-70114544D01*
X163855057Y-70136471D01*
X163855059Y-70136472D01*
X163930747Y-70177490D01*
X163997786Y-70197175D01*
X164055684Y-70205500D01*
X164055688Y-70205500D01*
X168442968Y-70205500D01*
X168472758Y-70203329D01*
X168508332Y-70198117D01*
X168590572Y-70167065D01*
X168649146Y-70128975D01*
X168693143Y-70090436D01*
X169226175Y-69468565D01*
X169234994Y-69457530D01*
X169245161Y-69443871D01*
X169277490Y-69379066D01*
X169297175Y-69312027D01*
X169305500Y-69254129D01*
X169305500Y-64351362D01*
X169304322Y-64329393D01*
X169303585Y-64322541D01*
X169301488Y-64303034D01*
X169301487Y-64303032D01*
X169299327Y-64296133D01*
X169277529Y-64226518D01*
X169244044Y-64165195D01*
X169238880Y-64158297D01*
X169209001Y-64118384D01*
X169208998Y-64118381D01*
X169208991Y-64118371D01*
X169000744Y-63910124D01*
X168781634Y-63691013D01*
X168781633Y-63691012D01*
X168765283Y-63676325D01*
X168765269Y-63676313D01*
X168744620Y-63659672D01*
X168673575Y-63622509D01*
X168606543Y-63602826D01*
X168604971Y-63602600D01*
X168548638Y-63594500D01*
X166358078Y-63594500D01*
X166326874Y-63596883D01*
X166326872Y-63596883D01*
X166326865Y-63596884D01*
X166289654Y-63602600D01*
X166289651Y-63602601D01*
X166206453Y-63635009D01*
X166206443Y-63635014D01*
X166148413Y-63673906D01*
X166148410Y-63673909D01*
X166104949Y-63713058D01*
X166104947Y-63713059D01*
X166104944Y-63713063D01*
X165594112Y-64326063D01*
X165264156Y-64722011D01*
X165240929Y-64749883D01*
X165182890Y-64788782D01*
X165145670Y-64794500D01*
X164875701Y-64794500D01*
X164808662Y-64774815D01*
X164762907Y-64722011D01*
X164752963Y-64652853D01*
X164763117Y-64618530D01*
X164777490Y-64587393D01*
X164797173Y-64520361D01*
X164797173Y-64520360D01*
X164797175Y-64520354D01*
X164805500Y-64462456D01*
X164805500Y-61551362D01*
X164804322Y-61529393D01*
X164801630Y-61504360D01*
X164801488Y-61503034D01*
X164801487Y-61503032D01*
X164782748Y-61443187D01*
X164777529Y-61426518D01*
X164744044Y-61365195D01*
X164733783Y-61351488D01*
X164709001Y-61318384D01*
X164708998Y-61318381D01*
X164708991Y-61318371D01*
X164508985Y-61118365D01*
X164281634Y-60891013D01*
X164281633Y-60891012D01*
X164265283Y-60876325D01*
X164265269Y-60876313D01*
X164244620Y-60859672D01*
X164173575Y-60822509D01*
X164106543Y-60802826D01*
X164105894Y-60802732D01*
X164048638Y-60794500D01*
X161751362Y-60794500D01*
X161751361Y-60794500D01*
X161729381Y-60795678D01*
X161703034Y-60798511D01*
X161703032Y-60798512D01*
X161626521Y-60822470D01*
X161626516Y-60822471D01*
X161565188Y-60855960D01*
X161518384Y-60890998D01*
X161518363Y-60891016D01*
X161291013Y-61118365D01*
X161291012Y-61118366D01*
X161276325Y-61134716D01*
X161276313Y-61134730D01*
X161255849Y-61160125D01*
X161254017Y-61158648D01*
X161208730Y-61197167D01*
X161139483Y-61206474D01*
X161089367Y-61187006D01*
X161013230Y-61136132D01*
X161013229Y-61136131D01*
X160954752Y-61124500D01*
X160954748Y-61124500D01*
X160315252Y-61124500D01*
X160315247Y-61124500D01*
X160256770Y-61136131D01*
X160256769Y-61136132D01*
X160190447Y-61180447D01*
X160146132Y-61246769D01*
X160146131Y-61246770D01*
X160134500Y-61305247D01*
X160134500Y-62894752D01*
X160146131Y-62953229D01*
X160146132Y-62953230D01*
X160190447Y-63019552D01*
X160256769Y-63063867D01*
X160256770Y-63063868D01*
X160315247Y-63075499D01*
X160315250Y-63075500D01*
X160315252Y-63075500D01*
X160954750Y-63075500D01*
X160954751Y-63075499D01*
X160969568Y-63072552D01*
X161013229Y-63063868D01*
X161013229Y-63063867D01*
X161013231Y-63063867D01*
X161079552Y-63019552D01*
X161095590Y-62995549D01*
X161149199Y-62950746D01*
X161218524Y-62942037D01*
X161281552Y-62972191D01*
X161287812Y-62978563D01*
X161287878Y-62978498D01*
X161518365Y-63208986D01*
X161518366Y-63208987D01*
X161534716Y-63223674D01*
X161534730Y-63223686D01*
X161534738Y-63223693D01*
X161543136Y-63230460D01*
X161555379Y-63240327D01*
X161626424Y-63277490D01*
X161693456Y-63297173D01*
X161693458Y-63297173D01*
X161693464Y-63297175D01*
X161751362Y-63305500D01*
X162263518Y-63305500D01*
X162330557Y-63325185D01*
X162351199Y-63341819D01*
X162858181Y-63848801D01*
X162891666Y-63910124D01*
X162894500Y-63936482D01*
X162894500Y-64548638D01*
X162895678Y-64570618D01*
X162898511Y-64596965D01*
X162898512Y-64596967D01*
X162922470Y-64673478D01*
X162922471Y-64673483D01*
X162936872Y-64699855D01*
X162955956Y-64734805D01*
X162955958Y-64734808D01*
X162955960Y-64734811D01*
X162990998Y-64781615D01*
X162991002Y-64781619D01*
X162991009Y-64781629D01*
X162991016Y-64781636D01*
X163021698Y-64812318D01*
X163055183Y-64873641D01*
X163050199Y-64943333D01*
X163021698Y-64987680D01*
X162891013Y-65118364D01*
X162876328Y-65134712D01*
X162876306Y-65134739D01*
X162859672Y-65155379D01*
X162822509Y-65226424D01*
X162802826Y-65293456D01*
X162794500Y-65351365D01*
X162794500Y-66163518D01*
X162785855Y-66192958D01*
X162779332Y-66222945D01*
X162775577Y-66227960D01*
X162774815Y-66230557D01*
X162758181Y-66251199D01*
X162651199Y-66358181D01*
X162589876Y-66391666D01*
X162563518Y-66394500D01*
X161651361Y-66394500D01*
X161629381Y-66395678D01*
X161603034Y-66398511D01*
X161603032Y-66398512D01*
X161526521Y-66422470D01*
X161526516Y-66422471D01*
X161465188Y-66455960D01*
X161418384Y-66490998D01*
X161418370Y-66491010D01*
X161387680Y-66521700D01*
X161326356Y-66555184D01*
X161256665Y-66550198D01*
X161212319Y-66521698D01*
X161181633Y-66491012D01*
X161165283Y-66476325D01*
X161165269Y-66476313D01*
X161144620Y-66459672D01*
X161073575Y-66422509D01*
X161006543Y-66402826D01*
X161005894Y-66402732D01*
X160948638Y-66394500D01*
X160351362Y-66394500D01*
X160351361Y-66394500D01*
X160329381Y-66395678D01*
X160303034Y-66398511D01*
X160303032Y-66398512D01*
X160226521Y-66422470D01*
X160226516Y-66422471D01*
X160165188Y-66455960D01*
X160118384Y-66490998D01*
X160118370Y-66491010D01*
X159991000Y-66618379D01*
X159980837Y-66629692D01*
X159980791Y-66629745D01*
X159976307Y-66634738D01*
X159971578Y-66640606D01*
X159971547Y-66640643D01*
X159959670Y-66655383D01*
X159956332Y-66660476D01*
X159956100Y-66660324D01*
X159951355Y-66667848D01*
X159950646Y-66668795D01*
X159950641Y-66668803D01*
X159938258Y-66695919D01*
X159936873Y-66698951D01*
X159922525Y-66726375D01*
X159921762Y-66728971D01*
X159922999Y-66729334D01*
X159915549Y-66745652D01*
X159915550Y-66745652D01*
X159914367Y-66748242D01*
X159914367Y-66748243D01*
X159910376Y-66766583D01*
X159908311Y-66774733D01*
X159907416Y-66777821D01*
X159907393Y-66777856D01*
X159907317Y-66778114D01*
X159907297Y-66778226D01*
X159902823Y-66793466D01*
X159902823Y-66793467D01*
X159894500Y-66851359D01*
X159894500Y-68463517D01*
X159874815Y-68530556D01*
X159858181Y-68551198D01*
X159791014Y-68618365D01*
X159791012Y-68618366D01*
X159776325Y-68634716D01*
X159776313Y-68634730D01*
X159759672Y-68655379D01*
X159722509Y-68726424D01*
X159702826Y-68793456D01*
X159702825Y-68793464D01*
X159696207Y-68839494D01*
X159694500Y-68851365D01*
X159694500Y-73458664D01*
X159694633Y-73466099D01*
X159694957Y-73475049D01*
X159699422Y-73497413D01*
X159707846Y-73539613D01*
X159732322Y-73605055D01*
X159735929Y-73611646D01*
X159758505Y-73652904D01*
X159760400Y-73656366D01*
X159924236Y-73874815D01*
X159949850Y-73908966D01*
X159974326Y-73974408D01*
X159959536Y-74042695D01*
X159938332Y-74071047D01*
X159791006Y-74218374D01*
X159790985Y-74218396D01*
X159776325Y-74234716D01*
X159776313Y-74234730D01*
X159759672Y-74255379D01*
X159722509Y-74326424D01*
X159702826Y-74393456D01*
X159702825Y-74393464D01*
X159694691Y-74450040D01*
X159694500Y-74451365D01*
X159694500Y-75384416D01*
X159687717Y-75407514D01*
X159685229Y-75431461D01*
X159676162Y-75446867D01*
X159674815Y-75451455D01*
X159667328Y-75461878D01*
X159518461Y-75647962D01*
X159461211Y-75688014D01*
X159421633Y-75694500D01*
X158436482Y-75694500D01*
X158369443Y-75674815D01*
X158348801Y-75658181D01*
X158041819Y-75351199D01*
X158008334Y-75289876D01*
X158005500Y-75263518D01*
X158005500Y-74925372D01*
X158005500Y-74925361D01*
X158004829Y-74908772D01*
X158003213Y-74888819D01*
X157983674Y-74816538D01*
X157983671Y-74816533D01*
X157983670Y-74816528D01*
X157953460Y-74753542D01*
X157920914Y-74704936D01*
X157920909Y-74704930D01*
X157289693Y-74003579D01*
X157270059Y-73984491D01*
X157270039Y-73984473D01*
X157250897Y-73968200D01*
X157244918Y-73963117D01*
X157244915Y-73963115D01*
X157244911Y-73963112D01*
X157169713Y-73922510D01*
X157169709Y-73922509D01*
X157102680Y-73902826D01*
X157102031Y-73902732D01*
X157044775Y-73894500D01*
X157044771Y-73894500D01*
X153521435Y-73894500D01*
X153454396Y-73874815D01*
X153440966Y-73864843D01*
X150249031Y-71142310D01*
X150210799Y-71083829D01*
X150205500Y-71047967D01*
X150205500Y-69851814D01*
X150204670Y-69836773D01*
X150204253Y-69829211D01*
X150201253Y-69802101D01*
X150176748Y-69725100D01*
X150163116Y-69700500D01*
X150142888Y-69663995D01*
X150142888Y-69663994D01*
X150142885Y-69663991D01*
X150142883Y-69663986D01*
X150107540Y-69617380D01*
X149956864Y-69468564D01*
X149566044Y-69082569D01*
X149479647Y-68997239D01*
X155524500Y-68997239D01*
X155524500Y-69602760D01*
X155527274Y-69632349D01*
X155570884Y-69756976D01*
X155649288Y-69863210D01*
X155649289Y-69863211D01*
X155755523Y-69941615D01*
X155755524Y-69941615D01*
X155755525Y-69941616D01*
X155880151Y-69985225D01*
X155880150Y-69985225D01*
X155909740Y-69988000D01*
X155909744Y-69988000D01*
X156490260Y-69988000D01*
X156502093Y-69986890D01*
X156519849Y-69985225D01*
X156569047Y-69968008D01*
X156593032Y-69962218D01*
X156604015Y-69960702D01*
X157109286Y-69785598D01*
X157159176Y-69779111D01*
X157415785Y-69798385D01*
X157415786Y-69798384D01*
X157418691Y-69798603D01*
X157425993Y-69799846D01*
X157426047Y-69799439D01*
X157434106Y-69800500D01*
X157434108Y-69800500D01*
X157565890Y-69800500D01*
X157565892Y-69800500D01*
X157693186Y-69766392D01*
X157807314Y-69700500D01*
X157900500Y-69607314D01*
X157966392Y-69493186D01*
X158000500Y-69365892D01*
X158000500Y-69234108D01*
X157966392Y-69106814D01*
X157900500Y-68992686D01*
X157807314Y-68899500D01*
X157709497Y-68843025D01*
X157693187Y-68833608D01*
X157621496Y-68814399D01*
X157565892Y-68799500D01*
X157434108Y-68799500D01*
X157434106Y-68799500D01*
X157426054Y-68800560D01*
X157426001Y-68800161D01*
X157418701Y-68801394D01*
X157159175Y-68820887D01*
X157109285Y-68814399D01*
X156855427Y-68726424D01*
X156604014Y-68639296D01*
X156576738Y-68633575D01*
X156561244Y-68629258D01*
X156519852Y-68614775D01*
X156519848Y-68614774D01*
X156490260Y-68612000D01*
X156490256Y-68612000D01*
X155909744Y-68612000D01*
X155909740Y-68612000D01*
X155880150Y-68614774D01*
X155755523Y-68658384D01*
X155649289Y-68736788D01*
X155649288Y-68736789D01*
X155570884Y-68843023D01*
X155527274Y-68967650D01*
X155524500Y-68997239D01*
X149479647Y-68997239D01*
X149370644Y-68889582D01*
X149370628Y-68889566D01*
X149359931Y-68880047D01*
X149354667Y-68875362D01*
X149334571Y-68859272D01*
X149264027Y-68822511D01*
X149264019Y-68822507D01*
X149196997Y-68802827D01*
X149196988Y-68802825D01*
X149196986Y-68802825D01*
X149139088Y-68794500D01*
X146767411Y-68794500D01*
X146767402Y-68794500D01*
X146733302Y-68797350D01*
X146733292Y-68797351D01*
X146692859Y-68804158D01*
X146692860Y-68804159D01*
X146692723Y-68804182D01*
X146692684Y-68804189D01*
X146691948Y-68804315D01*
X146691942Y-68804316D01*
X146607529Y-68839493D01*
X146607524Y-68839496D01*
X146550636Y-68880044D01*
X146508319Y-68920428D01*
X145864896Y-69739331D01*
X145859076Y-69747110D01*
X145852260Y-69756687D01*
X145852259Y-69756688D01*
X145822512Y-69817943D01*
X145802826Y-69884983D01*
X145802825Y-69884988D01*
X145802825Y-69884989D01*
X145794500Y-69942887D01*
X143849819Y-69942887D01*
X143856449Y-69901634D01*
X143856865Y-69899200D01*
X143878973Y-69777187D01*
X144195535Y-68030132D01*
X144195977Y-68027820D01*
X144368661Y-67172239D01*
X155524500Y-67172239D01*
X155524500Y-67777760D01*
X155527274Y-67807349D01*
X155570884Y-67931976D01*
X155649288Y-68038210D01*
X155649289Y-68038211D01*
X155755523Y-68116615D01*
X155755524Y-68116615D01*
X155755525Y-68116616D01*
X155880151Y-68160225D01*
X155880150Y-68160225D01*
X155909740Y-68163000D01*
X155909744Y-68163000D01*
X156490260Y-68163000D01*
X156502093Y-68161890D01*
X156519849Y-68160225D01*
X156569047Y-68143008D01*
X156593032Y-68137218D01*
X156604015Y-68135702D01*
X157179301Y-67936335D01*
X157183158Y-67935686D01*
X157184969Y-67934523D01*
X157219904Y-67929500D01*
X157437510Y-67929500D01*
X157461332Y-67931810D01*
X157474958Y-67934477D01*
X157494324Y-67938269D01*
X157556331Y-67970465D01*
X157591089Y-68031075D01*
X157594500Y-68059958D01*
X157594500Y-68294752D01*
X157606131Y-68353229D01*
X157606132Y-68353230D01*
X157650447Y-68419552D01*
X157716769Y-68463867D01*
X157716770Y-68463868D01*
X157775247Y-68475499D01*
X157775250Y-68475500D01*
X157775252Y-68475500D01*
X158414750Y-68475500D01*
X158414751Y-68475499D01*
X158429568Y-68472552D01*
X158473229Y-68463868D01*
X158473229Y-68463867D01*
X158473231Y-68463867D01*
X158539552Y-68419552D01*
X158583867Y-68353231D01*
X158583867Y-68353229D01*
X158583868Y-68353229D01*
X158595499Y-68294752D01*
X158595500Y-68294750D01*
X158595500Y-66705249D01*
X158595499Y-66705247D01*
X158583868Y-66646770D01*
X158583867Y-66646769D01*
X158539552Y-66580447D01*
X158473230Y-66536132D01*
X158473229Y-66536131D01*
X158414752Y-66524500D01*
X158414748Y-66524500D01*
X157775252Y-66524500D01*
X157775247Y-66524500D01*
X157716770Y-66536131D01*
X157716769Y-66536132D01*
X157650447Y-66580447D01*
X157606132Y-66646769D01*
X157606131Y-66646770D01*
X157594500Y-66705247D01*
X157594500Y-66892176D01*
X157585440Y-66923030D01*
X157577829Y-66954276D01*
X157575658Y-66956341D01*
X157574815Y-66959215D01*
X157550514Y-66980271D01*
X157527217Y-67002444D01*
X157523698Y-67003507D01*
X157522011Y-67004970D01*
X157493854Y-67013957D01*
X157489136Y-67014861D01*
X157482393Y-67015621D01*
X157476851Y-67017217D01*
X157471306Y-67018281D01*
X157466770Y-67017843D01*
X157447952Y-67020500D01*
X157219905Y-67020500D01*
X157179302Y-67013664D01*
X157149993Y-67003507D01*
X157116289Y-66991826D01*
X156604014Y-66814296D01*
X156576738Y-66808575D01*
X156561244Y-66804258D01*
X156519852Y-66789775D01*
X156519848Y-66789774D01*
X156490260Y-66787000D01*
X156490256Y-66787000D01*
X155909744Y-66787000D01*
X155909740Y-66787000D01*
X155880150Y-66789774D01*
X155755523Y-66833384D01*
X155649289Y-66911788D01*
X155649288Y-66911789D01*
X155570884Y-67018023D01*
X155527274Y-67142650D01*
X155524500Y-67172239D01*
X144368661Y-67172239D01*
X144571793Y-66165801D01*
X144572298Y-66163423D01*
X144985098Y-64309268D01*
X144985651Y-64306902D01*
X145435262Y-62461380D01*
X145435839Y-62459112D01*
X145922116Y-60622819D01*
X145922726Y-60620603D01*
X146240691Y-59509739D01*
X155499500Y-59509739D01*
X155499500Y-60090260D01*
X155502274Y-60119849D01*
X155502274Y-60119851D01*
X155520678Y-60172443D01*
X155526148Y-60194240D01*
X155528231Y-60207564D01*
X155609465Y-60429115D01*
X155737921Y-60779458D01*
X155738847Y-60784669D01*
X155740477Y-60787206D01*
X155745500Y-60822141D01*
X155745500Y-61057264D01*
X155739378Y-61095745D01*
X155550327Y-61674864D01*
X155544984Y-61701093D01*
X155540523Y-61717289D01*
X155527274Y-61755153D01*
X155527274Y-61755156D01*
X155524500Y-61784739D01*
X155524500Y-62390260D01*
X155527274Y-62419849D01*
X155570884Y-62544476D01*
X155649288Y-62650710D01*
X155649289Y-62650711D01*
X155755523Y-62729115D01*
X155755524Y-62729115D01*
X155755525Y-62729116D01*
X155880151Y-62772725D01*
X155880150Y-62772725D01*
X155909740Y-62775500D01*
X155909744Y-62775500D01*
X156490260Y-62775500D01*
X156502093Y-62774390D01*
X156519849Y-62772725D01*
X156569047Y-62755508D01*
X156593032Y-62749718D01*
X156604015Y-62748202D01*
X157179301Y-62548835D01*
X157183158Y-62548186D01*
X157184969Y-62547023D01*
X157219904Y-62542000D01*
X157439408Y-62542000D01*
X157463275Y-62545251D01*
X157463391Y-62544588D01*
X157469391Y-62545634D01*
X157469394Y-62545635D01*
X157491797Y-62549540D01*
X157554459Y-62580446D01*
X157590465Y-62640324D01*
X157594500Y-62671698D01*
X157594500Y-62894752D01*
X157606131Y-62953229D01*
X157606132Y-62953230D01*
X157650447Y-63019552D01*
X157716769Y-63063867D01*
X157716770Y-63063868D01*
X157775247Y-63075499D01*
X157775250Y-63075500D01*
X157775252Y-63075500D01*
X158414750Y-63075500D01*
X158414751Y-63075499D01*
X158429568Y-63072552D01*
X158473229Y-63063868D01*
X158473229Y-63063867D01*
X158473231Y-63063867D01*
X158539552Y-63019552D01*
X158583867Y-62953231D01*
X158583867Y-62953229D01*
X158583868Y-62953229D01*
X158595499Y-62894752D01*
X158595500Y-62894750D01*
X158595500Y-61305249D01*
X158595499Y-61305247D01*
X158864500Y-61305247D01*
X158864500Y-62894752D01*
X158876131Y-62953229D01*
X158876132Y-62953230D01*
X158920447Y-63019552D01*
X158986769Y-63063867D01*
X158986770Y-63063868D01*
X159045247Y-63075499D01*
X159045250Y-63075500D01*
X159045252Y-63075500D01*
X159684750Y-63075500D01*
X159684751Y-63075499D01*
X159699568Y-63072552D01*
X159743229Y-63063868D01*
X159743229Y-63063867D01*
X159743231Y-63063867D01*
X159809552Y-63019552D01*
X159853867Y-62953231D01*
X159853867Y-62953229D01*
X159853868Y-62953229D01*
X159865499Y-62894752D01*
X159865500Y-62894750D01*
X159865500Y-61305249D01*
X159865499Y-61305247D01*
X159853868Y-61246770D01*
X159853867Y-61246769D01*
X159809552Y-61180447D01*
X159743230Y-61136132D01*
X159743229Y-61136131D01*
X159684752Y-61124500D01*
X159684748Y-61124500D01*
X159045252Y-61124500D01*
X159045247Y-61124500D01*
X158986770Y-61136131D01*
X158986769Y-61136132D01*
X158920447Y-61180447D01*
X158876132Y-61246769D01*
X158876131Y-61246770D01*
X158864500Y-61305247D01*
X158595499Y-61305247D01*
X158583868Y-61246770D01*
X158583867Y-61246769D01*
X158539552Y-61180447D01*
X158473230Y-61136132D01*
X158473229Y-61136131D01*
X158414752Y-61124500D01*
X158414748Y-61124500D01*
X157775252Y-61124500D01*
X157775247Y-61124500D01*
X157716770Y-61136131D01*
X157716769Y-61136132D01*
X157650447Y-61180447D01*
X157606132Y-61246769D01*
X157606131Y-61246770D01*
X157594500Y-61305247D01*
X157594500Y-61504360D01*
X157585245Y-61535875D01*
X157577096Y-61567711D01*
X157575448Y-61569243D01*
X157574815Y-61571399D01*
X157549999Y-61592902D01*
X157525924Y-61615284D01*
X157523207Y-61616117D01*
X157522011Y-61617154D01*
X157492428Y-61626406D01*
X157489617Y-61626910D01*
X157478115Y-61628438D01*
X157473784Y-61629755D01*
X157466603Y-61631046D01*
X157461513Y-61630495D01*
X157444675Y-61633000D01*
X157219905Y-61633000D01*
X157179303Y-61626164D01*
X156900064Y-61529393D01*
X156847865Y-61511303D01*
X156790967Y-61470751D01*
X156770592Y-61432622D01*
X156673806Y-61136132D01*
X156660622Y-61095745D01*
X156660234Y-61093306D01*
X156659523Y-61092200D01*
X156654500Y-61057265D01*
X156654500Y-60817736D01*
X156660622Y-60779255D01*
X156670336Y-60749500D01*
X156849588Y-60200392D01*
X156854283Y-60176397D01*
X156858930Y-60159267D01*
X156872725Y-60119849D01*
X156875199Y-60093464D01*
X156875500Y-60090260D01*
X156875500Y-59509739D01*
X157324500Y-59509739D01*
X157324500Y-60090260D01*
X157327274Y-60119849D01*
X157370884Y-60244476D01*
X157449288Y-60350710D01*
X157449289Y-60350711D01*
X157555523Y-60429115D01*
X157555524Y-60429115D01*
X157555525Y-60429116D01*
X157680151Y-60472725D01*
X157680150Y-60472725D01*
X157709740Y-60475500D01*
X157709744Y-60475500D01*
X158315260Y-60475500D01*
X158327093Y-60474390D01*
X158344849Y-60472725D01*
X158390457Y-60456765D01*
X158416673Y-60450686D01*
X158425125Y-60449674D01*
X158425127Y-60449673D01*
X158425132Y-60449673D01*
X159004257Y-60260621D01*
X159006695Y-60260234D01*
X159007802Y-60259523D01*
X159042737Y-60254500D01*
X159265452Y-60254500D01*
X159298683Y-60259035D01*
X159301197Y-60259735D01*
X159815785Y-60298385D01*
X159815786Y-60298384D01*
X159818691Y-60298603D01*
X159825993Y-60299846D01*
X159826047Y-60299439D01*
X159834106Y-60300500D01*
X159834108Y-60300500D01*
X159965890Y-60300500D01*
X159965892Y-60300500D01*
X160093186Y-60266392D01*
X160207314Y-60200500D01*
X160300500Y-60107314D01*
X160366392Y-59993186D01*
X160400500Y-59865892D01*
X160400500Y-59734108D01*
X160366392Y-59606814D01*
X160300500Y-59492686D01*
X160207314Y-59399500D01*
X160150250Y-59366554D01*
X160093187Y-59333608D01*
X159977043Y-59302488D01*
X159965892Y-59299500D01*
X159834108Y-59299500D01*
X159834106Y-59299500D01*
X159826054Y-59300560D01*
X159826000Y-59300155D01*
X159818701Y-59301395D01*
X159301196Y-59340264D01*
X159298509Y-59340957D01*
X159296151Y-59341566D01*
X159265165Y-59345500D01*
X159042735Y-59345500D01*
X159004256Y-59339378D01*
X158672968Y-59231231D01*
X158425129Y-59150326D01*
X158425118Y-59150323D01*
X158398922Y-59144988D01*
X158382715Y-59140525D01*
X158344849Y-59127275D01*
X158344844Y-59127274D01*
X158315260Y-59124500D01*
X158315256Y-59124500D01*
X157709744Y-59124500D01*
X157709740Y-59124500D01*
X157680150Y-59127274D01*
X157555523Y-59170884D01*
X157449289Y-59249288D01*
X157449288Y-59249289D01*
X157370884Y-59355523D01*
X157327274Y-59480150D01*
X157324500Y-59509739D01*
X156875500Y-59509739D01*
X156872725Y-59480150D01*
X156829115Y-59355523D01*
X156750711Y-59249289D01*
X156750710Y-59249288D01*
X156644476Y-59170884D01*
X156519848Y-59127274D01*
X156519849Y-59127274D01*
X156490260Y-59124500D01*
X156490256Y-59124500D01*
X155884744Y-59124500D01*
X155884740Y-59124500D01*
X155855150Y-59127274D01*
X155730523Y-59170884D01*
X155624289Y-59249288D01*
X155624288Y-59249289D01*
X155545884Y-59355523D01*
X155502274Y-59480150D01*
X155499500Y-59509739D01*
X146240691Y-59509739D01*
X146445470Y-58794312D01*
X146446163Y-58791982D01*
X146891124Y-57346807D01*
X147005121Y-56976560D01*
X147005858Y-56974251D01*
X147194995Y-56400803D01*
X147600835Y-55170326D01*
X147601580Y-55168141D01*
X148232389Y-53376291D01*
X148233184Y-53374104D01*
X148899535Y-51595157D01*
X148900340Y-51593073D01*
X149601970Y-49827733D01*
X149602837Y-49825613D01*
X150339465Y-48074592D01*
X150340375Y-48072487D01*
X151111683Y-46336533D01*
X151112662Y-46334388D01*
X151918412Y-44614038D01*
X151919374Y-44612036D01*
X152759182Y-42908115D01*
X152760219Y-42906063D01*
X153633771Y-41219202D01*
X153634840Y-41217186D01*
X154541815Y-39548008D01*
X154542930Y-39546004D01*
X155482929Y-37895244D01*
X155484099Y-37893238D01*
X156278238Y-36561010D01*
X156329472Y-36513507D01*
X156384744Y-36500504D01*
X227346533Y-36500500D01*
X227413572Y-36520185D01*
G37*
%TD.AperFunction*%
%TD*%
%TA.AperFunction,Conductor*%
%TO.N,12V_1A_VDD*%
G36*
X162307441Y-98519685D02*
G01*
X162337230Y-98546538D01*
X163072828Y-99466035D01*
X163099336Y-99530681D01*
X163100000Y-99543497D01*
X163100000Y-101362456D01*
X163080315Y-101429495D01*
X163079174Y-101431239D01*
X162536811Y-102244783D01*
X162483246Y-102289644D01*
X162433637Y-102300000D01*
X160800000Y-102300000D01*
X160300000Y-102900000D01*
X160300000Y-107153407D01*
X160280315Y-107220446D01*
X160269320Y-107235062D01*
X159637052Y-107957655D01*
X159578092Y-107995145D01*
X159543732Y-108000000D01*
X157652821Y-108000000D01*
X157585782Y-107980315D01*
X157563404Y-107961910D01*
X152700000Y-102900000D01*
X147151362Y-102900000D01*
X147084323Y-102880315D01*
X147063681Y-102863681D01*
X145836319Y-101636319D01*
X145802834Y-101574996D01*
X145800000Y-101548638D01*
X145800000Y-99939738D01*
X145819685Y-99872699D01*
X145823097Y-99867664D01*
X146762910Y-98551926D01*
X146817894Y-98508816D01*
X146863813Y-98500000D01*
X162240402Y-98500000D01*
X162307441Y-98519685D01*
G37*
%TD.AperFunction*%
%TD*%
%TA.AperFunction,Conductor*%
%TO.N,12V_1A_VDD*%
G36*
X171953785Y-89215927D02*
G01*
X171956634Y-89220569D01*
X172154318Y-89826139D01*
X172153628Y-89835067D01*
X172150205Y-89839138D01*
X171707009Y-90170755D01*
X171698332Y-90172968D01*
X171692991Y-90170755D01*
X171468060Y-90002453D01*
X171249793Y-89839136D01*
X171245222Y-89831438D01*
X171245680Y-89826143D01*
X171443366Y-89220569D01*
X171449191Y-89213768D01*
X171454488Y-89212500D01*
X171945512Y-89212500D01*
X171953785Y-89215927D01*
G37*
%TD.AperFunction*%
%TD*%
%TA.AperFunction,Conductor*%
%TO.N,5V_ADJ_VDD*%
G36*
X230259161Y-103039036D02*
G01*
X230491847Y-103193414D01*
X230498734Y-103197984D01*
X230502015Y-103201265D01*
X230660962Y-103440836D01*
X230662681Y-103449624D01*
X230658843Y-103456174D01*
X230267645Y-103792714D01*
X230259139Y-103795511D01*
X230251742Y-103792117D01*
X229907882Y-103448257D01*
X229904455Y-103439984D01*
X229907285Y-103432354D01*
X230243826Y-103041155D01*
X230251819Y-103037119D01*
X230259161Y-103039036D01*
G37*
%TD.AperFunction*%
%TD*%
%TA.AperFunction,Conductor*%
%TO.N,5V_ADJ_VDD*%
G36*
X228743721Y-104614709D02*
G01*
X228746657Y-104616848D01*
X229092853Y-104963044D01*
X229095399Y-104966862D01*
X229253462Y-105350714D01*
X229253443Y-105359669D01*
X229249642Y-105364545D01*
X228806901Y-105695027D01*
X228798221Y-105697230D01*
X228792168Y-105694430D01*
X228375276Y-105327161D01*
X228371333Y-105319121D01*
X228372597Y-105313048D01*
X228727974Y-104619782D01*
X228734796Y-104613985D01*
X228743721Y-104614709D01*
G37*
%TD.AperFunction*%
%TD*%
%TA.AperFunction,Conductor*%
%TO.N,Net-(R9-Pad2)*%
G36*
X227974706Y-110117803D02*
G01*
X228322196Y-110465293D01*
X228325623Y-110473566D01*
X228324472Y-110478626D01*
X227744483Y-111687865D01*
X227737816Y-111693842D01*
X227728874Y-111693354D01*
X227727447Y-111692542D01*
X227141243Y-111302006D01*
X227137993Y-111298756D01*
X226747457Y-110712552D01*
X226745722Y-110703767D01*
X226750707Y-110696328D01*
X226752124Y-110695521D01*
X227961373Y-110115526D01*
X227970315Y-110115039D01*
X227974706Y-110117803D01*
G37*
%TD.AperFunction*%
%TD*%
%TA.AperFunction,Conductor*%
%TO.N,/5V_Regulators/V_Sense_ADJ*%
G36*
X226215700Y-107226714D02*
G01*
X226215913Y-107227228D01*
X226503875Y-107972090D01*
X226504527Y-107978082D01*
X226460522Y-108265073D01*
X226455881Y-108272731D01*
X226448957Y-108275000D01*
X225961043Y-108275000D01*
X225952770Y-108271573D01*
X225949478Y-108265073D01*
X225940841Y-108208747D01*
X225905472Y-107978079D01*
X225906123Y-107972093D01*
X226194087Y-107227227D01*
X226200267Y-107220747D01*
X226209219Y-107220534D01*
X226215700Y-107226714D01*
G37*
%TD.AperFunction*%
%TD*%
%TA.AperFunction,Conductor*%
%TO.N,/5V_Regulators/V_Sense_ADJ*%
G36*
X225434706Y-110117803D02*
G01*
X225782196Y-110465293D01*
X225785623Y-110473566D01*
X225784472Y-110478626D01*
X225204483Y-111687865D01*
X225197816Y-111693842D01*
X225188874Y-111693354D01*
X225187447Y-111692542D01*
X224601243Y-111302006D01*
X224597993Y-111298756D01*
X224207457Y-110712552D01*
X224205722Y-110703767D01*
X224210707Y-110696328D01*
X224212124Y-110695521D01*
X225421373Y-110115526D01*
X225430315Y-110115039D01*
X225434706Y-110117803D01*
G37*
%TD.AperFunction*%
%TD*%
%TA.AperFunction,Conductor*%
%TO.N,Net-(R9-Pad2)*%
G36*
X228807007Y-107529243D02*
G01*
X229250205Y-107860862D01*
X229254777Y-107868561D01*
X229254318Y-107873860D01*
X229056634Y-108479431D01*
X229050809Y-108486232D01*
X229045512Y-108487500D01*
X228554488Y-108487500D01*
X228546215Y-108484073D01*
X228543366Y-108479431D01*
X228526963Y-108429184D01*
X228345681Y-107873858D01*
X228346371Y-107864932D01*
X228349790Y-107860865D01*
X228792991Y-107529243D01*
X228801668Y-107527031D01*
X228807007Y-107529243D01*
G37*
%TD.AperFunction*%
%TD*%
%TA.AperFunction,Conductor*%
%TO.N,Net-(U9-EN)*%
G36*
X227772307Y-101346456D02*
G01*
X227776587Y-101350168D01*
X228096284Y-101805780D01*
X228098231Y-101814520D01*
X228096284Y-101819220D01*
X227776777Y-102274561D01*
X227769220Y-102279365D01*
X227763172Y-102278826D01*
X227157672Y-102056813D01*
X227151084Y-102050747D01*
X227150000Y-102045828D01*
X227150000Y-101554487D01*
X227153427Y-101546214D01*
X227158065Y-101543366D01*
X227763381Y-101345766D01*
X227772307Y-101346456D01*
G37*
%TD.AperFunction*%
%TD*%
%TA.AperFunction,Conductor*%
%TO.N,Net-(U9-EN)*%
G36*
X226510842Y-101500895D02*
G01*
X226795074Y-101544478D01*
X226802731Y-101549118D01*
X226805000Y-101556042D01*
X226805000Y-102043957D01*
X226801573Y-102052230D01*
X226795073Y-102055522D01*
X226510844Y-102099103D01*
X226502147Y-102096969D01*
X226500812Y-102095825D01*
X226329087Y-101924671D01*
X226212313Y-101808285D01*
X226208873Y-101800019D01*
X226212285Y-101791741D01*
X226500812Y-101504173D01*
X226509090Y-101500761D01*
X226510842Y-101500895D01*
G37*
%TD.AperFunction*%
%TD*%
%TA.AperFunction,Conductor*%
%TO.N,VBAT*%
G36*
X228353785Y-99028427D02*
G01*
X228356634Y-99033069D01*
X228554318Y-99638639D01*
X228553628Y-99647567D01*
X228550205Y-99651638D01*
X228107009Y-99983255D01*
X228098332Y-99985468D01*
X228092991Y-99983255D01*
X227868060Y-99814953D01*
X227649793Y-99651636D01*
X227645222Y-99643938D01*
X227645680Y-99638643D01*
X227843366Y-99033069D01*
X227849191Y-99026268D01*
X227854488Y-99025000D01*
X228345512Y-99025000D01*
X228353785Y-99028427D01*
G37*
%TD.AperFunction*%
%TD*%
%TA.AperFunction,Conductor*%
%TO.N,VBAT*%
G36*
X228384115Y-97856479D02*
G01*
X228391544Y-97861479D01*
X228393462Y-97868823D01*
X228354813Y-98383412D01*
X228350776Y-98391406D01*
X228343146Y-98394236D01*
X227856854Y-98394236D01*
X227848581Y-98390809D01*
X227845187Y-98383412D01*
X227806537Y-97868823D01*
X227809334Y-97860317D01*
X227815882Y-97856479D01*
X228097682Y-97799469D01*
X228102318Y-97799469D01*
X228384115Y-97856479D01*
G37*
%TD.AperFunction*%
%TD*%
%TA.AperFunction,Conductor*%
%TO.N,5V_1A_VDD*%
G36*
X209194220Y-60503715D02*
G01*
X209649696Y-60823317D01*
X209654500Y-60830874D01*
X209654031Y-60836725D01*
X209444227Y-61442131D01*
X209438280Y-61448826D01*
X209433172Y-61450000D01*
X208941828Y-61450000D01*
X208933555Y-61446573D01*
X208930773Y-61442131D01*
X208925252Y-61426199D01*
X208720968Y-60836723D01*
X208721497Y-60827786D01*
X208725300Y-60823319D01*
X209180780Y-60503714D01*
X209189520Y-60501768D01*
X209194220Y-60503715D01*
G37*
%TD.AperFunction*%
%TD*%
%TA.AperFunction,Conductor*%
%TO.N,5V_1A_VDD*%
G36*
X209439168Y-61309191D02*
G01*
X209442539Y-61316318D01*
X209493200Y-61830954D01*
X209490600Y-61839523D01*
X209483876Y-61843568D01*
X209202320Y-61900530D01*
X209197680Y-61900530D01*
X208915649Y-61843472D01*
X208908220Y-61838472D01*
X208906285Y-61831400D01*
X208932926Y-61316859D01*
X208936776Y-61308774D01*
X208944610Y-61305764D01*
X209430895Y-61305764D01*
X209439168Y-61309191D01*
G37*
%TD.AperFunction*%
%TD*%
%TA.AperFunction,Conductor*%
%TO.N,12V_5A_VDD*%
G36*
X158361356Y-59345680D02*
G01*
X158966932Y-59543366D01*
X158973732Y-59549190D01*
X158975000Y-59554487D01*
X158975000Y-60045512D01*
X158971573Y-60053785D01*
X158966931Y-60056634D01*
X158361360Y-60254318D01*
X158352432Y-60253628D01*
X158348363Y-60250206D01*
X158016743Y-59807008D01*
X158014531Y-59798332D01*
X158016744Y-59792991D01*
X158348363Y-59349792D01*
X158356061Y-59345222D01*
X158361356Y-59345680D01*
G37*
%TD.AperFunction*%
%TD*%
%TA.AperFunction,Conductor*%
%TO.N,12V_5A_VDD*%
G36*
X159839682Y-59509334D02*
G01*
X159843520Y-59515884D01*
X159900530Y-59797680D01*
X159900530Y-59802320D01*
X159843520Y-60084115D01*
X159838520Y-60091544D01*
X159831176Y-60093462D01*
X159316588Y-60054812D01*
X159308594Y-60050775D01*
X159305764Y-60043145D01*
X159305764Y-59556854D01*
X159309191Y-59548581D01*
X159316588Y-59545187D01*
X159831176Y-59506537D01*
X159839682Y-59509334D01*
G37*
%TD.AperFunction*%
%TD*%
%TA.AperFunction,Conductor*%
%TO.N,/12V_Regulators/V_Sense_ADJ*%
G36*
X156194220Y-59803715D02*
G01*
X156649831Y-60123412D01*
X156654635Y-60130969D01*
X156654233Y-60136620D01*
X156456634Y-60741931D01*
X156450809Y-60748732D01*
X156445512Y-60750000D01*
X155954172Y-60750000D01*
X155945899Y-60746573D01*
X155943187Y-60742328D01*
X155936139Y-60723108D01*
X155721173Y-60136825D01*
X155721542Y-60127880D01*
X155725435Y-60123225D01*
X156180780Y-59803714D01*
X156189520Y-59801768D01*
X156194220Y-59803715D01*
G37*
%TD.AperFunction*%
%TD*%
%TA.AperFunction,Conductor*%
%TO.N,/12V_Regulators/V_Sense_ADJ*%
G36*
X156453785Y-61128427D02*
G01*
X156456634Y-61133069D01*
X156654318Y-61738639D01*
X156653628Y-61747567D01*
X156650205Y-61751638D01*
X156207009Y-62083255D01*
X156198332Y-62085468D01*
X156192991Y-62083255D01*
X155968060Y-61914953D01*
X155749793Y-61751636D01*
X155745222Y-61743938D01*
X155745680Y-61738643D01*
X155943366Y-61133069D01*
X155949191Y-61126268D01*
X155954488Y-61125000D01*
X156445512Y-61125000D01*
X156453785Y-61128427D01*
G37*
%TD.AperFunction*%
%TD*%
%TA.AperFunction,Conductor*%
%TO.N,/12V_Regulators/V_Sense_ADJ*%
G36*
X157797861Y-61796750D02*
G01*
X157799090Y-61797837D01*
X158087772Y-62091626D01*
X158091127Y-62099929D01*
X158087627Y-62108171D01*
X158087599Y-62108199D01*
X157799283Y-62389622D01*
X157790969Y-62392948D01*
X157789101Y-62392775D01*
X157504690Y-62343189D01*
X157497129Y-62338392D01*
X157495000Y-62331663D01*
X157495000Y-61843749D01*
X157498427Y-61835476D01*
X157505159Y-61832151D01*
X157789210Y-61794442D01*
X157797861Y-61796750D01*
G37*
%TD.AperFunction*%
%TD*%
%TA.AperFunction,Conductor*%
%TO.N,/12V_Regulators/V_Sense_ADJ*%
G36*
X156536722Y-61620967D02*
G01*
X157142132Y-61830773D01*
X157148826Y-61836719D01*
X157150000Y-61841827D01*
X157150000Y-62333172D01*
X157146573Y-62341445D01*
X157142131Y-62344227D01*
X156536725Y-62554031D01*
X156527786Y-62553502D01*
X156523317Y-62549696D01*
X156379142Y-62344227D01*
X156203714Y-62094219D01*
X156201768Y-62085480D01*
X156203715Y-62080780D01*
X156523318Y-61625301D01*
X156530874Y-61620499D01*
X156536722Y-61620967D01*
G37*
%TD.AperFunction*%
%TD*%
%TA.AperFunction,Conductor*%
%TO.N,VBAT*%
G36*
X156536722Y-68833467D02*
G01*
X157142132Y-69043273D01*
X157148826Y-69049219D01*
X157150000Y-69054327D01*
X157150000Y-69545672D01*
X157146573Y-69553945D01*
X157142131Y-69556727D01*
X156536725Y-69766531D01*
X156527786Y-69766002D01*
X156523317Y-69762196D01*
X156379142Y-69556727D01*
X156203714Y-69306719D01*
X156201768Y-69297980D01*
X156203715Y-69293280D01*
X156523318Y-68837801D01*
X156530874Y-68832999D01*
X156536722Y-68833467D01*
G37*
%TD.AperFunction*%
%TD*%
%TA.AperFunction,Conductor*%
%TO.N,VBAT*%
G36*
X157439682Y-69009334D02*
G01*
X157443520Y-69015884D01*
X157500530Y-69297680D01*
X157500530Y-69302320D01*
X157443520Y-69584115D01*
X157438520Y-69591544D01*
X157431176Y-69593462D01*
X156916588Y-69554812D01*
X156908594Y-69550775D01*
X156905764Y-69543145D01*
X156905764Y-69056854D01*
X156909191Y-69048581D01*
X156916588Y-69045187D01*
X157431176Y-69006537D01*
X157439682Y-69009334D01*
G37*
%TD.AperFunction*%
%TD*%
%TA.AperFunction,Conductor*%
%TO.N,Net-(U7-VCC)*%
G36*
X168837230Y-93078427D02*
G01*
X168840522Y-93084927D01*
X168884527Y-93371917D01*
X168883875Y-93377909D01*
X168595913Y-94122771D01*
X168589733Y-94129252D01*
X168580781Y-94129465D01*
X168574300Y-94123285D01*
X168574087Y-94122771D01*
X168485354Y-93893249D01*
X168286123Y-93377906D01*
X168285472Y-93371919D01*
X168329478Y-93084927D01*
X168334119Y-93077269D01*
X168341043Y-93075000D01*
X168828957Y-93075000D01*
X168837230Y-93078427D01*
G37*
%TD.AperFunction*%
%TD*%
%TA.AperFunction,Conductor*%
%TO.N,Net-(U7-VCC)*%
G36*
X168607615Y-89805531D02*
G01*
X169026116Y-90164466D01*
X169050851Y-90185681D01*
X169054900Y-90193668D01*
X169054275Y-90198433D01*
X168841745Y-90804671D01*
X168835774Y-90811344D01*
X168830704Y-90812500D01*
X168339686Y-90812500D01*
X168331413Y-90809073D01*
X168328487Y-90804186D01*
X168145286Y-90198188D01*
X168146172Y-90189277D01*
X168148865Y-90185924D01*
X168592384Y-89805531D01*
X168600894Y-89802747D01*
X168607615Y-89805531D01*
G37*
%TD.AperFunction*%
%TD*%
%TA.AperFunction,Conductor*%
%TO.N,Net-(U7-BOOT)*%
G36*
X167567230Y-93078427D02*
G01*
X167570522Y-93084927D01*
X167614527Y-93371917D01*
X167613875Y-93377909D01*
X167325913Y-94122771D01*
X167319733Y-94129252D01*
X167310781Y-94129465D01*
X167304300Y-94123285D01*
X167304087Y-94122771D01*
X167215354Y-93893249D01*
X167016123Y-93377906D01*
X167015472Y-93371919D01*
X167059478Y-93084927D01*
X167064119Y-93077269D01*
X167071043Y-93075000D01*
X167558957Y-93075000D01*
X167567230Y-93078427D01*
G37*
%TD.AperFunction*%
%TD*%
%TA.AperFunction,Conductor*%
%TO.N,Net-(U7-BOOT)*%
G36*
X167307602Y-91605109D02*
G01*
X167307941Y-91605381D01*
X167774552Y-91980344D01*
X167778854Y-91988197D01*
X167778175Y-91993581D01*
X167571851Y-92542417D01*
X167565732Y-92548955D01*
X167560899Y-92550000D01*
X167068770Y-92550000D01*
X167060497Y-92546573D01*
X167057986Y-92542839D01*
X167034190Y-92486304D01*
X166834628Y-92012176D01*
X166834578Y-92003223D01*
X166837757Y-91998792D01*
X167292623Y-91605380D01*
X167301120Y-91602561D01*
X167307602Y-91605109D01*
G37*
%TD.AperFunction*%
%TD*%
%TA.AperFunction,Conductor*%
%TO.N,Net-(U8-VCC)*%
G36*
X208998431Y-63045723D02*
G01*
X209604671Y-63258255D01*
X209611344Y-63264226D01*
X209612500Y-63269296D01*
X209612500Y-63760314D01*
X209609073Y-63768587D01*
X209604186Y-63771513D01*
X208998188Y-63954713D01*
X208989277Y-63953827D01*
X208985921Y-63951131D01*
X208829713Y-63769000D01*
X208605531Y-63507615D01*
X208602747Y-63499106D01*
X208605531Y-63492384D01*
X208985682Y-63049147D01*
X208993668Y-63045099D01*
X208998431Y-63045723D01*
G37*
%TD.AperFunction*%
%TD*%
%TA.AperFunction,Conductor*%
%TO.N,Net-(U8-VCC)*%
G36*
X212277906Y-63216123D02*
G01*
X212793249Y-63415354D01*
X213022771Y-63504087D01*
X213029252Y-63510267D01*
X213029465Y-63519219D01*
X213023285Y-63525700D01*
X213022771Y-63525913D01*
X212277909Y-63813875D01*
X212271917Y-63814527D01*
X211984927Y-63770522D01*
X211977269Y-63765881D01*
X211975000Y-63758957D01*
X211975000Y-63271042D01*
X211978427Y-63262769D01*
X211984924Y-63259478D01*
X212271919Y-63215472D01*
X212277906Y-63216123D01*
G37*
%TD.AperFunction*%
%TD*%
%TA.AperFunction,Conductor*%
%TO.N,Net-(U8-BOOT)*%
G36*
X211309005Y-64307444D02*
G01*
X211842768Y-64528011D01*
X211849106Y-64534338D01*
X211850000Y-64538824D01*
X211850000Y-65030954D01*
X211846573Y-65039227D01*
X211842487Y-65041879D01*
X211296611Y-65251090D01*
X211287660Y-65250851D01*
X211283347Y-65247548D01*
X211113724Y-65039000D01*
X210905152Y-64782564D01*
X210902591Y-64773984D01*
X210905332Y-64767586D01*
X211295642Y-64310658D01*
X211303621Y-64306594D01*
X211309005Y-64307444D01*
G37*
%TD.AperFunction*%
%TD*%
%TA.AperFunction,Conductor*%
%TO.N,Net-(U8-BOOT)*%
G36*
X212277906Y-64486123D02*
G01*
X212793249Y-64685354D01*
X213022771Y-64774087D01*
X213029252Y-64780267D01*
X213029465Y-64789219D01*
X213023285Y-64795700D01*
X213022771Y-64795913D01*
X212277909Y-65083875D01*
X212271917Y-65084527D01*
X211984927Y-65040522D01*
X211977269Y-65035881D01*
X211975000Y-65028957D01*
X211975000Y-64541042D01*
X211978427Y-64532769D01*
X211984924Y-64529478D01*
X212271919Y-64485472D01*
X212277906Y-64486123D01*
G37*
%TD.AperFunction*%
%TD*%
%TA.AperFunction,Conductor*%
%TO.N,Net-(U6-EN)*%
G36*
X157797868Y-67190344D02*
G01*
X157798997Y-67191373D01*
X157837571Y-67231456D01*
X158087859Y-67491541D01*
X158091127Y-67499879D01*
X158087542Y-67508084D01*
X158087514Y-67508111D01*
X157799383Y-67783548D01*
X157791035Y-67786788D01*
X157789050Y-67786573D01*
X157504452Y-67730850D01*
X157496991Y-67725897D01*
X157495000Y-67719368D01*
X157495000Y-67231456D01*
X157498427Y-67223183D01*
X157505388Y-67219830D01*
X157789266Y-67187864D01*
X157797868Y-67190344D01*
G37*
%TD.AperFunction*%
%TD*%
%TA.AperFunction,Conductor*%
%TO.N,Net-(U6-EN)*%
G36*
X156536722Y-67008467D02*
G01*
X157142132Y-67218273D01*
X157148826Y-67224219D01*
X157150000Y-67229327D01*
X157150000Y-67720672D01*
X157146573Y-67728945D01*
X157142131Y-67731727D01*
X156536725Y-67941531D01*
X156527786Y-67941002D01*
X156523317Y-67937196D01*
X156379142Y-67731727D01*
X156203714Y-67481719D01*
X156201768Y-67472980D01*
X156203715Y-67468280D01*
X156523318Y-67012801D01*
X156530874Y-67007999D01*
X156536722Y-67008467D01*
G37*
%TD.AperFunction*%
%TD*%
M02*
