%TF.GenerationSoftware,KiCad,Pcbnew,9.0.1*%
%TF.CreationDate,2025-04-09T16:15:18+03:00*%
%TF.ProjectId,G__ Da__t_m Kart_,47fce720-4461-41f3-9174-316d204b6172,rev?*%
%TF.SameCoordinates,Original*%
%TF.FileFunction,Legend,Top*%
%TF.FilePolarity,Positive*%
%FSLAX46Y46*%
G04 Gerber Fmt 4.6, Leading zero omitted, Abs format (unit mm)*
G04 Created by KiCad (PCBNEW 9.0.1) date 2025-04-09 16:15:18*
%MOMM*%
%LPD*%
G01*
G04 APERTURE LIST*
%ADD10C,0.200000*%
%ADD11C,0.300000*%
%ADD12C,0.100000*%
%ADD13C,0.150000*%
%ADD14C,0.000000*%
%ADD15C,0.120000*%
G04 APERTURE END LIST*
D10*
G36*
X185169242Y-37617083D02*
G01*
X185169242Y-38375212D01*
X185222487Y-38375212D01*
X185338818Y-38365080D01*
X185423255Y-38338210D01*
X185493716Y-38289945D01*
X185555146Y-38213646D01*
X185597952Y-38116388D01*
X185625488Y-37976608D01*
X185673360Y-37976608D01*
X185673360Y-38914501D01*
X185625488Y-38914501D01*
X185603426Y-38777034D01*
X185570911Y-38677975D01*
X185530736Y-38608608D01*
X185484071Y-38562058D01*
X185403667Y-38514680D01*
X185317138Y-38486418D01*
X185222487Y-38476817D01*
X185169242Y-38476817D01*
X185169242Y-39039553D01*
X185174510Y-39172109D01*
X185184874Y-39222002D01*
X185206969Y-39254909D01*
X185246423Y-39285750D01*
X185297201Y-39305571D01*
X185370132Y-39313105D01*
X185431559Y-39313105D01*
X185431559Y-39360000D01*
X184462892Y-39360000D01*
X184462892Y-39313105D01*
X184524319Y-39313105D01*
X184599931Y-39305081D01*
X184654134Y-39283674D01*
X184684643Y-39258023D01*
X184708722Y-39216263D01*
X184718624Y-39169335D01*
X184723743Y-39039553D01*
X184723743Y-37828108D01*
X184718677Y-37695548D01*
X184708722Y-37645781D01*
X184687182Y-37612805D01*
X184647906Y-37581912D01*
X184597234Y-37562094D01*
X184524319Y-37554556D01*
X184462892Y-37554556D01*
X184462892Y-37507662D01*
X186025802Y-37507662D01*
X186025802Y-38039134D01*
X185969748Y-38039134D01*
X185948167Y-37917480D01*
X185914811Y-37828069D01*
X185872051Y-37763750D01*
X185814555Y-37711783D01*
X185739964Y-37669488D01*
X185644661Y-37637477D01*
X185545292Y-37623462D01*
X185341311Y-37617083D01*
X185169242Y-37617083D01*
G37*
G36*
X186704064Y-37507662D02*
G01*
X186704064Y-39094263D01*
X186714191Y-39218110D01*
X186735450Y-39269508D01*
X186776890Y-39297570D01*
X186858426Y-39313105D01*
X186858426Y-39360000D01*
X186168440Y-39360000D01*
X186168440Y-39313105D01*
X186244779Y-39298208D01*
X186294103Y-39263279D01*
X186312321Y-39217623D01*
X186321458Y-39094263D01*
X186321458Y-37773398D01*
X186311307Y-37649979D01*
X186289951Y-37598520D01*
X186248741Y-37570205D01*
X186168440Y-37554556D01*
X186168440Y-37507662D01*
X186704064Y-37507662D01*
G37*
G36*
X187289026Y-37468583D02*
G01*
X187345628Y-37475608D01*
X187395098Y-37496123D01*
X187439235Y-37530743D01*
X187473586Y-37575262D01*
X187493869Y-37624563D01*
X187500785Y-37680341D01*
X187493802Y-37735978D01*
X187473327Y-37785025D01*
X187438625Y-37829207D01*
X187394115Y-37863485D01*
X187344812Y-37883731D01*
X187289026Y-37890635D01*
X187233260Y-37883718D01*
X187184171Y-37863464D01*
X187140038Y-37829207D01*
X187105775Y-37785077D01*
X187085524Y-37736027D01*
X187078611Y-37680341D01*
X187085515Y-37624555D01*
X187105760Y-37575253D01*
X187140038Y-37530743D01*
X187184223Y-37496047D01*
X187233308Y-37475569D01*
X187289026Y-37468583D01*
G37*
G36*
X187480268Y-38086029D02*
G01*
X187480268Y-39094263D01*
X187490395Y-39218110D01*
X187511653Y-39269508D01*
X187553109Y-39297566D01*
X187634752Y-39313105D01*
X187634752Y-39360000D01*
X186944766Y-39360000D01*
X186944766Y-39313105D01*
X187021105Y-39298208D01*
X187070429Y-39263279D01*
X187088647Y-39217623D01*
X187097784Y-39094263D01*
X187097784Y-38351765D01*
X187087620Y-38227931D01*
X187066277Y-38176521D01*
X187025097Y-38148416D01*
X186944766Y-38132923D01*
X186944766Y-38086029D01*
X187480268Y-38086029D01*
G37*
G36*
X188443500Y-38060160D02*
G01*
X188578995Y-38101660D01*
X189009473Y-38101660D01*
X189009473Y-38250160D01*
X188764863Y-38250160D01*
X188824273Y-38317619D01*
X188857798Y-38371793D01*
X188882347Y-38447275D01*
X188890526Y-38526154D01*
X188881799Y-38614696D01*
X188856483Y-38692990D01*
X188814689Y-38763192D01*
X188759181Y-38824237D01*
X188690967Y-38876570D01*
X188608304Y-38920362D01*
X188480071Y-38964101D01*
X188376884Y-38977027D01*
X188212875Y-38970188D01*
X188155929Y-38980247D01*
X188109682Y-39009755D01*
X188078330Y-39053441D01*
X188068039Y-39104277D01*
X188077394Y-39148143D01*
X188105530Y-39183412D01*
X188150432Y-39205303D01*
X188227896Y-39214187D01*
X188464200Y-39211500D01*
X188657793Y-39220728D01*
X188782958Y-39243622D01*
X188859141Y-39274392D01*
X188927447Y-39324748D01*
X188974656Y-39384956D01*
X189003403Y-39456753D01*
X189013503Y-39543548D01*
X189005597Y-39618717D01*
X188982136Y-39688584D01*
X188942428Y-39754696D01*
X188890340Y-39812224D01*
X188828369Y-39858782D01*
X188755216Y-39894891D01*
X188635933Y-39931115D01*
X188501441Y-39953857D01*
X188349528Y-39961814D01*
X188181538Y-39953092D01*
X188035188Y-39928353D01*
X187942032Y-39900474D01*
X187876253Y-39869213D01*
X187831612Y-39835662D01*
X187784488Y-39772699D01*
X187770184Y-39710976D01*
X187775200Y-39685331D01*
X187999773Y-39685331D01*
X188007786Y-39727863D01*
X188033059Y-39769294D01*
X188080373Y-39811360D01*
X188138140Y-39839150D01*
X188233982Y-39859717D01*
X188383722Y-39868025D01*
X188510276Y-39861446D01*
X188607913Y-39843790D01*
X188682187Y-39817588D01*
X188745606Y-39776672D01*
X188779701Y-39730178D01*
X188790875Y-39675806D01*
X188785612Y-39644017D01*
X188770359Y-39618531D01*
X188726389Y-39585274D01*
X188658984Y-39562599D01*
X188554691Y-39552727D01*
X188262090Y-39547578D01*
X188134671Y-39554994D01*
X188077686Y-39570781D01*
X188032727Y-39604002D01*
X188007982Y-39641563D01*
X187999773Y-39685331D01*
X187775200Y-39685331D01*
X187781702Y-39652084D01*
X187817323Y-39598381D01*
X187877175Y-39556327D01*
X187992934Y-39514605D01*
X187910523Y-39463140D01*
X187856745Y-39406514D01*
X187825805Y-39343964D01*
X187815369Y-39272927D01*
X187822956Y-39212802D01*
X187846347Y-39152647D01*
X187887787Y-39090966D01*
X187941000Y-39038293D01*
X188015813Y-38987018D01*
X188117254Y-38937459D01*
X188000009Y-38884620D01*
X187913589Y-38825728D01*
X187852128Y-38761360D01*
X187806765Y-38685052D01*
X187779509Y-38601488D01*
X187774094Y-38547526D01*
X188154134Y-38547526D01*
X188161965Y-38682597D01*
X188181477Y-38770152D01*
X188208112Y-38823886D01*
X188248279Y-38867157D01*
X188290295Y-38891057D01*
X188335851Y-38898869D01*
X188386834Y-38890824D01*
X188431705Y-38866828D01*
X188472383Y-38824619D01*
X188499082Y-38770933D01*
X188518995Y-38679893D01*
X188527093Y-38535314D01*
X188518092Y-38372682D01*
X188495798Y-38268478D01*
X188465666Y-38205586D01*
X188432319Y-38169364D01*
X188392099Y-38148112D01*
X188342690Y-38140739D01*
X188293802Y-38149085D01*
X188249766Y-38174386D01*
X188208722Y-38219874D01*
X188182548Y-38277051D01*
X188162451Y-38379271D01*
X188154134Y-38547526D01*
X187774094Y-38547526D01*
X187770184Y-38508569D01*
X187779612Y-38418762D01*
X187807503Y-38335934D01*
X187854572Y-38258172D01*
X187923203Y-38184214D01*
X188003288Y-38125278D01*
X188094123Y-38082664D01*
X188197715Y-38056202D01*
X188316678Y-38046950D01*
X188443500Y-38060160D01*
G37*
G36*
X189680286Y-37507662D02*
G01*
X189680286Y-38252236D01*
X189786626Y-38151781D01*
X189872871Y-38093478D01*
X189962570Y-38058441D01*
X190054588Y-38046950D01*
X190132364Y-38054859D01*
X190200214Y-38077705D01*
X190260240Y-38115338D01*
X190332144Y-38190979D01*
X190373569Y-38276050D01*
X190393098Y-38384165D01*
X190401657Y-38587215D01*
X190401657Y-39086448D01*
X190410742Y-39217545D01*
X190429012Y-39267676D01*
X190465795Y-39295027D01*
X190539654Y-39313105D01*
X190539654Y-39360000D01*
X189892044Y-39360000D01*
X189892044Y-39313105D01*
X189953128Y-39294039D01*
X189994504Y-39258761D01*
X190010924Y-39210450D01*
X190019050Y-39086448D01*
X190019050Y-38518094D01*
X190014899Y-38374307D01*
X190006716Y-38319769D01*
X189989861Y-38283419D01*
X189965073Y-38256999D01*
X189933865Y-38240144D01*
X189898883Y-38234528D01*
X189845928Y-38243505D01*
X189792271Y-38271898D01*
X189742433Y-38318623D01*
X189680286Y-38403056D01*
X189680286Y-39086448D01*
X189687154Y-39209398D01*
X189700802Y-39256074D01*
X189737296Y-39291711D01*
X189807292Y-39313105D01*
X189807292Y-39360000D01*
X189159682Y-39360000D01*
X189159682Y-39313105D01*
X189231583Y-39294790D01*
X189274476Y-39261570D01*
X189289697Y-39217119D01*
X189297679Y-39086448D01*
X189297679Y-37781214D01*
X189288813Y-37650547D01*
X189271057Y-37600963D01*
X189234744Y-37573707D01*
X189159682Y-37554556D01*
X189159682Y-37507662D01*
X189680286Y-37507662D01*
G37*
G36*
X191220603Y-37617083D02*
G01*
X191220603Y-38086029D01*
X191523831Y-38086029D01*
X191523831Y-38218897D01*
X191220603Y-38218897D01*
X191220603Y-39005359D01*
X191223971Y-39106126D01*
X191230861Y-39147752D01*
X191245097Y-39176794D01*
X191267009Y-39199532D01*
X191293248Y-39214880D01*
X191314881Y-39219316D01*
X191368189Y-39207666D01*
X191423277Y-39169386D01*
X191482920Y-39094263D01*
X191523831Y-39123206D01*
X191471189Y-39218215D01*
X191409938Y-39287735D01*
X191339789Y-39336069D01*
X191258993Y-39365418D01*
X191164549Y-39375631D01*
X191085842Y-39367766D01*
X191018042Y-39345181D01*
X190958897Y-39308220D01*
X190888565Y-39234659D01*
X190851674Y-39157644D01*
X190842698Y-39092284D01*
X190837997Y-38906929D01*
X190837997Y-38218897D01*
X190671301Y-38218897D01*
X190671301Y-38171147D01*
X190833589Y-38044035D01*
X190964392Y-37915914D01*
X191077085Y-37775114D01*
X191175540Y-37617083D01*
X191220603Y-37617083D01*
G37*
G36*
X192636254Y-37518809D02*
G01*
X192794355Y-37548679D01*
X192913730Y-37592954D01*
X193002355Y-37648956D01*
X193079778Y-37725866D01*
X193133123Y-37809190D01*
X193165001Y-37900483D01*
X193175889Y-38002254D01*
X193163083Y-38117619D01*
X193125846Y-38218912D01*
X193063782Y-38309389D01*
X192982103Y-38383757D01*
X192880483Y-38441834D01*
X192755059Y-38483290D01*
X192599727Y-38505950D01*
X192306995Y-38515896D01*
X192306995Y-39039553D01*
X192313160Y-39175616D01*
X192325436Y-39228108D01*
X192350202Y-39262135D01*
X192391015Y-39290024D01*
X192448187Y-39305944D01*
X192563817Y-39313105D01*
X192563817Y-39360000D01*
X191622505Y-39360000D01*
X191622505Y-39313105D01*
X191740377Y-39305645D01*
X191796650Y-39289291D01*
X191836415Y-39261120D01*
X191860886Y-39227376D01*
X191873141Y-39175534D01*
X191879326Y-39039553D01*
X191879326Y-38414291D01*
X192306995Y-38414291D01*
X192375261Y-38417100D01*
X192482046Y-38405022D01*
X192565879Y-38371423D01*
X192632083Y-38317449D01*
X192679260Y-38245406D01*
X192710566Y-38145584D01*
X192722330Y-38009092D01*
X192710502Y-37873459D01*
X192679161Y-37775365D01*
X192632083Y-37705498D01*
X192565885Y-37654082D01*
X192478412Y-37621285D01*
X192363049Y-37609267D01*
X192306995Y-37609267D01*
X192306995Y-38414291D01*
X191879326Y-38414291D01*
X191879326Y-37828108D01*
X191873158Y-37692059D01*
X191860886Y-37639675D01*
X191836204Y-37605529D01*
X191795917Y-37577759D01*
X191739216Y-37561792D01*
X191622505Y-37554556D01*
X191622505Y-37507662D01*
X192429972Y-37507662D01*
X192636254Y-37518809D01*
G37*
G36*
X194066645Y-38056540D02*
G01*
X194169460Y-38085034D01*
X194268021Y-38132923D01*
X194355667Y-38197966D01*
X194427939Y-38278744D01*
X194485886Y-38377166D01*
X194526930Y-38484864D01*
X194551873Y-38599907D01*
X194560380Y-38723747D01*
X194551072Y-38858775D01*
X194524374Y-38977953D01*
X194481423Y-39083716D01*
X194422383Y-39178039D01*
X194330897Y-39274910D01*
X194225746Y-39342945D01*
X194104220Y-39384552D01*
X193961985Y-39399078D01*
X193821370Y-39385495D01*
X193703264Y-39346954D01*
X193603118Y-39284708D01*
X193517951Y-39197212D01*
X193449908Y-39092355D01*
X193401590Y-38980445D01*
X193372265Y-38859994D01*
X193370212Y-38833168D01*
X193762561Y-38833168D01*
X193767515Y-38977084D01*
X193781734Y-39106842D01*
X193806674Y-39195592D01*
X193845847Y-39254731D01*
X193899319Y-39293024D01*
X193957955Y-39305289D01*
X194015195Y-39296433D01*
X194060415Y-39271095D01*
X194103918Y-39216873D01*
X194131367Y-39141036D01*
X194149958Y-38978240D01*
X194158722Y-38615547D01*
X194150596Y-38401032D01*
X194132711Y-38296078D01*
X194098924Y-38218122D01*
X194056263Y-38169438D01*
X194016621Y-38148342D01*
X193963328Y-38140739D01*
X193898966Y-38153782D01*
X193843771Y-38193496D01*
X193817819Y-38232493D01*
X193795112Y-38298131D01*
X193778192Y-38401468D01*
X193767033Y-38572134D01*
X193762561Y-38833168D01*
X193370212Y-38833168D01*
X193362247Y-38729120D01*
X193372548Y-38594154D01*
X193402613Y-38470761D01*
X193452002Y-38356915D01*
X193521371Y-38251015D01*
X193608335Y-38161769D01*
X193708143Y-38098905D01*
X193823351Y-38060397D01*
X193957955Y-38046950D01*
X194066645Y-38056540D01*
G37*
G36*
X196020952Y-39399078D02*
G01*
X195671196Y-38461308D01*
X195328279Y-39399078D01*
X195257205Y-39399078D01*
X194916974Y-38477062D01*
X194838238Y-38282462D01*
X194787159Y-38196793D01*
X194745877Y-38159661D01*
X194683356Y-38132923D01*
X194683356Y-38086029D01*
X195328279Y-38086029D01*
X195328279Y-38132923D01*
X195268553Y-38138788D01*
X195238032Y-38152341D01*
X195219261Y-38173827D01*
X195213485Y-38196793D01*
X195220504Y-38230835D01*
X195257205Y-38338332D01*
X195444417Y-38835976D01*
X195624668Y-38339187D01*
X195611113Y-38303893D01*
X195568142Y-38211234D01*
X195539305Y-38172247D01*
X195503021Y-38149422D01*
X195444417Y-38132923D01*
X195444417Y-38086029D01*
X196098743Y-38086029D01*
X196098743Y-38132923D01*
X196029835Y-38141924D01*
X196001779Y-38154417D01*
X195986632Y-38174853D01*
X195981263Y-38203754D01*
X195988281Y-38242433D01*
X196020952Y-38338332D01*
X196201325Y-38835976D01*
X196365212Y-38377777D01*
X196394101Y-38285209D01*
X196400750Y-38242222D01*
X196393524Y-38193399D01*
X196374738Y-38163332D01*
X196341449Y-38144843D01*
X196273621Y-38132923D01*
X196273621Y-38086029D01*
X196652076Y-38086029D01*
X196652076Y-38132923D01*
X196594548Y-38148935D01*
X196552424Y-38178108D01*
X196517451Y-38233259D01*
X196456803Y-38387302D01*
X196098743Y-39399078D01*
X196020952Y-39399078D01*
G37*
G36*
X197459398Y-38056765D02*
G01*
X197545314Y-38085824D01*
X197626097Y-38134914D01*
X197703053Y-38206563D01*
X197762517Y-38289399D01*
X197808974Y-38392904D01*
X197841237Y-38521365D01*
X197856803Y-38680027D01*
X197155949Y-38680027D01*
X197170254Y-38805458D01*
X197198383Y-38911371D01*
X197238901Y-39000793D01*
X197291259Y-39076189D01*
X197360108Y-39139546D01*
X197434762Y-39175874D01*
X197518039Y-39188053D01*
X197596316Y-39176546D01*
X197666905Y-39142135D01*
X197730945Y-39083906D01*
X197810397Y-38977027D01*
X197856803Y-39008290D01*
X197779330Y-39145512D01*
X197702824Y-39243576D01*
X197627215Y-39310296D01*
X197539822Y-39359287D01*
X197443633Y-39388909D01*
X197336322Y-39399078D01*
X197224425Y-39389694D01*
X197127824Y-39362894D01*
X197043754Y-39319665D01*
X196970181Y-39259557D01*
X196905966Y-39180725D01*
X196842381Y-39058345D01*
X196802563Y-38914427D01*
X196788485Y-38744141D01*
X196800424Y-38585327D01*
X196812011Y-38538977D01*
X197149110Y-38538977D01*
X197149110Y-38586238D01*
X197520725Y-38586238D01*
X197513244Y-38385816D01*
X197496789Y-38287896D01*
X197465017Y-38214719D01*
X197422418Y-38165041D01*
X197390116Y-38147200D01*
X197345847Y-38140739D01*
X197302060Y-38148135D01*
X197263934Y-38170260D01*
X197229710Y-38209616D01*
X197187139Y-38293593D01*
X197159317Y-38401363D01*
X197149110Y-38538977D01*
X196812011Y-38538977D01*
X196834192Y-38450251D01*
X196887893Y-38334857D01*
X196961287Y-38235994D01*
X197054215Y-38151178D01*
X197151544Y-38093013D01*
X197254821Y-38058575D01*
X197366364Y-38046950D01*
X197459398Y-38056765D01*
G37*
G36*
X198547644Y-38086029D02*
G01*
X198547644Y-38372159D01*
X198638536Y-38243306D01*
X198711655Y-38160256D01*
X198770272Y-38111308D01*
X198867373Y-38061976D01*
X198954797Y-38046950D01*
X199024844Y-38059037D01*
X199077041Y-38093356D01*
X199110587Y-38147106D01*
X199122836Y-38224515D01*
X199110830Y-38307400D01*
X199078384Y-38364588D01*
X199029012Y-38402051D01*
X198971161Y-38414291D01*
X198903176Y-38403112D01*
X198845498Y-38370083D01*
X198782606Y-38320502D01*
X198751221Y-38312686D01*
X198713432Y-38319862D01*
X198676116Y-38342606D01*
X198628072Y-38396914D01*
X198591364Y-38474497D01*
X198558943Y-38610855D01*
X198547644Y-38765635D01*
X198547644Y-39059459D01*
X198548988Y-39133342D01*
X198552128Y-39206239D01*
X198558513Y-39235802D01*
X198579264Y-39269125D01*
X198606995Y-39291367D01*
X198645021Y-39304439D01*
X198715683Y-39313105D01*
X198715683Y-39360000D01*
X198025697Y-39360000D01*
X198025697Y-39313105D01*
X198099675Y-39296570D01*
X198138415Y-39267554D01*
X198157953Y-39212570D01*
X198167847Y-39063000D01*
X198167847Y-38359581D01*
X198164205Y-38256984D01*
X198156856Y-38215966D01*
X198139486Y-38180825D01*
X198117288Y-38158325D01*
X198085731Y-38144073D01*
X198025697Y-38132923D01*
X198025697Y-38086029D01*
X198547644Y-38086029D01*
G37*
G36*
X200579745Y-38469002D02*
G01*
X200579745Y-39039553D01*
X200585012Y-39172109D01*
X200595376Y-39222002D01*
X200617471Y-39254909D01*
X200656926Y-39285750D01*
X200707703Y-39305571D01*
X200780635Y-39313105D01*
X200842062Y-39313105D01*
X200842062Y-39360000D01*
X199873394Y-39360000D01*
X199873394Y-39313105D01*
X199934822Y-39313105D01*
X200010524Y-39305074D01*
X200064637Y-39283674D01*
X200095245Y-39258011D01*
X200119347Y-39216263D01*
X200129248Y-39169335D01*
X200134368Y-39039553D01*
X200134368Y-37828108D01*
X200129302Y-37695548D01*
X200119347Y-37645781D01*
X200097807Y-37612805D01*
X200058531Y-37581912D01*
X200007753Y-37562090D01*
X199934822Y-37554556D01*
X199873394Y-37554556D01*
X199873394Y-37507662D01*
X200842062Y-37507662D01*
X200842062Y-37554556D01*
X200780635Y-37554556D01*
X200705023Y-37562580D01*
X200650819Y-37583988D01*
X200619931Y-37609608D01*
X200594766Y-37651399D01*
X200584865Y-37698326D01*
X200579745Y-37828108D01*
X200579745Y-38351765D01*
X201234193Y-38351765D01*
X201234193Y-37828108D01*
X201229127Y-37695548D01*
X201219173Y-37645781D01*
X201197512Y-37612858D01*
X201157623Y-37581912D01*
X201106320Y-37562071D01*
X201033304Y-37554556D01*
X200973220Y-37554556D01*
X200973220Y-37507662D01*
X201940544Y-37507662D01*
X201940544Y-37554556D01*
X201880460Y-37554556D01*
X201803761Y-37562666D01*
X201750645Y-37583988D01*
X201719756Y-37609608D01*
X201694591Y-37651399D01*
X201684690Y-37698326D01*
X201679570Y-37828108D01*
X201679570Y-39039553D01*
X201684634Y-39172126D01*
X201694591Y-39222002D01*
X201716220Y-39254833D01*
X201756018Y-39285750D01*
X201807427Y-39305594D01*
X201880460Y-39313105D01*
X201940544Y-39313105D01*
X201940544Y-39360000D01*
X200973220Y-39360000D01*
X200973220Y-39313105D01*
X201033304Y-39313105D01*
X201110003Y-39304996D01*
X201163119Y-39283674D01*
X201194008Y-39258053D01*
X201219173Y-39216263D01*
X201229074Y-39169335D01*
X201234193Y-39039553D01*
X201234193Y-38469002D01*
X200579745Y-38469002D01*
G37*
G36*
X203319295Y-38086029D02*
G01*
X203319295Y-39086448D01*
X203328379Y-39217545D01*
X203346650Y-39267676D01*
X203383433Y-39295027D01*
X203457292Y-39313105D01*
X203457292Y-39360000D01*
X202936810Y-39360000D01*
X202936810Y-39189274D01*
X202841504Y-39287040D01*
X202753628Y-39348886D01*
X202657739Y-39386273D01*
X202548831Y-39399078D01*
X202479152Y-39391629D01*
X202415691Y-39369685D01*
X202356856Y-39332766D01*
X202285708Y-39259479D01*
X202244138Y-39177550D01*
X202224273Y-39072085D01*
X202215439Y-38866995D01*
X202215439Y-38359581D01*
X202206573Y-38228914D01*
X202188817Y-38179330D01*
X202152504Y-38152074D01*
X202077442Y-38132923D01*
X202077442Y-38086029D01*
X202597923Y-38086029D01*
X202597923Y-38955655D01*
X202602170Y-39079844D01*
X202610868Y-39131266D01*
X202628138Y-39166640D01*
X202651901Y-39191106D01*
X202681838Y-39206320D01*
X202716748Y-39211500D01*
X202763790Y-39204966D01*
X202805652Y-39185610D01*
X202859697Y-39138496D01*
X202936810Y-39042240D01*
X202936810Y-38359581D01*
X202927944Y-38228914D01*
X202910188Y-38179330D01*
X202873875Y-38152074D01*
X202798813Y-38132923D01*
X202798813Y-38086029D01*
X203319295Y-38086029D01*
G37*
G36*
X204135554Y-38213646D02*
G01*
X204222065Y-38137754D01*
X204308707Y-38086552D01*
X204396756Y-38056809D01*
X204487997Y-38046950D01*
X204573176Y-38055406D01*
X204655125Y-38080798D01*
X204735293Y-38124131D01*
X204806023Y-38181641D01*
X204866469Y-38253948D01*
X204917009Y-38343094D01*
X204952650Y-38439678D01*
X204974850Y-38548148D01*
X204982588Y-38670502D01*
X204972996Y-38807672D01*
X204945012Y-38933502D01*
X204899180Y-39049811D01*
X204835693Y-39156883D01*
X204761611Y-39242624D01*
X204676552Y-39309685D01*
X204580265Y-39358950D01*
X204474885Y-39388827D01*
X204358182Y-39399078D01*
X204258158Y-39390437D01*
X204173778Y-39365983D01*
X204095993Y-39323985D01*
X204015265Y-39258394D01*
X203803506Y-39399078D01*
X203757100Y-39399078D01*
X203757100Y-38335767D01*
X204135554Y-38335767D01*
X204135554Y-38903754D01*
X204143736Y-39125038D01*
X204167502Y-39198995D01*
X204209316Y-39255464D01*
X204267423Y-39292465D01*
X204341817Y-39305289D01*
X204407265Y-39295167D01*
X204461374Y-39265722D01*
X204503540Y-39213301D01*
X204544783Y-39108674D01*
X204567850Y-38967752D01*
X204578244Y-38685279D01*
X204567485Y-38487928D01*
X204540746Y-38360376D01*
X204504483Y-38282522D01*
X204463958Y-38237801D01*
X204416924Y-38212049D01*
X204360990Y-38203265D01*
X204288264Y-38216289D01*
X204214133Y-38257830D01*
X204135554Y-38335767D01*
X203757100Y-38335767D01*
X203757100Y-37773398D01*
X203753846Y-37670925D01*
X203747575Y-37634057D01*
X203729489Y-37599422D01*
X203704466Y-37576172D01*
X203669556Y-37562401D01*
X203605425Y-37554556D01*
X203605425Y-37507662D01*
X204135554Y-37507662D01*
X204135554Y-38213646D01*
G37*
D11*
X197840225Y-133472257D02*
X197697368Y-133400828D01*
X197697368Y-133400828D02*
X197483082Y-133400828D01*
X197483082Y-133400828D02*
X197268796Y-133472257D01*
X197268796Y-133472257D02*
X197125939Y-133615114D01*
X197125939Y-133615114D02*
X197054510Y-133757971D01*
X197054510Y-133757971D02*
X196983082Y-134043685D01*
X196983082Y-134043685D02*
X196983082Y-134257971D01*
X196983082Y-134257971D02*
X197054510Y-134543685D01*
X197054510Y-134543685D02*
X197125939Y-134686542D01*
X197125939Y-134686542D02*
X197268796Y-134829400D01*
X197268796Y-134829400D02*
X197483082Y-134900828D01*
X197483082Y-134900828D02*
X197625939Y-134900828D01*
X197625939Y-134900828D02*
X197840225Y-134829400D01*
X197840225Y-134829400D02*
X197911653Y-134757971D01*
X197911653Y-134757971D02*
X197911653Y-134257971D01*
X197911653Y-134257971D02*
X197625939Y-134257971D01*
X198554510Y-134900828D02*
X198554510Y-133400828D01*
X198554510Y-133400828D02*
X199411653Y-134900828D01*
X199411653Y-134900828D02*
X199411653Y-133400828D01*
X200125939Y-134900828D02*
X200125939Y-133400828D01*
X200125939Y-133400828D02*
X200483082Y-133400828D01*
X200483082Y-133400828D02*
X200697368Y-133472257D01*
X200697368Y-133472257D02*
X200840225Y-133615114D01*
X200840225Y-133615114D02*
X200911654Y-133757971D01*
X200911654Y-133757971D02*
X200983082Y-134043685D01*
X200983082Y-134043685D02*
X200983082Y-134257971D01*
X200983082Y-134257971D02*
X200911654Y-134543685D01*
X200911654Y-134543685D02*
X200840225Y-134686542D01*
X200840225Y-134686542D02*
X200697368Y-134829400D01*
X200697368Y-134829400D02*
X200483082Y-134900828D01*
X200483082Y-134900828D02*
X200125939Y-134900828D01*
X184840225Y-133600828D02*
X185340225Y-135100828D01*
X185340225Y-135100828D02*
X185840225Y-133600828D01*
X186840224Y-134315114D02*
X187054510Y-134386542D01*
X187054510Y-134386542D02*
X187125939Y-134457971D01*
X187125939Y-134457971D02*
X187197367Y-134600828D01*
X187197367Y-134600828D02*
X187197367Y-134815114D01*
X187197367Y-134815114D02*
X187125939Y-134957971D01*
X187125939Y-134957971D02*
X187054510Y-135029400D01*
X187054510Y-135029400D02*
X186911653Y-135100828D01*
X186911653Y-135100828D02*
X186340224Y-135100828D01*
X186340224Y-135100828D02*
X186340224Y-133600828D01*
X186340224Y-133600828D02*
X186840224Y-133600828D01*
X186840224Y-133600828D02*
X186983082Y-133672257D01*
X186983082Y-133672257D02*
X187054510Y-133743685D01*
X187054510Y-133743685D02*
X187125939Y-133886542D01*
X187125939Y-133886542D02*
X187125939Y-134029400D01*
X187125939Y-134029400D02*
X187054510Y-134172257D01*
X187054510Y-134172257D02*
X186983082Y-134243685D01*
X186983082Y-134243685D02*
X186840224Y-134315114D01*
X186840224Y-134315114D02*
X186340224Y-134315114D01*
X187768796Y-134672257D02*
X188483082Y-134672257D01*
X187625939Y-135100828D02*
X188125939Y-133600828D01*
X188125939Y-133600828D02*
X188625939Y-135100828D01*
X188911653Y-133600828D02*
X189768796Y-133600828D01*
X189340224Y-135100828D02*
X189340224Y-133600828D01*
X150300828Y-65259774D02*
X150300828Y-66116917D01*
X150300828Y-65688346D02*
X148800828Y-65688346D01*
X148800828Y-65688346D02*
X149015114Y-65831203D01*
X149015114Y-65831203D02*
X149157971Y-65974060D01*
X149157971Y-65974060D02*
X149229400Y-66116917D01*
X148943685Y-64688346D02*
X148872257Y-64616918D01*
X148872257Y-64616918D02*
X148800828Y-64474061D01*
X148800828Y-64474061D02*
X148800828Y-64116918D01*
X148800828Y-64116918D02*
X148872257Y-63974061D01*
X148872257Y-63974061D02*
X148943685Y-63902632D01*
X148943685Y-63902632D02*
X149086542Y-63831203D01*
X149086542Y-63831203D02*
X149229400Y-63831203D01*
X149229400Y-63831203D02*
X149443685Y-63902632D01*
X149443685Y-63902632D02*
X150300828Y-64759775D01*
X150300828Y-64759775D02*
X150300828Y-63831203D01*
X148800828Y-63402632D02*
X150300828Y-62902632D01*
X150300828Y-62902632D02*
X148800828Y-62402632D01*
X148800828Y-60045490D02*
X148800828Y-60759776D01*
X148800828Y-60759776D02*
X149515114Y-60831204D01*
X149515114Y-60831204D02*
X149443685Y-60759776D01*
X149443685Y-60759776D02*
X149372257Y-60616919D01*
X149372257Y-60616919D02*
X149372257Y-60259776D01*
X149372257Y-60259776D02*
X149443685Y-60116919D01*
X149443685Y-60116919D02*
X149515114Y-60045490D01*
X149515114Y-60045490D02*
X149657971Y-59974061D01*
X149657971Y-59974061D02*
X150015114Y-59974061D01*
X150015114Y-59974061D02*
X150157971Y-60045490D01*
X150157971Y-60045490D02*
X150229400Y-60116919D01*
X150229400Y-60116919D02*
X150300828Y-60259776D01*
X150300828Y-60259776D02*
X150300828Y-60616919D01*
X150300828Y-60616919D02*
X150229400Y-60759776D01*
X150229400Y-60759776D02*
X150157971Y-60831204D01*
X149872257Y-59402633D02*
X149872257Y-58688348D01*
X150300828Y-59545490D02*
X148800828Y-59045490D01*
X148800828Y-59045490D02*
X150300828Y-58545490D01*
X150600828Y-111459774D02*
X150600828Y-112316917D01*
X150600828Y-111888346D02*
X149100828Y-111888346D01*
X149100828Y-111888346D02*
X149315114Y-112031203D01*
X149315114Y-112031203D02*
X149457971Y-112174060D01*
X149457971Y-112174060D02*
X149529400Y-112316917D01*
X149243685Y-110888346D02*
X149172257Y-110816918D01*
X149172257Y-110816918D02*
X149100828Y-110674061D01*
X149100828Y-110674061D02*
X149100828Y-110316918D01*
X149100828Y-110316918D02*
X149172257Y-110174061D01*
X149172257Y-110174061D02*
X149243685Y-110102632D01*
X149243685Y-110102632D02*
X149386542Y-110031203D01*
X149386542Y-110031203D02*
X149529400Y-110031203D01*
X149529400Y-110031203D02*
X149743685Y-110102632D01*
X149743685Y-110102632D02*
X150600828Y-110959775D01*
X150600828Y-110959775D02*
X150600828Y-110031203D01*
X149100828Y-109602632D02*
X150600828Y-109102632D01*
X150600828Y-109102632D02*
X149100828Y-108602632D01*
X150600828Y-106174061D02*
X150600828Y-107031204D01*
X150600828Y-106602633D02*
X149100828Y-106602633D01*
X149100828Y-106602633D02*
X149315114Y-106745490D01*
X149315114Y-106745490D02*
X149457971Y-106888347D01*
X149457971Y-106888347D02*
X149529400Y-107031204D01*
X150172257Y-105602633D02*
X150172257Y-104888348D01*
X150600828Y-105745490D02*
X149100828Y-105245490D01*
X149100828Y-105245490D02*
X150600828Y-104745490D01*
X232700828Y-64331203D02*
X232700828Y-65045489D01*
X232700828Y-65045489D02*
X233415114Y-65116917D01*
X233415114Y-65116917D02*
X233343685Y-65045489D01*
X233343685Y-65045489D02*
X233272257Y-64902632D01*
X233272257Y-64902632D02*
X233272257Y-64545489D01*
X233272257Y-64545489D02*
X233343685Y-64402632D01*
X233343685Y-64402632D02*
X233415114Y-64331203D01*
X233415114Y-64331203D02*
X233557971Y-64259774D01*
X233557971Y-64259774D02*
X233915114Y-64259774D01*
X233915114Y-64259774D02*
X234057971Y-64331203D01*
X234057971Y-64331203D02*
X234129400Y-64402632D01*
X234129400Y-64402632D02*
X234200828Y-64545489D01*
X234200828Y-64545489D02*
X234200828Y-64902632D01*
X234200828Y-64902632D02*
X234129400Y-65045489D01*
X234129400Y-65045489D02*
X234057971Y-65116917D01*
X232700828Y-63831203D02*
X234200828Y-63331203D01*
X234200828Y-63331203D02*
X232700828Y-62831203D01*
X234200828Y-60402632D02*
X234200828Y-61259775D01*
X234200828Y-60831204D02*
X232700828Y-60831204D01*
X232700828Y-60831204D02*
X232915114Y-60974061D01*
X232915114Y-60974061D02*
X233057971Y-61116918D01*
X233057971Y-61116918D02*
X233129400Y-61259775D01*
X233772257Y-59831204D02*
X233772257Y-59116919D01*
X234200828Y-59974061D02*
X232700828Y-59474061D01*
X232700828Y-59474061D02*
X234200828Y-58974061D01*
X234400828Y-112031203D02*
X234400828Y-112745489D01*
X234400828Y-112745489D02*
X235115114Y-112816917D01*
X235115114Y-112816917D02*
X235043685Y-112745489D01*
X235043685Y-112745489D02*
X234972257Y-112602632D01*
X234972257Y-112602632D02*
X234972257Y-112245489D01*
X234972257Y-112245489D02*
X235043685Y-112102632D01*
X235043685Y-112102632D02*
X235115114Y-112031203D01*
X235115114Y-112031203D02*
X235257971Y-111959774D01*
X235257971Y-111959774D02*
X235615114Y-111959774D01*
X235615114Y-111959774D02*
X235757971Y-112031203D01*
X235757971Y-112031203D02*
X235829400Y-112102632D01*
X235829400Y-112102632D02*
X235900828Y-112245489D01*
X235900828Y-112245489D02*
X235900828Y-112602632D01*
X235900828Y-112602632D02*
X235829400Y-112745489D01*
X235829400Y-112745489D02*
X235757971Y-112816917D01*
X234400828Y-111531203D02*
X235900828Y-111031203D01*
X235900828Y-111031203D02*
X234400828Y-110531203D01*
X235472257Y-108959775D02*
X235472257Y-108245490D01*
X235900828Y-109102632D02*
X234400828Y-108602632D01*
X234400828Y-108602632D02*
X235900828Y-108102632D01*
X235900828Y-107602633D02*
X234400828Y-107602633D01*
X234400828Y-107602633D02*
X234400828Y-107245490D01*
X234400828Y-107245490D02*
X234472257Y-107031204D01*
X234472257Y-107031204D02*
X234615114Y-106888347D01*
X234615114Y-106888347D02*
X234757971Y-106816918D01*
X234757971Y-106816918D02*
X235043685Y-106745490D01*
X235043685Y-106745490D02*
X235257971Y-106745490D01*
X235257971Y-106745490D02*
X235543685Y-106816918D01*
X235543685Y-106816918D02*
X235686542Y-106888347D01*
X235686542Y-106888347D02*
X235829400Y-107031204D01*
X235829400Y-107031204D02*
X235900828Y-107245490D01*
X235900828Y-107245490D02*
X235900828Y-107602633D01*
X234400828Y-105674061D02*
X235472257Y-105674061D01*
X235472257Y-105674061D02*
X235686542Y-105745490D01*
X235686542Y-105745490D02*
X235829400Y-105888347D01*
X235829400Y-105888347D02*
X235900828Y-106102633D01*
X235900828Y-106102633D02*
X235900828Y-106245490D01*
D12*
X221289535Y-122475083D02*
X221598830Y-122653655D01*
X221598830Y-122653655D02*
X221648784Y-122709989D01*
X221648784Y-122709989D02*
X221666214Y-122775038D01*
X221666214Y-122775038D02*
X221651119Y-122848801D01*
X221651119Y-122848801D02*
X221627310Y-122890041D01*
X221384773Y-122310127D02*
X221539535Y-122042071D01*
X221539535Y-122042071D02*
X221621159Y-122281647D01*
X221621159Y-122281647D02*
X221656873Y-122219788D01*
X221656873Y-122219788D02*
X221701302Y-122190453D01*
X221701302Y-122190453D02*
X221733827Y-122181738D01*
X221733827Y-122181738D02*
X221786971Y-122184928D01*
X221786971Y-122184928D02*
X221890069Y-122244452D01*
X221890069Y-122244452D02*
X221919404Y-122288881D01*
X221919404Y-122288881D02*
X221928119Y-122321406D01*
X221928119Y-122321406D02*
X221924929Y-122374550D01*
X221924929Y-122374550D02*
X221853500Y-122498268D01*
X221853500Y-122498268D02*
X221809071Y-122527602D01*
X221809071Y-122527602D02*
X221776547Y-122536317D01*
X228016666Y-98926109D02*
X227850000Y-98688014D01*
X227730952Y-98926109D02*
X227730952Y-98426109D01*
X227730952Y-98426109D02*
X227921428Y-98426109D01*
X227921428Y-98426109D02*
X227969047Y-98449919D01*
X227969047Y-98449919D02*
X227992857Y-98473728D01*
X227992857Y-98473728D02*
X228016666Y-98521347D01*
X228016666Y-98521347D02*
X228016666Y-98592776D01*
X228016666Y-98592776D02*
X227992857Y-98640395D01*
X227992857Y-98640395D02*
X227969047Y-98664204D01*
X227969047Y-98664204D02*
X227921428Y-98688014D01*
X227921428Y-98688014D02*
X227730952Y-98688014D01*
X228445238Y-98426109D02*
X228350000Y-98426109D01*
X228350000Y-98426109D02*
X228302381Y-98449919D01*
X228302381Y-98449919D02*
X228278571Y-98473728D01*
X228278571Y-98473728D02*
X228230952Y-98545157D01*
X228230952Y-98545157D02*
X228207143Y-98640395D01*
X228207143Y-98640395D02*
X228207143Y-98830871D01*
X228207143Y-98830871D02*
X228230952Y-98878490D01*
X228230952Y-98878490D02*
X228254762Y-98902300D01*
X228254762Y-98902300D02*
X228302381Y-98926109D01*
X228302381Y-98926109D02*
X228397619Y-98926109D01*
X228397619Y-98926109D02*
X228445238Y-98902300D01*
X228445238Y-98902300D02*
X228469047Y-98878490D01*
X228469047Y-98878490D02*
X228492857Y-98830871D01*
X228492857Y-98830871D02*
X228492857Y-98711823D01*
X228492857Y-98711823D02*
X228469047Y-98664204D01*
X228469047Y-98664204D02*
X228445238Y-98640395D01*
X228445238Y-98640395D02*
X228397619Y-98616585D01*
X228397619Y-98616585D02*
X228302381Y-98616585D01*
X228302381Y-98616585D02*
X228254762Y-98640395D01*
X228254762Y-98640395D02*
X228230952Y-98664204D01*
X228230952Y-98664204D02*
X228207143Y-98711823D01*
X230530952Y-102226109D02*
X230530952Y-101726109D01*
X230530952Y-101726109D02*
X230650000Y-101726109D01*
X230650000Y-101726109D02*
X230721428Y-101749919D01*
X230721428Y-101749919D02*
X230769047Y-101797538D01*
X230769047Y-101797538D02*
X230792857Y-101845157D01*
X230792857Y-101845157D02*
X230816666Y-101940395D01*
X230816666Y-101940395D02*
X230816666Y-102011823D01*
X230816666Y-102011823D02*
X230792857Y-102107061D01*
X230792857Y-102107061D02*
X230769047Y-102154680D01*
X230769047Y-102154680D02*
X230721428Y-102202300D01*
X230721428Y-102202300D02*
X230650000Y-102226109D01*
X230650000Y-102226109D02*
X230530952Y-102226109D01*
X231269047Y-101726109D02*
X231030952Y-101726109D01*
X231030952Y-101726109D02*
X231007143Y-101964204D01*
X231007143Y-101964204D02*
X231030952Y-101940395D01*
X231030952Y-101940395D02*
X231078571Y-101916585D01*
X231078571Y-101916585D02*
X231197619Y-101916585D01*
X231197619Y-101916585D02*
X231245238Y-101940395D01*
X231245238Y-101940395D02*
X231269047Y-101964204D01*
X231269047Y-101964204D02*
X231292857Y-102011823D01*
X231292857Y-102011823D02*
X231292857Y-102130871D01*
X231292857Y-102130871D02*
X231269047Y-102178490D01*
X231269047Y-102178490D02*
X231245238Y-102202300D01*
X231245238Y-102202300D02*
X231197619Y-102226109D01*
X231197619Y-102226109D02*
X231078571Y-102226109D01*
X231078571Y-102226109D02*
X231030952Y-102202300D01*
X231030952Y-102202300D02*
X231007143Y-102178490D01*
X213376109Y-99083333D02*
X213376109Y-99321428D01*
X213376109Y-99321428D02*
X212876109Y-99321428D01*
X213042776Y-98702380D02*
X213376109Y-98702380D01*
X212852300Y-98821428D02*
X213209442Y-98940475D01*
X213209442Y-98940475D02*
X213209442Y-98630952D01*
X226378571Y-95070990D02*
X226354762Y-95094800D01*
X226354762Y-95094800D02*
X226283333Y-95118609D01*
X226283333Y-95118609D02*
X226235714Y-95118609D01*
X226235714Y-95118609D02*
X226164286Y-95094800D01*
X226164286Y-95094800D02*
X226116667Y-95047180D01*
X226116667Y-95047180D02*
X226092857Y-94999561D01*
X226092857Y-94999561D02*
X226069048Y-94904323D01*
X226069048Y-94904323D02*
X226069048Y-94832895D01*
X226069048Y-94832895D02*
X226092857Y-94737657D01*
X226092857Y-94737657D02*
X226116667Y-94690038D01*
X226116667Y-94690038D02*
X226164286Y-94642419D01*
X226164286Y-94642419D02*
X226235714Y-94618609D01*
X226235714Y-94618609D02*
X226283333Y-94618609D01*
X226283333Y-94618609D02*
X226354762Y-94642419D01*
X226354762Y-94642419D02*
X226378571Y-94666228D01*
X226569048Y-94666228D02*
X226592857Y-94642419D01*
X226592857Y-94642419D02*
X226640476Y-94618609D01*
X226640476Y-94618609D02*
X226759524Y-94618609D01*
X226759524Y-94618609D02*
X226807143Y-94642419D01*
X226807143Y-94642419D02*
X226830952Y-94666228D01*
X226830952Y-94666228D02*
X226854762Y-94713847D01*
X226854762Y-94713847D02*
X226854762Y-94761466D01*
X226854762Y-94761466D02*
X226830952Y-94832895D01*
X226830952Y-94832895D02*
X226545238Y-95118609D01*
X226545238Y-95118609D02*
X226854762Y-95118609D01*
X227021428Y-94618609D02*
X227330952Y-94618609D01*
X227330952Y-94618609D02*
X227164285Y-94809085D01*
X227164285Y-94809085D02*
X227235714Y-94809085D01*
X227235714Y-94809085D02*
X227283333Y-94832895D01*
X227283333Y-94832895D02*
X227307142Y-94856704D01*
X227307142Y-94856704D02*
X227330952Y-94904323D01*
X227330952Y-94904323D02*
X227330952Y-95023371D01*
X227330952Y-95023371D02*
X227307142Y-95070990D01*
X227307142Y-95070990D02*
X227283333Y-95094800D01*
X227283333Y-95094800D02*
X227235714Y-95118609D01*
X227235714Y-95118609D02*
X227092857Y-95118609D01*
X227092857Y-95118609D02*
X227045238Y-95094800D01*
X227045238Y-95094800D02*
X227021428Y-95070990D01*
X228716666Y-104626109D02*
X228550000Y-104388014D01*
X228430952Y-104626109D02*
X228430952Y-104126109D01*
X228430952Y-104126109D02*
X228621428Y-104126109D01*
X228621428Y-104126109D02*
X228669047Y-104149919D01*
X228669047Y-104149919D02*
X228692857Y-104173728D01*
X228692857Y-104173728D02*
X228716666Y-104221347D01*
X228716666Y-104221347D02*
X228716666Y-104292776D01*
X228716666Y-104292776D02*
X228692857Y-104340395D01*
X228692857Y-104340395D02*
X228669047Y-104364204D01*
X228669047Y-104364204D02*
X228621428Y-104388014D01*
X228621428Y-104388014D02*
X228430952Y-104388014D01*
X228954762Y-104626109D02*
X229050000Y-104626109D01*
X229050000Y-104626109D02*
X229097619Y-104602300D01*
X229097619Y-104602300D02*
X229121428Y-104578490D01*
X229121428Y-104578490D02*
X229169047Y-104507061D01*
X229169047Y-104507061D02*
X229192857Y-104411823D01*
X229192857Y-104411823D02*
X229192857Y-104221347D01*
X229192857Y-104221347D02*
X229169047Y-104173728D01*
X229169047Y-104173728D02*
X229145238Y-104149919D01*
X229145238Y-104149919D02*
X229097619Y-104126109D01*
X229097619Y-104126109D02*
X229002381Y-104126109D01*
X229002381Y-104126109D02*
X228954762Y-104149919D01*
X228954762Y-104149919D02*
X228930952Y-104173728D01*
X228930952Y-104173728D02*
X228907143Y-104221347D01*
X228907143Y-104221347D02*
X228907143Y-104340395D01*
X228907143Y-104340395D02*
X228930952Y-104388014D01*
X228930952Y-104388014D02*
X228954762Y-104411823D01*
X228954762Y-104411823D02*
X229002381Y-104435633D01*
X229002381Y-104435633D02*
X229097619Y-104435633D01*
X229097619Y-104435633D02*
X229145238Y-104411823D01*
X229145238Y-104411823D02*
X229169047Y-104388014D01*
X229169047Y-104388014D02*
X229192857Y-104340395D01*
X220078571Y-105078490D02*
X220054762Y-105102300D01*
X220054762Y-105102300D02*
X219983333Y-105126109D01*
X219983333Y-105126109D02*
X219935714Y-105126109D01*
X219935714Y-105126109D02*
X219864286Y-105102300D01*
X219864286Y-105102300D02*
X219816667Y-105054680D01*
X219816667Y-105054680D02*
X219792857Y-105007061D01*
X219792857Y-105007061D02*
X219769048Y-104911823D01*
X219769048Y-104911823D02*
X219769048Y-104840395D01*
X219769048Y-104840395D02*
X219792857Y-104745157D01*
X219792857Y-104745157D02*
X219816667Y-104697538D01*
X219816667Y-104697538D02*
X219864286Y-104649919D01*
X219864286Y-104649919D02*
X219935714Y-104626109D01*
X219935714Y-104626109D02*
X219983333Y-104626109D01*
X219983333Y-104626109D02*
X220054762Y-104649919D01*
X220054762Y-104649919D02*
X220078571Y-104673728D01*
X220269048Y-104673728D02*
X220292857Y-104649919D01*
X220292857Y-104649919D02*
X220340476Y-104626109D01*
X220340476Y-104626109D02*
X220459524Y-104626109D01*
X220459524Y-104626109D02*
X220507143Y-104649919D01*
X220507143Y-104649919D02*
X220530952Y-104673728D01*
X220530952Y-104673728D02*
X220554762Y-104721347D01*
X220554762Y-104721347D02*
X220554762Y-104768966D01*
X220554762Y-104768966D02*
X220530952Y-104840395D01*
X220530952Y-104840395D02*
X220245238Y-105126109D01*
X220245238Y-105126109D02*
X220554762Y-105126109D01*
X220745238Y-104673728D02*
X220769047Y-104649919D01*
X220769047Y-104649919D02*
X220816666Y-104626109D01*
X220816666Y-104626109D02*
X220935714Y-104626109D01*
X220935714Y-104626109D02*
X220983333Y-104649919D01*
X220983333Y-104649919D02*
X221007142Y-104673728D01*
X221007142Y-104673728D02*
X221030952Y-104721347D01*
X221030952Y-104721347D02*
X221030952Y-104768966D01*
X221030952Y-104768966D02*
X221007142Y-104840395D01*
X221007142Y-104840395D02*
X220721428Y-105126109D01*
X220721428Y-105126109D02*
X221030952Y-105126109D01*
X222478490Y-99821428D02*
X222502300Y-99845237D01*
X222502300Y-99845237D02*
X222526109Y-99916666D01*
X222526109Y-99916666D02*
X222526109Y-99964285D01*
X222526109Y-99964285D02*
X222502300Y-100035713D01*
X222502300Y-100035713D02*
X222454680Y-100083332D01*
X222454680Y-100083332D02*
X222407061Y-100107142D01*
X222407061Y-100107142D02*
X222311823Y-100130951D01*
X222311823Y-100130951D02*
X222240395Y-100130951D01*
X222240395Y-100130951D02*
X222145157Y-100107142D01*
X222145157Y-100107142D02*
X222097538Y-100083332D01*
X222097538Y-100083332D02*
X222049919Y-100035713D01*
X222049919Y-100035713D02*
X222026109Y-99964285D01*
X222026109Y-99964285D02*
X222026109Y-99916666D01*
X222026109Y-99916666D02*
X222049919Y-99845237D01*
X222049919Y-99845237D02*
X222073728Y-99821428D01*
X222526109Y-99345237D02*
X222526109Y-99630951D01*
X222526109Y-99488094D02*
X222026109Y-99488094D01*
X222026109Y-99488094D02*
X222097538Y-99535713D01*
X222097538Y-99535713D02*
X222145157Y-99583332D01*
X222145157Y-99583332D02*
X222168966Y-99630951D01*
X222026109Y-98892857D02*
X222026109Y-99130952D01*
X222026109Y-99130952D02*
X222264204Y-99154761D01*
X222264204Y-99154761D02*
X222240395Y-99130952D01*
X222240395Y-99130952D02*
X222216585Y-99083333D01*
X222216585Y-99083333D02*
X222216585Y-98964285D01*
X222216585Y-98964285D02*
X222240395Y-98916666D01*
X222240395Y-98916666D02*
X222264204Y-98892857D01*
X222264204Y-98892857D02*
X222311823Y-98869047D01*
X222311823Y-98869047D02*
X222430871Y-98869047D01*
X222430871Y-98869047D02*
X222478490Y-98892857D01*
X222478490Y-98892857D02*
X222502300Y-98916666D01*
X222502300Y-98916666D02*
X222526109Y-98964285D01*
X222526109Y-98964285D02*
X222526109Y-99083333D01*
X222526109Y-99083333D02*
X222502300Y-99130952D01*
X222502300Y-99130952D02*
X222478490Y-99154761D01*
X222478490Y-96421428D02*
X222502300Y-96445237D01*
X222502300Y-96445237D02*
X222526109Y-96516666D01*
X222526109Y-96516666D02*
X222526109Y-96564285D01*
X222526109Y-96564285D02*
X222502300Y-96635713D01*
X222502300Y-96635713D02*
X222454680Y-96683332D01*
X222454680Y-96683332D02*
X222407061Y-96707142D01*
X222407061Y-96707142D02*
X222311823Y-96730951D01*
X222311823Y-96730951D02*
X222240395Y-96730951D01*
X222240395Y-96730951D02*
X222145157Y-96707142D01*
X222145157Y-96707142D02*
X222097538Y-96683332D01*
X222097538Y-96683332D02*
X222049919Y-96635713D01*
X222049919Y-96635713D02*
X222026109Y-96564285D01*
X222026109Y-96564285D02*
X222026109Y-96516666D01*
X222026109Y-96516666D02*
X222049919Y-96445237D01*
X222049919Y-96445237D02*
X222073728Y-96421428D01*
X222526109Y-95945237D02*
X222526109Y-96230951D01*
X222526109Y-96088094D02*
X222026109Y-96088094D01*
X222026109Y-96088094D02*
X222097538Y-96135713D01*
X222097538Y-96135713D02*
X222145157Y-96183332D01*
X222145157Y-96183332D02*
X222168966Y-96230951D01*
X222240395Y-95659523D02*
X222216585Y-95707142D01*
X222216585Y-95707142D02*
X222192776Y-95730952D01*
X222192776Y-95730952D02*
X222145157Y-95754761D01*
X222145157Y-95754761D02*
X222121347Y-95754761D01*
X222121347Y-95754761D02*
X222073728Y-95730952D01*
X222073728Y-95730952D02*
X222049919Y-95707142D01*
X222049919Y-95707142D02*
X222026109Y-95659523D01*
X222026109Y-95659523D02*
X222026109Y-95564285D01*
X222026109Y-95564285D02*
X222049919Y-95516666D01*
X222049919Y-95516666D02*
X222073728Y-95492857D01*
X222073728Y-95492857D02*
X222121347Y-95469047D01*
X222121347Y-95469047D02*
X222145157Y-95469047D01*
X222145157Y-95469047D02*
X222192776Y-95492857D01*
X222192776Y-95492857D02*
X222216585Y-95516666D01*
X222216585Y-95516666D02*
X222240395Y-95564285D01*
X222240395Y-95564285D02*
X222240395Y-95659523D01*
X222240395Y-95659523D02*
X222264204Y-95707142D01*
X222264204Y-95707142D02*
X222288014Y-95730952D01*
X222288014Y-95730952D02*
X222335633Y-95754761D01*
X222335633Y-95754761D02*
X222430871Y-95754761D01*
X222430871Y-95754761D02*
X222478490Y-95730952D01*
X222478490Y-95730952D02*
X222502300Y-95707142D01*
X222502300Y-95707142D02*
X222526109Y-95659523D01*
X222526109Y-95659523D02*
X222526109Y-95564285D01*
X222526109Y-95564285D02*
X222502300Y-95516666D01*
X222502300Y-95516666D02*
X222478490Y-95492857D01*
X222478490Y-95492857D02*
X222430871Y-95469047D01*
X222430871Y-95469047D02*
X222335633Y-95469047D01*
X222335633Y-95469047D02*
X222288014Y-95492857D01*
X222288014Y-95492857D02*
X222264204Y-95516666D01*
X222264204Y-95516666D02*
X222240395Y-95564285D01*
X222478490Y-98121428D02*
X222502300Y-98145237D01*
X222502300Y-98145237D02*
X222526109Y-98216666D01*
X222526109Y-98216666D02*
X222526109Y-98264285D01*
X222526109Y-98264285D02*
X222502300Y-98335713D01*
X222502300Y-98335713D02*
X222454680Y-98383332D01*
X222454680Y-98383332D02*
X222407061Y-98407142D01*
X222407061Y-98407142D02*
X222311823Y-98430951D01*
X222311823Y-98430951D02*
X222240395Y-98430951D01*
X222240395Y-98430951D02*
X222145157Y-98407142D01*
X222145157Y-98407142D02*
X222097538Y-98383332D01*
X222097538Y-98383332D02*
X222049919Y-98335713D01*
X222049919Y-98335713D02*
X222026109Y-98264285D01*
X222026109Y-98264285D02*
X222026109Y-98216666D01*
X222026109Y-98216666D02*
X222049919Y-98145237D01*
X222049919Y-98145237D02*
X222073728Y-98121428D01*
X222526109Y-97645237D02*
X222526109Y-97930951D01*
X222526109Y-97788094D02*
X222026109Y-97788094D01*
X222026109Y-97788094D02*
X222097538Y-97835713D01*
X222097538Y-97835713D02*
X222145157Y-97883332D01*
X222145157Y-97883332D02*
X222168966Y-97930951D01*
X222026109Y-97478571D02*
X222026109Y-97145238D01*
X222026109Y-97145238D02*
X222526109Y-97359523D01*
X217330952Y-108326109D02*
X217330952Y-107826109D01*
X217330952Y-107826109D02*
X217450000Y-107826109D01*
X217450000Y-107826109D02*
X217521428Y-107849919D01*
X217521428Y-107849919D02*
X217569047Y-107897538D01*
X217569047Y-107897538D02*
X217592857Y-107945157D01*
X217592857Y-107945157D02*
X217616666Y-108040395D01*
X217616666Y-108040395D02*
X217616666Y-108111823D01*
X217616666Y-108111823D02*
X217592857Y-108207061D01*
X217592857Y-108207061D02*
X217569047Y-108254680D01*
X217569047Y-108254680D02*
X217521428Y-108302300D01*
X217521428Y-108302300D02*
X217450000Y-108326109D01*
X217450000Y-108326109D02*
X217330952Y-108326109D01*
X217783333Y-107826109D02*
X218116666Y-107826109D01*
X218116666Y-107826109D02*
X217902381Y-108326109D01*
X228142381Y-115126109D02*
X227975715Y-114888014D01*
X227856667Y-115126109D02*
X227856667Y-114626109D01*
X227856667Y-114626109D02*
X228047143Y-114626109D01*
X228047143Y-114626109D02*
X228094762Y-114649919D01*
X228094762Y-114649919D02*
X228118572Y-114673728D01*
X228118572Y-114673728D02*
X228142381Y-114721347D01*
X228142381Y-114721347D02*
X228142381Y-114792776D01*
X228142381Y-114792776D02*
X228118572Y-114840395D01*
X228118572Y-114840395D02*
X228094762Y-114864204D01*
X228094762Y-114864204D02*
X228047143Y-114888014D01*
X228047143Y-114888014D02*
X227856667Y-114888014D01*
X228285239Y-114626109D02*
X228451905Y-115126109D01*
X228451905Y-115126109D02*
X228618572Y-114626109D01*
X229047143Y-115126109D02*
X228761429Y-115126109D01*
X228904286Y-115126109D02*
X228904286Y-114626109D01*
X228904286Y-114626109D02*
X228856667Y-114697538D01*
X228856667Y-114697538D02*
X228809048Y-114745157D01*
X228809048Y-114745157D02*
X228761429Y-114768966D01*
X220626109Y-108080952D02*
X221030871Y-108080952D01*
X221030871Y-108080952D02*
X221078490Y-108057142D01*
X221078490Y-108057142D02*
X221102300Y-108033333D01*
X221102300Y-108033333D02*
X221126109Y-107985714D01*
X221126109Y-107985714D02*
X221126109Y-107890476D01*
X221126109Y-107890476D02*
X221102300Y-107842857D01*
X221102300Y-107842857D02*
X221078490Y-107819047D01*
X221078490Y-107819047D02*
X221030871Y-107795238D01*
X221030871Y-107795238D02*
X220626109Y-107795238D01*
X221126109Y-107533332D02*
X221126109Y-107438094D01*
X221126109Y-107438094D02*
X221102300Y-107390475D01*
X221102300Y-107390475D02*
X221078490Y-107366666D01*
X221078490Y-107366666D02*
X221007061Y-107319047D01*
X221007061Y-107319047D02*
X220911823Y-107295237D01*
X220911823Y-107295237D02*
X220721347Y-107295237D01*
X220721347Y-107295237D02*
X220673728Y-107319047D01*
X220673728Y-107319047D02*
X220649919Y-107342856D01*
X220649919Y-107342856D02*
X220626109Y-107390475D01*
X220626109Y-107390475D02*
X220626109Y-107485713D01*
X220626109Y-107485713D02*
X220649919Y-107533332D01*
X220649919Y-107533332D02*
X220673728Y-107557142D01*
X220673728Y-107557142D02*
X220721347Y-107580951D01*
X220721347Y-107580951D02*
X220840395Y-107580951D01*
X220840395Y-107580951D02*
X220888014Y-107557142D01*
X220888014Y-107557142D02*
X220911823Y-107533332D01*
X220911823Y-107533332D02*
X220935633Y-107485713D01*
X220935633Y-107485713D02*
X220935633Y-107390475D01*
X220935633Y-107390475D02*
X220911823Y-107342856D01*
X220911823Y-107342856D02*
X220888014Y-107319047D01*
X220888014Y-107319047D02*
X220840395Y-107295237D01*
X230478571Y-89778490D02*
X230454762Y-89802300D01*
X230454762Y-89802300D02*
X230383333Y-89826109D01*
X230383333Y-89826109D02*
X230335714Y-89826109D01*
X230335714Y-89826109D02*
X230264286Y-89802300D01*
X230264286Y-89802300D02*
X230216667Y-89754680D01*
X230216667Y-89754680D02*
X230192857Y-89707061D01*
X230192857Y-89707061D02*
X230169048Y-89611823D01*
X230169048Y-89611823D02*
X230169048Y-89540395D01*
X230169048Y-89540395D02*
X230192857Y-89445157D01*
X230192857Y-89445157D02*
X230216667Y-89397538D01*
X230216667Y-89397538D02*
X230264286Y-89349919D01*
X230264286Y-89349919D02*
X230335714Y-89326109D01*
X230335714Y-89326109D02*
X230383333Y-89326109D01*
X230383333Y-89326109D02*
X230454762Y-89349919D01*
X230454762Y-89349919D02*
X230478571Y-89373728D01*
X230669048Y-89373728D02*
X230692857Y-89349919D01*
X230692857Y-89349919D02*
X230740476Y-89326109D01*
X230740476Y-89326109D02*
X230859524Y-89326109D01*
X230859524Y-89326109D02*
X230907143Y-89349919D01*
X230907143Y-89349919D02*
X230930952Y-89373728D01*
X230930952Y-89373728D02*
X230954762Y-89421347D01*
X230954762Y-89421347D02*
X230954762Y-89468966D01*
X230954762Y-89468966D02*
X230930952Y-89540395D01*
X230930952Y-89540395D02*
X230645238Y-89826109D01*
X230645238Y-89826109D02*
X230954762Y-89826109D01*
X231383333Y-89326109D02*
X231288095Y-89326109D01*
X231288095Y-89326109D02*
X231240476Y-89349919D01*
X231240476Y-89349919D02*
X231216666Y-89373728D01*
X231216666Y-89373728D02*
X231169047Y-89445157D01*
X231169047Y-89445157D02*
X231145238Y-89540395D01*
X231145238Y-89540395D02*
X231145238Y-89730871D01*
X231145238Y-89730871D02*
X231169047Y-89778490D01*
X231169047Y-89778490D02*
X231192857Y-89802300D01*
X231192857Y-89802300D02*
X231240476Y-89826109D01*
X231240476Y-89826109D02*
X231335714Y-89826109D01*
X231335714Y-89826109D02*
X231383333Y-89802300D01*
X231383333Y-89802300D02*
X231407142Y-89778490D01*
X231407142Y-89778490D02*
X231430952Y-89730871D01*
X231430952Y-89730871D02*
X231430952Y-89611823D01*
X231430952Y-89611823D02*
X231407142Y-89564204D01*
X231407142Y-89564204D02*
X231383333Y-89540395D01*
X231383333Y-89540395D02*
X231335714Y-89516585D01*
X231335714Y-89516585D02*
X231240476Y-89516585D01*
X231240476Y-89516585D02*
X231192857Y-89540395D01*
X231192857Y-89540395D02*
X231169047Y-89564204D01*
X231169047Y-89564204D02*
X231145238Y-89611823D01*
X232226109Y-98980952D02*
X232630871Y-98980952D01*
X232630871Y-98980952D02*
X232678490Y-98957142D01*
X232678490Y-98957142D02*
X232702300Y-98933333D01*
X232702300Y-98933333D02*
X232726109Y-98885714D01*
X232726109Y-98885714D02*
X232726109Y-98790476D01*
X232726109Y-98790476D02*
X232702300Y-98742857D01*
X232702300Y-98742857D02*
X232678490Y-98719047D01*
X232678490Y-98719047D02*
X232630871Y-98695238D01*
X232630871Y-98695238D02*
X232226109Y-98695238D01*
X232226109Y-98219047D02*
X232226109Y-98457142D01*
X232226109Y-98457142D02*
X232464204Y-98480951D01*
X232464204Y-98480951D02*
X232440395Y-98457142D01*
X232440395Y-98457142D02*
X232416585Y-98409523D01*
X232416585Y-98409523D02*
X232416585Y-98290475D01*
X232416585Y-98290475D02*
X232440395Y-98242856D01*
X232440395Y-98242856D02*
X232464204Y-98219047D01*
X232464204Y-98219047D02*
X232511823Y-98195237D01*
X232511823Y-98195237D02*
X232630871Y-98195237D01*
X232630871Y-98195237D02*
X232678490Y-98219047D01*
X232678490Y-98219047D02*
X232702300Y-98242856D01*
X232702300Y-98242856D02*
X232726109Y-98290475D01*
X232726109Y-98290475D02*
X232726109Y-98409523D01*
X232726109Y-98409523D02*
X232702300Y-98457142D01*
X232702300Y-98457142D02*
X232678490Y-98480951D01*
D13*
X236614700Y-92671428D02*
X236614700Y-91528571D01*
X237186128Y-92099999D02*
X236043271Y-92099999D01*
X236614700Y-105671428D02*
X236614700Y-104528571D01*
D12*
X193278571Y-111078490D02*
X193254762Y-111102300D01*
X193254762Y-111102300D02*
X193183333Y-111126109D01*
X193183333Y-111126109D02*
X193135714Y-111126109D01*
X193135714Y-111126109D02*
X193064286Y-111102300D01*
X193064286Y-111102300D02*
X193016667Y-111054680D01*
X193016667Y-111054680D02*
X192992857Y-111007061D01*
X192992857Y-111007061D02*
X192969048Y-110911823D01*
X192969048Y-110911823D02*
X192969048Y-110840395D01*
X192969048Y-110840395D02*
X192992857Y-110745157D01*
X192992857Y-110745157D02*
X193016667Y-110697538D01*
X193016667Y-110697538D02*
X193064286Y-110649919D01*
X193064286Y-110649919D02*
X193135714Y-110626109D01*
X193135714Y-110626109D02*
X193183333Y-110626109D01*
X193183333Y-110626109D02*
X193254762Y-110649919D01*
X193254762Y-110649919D02*
X193278571Y-110673728D01*
X193469048Y-110673728D02*
X193492857Y-110649919D01*
X193492857Y-110649919D02*
X193540476Y-110626109D01*
X193540476Y-110626109D02*
X193659524Y-110626109D01*
X193659524Y-110626109D02*
X193707143Y-110649919D01*
X193707143Y-110649919D02*
X193730952Y-110673728D01*
X193730952Y-110673728D02*
X193754762Y-110721347D01*
X193754762Y-110721347D02*
X193754762Y-110768966D01*
X193754762Y-110768966D02*
X193730952Y-110840395D01*
X193730952Y-110840395D02*
X193445238Y-111126109D01*
X193445238Y-111126109D02*
X193754762Y-111126109D01*
X193921428Y-110626109D02*
X194254761Y-110626109D01*
X194254761Y-110626109D02*
X194040476Y-111126109D01*
X224718717Y-39846137D02*
X224897288Y-40155431D01*
X224897288Y-40155431D02*
X224912383Y-40229195D01*
X224912383Y-40229195D02*
X224894953Y-40294244D01*
X224894953Y-40294244D02*
X224844999Y-40350578D01*
X224844999Y-40350578D02*
X224803760Y-40374387D01*
X225401729Y-40029149D02*
X225154294Y-40172007D01*
X225278012Y-40100578D02*
X225028012Y-39667565D01*
X225028012Y-39667565D02*
X225022487Y-39753234D01*
X225022487Y-39753234D02*
X225005057Y-39818283D01*
X225005057Y-39818283D02*
X224975722Y-39862712D01*
X219416666Y-76186109D02*
X219178571Y-76186109D01*
X219178571Y-76186109D02*
X219178571Y-75686109D01*
X219535714Y-75686109D02*
X219845238Y-75686109D01*
X219845238Y-75686109D02*
X219678571Y-75876585D01*
X219678571Y-75876585D02*
X219750000Y-75876585D01*
X219750000Y-75876585D02*
X219797619Y-75900395D01*
X219797619Y-75900395D02*
X219821428Y-75924204D01*
X219821428Y-75924204D02*
X219845238Y-75971823D01*
X219845238Y-75971823D02*
X219845238Y-76090871D01*
X219845238Y-76090871D02*
X219821428Y-76138490D01*
X219821428Y-76138490D02*
X219797619Y-76162300D01*
X219797619Y-76162300D02*
X219750000Y-76186109D01*
X219750000Y-76186109D02*
X219607143Y-76186109D01*
X219607143Y-76186109D02*
X219559524Y-76162300D01*
X219559524Y-76162300D02*
X219535714Y-76138490D01*
X216426109Y-60543333D02*
X216188014Y-60709999D01*
X216426109Y-60829047D02*
X215926109Y-60829047D01*
X215926109Y-60829047D02*
X215926109Y-60638571D01*
X215926109Y-60638571D02*
X215949919Y-60590952D01*
X215949919Y-60590952D02*
X215973728Y-60567142D01*
X215973728Y-60567142D02*
X216021347Y-60543333D01*
X216021347Y-60543333D02*
X216092776Y-60543333D01*
X216092776Y-60543333D02*
X216140395Y-60567142D01*
X216140395Y-60567142D02*
X216164204Y-60590952D01*
X216164204Y-60590952D02*
X216188014Y-60638571D01*
X216188014Y-60638571D02*
X216188014Y-60829047D01*
X216140395Y-60257618D02*
X216116585Y-60305237D01*
X216116585Y-60305237D02*
X216092776Y-60329047D01*
X216092776Y-60329047D02*
X216045157Y-60352856D01*
X216045157Y-60352856D02*
X216021347Y-60352856D01*
X216021347Y-60352856D02*
X215973728Y-60329047D01*
X215973728Y-60329047D02*
X215949919Y-60305237D01*
X215949919Y-60305237D02*
X215926109Y-60257618D01*
X215926109Y-60257618D02*
X215926109Y-60162380D01*
X215926109Y-60162380D02*
X215949919Y-60114761D01*
X215949919Y-60114761D02*
X215973728Y-60090952D01*
X215973728Y-60090952D02*
X216021347Y-60067142D01*
X216021347Y-60067142D02*
X216045157Y-60067142D01*
X216045157Y-60067142D02*
X216092776Y-60090952D01*
X216092776Y-60090952D02*
X216116585Y-60114761D01*
X216116585Y-60114761D02*
X216140395Y-60162380D01*
X216140395Y-60162380D02*
X216140395Y-60257618D01*
X216140395Y-60257618D02*
X216164204Y-60305237D01*
X216164204Y-60305237D02*
X216188014Y-60329047D01*
X216188014Y-60329047D02*
X216235633Y-60352856D01*
X216235633Y-60352856D02*
X216330871Y-60352856D01*
X216330871Y-60352856D02*
X216378490Y-60329047D01*
X216378490Y-60329047D02*
X216402300Y-60305237D01*
X216402300Y-60305237D02*
X216426109Y-60257618D01*
X216426109Y-60257618D02*
X216426109Y-60162380D01*
X216426109Y-60162380D02*
X216402300Y-60114761D01*
X216402300Y-60114761D02*
X216378490Y-60090952D01*
X216378490Y-60090952D02*
X216330871Y-60067142D01*
X216330871Y-60067142D02*
X216235633Y-60067142D01*
X216235633Y-60067142D02*
X216188014Y-60090952D01*
X216188014Y-60090952D02*
X216164204Y-60114761D01*
X216164204Y-60114761D02*
X216140395Y-60162380D01*
X162178490Y-69683333D02*
X162202300Y-69707142D01*
X162202300Y-69707142D02*
X162226109Y-69778571D01*
X162226109Y-69778571D02*
X162226109Y-69826190D01*
X162226109Y-69826190D02*
X162202300Y-69897618D01*
X162202300Y-69897618D02*
X162154680Y-69945237D01*
X162154680Y-69945237D02*
X162107061Y-69969047D01*
X162107061Y-69969047D02*
X162011823Y-69992856D01*
X162011823Y-69992856D02*
X161940395Y-69992856D01*
X161940395Y-69992856D02*
X161845157Y-69969047D01*
X161845157Y-69969047D02*
X161797538Y-69945237D01*
X161797538Y-69945237D02*
X161749919Y-69897618D01*
X161749919Y-69897618D02*
X161726109Y-69826190D01*
X161726109Y-69826190D02*
X161726109Y-69778571D01*
X161726109Y-69778571D02*
X161749919Y-69707142D01*
X161749919Y-69707142D02*
X161773728Y-69683333D01*
X161726109Y-69516666D02*
X161726109Y-69207142D01*
X161726109Y-69207142D02*
X161916585Y-69373809D01*
X161916585Y-69373809D02*
X161916585Y-69302380D01*
X161916585Y-69302380D02*
X161940395Y-69254761D01*
X161940395Y-69254761D02*
X161964204Y-69230952D01*
X161964204Y-69230952D02*
X162011823Y-69207142D01*
X162011823Y-69207142D02*
X162130871Y-69207142D01*
X162130871Y-69207142D02*
X162178490Y-69230952D01*
X162178490Y-69230952D02*
X162202300Y-69254761D01*
X162202300Y-69254761D02*
X162226109Y-69302380D01*
X162226109Y-69302380D02*
X162226109Y-69445237D01*
X162226109Y-69445237D02*
X162202300Y-69492856D01*
X162202300Y-69492856D02*
X162178490Y-69516666D01*
X205615990Y-63921428D02*
X205639800Y-63945237D01*
X205639800Y-63945237D02*
X205663609Y-64016666D01*
X205663609Y-64016666D02*
X205663609Y-64064285D01*
X205663609Y-64064285D02*
X205639800Y-64135713D01*
X205639800Y-64135713D02*
X205592180Y-64183332D01*
X205592180Y-64183332D02*
X205544561Y-64207142D01*
X205544561Y-64207142D02*
X205449323Y-64230951D01*
X205449323Y-64230951D02*
X205377895Y-64230951D01*
X205377895Y-64230951D02*
X205282657Y-64207142D01*
X205282657Y-64207142D02*
X205235038Y-64183332D01*
X205235038Y-64183332D02*
X205187419Y-64135713D01*
X205187419Y-64135713D02*
X205163609Y-64064285D01*
X205163609Y-64064285D02*
X205163609Y-64016666D01*
X205163609Y-64016666D02*
X205187419Y-63945237D01*
X205187419Y-63945237D02*
X205211228Y-63921428D01*
X205211228Y-63730951D02*
X205187419Y-63707142D01*
X205187419Y-63707142D02*
X205163609Y-63659523D01*
X205163609Y-63659523D02*
X205163609Y-63540475D01*
X205163609Y-63540475D02*
X205187419Y-63492856D01*
X205187419Y-63492856D02*
X205211228Y-63469047D01*
X205211228Y-63469047D02*
X205258847Y-63445237D01*
X205258847Y-63445237D02*
X205306466Y-63445237D01*
X205306466Y-63445237D02*
X205377895Y-63469047D01*
X205377895Y-63469047D02*
X205663609Y-63754761D01*
X205663609Y-63754761D02*
X205663609Y-63445237D01*
X205163609Y-63135714D02*
X205163609Y-63088095D01*
X205163609Y-63088095D02*
X205187419Y-63040476D01*
X205187419Y-63040476D02*
X205211228Y-63016666D01*
X205211228Y-63016666D02*
X205258847Y-62992857D01*
X205258847Y-62992857D02*
X205354085Y-62969047D01*
X205354085Y-62969047D02*
X205473133Y-62969047D01*
X205473133Y-62969047D02*
X205568371Y-62992857D01*
X205568371Y-62992857D02*
X205615990Y-63016666D01*
X205615990Y-63016666D02*
X205639800Y-63040476D01*
X205639800Y-63040476D02*
X205663609Y-63088095D01*
X205663609Y-63088095D02*
X205663609Y-63135714D01*
X205663609Y-63135714D02*
X205639800Y-63183333D01*
X205639800Y-63183333D02*
X205615990Y-63207142D01*
X205615990Y-63207142D02*
X205568371Y-63230952D01*
X205568371Y-63230952D02*
X205473133Y-63254761D01*
X205473133Y-63254761D02*
X205354085Y-63254761D01*
X205354085Y-63254761D02*
X205258847Y-63230952D01*
X205258847Y-63230952D02*
X205211228Y-63207142D01*
X205211228Y-63207142D02*
X205187419Y-63183333D01*
X205187419Y-63183333D02*
X205163609Y-63135714D01*
X222878571Y-76338490D02*
X222854762Y-76362300D01*
X222854762Y-76362300D02*
X222783333Y-76386109D01*
X222783333Y-76386109D02*
X222735714Y-76386109D01*
X222735714Y-76386109D02*
X222664286Y-76362300D01*
X222664286Y-76362300D02*
X222616667Y-76314680D01*
X222616667Y-76314680D02*
X222592857Y-76267061D01*
X222592857Y-76267061D02*
X222569048Y-76171823D01*
X222569048Y-76171823D02*
X222569048Y-76100395D01*
X222569048Y-76100395D02*
X222592857Y-76005157D01*
X222592857Y-76005157D02*
X222616667Y-75957538D01*
X222616667Y-75957538D02*
X222664286Y-75909919D01*
X222664286Y-75909919D02*
X222735714Y-75886109D01*
X222735714Y-75886109D02*
X222783333Y-75886109D01*
X222783333Y-75886109D02*
X222854762Y-75909919D01*
X222854762Y-75909919D02*
X222878571Y-75933728D01*
X223069048Y-75933728D02*
X223092857Y-75909919D01*
X223092857Y-75909919D02*
X223140476Y-75886109D01*
X223140476Y-75886109D02*
X223259524Y-75886109D01*
X223259524Y-75886109D02*
X223307143Y-75909919D01*
X223307143Y-75909919D02*
X223330952Y-75933728D01*
X223330952Y-75933728D02*
X223354762Y-75981347D01*
X223354762Y-75981347D02*
X223354762Y-76028966D01*
X223354762Y-76028966D02*
X223330952Y-76100395D01*
X223330952Y-76100395D02*
X223045238Y-76386109D01*
X223045238Y-76386109D02*
X223354762Y-76386109D01*
X223783333Y-76052776D02*
X223783333Y-76386109D01*
X223664285Y-75862300D02*
X223545238Y-76219442D01*
X223545238Y-76219442D02*
X223854761Y-76219442D01*
X208213609Y-60583333D02*
X207975514Y-60749999D01*
X208213609Y-60869047D02*
X207713609Y-60869047D01*
X207713609Y-60869047D02*
X207713609Y-60678571D01*
X207713609Y-60678571D02*
X207737419Y-60630952D01*
X207737419Y-60630952D02*
X207761228Y-60607142D01*
X207761228Y-60607142D02*
X207808847Y-60583333D01*
X207808847Y-60583333D02*
X207880276Y-60583333D01*
X207880276Y-60583333D02*
X207927895Y-60607142D01*
X207927895Y-60607142D02*
X207951704Y-60630952D01*
X207951704Y-60630952D02*
X207975514Y-60678571D01*
X207975514Y-60678571D02*
X207975514Y-60869047D01*
X207713609Y-60416666D02*
X207713609Y-60083333D01*
X207713609Y-60083333D02*
X208213609Y-60297618D01*
X187530952Y-111426109D02*
X187530952Y-110926109D01*
X187530952Y-110926109D02*
X187650000Y-110926109D01*
X187650000Y-110926109D02*
X187721428Y-110949919D01*
X187721428Y-110949919D02*
X187769047Y-110997538D01*
X187769047Y-110997538D02*
X187792857Y-111045157D01*
X187792857Y-111045157D02*
X187816666Y-111140395D01*
X187816666Y-111140395D02*
X187816666Y-111211823D01*
X187816666Y-111211823D02*
X187792857Y-111307061D01*
X187792857Y-111307061D02*
X187769047Y-111354680D01*
X187769047Y-111354680D02*
X187721428Y-111402300D01*
X187721428Y-111402300D02*
X187650000Y-111426109D01*
X187650000Y-111426109D02*
X187530952Y-111426109D01*
X188102381Y-111140395D02*
X188054762Y-111116585D01*
X188054762Y-111116585D02*
X188030952Y-111092776D01*
X188030952Y-111092776D02*
X188007143Y-111045157D01*
X188007143Y-111045157D02*
X188007143Y-111021347D01*
X188007143Y-111021347D02*
X188030952Y-110973728D01*
X188030952Y-110973728D02*
X188054762Y-110949919D01*
X188054762Y-110949919D02*
X188102381Y-110926109D01*
X188102381Y-110926109D02*
X188197619Y-110926109D01*
X188197619Y-110926109D02*
X188245238Y-110949919D01*
X188245238Y-110949919D02*
X188269047Y-110973728D01*
X188269047Y-110973728D02*
X188292857Y-111021347D01*
X188292857Y-111021347D02*
X188292857Y-111045157D01*
X188292857Y-111045157D02*
X188269047Y-111092776D01*
X188269047Y-111092776D02*
X188245238Y-111116585D01*
X188245238Y-111116585D02*
X188197619Y-111140395D01*
X188197619Y-111140395D02*
X188102381Y-111140395D01*
X188102381Y-111140395D02*
X188054762Y-111164204D01*
X188054762Y-111164204D02*
X188030952Y-111188014D01*
X188030952Y-111188014D02*
X188007143Y-111235633D01*
X188007143Y-111235633D02*
X188007143Y-111330871D01*
X188007143Y-111330871D02*
X188030952Y-111378490D01*
X188030952Y-111378490D02*
X188054762Y-111402300D01*
X188054762Y-111402300D02*
X188102381Y-111426109D01*
X188102381Y-111426109D02*
X188197619Y-111426109D01*
X188197619Y-111426109D02*
X188245238Y-111402300D01*
X188245238Y-111402300D02*
X188269047Y-111378490D01*
X188269047Y-111378490D02*
X188292857Y-111330871D01*
X188292857Y-111330871D02*
X188292857Y-111235633D01*
X188292857Y-111235633D02*
X188269047Y-111188014D01*
X188269047Y-111188014D02*
X188245238Y-111164204D01*
X188245238Y-111164204D02*
X188197619Y-111140395D01*
X165376109Y-96983333D02*
X165376109Y-97221428D01*
X165376109Y-97221428D02*
X164876109Y-97221428D01*
X165376109Y-96554761D02*
X165376109Y-96840475D01*
X165376109Y-96697618D02*
X164876109Y-96697618D01*
X164876109Y-96697618D02*
X164947538Y-96745237D01*
X164947538Y-96745237D02*
X164995157Y-96792856D01*
X164995157Y-96792856D02*
X165018966Y-96840475D01*
X171026109Y-100480952D02*
X171430871Y-100480952D01*
X171430871Y-100480952D02*
X171478490Y-100457142D01*
X171478490Y-100457142D02*
X171502300Y-100433333D01*
X171502300Y-100433333D02*
X171526109Y-100385714D01*
X171526109Y-100385714D02*
X171526109Y-100290476D01*
X171526109Y-100290476D02*
X171502300Y-100242857D01*
X171502300Y-100242857D02*
X171478490Y-100219047D01*
X171478490Y-100219047D02*
X171430871Y-100195238D01*
X171430871Y-100195238D02*
X171026109Y-100195238D01*
X171026109Y-100004761D02*
X171026109Y-99671428D01*
X171026109Y-99671428D02*
X171526109Y-99885713D01*
X165916666Y-105828490D02*
X165892857Y-105852300D01*
X165892857Y-105852300D02*
X165821428Y-105876109D01*
X165821428Y-105876109D02*
X165773809Y-105876109D01*
X165773809Y-105876109D02*
X165702381Y-105852300D01*
X165702381Y-105852300D02*
X165654762Y-105804680D01*
X165654762Y-105804680D02*
X165630952Y-105757061D01*
X165630952Y-105757061D02*
X165607143Y-105661823D01*
X165607143Y-105661823D02*
X165607143Y-105590395D01*
X165607143Y-105590395D02*
X165630952Y-105495157D01*
X165630952Y-105495157D02*
X165654762Y-105447538D01*
X165654762Y-105447538D02*
X165702381Y-105399919D01*
X165702381Y-105399919D02*
X165773809Y-105376109D01*
X165773809Y-105376109D02*
X165821428Y-105376109D01*
X165821428Y-105376109D02*
X165892857Y-105399919D01*
X165892857Y-105399919D02*
X165916666Y-105423728D01*
X166369047Y-105376109D02*
X166130952Y-105376109D01*
X166130952Y-105376109D02*
X166107143Y-105614204D01*
X166107143Y-105614204D02*
X166130952Y-105590395D01*
X166130952Y-105590395D02*
X166178571Y-105566585D01*
X166178571Y-105566585D02*
X166297619Y-105566585D01*
X166297619Y-105566585D02*
X166345238Y-105590395D01*
X166345238Y-105590395D02*
X166369047Y-105614204D01*
X166369047Y-105614204D02*
X166392857Y-105661823D01*
X166392857Y-105661823D02*
X166392857Y-105780871D01*
X166392857Y-105780871D02*
X166369047Y-105828490D01*
X166369047Y-105828490D02*
X166345238Y-105852300D01*
X166345238Y-105852300D02*
X166297619Y-105876109D01*
X166297619Y-105876109D02*
X166178571Y-105876109D01*
X166178571Y-105876109D02*
X166130952Y-105852300D01*
X166130952Y-105852300D02*
X166107143Y-105828490D01*
X175978490Y-79021428D02*
X176002300Y-79045237D01*
X176002300Y-79045237D02*
X176026109Y-79116666D01*
X176026109Y-79116666D02*
X176026109Y-79164285D01*
X176026109Y-79164285D02*
X176002300Y-79235713D01*
X176002300Y-79235713D02*
X175954680Y-79283332D01*
X175954680Y-79283332D02*
X175907061Y-79307142D01*
X175907061Y-79307142D02*
X175811823Y-79330951D01*
X175811823Y-79330951D02*
X175740395Y-79330951D01*
X175740395Y-79330951D02*
X175645157Y-79307142D01*
X175645157Y-79307142D02*
X175597538Y-79283332D01*
X175597538Y-79283332D02*
X175549919Y-79235713D01*
X175549919Y-79235713D02*
X175526109Y-79164285D01*
X175526109Y-79164285D02*
X175526109Y-79116666D01*
X175526109Y-79116666D02*
X175549919Y-79045237D01*
X175549919Y-79045237D02*
X175573728Y-79021428D01*
X176026109Y-78545237D02*
X176026109Y-78830951D01*
X176026109Y-78688094D02*
X175526109Y-78688094D01*
X175526109Y-78688094D02*
X175597538Y-78735713D01*
X175597538Y-78735713D02*
X175645157Y-78783332D01*
X175645157Y-78783332D02*
X175668966Y-78830951D01*
X176026109Y-78069047D02*
X176026109Y-78354761D01*
X176026109Y-78211904D02*
X175526109Y-78211904D01*
X175526109Y-78211904D02*
X175597538Y-78259523D01*
X175597538Y-78259523D02*
X175645157Y-78307142D01*
X175645157Y-78307142D02*
X175668966Y-78354761D01*
X171716666Y-97526109D02*
X171550000Y-97288014D01*
X171430952Y-97526109D02*
X171430952Y-97026109D01*
X171430952Y-97026109D02*
X171621428Y-97026109D01*
X171621428Y-97026109D02*
X171669047Y-97049919D01*
X171669047Y-97049919D02*
X171692857Y-97073728D01*
X171692857Y-97073728D02*
X171716666Y-97121347D01*
X171716666Y-97121347D02*
X171716666Y-97192776D01*
X171716666Y-97192776D02*
X171692857Y-97240395D01*
X171692857Y-97240395D02*
X171669047Y-97264204D01*
X171669047Y-97264204D02*
X171621428Y-97288014D01*
X171621428Y-97288014D02*
X171430952Y-97288014D01*
X171883333Y-97026109D02*
X172192857Y-97026109D01*
X172192857Y-97026109D02*
X172026190Y-97216585D01*
X172026190Y-97216585D02*
X172097619Y-97216585D01*
X172097619Y-97216585D02*
X172145238Y-97240395D01*
X172145238Y-97240395D02*
X172169047Y-97264204D01*
X172169047Y-97264204D02*
X172192857Y-97311823D01*
X172192857Y-97311823D02*
X172192857Y-97430871D01*
X172192857Y-97430871D02*
X172169047Y-97478490D01*
X172169047Y-97478490D02*
X172145238Y-97502300D01*
X172145238Y-97502300D02*
X172097619Y-97526109D01*
X172097619Y-97526109D02*
X171954762Y-97526109D01*
X171954762Y-97526109D02*
X171907143Y-97502300D01*
X171907143Y-97502300D02*
X171883333Y-97478490D01*
X157578490Y-106721428D02*
X157602300Y-106745237D01*
X157602300Y-106745237D02*
X157626109Y-106816666D01*
X157626109Y-106816666D02*
X157626109Y-106864285D01*
X157626109Y-106864285D02*
X157602300Y-106935713D01*
X157602300Y-106935713D02*
X157554680Y-106983332D01*
X157554680Y-106983332D02*
X157507061Y-107007142D01*
X157507061Y-107007142D02*
X157411823Y-107030951D01*
X157411823Y-107030951D02*
X157340395Y-107030951D01*
X157340395Y-107030951D02*
X157245157Y-107007142D01*
X157245157Y-107007142D02*
X157197538Y-106983332D01*
X157197538Y-106983332D02*
X157149919Y-106935713D01*
X157149919Y-106935713D02*
X157126109Y-106864285D01*
X157126109Y-106864285D02*
X157126109Y-106816666D01*
X157126109Y-106816666D02*
X157149919Y-106745237D01*
X157149919Y-106745237D02*
X157173728Y-106721428D01*
X157626109Y-106245237D02*
X157626109Y-106530951D01*
X157626109Y-106388094D02*
X157126109Y-106388094D01*
X157126109Y-106388094D02*
X157197538Y-106435713D01*
X157197538Y-106435713D02*
X157245157Y-106483332D01*
X157245157Y-106483332D02*
X157268966Y-106530951D01*
X157292776Y-105816666D02*
X157626109Y-105816666D01*
X157102300Y-105935714D02*
X157459442Y-106054761D01*
X157459442Y-106054761D02*
X157459442Y-105745238D01*
X198716666Y-113203490D02*
X198692857Y-113227300D01*
X198692857Y-113227300D02*
X198621428Y-113251109D01*
X198621428Y-113251109D02*
X198573809Y-113251109D01*
X198573809Y-113251109D02*
X198502381Y-113227300D01*
X198502381Y-113227300D02*
X198454762Y-113179680D01*
X198454762Y-113179680D02*
X198430952Y-113132061D01*
X198430952Y-113132061D02*
X198407143Y-113036823D01*
X198407143Y-113036823D02*
X198407143Y-112965395D01*
X198407143Y-112965395D02*
X198430952Y-112870157D01*
X198430952Y-112870157D02*
X198454762Y-112822538D01*
X198454762Y-112822538D02*
X198502381Y-112774919D01*
X198502381Y-112774919D02*
X198573809Y-112751109D01*
X198573809Y-112751109D02*
X198621428Y-112751109D01*
X198621428Y-112751109D02*
X198692857Y-112774919D01*
X198692857Y-112774919D02*
X198716666Y-112798728D01*
X198907143Y-112798728D02*
X198930952Y-112774919D01*
X198930952Y-112774919D02*
X198978571Y-112751109D01*
X198978571Y-112751109D02*
X199097619Y-112751109D01*
X199097619Y-112751109D02*
X199145238Y-112774919D01*
X199145238Y-112774919D02*
X199169047Y-112798728D01*
X199169047Y-112798728D02*
X199192857Y-112846347D01*
X199192857Y-112846347D02*
X199192857Y-112893966D01*
X199192857Y-112893966D02*
X199169047Y-112965395D01*
X199169047Y-112965395D02*
X198883333Y-113251109D01*
X198883333Y-113251109D02*
X199192857Y-113251109D01*
X154630952Y-78226109D02*
X154630952Y-77726109D01*
X154630952Y-77726109D02*
X154750000Y-77726109D01*
X154750000Y-77726109D02*
X154821428Y-77749919D01*
X154821428Y-77749919D02*
X154869047Y-77797538D01*
X154869047Y-77797538D02*
X154892857Y-77845157D01*
X154892857Y-77845157D02*
X154916666Y-77940395D01*
X154916666Y-77940395D02*
X154916666Y-78011823D01*
X154916666Y-78011823D02*
X154892857Y-78107061D01*
X154892857Y-78107061D02*
X154869047Y-78154680D01*
X154869047Y-78154680D02*
X154821428Y-78202300D01*
X154821428Y-78202300D02*
X154750000Y-78226109D01*
X154750000Y-78226109D02*
X154630952Y-78226109D01*
X155107143Y-77773728D02*
X155130952Y-77749919D01*
X155130952Y-77749919D02*
X155178571Y-77726109D01*
X155178571Y-77726109D02*
X155297619Y-77726109D01*
X155297619Y-77726109D02*
X155345238Y-77749919D01*
X155345238Y-77749919D02*
X155369047Y-77773728D01*
X155369047Y-77773728D02*
X155392857Y-77821347D01*
X155392857Y-77821347D02*
X155392857Y-77868966D01*
X155392857Y-77868966D02*
X155369047Y-77940395D01*
X155369047Y-77940395D02*
X155083333Y-78226109D01*
X155083333Y-78226109D02*
X155392857Y-78226109D01*
X170226109Y-60869047D02*
X169726109Y-60869047D01*
X169726109Y-60869047D02*
X169726109Y-60749999D01*
X169726109Y-60749999D02*
X169749919Y-60678571D01*
X169749919Y-60678571D02*
X169797538Y-60630952D01*
X169797538Y-60630952D02*
X169845157Y-60607142D01*
X169845157Y-60607142D02*
X169940395Y-60583333D01*
X169940395Y-60583333D02*
X170011823Y-60583333D01*
X170011823Y-60583333D02*
X170107061Y-60607142D01*
X170107061Y-60607142D02*
X170154680Y-60630952D01*
X170154680Y-60630952D02*
X170202300Y-60678571D01*
X170202300Y-60678571D02*
X170226109Y-60749999D01*
X170226109Y-60749999D02*
X170226109Y-60869047D01*
X169726109Y-60154761D02*
X169726109Y-60249999D01*
X169726109Y-60249999D02*
X169749919Y-60297618D01*
X169749919Y-60297618D02*
X169773728Y-60321428D01*
X169773728Y-60321428D02*
X169845157Y-60369047D01*
X169845157Y-60369047D02*
X169940395Y-60392856D01*
X169940395Y-60392856D02*
X170130871Y-60392856D01*
X170130871Y-60392856D02*
X170178490Y-60369047D01*
X170178490Y-60369047D02*
X170202300Y-60345237D01*
X170202300Y-60345237D02*
X170226109Y-60297618D01*
X170226109Y-60297618D02*
X170226109Y-60202380D01*
X170226109Y-60202380D02*
X170202300Y-60154761D01*
X170202300Y-60154761D02*
X170178490Y-60130952D01*
X170178490Y-60130952D02*
X170130871Y-60107142D01*
X170130871Y-60107142D02*
X170011823Y-60107142D01*
X170011823Y-60107142D02*
X169964204Y-60130952D01*
X169964204Y-60130952D02*
X169940395Y-60154761D01*
X169940395Y-60154761D02*
X169916585Y-60202380D01*
X169916585Y-60202380D02*
X169916585Y-60297618D01*
X169916585Y-60297618D02*
X169940395Y-60345237D01*
X169940395Y-60345237D02*
X169964204Y-60369047D01*
X169964204Y-60369047D02*
X170011823Y-60392856D01*
X168516666Y-86878490D02*
X168492857Y-86902300D01*
X168492857Y-86902300D02*
X168421428Y-86926109D01*
X168421428Y-86926109D02*
X168373809Y-86926109D01*
X168373809Y-86926109D02*
X168302381Y-86902300D01*
X168302381Y-86902300D02*
X168254762Y-86854680D01*
X168254762Y-86854680D02*
X168230952Y-86807061D01*
X168230952Y-86807061D02*
X168207143Y-86711823D01*
X168207143Y-86711823D02*
X168207143Y-86640395D01*
X168207143Y-86640395D02*
X168230952Y-86545157D01*
X168230952Y-86545157D02*
X168254762Y-86497538D01*
X168254762Y-86497538D02*
X168302381Y-86449919D01*
X168302381Y-86449919D02*
X168373809Y-86426109D01*
X168373809Y-86426109D02*
X168421428Y-86426109D01*
X168421428Y-86426109D02*
X168492857Y-86449919D01*
X168492857Y-86449919D02*
X168516666Y-86473728D01*
X168802381Y-86640395D02*
X168754762Y-86616585D01*
X168754762Y-86616585D02*
X168730952Y-86592776D01*
X168730952Y-86592776D02*
X168707143Y-86545157D01*
X168707143Y-86545157D02*
X168707143Y-86521347D01*
X168707143Y-86521347D02*
X168730952Y-86473728D01*
X168730952Y-86473728D02*
X168754762Y-86449919D01*
X168754762Y-86449919D02*
X168802381Y-86426109D01*
X168802381Y-86426109D02*
X168897619Y-86426109D01*
X168897619Y-86426109D02*
X168945238Y-86449919D01*
X168945238Y-86449919D02*
X168969047Y-86473728D01*
X168969047Y-86473728D02*
X168992857Y-86521347D01*
X168992857Y-86521347D02*
X168992857Y-86545157D01*
X168992857Y-86545157D02*
X168969047Y-86592776D01*
X168969047Y-86592776D02*
X168945238Y-86616585D01*
X168945238Y-86616585D02*
X168897619Y-86640395D01*
X168897619Y-86640395D02*
X168802381Y-86640395D01*
X168802381Y-86640395D02*
X168754762Y-86664204D01*
X168754762Y-86664204D02*
X168730952Y-86688014D01*
X168730952Y-86688014D02*
X168707143Y-86735633D01*
X168707143Y-86735633D02*
X168707143Y-86830871D01*
X168707143Y-86830871D02*
X168730952Y-86878490D01*
X168730952Y-86878490D02*
X168754762Y-86902300D01*
X168754762Y-86902300D02*
X168802381Y-86926109D01*
X168802381Y-86926109D02*
X168897619Y-86926109D01*
X168897619Y-86926109D02*
X168945238Y-86902300D01*
X168945238Y-86902300D02*
X168969047Y-86878490D01*
X168969047Y-86878490D02*
X168992857Y-86830871D01*
X168992857Y-86830871D02*
X168992857Y-86735633D01*
X168992857Y-86735633D02*
X168969047Y-86688014D01*
X168969047Y-86688014D02*
X168945238Y-86664204D01*
X168945238Y-86664204D02*
X168897619Y-86640395D01*
X210578571Y-68015990D02*
X210554762Y-68039800D01*
X210554762Y-68039800D02*
X210483333Y-68063609D01*
X210483333Y-68063609D02*
X210435714Y-68063609D01*
X210435714Y-68063609D02*
X210364286Y-68039800D01*
X210364286Y-68039800D02*
X210316667Y-67992180D01*
X210316667Y-67992180D02*
X210292857Y-67944561D01*
X210292857Y-67944561D02*
X210269048Y-67849323D01*
X210269048Y-67849323D02*
X210269048Y-67777895D01*
X210269048Y-67777895D02*
X210292857Y-67682657D01*
X210292857Y-67682657D02*
X210316667Y-67635038D01*
X210316667Y-67635038D02*
X210364286Y-67587419D01*
X210364286Y-67587419D02*
X210435714Y-67563609D01*
X210435714Y-67563609D02*
X210483333Y-67563609D01*
X210483333Y-67563609D02*
X210554762Y-67587419D01*
X210554762Y-67587419D02*
X210578571Y-67611228D01*
X210769048Y-67611228D02*
X210792857Y-67587419D01*
X210792857Y-67587419D02*
X210840476Y-67563609D01*
X210840476Y-67563609D02*
X210959524Y-67563609D01*
X210959524Y-67563609D02*
X211007143Y-67587419D01*
X211007143Y-67587419D02*
X211030952Y-67611228D01*
X211030952Y-67611228D02*
X211054762Y-67658847D01*
X211054762Y-67658847D02*
X211054762Y-67706466D01*
X211054762Y-67706466D02*
X211030952Y-67777895D01*
X211030952Y-67777895D02*
X210745238Y-68063609D01*
X210745238Y-68063609D02*
X211054762Y-68063609D01*
X211530952Y-68063609D02*
X211245238Y-68063609D01*
X211388095Y-68063609D02*
X211388095Y-67563609D01*
X211388095Y-67563609D02*
X211340476Y-67635038D01*
X211340476Y-67635038D02*
X211292857Y-67682657D01*
X211292857Y-67682657D02*
X211245238Y-67706466D01*
X225878571Y-76238490D02*
X225854762Y-76262300D01*
X225854762Y-76262300D02*
X225783333Y-76286109D01*
X225783333Y-76286109D02*
X225735714Y-76286109D01*
X225735714Y-76286109D02*
X225664286Y-76262300D01*
X225664286Y-76262300D02*
X225616667Y-76214680D01*
X225616667Y-76214680D02*
X225592857Y-76167061D01*
X225592857Y-76167061D02*
X225569048Y-76071823D01*
X225569048Y-76071823D02*
X225569048Y-76000395D01*
X225569048Y-76000395D02*
X225592857Y-75905157D01*
X225592857Y-75905157D02*
X225616667Y-75857538D01*
X225616667Y-75857538D02*
X225664286Y-75809919D01*
X225664286Y-75809919D02*
X225735714Y-75786109D01*
X225735714Y-75786109D02*
X225783333Y-75786109D01*
X225783333Y-75786109D02*
X225854762Y-75809919D01*
X225854762Y-75809919D02*
X225878571Y-75833728D01*
X226069048Y-75833728D02*
X226092857Y-75809919D01*
X226092857Y-75809919D02*
X226140476Y-75786109D01*
X226140476Y-75786109D02*
X226259524Y-75786109D01*
X226259524Y-75786109D02*
X226307143Y-75809919D01*
X226307143Y-75809919D02*
X226330952Y-75833728D01*
X226330952Y-75833728D02*
X226354762Y-75881347D01*
X226354762Y-75881347D02*
X226354762Y-75928966D01*
X226354762Y-75928966D02*
X226330952Y-76000395D01*
X226330952Y-76000395D02*
X226045238Y-76286109D01*
X226045238Y-76286109D02*
X226354762Y-76286109D01*
X226807142Y-75786109D02*
X226569047Y-75786109D01*
X226569047Y-75786109D02*
X226545238Y-76024204D01*
X226545238Y-76024204D02*
X226569047Y-76000395D01*
X226569047Y-76000395D02*
X226616666Y-75976585D01*
X226616666Y-75976585D02*
X226735714Y-75976585D01*
X226735714Y-75976585D02*
X226783333Y-76000395D01*
X226783333Y-76000395D02*
X226807142Y-76024204D01*
X226807142Y-76024204D02*
X226830952Y-76071823D01*
X226830952Y-76071823D02*
X226830952Y-76190871D01*
X226830952Y-76190871D02*
X226807142Y-76238490D01*
X226807142Y-76238490D02*
X226783333Y-76262300D01*
X226783333Y-76262300D02*
X226735714Y-76286109D01*
X226735714Y-76286109D02*
X226616666Y-76286109D01*
X226616666Y-76286109D02*
X226569047Y-76262300D01*
X226569047Y-76262300D02*
X226545238Y-76238490D01*
X162178490Y-73083333D02*
X162202300Y-73107142D01*
X162202300Y-73107142D02*
X162226109Y-73178571D01*
X162226109Y-73178571D02*
X162226109Y-73226190D01*
X162226109Y-73226190D02*
X162202300Y-73297618D01*
X162202300Y-73297618D02*
X162154680Y-73345237D01*
X162154680Y-73345237D02*
X162107061Y-73369047D01*
X162107061Y-73369047D02*
X162011823Y-73392856D01*
X162011823Y-73392856D02*
X161940395Y-73392856D01*
X161940395Y-73392856D02*
X161845157Y-73369047D01*
X161845157Y-73369047D02*
X161797538Y-73345237D01*
X161797538Y-73345237D02*
X161749919Y-73297618D01*
X161749919Y-73297618D02*
X161726109Y-73226190D01*
X161726109Y-73226190D02*
X161726109Y-73178571D01*
X161726109Y-73178571D02*
X161749919Y-73107142D01*
X161749919Y-73107142D02*
X161773728Y-73083333D01*
X161726109Y-72654761D02*
X161726109Y-72749999D01*
X161726109Y-72749999D02*
X161749919Y-72797618D01*
X161749919Y-72797618D02*
X161773728Y-72821428D01*
X161773728Y-72821428D02*
X161845157Y-72869047D01*
X161845157Y-72869047D02*
X161940395Y-72892856D01*
X161940395Y-72892856D02*
X162130871Y-72892856D01*
X162130871Y-72892856D02*
X162178490Y-72869047D01*
X162178490Y-72869047D02*
X162202300Y-72845237D01*
X162202300Y-72845237D02*
X162226109Y-72797618D01*
X162226109Y-72797618D02*
X162226109Y-72702380D01*
X162226109Y-72702380D02*
X162202300Y-72654761D01*
X162202300Y-72654761D02*
X162178490Y-72630952D01*
X162178490Y-72630952D02*
X162130871Y-72607142D01*
X162130871Y-72607142D02*
X162011823Y-72607142D01*
X162011823Y-72607142D02*
X161964204Y-72630952D01*
X161964204Y-72630952D02*
X161940395Y-72654761D01*
X161940395Y-72654761D02*
X161916585Y-72702380D01*
X161916585Y-72702380D02*
X161916585Y-72797618D01*
X161916585Y-72797618D02*
X161940395Y-72845237D01*
X161940395Y-72845237D02*
X161964204Y-72869047D01*
X161964204Y-72869047D02*
X162011823Y-72892856D01*
X162178490Y-71383333D02*
X162202300Y-71407142D01*
X162202300Y-71407142D02*
X162226109Y-71478571D01*
X162226109Y-71478571D02*
X162226109Y-71526190D01*
X162226109Y-71526190D02*
X162202300Y-71597618D01*
X162202300Y-71597618D02*
X162154680Y-71645237D01*
X162154680Y-71645237D02*
X162107061Y-71669047D01*
X162107061Y-71669047D02*
X162011823Y-71692856D01*
X162011823Y-71692856D02*
X161940395Y-71692856D01*
X161940395Y-71692856D02*
X161845157Y-71669047D01*
X161845157Y-71669047D02*
X161797538Y-71645237D01*
X161797538Y-71645237D02*
X161749919Y-71597618D01*
X161749919Y-71597618D02*
X161726109Y-71526190D01*
X161726109Y-71526190D02*
X161726109Y-71478571D01*
X161726109Y-71478571D02*
X161749919Y-71407142D01*
X161749919Y-71407142D02*
X161773728Y-71383333D01*
X161892776Y-70954761D02*
X162226109Y-70954761D01*
X161702300Y-71073809D02*
X162059442Y-71192856D01*
X162059442Y-71192856D02*
X162059442Y-70883333D01*
D13*
X148114700Y-105571428D02*
X148114700Y-104428571D01*
X148686128Y-104999999D02*
X147543271Y-104999999D01*
X148114700Y-92571428D02*
X148114700Y-91428571D01*
D12*
X218519047Y-60286109D02*
X218519047Y-60690871D01*
X218519047Y-60690871D02*
X218542857Y-60738490D01*
X218542857Y-60738490D02*
X218566666Y-60762300D01*
X218566666Y-60762300D02*
X218614285Y-60786109D01*
X218614285Y-60786109D02*
X218709523Y-60786109D01*
X218709523Y-60786109D02*
X218757142Y-60762300D01*
X218757142Y-60762300D02*
X218780952Y-60738490D01*
X218780952Y-60738490D02*
X218804761Y-60690871D01*
X218804761Y-60690871D02*
X218804761Y-60286109D01*
X219114286Y-60500395D02*
X219066667Y-60476585D01*
X219066667Y-60476585D02*
X219042857Y-60452776D01*
X219042857Y-60452776D02*
X219019048Y-60405157D01*
X219019048Y-60405157D02*
X219019048Y-60381347D01*
X219019048Y-60381347D02*
X219042857Y-60333728D01*
X219042857Y-60333728D02*
X219066667Y-60309919D01*
X219066667Y-60309919D02*
X219114286Y-60286109D01*
X219114286Y-60286109D02*
X219209524Y-60286109D01*
X219209524Y-60286109D02*
X219257143Y-60309919D01*
X219257143Y-60309919D02*
X219280952Y-60333728D01*
X219280952Y-60333728D02*
X219304762Y-60381347D01*
X219304762Y-60381347D02*
X219304762Y-60405157D01*
X219304762Y-60405157D02*
X219280952Y-60452776D01*
X219280952Y-60452776D02*
X219257143Y-60476585D01*
X219257143Y-60476585D02*
X219209524Y-60500395D01*
X219209524Y-60500395D02*
X219114286Y-60500395D01*
X219114286Y-60500395D02*
X219066667Y-60524204D01*
X219066667Y-60524204D02*
X219042857Y-60548014D01*
X219042857Y-60548014D02*
X219019048Y-60595633D01*
X219019048Y-60595633D02*
X219019048Y-60690871D01*
X219019048Y-60690871D02*
X219042857Y-60738490D01*
X219042857Y-60738490D02*
X219066667Y-60762300D01*
X219066667Y-60762300D02*
X219114286Y-60786109D01*
X219114286Y-60786109D02*
X219209524Y-60786109D01*
X219209524Y-60786109D02*
X219257143Y-60762300D01*
X219257143Y-60762300D02*
X219280952Y-60738490D01*
X219280952Y-60738490D02*
X219304762Y-60690871D01*
X219304762Y-60690871D02*
X219304762Y-60595633D01*
X219304762Y-60595633D02*
X219280952Y-60548014D01*
X219280952Y-60548014D02*
X219257143Y-60524204D01*
X219257143Y-60524204D02*
X219209524Y-60500395D01*
X164278490Y-91921428D02*
X164302300Y-91945237D01*
X164302300Y-91945237D02*
X164326109Y-92016666D01*
X164326109Y-92016666D02*
X164326109Y-92064285D01*
X164326109Y-92064285D02*
X164302300Y-92135713D01*
X164302300Y-92135713D02*
X164254680Y-92183332D01*
X164254680Y-92183332D02*
X164207061Y-92207142D01*
X164207061Y-92207142D02*
X164111823Y-92230951D01*
X164111823Y-92230951D02*
X164040395Y-92230951D01*
X164040395Y-92230951D02*
X163945157Y-92207142D01*
X163945157Y-92207142D02*
X163897538Y-92183332D01*
X163897538Y-92183332D02*
X163849919Y-92135713D01*
X163849919Y-92135713D02*
X163826109Y-92064285D01*
X163826109Y-92064285D02*
X163826109Y-92016666D01*
X163826109Y-92016666D02*
X163849919Y-91945237D01*
X163849919Y-91945237D02*
X163873728Y-91921428D01*
X164326109Y-91445237D02*
X164326109Y-91730951D01*
X164326109Y-91588094D02*
X163826109Y-91588094D01*
X163826109Y-91588094D02*
X163897538Y-91635713D01*
X163897538Y-91635713D02*
X163945157Y-91683332D01*
X163945157Y-91683332D02*
X163968966Y-91730951D01*
X163826109Y-91135714D02*
X163826109Y-91088095D01*
X163826109Y-91088095D02*
X163849919Y-91040476D01*
X163849919Y-91040476D02*
X163873728Y-91016666D01*
X163873728Y-91016666D02*
X163921347Y-90992857D01*
X163921347Y-90992857D02*
X164016585Y-90969047D01*
X164016585Y-90969047D02*
X164135633Y-90969047D01*
X164135633Y-90969047D02*
X164230871Y-90992857D01*
X164230871Y-90992857D02*
X164278490Y-91016666D01*
X164278490Y-91016666D02*
X164302300Y-91040476D01*
X164302300Y-91040476D02*
X164326109Y-91088095D01*
X164326109Y-91088095D02*
X164326109Y-91135714D01*
X164326109Y-91135714D02*
X164302300Y-91183333D01*
X164302300Y-91183333D02*
X164278490Y-91207142D01*
X164278490Y-91207142D02*
X164230871Y-91230952D01*
X164230871Y-91230952D02*
X164135633Y-91254761D01*
X164135633Y-91254761D02*
X164016585Y-91254761D01*
X164016585Y-91254761D02*
X163921347Y-91230952D01*
X163921347Y-91230952D02*
X163873728Y-91207142D01*
X163873728Y-91207142D02*
X163849919Y-91183333D01*
X163849919Y-91183333D02*
X163826109Y-91135714D01*
X171616666Y-89013609D02*
X171450000Y-88775514D01*
X171330952Y-89013609D02*
X171330952Y-88513609D01*
X171330952Y-88513609D02*
X171521428Y-88513609D01*
X171521428Y-88513609D02*
X171569047Y-88537419D01*
X171569047Y-88537419D02*
X171592857Y-88561228D01*
X171592857Y-88561228D02*
X171616666Y-88608847D01*
X171616666Y-88608847D02*
X171616666Y-88680276D01*
X171616666Y-88680276D02*
X171592857Y-88727895D01*
X171592857Y-88727895D02*
X171569047Y-88751704D01*
X171569047Y-88751704D02*
X171521428Y-88775514D01*
X171521428Y-88775514D02*
X171330952Y-88775514D01*
X171807143Y-88561228D02*
X171830952Y-88537419D01*
X171830952Y-88537419D02*
X171878571Y-88513609D01*
X171878571Y-88513609D02*
X171997619Y-88513609D01*
X171997619Y-88513609D02*
X172045238Y-88537419D01*
X172045238Y-88537419D02*
X172069047Y-88561228D01*
X172069047Y-88561228D02*
X172092857Y-88608847D01*
X172092857Y-88608847D02*
X172092857Y-88656466D01*
X172092857Y-88656466D02*
X172069047Y-88727895D01*
X172069047Y-88727895D02*
X171783333Y-89013609D01*
X171783333Y-89013609D02*
X172092857Y-89013609D01*
X230130952Y-69026109D02*
X230130952Y-68526109D01*
X230130952Y-68526109D02*
X230250000Y-68526109D01*
X230250000Y-68526109D02*
X230321428Y-68549919D01*
X230321428Y-68549919D02*
X230369047Y-68597538D01*
X230369047Y-68597538D02*
X230392857Y-68645157D01*
X230392857Y-68645157D02*
X230416666Y-68740395D01*
X230416666Y-68740395D02*
X230416666Y-68811823D01*
X230416666Y-68811823D02*
X230392857Y-68907061D01*
X230392857Y-68907061D02*
X230369047Y-68954680D01*
X230369047Y-68954680D02*
X230321428Y-69002300D01*
X230321428Y-69002300D02*
X230250000Y-69026109D01*
X230250000Y-69026109D02*
X230130952Y-69026109D01*
X230845238Y-68692776D02*
X230845238Y-69026109D01*
X230726190Y-68502300D02*
X230607143Y-68859442D01*
X230607143Y-68859442D02*
X230916666Y-68859442D01*
X157578490Y-104121428D02*
X157602300Y-104145237D01*
X157602300Y-104145237D02*
X157626109Y-104216666D01*
X157626109Y-104216666D02*
X157626109Y-104264285D01*
X157626109Y-104264285D02*
X157602300Y-104335713D01*
X157602300Y-104335713D02*
X157554680Y-104383332D01*
X157554680Y-104383332D02*
X157507061Y-104407142D01*
X157507061Y-104407142D02*
X157411823Y-104430951D01*
X157411823Y-104430951D02*
X157340395Y-104430951D01*
X157340395Y-104430951D02*
X157245157Y-104407142D01*
X157245157Y-104407142D02*
X157197538Y-104383332D01*
X157197538Y-104383332D02*
X157149919Y-104335713D01*
X157149919Y-104335713D02*
X157126109Y-104264285D01*
X157126109Y-104264285D02*
X157126109Y-104216666D01*
X157126109Y-104216666D02*
X157149919Y-104145237D01*
X157149919Y-104145237D02*
X157173728Y-104121428D01*
X157626109Y-103645237D02*
X157626109Y-103930951D01*
X157626109Y-103788094D02*
X157126109Y-103788094D01*
X157126109Y-103788094D02*
X157197538Y-103835713D01*
X157197538Y-103835713D02*
X157245157Y-103883332D01*
X157245157Y-103883332D02*
X157268966Y-103930951D01*
X157173728Y-103454761D02*
X157149919Y-103430952D01*
X157149919Y-103430952D02*
X157126109Y-103383333D01*
X157126109Y-103383333D02*
X157126109Y-103264285D01*
X157126109Y-103264285D02*
X157149919Y-103216666D01*
X157149919Y-103216666D02*
X157173728Y-103192857D01*
X157173728Y-103192857D02*
X157221347Y-103169047D01*
X157221347Y-103169047D02*
X157268966Y-103169047D01*
X157268966Y-103169047D02*
X157340395Y-103192857D01*
X157340395Y-103192857D02*
X157626109Y-103478571D01*
X157626109Y-103478571D02*
X157626109Y-103169047D01*
X162178490Y-75021428D02*
X162202300Y-75045237D01*
X162202300Y-75045237D02*
X162226109Y-75116666D01*
X162226109Y-75116666D02*
X162226109Y-75164285D01*
X162226109Y-75164285D02*
X162202300Y-75235713D01*
X162202300Y-75235713D02*
X162154680Y-75283332D01*
X162154680Y-75283332D02*
X162107061Y-75307142D01*
X162107061Y-75307142D02*
X162011823Y-75330951D01*
X162011823Y-75330951D02*
X161940395Y-75330951D01*
X161940395Y-75330951D02*
X161845157Y-75307142D01*
X161845157Y-75307142D02*
X161797538Y-75283332D01*
X161797538Y-75283332D02*
X161749919Y-75235713D01*
X161749919Y-75235713D02*
X161726109Y-75164285D01*
X161726109Y-75164285D02*
X161726109Y-75116666D01*
X161726109Y-75116666D02*
X161749919Y-75045237D01*
X161749919Y-75045237D02*
X161773728Y-75021428D01*
X162226109Y-74545237D02*
X162226109Y-74830951D01*
X162226109Y-74688094D02*
X161726109Y-74688094D01*
X161726109Y-74688094D02*
X161797538Y-74735713D01*
X161797538Y-74735713D02*
X161845157Y-74783332D01*
X161845157Y-74783332D02*
X161868966Y-74830951D01*
X161726109Y-74378571D02*
X161726109Y-74069047D01*
X161726109Y-74069047D02*
X161916585Y-74235714D01*
X161916585Y-74235714D02*
X161916585Y-74164285D01*
X161916585Y-74164285D02*
X161940395Y-74116666D01*
X161940395Y-74116666D02*
X161964204Y-74092857D01*
X161964204Y-74092857D02*
X162011823Y-74069047D01*
X162011823Y-74069047D02*
X162130871Y-74069047D01*
X162130871Y-74069047D02*
X162178490Y-74092857D01*
X162178490Y-74092857D02*
X162202300Y-74116666D01*
X162202300Y-74116666D02*
X162226109Y-74164285D01*
X162226109Y-74164285D02*
X162226109Y-74307142D01*
X162226109Y-74307142D02*
X162202300Y-74354761D01*
X162202300Y-74354761D02*
X162178490Y-74378571D01*
X163226109Y-61780952D02*
X163630871Y-61780952D01*
X163630871Y-61780952D02*
X163678490Y-61757142D01*
X163678490Y-61757142D02*
X163702300Y-61733333D01*
X163702300Y-61733333D02*
X163726109Y-61685714D01*
X163726109Y-61685714D02*
X163726109Y-61590476D01*
X163726109Y-61590476D02*
X163702300Y-61542857D01*
X163702300Y-61542857D02*
X163678490Y-61519047D01*
X163678490Y-61519047D02*
X163630871Y-61495238D01*
X163630871Y-61495238D02*
X163226109Y-61495238D01*
X163226109Y-61042856D02*
X163226109Y-61138094D01*
X163226109Y-61138094D02*
X163249919Y-61185713D01*
X163249919Y-61185713D02*
X163273728Y-61209523D01*
X163273728Y-61209523D02*
X163345157Y-61257142D01*
X163345157Y-61257142D02*
X163440395Y-61280951D01*
X163440395Y-61280951D02*
X163630871Y-61280951D01*
X163630871Y-61280951D02*
X163678490Y-61257142D01*
X163678490Y-61257142D02*
X163702300Y-61233332D01*
X163702300Y-61233332D02*
X163726109Y-61185713D01*
X163726109Y-61185713D02*
X163726109Y-61090475D01*
X163726109Y-61090475D02*
X163702300Y-61042856D01*
X163702300Y-61042856D02*
X163678490Y-61019047D01*
X163678490Y-61019047D02*
X163630871Y-60995237D01*
X163630871Y-60995237D02*
X163511823Y-60995237D01*
X163511823Y-60995237D02*
X163464204Y-61019047D01*
X163464204Y-61019047D02*
X163440395Y-61042856D01*
X163440395Y-61042856D02*
X163416585Y-61090475D01*
X163416585Y-61090475D02*
X163416585Y-61185713D01*
X163416585Y-61185713D02*
X163440395Y-61233332D01*
X163440395Y-61233332D02*
X163464204Y-61257142D01*
X163464204Y-61257142D02*
X163511823Y-61280951D01*
X155226109Y-69083333D02*
X154988014Y-69249999D01*
X155226109Y-69369047D02*
X154726109Y-69369047D01*
X154726109Y-69369047D02*
X154726109Y-69178571D01*
X154726109Y-69178571D02*
X154749919Y-69130952D01*
X154749919Y-69130952D02*
X154773728Y-69107142D01*
X154773728Y-69107142D02*
X154821347Y-69083333D01*
X154821347Y-69083333D02*
X154892776Y-69083333D01*
X154892776Y-69083333D02*
X154940395Y-69107142D01*
X154940395Y-69107142D02*
X154964204Y-69130952D01*
X154964204Y-69130952D02*
X154988014Y-69178571D01*
X154988014Y-69178571D02*
X154988014Y-69369047D01*
X155226109Y-68607142D02*
X155226109Y-68892856D01*
X155226109Y-68749999D02*
X154726109Y-68749999D01*
X154726109Y-68749999D02*
X154797538Y-68797618D01*
X154797538Y-68797618D02*
X154845157Y-68845237D01*
X154845157Y-68845237D02*
X154868966Y-68892856D01*
X169115990Y-101783333D02*
X169139800Y-101807142D01*
X169139800Y-101807142D02*
X169163609Y-101878571D01*
X169163609Y-101878571D02*
X169163609Y-101926190D01*
X169163609Y-101926190D02*
X169139800Y-101997618D01*
X169139800Y-101997618D02*
X169092180Y-102045237D01*
X169092180Y-102045237D02*
X169044561Y-102069047D01*
X169044561Y-102069047D02*
X168949323Y-102092856D01*
X168949323Y-102092856D02*
X168877895Y-102092856D01*
X168877895Y-102092856D02*
X168782657Y-102069047D01*
X168782657Y-102069047D02*
X168735038Y-102045237D01*
X168735038Y-102045237D02*
X168687419Y-101997618D01*
X168687419Y-101997618D02*
X168663609Y-101926190D01*
X168663609Y-101926190D02*
X168663609Y-101878571D01*
X168663609Y-101878571D02*
X168687419Y-101807142D01*
X168687419Y-101807142D02*
X168711228Y-101783333D01*
X168663609Y-101616666D02*
X168663609Y-101283333D01*
X168663609Y-101283333D02*
X169163609Y-101497618D01*
X155126109Y-59883333D02*
X154888014Y-60049999D01*
X155126109Y-60169047D02*
X154626109Y-60169047D01*
X154626109Y-60169047D02*
X154626109Y-59978571D01*
X154626109Y-59978571D02*
X154649919Y-59930952D01*
X154649919Y-59930952D02*
X154673728Y-59907142D01*
X154673728Y-59907142D02*
X154721347Y-59883333D01*
X154721347Y-59883333D02*
X154792776Y-59883333D01*
X154792776Y-59883333D02*
X154840395Y-59907142D01*
X154840395Y-59907142D02*
X154864204Y-59930952D01*
X154864204Y-59930952D02*
X154888014Y-59978571D01*
X154888014Y-59978571D02*
X154888014Y-60169047D01*
X154792776Y-59454761D02*
X155126109Y-59454761D01*
X154602300Y-59573809D02*
X154959442Y-59692856D01*
X154959442Y-59692856D02*
X154959442Y-59383333D01*
X171776109Y-72083333D02*
X171776109Y-72321428D01*
X171776109Y-72321428D02*
X171276109Y-72321428D01*
X171323728Y-71940475D02*
X171299919Y-71916666D01*
X171299919Y-71916666D02*
X171276109Y-71869047D01*
X171276109Y-71869047D02*
X171276109Y-71749999D01*
X171276109Y-71749999D02*
X171299919Y-71702380D01*
X171299919Y-71702380D02*
X171323728Y-71678571D01*
X171323728Y-71678571D02*
X171371347Y-71654761D01*
X171371347Y-71654761D02*
X171418966Y-71654761D01*
X171418966Y-71654761D02*
X171490395Y-71678571D01*
X171490395Y-71678571D02*
X171776109Y-71964285D01*
X171776109Y-71964285D02*
X171776109Y-71654761D01*
X153763926Y-127486409D02*
X153454632Y-127664980D01*
X153454632Y-127664980D02*
X153380868Y-127680075D01*
X153380868Y-127680075D02*
X153315819Y-127662645D01*
X153315819Y-127662645D02*
X153259485Y-127612691D01*
X153259485Y-127612691D02*
X153235676Y-127571452D01*
X153845779Y-127961515D02*
X153557104Y-128128182D01*
X153951213Y-127763179D02*
X153582394Y-127838652D01*
X153582394Y-127838652D02*
X153737156Y-128106708D01*
X233019047Y-66726109D02*
X233019047Y-67130871D01*
X233019047Y-67130871D02*
X233042857Y-67178490D01*
X233042857Y-67178490D02*
X233066666Y-67202300D01*
X233066666Y-67202300D02*
X233114285Y-67226109D01*
X233114285Y-67226109D02*
X233209523Y-67226109D01*
X233209523Y-67226109D02*
X233257142Y-67202300D01*
X233257142Y-67202300D02*
X233280952Y-67178490D01*
X233280952Y-67178490D02*
X233304761Y-67130871D01*
X233304761Y-67130871D02*
X233304761Y-66726109D01*
X233757143Y-66892776D02*
X233757143Y-67226109D01*
X233638095Y-66702300D02*
X233519048Y-67059442D01*
X233519048Y-67059442D02*
X233828571Y-67059442D01*
D13*
X236114700Y-80571428D02*
X236114700Y-79428571D01*
X236114700Y-67571428D02*
X236114700Y-66428571D01*
X236686128Y-66999999D02*
X235543271Y-66999999D01*
D12*
X157992608Y-38679470D02*
X157814036Y-38988765D01*
X157814036Y-38988765D02*
X157757702Y-39038719D01*
X157757702Y-39038719D02*
X157692653Y-39056149D01*
X157692653Y-39056149D02*
X157618890Y-39041054D01*
X157618890Y-39041054D02*
X157577650Y-39017245D01*
X158154375Y-38827852D02*
X158186899Y-38819137D01*
X158186899Y-38819137D02*
X158240043Y-38822327D01*
X158240043Y-38822327D02*
X158343141Y-38881851D01*
X158343141Y-38881851D02*
X158372476Y-38926280D01*
X158372476Y-38926280D02*
X158381191Y-38958805D01*
X158381191Y-38958805D02*
X158378001Y-39011949D01*
X158378001Y-39011949D02*
X158354191Y-39053188D01*
X158354191Y-39053188D02*
X158297857Y-39103142D01*
X158297857Y-39103142D02*
X157907564Y-39207721D01*
X157907564Y-39207721D02*
X158175620Y-39362483D01*
X220478571Y-63178490D02*
X220454762Y-63202300D01*
X220454762Y-63202300D02*
X220383333Y-63226109D01*
X220383333Y-63226109D02*
X220335714Y-63226109D01*
X220335714Y-63226109D02*
X220264286Y-63202300D01*
X220264286Y-63202300D02*
X220216667Y-63154680D01*
X220216667Y-63154680D02*
X220192857Y-63107061D01*
X220192857Y-63107061D02*
X220169048Y-63011823D01*
X220169048Y-63011823D02*
X220169048Y-62940395D01*
X220169048Y-62940395D02*
X220192857Y-62845157D01*
X220192857Y-62845157D02*
X220216667Y-62797538D01*
X220216667Y-62797538D02*
X220264286Y-62749919D01*
X220264286Y-62749919D02*
X220335714Y-62726109D01*
X220335714Y-62726109D02*
X220383333Y-62726109D01*
X220383333Y-62726109D02*
X220454762Y-62749919D01*
X220454762Y-62749919D02*
X220478571Y-62773728D01*
X220954762Y-63226109D02*
X220669048Y-63226109D01*
X220811905Y-63226109D02*
X220811905Y-62726109D01*
X220811905Y-62726109D02*
X220764286Y-62797538D01*
X220764286Y-62797538D02*
X220716667Y-62845157D01*
X220716667Y-62845157D02*
X220669048Y-62868966D01*
X221192857Y-63226109D02*
X221288095Y-63226109D01*
X221288095Y-63226109D02*
X221335714Y-63202300D01*
X221335714Y-63202300D02*
X221359523Y-63178490D01*
X221359523Y-63178490D02*
X221407142Y-63107061D01*
X221407142Y-63107061D02*
X221430952Y-63011823D01*
X221430952Y-63011823D02*
X221430952Y-62821347D01*
X221430952Y-62821347D02*
X221407142Y-62773728D01*
X221407142Y-62773728D02*
X221383333Y-62749919D01*
X221383333Y-62749919D02*
X221335714Y-62726109D01*
X221335714Y-62726109D02*
X221240476Y-62726109D01*
X221240476Y-62726109D02*
X221192857Y-62749919D01*
X221192857Y-62749919D02*
X221169047Y-62773728D01*
X221169047Y-62773728D02*
X221145238Y-62821347D01*
X221145238Y-62821347D02*
X221145238Y-62940395D01*
X221145238Y-62940395D02*
X221169047Y-62988014D01*
X221169047Y-62988014D02*
X221192857Y-63011823D01*
X221192857Y-63011823D02*
X221240476Y-63035633D01*
X221240476Y-63035633D02*
X221335714Y-63035633D01*
X221335714Y-63035633D02*
X221383333Y-63011823D01*
X221383333Y-63011823D02*
X221407142Y-62988014D01*
X221407142Y-62988014D02*
X221430952Y-62940395D01*
X156826109Y-98769047D02*
X156326109Y-98769047D01*
X156326109Y-98769047D02*
X156326109Y-98649999D01*
X156326109Y-98649999D02*
X156349919Y-98578571D01*
X156349919Y-98578571D02*
X156397538Y-98530952D01*
X156397538Y-98530952D02*
X156445157Y-98507142D01*
X156445157Y-98507142D02*
X156540395Y-98483333D01*
X156540395Y-98483333D02*
X156611823Y-98483333D01*
X156611823Y-98483333D02*
X156707061Y-98507142D01*
X156707061Y-98507142D02*
X156754680Y-98530952D01*
X156754680Y-98530952D02*
X156802300Y-98578571D01*
X156802300Y-98578571D02*
X156826109Y-98649999D01*
X156826109Y-98649999D02*
X156826109Y-98769047D01*
X156326109Y-98316666D02*
X156326109Y-98007142D01*
X156326109Y-98007142D02*
X156516585Y-98173809D01*
X156516585Y-98173809D02*
X156516585Y-98102380D01*
X156516585Y-98102380D02*
X156540395Y-98054761D01*
X156540395Y-98054761D02*
X156564204Y-98030952D01*
X156564204Y-98030952D02*
X156611823Y-98007142D01*
X156611823Y-98007142D02*
X156730871Y-98007142D01*
X156730871Y-98007142D02*
X156778490Y-98030952D01*
X156778490Y-98030952D02*
X156802300Y-98054761D01*
X156802300Y-98054761D02*
X156826109Y-98102380D01*
X156826109Y-98102380D02*
X156826109Y-98245237D01*
X156826109Y-98245237D02*
X156802300Y-98292856D01*
X156802300Y-98292856D02*
X156778490Y-98316666D01*
X156016666Y-65326109D02*
X155850000Y-65088014D01*
X155730952Y-65326109D02*
X155730952Y-64826109D01*
X155730952Y-64826109D02*
X155921428Y-64826109D01*
X155921428Y-64826109D02*
X155969047Y-64849919D01*
X155969047Y-64849919D02*
X155992857Y-64873728D01*
X155992857Y-64873728D02*
X156016666Y-64921347D01*
X156016666Y-64921347D02*
X156016666Y-64992776D01*
X156016666Y-64992776D02*
X155992857Y-65040395D01*
X155992857Y-65040395D02*
X155969047Y-65064204D01*
X155969047Y-65064204D02*
X155921428Y-65088014D01*
X155921428Y-65088014D02*
X155730952Y-65088014D01*
X156469047Y-64826109D02*
X156230952Y-64826109D01*
X156230952Y-64826109D02*
X156207143Y-65064204D01*
X156207143Y-65064204D02*
X156230952Y-65040395D01*
X156230952Y-65040395D02*
X156278571Y-65016585D01*
X156278571Y-65016585D02*
X156397619Y-65016585D01*
X156397619Y-65016585D02*
X156445238Y-65040395D01*
X156445238Y-65040395D02*
X156469047Y-65064204D01*
X156469047Y-65064204D02*
X156492857Y-65111823D01*
X156492857Y-65111823D02*
X156492857Y-65230871D01*
X156492857Y-65230871D02*
X156469047Y-65278490D01*
X156469047Y-65278490D02*
X156445238Y-65302300D01*
X156445238Y-65302300D02*
X156397619Y-65326109D01*
X156397619Y-65326109D02*
X156278571Y-65326109D01*
X156278571Y-65326109D02*
X156230952Y-65302300D01*
X156230952Y-65302300D02*
X156207143Y-65278490D01*
X165508490Y-64983333D02*
X165532300Y-65007142D01*
X165532300Y-65007142D02*
X165556109Y-65078571D01*
X165556109Y-65078571D02*
X165556109Y-65126190D01*
X165556109Y-65126190D02*
X165532300Y-65197618D01*
X165532300Y-65197618D02*
X165484680Y-65245237D01*
X165484680Y-65245237D02*
X165437061Y-65269047D01*
X165437061Y-65269047D02*
X165341823Y-65292856D01*
X165341823Y-65292856D02*
X165270395Y-65292856D01*
X165270395Y-65292856D02*
X165175157Y-65269047D01*
X165175157Y-65269047D02*
X165127538Y-65245237D01*
X165127538Y-65245237D02*
X165079919Y-65197618D01*
X165079919Y-65197618D02*
X165056109Y-65126190D01*
X165056109Y-65126190D02*
X165056109Y-65078571D01*
X165056109Y-65078571D02*
X165079919Y-65007142D01*
X165079919Y-65007142D02*
X165103728Y-64983333D01*
X165556109Y-64745237D02*
X165556109Y-64649999D01*
X165556109Y-64649999D02*
X165532300Y-64602380D01*
X165532300Y-64602380D02*
X165508490Y-64578571D01*
X165508490Y-64578571D02*
X165437061Y-64530952D01*
X165437061Y-64530952D02*
X165341823Y-64507142D01*
X165341823Y-64507142D02*
X165151347Y-64507142D01*
X165151347Y-64507142D02*
X165103728Y-64530952D01*
X165103728Y-64530952D02*
X165079919Y-64554761D01*
X165079919Y-64554761D02*
X165056109Y-64602380D01*
X165056109Y-64602380D02*
X165056109Y-64697618D01*
X165056109Y-64697618D02*
X165079919Y-64745237D01*
X165079919Y-64745237D02*
X165103728Y-64769047D01*
X165103728Y-64769047D02*
X165151347Y-64792856D01*
X165151347Y-64792856D02*
X165270395Y-64792856D01*
X165270395Y-64792856D02*
X165318014Y-64769047D01*
X165318014Y-64769047D02*
X165341823Y-64745237D01*
X165341823Y-64745237D02*
X165365633Y-64697618D01*
X165365633Y-64697618D02*
X165365633Y-64602380D01*
X165365633Y-64602380D02*
X165341823Y-64554761D01*
X165341823Y-64554761D02*
X165318014Y-64530952D01*
X165318014Y-64530952D02*
X165270395Y-64507142D01*
X222878571Y-69738490D02*
X222854762Y-69762300D01*
X222854762Y-69762300D02*
X222783333Y-69786109D01*
X222783333Y-69786109D02*
X222735714Y-69786109D01*
X222735714Y-69786109D02*
X222664286Y-69762300D01*
X222664286Y-69762300D02*
X222616667Y-69714680D01*
X222616667Y-69714680D02*
X222592857Y-69667061D01*
X222592857Y-69667061D02*
X222569048Y-69571823D01*
X222569048Y-69571823D02*
X222569048Y-69500395D01*
X222569048Y-69500395D02*
X222592857Y-69405157D01*
X222592857Y-69405157D02*
X222616667Y-69357538D01*
X222616667Y-69357538D02*
X222664286Y-69309919D01*
X222664286Y-69309919D02*
X222735714Y-69286109D01*
X222735714Y-69286109D02*
X222783333Y-69286109D01*
X222783333Y-69286109D02*
X222854762Y-69309919D01*
X222854762Y-69309919D02*
X222878571Y-69333728D01*
X223354762Y-69786109D02*
X223069048Y-69786109D01*
X223211905Y-69786109D02*
X223211905Y-69286109D01*
X223211905Y-69286109D02*
X223164286Y-69357538D01*
X223164286Y-69357538D02*
X223116667Y-69405157D01*
X223116667Y-69405157D02*
X223069048Y-69428966D01*
X223783333Y-69286109D02*
X223688095Y-69286109D01*
X223688095Y-69286109D02*
X223640476Y-69309919D01*
X223640476Y-69309919D02*
X223616666Y-69333728D01*
X223616666Y-69333728D02*
X223569047Y-69405157D01*
X223569047Y-69405157D02*
X223545238Y-69500395D01*
X223545238Y-69500395D02*
X223545238Y-69690871D01*
X223545238Y-69690871D02*
X223569047Y-69738490D01*
X223569047Y-69738490D02*
X223592857Y-69762300D01*
X223592857Y-69762300D02*
X223640476Y-69786109D01*
X223640476Y-69786109D02*
X223735714Y-69786109D01*
X223735714Y-69786109D02*
X223783333Y-69762300D01*
X223783333Y-69762300D02*
X223807142Y-69738490D01*
X223807142Y-69738490D02*
X223830952Y-69690871D01*
X223830952Y-69690871D02*
X223830952Y-69571823D01*
X223830952Y-69571823D02*
X223807142Y-69524204D01*
X223807142Y-69524204D02*
X223783333Y-69500395D01*
X223783333Y-69500395D02*
X223735714Y-69476585D01*
X223735714Y-69476585D02*
X223640476Y-69476585D01*
X223640476Y-69476585D02*
X223592857Y-69500395D01*
X223592857Y-69500395D02*
X223569047Y-69524204D01*
X223569047Y-69524204D02*
X223545238Y-69571823D01*
D13*
X148114700Y-80571428D02*
X148114700Y-79428571D01*
X148114700Y-67571428D02*
X148114700Y-66428571D01*
X148686128Y-66999999D02*
X147543271Y-66999999D01*
D14*
%TO.C,G\u002A\u002A\u002A*%
G36*
X205397516Y-89229808D02*
G01*
X205434618Y-89481436D01*
X205435999Y-89562666D01*
X205420770Y-89804153D01*
X205381831Y-89957431D01*
X205351333Y-89985999D01*
X205288910Y-89912879D01*
X205263621Y-89753166D01*
X205260576Y-89520333D01*
X205069941Y-89753166D01*
X204922686Y-89908476D01*
X204811198Y-89984476D01*
X204800999Y-89985999D01*
X204699852Y-89926258D01*
X204554363Y-89779783D01*
X204532058Y-89753166D01*
X204341422Y-89520333D01*
X204338377Y-89753166D01*
X204309578Y-89922199D01*
X204250666Y-89985999D01*
X204199893Y-89910386D01*
X204169672Y-89719340D01*
X204165999Y-89609996D01*
X204186525Y-89312508D01*
X204251589Y-89172160D01*
X204366422Y-89188834D01*
X204536254Y-89362412D01*
X204704442Y-89597864D01*
X204778350Y-89687595D01*
X204846342Y-89675252D01*
X204945987Y-89542253D01*
X205003994Y-89449697D01*
X205179700Y-89213284D01*
X205311708Y-89140206D01*
X205397516Y-89229808D01*
G37*
G36*
X206584457Y-89207303D02*
G01*
X206744372Y-89384033D01*
X206867288Y-89562666D01*
X207007351Y-89807636D01*
X207052554Y-89940807D01*
X207010126Y-89985477D01*
X206998694Y-89985999D01*
X206877254Y-89918643D01*
X206733687Y-89750881D01*
X206694781Y-89689666D01*
X206572409Y-89503788D01*
X206479871Y-89400703D01*
X206462890Y-89393333D01*
X206390554Y-89460625D01*
X206280570Y-89628248D01*
X206246254Y-89689666D01*
X206118389Y-89878423D01*
X205998386Y-89980242D01*
X205973000Y-89985999D01*
X205868883Y-89962674D01*
X205859333Y-89947117D01*
X205908086Y-89811294D01*
X206029300Y-89612757D01*
X206185407Y-89401589D01*
X206338837Y-89227871D01*
X206452022Y-89141685D01*
X206465287Y-89139333D01*
X206584457Y-89207303D01*
G37*
G36*
X208324093Y-89145407D02*
G01*
X208501226Y-89172415D01*
X208595714Y-89233536D01*
X208646310Y-89329833D01*
X208671530Y-89534567D01*
X208634110Y-89625088D01*
X208585860Y-89789632D01*
X208598870Y-89857921D01*
X208586468Y-89967780D01*
X208521018Y-89985999D01*
X208382143Y-89917546D01*
X208345284Y-89858999D01*
X208224177Y-89763090D01*
X208009274Y-89731999D01*
X207793714Y-89761367D01*
X207722093Y-89854102D01*
X207721999Y-89858999D01*
X207654226Y-89971248D01*
X207594999Y-89985999D01*
X207482562Y-89926954D01*
X207467999Y-89875933D01*
X207543400Y-89694763D01*
X207769109Y-89590515D01*
X208077599Y-89562666D01*
X208313475Y-89546839D01*
X208460107Y-89506534D01*
X208483999Y-89477999D01*
X208475795Y-89421795D01*
X208424644Y-89388746D01*
X208290743Y-89368665D01*
X208034287Y-89351365D01*
X207975999Y-89347988D01*
X207694961Y-89330758D01*
X207543158Y-89313989D01*
X207480795Y-89287969D01*
X207468081Y-89242984D01*
X207467999Y-89223999D01*
X207545795Y-89179809D01*
X207752046Y-89149536D01*
X208021061Y-89139333D01*
X208324093Y-89145407D01*
G37*
G36*
X210189451Y-89208755D02*
G01*
X210052876Y-89345876D01*
X210050333Y-89347961D01*
X209796333Y-89555749D01*
X210050333Y-89767829D01*
X210204041Y-89903570D01*
X210234256Y-89965141D01*
X210151188Y-89982280D01*
X210124199Y-89982954D01*
X209927936Y-89929122D01*
X209838666Y-89858999D01*
X209670020Y-89750254D01*
X209571642Y-89731999D01*
X209413302Y-89790471D01*
X209361284Y-89858999D01*
X209284229Y-89982687D01*
X209218134Y-89953082D01*
X209173824Y-89786227D01*
X209161333Y-89562666D01*
X209179991Y-89311771D01*
X209225268Y-89166185D01*
X209281118Y-89144116D01*
X209331496Y-89263769D01*
X209346209Y-89352891D01*
X209372999Y-89566450D01*
X209686007Y-89352891D01*
X209920381Y-89213626D01*
X210098729Y-89142961D01*
X210196578Y-89141227D01*
X210189451Y-89208755D01*
G37*
G36*
X211698052Y-89151475D02*
G01*
X211892092Y-89183553D01*
X211955333Y-89223999D01*
X211948734Y-89277779D01*
X211902882Y-89308461D01*
X211778694Y-89324397D01*
X211537085Y-89333938D01*
X211426166Y-89337072D01*
X211151161Y-89359569D01*
X211036840Y-89398196D01*
X211077154Y-89439527D01*
X211266054Y-89470137D01*
X211489666Y-89477999D01*
X211744681Y-89491918D01*
X211913822Y-89527822D01*
X211955333Y-89562666D01*
X211878781Y-89609032D01*
X211681308Y-89639785D01*
X211489666Y-89647333D01*
X211234651Y-89661251D01*
X211065509Y-89697155D01*
X211023999Y-89731999D01*
X211100551Y-89778366D01*
X211298024Y-89809119D01*
X211489666Y-89816666D01*
X211744681Y-89830584D01*
X211913822Y-89866488D01*
X211955333Y-89901333D01*
X211879716Y-89941776D01*
X211688351Y-89969906D01*
X211434467Y-89984392D01*
X211171293Y-89983902D01*
X210952057Y-89967107D01*
X210829989Y-89932675D01*
X210826444Y-89929555D01*
X210782495Y-89799176D01*
X210772421Y-89582673D01*
X210796836Y-89359960D01*
X210821391Y-89273257D01*
X210894540Y-89195666D01*
X211061804Y-89153696D01*
X211357730Y-89139540D01*
X211414058Y-89139333D01*
X211698052Y-89151475D01*
G37*
G36*
X213358903Y-89147055D02*
G01*
X213556790Y-89172681D01*
X213628711Y-89219901D01*
X213627167Y-89245166D01*
X213525893Y-89315470D01*
X213366112Y-89323773D01*
X213222631Y-89320231D01*
X213158014Y-89385550D01*
X213141098Y-89563616D01*
X213140666Y-89641273D01*
X213120427Y-89879033D01*
X213053050Y-89978696D01*
X213013666Y-89985999D01*
X212919734Y-89921740D01*
X212886895Y-89716655D01*
X212886666Y-89689666D01*
X212859065Y-89478890D01*
X212787652Y-89381769D01*
X212780833Y-89380437D01*
X212596982Y-89362190D01*
X212554935Y-89358911D01*
X212423552Y-89287339D01*
X212399713Y-89244807D01*
X212428875Y-89188196D01*
X212576628Y-89154600D01*
X212864048Y-89140397D01*
X213013666Y-89139333D01*
X213358903Y-89147055D01*
G37*
G36*
X210659831Y-85448520D02*
G01*
X210843237Y-85561959D01*
X210895909Y-85646833D01*
X210968392Y-85758607D01*
X211091626Y-85816071D01*
X211314593Y-85836206D01*
X211446243Y-85837615D01*
X211697411Y-85841295D01*
X212074269Y-85851233D01*
X212533342Y-85866085D01*
X213031157Y-85884509D01*
X213246499Y-85893203D01*
X213786063Y-85911988D01*
X214172888Y-85916466D01*
X214423009Y-85906125D01*
X214552458Y-85880452D01*
X214579999Y-85850588D01*
X214503466Y-85785163D01*
X214303910Y-85753700D01*
X214251916Y-85752666D01*
X213945273Y-85734934D01*
X213651050Y-85691977D01*
X213638083Y-85689166D01*
X213526113Y-85656854D01*
X213535349Y-85631771D01*
X213680915Y-85610004D01*
X213977935Y-85587644D01*
X214047358Y-85583333D01*
X214422244Y-85567622D01*
X214810136Y-85563302D01*
X215184481Y-85568890D01*
X215518725Y-85582907D01*
X215786315Y-85603872D01*
X215960696Y-85630304D01*
X216015317Y-85660722D01*
X215945249Y-85689166D01*
X215668832Y-85730565D01*
X215350342Y-85751889D01*
X215289083Y-85752666D01*
X215048281Y-85773215D01*
X214929087Y-85824298D01*
X214947938Y-85890067D01*
X215087999Y-85946531D01*
X215239409Y-86014528D01*
X215234890Y-86088519D01*
X215086911Y-86156712D01*
X214812833Y-86206766D01*
X214579882Y-86226636D01*
X214216174Y-86249838D01*
X213760197Y-86274268D01*
X213250439Y-86297821D01*
X212861400Y-86313443D01*
X211354468Y-86369843D01*
X211559888Y-86590421D01*
X211802100Y-86900710D01*
X211923696Y-87210575D01*
X211955333Y-87571638D01*
X211878576Y-88033663D01*
X211665892Y-88444876D01*
X211343657Y-88769135D01*
X210938250Y-88970299D01*
X210933518Y-88971667D01*
X210607473Y-89042076D01*
X210337698Y-89028921D01*
X210043154Y-88923599D01*
X209920789Y-88864166D01*
X209535297Y-88587273D01*
X209267103Y-88225369D01*
X209122535Y-87811695D01*
X209108948Y-87409825D01*
X209343085Y-87409825D01*
X209358334Y-87765600D01*
X209471675Y-88104118D01*
X209670730Y-88400387D01*
X209943121Y-88629415D01*
X210276469Y-88766209D01*
X210658394Y-88785778D01*
X211076519Y-88663129D01*
X211084699Y-88659275D01*
X211425074Y-88411156D01*
X211649401Y-88065626D01*
X211743654Y-87660422D01*
X211693803Y-87233286D01*
X211655565Y-87123440D01*
X211427634Y-86757503D01*
X211102000Y-86502712D01*
X210715641Y-86373324D01*
X210305535Y-86383595D01*
X210009687Y-86488880D01*
X209656383Y-86746473D01*
X209438309Y-87061786D01*
X209343085Y-87409825D01*
X209108948Y-87409825D01*
X209107922Y-87379490D01*
X209229593Y-86961996D01*
X209489174Y-86597132D01*
X209717072Y-86369234D01*
X208232702Y-86313231D01*
X207707044Y-86291471D01*
X207202321Y-86267097D01*
X206758774Y-86242306D01*
X206416643Y-86219292D01*
X206261499Y-86205677D01*
X205967393Y-86156690D01*
X205804740Y-86091631D01*
X205785573Y-86020321D01*
X205921924Y-85952580D01*
X205943999Y-85946531D01*
X206095668Y-85881237D01*
X206093854Y-85816459D01*
X205953916Y-85765643D01*
X205711166Y-85742649D01*
X205405971Y-85723364D01*
X205126604Y-85687159D01*
X205054999Y-85672678D01*
X205001759Y-85642364D01*
X205090766Y-85615201D01*
X205294945Y-85592406D01*
X205587223Y-85575193D01*
X205940524Y-85564779D01*
X206327774Y-85562379D01*
X206721897Y-85569209D01*
X207044666Y-85583333D01*
X207378091Y-85605045D01*
X207557446Y-85624075D01*
X207597853Y-85644587D01*
X207514435Y-85670745D01*
X207425666Y-85688234D01*
X207109406Y-85731105D01*
X206793983Y-85751493D01*
X206769499Y-85751734D01*
X206563350Y-85774689D01*
X206456589Y-85830896D01*
X206451999Y-85847191D01*
X206531540Y-85873216D01*
X206750306Y-85889669D01*
X207078509Y-85897419D01*
X207486362Y-85897333D01*
X207944079Y-85890279D01*
X208421873Y-85877125D01*
X208889956Y-85858738D01*
X209318542Y-85835988D01*
X209677844Y-85809740D01*
X209938075Y-85780864D01*
X210069448Y-85750227D01*
X210079059Y-85741521D01*
X210222771Y-85544673D01*
X210434686Y-85444882D01*
X210659831Y-85448520D01*
G37*
G36*
X205440162Y-86759803D02*
G01*
X205582012Y-86921447D01*
X205657250Y-87084362D01*
X205686265Y-87311385D01*
X205689999Y-87529719D01*
X205659001Y-87971652D01*
X205558890Y-88286642D01*
X205378996Y-88506677D01*
X205358669Y-88522806D01*
X205219480Y-88567720D01*
X204958052Y-88601238D01*
X204610791Y-88623399D01*
X204214098Y-88634242D01*
X203804379Y-88633805D01*
X203418037Y-88622126D01*
X203091475Y-88599245D01*
X202861097Y-88565199D01*
X202763318Y-88520058D01*
X202748019Y-88393689D01*
X202739757Y-88138051D01*
X202739735Y-88123333D01*
X203234666Y-88123333D01*
X204208333Y-88123333D01*
X205181999Y-88123333D01*
X205181999Y-87572999D01*
X205181999Y-87022666D01*
X204208333Y-87022666D01*
X203234666Y-87022666D01*
X203234666Y-87572999D01*
X203234666Y-88123333D01*
X202739735Y-88123333D01*
X202739244Y-87793091D01*
X202743192Y-87572999D01*
X202744809Y-87482891D01*
X202768999Y-86556999D01*
X203979662Y-86533482D01*
X205190325Y-86509966D01*
X205440162Y-86759803D01*
G37*
G36*
X208572829Y-86759803D02*
G01*
X208776560Y-87057099D01*
X208812045Y-87367392D01*
X208678884Y-87681450D01*
X208616266Y-87762966D01*
X208409867Y-88008257D01*
X208573375Y-88256295D01*
X208701160Y-88470749D01*
X208716690Y-88583787D01*
X208613126Y-88626510D01*
X208490905Y-88631333D01*
X208293539Y-88590900D01*
X208133601Y-88443469D01*
X208060666Y-88334999D01*
X207877522Y-88038666D01*
X207122427Y-88038666D01*
X206367333Y-88038666D01*
X206367333Y-88334999D01*
X206351255Y-88535659D01*
X206280003Y-88617754D01*
X206160663Y-88631333D01*
X205981781Y-88600670D01*
X205902556Y-88548106D01*
X205872544Y-88366130D01*
X205923874Y-88117830D01*
X206034633Y-87871093D01*
X206176785Y-87698513D01*
X206293087Y-87623884D01*
X206439227Y-87574922D01*
X206651153Y-87546493D01*
X206964812Y-87533465D01*
X207352417Y-87530666D01*
X208314666Y-87530666D01*
X208314666Y-87278990D01*
X208314666Y-87027315D01*
X207108166Y-87003824D01*
X205901666Y-86980333D01*
X205901666Y-86768666D01*
X205901666Y-86556999D01*
X207112329Y-86533482D01*
X208322991Y-86509966D01*
X208572829Y-86759803D01*
G37*
G36*
X215087999Y-87427253D02*
G01*
X215084115Y-87847932D01*
X215069199Y-88133047D01*
X215038352Y-88316254D01*
X214986675Y-88431211D01*
X214933166Y-88491210D01*
X214778180Y-88600070D01*
X214685099Y-88631333D01*
X214588599Y-88581190D01*
X214386684Y-88443362D01*
X214105520Y-88236748D01*
X213771273Y-87980244D01*
X213633432Y-87871761D01*
X212674999Y-87112189D01*
X212650655Y-87871761D01*
X212637131Y-88231816D01*
X212618050Y-88455197D01*
X212583421Y-88574507D01*
X212523249Y-88622347D01*
X212427540Y-88631317D01*
X212417822Y-88631333D01*
X212209333Y-88631333D01*
X212209333Y-87655851D01*
X212210795Y-87236743D01*
X212219272Y-86955293D01*
X212240899Y-86779825D01*
X212281811Y-86678666D01*
X212348144Y-86620141D01*
X212416574Y-86585943D01*
X212507926Y-86556803D01*
X212607983Y-86565434D01*
X212741115Y-86625885D01*
X212931693Y-86752207D01*
X213204090Y-86958452D01*
X213580741Y-87257123D01*
X214537666Y-88022727D01*
X214579999Y-87289863D01*
X214602410Y-86937424D01*
X214628124Y-86719687D01*
X214669595Y-86602267D01*
X214739279Y-86550782D01*
X214849630Y-86530848D01*
X214855166Y-86530209D01*
X215087999Y-86503418D01*
X215087999Y-87427253D01*
G37*
G36*
X210939728Y-86699518D02*
G01*
X211231039Y-86894364D01*
X211440234Y-87176243D01*
X211530830Y-87527702D01*
X211531999Y-87574361D01*
X211501160Y-87800446D01*
X211425466Y-87986747D01*
X211330149Y-88083771D01*
X211274721Y-88078973D01*
X211229533Y-88095421D01*
X211242323Y-88152484D01*
X211231226Y-88308097D01*
X211092798Y-88428032D01*
X210866511Y-88505769D01*
X210591837Y-88534792D01*
X210308249Y-88508580D01*
X210055218Y-88420617D01*
X210053756Y-88419666D01*
X210431333Y-88419666D01*
X210473666Y-88461999D01*
X210515999Y-88419666D01*
X210473666Y-88377333D01*
X210431333Y-88419666D01*
X210053756Y-88419666D01*
X209966824Y-88363117D01*
X209865578Y-88250333D01*
X210515999Y-88250333D01*
X210558333Y-88292666D01*
X210600666Y-88250333D01*
X210558333Y-88207999D01*
X210515999Y-88250333D01*
X209865578Y-88250333D01*
X209687330Y-88051771D01*
X209560327Y-87697921D01*
X209573406Y-87514773D01*
X210071300Y-87514773D01*
X210134652Y-87651916D01*
X210157286Y-87692394D01*
X210327348Y-87885765D01*
X210527672Y-87974201D01*
X210710275Y-87946434D01*
X210742865Y-87911666D01*
X211108666Y-87911666D01*
X211150999Y-87953999D01*
X211193333Y-87911666D01*
X211150999Y-87869333D01*
X211108666Y-87911666D01*
X210742865Y-87911666D01*
X210805664Y-87844671D01*
X210910211Y-87737024D01*
X210981353Y-87730497D01*
X211019360Y-87694718D01*
X210966145Y-87532547D01*
X210945689Y-87488222D01*
X210783740Y-87269753D01*
X210584634Y-87162038D01*
X210391496Y-87174778D01*
X210247449Y-87317675D01*
X210241655Y-87329839D01*
X210151687Y-87460853D01*
X210081944Y-87481706D01*
X210071300Y-87514773D01*
X209573406Y-87514773D01*
X209586398Y-87332832D01*
X209593603Y-87318999D01*
X209923333Y-87318999D01*
X209965666Y-87361333D01*
X210007999Y-87318999D01*
X209965666Y-87276666D01*
X209923333Y-87318999D01*
X209593603Y-87318999D01*
X209681801Y-87149666D01*
X209838666Y-87149666D01*
X209880999Y-87191999D01*
X209923333Y-87149666D01*
X209880999Y-87107333D01*
X209838666Y-87149666D01*
X209681801Y-87149666D01*
X209766126Y-86987770D01*
X209773383Y-86980333D01*
X210431333Y-86980333D01*
X210473666Y-87022666D01*
X210515999Y-86980333D01*
X210473666Y-86937999D01*
X210431333Y-86980333D01*
X209773383Y-86980333D01*
X209937917Y-86811719D01*
X209939259Y-86810999D01*
X210515999Y-86810999D01*
X210558333Y-86853333D01*
X210600666Y-86810999D01*
X210558333Y-86768666D01*
X210515999Y-86810999D01*
X209939259Y-86810999D01*
X210256684Y-86640742D01*
X210602782Y-86609159D01*
X210939728Y-86699518D01*
G37*
G36*
X193406597Y-60417493D02*
G01*
X193465796Y-60448734D01*
X193496394Y-60481102D01*
X193555624Y-60551401D01*
X193639965Y-60655187D01*
X193745894Y-60788014D01*
X193869890Y-60945438D01*
X194008431Y-61123014D01*
X194157994Y-61316299D01*
X194305650Y-61508553D01*
X194470607Y-61724096D01*
X194634298Y-61937969D01*
X194792099Y-62144130D01*
X194939384Y-62336539D01*
X195071529Y-62509153D01*
X195183909Y-62655932D01*
X195271899Y-62770832D01*
X195317344Y-62830157D01*
X195427430Y-62974051D01*
X195555100Y-63141272D01*
X195685810Y-63312752D01*
X195805014Y-63469421D01*
X195824507Y-63495079D01*
X195927159Y-63630074D01*
X196031644Y-63767211D01*
X196127980Y-63893407D01*
X196206185Y-63995576D01*
X196230332Y-64027016D01*
X196342226Y-64172673D01*
X196468135Y-64336890D01*
X196602941Y-64512964D01*
X196741527Y-64694191D01*
X196878775Y-64873868D01*
X197009568Y-65045291D01*
X197128788Y-65201756D01*
X197231318Y-65336562D01*
X197312040Y-65443003D01*
X197365838Y-65514376D01*
X197368281Y-65517643D01*
X197453255Y-65646510D01*
X197496662Y-65754844D01*
X197500602Y-65852488D01*
X197467176Y-65949286D01*
X197462326Y-65958441D01*
X197442107Y-65993516D01*
X197419781Y-66022914D01*
X197390756Y-66047135D01*
X197350441Y-66066681D01*
X197294245Y-66082053D01*
X197217577Y-66093751D01*
X197115847Y-66102277D01*
X196984462Y-66108133D01*
X196818832Y-66111819D01*
X196614366Y-66113836D01*
X196366474Y-66114685D01*
X196070563Y-66114868D01*
X196029209Y-66114869D01*
X194816825Y-66114869D01*
X194809773Y-69459424D01*
X194808705Y-69951287D01*
X194807654Y-70392739D01*
X194806577Y-70786563D01*
X194805429Y-71135540D01*
X194804167Y-71442454D01*
X194802747Y-71710088D01*
X194801124Y-71941224D01*
X194799255Y-72138644D01*
X194797096Y-72305132D01*
X194794602Y-72443469D01*
X194791730Y-72556439D01*
X194788436Y-72646824D01*
X194784676Y-72717406D01*
X194780405Y-72770969D01*
X194775580Y-72810295D01*
X194770157Y-72838166D01*
X194764091Y-72857366D01*
X194757340Y-72870676D01*
X194755805Y-72873022D01*
X194699044Y-72934102D01*
X194641517Y-72972760D01*
X194604978Y-72980653D01*
X194531274Y-72987276D01*
X194418002Y-72992683D01*
X194262757Y-72996929D01*
X194063137Y-73000070D01*
X193816736Y-73002160D01*
X193521151Y-73003253D01*
X193296203Y-73003456D01*
X192998500Y-73003294D01*
X192749396Y-73002713D01*
X192544296Y-73001565D01*
X192378606Y-72999704D01*
X192247731Y-72996984D01*
X192147077Y-72993259D01*
X192072049Y-72988382D01*
X192018053Y-72982208D01*
X191980494Y-72974590D01*
X191954779Y-72965381D01*
X191945477Y-72960462D01*
X191923950Y-72948838D01*
X191904611Y-72938898D01*
X191887337Y-72927884D01*
X191872006Y-72913035D01*
X191858496Y-72891592D01*
X191846685Y-72860796D01*
X191836449Y-72817887D01*
X191827667Y-72760106D01*
X191820216Y-72684694D01*
X191813974Y-72588890D01*
X191808818Y-72469935D01*
X191804627Y-72325070D01*
X191801277Y-72151535D01*
X191798647Y-71946571D01*
X191796614Y-71707419D01*
X191795055Y-71431318D01*
X191793849Y-71115510D01*
X191792873Y-70757234D01*
X191792004Y-70353732D01*
X191791120Y-69902243D01*
X191790226Y-69459424D01*
X191783175Y-66114869D01*
X190570790Y-66114869D01*
X190268177Y-66114741D01*
X190014177Y-66114013D01*
X189804208Y-66112167D01*
X189633690Y-66108686D01*
X189498041Y-66103054D01*
X189392680Y-66094754D01*
X189313027Y-66083269D01*
X189254499Y-66068082D01*
X189212517Y-66048676D01*
X189182499Y-66024533D01*
X189159863Y-65995139D01*
X189140030Y-65959974D01*
X189136420Y-65953023D01*
X189100288Y-65853187D01*
X189101447Y-65755580D01*
X189142121Y-65649580D01*
X189224536Y-65524565D01*
X189226832Y-65521525D01*
X189349706Y-65359495D01*
X189493399Y-65170544D01*
X189655534Y-64957770D01*
X189833730Y-64724271D01*
X190025607Y-64473145D01*
X190228785Y-64207490D01*
X190440886Y-63930405D01*
X190659530Y-63644986D01*
X190882336Y-63354332D01*
X191106926Y-63061542D01*
X191330919Y-62769713D01*
X191551937Y-62481942D01*
X191767599Y-62201329D01*
X191975525Y-61930971D01*
X192173337Y-61673965D01*
X192358655Y-61433411D01*
X192529098Y-61212406D01*
X192682288Y-61014048D01*
X192815845Y-60841435D01*
X192927388Y-60697665D01*
X193014540Y-60585836D01*
X193074919Y-60509046D01*
X193106146Y-60470394D01*
X193109642Y-60466541D01*
X193196911Y-60418500D01*
X193303251Y-60401782D01*
X193406597Y-60417493D01*
G37*
D15*
%TO.C,J3*%
X233719005Y-120394392D02*
X226530995Y-116244392D01*
X227294005Y-131522819D02*
X233719005Y-120394392D01*
X226530995Y-116244392D02*
X220105995Y-127372819D01*
X223617339Y-132690991D02*
X227294005Y-131522819D01*
X220889359Y-131115991D02*
X223617339Y-132690991D01*
X220105995Y-127372819D02*
X220889359Y-131115991D01*
%TO.C,R6*%
X228622500Y-100645276D02*
X228622500Y-101154724D01*
X227577500Y-100645276D02*
X227577500Y-101154724D01*
%TO.C,D5*%
X232550000Y-101510000D02*
X232550000Y-96000000D01*
X229250000Y-101510000D02*
X232550000Y-101510000D01*
X229250000Y-101510000D02*
X229250000Y-96000000D01*
%TO.C,L4*%
X221300000Y-99500000D02*
X219000000Y-99500000D01*
X221300000Y-92100000D02*
X221300000Y-99500000D01*
X219000000Y-92100000D02*
X221300000Y-92100000D01*
X216200000Y-99500000D02*
X213900000Y-99500000D01*
X213900000Y-99500000D02*
X213900000Y-92100000D01*
X213900000Y-92100000D02*
X216200000Y-92100000D01*
%TO.C,C23*%
X228960000Y-93990000D02*
X228960000Y-85750000D01*
X224440000Y-93990000D02*
X228960000Y-93990000D01*
X224440000Y-85750000D02*
X224440000Y-93990000D01*
%TO.C,R9*%
X229322500Y-106357776D02*
X229322500Y-106867224D01*
X228277500Y-106357776D02*
X228277500Y-106867224D01*
%TO.C,C22*%
X220910000Y-102846267D02*
X220910000Y-102553733D01*
X219890000Y-102846267D02*
X219890000Y-102553733D01*
%TO.C,C15*%
X224353733Y-100010000D02*
X224646267Y-100010000D01*
X224353733Y-98990000D02*
X224646267Y-98990000D01*
%TO.C,C18*%
X224353733Y-96610000D02*
X224646267Y-96610000D01*
X224353733Y-95590000D02*
X224646267Y-95590000D01*
%TO.C,C17*%
X224353733Y-98310000D02*
X224646267Y-98310000D01*
X224353733Y-97290000D02*
X224646267Y-97290000D01*
%TO.C,D7*%
X219250000Y-100390000D02*
X219250000Y-105900000D01*
X219250000Y-100390000D02*
X215950000Y-100390000D01*
X215950000Y-100390000D02*
X215950000Y-105900000D01*
%TO.C,RV1*%
X229475000Y-108780000D02*
X229475000Y-113830000D01*
X219725000Y-113830000D02*
X229475000Y-113830000D01*
X219725000Y-108780000D02*
X229475000Y-108780000D01*
X219725000Y-108780000D02*
X219725000Y-113830000D01*
%TO.C,U9*%
X221800000Y-107000000D02*
X221470000Y-107240000D01*
X221470000Y-106760000D01*
X221800000Y-107000000D01*
G36*
X221800000Y-107000000D02*
G01*
X221470000Y-107240000D01*
X221470000Y-106760000D01*
X221800000Y-107000000D01*
G37*
D13*
X226875000Y-106575000D02*
X226875000Y-102425000D01*
X221725000Y-106575000D02*
X221725000Y-102425000D01*
D15*
%TO.C,C26*%
X231410000Y-91883767D02*
X231410000Y-91591233D01*
X230390000Y-91883767D02*
X230390000Y-91591233D01*
%TO.C,U5*%
X233790000Y-93390000D02*
X239210000Y-93390000D01*
X233790000Y-102110000D02*
X233790000Y-93390000D01*
X235090000Y-103810000D02*
X233790000Y-102110000D01*
X235090000Y-103810000D02*
X237910000Y-103810000D01*
X237910000Y-103810000D02*
X239210000Y-102110000D01*
X239210000Y-102110000D02*
X239210000Y-93390000D01*
%TO.C,C27*%
X191340000Y-112117500D02*
X191340000Y-120357500D01*
X195860000Y-112117500D02*
X191340000Y-112117500D01*
X195860000Y-120357500D02*
X195860000Y-112117500D01*
%TO.C,J1*%
X219243495Y-44394392D02*
X225668494Y-55522819D01*
X225668494Y-55522819D02*
X229301859Y-56715991D01*
X226431505Y-40244392D02*
X219243495Y-44394392D01*
X229301859Y-56715991D02*
X232029840Y-55140990D01*
X232029840Y-55140990D02*
X232856506Y-51372818D01*
X232856506Y-51372818D02*
X226431505Y-40244392D01*
%TO.C,L3*%
X212300000Y-67860000D02*
X219700000Y-67860000D01*
X212300000Y-70160000D02*
X212300000Y-67860000D01*
X212300000Y-75260000D02*
X212300000Y-72960000D01*
X219700000Y-67860000D02*
X219700000Y-70160000D01*
X219700000Y-72960000D02*
X219700000Y-75260000D01*
X219700000Y-75260000D02*
X212300000Y-75260000D01*
%TO.C,R8*%
X213745276Y-59937500D02*
X214254724Y-59937500D01*
X213745276Y-60982500D02*
X214254724Y-60982500D01*
%TO.C,C3*%
X159946267Y-69090000D02*
X159653733Y-69090000D01*
X159946267Y-70110000D02*
X159653733Y-70110000D01*
%TO.C,C20*%
X207883767Y-62990000D02*
X207591233Y-62990000D01*
X207883767Y-64010000D02*
X207591233Y-64010000D01*
%TO.C,C24*%
X222290000Y-73771252D02*
X222290000Y-72348748D01*
X224110000Y-73771252D02*
X224110000Y-72348748D01*
%TO.C,R7*%
X209845276Y-59977500D02*
X210354724Y-59977500D01*
X209845276Y-61022500D02*
X210354724Y-61022500D01*
%TO.C,D8*%
X186150000Y-112190000D02*
X186150000Y-117700000D01*
X189450000Y-112190000D02*
X186150000Y-112190000D01*
X189450000Y-112190000D02*
X189450000Y-117700000D01*
%TO.C,L1*%
X157000000Y-93200000D02*
X159300000Y-93200000D01*
X157000000Y-100600000D02*
X157000000Y-93200000D01*
X159300000Y-100600000D02*
X157000000Y-100600000D01*
X162100000Y-93200000D02*
X164400000Y-93200000D01*
X164400000Y-93200000D02*
X164400000Y-100600000D01*
X164400000Y-100600000D02*
X162100000Y-100600000D01*
D13*
%TO.C,U7*%
X165375000Y-98925000D02*
X165375000Y-94775000D01*
X170525000Y-98925000D02*
X170525000Y-94775000D01*
D15*
X165475000Y-99525000D02*
X165145000Y-99765000D01*
X165145000Y-99285000D01*
X165475000Y-99525000D01*
G36*
X165475000Y-99525000D02*
G01*
X165145000Y-99765000D01*
X165145000Y-99285000D01*
X165475000Y-99525000D01*
G37*
%TO.C,C5*%
X166711252Y-102890000D02*
X165288748Y-102890000D01*
X166711252Y-104710000D02*
X165288748Y-104710000D01*
%TO.C,C11*%
X165710000Y-76540000D02*
X165710000Y-81060000D01*
X165710000Y-81060000D02*
X173950000Y-81060000D01*
X173950000Y-76540000D02*
X165710000Y-76540000D01*
%TO.C,R3*%
X171177500Y-94745276D02*
X171177500Y-95254724D01*
X172222500Y-94745276D02*
X172222500Y-95254724D01*
%TO.C,C14*%
X161273752Y-105590000D02*
X159851248Y-105590000D01*
X161273752Y-107410000D02*
X159851248Y-107410000D01*
%TO.C,C2*%
X197990000Y-115288748D02*
X197990000Y-116711252D01*
X199810000Y-115288748D02*
X199810000Y-116711252D01*
%TO.C,D2*%
X153250000Y-70490000D02*
X153250000Y-76000000D01*
X156550000Y-70490000D02*
X153250000Y-70490000D01*
X156550000Y-70490000D02*
X156550000Y-76000000D01*
%TO.C,D6*%
X165850000Y-67110000D02*
X165850000Y-61600000D01*
X165850000Y-67110000D02*
X169150000Y-67110000D01*
X169150000Y-67110000D02*
X169150000Y-61600000D01*
%TO.C,C8*%
X168090000Y-89083767D02*
X168090000Y-88791233D01*
X169110000Y-89083767D02*
X169110000Y-88791233D01*
%TO.C,C21*%
X210390000Y-65491233D02*
X210390000Y-65783767D01*
X211410000Y-65491233D02*
X211410000Y-65783767D01*
%TO.C,C25*%
X225190000Y-73733752D02*
X225190000Y-72311248D01*
X227010000Y-73733752D02*
X227010000Y-72311248D01*
%TO.C,C6*%
X159946267Y-72490000D02*
X159653733Y-72490000D01*
X159946267Y-73510000D02*
X159653733Y-73510000D01*
%TO.C,C4*%
X159946267Y-70790000D02*
X159653733Y-70790000D01*
X159946267Y-71810000D02*
X159653733Y-71810000D01*
%TO.C,U3*%
X145290000Y-94990000D02*
X145290000Y-103710000D01*
X146590000Y-93290000D02*
X145290000Y-94990000D01*
X149410000Y-93290000D02*
X146590000Y-93290000D01*
X149410000Y-93290000D02*
X150710000Y-94990000D01*
X150710000Y-94990000D02*
X150710000Y-103710000D01*
X150710000Y-103710000D02*
X145290000Y-103710000D01*
D13*
%TO.C,U8*%
X217825000Y-61575000D02*
X213675000Y-61575000D01*
X217825000Y-66725000D02*
X213675000Y-66725000D01*
D15*
X218665000Y-66955000D02*
X218185000Y-66955000D01*
X218425000Y-66625000D01*
X218665000Y-66955000D01*
G36*
X218665000Y-66955000D02*
G01*
X218185000Y-66955000D01*
X218425000Y-66625000D01*
X218665000Y-66955000D01*
G37*
%TO.C,C10*%
X166583767Y-91090000D02*
X166291233Y-91090000D01*
X166583767Y-92110000D02*
X166291233Y-92110000D01*
%TO.C,R2*%
X171177500Y-90832776D02*
X171177500Y-91342224D01*
X172222500Y-90832776D02*
X172222500Y-91342224D01*
%TO.C,D4*%
X228950000Y-76710000D02*
X228950000Y-71200000D01*
X228950000Y-76710000D02*
X232250000Y-76710000D01*
X232250000Y-76710000D02*
X232250000Y-71200000D01*
%TO.C,C12*%
X161248752Y-102890000D02*
X159826248Y-102890000D01*
X161248752Y-104710000D02*
X159826248Y-104710000D01*
%TO.C,C13*%
X159946267Y-74290000D02*
X159653733Y-74290000D01*
X159946267Y-75310000D02*
X159653733Y-75310000D01*
D13*
%TO.C,U6*%
X157425000Y-62725000D02*
X157425000Y-66875000D01*
X162575000Y-62725000D02*
X162575000Y-66875000D01*
D15*
X162830000Y-62540000D02*
X162500000Y-62300000D01*
X162830000Y-62060000D01*
X162830000Y-62540000D01*
G36*
X162830000Y-62540000D02*
G01*
X162500000Y-62300000D01*
X162830000Y-62060000D01*
X162830000Y-62540000D01*
G37*
%TO.C,R1*%
X155677500Y-68642224D02*
X155677500Y-68132776D01*
X156722500Y-68642224D02*
X156722500Y-68132776D01*
%TO.C,C7*%
X166883767Y-101190000D02*
X166591233Y-101190000D01*
X166883767Y-102210000D02*
X166591233Y-102210000D01*
%TO.C,R4*%
X157354724Y-59277500D02*
X156845276Y-59277500D01*
X157354724Y-60322500D02*
X156845276Y-60322500D01*
%TO.C,L2*%
X163400000Y-68300000D02*
X165700000Y-68300000D01*
X163400000Y-75700000D02*
X163400000Y-68300000D01*
X165700000Y-75700000D02*
X163400000Y-75700000D01*
X168500000Y-68300000D02*
X170800000Y-68300000D01*
X170800000Y-68300000D02*
X170800000Y-75700000D01*
X170800000Y-75700000D02*
X168500000Y-75700000D01*
%TO.C,J4*%
X150680995Y-120394392D02*
X157105995Y-131522819D01*
X157105995Y-131522819D02*
X160739359Y-132715991D01*
X157869005Y-116244392D02*
X150680995Y-120394392D01*
X160739359Y-132715991D02*
X163467339Y-131140991D01*
X163467339Y-131140991D02*
X164294005Y-127372819D01*
X164294005Y-127372819D02*
X157869005Y-116244392D01*
%TO.C,U4*%
X233290000Y-68290000D02*
X238710000Y-68290000D01*
X233290000Y-77010000D02*
X233290000Y-68290000D01*
X234590000Y-78710000D02*
X233290000Y-77010000D01*
X234590000Y-78710000D02*
X237410000Y-78710000D01*
X237410000Y-78710000D02*
X238710000Y-77010000D01*
X238710000Y-77010000D02*
X238710000Y-68290000D01*
%TO.C,J2*%
X150105995Y-51372819D02*
X150889359Y-55115991D01*
X150889359Y-55115991D02*
X153617339Y-56690991D01*
X153617339Y-56690991D02*
X157294005Y-55522819D01*
X156530995Y-40244392D02*
X150105995Y-51372819D01*
X157294005Y-55522819D02*
X163719005Y-44394392D01*
X163719005Y-44394392D02*
X156530995Y-40244392D01*
%TO.C,C19*%
X220290000Y-65513733D02*
X220290000Y-65806267D01*
X221310000Y-65513733D02*
X221310000Y-65806267D01*
%TO.C,D3*%
X152450000Y-94890000D02*
X152450000Y-100400000D01*
X155750000Y-94890000D02*
X152450000Y-94890000D01*
X155750000Y-94890000D02*
X155750000Y-100400000D01*
%TO.C,R5*%
X155677500Y-63254724D02*
X155677500Y-62745276D01*
X156722500Y-63254724D02*
X156722500Y-62745276D01*
%TO.C,C9*%
X163390000Y-64753733D02*
X163390000Y-65046267D01*
X164410000Y-64753733D02*
X164410000Y-65046267D01*
%TO.C,C16*%
X222290000Y-65648748D02*
X222290000Y-67071252D01*
X224110000Y-65648748D02*
X224110000Y-67071252D01*
%TO.C,U2*%
X145290000Y-68290000D02*
X150710000Y-68290000D01*
X145290000Y-77010000D02*
X145290000Y-68290000D01*
X146590000Y-78710000D02*
X145290000Y-77010000D01*
X146590000Y-78710000D02*
X149410000Y-78710000D01*
X149410000Y-78710000D02*
X150710000Y-77010000D01*
X150710000Y-77010000D02*
X150710000Y-68290000D01*
%TD*%
M02*
