M48
; DRILL file {KiCad 9.0.1} date 2025-04-08T15:50:02+0300
; FORMAT={-:-/ absolute / metric / decimal}
; #@! TF.CreationDate,2025-04-08T15:50:02+03:00
; #@! TF.GenerationSoftware,Kicad,Pcbnew,9.0.1
; #@! TF.FileFunction,Plated,1,4,PTH
FMAT,2
METRIC
; #@! TA.AperFunction,Plated,PTH,ComponentDrill
T1C0.200
; #@! TA.AperFunction,Plated,PTH,ViaDrill
T2C0.300
; #@! TA.AperFunction,Plated,PTH,ComponentDrill
T3C0.600
; #@! TA.AperFunction,Plated,PTH,ComponentDrill
T4C0.750
; #@! TA.AperFunction,Plated,PTH,ComponentDrill
T5C0.800
; #@! TA.AperFunction,Plated,PTH,ComponentDrill
T6C0.813
; #@! TA.AperFunction,Plated,PTH,ComponentDrill
T7C0.900
; #@! TA.AperFunction,Plated,PTH,ComponentDrill
T8C1.000
; #@! TA.AperFunction,Plated,PTH,ComponentDrill
T9C1.200
; #@! TA.AperFunction,Plated,PTH,ComponentDrill
T10C1.300
; #@! TA.AperFunction,Plated,PTH,ComponentDrill
T11C1.400
%
G90
G05
T1
X88.74Y-122.942
X88.74Y-124.468
X89.502Y-122.18
X89.502Y-123.705
X89.502Y-125.23
X90.265Y-122.942
X90.265Y-124.468
X91.027Y-122.18
X91.027Y-123.705
X91.027Y-125.23
X91.79Y-122.942
X91.79Y-124.468
T2
X79.025Y-70.0
X79.025Y-72.0
X79.025Y-74.0
X79.025Y-76.0
X81.025Y-70.0
X81.025Y-72.0
X81.025Y-74.0
X81.025Y-76.0
X81.075Y-101.2
X84.025Y-139.95
X85.0Y-117.0
X85.0Y-119.0
X85.025Y-120.975
X85.025Y-123.0
X85.025Y-125.0
X85.025Y-127.0
X85.025Y-129.0
X85.225Y-139.95
X86.325Y-93.4
X87.0Y-117.0
X87.025Y-119.0
X87.025Y-120.975
X87.025Y-122.975
X87.025Y-125.0
X87.025Y-126.975
X87.025Y-129.0
X87.325Y-93.4
X87.325Y-94.6
X88.275Y-93.4
X88.275Y-94.6
X88.325Y-95.65
X89.0Y-110.0
X89.0Y-112.0
X89.025Y-117.0
X89.025Y-119.0
X89.275Y-93.4
X89.275Y-94.6
X89.275Y-95.65
X90.225Y-93.4
X90.225Y-94.6
X90.225Y-95.65
X90.65Y-139.325
X91.0Y-110.0
X91.025Y-112.0
X91.025Y-117.0
X91.05Y-119.0
X93.0Y-106.0
X93.0Y-108.0
X93.025Y-110.0
X93.025Y-112.0
X93.025Y-117.0
X93.025Y-119.0
X95.0Y-106.0
X95.025Y-108.0
X95.025Y-110.0
X95.025Y-117.0
X95.025Y-119.0
X95.05Y-112.0
X95.075Y-88.45
X96.025Y-127.0
X96.025Y-129.0
X97.0Y-64.0
X97.0Y-66.0
X97.0Y-106.0
X97.0Y-108.0
X97.025Y-60.0
X97.025Y-62.0
X97.025Y-68.0
X97.025Y-70.0
X97.025Y-110.0
X97.025Y-112.0
X97.925Y-86.15
X97.925Y-87.05
X98.025Y-126.975
X98.025Y-129.0
X99.0Y-64.0
X99.0Y-106.0
X99.0Y-108.0
X99.025Y-60.0
X99.025Y-66.0
X99.025Y-68.0
X99.025Y-110.0
X99.025Y-112.0
X99.05Y-62.0
X99.05Y-70.0
X101.0Y-64.0
X101.0Y-66.0
X101.025Y-60.0
X101.025Y-62.0
X101.025Y-68.0
X101.025Y-70.0
X101.475Y-93.2
X102.325Y-93.2
X102.775Y-135.6
X102.875Y-104.3
X103.0Y-64.0
X103.0Y-66.0
X103.025Y-60.0
X103.025Y-62.0
X103.025Y-68.0
X103.025Y-70.0
X103.625Y-105.1
X104.025Y-137.0
X104.025Y-139.0
X104.475Y-105.95
X105.0Y-64.0
X105.0Y-66.0
X105.025Y-60.0
X105.025Y-62.0
X105.025Y-68.0
X105.025Y-70.0
X105.743Y-99.25
X106.025Y-137.0
X106.025Y-139.0
X106.759Y-99.25
X107.0Y-64.0
X107.025Y-60.0
X107.025Y-66.0
X107.025Y-68.0
X107.05Y-62.0
X107.05Y-70.0
X107.175Y-134.45
X108.025Y-137.0
X108.025Y-139.0
X109.0Y-64.0
X109.0Y-66.0
X109.025Y-60.0
X109.025Y-62.0
X109.025Y-68.0
X109.025Y-70.0
X109.175Y-101.2
X109.759Y-99.25
X110.775Y-99.25
X111.0Y-64.0
X111.0Y-66.0
X111.025Y-60.0
X111.025Y-62.0
X111.025Y-68.0
X111.025Y-70.0
X113.025Y-113.0
X114.025Y-114.0
X114.125Y-119.25
X114.125Y-120.15
X114.175Y-118.25
X115.025Y-91.0
X115.025Y-93.0
X115.025Y-113.1
X115.5Y-95.425
X116.475Y-117.35
X117.025Y-91.0
X117.025Y-93.0
X117.475Y-129.35
X118.525Y-96.75
X118.675Y-119.65
X119.025Y-91.0
X119.025Y-93.0
X119.025Y-106.0
X119.025Y-108.0
X119.475Y-109.75
X119.775Y-96.25
X120.975Y-110.95
X121.025Y-91.0
X121.025Y-93.0
X121.525Y-106.85
X121.625Y-118.0
X122.325Y-105.8
X122.475Y-88.8
X122.575Y-111.05
X122.975Y-117.85
X123.075Y-107.15
X123.325Y-105.85
X123.525Y-131.5
X123.675Y-88.8
X123.725Y-121.0
X123.725Y-121.95
X123.725Y-123.05
X123.75Y-126.475
X125.075Y-117.65
X125.125Y-99.25
X125.175Y-126.65
X125.775Y-88.8
X125.775Y-114.85
X125.975Y-99.75
X126.025Y-91.0
X126.025Y-93.0
X126.275Y-121.5
X126.425Y-112.5
X126.525Y-122.8
X126.725Y-120.25
X126.775Y-117.3
X127.075Y-96.0
X128.025Y-91.0
X128.025Y-93.0
X128.075Y-103.65
X129.025Y-115.65
X130.025Y-91.0
X130.025Y-93.0
X132.025Y-91.0
X132.025Y-93.0
X132.025Y-111.0
X132.025Y-113.0
X133.025Y-97.025
X133.025Y-100.0
X133.575Y-89.95
X134.025Y-111.0
X134.025Y-113.0
X134.125Y-139.7
X135.025Y-97.0
X135.025Y-100.0
X135.325Y-139.7
X135.625Y-110.1
X136.025Y-89.0
X136.025Y-91.0
X136.025Y-111.0
X136.025Y-113.0
X136.525Y-139.7
X137.325Y-121.45
X137.725Y-139.7
X137.925Y-115.15
X138.025Y-89.0
X138.025Y-91.0
X138.925Y-139.7
X139.275Y-133.2
X140.025Y-89.0
X140.025Y-91.0
X140.175Y-120.95
X140.475Y-117.65
X140.775Y-119.25
X140.925Y-121.6
X141.025Y-95.5
X142.675Y-133.35
X142.825Y-89.0
X143.575Y-134.3
X148.025Y-118.0
X148.025Y-120.0
X148.025Y-122.0
X148.025Y-124.0
X148.025Y-126.0
X148.025Y-128.0
X149.975Y-135.7
X150.025Y-117.0
X150.025Y-126.0
X150.025Y-128.0
X152.025Y-117.0
X152.025Y-126.0
X152.025Y-128.0
X155.025Y-117.0
X157.025Y-117.0
X158.125Y-119.15
X160.675Y-139.6
X161.375Y-129.0
X162.725Y-128.1
X166.025Y-117.0
X168.025Y-117.0
X169.775Y-134.0
X170.025Y-117.0
X170.025Y-119.0
X170.025Y-121.0
X170.025Y-132.0
X172.025Y-117.0
X172.025Y-119.0
X172.025Y-121.0
X172.025Y-132.0
X172.025Y-134.0
T4
X128.48Y-86.0
X129.75Y-86.0
X131.02Y-86.0
X136.06Y-86.0
X137.33Y-86.0
X138.6Y-86.0
T5
X100.595Y-79.375
X100.595Y-81.915
X108.215Y-79.375
X108.215Y-81.915
T6
X154.475Y-129.81
X154.475Y-134.89
X157.015Y-132.35
T7
X97.125Y-58.125
X97.125Y-73.125
X102.125Y-58.125
X102.125Y-73.125
X107.125Y-58.125
X107.125Y-73.125
X112.125Y-58.125
X112.125Y-73.125
T8
X81.075Y-104.45
X87.575Y-104.45
X137.475Y-95.89
X137.475Y-98.43
X137.475Y-100.97
X137.475Y-103.51
X137.475Y-106.05
T9
X93.15Y-49.55
X115.55Y-49.55
T10
X120.305Y-61.765
X120.305Y-77.005
X127.925Y-59.225
X127.925Y-66.845
X127.925Y-77.005
X133.48Y-61.765
X133.48Y-77.005
X141.1Y-59.225
X141.1Y-66.845
X141.1Y-77.005
T11
X85.752Y-51.75
X85.752Y-56.75
X122.925Y-54.652
X127.925Y-54.652
X136.125Y-54.65
X141.125Y-54.65
T3
X122.955Y-133.22G85X122.955Y-134.32
G05
X122.955Y-137.55G85X122.955Y-138.35
G05
X131.595Y-133.22G85X131.595Y-134.32
G05
X131.595Y-137.55G85X131.595Y-138.35
G05
T8
X78.625Y-89.4G85X78.625Y-91.4
G05
X80.625Y-95.1G85X82.625Y-95.1
G05
X84.625Y-89.4G85X84.625Y-91.4
G05
X113.175Y-130.9G85X115.175Y-130.9
G05
X113.175Y-136.9G85X115.175Y-136.9
G05
X118.875Y-134.9G85X118.875Y-132.9
G05
M30
