%TF.GenerationSoftware,KiCad,Pcbnew,9.0.1*%
%TF.CreationDate,2025-04-08T16:08:48+03:00*%
%TF.ProjectId,xBowtie E_itim,78426f77-7469-4652-9045-1f6974696d2e,rev?*%
%TF.SameCoordinates,Original*%
%TF.FileFunction,Legend,Bot*%
%TF.FilePolarity,Positive*%
%FSLAX46Y46*%
G04 Gerber Fmt 4.6, Leading zero omitted, Abs format (unit mm)*
G04 Created by KiCad (PCBNEW 9.0.1) date 2025-04-08 16:08:48*
%MOMM*%
%LPD*%
G01*
G04 APERTURE LIST*
%ADD10C,0.100000*%
%ADD11C,0.150000*%
%ADD12C,0.300000*%
%ADD13C,0.400000*%
%ADD14C,0.120000*%
%ADD15C,0.000000*%
%ADD16C,0.203200*%
%ADD17C,0.218497*%
G04 APERTURE END LIST*
D10*
D11*
X177002200Y-166007200D02*
X285002200Y-166007200D01*
X285002200Y-198007200D01*
X177002200Y-198007200D01*
X177002200Y-166007200D01*
D10*
D11*
X10000000Y-10000000D02*
X287002200Y-10000000D01*
X287002200Y-200007200D01*
X10000000Y-200007200D01*
X10000000Y-10000000D01*
D10*
D11*
X12000000Y-12000000D02*
X285002200Y-12000000D01*
X285002200Y-198007200D01*
X12000000Y-198007200D01*
X12000000Y-12000000D01*
D10*
D11*
X60000000Y-12000000D02*
X60000000Y-10000000D01*
D10*
D11*
X110000000Y-12000000D02*
X110000000Y-10000000D01*
D10*
D11*
X160000000Y-12000000D02*
X160000000Y-10000000D01*
D10*
D11*
X210000000Y-12000000D02*
X210000000Y-10000000D01*
D10*
D11*
X260000000Y-12000000D02*
X260000000Y-10000000D01*
D10*
D11*
X36089160Y-11593604D02*
X35346303Y-11593604D01*
X35717731Y-11593604D02*
X35717731Y-10293604D01*
X35717731Y-10293604D02*
X35593922Y-10479319D01*
X35593922Y-10479319D02*
X35470112Y-10603128D01*
X35470112Y-10603128D02*
X35346303Y-10665033D01*
D10*
D11*
X85346303Y-10417414D02*
X85408207Y-10355509D01*
X85408207Y-10355509D02*
X85532017Y-10293604D01*
X85532017Y-10293604D02*
X85841541Y-10293604D01*
X85841541Y-10293604D02*
X85965350Y-10355509D01*
X85965350Y-10355509D02*
X86027255Y-10417414D01*
X86027255Y-10417414D02*
X86089160Y-10541223D01*
X86089160Y-10541223D02*
X86089160Y-10665033D01*
X86089160Y-10665033D02*
X86027255Y-10850747D01*
X86027255Y-10850747D02*
X85284398Y-11593604D01*
X85284398Y-11593604D02*
X86089160Y-11593604D01*
D10*
D11*
X135284398Y-10293604D02*
X136089160Y-10293604D01*
X136089160Y-10293604D02*
X135655826Y-10788842D01*
X135655826Y-10788842D02*
X135841541Y-10788842D01*
X135841541Y-10788842D02*
X135965350Y-10850747D01*
X135965350Y-10850747D02*
X136027255Y-10912652D01*
X136027255Y-10912652D02*
X136089160Y-11036461D01*
X136089160Y-11036461D02*
X136089160Y-11345985D01*
X136089160Y-11345985D02*
X136027255Y-11469795D01*
X136027255Y-11469795D02*
X135965350Y-11531700D01*
X135965350Y-11531700D02*
X135841541Y-11593604D01*
X135841541Y-11593604D02*
X135470112Y-11593604D01*
X135470112Y-11593604D02*
X135346303Y-11531700D01*
X135346303Y-11531700D02*
X135284398Y-11469795D01*
D10*
D11*
X185965350Y-10726938D02*
X185965350Y-11593604D01*
X185655826Y-10231700D02*
X185346303Y-11160271D01*
X185346303Y-11160271D02*
X186151064Y-11160271D01*
D10*
D11*
X236027255Y-10293604D02*
X235408207Y-10293604D01*
X235408207Y-10293604D02*
X235346303Y-10912652D01*
X235346303Y-10912652D02*
X235408207Y-10850747D01*
X235408207Y-10850747D02*
X235532017Y-10788842D01*
X235532017Y-10788842D02*
X235841541Y-10788842D01*
X235841541Y-10788842D02*
X235965350Y-10850747D01*
X235965350Y-10850747D02*
X236027255Y-10912652D01*
X236027255Y-10912652D02*
X236089160Y-11036461D01*
X236089160Y-11036461D02*
X236089160Y-11345985D01*
X236089160Y-11345985D02*
X236027255Y-11469795D01*
X236027255Y-11469795D02*
X235965350Y-11531700D01*
X235965350Y-11531700D02*
X235841541Y-11593604D01*
X235841541Y-11593604D02*
X235532017Y-11593604D01*
X235532017Y-11593604D02*
X235408207Y-11531700D01*
X235408207Y-11531700D02*
X235346303Y-11469795D01*
D10*
D11*
X285965350Y-10293604D02*
X285717731Y-10293604D01*
X285717731Y-10293604D02*
X285593922Y-10355509D01*
X285593922Y-10355509D02*
X285532017Y-10417414D01*
X285532017Y-10417414D02*
X285408207Y-10603128D01*
X285408207Y-10603128D02*
X285346303Y-10850747D01*
X285346303Y-10850747D02*
X285346303Y-11345985D01*
X285346303Y-11345985D02*
X285408207Y-11469795D01*
X285408207Y-11469795D02*
X285470112Y-11531700D01*
X285470112Y-11531700D02*
X285593922Y-11593604D01*
X285593922Y-11593604D02*
X285841541Y-11593604D01*
X285841541Y-11593604D02*
X285965350Y-11531700D01*
X285965350Y-11531700D02*
X286027255Y-11469795D01*
X286027255Y-11469795D02*
X286089160Y-11345985D01*
X286089160Y-11345985D02*
X286089160Y-11036461D01*
X286089160Y-11036461D02*
X286027255Y-10912652D01*
X286027255Y-10912652D02*
X285965350Y-10850747D01*
X285965350Y-10850747D02*
X285841541Y-10788842D01*
X285841541Y-10788842D02*
X285593922Y-10788842D01*
X285593922Y-10788842D02*
X285470112Y-10850747D01*
X285470112Y-10850747D02*
X285408207Y-10912652D01*
X285408207Y-10912652D02*
X285346303Y-11036461D01*
D10*
D11*
X60000000Y-198007200D02*
X60000000Y-200007200D01*
D10*
D11*
X110000000Y-198007200D02*
X110000000Y-200007200D01*
D10*
D11*
X160000000Y-198007200D02*
X160000000Y-200007200D01*
D10*
D11*
X210000000Y-198007200D02*
X210000000Y-200007200D01*
D10*
D11*
X260000000Y-198007200D02*
X260000000Y-200007200D01*
D10*
D11*
X36089160Y-199600804D02*
X35346303Y-199600804D01*
X35717731Y-199600804D02*
X35717731Y-198300804D01*
X35717731Y-198300804D02*
X35593922Y-198486519D01*
X35593922Y-198486519D02*
X35470112Y-198610328D01*
X35470112Y-198610328D02*
X35346303Y-198672233D01*
D10*
D11*
X85346303Y-198424614D02*
X85408207Y-198362709D01*
X85408207Y-198362709D02*
X85532017Y-198300804D01*
X85532017Y-198300804D02*
X85841541Y-198300804D01*
X85841541Y-198300804D02*
X85965350Y-198362709D01*
X85965350Y-198362709D02*
X86027255Y-198424614D01*
X86027255Y-198424614D02*
X86089160Y-198548423D01*
X86089160Y-198548423D02*
X86089160Y-198672233D01*
X86089160Y-198672233D02*
X86027255Y-198857947D01*
X86027255Y-198857947D02*
X85284398Y-199600804D01*
X85284398Y-199600804D02*
X86089160Y-199600804D01*
D10*
D11*
X135284398Y-198300804D02*
X136089160Y-198300804D01*
X136089160Y-198300804D02*
X135655826Y-198796042D01*
X135655826Y-198796042D02*
X135841541Y-198796042D01*
X135841541Y-198796042D02*
X135965350Y-198857947D01*
X135965350Y-198857947D02*
X136027255Y-198919852D01*
X136027255Y-198919852D02*
X136089160Y-199043661D01*
X136089160Y-199043661D02*
X136089160Y-199353185D01*
X136089160Y-199353185D02*
X136027255Y-199476995D01*
X136027255Y-199476995D02*
X135965350Y-199538900D01*
X135965350Y-199538900D02*
X135841541Y-199600804D01*
X135841541Y-199600804D02*
X135470112Y-199600804D01*
X135470112Y-199600804D02*
X135346303Y-199538900D01*
X135346303Y-199538900D02*
X135284398Y-199476995D01*
D10*
D11*
X185965350Y-198734138D02*
X185965350Y-199600804D01*
X185655826Y-198238900D02*
X185346303Y-199167471D01*
X185346303Y-199167471D02*
X186151064Y-199167471D01*
D10*
D11*
X236027255Y-198300804D02*
X235408207Y-198300804D01*
X235408207Y-198300804D02*
X235346303Y-198919852D01*
X235346303Y-198919852D02*
X235408207Y-198857947D01*
X235408207Y-198857947D02*
X235532017Y-198796042D01*
X235532017Y-198796042D02*
X235841541Y-198796042D01*
X235841541Y-198796042D02*
X235965350Y-198857947D01*
X235965350Y-198857947D02*
X236027255Y-198919852D01*
X236027255Y-198919852D02*
X236089160Y-199043661D01*
X236089160Y-199043661D02*
X236089160Y-199353185D01*
X236089160Y-199353185D02*
X236027255Y-199476995D01*
X236027255Y-199476995D02*
X235965350Y-199538900D01*
X235965350Y-199538900D02*
X235841541Y-199600804D01*
X235841541Y-199600804D02*
X235532017Y-199600804D01*
X235532017Y-199600804D02*
X235408207Y-199538900D01*
X235408207Y-199538900D02*
X235346303Y-199476995D01*
D10*
D11*
X285965350Y-198300804D02*
X285717731Y-198300804D01*
X285717731Y-198300804D02*
X285593922Y-198362709D01*
X285593922Y-198362709D02*
X285532017Y-198424614D01*
X285532017Y-198424614D02*
X285408207Y-198610328D01*
X285408207Y-198610328D02*
X285346303Y-198857947D01*
X285346303Y-198857947D02*
X285346303Y-199353185D01*
X285346303Y-199353185D02*
X285408207Y-199476995D01*
X285408207Y-199476995D02*
X285470112Y-199538900D01*
X285470112Y-199538900D02*
X285593922Y-199600804D01*
X285593922Y-199600804D02*
X285841541Y-199600804D01*
X285841541Y-199600804D02*
X285965350Y-199538900D01*
X285965350Y-199538900D02*
X286027255Y-199476995D01*
X286027255Y-199476995D02*
X286089160Y-199353185D01*
X286089160Y-199353185D02*
X286089160Y-199043661D01*
X286089160Y-199043661D02*
X286027255Y-198919852D01*
X286027255Y-198919852D02*
X285965350Y-198857947D01*
X285965350Y-198857947D02*
X285841541Y-198796042D01*
X285841541Y-198796042D02*
X285593922Y-198796042D01*
X285593922Y-198796042D02*
X285470112Y-198857947D01*
X285470112Y-198857947D02*
X285408207Y-198919852D01*
X285408207Y-198919852D02*
X285346303Y-199043661D01*
D10*
D11*
X10000000Y-60000000D02*
X12000000Y-60000000D01*
D10*
D11*
X10000000Y-110000000D02*
X12000000Y-110000000D01*
D10*
D11*
X10000000Y-160000000D02*
X12000000Y-160000000D01*
D10*
D11*
X10690476Y-35222176D02*
X11309523Y-35222176D01*
X10566666Y-35593604D02*
X10999999Y-34293604D01*
X10999999Y-34293604D02*
X11433333Y-35593604D01*
D10*
D11*
X11092857Y-84912652D02*
X11278571Y-84974557D01*
X11278571Y-84974557D02*
X11340476Y-85036461D01*
X11340476Y-85036461D02*
X11402380Y-85160271D01*
X11402380Y-85160271D02*
X11402380Y-85345985D01*
X11402380Y-85345985D02*
X11340476Y-85469795D01*
X11340476Y-85469795D02*
X11278571Y-85531700D01*
X11278571Y-85531700D02*
X11154761Y-85593604D01*
X11154761Y-85593604D02*
X10659523Y-85593604D01*
X10659523Y-85593604D02*
X10659523Y-84293604D01*
X10659523Y-84293604D02*
X11092857Y-84293604D01*
X11092857Y-84293604D02*
X11216666Y-84355509D01*
X11216666Y-84355509D02*
X11278571Y-84417414D01*
X11278571Y-84417414D02*
X11340476Y-84541223D01*
X11340476Y-84541223D02*
X11340476Y-84665033D01*
X11340476Y-84665033D02*
X11278571Y-84788842D01*
X11278571Y-84788842D02*
X11216666Y-84850747D01*
X11216666Y-84850747D02*
X11092857Y-84912652D01*
X11092857Y-84912652D02*
X10659523Y-84912652D01*
D10*
D11*
X11402380Y-135469795D02*
X11340476Y-135531700D01*
X11340476Y-135531700D02*
X11154761Y-135593604D01*
X11154761Y-135593604D02*
X11030952Y-135593604D01*
X11030952Y-135593604D02*
X10845238Y-135531700D01*
X10845238Y-135531700D02*
X10721428Y-135407890D01*
X10721428Y-135407890D02*
X10659523Y-135284080D01*
X10659523Y-135284080D02*
X10597619Y-135036461D01*
X10597619Y-135036461D02*
X10597619Y-134850747D01*
X10597619Y-134850747D02*
X10659523Y-134603128D01*
X10659523Y-134603128D02*
X10721428Y-134479319D01*
X10721428Y-134479319D02*
X10845238Y-134355509D01*
X10845238Y-134355509D02*
X11030952Y-134293604D01*
X11030952Y-134293604D02*
X11154761Y-134293604D01*
X11154761Y-134293604D02*
X11340476Y-134355509D01*
X11340476Y-134355509D02*
X11402380Y-134417414D01*
D10*
D11*
X10659523Y-185593604D02*
X10659523Y-184293604D01*
X10659523Y-184293604D02*
X10969047Y-184293604D01*
X10969047Y-184293604D02*
X11154761Y-184355509D01*
X11154761Y-184355509D02*
X11278571Y-184479319D01*
X11278571Y-184479319D02*
X11340476Y-184603128D01*
X11340476Y-184603128D02*
X11402380Y-184850747D01*
X11402380Y-184850747D02*
X11402380Y-185036461D01*
X11402380Y-185036461D02*
X11340476Y-185284080D01*
X11340476Y-185284080D02*
X11278571Y-185407890D01*
X11278571Y-185407890D02*
X11154761Y-185531700D01*
X11154761Y-185531700D02*
X10969047Y-185593604D01*
X10969047Y-185593604D02*
X10659523Y-185593604D01*
D10*
D11*
X287002200Y-60000000D02*
X285002200Y-60000000D01*
D10*
D11*
X287002200Y-110000000D02*
X285002200Y-110000000D01*
D10*
D11*
X287002200Y-160000000D02*
X285002200Y-160000000D01*
D10*
D11*
X285692676Y-35222176D02*
X286311723Y-35222176D01*
X285568866Y-35593604D02*
X286002199Y-34293604D01*
X286002199Y-34293604D02*
X286435533Y-35593604D01*
D10*
D11*
X286095057Y-84912652D02*
X286280771Y-84974557D01*
X286280771Y-84974557D02*
X286342676Y-85036461D01*
X286342676Y-85036461D02*
X286404580Y-85160271D01*
X286404580Y-85160271D02*
X286404580Y-85345985D01*
X286404580Y-85345985D02*
X286342676Y-85469795D01*
X286342676Y-85469795D02*
X286280771Y-85531700D01*
X286280771Y-85531700D02*
X286156961Y-85593604D01*
X286156961Y-85593604D02*
X285661723Y-85593604D01*
X285661723Y-85593604D02*
X285661723Y-84293604D01*
X285661723Y-84293604D02*
X286095057Y-84293604D01*
X286095057Y-84293604D02*
X286218866Y-84355509D01*
X286218866Y-84355509D02*
X286280771Y-84417414D01*
X286280771Y-84417414D02*
X286342676Y-84541223D01*
X286342676Y-84541223D02*
X286342676Y-84665033D01*
X286342676Y-84665033D02*
X286280771Y-84788842D01*
X286280771Y-84788842D02*
X286218866Y-84850747D01*
X286218866Y-84850747D02*
X286095057Y-84912652D01*
X286095057Y-84912652D02*
X285661723Y-84912652D01*
D10*
D11*
X286404580Y-135469795D02*
X286342676Y-135531700D01*
X286342676Y-135531700D02*
X286156961Y-135593604D01*
X286156961Y-135593604D02*
X286033152Y-135593604D01*
X286033152Y-135593604D02*
X285847438Y-135531700D01*
X285847438Y-135531700D02*
X285723628Y-135407890D01*
X285723628Y-135407890D02*
X285661723Y-135284080D01*
X285661723Y-135284080D02*
X285599819Y-135036461D01*
X285599819Y-135036461D02*
X285599819Y-134850747D01*
X285599819Y-134850747D02*
X285661723Y-134603128D01*
X285661723Y-134603128D02*
X285723628Y-134479319D01*
X285723628Y-134479319D02*
X285847438Y-134355509D01*
X285847438Y-134355509D02*
X286033152Y-134293604D01*
X286033152Y-134293604D02*
X286156961Y-134293604D01*
X286156961Y-134293604D02*
X286342676Y-134355509D01*
X286342676Y-134355509D02*
X286404580Y-134417414D01*
D10*
D11*
X285661723Y-185593604D02*
X285661723Y-184293604D01*
X285661723Y-184293604D02*
X285971247Y-184293604D01*
X285971247Y-184293604D02*
X286156961Y-184355509D01*
X286156961Y-184355509D02*
X286280771Y-184479319D01*
X286280771Y-184479319D02*
X286342676Y-184603128D01*
X286342676Y-184603128D02*
X286404580Y-184850747D01*
X286404580Y-184850747D02*
X286404580Y-185036461D01*
X286404580Y-185036461D02*
X286342676Y-185284080D01*
X286342676Y-185284080D02*
X286280771Y-185407890D01*
X286280771Y-185407890D02*
X286156961Y-185531700D01*
X286156961Y-185531700D02*
X285971247Y-185593604D01*
X285971247Y-185593604D02*
X285661723Y-185593604D01*
D10*
D11*
X200458026Y-193793328D02*
X200458026Y-192293328D01*
X200458026Y-192293328D02*
X200815169Y-192293328D01*
X200815169Y-192293328D02*
X201029455Y-192364757D01*
X201029455Y-192364757D02*
X201172312Y-192507614D01*
X201172312Y-192507614D02*
X201243741Y-192650471D01*
X201243741Y-192650471D02*
X201315169Y-192936185D01*
X201315169Y-192936185D02*
X201315169Y-193150471D01*
X201315169Y-193150471D02*
X201243741Y-193436185D01*
X201243741Y-193436185D02*
X201172312Y-193579042D01*
X201172312Y-193579042D02*
X201029455Y-193721900D01*
X201029455Y-193721900D02*
X200815169Y-193793328D01*
X200815169Y-193793328D02*
X200458026Y-193793328D01*
X202600884Y-193793328D02*
X202600884Y-193007614D01*
X202600884Y-193007614D02*
X202529455Y-192864757D01*
X202529455Y-192864757D02*
X202386598Y-192793328D01*
X202386598Y-192793328D02*
X202100884Y-192793328D01*
X202100884Y-192793328D02*
X201958026Y-192864757D01*
X202600884Y-193721900D02*
X202458026Y-193793328D01*
X202458026Y-193793328D02*
X202100884Y-193793328D01*
X202100884Y-193793328D02*
X201958026Y-193721900D01*
X201958026Y-193721900D02*
X201886598Y-193579042D01*
X201886598Y-193579042D02*
X201886598Y-193436185D01*
X201886598Y-193436185D02*
X201958026Y-193293328D01*
X201958026Y-193293328D02*
X202100884Y-193221900D01*
X202100884Y-193221900D02*
X202458026Y-193221900D01*
X202458026Y-193221900D02*
X202600884Y-193150471D01*
X203100884Y-192793328D02*
X203672312Y-192793328D01*
X203315169Y-192293328D02*
X203315169Y-193579042D01*
X203315169Y-193579042D02*
X203386598Y-193721900D01*
X203386598Y-193721900D02*
X203529455Y-193793328D01*
X203529455Y-193793328D02*
X203672312Y-193793328D01*
X204743741Y-193721900D02*
X204600884Y-193793328D01*
X204600884Y-193793328D02*
X204315170Y-193793328D01*
X204315170Y-193793328D02*
X204172312Y-193721900D01*
X204172312Y-193721900D02*
X204100884Y-193579042D01*
X204100884Y-193579042D02*
X204100884Y-193007614D01*
X204100884Y-193007614D02*
X204172312Y-192864757D01*
X204172312Y-192864757D02*
X204315170Y-192793328D01*
X204315170Y-192793328D02*
X204600884Y-192793328D01*
X204600884Y-192793328D02*
X204743741Y-192864757D01*
X204743741Y-192864757D02*
X204815170Y-193007614D01*
X204815170Y-193007614D02*
X204815170Y-193150471D01*
X204815170Y-193150471D02*
X204100884Y-193293328D01*
X205458026Y-193650471D02*
X205529455Y-193721900D01*
X205529455Y-193721900D02*
X205458026Y-193793328D01*
X205458026Y-193793328D02*
X205386598Y-193721900D01*
X205386598Y-193721900D02*
X205458026Y-193650471D01*
X205458026Y-193650471D02*
X205458026Y-193793328D01*
X205458026Y-192864757D02*
X205529455Y-192936185D01*
X205529455Y-192936185D02*
X205458026Y-193007614D01*
X205458026Y-193007614D02*
X205386598Y-192936185D01*
X205386598Y-192936185D02*
X205458026Y-192864757D01*
X205458026Y-192864757D02*
X205458026Y-193007614D01*
D10*
D11*
X177002200Y-194507200D02*
X285002200Y-194507200D01*
D10*
D11*
X178458026Y-196593328D02*
X178458026Y-195093328D01*
X179315169Y-196593328D02*
X178672312Y-195736185D01*
X179315169Y-195093328D02*
X178458026Y-195950471D01*
X179958026Y-196593328D02*
X179958026Y-195593328D01*
X179958026Y-195093328D02*
X179886598Y-195164757D01*
X179886598Y-195164757D02*
X179958026Y-195236185D01*
X179958026Y-195236185D02*
X180029455Y-195164757D01*
X180029455Y-195164757D02*
X179958026Y-195093328D01*
X179958026Y-195093328D02*
X179958026Y-195236185D01*
X181529455Y-196450471D02*
X181458027Y-196521900D01*
X181458027Y-196521900D02*
X181243741Y-196593328D01*
X181243741Y-196593328D02*
X181100884Y-196593328D01*
X181100884Y-196593328D02*
X180886598Y-196521900D01*
X180886598Y-196521900D02*
X180743741Y-196379042D01*
X180743741Y-196379042D02*
X180672312Y-196236185D01*
X180672312Y-196236185D02*
X180600884Y-195950471D01*
X180600884Y-195950471D02*
X180600884Y-195736185D01*
X180600884Y-195736185D02*
X180672312Y-195450471D01*
X180672312Y-195450471D02*
X180743741Y-195307614D01*
X180743741Y-195307614D02*
X180886598Y-195164757D01*
X180886598Y-195164757D02*
X181100884Y-195093328D01*
X181100884Y-195093328D02*
X181243741Y-195093328D01*
X181243741Y-195093328D02*
X181458027Y-195164757D01*
X181458027Y-195164757D02*
X181529455Y-195236185D01*
X182815170Y-196593328D02*
X182815170Y-195807614D01*
X182815170Y-195807614D02*
X182743741Y-195664757D01*
X182743741Y-195664757D02*
X182600884Y-195593328D01*
X182600884Y-195593328D02*
X182315170Y-195593328D01*
X182315170Y-195593328D02*
X182172312Y-195664757D01*
X182815170Y-196521900D02*
X182672312Y-196593328D01*
X182672312Y-196593328D02*
X182315170Y-196593328D01*
X182315170Y-196593328D02*
X182172312Y-196521900D01*
X182172312Y-196521900D02*
X182100884Y-196379042D01*
X182100884Y-196379042D02*
X182100884Y-196236185D01*
X182100884Y-196236185D02*
X182172312Y-196093328D01*
X182172312Y-196093328D02*
X182315170Y-196021900D01*
X182315170Y-196021900D02*
X182672312Y-196021900D01*
X182672312Y-196021900D02*
X182815170Y-195950471D01*
X184172313Y-196593328D02*
X184172313Y-195093328D01*
X184172313Y-196521900D02*
X184029455Y-196593328D01*
X184029455Y-196593328D02*
X183743741Y-196593328D01*
X183743741Y-196593328D02*
X183600884Y-196521900D01*
X183600884Y-196521900D02*
X183529455Y-196450471D01*
X183529455Y-196450471D02*
X183458027Y-196307614D01*
X183458027Y-196307614D02*
X183458027Y-195879042D01*
X183458027Y-195879042D02*
X183529455Y-195736185D01*
X183529455Y-195736185D02*
X183600884Y-195664757D01*
X183600884Y-195664757D02*
X183743741Y-195593328D01*
X183743741Y-195593328D02*
X184029455Y-195593328D01*
X184029455Y-195593328D02*
X184172313Y-195664757D01*
X186029455Y-195807614D02*
X186529455Y-195807614D01*
X186743741Y-196593328D02*
X186029455Y-196593328D01*
X186029455Y-196593328D02*
X186029455Y-195093328D01*
X186029455Y-195093328D02*
X186743741Y-195093328D01*
X187386598Y-196450471D02*
X187458027Y-196521900D01*
X187458027Y-196521900D02*
X187386598Y-196593328D01*
X187386598Y-196593328D02*
X187315170Y-196521900D01*
X187315170Y-196521900D02*
X187386598Y-196450471D01*
X187386598Y-196450471D02*
X187386598Y-196593328D01*
X188100884Y-196593328D02*
X188100884Y-195093328D01*
X188100884Y-195093328D02*
X188458027Y-195093328D01*
X188458027Y-195093328D02*
X188672313Y-195164757D01*
X188672313Y-195164757D02*
X188815170Y-195307614D01*
X188815170Y-195307614D02*
X188886599Y-195450471D01*
X188886599Y-195450471D02*
X188958027Y-195736185D01*
X188958027Y-195736185D02*
X188958027Y-195950471D01*
X188958027Y-195950471D02*
X188886599Y-196236185D01*
X188886599Y-196236185D02*
X188815170Y-196379042D01*
X188815170Y-196379042D02*
X188672313Y-196521900D01*
X188672313Y-196521900D02*
X188458027Y-196593328D01*
X188458027Y-196593328D02*
X188100884Y-196593328D01*
X189600884Y-196450471D02*
X189672313Y-196521900D01*
X189672313Y-196521900D02*
X189600884Y-196593328D01*
X189600884Y-196593328D02*
X189529456Y-196521900D01*
X189529456Y-196521900D02*
X189600884Y-196450471D01*
X189600884Y-196450471D02*
X189600884Y-196593328D01*
X190243742Y-196164757D02*
X190958028Y-196164757D01*
X190100885Y-196593328D02*
X190600885Y-195093328D01*
X190600885Y-195093328D02*
X191100885Y-196593328D01*
X191600884Y-196450471D02*
X191672313Y-196521900D01*
X191672313Y-196521900D02*
X191600884Y-196593328D01*
X191600884Y-196593328D02*
X191529456Y-196521900D01*
X191529456Y-196521900D02*
X191600884Y-196450471D01*
X191600884Y-196450471D02*
X191600884Y-196593328D01*
X193529456Y-196593328D02*
X193815170Y-196593328D01*
X193815170Y-196593328D02*
X193958027Y-196521900D01*
X193958027Y-196521900D02*
X194029456Y-196450471D01*
X194029456Y-196450471D02*
X194172313Y-196236185D01*
X194172313Y-196236185D02*
X194243742Y-195950471D01*
X194243742Y-195950471D02*
X194243742Y-195379042D01*
X194243742Y-195379042D02*
X194172313Y-195236185D01*
X194172313Y-195236185D02*
X194100885Y-195164757D01*
X194100885Y-195164757D02*
X193958027Y-195093328D01*
X193958027Y-195093328D02*
X193672313Y-195093328D01*
X193672313Y-195093328D02*
X193529456Y-195164757D01*
X193529456Y-195164757D02*
X193458027Y-195236185D01*
X193458027Y-195236185D02*
X193386599Y-195379042D01*
X193386599Y-195379042D02*
X193386599Y-195736185D01*
X193386599Y-195736185D02*
X193458027Y-195879042D01*
X193458027Y-195879042D02*
X193529456Y-195950471D01*
X193529456Y-195950471D02*
X193672313Y-196021900D01*
X193672313Y-196021900D02*
X193958027Y-196021900D01*
X193958027Y-196021900D02*
X194100885Y-195950471D01*
X194100885Y-195950471D02*
X194172313Y-195879042D01*
X194172313Y-195879042D02*
X194243742Y-195736185D01*
X194886598Y-196450471D02*
X194958027Y-196521900D01*
X194958027Y-196521900D02*
X194886598Y-196593328D01*
X194886598Y-196593328D02*
X194815170Y-196521900D01*
X194815170Y-196521900D02*
X194886598Y-196450471D01*
X194886598Y-196450471D02*
X194886598Y-196593328D01*
X195886599Y-195093328D02*
X196029456Y-195093328D01*
X196029456Y-195093328D02*
X196172313Y-195164757D01*
X196172313Y-195164757D02*
X196243742Y-195236185D01*
X196243742Y-195236185D02*
X196315170Y-195379042D01*
X196315170Y-195379042D02*
X196386599Y-195664757D01*
X196386599Y-195664757D02*
X196386599Y-196021900D01*
X196386599Y-196021900D02*
X196315170Y-196307614D01*
X196315170Y-196307614D02*
X196243742Y-196450471D01*
X196243742Y-196450471D02*
X196172313Y-196521900D01*
X196172313Y-196521900D02*
X196029456Y-196593328D01*
X196029456Y-196593328D02*
X195886599Y-196593328D01*
X195886599Y-196593328D02*
X195743742Y-196521900D01*
X195743742Y-196521900D02*
X195672313Y-196450471D01*
X195672313Y-196450471D02*
X195600884Y-196307614D01*
X195600884Y-196307614D02*
X195529456Y-196021900D01*
X195529456Y-196021900D02*
X195529456Y-195664757D01*
X195529456Y-195664757D02*
X195600884Y-195379042D01*
X195600884Y-195379042D02*
X195672313Y-195236185D01*
X195672313Y-195236185D02*
X195743742Y-195164757D01*
X195743742Y-195164757D02*
X195886599Y-195093328D01*
X197029455Y-196450471D02*
X197100884Y-196521900D01*
X197100884Y-196521900D02*
X197029455Y-196593328D01*
X197029455Y-196593328D02*
X196958027Y-196521900D01*
X196958027Y-196521900D02*
X197029455Y-196450471D01*
X197029455Y-196450471D02*
X197029455Y-196593328D01*
X198529456Y-196593328D02*
X197672313Y-196593328D01*
X198100884Y-196593328D02*
X198100884Y-195093328D01*
X198100884Y-195093328D02*
X197958027Y-195307614D01*
X197958027Y-195307614D02*
X197815170Y-195450471D01*
X197815170Y-195450471D02*
X197672313Y-195521900D01*
D10*
D11*
X177002200Y-191507200D02*
X285002200Y-191507200D01*
D10*
D12*
X264413853Y-193785528D02*
X263913853Y-193071242D01*
X263556710Y-193785528D02*
X263556710Y-192285528D01*
X263556710Y-192285528D02*
X264128139Y-192285528D01*
X264128139Y-192285528D02*
X264270996Y-192356957D01*
X264270996Y-192356957D02*
X264342425Y-192428385D01*
X264342425Y-192428385D02*
X264413853Y-192571242D01*
X264413853Y-192571242D02*
X264413853Y-192785528D01*
X264413853Y-192785528D02*
X264342425Y-192928385D01*
X264342425Y-192928385D02*
X264270996Y-192999814D01*
X264270996Y-192999814D02*
X264128139Y-193071242D01*
X264128139Y-193071242D02*
X263556710Y-193071242D01*
X265628139Y-193714100D02*
X265485282Y-193785528D01*
X265485282Y-193785528D02*
X265199568Y-193785528D01*
X265199568Y-193785528D02*
X265056710Y-193714100D01*
X265056710Y-193714100D02*
X264985282Y-193571242D01*
X264985282Y-193571242D02*
X264985282Y-192999814D01*
X264985282Y-192999814D02*
X265056710Y-192856957D01*
X265056710Y-192856957D02*
X265199568Y-192785528D01*
X265199568Y-192785528D02*
X265485282Y-192785528D01*
X265485282Y-192785528D02*
X265628139Y-192856957D01*
X265628139Y-192856957D02*
X265699568Y-192999814D01*
X265699568Y-192999814D02*
X265699568Y-193142671D01*
X265699568Y-193142671D02*
X264985282Y-193285528D01*
X266199567Y-192785528D02*
X266556710Y-193785528D01*
X266556710Y-193785528D02*
X266913853Y-192785528D01*
X267485281Y-193642671D02*
X267556710Y-193714100D01*
X267556710Y-193714100D02*
X267485281Y-193785528D01*
X267485281Y-193785528D02*
X267413853Y-193714100D01*
X267413853Y-193714100D02*
X267485281Y-193642671D01*
X267485281Y-193642671D02*
X267485281Y-193785528D01*
X267485281Y-192856957D02*
X267556710Y-192928385D01*
X267556710Y-192928385D02*
X267485281Y-192999814D01*
X267485281Y-192999814D02*
X267413853Y-192928385D01*
X267413853Y-192928385D02*
X267485281Y-192856957D01*
X267485281Y-192856957D02*
X267485281Y-192999814D01*
D10*
D11*
X178386598Y-193721900D02*
X178600884Y-193793328D01*
X178600884Y-193793328D02*
X178958026Y-193793328D01*
X178958026Y-193793328D02*
X179100884Y-193721900D01*
X179100884Y-193721900D02*
X179172312Y-193650471D01*
X179172312Y-193650471D02*
X179243741Y-193507614D01*
X179243741Y-193507614D02*
X179243741Y-193364757D01*
X179243741Y-193364757D02*
X179172312Y-193221900D01*
X179172312Y-193221900D02*
X179100884Y-193150471D01*
X179100884Y-193150471D02*
X178958026Y-193079042D01*
X178958026Y-193079042D02*
X178672312Y-193007614D01*
X178672312Y-193007614D02*
X178529455Y-192936185D01*
X178529455Y-192936185D02*
X178458026Y-192864757D01*
X178458026Y-192864757D02*
X178386598Y-192721900D01*
X178386598Y-192721900D02*
X178386598Y-192579042D01*
X178386598Y-192579042D02*
X178458026Y-192436185D01*
X178458026Y-192436185D02*
X178529455Y-192364757D01*
X178529455Y-192364757D02*
X178672312Y-192293328D01*
X178672312Y-192293328D02*
X179029455Y-192293328D01*
X179029455Y-192293328D02*
X179243741Y-192364757D01*
X179886597Y-193793328D02*
X179886597Y-192793328D01*
X179886597Y-192293328D02*
X179815169Y-192364757D01*
X179815169Y-192364757D02*
X179886597Y-192436185D01*
X179886597Y-192436185D02*
X179958026Y-192364757D01*
X179958026Y-192364757D02*
X179886597Y-192293328D01*
X179886597Y-192293328D02*
X179886597Y-192436185D01*
X180458026Y-192793328D02*
X181243741Y-192793328D01*
X181243741Y-192793328D02*
X180458026Y-193793328D01*
X180458026Y-193793328D02*
X181243741Y-193793328D01*
X182386598Y-193721900D02*
X182243741Y-193793328D01*
X182243741Y-193793328D02*
X181958027Y-193793328D01*
X181958027Y-193793328D02*
X181815169Y-193721900D01*
X181815169Y-193721900D02*
X181743741Y-193579042D01*
X181743741Y-193579042D02*
X181743741Y-193007614D01*
X181743741Y-193007614D02*
X181815169Y-192864757D01*
X181815169Y-192864757D02*
X181958027Y-192793328D01*
X181958027Y-192793328D02*
X182243741Y-192793328D01*
X182243741Y-192793328D02*
X182386598Y-192864757D01*
X182386598Y-192864757D02*
X182458027Y-193007614D01*
X182458027Y-193007614D02*
X182458027Y-193150471D01*
X182458027Y-193150471D02*
X181743741Y-193293328D01*
X183100883Y-193650471D02*
X183172312Y-193721900D01*
X183172312Y-193721900D02*
X183100883Y-193793328D01*
X183100883Y-193793328D02*
X183029455Y-193721900D01*
X183029455Y-193721900D02*
X183100883Y-193650471D01*
X183100883Y-193650471D02*
X183100883Y-193793328D01*
X183100883Y-192864757D02*
X183172312Y-192936185D01*
X183172312Y-192936185D02*
X183100883Y-193007614D01*
X183100883Y-193007614D02*
X183029455Y-192936185D01*
X183029455Y-192936185D02*
X183100883Y-192864757D01*
X183100883Y-192864757D02*
X183100883Y-193007614D01*
X184886598Y-193364757D02*
X185600884Y-193364757D01*
X184743741Y-193793328D02*
X185243741Y-192293328D01*
X185243741Y-192293328D02*
X185743741Y-193793328D01*
X186886598Y-192793328D02*
X186886598Y-193793328D01*
X186529455Y-192221900D02*
X186172312Y-193293328D01*
X186172312Y-193293328D02*
X187100883Y-193293328D01*
D10*
D11*
X263458026Y-196593328D02*
X263458026Y-195093328D01*
X264815170Y-196593328D02*
X264815170Y-195093328D01*
X264815170Y-196521900D02*
X264672312Y-196593328D01*
X264672312Y-196593328D02*
X264386598Y-196593328D01*
X264386598Y-196593328D02*
X264243741Y-196521900D01*
X264243741Y-196521900D02*
X264172312Y-196450471D01*
X264172312Y-196450471D02*
X264100884Y-196307614D01*
X264100884Y-196307614D02*
X264100884Y-195879042D01*
X264100884Y-195879042D02*
X264172312Y-195736185D01*
X264172312Y-195736185D02*
X264243741Y-195664757D01*
X264243741Y-195664757D02*
X264386598Y-195593328D01*
X264386598Y-195593328D02*
X264672312Y-195593328D01*
X264672312Y-195593328D02*
X264815170Y-195664757D01*
X265529455Y-196450471D02*
X265600884Y-196521900D01*
X265600884Y-196521900D02*
X265529455Y-196593328D01*
X265529455Y-196593328D02*
X265458027Y-196521900D01*
X265458027Y-196521900D02*
X265529455Y-196450471D01*
X265529455Y-196450471D02*
X265529455Y-196593328D01*
X265529455Y-195664757D02*
X265600884Y-195736185D01*
X265600884Y-195736185D02*
X265529455Y-195807614D01*
X265529455Y-195807614D02*
X265458027Y-195736185D01*
X265458027Y-195736185D02*
X265529455Y-195664757D01*
X265529455Y-195664757D02*
X265529455Y-195807614D01*
X267600884Y-195736185D02*
X267458027Y-195664757D01*
X267458027Y-195664757D02*
X267386598Y-195593328D01*
X267386598Y-195593328D02*
X267315170Y-195450471D01*
X267315170Y-195450471D02*
X267315170Y-195379042D01*
X267315170Y-195379042D02*
X267386598Y-195236185D01*
X267386598Y-195236185D02*
X267458027Y-195164757D01*
X267458027Y-195164757D02*
X267600884Y-195093328D01*
X267600884Y-195093328D02*
X267886598Y-195093328D01*
X267886598Y-195093328D02*
X268029456Y-195164757D01*
X268029456Y-195164757D02*
X268100884Y-195236185D01*
X268100884Y-195236185D02*
X268172313Y-195379042D01*
X268172313Y-195379042D02*
X268172313Y-195450471D01*
X268172313Y-195450471D02*
X268100884Y-195593328D01*
X268100884Y-195593328D02*
X268029456Y-195664757D01*
X268029456Y-195664757D02*
X267886598Y-195736185D01*
X267886598Y-195736185D02*
X267600884Y-195736185D01*
X267600884Y-195736185D02*
X267458027Y-195807614D01*
X267458027Y-195807614D02*
X267386598Y-195879042D01*
X267386598Y-195879042D02*
X267315170Y-196021900D01*
X267315170Y-196021900D02*
X267315170Y-196307614D01*
X267315170Y-196307614D02*
X267386598Y-196450471D01*
X267386598Y-196450471D02*
X267458027Y-196521900D01*
X267458027Y-196521900D02*
X267600884Y-196593328D01*
X267600884Y-196593328D02*
X267886598Y-196593328D01*
X267886598Y-196593328D02*
X268029456Y-196521900D01*
X268029456Y-196521900D02*
X268100884Y-196450471D01*
X268100884Y-196450471D02*
X268172313Y-196307614D01*
X268172313Y-196307614D02*
X268172313Y-196021900D01*
X268172313Y-196021900D02*
X268100884Y-195879042D01*
X268100884Y-195879042D02*
X268029456Y-195807614D01*
X268029456Y-195807614D02*
X267886598Y-195736185D01*
X269886598Y-195021900D02*
X268600884Y-196950471D01*
X271172313Y-196593328D02*
X270315170Y-196593328D01*
X270743741Y-196593328D02*
X270743741Y-195093328D01*
X270743741Y-195093328D02*
X270600884Y-195307614D01*
X270600884Y-195307614D02*
X270458027Y-195450471D01*
X270458027Y-195450471D02*
X270315170Y-195521900D01*
X272600884Y-196593328D02*
X271743741Y-196593328D01*
X272172312Y-196593328D02*
X272172312Y-195093328D01*
X272172312Y-195093328D02*
X272029455Y-195307614D01*
X272029455Y-195307614D02*
X271886598Y-195450471D01*
X271886598Y-195450471D02*
X271743741Y-195521900D01*
D10*
D11*
X177002200Y-187507200D02*
X285002200Y-187507200D01*
D10*
D13*
X178693928Y-188211638D02*
X179836785Y-188211638D01*
X179015357Y-190211638D02*
X179265357Y-188211638D01*
X180253452Y-190211638D02*
X180420119Y-188878304D01*
X180503452Y-188211638D02*
X180396309Y-188306876D01*
X180396309Y-188306876D02*
X180479643Y-188402114D01*
X180479643Y-188402114D02*
X180586786Y-188306876D01*
X180586786Y-188306876D02*
X180503452Y-188211638D01*
X180503452Y-188211638D02*
X180479643Y-188402114D01*
X181086786Y-188878304D02*
X181848690Y-188878304D01*
X181455833Y-188211638D02*
X181241548Y-189925923D01*
X181241548Y-189925923D02*
X181312976Y-190116400D01*
X181312976Y-190116400D02*
X181491548Y-190211638D01*
X181491548Y-190211638D02*
X181682024Y-190211638D01*
X182634405Y-190211638D02*
X182455833Y-190116400D01*
X182455833Y-190116400D02*
X182384405Y-189925923D01*
X182384405Y-189925923D02*
X182598690Y-188211638D01*
X184170119Y-190116400D02*
X183967738Y-190211638D01*
X183967738Y-190211638D02*
X183586785Y-190211638D01*
X183586785Y-190211638D02*
X183408214Y-190116400D01*
X183408214Y-190116400D02*
X183336785Y-189925923D01*
X183336785Y-189925923D02*
X183432024Y-189164019D01*
X183432024Y-189164019D02*
X183551071Y-188973542D01*
X183551071Y-188973542D02*
X183753452Y-188878304D01*
X183753452Y-188878304D02*
X184134404Y-188878304D01*
X184134404Y-188878304D02*
X184312976Y-188973542D01*
X184312976Y-188973542D02*
X184384404Y-189164019D01*
X184384404Y-189164019D02*
X184360595Y-189354495D01*
X184360595Y-189354495D02*
X183384404Y-189544971D01*
X185134405Y-190021161D02*
X185217738Y-190116400D01*
X185217738Y-190116400D02*
X185110595Y-190211638D01*
X185110595Y-190211638D02*
X185027262Y-190116400D01*
X185027262Y-190116400D02*
X185134405Y-190021161D01*
X185134405Y-190021161D02*
X185110595Y-190211638D01*
X185265357Y-188973542D02*
X185348690Y-189068780D01*
X185348690Y-189068780D02*
X185241548Y-189164019D01*
X185241548Y-189164019D02*
X185158214Y-189068780D01*
X185158214Y-189068780D02*
X185265357Y-188973542D01*
X185265357Y-188973542D02*
X185241548Y-189164019D01*
D10*
D11*
X178958026Y-185607614D02*
X178458026Y-185607614D01*
X178458026Y-186393328D02*
X178458026Y-184893328D01*
X178458026Y-184893328D02*
X179172312Y-184893328D01*
X179743740Y-186393328D02*
X179743740Y-185393328D01*
X179743740Y-184893328D02*
X179672312Y-184964757D01*
X179672312Y-184964757D02*
X179743740Y-185036185D01*
X179743740Y-185036185D02*
X179815169Y-184964757D01*
X179815169Y-184964757D02*
X179743740Y-184893328D01*
X179743740Y-184893328D02*
X179743740Y-185036185D01*
X180672312Y-186393328D02*
X180529455Y-186321900D01*
X180529455Y-186321900D02*
X180458026Y-186179042D01*
X180458026Y-186179042D02*
X180458026Y-184893328D01*
X181815169Y-186321900D02*
X181672312Y-186393328D01*
X181672312Y-186393328D02*
X181386598Y-186393328D01*
X181386598Y-186393328D02*
X181243740Y-186321900D01*
X181243740Y-186321900D02*
X181172312Y-186179042D01*
X181172312Y-186179042D02*
X181172312Y-185607614D01*
X181172312Y-185607614D02*
X181243740Y-185464757D01*
X181243740Y-185464757D02*
X181386598Y-185393328D01*
X181386598Y-185393328D02*
X181672312Y-185393328D01*
X181672312Y-185393328D02*
X181815169Y-185464757D01*
X181815169Y-185464757D02*
X181886598Y-185607614D01*
X181886598Y-185607614D02*
X181886598Y-185750471D01*
X181886598Y-185750471D02*
X181172312Y-185893328D01*
X182529454Y-186250471D02*
X182600883Y-186321900D01*
X182600883Y-186321900D02*
X182529454Y-186393328D01*
X182529454Y-186393328D02*
X182458026Y-186321900D01*
X182458026Y-186321900D02*
X182529454Y-186250471D01*
X182529454Y-186250471D02*
X182529454Y-186393328D01*
X182529454Y-185464757D02*
X182600883Y-185536185D01*
X182600883Y-185536185D02*
X182529454Y-185607614D01*
X182529454Y-185607614D02*
X182458026Y-185536185D01*
X182458026Y-185536185D02*
X182529454Y-185464757D01*
X182529454Y-185464757D02*
X182529454Y-185607614D01*
X184243740Y-186393328D02*
X185029455Y-185393328D01*
X184243740Y-185393328D02*
X185029455Y-186393328D01*
X186100883Y-185607614D02*
X186315169Y-185679042D01*
X186315169Y-185679042D02*
X186386598Y-185750471D01*
X186386598Y-185750471D02*
X186458026Y-185893328D01*
X186458026Y-185893328D02*
X186458026Y-186107614D01*
X186458026Y-186107614D02*
X186386598Y-186250471D01*
X186386598Y-186250471D02*
X186315169Y-186321900D01*
X186315169Y-186321900D02*
X186172312Y-186393328D01*
X186172312Y-186393328D02*
X185600883Y-186393328D01*
X185600883Y-186393328D02*
X185600883Y-184893328D01*
X185600883Y-184893328D02*
X186100883Y-184893328D01*
X186100883Y-184893328D02*
X186243741Y-184964757D01*
X186243741Y-184964757D02*
X186315169Y-185036185D01*
X186315169Y-185036185D02*
X186386598Y-185179042D01*
X186386598Y-185179042D02*
X186386598Y-185321900D01*
X186386598Y-185321900D02*
X186315169Y-185464757D01*
X186315169Y-185464757D02*
X186243741Y-185536185D01*
X186243741Y-185536185D02*
X186100883Y-185607614D01*
X186100883Y-185607614D02*
X185600883Y-185607614D01*
X187315169Y-186393328D02*
X187172312Y-186321900D01*
X187172312Y-186321900D02*
X187100883Y-186250471D01*
X187100883Y-186250471D02*
X187029455Y-186107614D01*
X187029455Y-186107614D02*
X187029455Y-185679042D01*
X187029455Y-185679042D02*
X187100883Y-185536185D01*
X187100883Y-185536185D02*
X187172312Y-185464757D01*
X187172312Y-185464757D02*
X187315169Y-185393328D01*
X187315169Y-185393328D02*
X187529455Y-185393328D01*
X187529455Y-185393328D02*
X187672312Y-185464757D01*
X187672312Y-185464757D02*
X187743741Y-185536185D01*
X187743741Y-185536185D02*
X187815169Y-185679042D01*
X187815169Y-185679042D02*
X187815169Y-186107614D01*
X187815169Y-186107614D02*
X187743741Y-186250471D01*
X187743741Y-186250471D02*
X187672312Y-186321900D01*
X187672312Y-186321900D02*
X187529455Y-186393328D01*
X187529455Y-186393328D02*
X187315169Y-186393328D01*
X188315169Y-185393328D02*
X188600884Y-186393328D01*
X188600884Y-186393328D02*
X188886598Y-185679042D01*
X188886598Y-185679042D02*
X189172312Y-186393328D01*
X189172312Y-186393328D02*
X189458026Y-185393328D01*
X189815170Y-185393328D02*
X190386598Y-185393328D01*
X190029455Y-184893328D02*
X190029455Y-186179042D01*
X190029455Y-186179042D02*
X190100884Y-186321900D01*
X190100884Y-186321900D02*
X190243741Y-186393328D01*
X190243741Y-186393328D02*
X190386598Y-186393328D01*
X190886598Y-186393328D02*
X190886598Y-185393328D01*
X190886598Y-184893328D02*
X190815170Y-184964757D01*
X190815170Y-184964757D02*
X190886598Y-185036185D01*
X190886598Y-185036185D02*
X190958027Y-184964757D01*
X190958027Y-184964757D02*
X190886598Y-184893328D01*
X190886598Y-184893328D02*
X190886598Y-185036185D01*
X192172313Y-186321900D02*
X192029456Y-186393328D01*
X192029456Y-186393328D02*
X191743742Y-186393328D01*
X191743742Y-186393328D02*
X191600884Y-186321900D01*
X191600884Y-186321900D02*
X191529456Y-186179042D01*
X191529456Y-186179042D02*
X191529456Y-185607614D01*
X191529456Y-185607614D02*
X191600884Y-185464757D01*
X191600884Y-185464757D02*
X191743742Y-185393328D01*
X191743742Y-185393328D02*
X192029456Y-185393328D01*
X192029456Y-185393328D02*
X192172313Y-185464757D01*
X192172313Y-185464757D02*
X192243742Y-185607614D01*
X192243742Y-185607614D02*
X192243742Y-185750471D01*
X192243742Y-185750471D02*
X191529456Y-185893328D01*
X194029455Y-185607614D02*
X194529455Y-185607614D01*
X194743741Y-186393328D02*
X194029455Y-186393328D01*
X194029455Y-186393328D02*
X194029455Y-184893328D01*
X194029455Y-184893328D02*
X194743741Y-184893328D01*
X196029456Y-185393328D02*
X196029456Y-186607614D01*
X196029456Y-186607614D02*
X195958027Y-186750471D01*
X195958027Y-186750471D02*
X195886598Y-186821900D01*
X195886598Y-186821900D02*
X195743741Y-186893328D01*
X195743741Y-186893328D02*
X195529456Y-186893328D01*
X195529456Y-186893328D02*
X195386598Y-186821900D01*
X196029456Y-186321900D02*
X195886598Y-186393328D01*
X195886598Y-186393328D02*
X195600884Y-186393328D01*
X195600884Y-186393328D02*
X195458027Y-186321900D01*
X195458027Y-186321900D02*
X195386598Y-186250471D01*
X195386598Y-186250471D02*
X195315170Y-186107614D01*
X195315170Y-186107614D02*
X195315170Y-185679042D01*
X195315170Y-185679042D02*
X195386598Y-185536185D01*
X195386598Y-185536185D02*
X195458027Y-185464757D01*
X195458027Y-185464757D02*
X195600884Y-185393328D01*
X195600884Y-185393328D02*
X195886598Y-185393328D01*
X195886598Y-185393328D02*
X196029456Y-185464757D01*
X195386598Y-184821900D02*
X195458027Y-184964757D01*
X195458027Y-184964757D02*
X195600884Y-185036185D01*
X195600884Y-185036185D02*
X195743741Y-185036185D01*
X195743741Y-185036185D02*
X195886598Y-184964757D01*
X195886598Y-184964757D02*
X195958027Y-184821900D01*
X196743741Y-186393328D02*
X196743741Y-185393328D01*
X196743741Y-184893328D02*
X196672313Y-184964757D01*
X196672313Y-184964757D02*
X196743741Y-185036185D01*
X196743741Y-185036185D02*
X196815170Y-184964757D01*
X196815170Y-184964757D02*
X196743741Y-184893328D01*
X196743741Y-184893328D02*
X196743741Y-185036185D01*
X197243742Y-185393328D02*
X197815170Y-185393328D01*
X197458027Y-184893328D02*
X197458027Y-186179042D01*
X197458027Y-186179042D02*
X197529456Y-186321900D01*
X197529456Y-186321900D02*
X197672313Y-186393328D01*
X197672313Y-186393328D02*
X197815170Y-186393328D01*
X198315170Y-186393328D02*
X198315170Y-185393328D01*
X198315170Y-184893328D02*
X198243742Y-184964757D01*
X198243742Y-184964757D02*
X198315170Y-185036185D01*
X198315170Y-185036185D02*
X198386599Y-184964757D01*
X198386599Y-184964757D02*
X198315170Y-184893328D01*
X198315170Y-184893328D02*
X198315170Y-185036185D01*
X199029456Y-186393328D02*
X199029456Y-185393328D01*
X199029456Y-185536185D02*
X199100885Y-185464757D01*
X199100885Y-185464757D02*
X199243742Y-185393328D01*
X199243742Y-185393328D02*
X199458028Y-185393328D01*
X199458028Y-185393328D02*
X199600885Y-185464757D01*
X199600885Y-185464757D02*
X199672314Y-185607614D01*
X199672314Y-185607614D02*
X199672314Y-186393328D01*
X199672314Y-185607614D02*
X199743742Y-185464757D01*
X199743742Y-185464757D02*
X199886599Y-185393328D01*
X199886599Y-185393328D02*
X200100885Y-185393328D01*
X200100885Y-185393328D02*
X200243742Y-185464757D01*
X200243742Y-185464757D02*
X200315171Y-185607614D01*
X200315171Y-185607614D02*
X200315171Y-186393328D01*
X201029456Y-186250471D02*
X201100885Y-186321900D01*
X201100885Y-186321900D02*
X201029456Y-186393328D01*
X201029456Y-186393328D02*
X200958028Y-186321900D01*
X200958028Y-186321900D02*
X201029456Y-186250471D01*
X201029456Y-186250471D02*
X201029456Y-186393328D01*
X201743742Y-186393328D02*
X201743742Y-184893328D01*
X201886600Y-185821900D02*
X202315171Y-186393328D01*
X202315171Y-185393328D02*
X201743742Y-185964757D01*
X202958028Y-186393328D02*
X202958028Y-185393328D01*
X202958028Y-184893328D02*
X202886600Y-184964757D01*
X202886600Y-184964757D02*
X202958028Y-185036185D01*
X202958028Y-185036185D02*
X203029457Y-184964757D01*
X203029457Y-184964757D02*
X202958028Y-184893328D01*
X202958028Y-184893328D02*
X202958028Y-185036185D01*
X204315172Y-186321900D02*
X204172314Y-186393328D01*
X204172314Y-186393328D02*
X203886600Y-186393328D01*
X203886600Y-186393328D02*
X203743743Y-186321900D01*
X203743743Y-186321900D02*
X203672314Y-186250471D01*
X203672314Y-186250471D02*
X203600886Y-186107614D01*
X203600886Y-186107614D02*
X203600886Y-185679042D01*
X203600886Y-185679042D02*
X203672314Y-185536185D01*
X203672314Y-185536185D02*
X203743743Y-185464757D01*
X203743743Y-185464757D02*
X203886600Y-185393328D01*
X203886600Y-185393328D02*
X204172314Y-185393328D01*
X204172314Y-185393328D02*
X204315172Y-185464757D01*
X205600886Y-186393328D02*
X205600886Y-185607614D01*
X205600886Y-185607614D02*
X205529457Y-185464757D01*
X205529457Y-185464757D02*
X205386600Y-185393328D01*
X205386600Y-185393328D02*
X205100886Y-185393328D01*
X205100886Y-185393328D02*
X204958028Y-185464757D01*
X205600886Y-186321900D02*
X205458028Y-186393328D01*
X205458028Y-186393328D02*
X205100886Y-186393328D01*
X205100886Y-186393328D02*
X204958028Y-186321900D01*
X204958028Y-186321900D02*
X204886600Y-186179042D01*
X204886600Y-186179042D02*
X204886600Y-186036185D01*
X204886600Y-186036185D02*
X204958028Y-185893328D01*
X204958028Y-185893328D02*
X205100886Y-185821900D01*
X205100886Y-185821900D02*
X205458028Y-185821900D01*
X205458028Y-185821900D02*
X205600886Y-185750471D01*
X206958029Y-186393328D02*
X206958029Y-184893328D01*
X206958029Y-186321900D02*
X206815171Y-186393328D01*
X206815171Y-186393328D02*
X206529457Y-186393328D01*
X206529457Y-186393328D02*
X206386600Y-186321900D01*
X206386600Y-186321900D02*
X206315171Y-186250471D01*
X206315171Y-186250471D02*
X206243743Y-186107614D01*
X206243743Y-186107614D02*
X206243743Y-185679042D01*
X206243743Y-185679042D02*
X206315171Y-185536185D01*
X206315171Y-185536185D02*
X206386600Y-185464757D01*
X206386600Y-185464757D02*
X206529457Y-185393328D01*
X206529457Y-185393328D02*
X206815171Y-185393328D01*
X206815171Y-185393328D02*
X206958029Y-185464757D01*
X207315172Y-186536185D02*
X208458029Y-186536185D01*
X208815171Y-185393328D02*
X208815171Y-186893328D01*
X208815171Y-185464757D02*
X208958029Y-185393328D01*
X208958029Y-185393328D02*
X209243743Y-185393328D01*
X209243743Y-185393328D02*
X209386600Y-185464757D01*
X209386600Y-185464757D02*
X209458029Y-185536185D01*
X209458029Y-185536185D02*
X209529457Y-185679042D01*
X209529457Y-185679042D02*
X209529457Y-186107614D01*
X209529457Y-186107614D02*
X209458029Y-186250471D01*
X209458029Y-186250471D02*
X209386600Y-186321900D01*
X209386600Y-186321900D02*
X209243743Y-186393328D01*
X209243743Y-186393328D02*
X208958029Y-186393328D01*
X208958029Y-186393328D02*
X208815171Y-186321900D01*
X210815172Y-186321900D02*
X210672314Y-186393328D01*
X210672314Y-186393328D02*
X210386600Y-186393328D01*
X210386600Y-186393328D02*
X210243743Y-186321900D01*
X210243743Y-186321900D02*
X210172314Y-186250471D01*
X210172314Y-186250471D02*
X210100886Y-186107614D01*
X210100886Y-186107614D02*
X210100886Y-185679042D01*
X210100886Y-185679042D02*
X210172314Y-185536185D01*
X210172314Y-185536185D02*
X210243743Y-185464757D01*
X210243743Y-185464757D02*
X210386600Y-185393328D01*
X210386600Y-185393328D02*
X210672314Y-185393328D01*
X210672314Y-185393328D02*
X210815172Y-185464757D01*
X211458028Y-186393328D02*
X211458028Y-184893328D01*
X211458028Y-185464757D02*
X211600886Y-185393328D01*
X211600886Y-185393328D02*
X211886600Y-185393328D01*
X211886600Y-185393328D02*
X212029457Y-185464757D01*
X212029457Y-185464757D02*
X212100886Y-185536185D01*
X212100886Y-185536185D02*
X212172314Y-185679042D01*
X212172314Y-185679042D02*
X212172314Y-186107614D01*
X212172314Y-186107614D02*
X212100886Y-186250471D01*
X212100886Y-186250471D02*
X212029457Y-186321900D01*
X212029457Y-186321900D02*
X211886600Y-186393328D01*
X211886600Y-186393328D02*
X211600886Y-186393328D01*
X211600886Y-186393328D02*
X211458028Y-186321900D01*
D10*
D11*
X177002200Y-181507200D02*
X285002200Y-181507200D01*
D10*
D11*
X178386598Y-183621900D02*
X178600884Y-183693328D01*
X178600884Y-183693328D02*
X178958026Y-183693328D01*
X178958026Y-183693328D02*
X179100884Y-183621900D01*
X179100884Y-183621900D02*
X179172312Y-183550471D01*
X179172312Y-183550471D02*
X179243741Y-183407614D01*
X179243741Y-183407614D02*
X179243741Y-183264757D01*
X179243741Y-183264757D02*
X179172312Y-183121900D01*
X179172312Y-183121900D02*
X179100884Y-183050471D01*
X179100884Y-183050471D02*
X178958026Y-182979042D01*
X178958026Y-182979042D02*
X178672312Y-182907614D01*
X178672312Y-182907614D02*
X178529455Y-182836185D01*
X178529455Y-182836185D02*
X178458026Y-182764757D01*
X178458026Y-182764757D02*
X178386598Y-182621900D01*
X178386598Y-182621900D02*
X178386598Y-182479042D01*
X178386598Y-182479042D02*
X178458026Y-182336185D01*
X178458026Y-182336185D02*
X178529455Y-182264757D01*
X178529455Y-182264757D02*
X178672312Y-182193328D01*
X178672312Y-182193328D02*
X179029455Y-182193328D01*
X179029455Y-182193328D02*
X179243741Y-182264757D01*
X179886597Y-183693328D02*
X179886597Y-182193328D01*
X180529455Y-183693328D02*
X180529455Y-182907614D01*
X180529455Y-182907614D02*
X180458026Y-182764757D01*
X180458026Y-182764757D02*
X180315169Y-182693328D01*
X180315169Y-182693328D02*
X180100883Y-182693328D01*
X180100883Y-182693328D02*
X179958026Y-182764757D01*
X179958026Y-182764757D02*
X179886597Y-182836185D01*
X181815169Y-183621900D02*
X181672312Y-183693328D01*
X181672312Y-183693328D02*
X181386598Y-183693328D01*
X181386598Y-183693328D02*
X181243740Y-183621900D01*
X181243740Y-183621900D02*
X181172312Y-183479042D01*
X181172312Y-183479042D02*
X181172312Y-182907614D01*
X181172312Y-182907614D02*
X181243740Y-182764757D01*
X181243740Y-182764757D02*
X181386598Y-182693328D01*
X181386598Y-182693328D02*
X181672312Y-182693328D01*
X181672312Y-182693328D02*
X181815169Y-182764757D01*
X181815169Y-182764757D02*
X181886598Y-182907614D01*
X181886598Y-182907614D02*
X181886598Y-183050471D01*
X181886598Y-183050471D02*
X181172312Y-183193328D01*
X183100883Y-183621900D02*
X182958026Y-183693328D01*
X182958026Y-183693328D02*
X182672312Y-183693328D01*
X182672312Y-183693328D02*
X182529454Y-183621900D01*
X182529454Y-183621900D02*
X182458026Y-183479042D01*
X182458026Y-183479042D02*
X182458026Y-182907614D01*
X182458026Y-182907614D02*
X182529454Y-182764757D01*
X182529454Y-182764757D02*
X182672312Y-182693328D01*
X182672312Y-182693328D02*
X182958026Y-182693328D01*
X182958026Y-182693328D02*
X183100883Y-182764757D01*
X183100883Y-182764757D02*
X183172312Y-182907614D01*
X183172312Y-182907614D02*
X183172312Y-183050471D01*
X183172312Y-183050471D02*
X182458026Y-183193328D01*
X183600883Y-182693328D02*
X184172311Y-182693328D01*
X183815168Y-182193328D02*
X183815168Y-183479042D01*
X183815168Y-183479042D02*
X183886597Y-183621900D01*
X183886597Y-183621900D02*
X184029454Y-183693328D01*
X184029454Y-183693328D02*
X184172311Y-183693328D01*
X184672311Y-183550471D02*
X184743740Y-183621900D01*
X184743740Y-183621900D02*
X184672311Y-183693328D01*
X184672311Y-183693328D02*
X184600883Y-183621900D01*
X184600883Y-183621900D02*
X184672311Y-183550471D01*
X184672311Y-183550471D02*
X184672311Y-183693328D01*
X184672311Y-182764757D02*
X184743740Y-182836185D01*
X184743740Y-182836185D02*
X184672311Y-182907614D01*
X184672311Y-182907614D02*
X184600883Y-182836185D01*
X184600883Y-182836185D02*
X184672311Y-182764757D01*
X184672311Y-182764757D02*
X184672311Y-182907614D01*
D10*
D11*
X197002200Y-191507200D02*
X197002200Y-194507200D01*
D10*
D11*
X261002200Y-191507200D02*
X261002200Y-198007200D01*
D10*
X154796428Y-120076109D02*
X154963094Y-119838014D01*
X155082142Y-120076109D02*
X155082142Y-119576109D01*
X155082142Y-119576109D02*
X154891666Y-119576109D01*
X154891666Y-119576109D02*
X154844047Y-119599919D01*
X154844047Y-119599919D02*
X154820237Y-119623728D01*
X154820237Y-119623728D02*
X154796428Y-119671347D01*
X154796428Y-119671347D02*
X154796428Y-119742776D01*
X154796428Y-119742776D02*
X154820237Y-119790395D01*
X154820237Y-119790395D02*
X154844047Y-119814204D01*
X154844047Y-119814204D02*
X154891666Y-119838014D01*
X154891666Y-119838014D02*
X155082142Y-119838014D01*
X154629761Y-119576109D02*
X154320237Y-119576109D01*
X154320237Y-119576109D02*
X154486904Y-119766585D01*
X154486904Y-119766585D02*
X154415475Y-119766585D01*
X154415475Y-119766585D02*
X154367856Y-119790395D01*
X154367856Y-119790395D02*
X154344047Y-119814204D01*
X154344047Y-119814204D02*
X154320237Y-119861823D01*
X154320237Y-119861823D02*
X154320237Y-119980871D01*
X154320237Y-119980871D02*
X154344047Y-120028490D01*
X154344047Y-120028490D02*
X154367856Y-120052300D01*
X154367856Y-120052300D02*
X154415475Y-120076109D01*
X154415475Y-120076109D02*
X154558332Y-120076109D01*
X154558332Y-120076109D02*
X154605951Y-120052300D01*
X154605951Y-120052300D02*
X154629761Y-120028490D01*
X153891666Y-119742776D02*
X153891666Y-120076109D01*
X154010714Y-119552300D02*
X154129761Y-119909442D01*
X154129761Y-119909442D02*
X153820238Y-119909442D01*
X170628490Y-128953571D02*
X170652300Y-128929762D01*
X170652300Y-128929762D02*
X170676109Y-128858333D01*
X170676109Y-128858333D02*
X170676109Y-128810714D01*
X170676109Y-128810714D02*
X170652300Y-128739286D01*
X170652300Y-128739286D02*
X170604680Y-128691667D01*
X170604680Y-128691667D02*
X170557061Y-128667857D01*
X170557061Y-128667857D02*
X170461823Y-128644048D01*
X170461823Y-128644048D02*
X170390395Y-128644048D01*
X170390395Y-128644048D02*
X170295157Y-128667857D01*
X170295157Y-128667857D02*
X170247538Y-128691667D01*
X170247538Y-128691667D02*
X170199919Y-128739286D01*
X170199919Y-128739286D02*
X170176109Y-128810714D01*
X170176109Y-128810714D02*
X170176109Y-128858333D01*
X170176109Y-128858333D02*
X170199919Y-128929762D01*
X170199919Y-128929762D02*
X170223728Y-128953571D01*
X170176109Y-129120238D02*
X170176109Y-129429762D01*
X170176109Y-129429762D02*
X170366585Y-129263095D01*
X170366585Y-129263095D02*
X170366585Y-129334524D01*
X170366585Y-129334524D02*
X170390395Y-129382143D01*
X170390395Y-129382143D02*
X170414204Y-129405952D01*
X170414204Y-129405952D02*
X170461823Y-129429762D01*
X170461823Y-129429762D02*
X170580871Y-129429762D01*
X170580871Y-129429762D02*
X170628490Y-129405952D01*
X170628490Y-129405952D02*
X170652300Y-129382143D01*
X170652300Y-129382143D02*
X170676109Y-129334524D01*
X170676109Y-129334524D02*
X170676109Y-129191667D01*
X170676109Y-129191667D02*
X170652300Y-129144048D01*
X170652300Y-129144048D02*
X170628490Y-129120238D01*
X170176109Y-129858333D02*
X170176109Y-129763095D01*
X170176109Y-129763095D02*
X170199919Y-129715476D01*
X170199919Y-129715476D02*
X170223728Y-129691666D01*
X170223728Y-129691666D02*
X170295157Y-129644047D01*
X170295157Y-129644047D02*
X170390395Y-129620238D01*
X170390395Y-129620238D02*
X170580871Y-129620238D01*
X170580871Y-129620238D02*
X170628490Y-129644047D01*
X170628490Y-129644047D02*
X170652300Y-129667857D01*
X170652300Y-129667857D02*
X170676109Y-129715476D01*
X170676109Y-129715476D02*
X170676109Y-129810714D01*
X170676109Y-129810714D02*
X170652300Y-129858333D01*
X170652300Y-129858333D02*
X170628490Y-129882142D01*
X170628490Y-129882142D02*
X170580871Y-129905952D01*
X170580871Y-129905952D02*
X170461823Y-129905952D01*
X170461823Y-129905952D02*
X170414204Y-129882142D01*
X170414204Y-129882142D02*
X170390395Y-129858333D01*
X170390395Y-129858333D02*
X170366585Y-129810714D01*
X170366585Y-129810714D02*
X170366585Y-129715476D01*
X170366585Y-129715476D02*
X170390395Y-129667857D01*
X170390395Y-129667857D02*
X170414204Y-129644047D01*
X170414204Y-129644047D02*
X170461823Y-129620238D01*
X170417856Y-135026109D02*
X170132142Y-135026109D01*
X170274999Y-135526109D02*
X170274999Y-135026109D01*
X169965476Y-135526109D02*
X169965476Y-135026109D01*
X169965476Y-135264204D02*
X169679762Y-135264204D01*
X169679762Y-135526109D02*
X169679762Y-135026109D01*
X169179761Y-135526109D02*
X169465475Y-135526109D01*
X169322618Y-135526109D02*
X169322618Y-135026109D01*
X169322618Y-135026109D02*
X169370237Y-135097538D01*
X169370237Y-135097538D02*
X169417856Y-135145157D01*
X169417856Y-135145157D02*
X169465475Y-135168966D01*
X162946428Y-116551109D02*
X163113094Y-116313014D01*
X163232142Y-116551109D02*
X163232142Y-116051109D01*
X163232142Y-116051109D02*
X163041666Y-116051109D01*
X163041666Y-116051109D02*
X162994047Y-116074919D01*
X162994047Y-116074919D02*
X162970237Y-116098728D01*
X162970237Y-116098728D02*
X162946428Y-116146347D01*
X162946428Y-116146347D02*
X162946428Y-116217776D01*
X162946428Y-116217776D02*
X162970237Y-116265395D01*
X162970237Y-116265395D02*
X162994047Y-116289204D01*
X162994047Y-116289204D02*
X163041666Y-116313014D01*
X163041666Y-116313014D02*
X163232142Y-116313014D01*
X162779761Y-116051109D02*
X162470237Y-116051109D01*
X162470237Y-116051109D02*
X162636904Y-116241585D01*
X162636904Y-116241585D02*
X162565475Y-116241585D01*
X162565475Y-116241585D02*
X162517856Y-116265395D01*
X162517856Y-116265395D02*
X162494047Y-116289204D01*
X162494047Y-116289204D02*
X162470237Y-116336823D01*
X162470237Y-116336823D02*
X162470237Y-116455871D01*
X162470237Y-116455871D02*
X162494047Y-116503490D01*
X162494047Y-116503490D02*
X162517856Y-116527300D01*
X162517856Y-116527300D02*
X162565475Y-116551109D01*
X162565475Y-116551109D02*
X162708332Y-116551109D01*
X162708332Y-116551109D02*
X162755951Y-116527300D01*
X162755951Y-116527300D02*
X162779761Y-116503490D01*
X162303571Y-116051109D02*
X161970238Y-116051109D01*
X161970238Y-116051109D02*
X162184523Y-116551109D01*
X160721428Y-116551109D02*
X160888094Y-116313014D01*
X161007142Y-116551109D02*
X161007142Y-116051109D01*
X161007142Y-116051109D02*
X160816666Y-116051109D01*
X160816666Y-116051109D02*
X160769047Y-116074919D01*
X160769047Y-116074919D02*
X160745237Y-116098728D01*
X160745237Y-116098728D02*
X160721428Y-116146347D01*
X160721428Y-116146347D02*
X160721428Y-116217776D01*
X160721428Y-116217776D02*
X160745237Y-116265395D01*
X160745237Y-116265395D02*
X160769047Y-116289204D01*
X160769047Y-116289204D02*
X160816666Y-116313014D01*
X160816666Y-116313014D02*
X161007142Y-116313014D01*
X160554761Y-116051109D02*
X160245237Y-116051109D01*
X160245237Y-116051109D02*
X160411904Y-116241585D01*
X160411904Y-116241585D02*
X160340475Y-116241585D01*
X160340475Y-116241585D02*
X160292856Y-116265395D01*
X160292856Y-116265395D02*
X160269047Y-116289204D01*
X160269047Y-116289204D02*
X160245237Y-116336823D01*
X160245237Y-116336823D02*
X160245237Y-116455871D01*
X160245237Y-116455871D02*
X160269047Y-116503490D01*
X160269047Y-116503490D02*
X160292856Y-116527300D01*
X160292856Y-116527300D02*
X160340475Y-116551109D01*
X160340475Y-116551109D02*
X160483332Y-116551109D01*
X160483332Y-116551109D02*
X160530951Y-116527300D01*
X160530951Y-116527300D02*
X160554761Y-116503490D01*
X159959523Y-116265395D02*
X160007142Y-116241585D01*
X160007142Y-116241585D02*
X160030952Y-116217776D01*
X160030952Y-116217776D02*
X160054761Y-116170157D01*
X160054761Y-116170157D02*
X160054761Y-116146347D01*
X160054761Y-116146347D02*
X160030952Y-116098728D01*
X160030952Y-116098728D02*
X160007142Y-116074919D01*
X160007142Y-116074919D02*
X159959523Y-116051109D01*
X159959523Y-116051109D02*
X159864285Y-116051109D01*
X159864285Y-116051109D02*
X159816666Y-116074919D01*
X159816666Y-116074919D02*
X159792857Y-116098728D01*
X159792857Y-116098728D02*
X159769047Y-116146347D01*
X159769047Y-116146347D02*
X159769047Y-116170157D01*
X159769047Y-116170157D02*
X159792857Y-116217776D01*
X159792857Y-116217776D02*
X159816666Y-116241585D01*
X159816666Y-116241585D02*
X159864285Y-116265395D01*
X159864285Y-116265395D02*
X159959523Y-116265395D01*
X159959523Y-116265395D02*
X160007142Y-116289204D01*
X160007142Y-116289204D02*
X160030952Y-116313014D01*
X160030952Y-116313014D02*
X160054761Y-116360633D01*
X160054761Y-116360633D02*
X160054761Y-116455871D01*
X160054761Y-116455871D02*
X160030952Y-116503490D01*
X160030952Y-116503490D02*
X160007142Y-116527300D01*
X160007142Y-116527300D02*
X159959523Y-116551109D01*
X159959523Y-116551109D02*
X159864285Y-116551109D01*
X159864285Y-116551109D02*
X159816666Y-116527300D01*
X159816666Y-116527300D02*
X159792857Y-116503490D01*
X159792857Y-116503490D02*
X159769047Y-116455871D01*
X159769047Y-116455871D02*
X159769047Y-116360633D01*
X159769047Y-116360633D02*
X159792857Y-116313014D01*
X159792857Y-116313014D02*
X159816666Y-116289204D01*
X159816666Y-116289204D02*
X159864285Y-116265395D01*
X162746428Y-130973490D02*
X162770237Y-130997300D01*
X162770237Y-130997300D02*
X162841666Y-131021109D01*
X162841666Y-131021109D02*
X162889285Y-131021109D01*
X162889285Y-131021109D02*
X162960713Y-130997300D01*
X162960713Y-130997300D02*
X163008332Y-130949680D01*
X163008332Y-130949680D02*
X163032142Y-130902061D01*
X163032142Y-130902061D02*
X163055951Y-130806823D01*
X163055951Y-130806823D02*
X163055951Y-130735395D01*
X163055951Y-130735395D02*
X163032142Y-130640157D01*
X163032142Y-130640157D02*
X163008332Y-130592538D01*
X163008332Y-130592538D02*
X162960713Y-130544919D01*
X162960713Y-130544919D02*
X162889285Y-130521109D01*
X162889285Y-130521109D02*
X162841666Y-130521109D01*
X162841666Y-130521109D02*
X162770237Y-130544919D01*
X162770237Y-130544919D02*
X162746428Y-130568728D01*
X162579761Y-130521109D02*
X162270237Y-130521109D01*
X162270237Y-130521109D02*
X162436904Y-130711585D01*
X162436904Y-130711585D02*
X162365475Y-130711585D01*
X162365475Y-130711585D02*
X162317856Y-130735395D01*
X162317856Y-130735395D02*
X162294047Y-130759204D01*
X162294047Y-130759204D02*
X162270237Y-130806823D01*
X162270237Y-130806823D02*
X162270237Y-130925871D01*
X162270237Y-130925871D02*
X162294047Y-130973490D01*
X162294047Y-130973490D02*
X162317856Y-130997300D01*
X162317856Y-130997300D02*
X162365475Y-131021109D01*
X162365475Y-131021109D02*
X162508332Y-131021109D01*
X162508332Y-131021109D02*
X162555951Y-130997300D01*
X162555951Y-130997300D02*
X162579761Y-130973490D01*
X162079761Y-130568728D02*
X162055952Y-130544919D01*
X162055952Y-130544919D02*
X162008333Y-130521109D01*
X162008333Y-130521109D02*
X161889285Y-130521109D01*
X161889285Y-130521109D02*
X161841666Y-130544919D01*
X161841666Y-130544919D02*
X161817857Y-130568728D01*
X161817857Y-130568728D02*
X161794047Y-130616347D01*
X161794047Y-130616347D02*
X161794047Y-130663966D01*
X161794047Y-130663966D02*
X161817857Y-130735395D01*
X161817857Y-130735395D02*
X162103571Y-131021109D01*
X162103571Y-131021109D02*
X161794047Y-131021109D01*
X156844047Y-128876109D02*
X156844047Y-128376109D01*
X156844047Y-128376109D02*
X156724999Y-128376109D01*
X156724999Y-128376109D02*
X156653571Y-128399919D01*
X156653571Y-128399919D02*
X156605952Y-128447538D01*
X156605952Y-128447538D02*
X156582142Y-128495157D01*
X156582142Y-128495157D02*
X156558333Y-128590395D01*
X156558333Y-128590395D02*
X156558333Y-128661823D01*
X156558333Y-128661823D02*
X156582142Y-128757061D01*
X156582142Y-128757061D02*
X156605952Y-128804680D01*
X156605952Y-128804680D02*
X156653571Y-128852300D01*
X156653571Y-128852300D02*
X156724999Y-128876109D01*
X156724999Y-128876109D02*
X156844047Y-128876109D01*
X156272618Y-128590395D02*
X156320237Y-128566585D01*
X156320237Y-128566585D02*
X156344047Y-128542776D01*
X156344047Y-128542776D02*
X156367856Y-128495157D01*
X156367856Y-128495157D02*
X156367856Y-128471347D01*
X156367856Y-128471347D02*
X156344047Y-128423728D01*
X156344047Y-128423728D02*
X156320237Y-128399919D01*
X156320237Y-128399919D02*
X156272618Y-128376109D01*
X156272618Y-128376109D02*
X156177380Y-128376109D01*
X156177380Y-128376109D02*
X156129761Y-128399919D01*
X156129761Y-128399919D02*
X156105952Y-128423728D01*
X156105952Y-128423728D02*
X156082142Y-128471347D01*
X156082142Y-128471347D02*
X156082142Y-128495157D01*
X156082142Y-128495157D02*
X156105952Y-128542776D01*
X156105952Y-128542776D02*
X156129761Y-128566585D01*
X156129761Y-128566585D02*
X156177380Y-128590395D01*
X156177380Y-128590395D02*
X156272618Y-128590395D01*
X156272618Y-128590395D02*
X156320237Y-128614204D01*
X156320237Y-128614204D02*
X156344047Y-128638014D01*
X156344047Y-128638014D02*
X156367856Y-128685633D01*
X156367856Y-128685633D02*
X156367856Y-128780871D01*
X156367856Y-128780871D02*
X156344047Y-128828490D01*
X156344047Y-128828490D02*
X156320237Y-128852300D01*
X156320237Y-128852300D02*
X156272618Y-128876109D01*
X156272618Y-128876109D02*
X156177380Y-128876109D01*
X156177380Y-128876109D02*
X156129761Y-128852300D01*
X156129761Y-128852300D02*
X156105952Y-128828490D01*
X156105952Y-128828490D02*
X156082142Y-128780871D01*
X156082142Y-128780871D02*
X156082142Y-128685633D01*
X156082142Y-128685633D02*
X156105952Y-128638014D01*
X156105952Y-128638014D02*
X156129761Y-128614204D01*
X156129761Y-128614204D02*
X156177380Y-128590395D01*
X150096428Y-121203490D02*
X150120237Y-121227300D01*
X150120237Y-121227300D02*
X150191666Y-121251109D01*
X150191666Y-121251109D02*
X150239285Y-121251109D01*
X150239285Y-121251109D02*
X150310713Y-121227300D01*
X150310713Y-121227300D02*
X150358332Y-121179680D01*
X150358332Y-121179680D02*
X150382142Y-121132061D01*
X150382142Y-121132061D02*
X150405951Y-121036823D01*
X150405951Y-121036823D02*
X150405951Y-120965395D01*
X150405951Y-120965395D02*
X150382142Y-120870157D01*
X150382142Y-120870157D02*
X150358332Y-120822538D01*
X150358332Y-120822538D02*
X150310713Y-120774919D01*
X150310713Y-120774919D02*
X150239285Y-120751109D01*
X150239285Y-120751109D02*
X150191666Y-120751109D01*
X150191666Y-120751109D02*
X150120237Y-120774919D01*
X150120237Y-120774919D02*
X150096428Y-120798728D01*
X149667856Y-120917776D02*
X149667856Y-121251109D01*
X149786904Y-120727300D02*
X149905951Y-121084442D01*
X149905951Y-121084442D02*
X149596428Y-121084442D01*
X149453571Y-120751109D02*
X149144047Y-120751109D01*
X149144047Y-120751109D02*
X149310714Y-120941585D01*
X149310714Y-120941585D02*
X149239285Y-120941585D01*
X149239285Y-120941585D02*
X149191666Y-120965395D01*
X149191666Y-120965395D02*
X149167857Y-120989204D01*
X149167857Y-120989204D02*
X149144047Y-121036823D01*
X149144047Y-121036823D02*
X149144047Y-121155871D01*
X149144047Y-121155871D02*
X149167857Y-121203490D01*
X149167857Y-121203490D02*
X149191666Y-121227300D01*
X149191666Y-121227300D02*
X149239285Y-121251109D01*
X149239285Y-121251109D02*
X149382142Y-121251109D01*
X149382142Y-121251109D02*
X149429761Y-121227300D01*
X149429761Y-121227300D02*
X149453571Y-121203490D01*
X160501109Y-134628571D02*
X160263014Y-134461905D01*
X160501109Y-134342857D02*
X160001109Y-134342857D01*
X160001109Y-134342857D02*
X160001109Y-134533333D01*
X160001109Y-134533333D02*
X160024919Y-134580952D01*
X160024919Y-134580952D02*
X160048728Y-134604762D01*
X160048728Y-134604762D02*
X160096347Y-134628571D01*
X160096347Y-134628571D02*
X160167776Y-134628571D01*
X160167776Y-134628571D02*
X160215395Y-134604762D01*
X160215395Y-134604762D02*
X160239204Y-134580952D01*
X160239204Y-134580952D02*
X160263014Y-134533333D01*
X160263014Y-134533333D02*
X160263014Y-134342857D01*
X160048728Y-134819048D02*
X160024919Y-134842857D01*
X160024919Y-134842857D02*
X160001109Y-134890476D01*
X160001109Y-134890476D02*
X160001109Y-135009524D01*
X160001109Y-135009524D02*
X160024919Y-135057143D01*
X160024919Y-135057143D02*
X160048728Y-135080952D01*
X160048728Y-135080952D02*
X160096347Y-135104762D01*
X160096347Y-135104762D02*
X160143966Y-135104762D01*
X160143966Y-135104762D02*
X160215395Y-135080952D01*
X160215395Y-135080952D02*
X160501109Y-134795238D01*
X160501109Y-134795238D02*
X160501109Y-135104762D01*
X160001109Y-135271428D02*
X160001109Y-135604761D01*
X160001109Y-135604761D02*
X160501109Y-135390476D01*
X173481109Y-128153571D02*
X173243014Y-127986905D01*
X173481109Y-127867857D02*
X172981109Y-127867857D01*
X172981109Y-127867857D02*
X172981109Y-128058333D01*
X172981109Y-128058333D02*
X173004919Y-128105952D01*
X173004919Y-128105952D02*
X173028728Y-128129762D01*
X173028728Y-128129762D02*
X173076347Y-128153571D01*
X173076347Y-128153571D02*
X173147776Y-128153571D01*
X173147776Y-128153571D02*
X173195395Y-128129762D01*
X173195395Y-128129762D02*
X173219204Y-128105952D01*
X173219204Y-128105952D02*
X173243014Y-128058333D01*
X173243014Y-128058333D02*
X173243014Y-127867857D01*
X172981109Y-128320238D02*
X172981109Y-128629762D01*
X172981109Y-128629762D02*
X173171585Y-128463095D01*
X173171585Y-128463095D02*
X173171585Y-128534524D01*
X173171585Y-128534524D02*
X173195395Y-128582143D01*
X173195395Y-128582143D02*
X173219204Y-128605952D01*
X173219204Y-128605952D02*
X173266823Y-128629762D01*
X173266823Y-128629762D02*
X173385871Y-128629762D01*
X173385871Y-128629762D02*
X173433490Y-128605952D01*
X173433490Y-128605952D02*
X173457300Y-128582143D01*
X173457300Y-128582143D02*
X173481109Y-128534524D01*
X173481109Y-128534524D02*
X173481109Y-128391667D01*
X173481109Y-128391667D02*
X173457300Y-128344048D01*
X173457300Y-128344048D02*
X173433490Y-128320238D01*
X172981109Y-129082142D02*
X172981109Y-128844047D01*
X172981109Y-128844047D02*
X173219204Y-128820238D01*
X173219204Y-128820238D02*
X173195395Y-128844047D01*
X173195395Y-128844047D02*
X173171585Y-128891666D01*
X173171585Y-128891666D02*
X173171585Y-129010714D01*
X173171585Y-129010714D02*
X173195395Y-129058333D01*
X173195395Y-129058333D02*
X173219204Y-129082142D01*
X173219204Y-129082142D02*
X173266823Y-129105952D01*
X173266823Y-129105952D02*
X173385871Y-129105952D01*
X173385871Y-129105952D02*
X173433490Y-129082142D01*
X173433490Y-129082142D02*
X173457300Y-129058333D01*
X173457300Y-129058333D02*
X173481109Y-129010714D01*
X173481109Y-129010714D02*
X173481109Y-128891666D01*
X173481109Y-128891666D02*
X173457300Y-128844047D01*
X173457300Y-128844047D02*
X173433490Y-128820238D01*
X166496428Y-127726109D02*
X166663094Y-127488014D01*
X166782142Y-127726109D02*
X166782142Y-127226109D01*
X166782142Y-127226109D02*
X166591666Y-127226109D01*
X166591666Y-127226109D02*
X166544047Y-127249919D01*
X166544047Y-127249919D02*
X166520237Y-127273728D01*
X166520237Y-127273728D02*
X166496428Y-127321347D01*
X166496428Y-127321347D02*
X166496428Y-127392776D01*
X166496428Y-127392776D02*
X166520237Y-127440395D01*
X166520237Y-127440395D02*
X166544047Y-127464204D01*
X166544047Y-127464204D02*
X166591666Y-127488014D01*
X166591666Y-127488014D02*
X166782142Y-127488014D01*
X166329761Y-127226109D02*
X166020237Y-127226109D01*
X166020237Y-127226109D02*
X166186904Y-127416585D01*
X166186904Y-127416585D02*
X166115475Y-127416585D01*
X166115475Y-127416585D02*
X166067856Y-127440395D01*
X166067856Y-127440395D02*
X166044047Y-127464204D01*
X166044047Y-127464204D02*
X166020237Y-127511823D01*
X166020237Y-127511823D02*
X166020237Y-127630871D01*
X166020237Y-127630871D02*
X166044047Y-127678490D01*
X166044047Y-127678490D02*
X166067856Y-127702300D01*
X166067856Y-127702300D02*
X166115475Y-127726109D01*
X166115475Y-127726109D02*
X166258332Y-127726109D01*
X166258332Y-127726109D02*
X166305951Y-127702300D01*
X166305951Y-127702300D02*
X166329761Y-127678490D01*
X165829761Y-127273728D02*
X165805952Y-127249919D01*
X165805952Y-127249919D02*
X165758333Y-127226109D01*
X165758333Y-127226109D02*
X165639285Y-127226109D01*
X165639285Y-127226109D02*
X165591666Y-127249919D01*
X165591666Y-127249919D02*
X165567857Y-127273728D01*
X165567857Y-127273728D02*
X165544047Y-127321347D01*
X165544047Y-127321347D02*
X165544047Y-127368966D01*
X165544047Y-127368966D02*
X165567857Y-127440395D01*
X165567857Y-127440395D02*
X165853571Y-127726109D01*
X165853571Y-127726109D02*
X165544047Y-127726109D01*
X156771428Y-120076109D02*
X156938094Y-119838014D01*
X157057142Y-120076109D02*
X157057142Y-119576109D01*
X157057142Y-119576109D02*
X156866666Y-119576109D01*
X156866666Y-119576109D02*
X156819047Y-119599919D01*
X156819047Y-119599919D02*
X156795237Y-119623728D01*
X156795237Y-119623728D02*
X156771428Y-119671347D01*
X156771428Y-119671347D02*
X156771428Y-119742776D01*
X156771428Y-119742776D02*
X156795237Y-119790395D01*
X156795237Y-119790395D02*
X156819047Y-119814204D01*
X156819047Y-119814204D02*
X156866666Y-119838014D01*
X156866666Y-119838014D02*
X157057142Y-119838014D01*
X156604761Y-119576109D02*
X156295237Y-119576109D01*
X156295237Y-119576109D02*
X156461904Y-119766585D01*
X156461904Y-119766585D02*
X156390475Y-119766585D01*
X156390475Y-119766585D02*
X156342856Y-119790395D01*
X156342856Y-119790395D02*
X156319047Y-119814204D01*
X156319047Y-119814204D02*
X156295237Y-119861823D01*
X156295237Y-119861823D02*
X156295237Y-119980871D01*
X156295237Y-119980871D02*
X156319047Y-120028490D01*
X156319047Y-120028490D02*
X156342856Y-120052300D01*
X156342856Y-120052300D02*
X156390475Y-120076109D01*
X156390475Y-120076109D02*
X156533332Y-120076109D01*
X156533332Y-120076109D02*
X156580951Y-120052300D01*
X156580951Y-120052300D02*
X156604761Y-120028490D01*
X156128571Y-119576109D02*
X155819047Y-119576109D01*
X155819047Y-119576109D02*
X155985714Y-119766585D01*
X155985714Y-119766585D02*
X155914285Y-119766585D01*
X155914285Y-119766585D02*
X155866666Y-119790395D01*
X155866666Y-119790395D02*
X155842857Y-119814204D01*
X155842857Y-119814204D02*
X155819047Y-119861823D01*
X155819047Y-119861823D02*
X155819047Y-119980871D01*
X155819047Y-119980871D02*
X155842857Y-120028490D01*
X155842857Y-120028490D02*
X155866666Y-120052300D01*
X155866666Y-120052300D02*
X155914285Y-120076109D01*
X155914285Y-120076109D02*
X156057142Y-120076109D01*
X156057142Y-120076109D02*
X156104761Y-120052300D01*
X156104761Y-120052300D02*
X156128571Y-120028490D01*
X150071428Y-122828490D02*
X150095237Y-122852300D01*
X150095237Y-122852300D02*
X150166666Y-122876109D01*
X150166666Y-122876109D02*
X150214285Y-122876109D01*
X150214285Y-122876109D02*
X150285713Y-122852300D01*
X150285713Y-122852300D02*
X150333332Y-122804680D01*
X150333332Y-122804680D02*
X150357142Y-122757061D01*
X150357142Y-122757061D02*
X150380951Y-122661823D01*
X150380951Y-122661823D02*
X150380951Y-122590395D01*
X150380951Y-122590395D02*
X150357142Y-122495157D01*
X150357142Y-122495157D02*
X150333332Y-122447538D01*
X150333332Y-122447538D02*
X150285713Y-122399919D01*
X150285713Y-122399919D02*
X150214285Y-122376109D01*
X150214285Y-122376109D02*
X150166666Y-122376109D01*
X150166666Y-122376109D02*
X150095237Y-122399919D01*
X150095237Y-122399919D02*
X150071428Y-122423728D01*
X149904761Y-122376109D02*
X149595237Y-122376109D01*
X149595237Y-122376109D02*
X149761904Y-122566585D01*
X149761904Y-122566585D02*
X149690475Y-122566585D01*
X149690475Y-122566585D02*
X149642856Y-122590395D01*
X149642856Y-122590395D02*
X149619047Y-122614204D01*
X149619047Y-122614204D02*
X149595237Y-122661823D01*
X149595237Y-122661823D02*
X149595237Y-122780871D01*
X149595237Y-122780871D02*
X149619047Y-122828490D01*
X149619047Y-122828490D02*
X149642856Y-122852300D01*
X149642856Y-122852300D02*
X149690475Y-122876109D01*
X149690475Y-122876109D02*
X149833332Y-122876109D01*
X149833332Y-122876109D02*
X149880951Y-122852300D01*
X149880951Y-122852300D02*
X149904761Y-122828490D01*
X149357142Y-122876109D02*
X149261904Y-122876109D01*
X149261904Y-122876109D02*
X149214285Y-122852300D01*
X149214285Y-122852300D02*
X149190476Y-122828490D01*
X149190476Y-122828490D02*
X149142857Y-122757061D01*
X149142857Y-122757061D02*
X149119047Y-122661823D01*
X149119047Y-122661823D02*
X149119047Y-122471347D01*
X149119047Y-122471347D02*
X149142857Y-122423728D01*
X149142857Y-122423728D02*
X149166666Y-122399919D01*
X149166666Y-122399919D02*
X149214285Y-122376109D01*
X149214285Y-122376109D02*
X149309523Y-122376109D01*
X149309523Y-122376109D02*
X149357142Y-122399919D01*
X149357142Y-122399919D02*
X149380952Y-122423728D01*
X149380952Y-122423728D02*
X149404761Y-122471347D01*
X149404761Y-122471347D02*
X149404761Y-122590395D01*
X149404761Y-122590395D02*
X149380952Y-122638014D01*
X149380952Y-122638014D02*
X149357142Y-122661823D01*
X149357142Y-122661823D02*
X149309523Y-122685633D01*
X149309523Y-122685633D02*
X149214285Y-122685633D01*
X149214285Y-122685633D02*
X149166666Y-122661823D01*
X149166666Y-122661823D02*
X149142857Y-122638014D01*
X149142857Y-122638014D02*
X149119047Y-122590395D01*
X168101109Y-134628571D02*
X167863014Y-134461905D01*
X168101109Y-134342857D02*
X167601109Y-134342857D01*
X167601109Y-134342857D02*
X167601109Y-134533333D01*
X167601109Y-134533333D02*
X167624919Y-134580952D01*
X167624919Y-134580952D02*
X167648728Y-134604762D01*
X167648728Y-134604762D02*
X167696347Y-134628571D01*
X167696347Y-134628571D02*
X167767776Y-134628571D01*
X167767776Y-134628571D02*
X167815395Y-134604762D01*
X167815395Y-134604762D02*
X167839204Y-134580952D01*
X167839204Y-134580952D02*
X167863014Y-134533333D01*
X167863014Y-134533333D02*
X167863014Y-134342857D01*
X167648728Y-134819048D02*
X167624919Y-134842857D01*
X167624919Y-134842857D02*
X167601109Y-134890476D01*
X167601109Y-134890476D02*
X167601109Y-135009524D01*
X167601109Y-135009524D02*
X167624919Y-135057143D01*
X167624919Y-135057143D02*
X167648728Y-135080952D01*
X167648728Y-135080952D02*
X167696347Y-135104762D01*
X167696347Y-135104762D02*
X167743966Y-135104762D01*
X167743966Y-135104762D02*
X167815395Y-135080952D01*
X167815395Y-135080952D02*
X168101109Y-134795238D01*
X168101109Y-134795238D02*
X168101109Y-135104762D01*
X167601109Y-135533333D02*
X167601109Y-135438095D01*
X167601109Y-135438095D02*
X167624919Y-135390476D01*
X167624919Y-135390476D02*
X167648728Y-135366666D01*
X167648728Y-135366666D02*
X167720157Y-135319047D01*
X167720157Y-135319047D02*
X167815395Y-135295238D01*
X167815395Y-135295238D02*
X168005871Y-135295238D01*
X168005871Y-135295238D02*
X168053490Y-135319047D01*
X168053490Y-135319047D02*
X168077300Y-135342857D01*
X168077300Y-135342857D02*
X168101109Y-135390476D01*
X168101109Y-135390476D02*
X168101109Y-135485714D01*
X168101109Y-135485714D02*
X168077300Y-135533333D01*
X168077300Y-135533333D02*
X168053490Y-135557142D01*
X168053490Y-135557142D02*
X168005871Y-135580952D01*
X168005871Y-135580952D02*
X167886823Y-135580952D01*
X167886823Y-135580952D02*
X167839204Y-135557142D01*
X167839204Y-135557142D02*
X167815395Y-135533333D01*
X167815395Y-135533333D02*
X167791585Y-135485714D01*
X167791585Y-135485714D02*
X167791585Y-135390476D01*
X167791585Y-135390476D02*
X167815395Y-135342857D01*
X167815395Y-135342857D02*
X167839204Y-135319047D01*
X167839204Y-135319047D02*
X167886823Y-135295238D01*
X157346428Y-140028490D02*
X157370237Y-140052300D01*
X157370237Y-140052300D02*
X157441666Y-140076109D01*
X157441666Y-140076109D02*
X157489285Y-140076109D01*
X157489285Y-140076109D02*
X157560713Y-140052300D01*
X157560713Y-140052300D02*
X157608332Y-140004680D01*
X157608332Y-140004680D02*
X157632142Y-139957061D01*
X157632142Y-139957061D02*
X157655951Y-139861823D01*
X157655951Y-139861823D02*
X157655951Y-139790395D01*
X157655951Y-139790395D02*
X157632142Y-139695157D01*
X157632142Y-139695157D02*
X157608332Y-139647538D01*
X157608332Y-139647538D02*
X157560713Y-139599919D01*
X157560713Y-139599919D02*
X157489285Y-139576109D01*
X157489285Y-139576109D02*
X157441666Y-139576109D01*
X157441666Y-139576109D02*
X157370237Y-139599919D01*
X157370237Y-139599919D02*
X157346428Y-139623728D01*
X156917856Y-139742776D02*
X156917856Y-140076109D01*
X157036904Y-139552300D02*
X157155951Y-139909442D01*
X157155951Y-139909442D02*
X156846428Y-139909442D01*
X156560714Y-139576109D02*
X156513095Y-139576109D01*
X156513095Y-139576109D02*
X156465476Y-139599919D01*
X156465476Y-139599919D02*
X156441666Y-139623728D01*
X156441666Y-139623728D02*
X156417857Y-139671347D01*
X156417857Y-139671347D02*
X156394047Y-139766585D01*
X156394047Y-139766585D02*
X156394047Y-139885633D01*
X156394047Y-139885633D02*
X156417857Y-139980871D01*
X156417857Y-139980871D02*
X156441666Y-140028490D01*
X156441666Y-140028490D02*
X156465476Y-140052300D01*
X156465476Y-140052300D02*
X156513095Y-140076109D01*
X156513095Y-140076109D02*
X156560714Y-140076109D01*
X156560714Y-140076109D02*
X156608333Y-140052300D01*
X156608333Y-140052300D02*
X156632142Y-140028490D01*
X156632142Y-140028490D02*
X156655952Y-139980871D01*
X156655952Y-139980871D02*
X156679761Y-139885633D01*
X156679761Y-139885633D02*
X156679761Y-139766585D01*
X156679761Y-139766585D02*
X156655952Y-139671347D01*
X156655952Y-139671347D02*
X156632142Y-139623728D01*
X156632142Y-139623728D02*
X156608333Y-139599919D01*
X156608333Y-139599919D02*
X156560714Y-139576109D01*
X162496428Y-140378490D02*
X162520237Y-140402300D01*
X162520237Y-140402300D02*
X162591666Y-140426109D01*
X162591666Y-140426109D02*
X162639285Y-140426109D01*
X162639285Y-140426109D02*
X162710713Y-140402300D01*
X162710713Y-140402300D02*
X162758332Y-140354680D01*
X162758332Y-140354680D02*
X162782142Y-140307061D01*
X162782142Y-140307061D02*
X162805951Y-140211823D01*
X162805951Y-140211823D02*
X162805951Y-140140395D01*
X162805951Y-140140395D02*
X162782142Y-140045157D01*
X162782142Y-140045157D02*
X162758332Y-139997538D01*
X162758332Y-139997538D02*
X162710713Y-139949919D01*
X162710713Y-139949919D02*
X162639285Y-139926109D01*
X162639285Y-139926109D02*
X162591666Y-139926109D01*
X162591666Y-139926109D02*
X162520237Y-139949919D01*
X162520237Y-139949919D02*
X162496428Y-139973728D01*
X162305951Y-139973728D02*
X162282142Y-139949919D01*
X162282142Y-139949919D02*
X162234523Y-139926109D01*
X162234523Y-139926109D02*
X162115475Y-139926109D01*
X162115475Y-139926109D02*
X162067856Y-139949919D01*
X162067856Y-139949919D02*
X162044047Y-139973728D01*
X162044047Y-139973728D02*
X162020237Y-140021347D01*
X162020237Y-140021347D02*
X162020237Y-140068966D01*
X162020237Y-140068966D02*
X162044047Y-140140395D01*
X162044047Y-140140395D02*
X162329761Y-140426109D01*
X162329761Y-140426109D02*
X162020237Y-140426109D01*
X161734523Y-140140395D02*
X161782142Y-140116585D01*
X161782142Y-140116585D02*
X161805952Y-140092776D01*
X161805952Y-140092776D02*
X161829761Y-140045157D01*
X161829761Y-140045157D02*
X161829761Y-140021347D01*
X161829761Y-140021347D02*
X161805952Y-139973728D01*
X161805952Y-139973728D02*
X161782142Y-139949919D01*
X161782142Y-139949919D02*
X161734523Y-139926109D01*
X161734523Y-139926109D02*
X161639285Y-139926109D01*
X161639285Y-139926109D02*
X161591666Y-139949919D01*
X161591666Y-139949919D02*
X161567857Y-139973728D01*
X161567857Y-139973728D02*
X161544047Y-140021347D01*
X161544047Y-140021347D02*
X161544047Y-140045157D01*
X161544047Y-140045157D02*
X161567857Y-140092776D01*
X161567857Y-140092776D02*
X161591666Y-140116585D01*
X161591666Y-140116585D02*
X161639285Y-140140395D01*
X161639285Y-140140395D02*
X161734523Y-140140395D01*
X161734523Y-140140395D02*
X161782142Y-140164204D01*
X161782142Y-140164204D02*
X161805952Y-140188014D01*
X161805952Y-140188014D02*
X161829761Y-140235633D01*
X161829761Y-140235633D02*
X161829761Y-140330871D01*
X161829761Y-140330871D02*
X161805952Y-140378490D01*
X161805952Y-140378490D02*
X161782142Y-140402300D01*
X161782142Y-140402300D02*
X161734523Y-140426109D01*
X161734523Y-140426109D02*
X161639285Y-140426109D01*
X161639285Y-140426109D02*
X161591666Y-140402300D01*
X161591666Y-140402300D02*
X161567857Y-140378490D01*
X161567857Y-140378490D02*
X161544047Y-140330871D01*
X161544047Y-140330871D02*
X161544047Y-140235633D01*
X161544047Y-140235633D02*
X161567857Y-140188014D01*
X161567857Y-140188014D02*
X161591666Y-140164204D01*
X161591666Y-140164204D02*
X161639285Y-140140395D01*
X168946428Y-132628490D02*
X168970237Y-132652300D01*
X168970237Y-132652300D02*
X169041666Y-132676109D01*
X169041666Y-132676109D02*
X169089285Y-132676109D01*
X169089285Y-132676109D02*
X169160713Y-132652300D01*
X169160713Y-132652300D02*
X169208332Y-132604680D01*
X169208332Y-132604680D02*
X169232142Y-132557061D01*
X169232142Y-132557061D02*
X169255951Y-132461823D01*
X169255951Y-132461823D02*
X169255951Y-132390395D01*
X169255951Y-132390395D02*
X169232142Y-132295157D01*
X169232142Y-132295157D02*
X169208332Y-132247538D01*
X169208332Y-132247538D02*
X169160713Y-132199919D01*
X169160713Y-132199919D02*
X169089285Y-132176109D01*
X169089285Y-132176109D02*
X169041666Y-132176109D01*
X169041666Y-132176109D02*
X168970237Y-132199919D01*
X168970237Y-132199919D02*
X168946428Y-132223728D01*
X168779761Y-132176109D02*
X168470237Y-132176109D01*
X168470237Y-132176109D02*
X168636904Y-132366585D01*
X168636904Y-132366585D02*
X168565475Y-132366585D01*
X168565475Y-132366585D02*
X168517856Y-132390395D01*
X168517856Y-132390395D02*
X168494047Y-132414204D01*
X168494047Y-132414204D02*
X168470237Y-132461823D01*
X168470237Y-132461823D02*
X168470237Y-132580871D01*
X168470237Y-132580871D02*
X168494047Y-132628490D01*
X168494047Y-132628490D02*
X168517856Y-132652300D01*
X168517856Y-132652300D02*
X168565475Y-132676109D01*
X168565475Y-132676109D02*
X168708332Y-132676109D01*
X168708332Y-132676109D02*
X168755951Y-132652300D01*
X168755951Y-132652300D02*
X168779761Y-132628490D01*
X167994047Y-132676109D02*
X168279761Y-132676109D01*
X168136904Y-132676109D02*
X168136904Y-132176109D01*
X168136904Y-132176109D02*
X168184523Y-132247538D01*
X168184523Y-132247538D02*
X168232142Y-132295157D01*
X168232142Y-132295157D02*
X168279761Y-132318966D01*
X155171428Y-140028490D02*
X155195237Y-140052300D01*
X155195237Y-140052300D02*
X155266666Y-140076109D01*
X155266666Y-140076109D02*
X155314285Y-140076109D01*
X155314285Y-140076109D02*
X155385713Y-140052300D01*
X155385713Y-140052300D02*
X155433332Y-140004680D01*
X155433332Y-140004680D02*
X155457142Y-139957061D01*
X155457142Y-139957061D02*
X155480951Y-139861823D01*
X155480951Y-139861823D02*
X155480951Y-139790395D01*
X155480951Y-139790395D02*
X155457142Y-139695157D01*
X155457142Y-139695157D02*
X155433332Y-139647538D01*
X155433332Y-139647538D02*
X155385713Y-139599919D01*
X155385713Y-139599919D02*
X155314285Y-139576109D01*
X155314285Y-139576109D02*
X155266666Y-139576109D01*
X155266666Y-139576109D02*
X155195237Y-139599919D01*
X155195237Y-139599919D02*
X155171428Y-139623728D01*
X154742856Y-139742776D02*
X154742856Y-140076109D01*
X154861904Y-139552300D02*
X154980951Y-139909442D01*
X154980951Y-139909442D02*
X154671428Y-139909442D01*
X154266666Y-139742776D02*
X154266666Y-140076109D01*
X154385714Y-139552300D02*
X154504761Y-139909442D01*
X154504761Y-139909442D02*
X154195238Y-139909442D01*
X167221428Y-123826109D02*
X167388094Y-123588014D01*
X167507142Y-123826109D02*
X167507142Y-123326109D01*
X167507142Y-123326109D02*
X167316666Y-123326109D01*
X167316666Y-123326109D02*
X167269047Y-123349919D01*
X167269047Y-123349919D02*
X167245237Y-123373728D01*
X167245237Y-123373728D02*
X167221428Y-123421347D01*
X167221428Y-123421347D02*
X167221428Y-123492776D01*
X167221428Y-123492776D02*
X167245237Y-123540395D01*
X167245237Y-123540395D02*
X167269047Y-123564204D01*
X167269047Y-123564204D02*
X167316666Y-123588014D01*
X167316666Y-123588014D02*
X167507142Y-123588014D01*
X167054761Y-123326109D02*
X166745237Y-123326109D01*
X166745237Y-123326109D02*
X166911904Y-123516585D01*
X166911904Y-123516585D02*
X166840475Y-123516585D01*
X166840475Y-123516585D02*
X166792856Y-123540395D01*
X166792856Y-123540395D02*
X166769047Y-123564204D01*
X166769047Y-123564204D02*
X166745237Y-123611823D01*
X166745237Y-123611823D02*
X166745237Y-123730871D01*
X166745237Y-123730871D02*
X166769047Y-123778490D01*
X166769047Y-123778490D02*
X166792856Y-123802300D01*
X166792856Y-123802300D02*
X166840475Y-123826109D01*
X166840475Y-123826109D02*
X166983332Y-123826109D01*
X166983332Y-123826109D02*
X167030951Y-123802300D01*
X167030951Y-123802300D02*
X167054761Y-123778490D01*
X166269047Y-123826109D02*
X166554761Y-123826109D01*
X166411904Y-123826109D02*
X166411904Y-123326109D01*
X166411904Y-123326109D02*
X166459523Y-123397538D01*
X166459523Y-123397538D02*
X166507142Y-123445157D01*
X166507142Y-123445157D02*
X166554761Y-123468966D01*
X159671428Y-140028490D02*
X159695237Y-140052300D01*
X159695237Y-140052300D02*
X159766666Y-140076109D01*
X159766666Y-140076109D02*
X159814285Y-140076109D01*
X159814285Y-140076109D02*
X159885713Y-140052300D01*
X159885713Y-140052300D02*
X159933332Y-140004680D01*
X159933332Y-140004680D02*
X159957142Y-139957061D01*
X159957142Y-139957061D02*
X159980951Y-139861823D01*
X159980951Y-139861823D02*
X159980951Y-139790395D01*
X159980951Y-139790395D02*
X159957142Y-139695157D01*
X159957142Y-139695157D02*
X159933332Y-139647538D01*
X159933332Y-139647538D02*
X159885713Y-139599919D01*
X159885713Y-139599919D02*
X159814285Y-139576109D01*
X159814285Y-139576109D02*
X159766666Y-139576109D01*
X159766666Y-139576109D02*
X159695237Y-139599919D01*
X159695237Y-139599919D02*
X159671428Y-139623728D01*
X159242856Y-139742776D02*
X159242856Y-140076109D01*
X159361904Y-139552300D02*
X159480951Y-139909442D01*
X159480951Y-139909442D02*
X159171428Y-139909442D01*
X158719047Y-140076109D02*
X159004761Y-140076109D01*
X158861904Y-140076109D02*
X158861904Y-139576109D01*
X158861904Y-139576109D02*
X158909523Y-139647538D01*
X158909523Y-139647538D02*
X158957142Y-139695157D01*
X158957142Y-139695157D02*
X159004761Y-139718966D01*
X169003490Y-118878571D02*
X169027300Y-118854762D01*
X169027300Y-118854762D02*
X169051109Y-118783333D01*
X169051109Y-118783333D02*
X169051109Y-118735714D01*
X169051109Y-118735714D02*
X169027300Y-118664286D01*
X169027300Y-118664286D02*
X168979680Y-118616667D01*
X168979680Y-118616667D02*
X168932061Y-118592857D01*
X168932061Y-118592857D02*
X168836823Y-118569048D01*
X168836823Y-118569048D02*
X168765395Y-118569048D01*
X168765395Y-118569048D02*
X168670157Y-118592857D01*
X168670157Y-118592857D02*
X168622538Y-118616667D01*
X168622538Y-118616667D02*
X168574919Y-118664286D01*
X168574919Y-118664286D02*
X168551109Y-118735714D01*
X168551109Y-118735714D02*
X168551109Y-118783333D01*
X168551109Y-118783333D02*
X168574919Y-118854762D01*
X168574919Y-118854762D02*
X168598728Y-118878571D01*
X168551109Y-119045238D02*
X168551109Y-119354762D01*
X168551109Y-119354762D02*
X168741585Y-119188095D01*
X168741585Y-119188095D02*
X168741585Y-119259524D01*
X168741585Y-119259524D02*
X168765395Y-119307143D01*
X168765395Y-119307143D02*
X168789204Y-119330952D01*
X168789204Y-119330952D02*
X168836823Y-119354762D01*
X168836823Y-119354762D02*
X168955871Y-119354762D01*
X168955871Y-119354762D02*
X169003490Y-119330952D01*
X169003490Y-119330952D02*
X169027300Y-119307143D01*
X169027300Y-119307143D02*
X169051109Y-119259524D01*
X169051109Y-119259524D02*
X169051109Y-119116667D01*
X169051109Y-119116667D02*
X169027300Y-119069048D01*
X169027300Y-119069048D02*
X169003490Y-119045238D01*
X168551109Y-119521428D02*
X168551109Y-119830952D01*
X168551109Y-119830952D02*
X168741585Y-119664285D01*
X168741585Y-119664285D02*
X168741585Y-119735714D01*
X168741585Y-119735714D02*
X168765395Y-119783333D01*
X168765395Y-119783333D02*
X168789204Y-119807142D01*
X168789204Y-119807142D02*
X168836823Y-119830952D01*
X168836823Y-119830952D02*
X168955871Y-119830952D01*
X168955871Y-119830952D02*
X169003490Y-119807142D01*
X169003490Y-119807142D02*
X169027300Y-119783333D01*
X169027300Y-119783333D02*
X169051109Y-119735714D01*
X169051109Y-119735714D02*
X169051109Y-119592857D01*
X169051109Y-119592857D02*
X169027300Y-119545238D01*
X169027300Y-119545238D02*
X169003490Y-119521428D01*
X169051109Y-120578571D02*
X168813014Y-120411905D01*
X169051109Y-120292857D02*
X168551109Y-120292857D01*
X168551109Y-120292857D02*
X168551109Y-120483333D01*
X168551109Y-120483333D02*
X168574919Y-120530952D01*
X168574919Y-120530952D02*
X168598728Y-120554762D01*
X168598728Y-120554762D02*
X168646347Y-120578571D01*
X168646347Y-120578571D02*
X168717776Y-120578571D01*
X168717776Y-120578571D02*
X168765395Y-120554762D01*
X168765395Y-120554762D02*
X168789204Y-120530952D01*
X168789204Y-120530952D02*
X168813014Y-120483333D01*
X168813014Y-120483333D02*
X168813014Y-120292857D01*
X168551109Y-120745238D02*
X168551109Y-121054762D01*
X168551109Y-121054762D02*
X168741585Y-120888095D01*
X168741585Y-120888095D02*
X168741585Y-120959524D01*
X168741585Y-120959524D02*
X168765395Y-121007143D01*
X168765395Y-121007143D02*
X168789204Y-121030952D01*
X168789204Y-121030952D02*
X168836823Y-121054762D01*
X168836823Y-121054762D02*
X168955871Y-121054762D01*
X168955871Y-121054762D02*
X169003490Y-121030952D01*
X169003490Y-121030952D02*
X169027300Y-121007143D01*
X169027300Y-121007143D02*
X169051109Y-120959524D01*
X169051109Y-120959524D02*
X169051109Y-120816667D01*
X169051109Y-120816667D02*
X169027300Y-120769048D01*
X169027300Y-120769048D02*
X169003490Y-120745238D01*
X168551109Y-121364285D02*
X168551109Y-121411904D01*
X168551109Y-121411904D02*
X168574919Y-121459523D01*
X168574919Y-121459523D02*
X168598728Y-121483333D01*
X168598728Y-121483333D02*
X168646347Y-121507142D01*
X168646347Y-121507142D02*
X168741585Y-121530952D01*
X168741585Y-121530952D02*
X168860633Y-121530952D01*
X168860633Y-121530952D02*
X168955871Y-121507142D01*
X168955871Y-121507142D02*
X169003490Y-121483333D01*
X169003490Y-121483333D02*
X169027300Y-121459523D01*
X169027300Y-121459523D02*
X169051109Y-121411904D01*
X169051109Y-121411904D02*
X169051109Y-121364285D01*
X169051109Y-121364285D02*
X169027300Y-121316666D01*
X169027300Y-121316666D02*
X169003490Y-121292857D01*
X169003490Y-121292857D02*
X168955871Y-121269047D01*
X168955871Y-121269047D02*
X168860633Y-121245238D01*
X168860633Y-121245238D02*
X168741585Y-121245238D01*
X168741585Y-121245238D02*
X168646347Y-121269047D01*
X168646347Y-121269047D02*
X168598728Y-121292857D01*
X168598728Y-121292857D02*
X168574919Y-121316666D01*
X168574919Y-121316666D02*
X168551109Y-121364285D01*
X170646428Y-126828490D02*
X170670237Y-126852300D01*
X170670237Y-126852300D02*
X170741666Y-126876109D01*
X170741666Y-126876109D02*
X170789285Y-126876109D01*
X170789285Y-126876109D02*
X170860713Y-126852300D01*
X170860713Y-126852300D02*
X170908332Y-126804680D01*
X170908332Y-126804680D02*
X170932142Y-126757061D01*
X170932142Y-126757061D02*
X170955951Y-126661823D01*
X170955951Y-126661823D02*
X170955951Y-126590395D01*
X170955951Y-126590395D02*
X170932142Y-126495157D01*
X170932142Y-126495157D02*
X170908332Y-126447538D01*
X170908332Y-126447538D02*
X170860713Y-126399919D01*
X170860713Y-126399919D02*
X170789285Y-126376109D01*
X170789285Y-126376109D02*
X170741666Y-126376109D01*
X170741666Y-126376109D02*
X170670237Y-126399919D01*
X170670237Y-126399919D02*
X170646428Y-126423728D01*
X170479761Y-126376109D02*
X170170237Y-126376109D01*
X170170237Y-126376109D02*
X170336904Y-126566585D01*
X170336904Y-126566585D02*
X170265475Y-126566585D01*
X170265475Y-126566585D02*
X170217856Y-126590395D01*
X170217856Y-126590395D02*
X170194047Y-126614204D01*
X170194047Y-126614204D02*
X170170237Y-126661823D01*
X170170237Y-126661823D02*
X170170237Y-126780871D01*
X170170237Y-126780871D02*
X170194047Y-126828490D01*
X170194047Y-126828490D02*
X170217856Y-126852300D01*
X170217856Y-126852300D02*
X170265475Y-126876109D01*
X170265475Y-126876109D02*
X170408332Y-126876109D01*
X170408332Y-126876109D02*
X170455951Y-126852300D01*
X170455951Y-126852300D02*
X170479761Y-126828490D01*
X169741666Y-126542776D02*
X169741666Y-126876109D01*
X169860714Y-126352300D02*
X169979761Y-126709442D01*
X169979761Y-126709442D02*
X169670238Y-126709442D01*
X164405952Y-136176109D02*
X164405952Y-136580871D01*
X164405952Y-136580871D02*
X164382142Y-136628490D01*
X164382142Y-136628490D02*
X164358333Y-136652300D01*
X164358333Y-136652300D02*
X164310714Y-136676109D01*
X164310714Y-136676109D02*
X164215476Y-136676109D01*
X164215476Y-136676109D02*
X164167857Y-136652300D01*
X164167857Y-136652300D02*
X164144047Y-136628490D01*
X164144047Y-136628490D02*
X164120238Y-136580871D01*
X164120238Y-136580871D02*
X164120238Y-136176109D01*
X163810713Y-136390395D02*
X163858332Y-136366585D01*
X163858332Y-136366585D02*
X163882142Y-136342776D01*
X163882142Y-136342776D02*
X163905951Y-136295157D01*
X163905951Y-136295157D02*
X163905951Y-136271347D01*
X163905951Y-136271347D02*
X163882142Y-136223728D01*
X163882142Y-136223728D02*
X163858332Y-136199919D01*
X163858332Y-136199919D02*
X163810713Y-136176109D01*
X163810713Y-136176109D02*
X163715475Y-136176109D01*
X163715475Y-136176109D02*
X163667856Y-136199919D01*
X163667856Y-136199919D02*
X163644047Y-136223728D01*
X163644047Y-136223728D02*
X163620237Y-136271347D01*
X163620237Y-136271347D02*
X163620237Y-136295157D01*
X163620237Y-136295157D02*
X163644047Y-136342776D01*
X163644047Y-136342776D02*
X163667856Y-136366585D01*
X163667856Y-136366585D02*
X163715475Y-136390395D01*
X163715475Y-136390395D02*
X163810713Y-136390395D01*
X163810713Y-136390395D02*
X163858332Y-136414204D01*
X163858332Y-136414204D02*
X163882142Y-136438014D01*
X163882142Y-136438014D02*
X163905951Y-136485633D01*
X163905951Y-136485633D02*
X163905951Y-136580871D01*
X163905951Y-136580871D02*
X163882142Y-136628490D01*
X163882142Y-136628490D02*
X163858332Y-136652300D01*
X163858332Y-136652300D02*
X163810713Y-136676109D01*
X163810713Y-136676109D02*
X163715475Y-136676109D01*
X163715475Y-136676109D02*
X163667856Y-136652300D01*
X163667856Y-136652300D02*
X163644047Y-136628490D01*
X163644047Y-136628490D02*
X163620237Y-136580871D01*
X163620237Y-136580871D02*
X163620237Y-136485633D01*
X163620237Y-136485633D02*
X163644047Y-136438014D01*
X163644047Y-136438014D02*
X163667856Y-136414204D01*
X163667856Y-136414204D02*
X163715475Y-136390395D01*
X168271428Y-127653490D02*
X168295237Y-127677300D01*
X168295237Y-127677300D02*
X168366666Y-127701109D01*
X168366666Y-127701109D02*
X168414285Y-127701109D01*
X168414285Y-127701109D02*
X168485713Y-127677300D01*
X168485713Y-127677300D02*
X168533332Y-127629680D01*
X168533332Y-127629680D02*
X168557142Y-127582061D01*
X168557142Y-127582061D02*
X168580951Y-127486823D01*
X168580951Y-127486823D02*
X168580951Y-127415395D01*
X168580951Y-127415395D02*
X168557142Y-127320157D01*
X168557142Y-127320157D02*
X168533332Y-127272538D01*
X168533332Y-127272538D02*
X168485713Y-127224919D01*
X168485713Y-127224919D02*
X168414285Y-127201109D01*
X168414285Y-127201109D02*
X168366666Y-127201109D01*
X168366666Y-127201109D02*
X168295237Y-127224919D01*
X168295237Y-127224919D02*
X168271428Y-127248728D01*
X168104761Y-127201109D02*
X167795237Y-127201109D01*
X167795237Y-127201109D02*
X167961904Y-127391585D01*
X167961904Y-127391585D02*
X167890475Y-127391585D01*
X167890475Y-127391585D02*
X167842856Y-127415395D01*
X167842856Y-127415395D02*
X167819047Y-127439204D01*
X167819047Y-127439204D02*
X167795237Y-127486823D01*
X167795237Y-127486823D02*
X167795237Y-127605871D01*
X167795237Y-127605871D02*
X167819047Y-127653490D01*
X167819047Y-127653490D02*
X167842856Y-127677300D01*
X167842856Y-127677300D02*
X167890475Y-127701109D01*
X167890475Y-127701109D02*
X168033332Y-127701109D01*
X168033332Y-127701109D02*
X168080951Y-127677300D01*
X168080951Y-127677300D02*
X168104761Y-127653490D01*
X167342857Y-127201109D02*
X167580952Y-127201109D01*
X167580952Y-127201109D02*
X167604761Y-127439204D01*
X167604761Y-127439204D02*
X167580952Y-127415395D01*
X167580952Y-127415395D02*
X167533333Y-127391585D01*
X167533333Y-127391585D02*
X167414285Y-127391585D01*
X167414285Y-127391585D02*
X167366666Y-127415395D01*
X167366666Y-127415395D02*
X167342857Y-127439204D01*
X167342857Y-127439204D02*
X167319047Y-127486823D01*
X167319047Y-127486823D02*
X167319047Y-127605871D01*
X167319047Y-127605871D02*
X167342857Y-127653490D01*
X167342857Y-127653490D02*
X167366666Y-127677300D01*
X167366666Y-127677300D02*
X167414285Y-127701109D01*
X167414285Y-127701109D02*
X167533333Y-127701109D01*
X167533333Y-127701109D02*
X167580952Y-127677300D01*
X167580952Y-127677300D02*
X167604761Y-127653490D01*
X147441666Y-128476109D02*
X147441666Y-128833252D01*
X147441666Y-128833252D02*
X147465475Y-128904680D01*
X147465475Y-128904680D02*
X147513094Y-128952300D01*
X147513094Y-128952300D02*
X147584523Y-128976109D01*
X147584523Y-128976109D02*
X147632142Y-128976109D01*
X147132142Y-128690395D02*
X147179761Y-128666585D01*
X147179761Y-128666585D02*
X147203571Y-128642776D01*
X147203571Y-128642776D02*
X147227380Y-128595157D01*
X147227380Y-128595157D02*
X147227380Y-128571347D01*
X147227380Y-128571347D02*
X147203571Y-128523728D01*
X147203571Y-128523728D02*
X147179761Y-128499919D01*
X147179761Y-128499919D02*
X147132142Y-128476109D01*
X147132142Y-128476109D02*
X147036904Y-128476109D01*
X147036904Y-128476109D02*
X146989285Y-128499919D01*
X146989285Y-128499919D02*
X146965476Y-128523728D01*
X146965476Y-128523728D02*
X146941666Y-128571347D01*
X146941666Y-128571347D02*
X146941666Y-128595157D01*
X146941666Y-128595157D02*
X146965476Y-128642776D01*
X146965476Y-128642776D02*
X146989285Y-128666585D01*
X146989285Y-128666585D02*
X147036904Y-128690395D01*
X147036904Y-128690395D02*
X147132142Y-128690395D01*
X147132142Y-128690395D02*
X147179761Y-128714204D01*
X147179761Y-128714204D02*
X147203571Y-128738014D01*
X147203571Y-128738014D02*
X147227380Y-128785633D01*
X147227380Y-128785633D02*
X147227380Y-128880871D01*
X147227380Y-128880871D02*
X147203571Y-128928490D01*
X147203571Y-128928490D02*
X147179761Y-128952300D01*
X147179761Y-128952300D02*
X147132142Y-128976109D01*
X147132142Y-128976109D02*
X147036904Y-128976109D01*
X147036904Y-128976109D02*
X146989285Y-128952300D01*
X146989285Y-128952300D02*
X146965476Y-128928490D01*
X146965476Y-128928490D02*
X146941666Y-128880871D01*
X146941666Y-128880871D02*
X146941666Y-128785633D01*
X146941666Y-128785633D02*
X146965476Y-128738014D01*
X146965476Y-128738014D02*
X146989285Y-128714204D01*
X146989285Y-128714204D02*
X147036904Y-128690395D01*
X172296428Y-136926109D02*
X172463094Y-136688014D01*
X172582142Y-136926109D02*
X172582142Y-136426109D01*
X172582142Y-136426109D02*
X172391666Y-136426109D01*
X172391666Y-136426109D02*
X172344047Y-136449919D01*
X172344047Y-136449919D02*
X172320237Y-136473728D01*
X172320237Y-136473728D02*
X172296428Y-136521347D01*
X172296428Y-136521347D02*
X172296428Y-136592776D01*
X172296428Y-136592776D02*
X172320237Y-136640395D01*
X172320237Y-136640395D02*
X172344047Y-136664204D01*
X172344047Y-136664204D02*
X172391666Y-136688014D01*
X172391666Y-136688014D02*
X172582142Y-136688014D01*
X172105951Y-136473728D02*
X172082142Y-136449919D01*
X172082142Y-136449919D02*
X172034523Y-136426109D01*
X172034523Y-136426109D02*
X171915475Y-136426109D01*
X171915475Y-136426109D02*
X171867856Y-136449919D01*
X171867856Y-136449919D02*
X171844047Y-136473728D01*
X171844047Y-136473728D02*
X171820237Y-136521347D01*
X171820237Y-136521347D02*
X171820237Y-136568966D01*
X171820237Y-136568966D02*
X171844047Y-136640395D01*
X171844047Y-136640395D02*
X172129761Y-136926109D01*
X172129761Y-136926109D02*
X171820237Y-136926109D01*
X171367857Y-136426109D02*
X171605952Y-136426109D01*
X171605952Y-136426109D02*
X171629761Y-136664204D01*
X171629761Y-136664204D02*
X171605952Y-136640395D01*
X171605952Y-136640395D02*
X171558333Y-136616585D01*
X171558333Y-136616585D02*
X171439285Y-136616585D01*
X171439285Y-136616585D02*
X171391666Y-136640395D01*
X171391666Y-136640395D02*
X171367857Y-136664204D01*
X171367857Y-136664204D02*
X171344047Y-136711823D01*
X171344047Y-136711823D02*
X171344047Y-136830871D01*
X171344047Y-136830871D02*
X171367857Y-136878490D01*
X171367857Y-136878490D02*
X171391666Y-136902300D01*
X171391666Y-136902300D02*
X171439285Y-136926109D01*
X171439285Y-136926109D02*
X171558333Y-136926109D01*
X171558333Y-136926109D02*
X171605952Y-136902300D01*
X171605952Y-136902300D02*
X171629761Y-136878490D01*
X149696428Y-119328490D02*
X149720237Y-119352300D01*
X149720237Y-119352300D02*
X149791666Y-119376109D01*
X149791666Y-119376109D02*
X149839285Y-119376109D01*
X149839285Y-119376109D02*
X149910713Y-119352300D01*
X149910713Y-119352300D02*
X149958332Y-119304680D01*
X149958332Y-119304680D02*
X149982142Y-119257061D01*
X149982142Y-119257061D02*
X150005951Y-119161823D01*
X150005951Y-119161823D02*
X150005951Y-119090395D01*
X150005951Y-119090395D02*
X149982142Y-118995157D01*
X149982142Y-118995157D02*
X149958332Y-118947538D01*
X149958332Y-118947538D02*
X149910713Y-118899919D01*
X149910713Y-118899919D02*
X149839285Y-118876109D01*
X149839285Y-118876109D02*
X149791666Y-118876109D01*
X149791666Y-118876109D02*
X149720237Y-118899919D01*
X149720237Y-118899919D02*
X149696428Y-118923728D01*
X149267856Y-119042776D02*
X149267856Y-119376109D01*
X149386904Y-118852300D02*
X149505951Y-119209442D01*
X149505951Y-119209442D02*
X149196428Y-119209442D01*
X149029761Y-118923728D02*
X149005952Y-118899919D01*
X149005952Y-118899919D02*
X148958333Y-118876109D01*
X148958333Y-118876109D02*
X148839285Y-118876109D01*
X148839285Y-118876109D02*
X148791666Y-118899919D01*
X148791666Y-118899919D02*
X148767857Y-118923728D01*
X148767857Y-118923728D02*
X148744047Y-118971347D01*
X148744047Y-118971347D02*
X148744047Y-119018966D01*
X148744047Y-119018966D02*
X148767857Y-119090395D01*
X148767857Y-119090395D02*
X149053571Y-119376109D01*
X149053571Y-119376109D02*
X148744047Y-119376109D01*
X160311309Y-122793047D02*
X160716071Y-122793047D01*
X160716071Y-122793047D02*
X160763690Y-122816857D01*
X160763690Y-122816857D02*
X160787500Y-122840666D01*
X160787500Y-122840666D02*
X160811309Y-122888285D01*
X160811309Y-122888285D02*
X160811309Y-122983523D01*
X160811309Y-122983523D02*
X160787500Y-123031142D01*
X160787500Y-123031142D02*
X160763690Y-123054952D01*
X160763690Y-123054952D02*
X160716071Y-123078761D01*
X160716071Y-123078761D02*
X160311309Y-123078761D01*
X160811309Y-123340667D02*
X160811309Y-123435905D01*
X160811309Y-123435905D02*
X160787500Y-123483524D01*
X160787500Y-123483524D02*
X160763690Y-123507333D01*
X160763690Y-123507333D02*
X160692261Y-123554952D01*
X160692261Y-123554952D02*
X160597023Y-123578762D01*
X160597023Y-123578762D02*
X160406547Y-123578762D01*
X160406547Y-123578762D02*
X160358928Y-123554952D01*
X160358928Y-123554952D02*
X160335119Y-123531143D01*
X160335119Y-123531143D02*
X160311309Y-123483524D01*
X160311309Y-123483524D02*
X160311309Y-123388286D01*
X160311309Y-123388286D02*
X160335119Y-123340667D01*
X160335119Y-123340667D02*
X160358928Y-123316857D01*
X160358928Y-123316857D02*
X160406547Y-123293048D01*
X160406547Y-123293048D02*
X160525595Y-123293048D01*
X160525595Y-123293048D02*
X160573214Y-123316857D01*
X160573214Y-123316857D02*
X160597023Y-123340667D01*
X160597023Y-123340667D02*
X160620833Y-123388286D01*
X160620833Y-123388286D02*
X160620833Y-123483524D01*
X160620833Y-123483524D02*
X160597023Y-123531143D01*
X160597023Y-123531143D02*
X160573214Y-123554952D01*
X160573214Y-123554952D02*
X160525595Y-123578762D01*
D14*
%TO.C,R34*%
X153977500Y-121612742D02*
X153977500Y-122087258D01*
X155022500Y-121612742D02*
X155022500Y-122087258D01*
%TO.C,C36*%
X168361252Y-128390000D02*
X166938748Y-128390000D01*
X168361252Y-130210000D02*
X166938748Y-130210000D01*
%TO.C,TH1*%
X168765000Y-137247936D02*
X168765000Y-138702064D01*
X170585000Y-137247936D02*
X170585000Y-138702064D01*
%TO.C,R37*%
X162102500Y-118487258D02*
X162102500Y-118012742D01*
X163147500Y-118487258D02*
X163147500Y-118012742D01*
%TO.C,R38*%
X159852500Y-118487258D02*
X159852500Y-118012742D01*
X160897500Y-118487258D02*
X160897500Y-118012742D01*
%TO.C,C32*%
X162686252Y-131740000D02*
X162163748Y-131740000D01*
X162686252Y-133210000D02*
X162163748Y-133210000D01*
%TO.C,D8*%
X155465000Y-128110000D02*
X155465000Y-125425000D01*
X157385000Y-125425000D02*
X157385000Y-128110000D01*
X157385000Y-128110000D02*
X155465000Y-128110000D01*
%TO.C,C43*%
X152265580Y-120590000D02*
X151984420Y-120590000D01*
X152265580Y-121610000D02*
X151984420Y-121610000D01*
%TO.C,R27*%
X162062742Y-134452500D02*
X162537258Y-134452500D01*
X162062742Y-135497500D02*
X162537258Y-135497500D01*
%TO.C,R35*%
X171302500Y-128712258D02*
X171302500Y-128237742D01*
X172347500Y-128712258D02*
X172347500Y-128237742D01*
%TO.C,R32*%
X165627500Y-125762258D02*
X165627500Y-125287742D01*
X166672500Y-125762258D02*
X166672500Y-125287742D01*
%TO.C,R33*%
X155952500Y-121612742D02*
X155952500Y-122087258D01*
X156997500Y-121612742D02*
X156997500Y-122087258D01*
%TO.C,C39*%
X152265580Y-122190000D02*
X151984420Y-122190000D01*
X152265580Y-123210000D02*
X151984420Y-123210000D01*
%TO.C,R26*%
X165687742Y-134452500D02*
X166162258Y-134452500D01*
X165687742Y-135497500D02*
X166162258Y-135497500D01*
%TO.C,C40*%
X156315000Y-137936252D02*
X156315000Y-137413748D01*
X157785000Y-137936252D02*
X157785000Y-137413748D01*
%TO.C,C28*%
X161690000Y-138159420D02*
X161690000Y-138440580D01*
X162710000Y-138159420D02*
X162710000Y-138440580D01*
%TO.C,C31*%
X165788748Y-131740000D02*
X166311252Y-131740000D01*
X165788748Y-133210000D02*
X166311252Y-133210000D01*
%TO.C,C44*%
X154065000Y-137936252D02*
X154065000Y-137413748D01*
X155535000Y-137936252D02*
X155535000Y-137413748D01*
%TO.C,R31*%
X166612742Y-121877500D02*
X167087258Y-121877500D01*
X166612742Y-122922500D02*
X167087258Y-122922500D01*
%TO.C,C41*%
X158565000Y-137413748D02*
X158565000Y-137936252D01*
X160035000Y-137413748D02*
X160035000Y-137936252D01*
%TO.C,C33*%
X166709420Y-118690000D02*
X166990580Y-118690000D01*
X166709420Y-119710000D02*
X166990580Y-119710000D01*
%TO.C,R30*%
X167087258Y-120352500D02*
X166612742Y-120352500D01*
X167087258Y-121397500D02*
X166612742Y-121397500D01*
D15*
%TO.C,G\u002A\u002A\u002A*%
G36*
X104318406Y-63472077D02*
G01*
X104443649Y-63472343D01*
X104558671Y-63473033D01*
X104660174Y-63474094D01*
X104744860Y-63475472D01*
X104809433Y-63477115D01*
X104850595Y-63478971D01*
X104865048Y-63480986D01*
X104865399Y-63483131D01*
X104871939Y-63508471D01*
X104886322Y-63560141D01*
X104907999Y-63636254D01*
X104936421Y-63734922D01*
X104971040Y-63854255D01*
X105011306Y-63992366D01*
X105056672Y-64147365D01*
X105106587Y-64317366D01*
X105160503Y-64500479D01*
X105217871Y-64694816D01*
X105253089Y-64814001D01*
X105289924Y-64938724D01*
X105324464Y-65055738D01*
X105355467Y-65160831D01*
X105381689Y-65249789D01*
X105401887Y-65318399D01*
X105414819Y-65362448D01*
X105427887Y-65407115D01*
X105451818Y-65488929D01*
X105477953Y-65578285D01*
X105502583Y-65662507D01*
X105509753Y-65687023D01*
X105534816Y-65772694D01*
X105564157Y-65872951D01*
X105594692Y-65977260D01*
X105623338Y-66075088D01*
X105637333Y-66122898D01*
X105663017Y-66210768D01*
X105686725Y-66292031D01*
X105706302Y-66359291D01*
X105719591Y-66405153D01*
X105722293Y-66414498D01*
X105735574Y-66460185D01*
X105755568Y-66528743D01*
X105780974Y-66615725D01*
X105810493Y-66716683D01*
X105842826Y-66827171D01*
X105876673Y-66942743D01*
X105892110Y-66995674D01*
X105922749Y-67102274D01*
X105949599Y-67197774D01*
X105971702Y-67278642D01*
X105988103Y-67341347D01*
X105997846Y-67382358D01*
X105999975Y-67398145D01*
X105995087Y-67397885D01*
X105970701Y-67388565D01*
X105925350Y-67367620D01*
X105858134Y-67334597D01*
X105768154Y-67289046D01*
X105654512Y-67230514D01*
X105516308Y-67158548D01*
X105352644Y-67072698D01*
X105315078Y-67053048D01*
X105247037Y-67017696D01*
X105161869Y-66973622D01*
X105064968Y-66923613D01*
X104961729Y-66870456D01*
X104857547Y-66816937D01*
X104767227Y-66770596D01*
X104672512Y-66721997D01*
X104587073Y-66678153D01*
X104515265Y-66641299D01*
X104461442Y-66613672D01*
X104429962Y-66597505D01*
X104378811Y-66573327D01*
X104345710Y-66564160D01*
X104331159Y-66571877D01*
X104331963Y-66596441D01*
X104336075Y-66619367D01*
X104343388Y-66667193D01*
X104352418Y-66730808D01*
X104362073Y-66802731D01*
X104366261Y-66834684D01*
X104379309Y-66933144D01*
X104395305Y-67052736D01*
X104413416Y-67187315D01*
X104432810Y-67330738D01*
X104452651Y-67476861D01*
X104472107Y-67619538D01*
X104490344Y-67752627D01*
X104506528Y-67869982D01*
X104519826Y-67965460D01*
X104520705Y-67971733D01*
X104530887Y-68045155D01*
X104544107Y-68141504D01*
X104559526Y-68254626D01*
X104576309Y-68378368D01*
X104593619Y-68506574D01*
X104610618Y-68633092D01*
X104616732Y-68678495D01*
X104632170Y-68791129D01*
X104646632Y-68893908D01*
X104659534Y-68982855D01*
X104670292Y-69053988D01*
X104678323Y-69103329D01*
X104683043Y-69126898D01*
X104686218Y-69136324D01*
X104691194Y-69143889D01*
X104698922Y-69143712D01*
X104711404Y-69133344D01*
X104730642Y-69110336D01*
X104758638Y-69072239D01*
X104797394Y-69016603D01*
X104848913Y-68940981D01*
X104915196Y-68842923D01*
X104917973Y-68838814D01*
X104957354Y-68781704D01*
X104990331Y-68735912D01*
X105013520Y-68706010D01*
X105023540Y-68696565D01*
X105022653Y-68709801D01*
X105017476Y-68749953D01*
X105008342Y-68814083D01*
X104995692Y-68899252D01*
X104979969Y-69002523D01*
X104961618Y-69120957D01*
X104941079Y-69251617D01*
X104918797Y-69391564D01*
X104901130Y-69501936D01*
X104878392Y-69644267D01*
X104856896Y-69779129D01*
X104837227Y-69902829D01*
X104819973Y-70011674D01*
X104805718Y-70101972D01*
X104795049Y-70170029D01*
X104788553Y-70212152D01*
X104784194Y-70239819D01*
X104774635Y-70292867D01*
X104766306Y-70329544D01*
X104760632Y-70343173D01*
X104751956Y-70334337D01*
X104729664Y-70305000D01*
X104697758Y-70259997D01*
X104659913Y-70204396D01*
X104636669Y-70169773D01*
X104584712Y-70093107D01*
X104532509Y-70016866D01*
X104488460Y-69953351D01*
X104484023Y-69947014D01*
X104434453Y-69875926D01*
X104380236Y-69797755D01*
X104332336Y-69728307D01*
X104310624Y-69696776D01*
X104269655Y-69637451D01*
X104217472Y-69562014D01*
X104157419Y-69475295D01*
X104092840Y-69382125D01*
X104027079Y-69287335D01*
X103966987Y-69200391D01*
X103912953Y-69121500D01*
X103867389Y-69054242D01*
X103832477Y-69001858D01*
X103810396Y-68967587D01*
X103803324Y-68954670D01*
X103811678Y-68958110D01*
X103841815Y-68974849D01*
X103889835Y-69003136D01*
X103951500Y-69040465D01*
X104022570Y-69084330D01*
X104076980Y-69117895D01*
X104143206Y-69157838D01*
X104197660Y-69189623D01*
X104235814Y-69210623D01*
X104253140Y-69218207D01*
X104255747Y-69217950D01*
X104261526Y-69211892D01*
X104261719Y-69194491D01*
X104255591Y-69161391D01*
X104242404Y-69108236D01*
X104221421Y-69030670D01*
X104217141Y-69015088D01*
X104201910Y-68959334D01*
X104181099Y-68882894D01*
X104156302Y-68791630D01*
X104129112Y-68691405D01*
X104101123Y-68588083D01*
X104064388Y-68452389D01*
X104012352Y-68260250D01*
X103960535Y-68068997D01*
X103909783Y-67881751D01*
X103860943Y-67701630D01*
X103814860Y-67531755D01*
X103772381Y-67375245D01*
X103734353Y-67235221D01*
X103701622Y-67114802D01*
X103675034Y-67017108D01*
X103655436Y-66945259D01*
X103643352Y-66900743D01*
X103620524Y-66815682D01*
X103596035Y-66723535D01*
X103573455Y-66637699D01*
X103556998Y-66575242D01*
X103537371Y-66501990D01*
X103520363Y-66439794D01*
X103508412Y-66397651D01*
X103508339Y-66397405D01*
X103487083Y-66323727D01*
X103459125Y-66223956D01*
X103425277Y-66101037D01*
X103386349Y-65957915D01*
X103343152Y-65797533D01*
X103326236Y-65734821D01*
X103305063Y-65657398D01*
X103287070Y-65592817D01*
X103273762Y-65546465D01*
X103266644Y-65523729D01*
X103262502Y-65508908D01*
X103265465Y-65497474D01*
X103277793Y-65502543D01*
X103311726Y-65519552D01*
X103361306Y-65545702D01*
X103420851Y-65578047D01*
X103429893Y-65583022D01*
X103539494Y-65643353D01*
X103667162Y-65713668D01*
X103807968Y-65791250D01*
X103956986Y-65873382D01*
X104109286Y-65957347D01*
X104259941Y-66040428D01*
X104404023Y-66119906D01*
X104536603Y-66193065D01*
X104652754Y-66257188D01*
X104747546Y-66309558D01*
X104790638Y-66333326D01*
X104872141Y-66377981D01*
X104942810Y-66416308D01*
X104998801Y-66446241D01*
X105036265Y-66465716D01*
X105051356Y-66472666D01*
X105055515Y-66471410D01*
X105058108Y-66463226D01*
X105054993Y-66445264D01*
X105045182Y-66415030D01*
X105027689Y-66370033D01*
X105001525Y-66307780D01*
X104965704Y-66225781D01*
X104919239Y-66121542D01*
X104861140Y-65992572D01*
X104829768Y-65922560D01*
X104785838Y-65823419D01*
X104730754Y-65698232D01*
X104664178Y-65546234D01*
X104636116Y-65482231D01*
X104600231Y-65400674D01*
X104561713Y-65313351D01*
X104524231Y-65228572D01*
X104491457Y-65154650D01*
X104467062Y-65099896D01*
X104455607Y-65074147D01*
X104432799Y-65022618D01*
X104401184Y-64951044D01*
X104362071Y-64862394D01*
X104316765Y-64759635D01*
X104266573Y-64645738D01*
X104212803Y-64523671D01*
X104156760Y-64396403D01*
X104099752Y-64266902D01*
X104043085Y-64138139D01*
X103988066Y-64013081D01*
X103936001Y-63894698D01*
X103888199Y-63785959D01*
X103845964Y-63689832D01*
X103810605Y-63609287D01*
X103783427Y-63547292D01*
X103765738Y-63506817D01*
X103758844Y-63490829D01*
X103758768Y-63490609D01*
X103763176Y-63485616D01*
X103781299Y-63481547D01*
X103815461Y-63478322D01*
X103867992Y-63475862D01*
X103941217Y-63474086D01*
X104037464Y-63472916D01*
X104159061Y-63472273D01*
X104308334Y-63472076D01*
X104318406Y-63472077D01*
G37*
G36*
X111345314Y-70881539D02*
G01*
X111386657Y-70954668D01*
X111417614Y-71010051D01*
X111435833Y-71043592D01*
X111455983Y-71087058D01*
X111478197Y-71147998D01*
X111490417Y-71198752D01*
X111493248Y-71235544D01*
X111481280Y-71330889D01*
X111443171Y-71418370D01*
X111381724Y-71492837D01*
X111299743Y-71549139D01*
X111220409Y-71588673D01*
X104640809Y-71588344D01*
X104567511Y-71588340D01*
X104041823Y-71588310D01*
X103545194Y-71588274D01*
X103076791Y-71588227D01*
X102635779Y-71588167D01*
X102221325Y-71588089D01*
X101832595Y-71587990D01*
X101468755Y-71587868D01*
X101128972Y-71587717D01*
X100812411Y-71587534D01*
X100518238Y-71587317D01*
X100245620Y-71587061D01*
X99993723Y-71586764D01*
X99761714Y-71586420D01*
X99548757Y-71586028D01*
X99354019Y-71585583D01*
X99176668Y-71585081D01*
X99015867Y-71584520D01*
X98870785Y-71583896D01*
X98740586Y-71583204D01*
X98624438Y-71582443D01*
X98521505Y-71581607D01*
X98430955Y-71580694D01*
X98351954Y-71579700D01*
X98283667Y-71578622D01*
X98225261Y-71577455D01*
X98175902Y-71576197D01*
X98134756Y-71574844D01*
X98100989Y-71573392D01*
X98073768Y-71571838D01*
X98052258Y-71570178D01*
X98035626Y-71568409D01*
X98023037Y-71566527D01*
X98013659Y-71564529D01*
X98006657Y-71562410D01*
X98001197Y-71560169D01*
X97982106Y-71550348D01*
X97918705Y-71506065D01*
X97861459Y-71450632D01*
X97821531Y-71394349D01*
X97815784Y-71382204D01*
X97795258Y-71310163D01*
X97788883Y-71229395D01*
X97798172Y-71155389D01*
X97807417Y-71129006D01*
X97830817Y-71076256D01*
X97862749Y-71012549D01*
X97899095Y-70946415D01*
X97943353Y-70869657D01*
X98782046Y-70869657D01*
X98783924Y-70870014D01*
X98809103Y-70871062D01*
X98862633Y-70872068D01*
X98943272Y-70873033D01*
X99049779Y-70873957D01*
X99180911Y-70874839D01*
X99335428Y-70875680D01*
X99512088Y-70876479D01*
X99709649Y-70877236D01*
X99926869Y-70877952D01*
X100162506Y-70878624D01*
X100415320Y-70879255D01*
X100684069Y-70879842D01*
X100967510Y-70880387D01*
X101264403Y-70880889D01*
X101573505Y-70881348D01*
X101893575Y-70881764D01*
X102223372Y-70882136D01*
X102561653Y-70882464D01*
X102907178Y-70882749D01*
X103258704Y-70882990D01*
X103614989Y-70883187D01*
X103974793Y-70883339D01*
X104336874Y-70883447D01*
X104699989Y-70883511D01*
X105062898Y-70883529D01*
X105424358Y-70883503D01*
X105783128Y-70883432D01*
X106137967Y-70883315D01*
X106487633Y-70883153D01*
X106830883Y-70882946D01*
X107166478Y-70882692D01*
X107493174Y-70882393D01*
X107809730Y-70882047D01*
X108114905Y-70881656D01*
X108407457Y-70881218D01*
X108686144Y-70880733D01*
X108949725Y-70880202D01*
X109196958Y-70879623D01*
X109426602Y-70878998D01*
X109637414Y-70878325D01*
X109828153Y-70877605D01*
X109997578Y-70876837D01*
X110144447Y-70876022D01*
X110267519Y-70875158D01*
X110365551Y-70874247D01*
X110437302Y-70873287D01*
X110481530Y-70872279D01*
X110496994Y-70871222D01*
X110497795Y-70868947D01*
X110492901Y-70845795D01*
X110476037Y-70811936D01*
X110461196Y-70786818D01*
X110433667Y-70739523D01*
X110395762Y-70674048D01*
X110349755Y-70594331D01*
X110297923Y-70504308D01*
X110242541Y-70407917D01*
X110188817Y-70314447D01*
X110135228Y-70221477D01*
X110086763Y-70137661D01*
X110045870Y-70067222D01*
X110014992Y-70014380D01*
X109996576Y-69983357D01*
X109985599Y-69965038D01*
X109957008Y-69916450D01*
X109919267Y-69851646D01*
X109875998Y-69776854D01*
X109830822Y-69698301D01*
X109813792Y-69668628D01*
X109760865Y-69576707D01*
X109706184Y-69482115D01*
X109655291Y-69394430D01*
X109613731Y-69323227D01*
X109585306Y-69274749D01*
X109533908Y-69187082D01*
X109482158Y-69098807D01*
X109437820Y-69023168D01*
X109413148Y-68980930D01*
X109373796Y-68913049D01*
X109338806Y-68852120D01*
X109313619Y-68807590D01*
X109307609Y-68796905D01*
X109284075Y-68755670D01*
X109248633Y-68694023D01*
X109203497Y-68615797D01*
X109150883Y-68524828D01*
X109093002Y-68424949D01*
X109032070Y-68319994D01*
X109003069Y-68270074D01*
X108944288Y-68168812D01*
X108890142Y-68075431D01*
X108842721Y-67993542D01*
X108804115Y-67926755D01*
X108776415Y-67878684D01*
X108761712Y-67852938D01*
X108751332Y-67834623D01*
X108724434Y-67787725D01*
X108690200Y-67728471D01*
X108653558Y-67665401D01*
X108604354Y-67580955D01*
X108497335Y-67397199D01*
X108405304Y-67239049D01*
X108328143Y-67106301D01*
X108265732Y-66998750D01*
X108217954Y-66916192D01*
X108184689Y-66858422D01*
X108165819Y-66825236D01*
X108154704Y-66805587D01*
X108126056Y-66755789D01*
X108090306Y-66694320D01*
X108052685Y-66630197D01*
X108035197Y-66600406D01*
X107999622Y-66539478D01*
X107954103Y-66461281D01*
X107901421Y-66370614D01*
X107844358Y-66272278D01*
X107785696Y-66171073D01*
X107728217Y-66071800D01*
X107674704Y-65979259D01*
X107627937Y-65898250D01*
X107590700Y-65833575D01*
X107565774Y-65790032D01*
X107563654Y-65786306D01*
X107555392Y-65771851D01*
X107544880Y-65753572D01*
X107530690Y-65729014D01*
X107511397Y-65695720D01*
X107485571Y-65651233D01*
X107451788Y-65593096D01*
X107408621Y-65518852D01*
X107354641Y-65426044D01*
X107288423Y-65312216D01*
X107208540Y-65174911D01*
X107168868Y-65106663D01*
X107108321Y-65002356D01*
X107040098Y-64884701D01*
X106968293Y-64760761D01*
X106896999Y-64637600D01*
X106830311Y-64522282D01*
X106779002Y-64433555D01*
X106707772Y-64310507D01*
X106634838Y-64184641D01*
X106564377Y-64063159D01*
X106500563Y-63953262D01*
X106447571Y-63862152D01*
X106435835Y-63841992D01*
X106385617Y-63755571D01*
X106338820Y-63674805D01*
X106298370Y-63604758D01*
X106267193Y-63550496D01*
X106248216Y-63517084D01*
X106247350Y-63515536D01*
X106224415Y-63475189D01*
X106190884Y-63416949D01*
X106151125Y-63348378D01*
X106109508Y-63277037D01*
X106099716Y-63260305D01*
X106018403Y-63121208D01*
X105941713Y-62989755D01*
X105870966Y-62868226D01*
X105807482Y-62758900D01*
X105752581Y-62664058D01*
X105707582Y-62585978D01*
X105673806Y-62526941D01*
X105652573Y-62489226D01*
X105645202Y-62475113D01*
X105644614Y-62473437D01*
X105633692Y-62453193D01*
X105611820Y-62415612D01*
X105582728Y-62367141D01*
X105550100Y-62312799D01*
X105504737Y-62236135D01*
X105453436Y-62148639D01*
X105400459Y-62057631D01*
X105350064Y-61970434D01*
X105306514Y-61894368D01*
X105274069Y-61836754D01*
X105263693Y-61818243D01*
X105229006Y-61758041D01*
X105195476Y-61701727D01*
X105187331Y-61688172D01*
X105161450Y-61644286D01*
X105124776Y-61581480D01*
X105080047Y-61504464D01*
X105030002Y-61417952D01*
X104977383Y-61326653D01*
X104954117Y-61286242D01*
X104899860Y-61192224D01*
X104847962Y-61102586D01*
X104801568Y-61022739D01*
X104763818Y-60958098D01*
X104737855Y-60914072D01*
X104730452Y-60901582D01*
X104700703Y-60849962D01*
X104677590Y-60807647D01*
X104665603Y-60782796D01*
X104658290Y-60768666D01*
X104642572Y-60756541D01*
X104638967Y-60759841D01*
X104621621Y-60784406D01*
X104592270Y-60830332D01*
X104552814Y-60894506D01*
X104505156Y-60973814D01*
X104451199Y-61065140D01*
X104392844Y-61165372D01*
X104381633Y-61184761D01*
X104316602Y-61297167D01*
X104251165Y-61410161D01*
X104188406Y-61518431D01*
X104131406Y-61616660D01*
X104083247Y-61699534D01*
X104047012Y-61761739D01*
X104016829Y-61813524D01*
X103969102Y-61895584D01*
X103912606Y-61992860D01*
X103850771Y-62099438D01*
X103787031Y-62209405D01*
X103724818Y-62316848D01*
X103723409Y-62319283D01*
X103665514Y-62419218D01*
X103610036Y-62514787D01*
X103559494Y-62601667D01*
X103516405Y-62675534D01*
X103483288Y-62732065D01*
X103462662Y-62766937D01*
X103439641Y-62805815D01*
X103408428Y-62859751D01*
X103384798Y-62901963D01*
X103372505Y-62924137D01*
X103345091Y-62972370D01*
X103310324Y-63032692D01*
X103272853Y-63097002D01*
X103270487Y-63101042D01*
X103244481Y-63145606D01*
X103205516Y-63212556D01*
X103155431Y-63298726D01*
X103096061Y-63400954D01*
X103029244Y-63516075D01*
X102956817Y-63640926D01*
X102880615Y-63772343D01*
X102802478Y-63907161D01*
X102758498Y-63983061D01*
X102663597Y-64146843D01*
X102562322Y-64321623D01*
X102458243Y-64501243D01*
X102354930Y-64679541D01*
X102255953Y-64850358D01*
X102164880Y-65007532D01*
X102085281Y-65144905D01*
X102046306Y-65212176D01*
X101975799Y-65333915D01*
X101908868Y-65449529D01*
X101847425Y-65555714D01*
X101793383Y-65649163D01*
X101748654Y-65726571D01*
X101715150Y-65784631D01*
X101694783Y-65820038D01*
X101671176Y-65861019D01*
X101630624Y-65930868D01*
X101585452Y-66008220D01*
X101541770Y-66082589D01*
X101531811Y-66099515D01*
X101492157Y-66167243D01*
X101442507Y-66252410D01*
X101386634Y-66348530D01*
X101328310Y-66449116D01*
X101271307Y-66547681D01*
X101267325Y-66554577D01*
X101202109Y-66667401D01*
X101128013Y-66795429D01*
X101050854Y-66928617D01*
X100976451Y-67056923D01*
X100910621Y-67170304D01*
X100878225Y-67226090D01*
X100826700Y-67314972D01*
X100779943Y-67395815D01*
X100740534Y-67464145D01*
X100711058Y-67515491D01*
X100694095Y-67545377D01*
X100692964Y-67547401D01*
X100673727Y-67581178D01*
X100642576Y-67635233D01*
X100602474Y-67704454D01*
X100556381Y-67783728D01*
X100507260Y-67867941D01*
X100503234Y-67874832D01*
X100453837Y-67959542D01*
X100407358Y-68039499D01*
X100366859Y-68109419D01*
X100335402Y-68164016D01*
X100316049Y-68198006D01*
X100315127Y-68199649D01*
X100292088Y-68240026D01*
X100258407Y-68298247D01*
X100218464Y-68366770D01*
X100176640Y-68438053D01*
X100172551Y-68444999D01*
X100131855Y-68514281D01*
X100094399Y-68578296D01*
X100064187Y-68630188D01*
X100045225Y-68663097D01*
X100040144Y-68672010D01*
X100016588Y-68713048D01*
X99980856Y-68775076D01*
X99935059Y-68854436D01*
X99881310Y-68947472D01*
X99821724Y-69050527D01*
X99758414Y-69159944D01*
X99693491Y-69272067D01*
X99629070Y-69383239D01*
X99602217Y-69429599D01*
X99550206Y-69519525D01*
X99491904Y-69620455D01*
X99432652Y-69723137D01*
X99377792Y-69818325D01*
X99376239Y-69821021D01*
X99331138Y-69899103D01*
X99290841Y-69968454D01*
X99257880Y-70024750D01*
X99234786Y-70063665D01*
X99224091Y-70080877D01*
X99217453Y-70091044D01*
X99198479Y-70123126D01*
X99174671Y-70165462D01*
X99166255Y-70180511D01*
X99140576Y-70225541D01*
X99103900Y-70289222D01*
X99058930Y-70366879D01*
X99008372Y-70453834D01*
X98954930Y-70545411D01*
X98920379Y-70605035D01*
X98873883Y-70687132D01*
X98834814Y-70758370D01*
X98805160Y-70815021D01*
X98786909Y-70853359D01*
X98782046Y-70869657D01*
X97943353Y-70869657D01*
X97959066Y-70842405D01*
X98034616Y-70711450D01*
X98120571Y-70562522D01*
X98214564Y-70399723D01*
X98314225Y-70227155D01*
X98320463Y-70216354D01*
X98364611Y-70139858D01*
X98418687Y-70046092D01*
X98478389Y-69942520D01*
X98539414Y-69836604D01*
X98597461Y-69735809D01*
X98706117Y-69547140D01*
X98909794Y-69193845D01*
X99116927Y-68835045D01*
X99333392Y-68460558D01*
X99351897Y-68428560D01*
X99465898Y-68231401D01*
X99565587Y-68058906D01*
X99651611Y-67909955D01*
X99724615Y-67783425D01*
X99785247Y-67678196D01*
X99834151Y-67593146D01*
X99871975Y-67527154D01*
X99899365Y-67479099D01*
X99916967Y-67447858D01*
X99926112Y-67431589D01*
X99955669Y-67379912D01*
X99992154Y-67316943D01*
X100029708Y-67252820D01*
X100042928Y-67230306D01*
X100082414Y-67162548D01*
X100129852Y-67080632D01*
X100180409Y-66992914D01*
X100229252Y-66907752D01*
X100255392Y-66862128D01*
X100299815Y-66784972D01*
X100340248Y-66715191D01*
X100373073Y-66659022D01*
X100394673Y-66622696D01*
X100405787Y-66604201D01*
X100440937Y-66543992D01*
X100472636Y-66487669D01*
X100486471Y-66462945D01*
X100514809Y-66413106D01*
X100554266Y-66344149D01*
X100602720Y-66259752D01*
X100658047Y-66163595D01*
X100718125Y-66059356D01*
X100780829Y-65950713D01*
X100844036Y-65841344D01*
X100905624Y-65734928D01*
X100963469Y-65635143D01*
X101015448Y-65545669D01*
X101059437Y-65470182D01*
X101093314Y-65412362D01*
X101118949Y-65367978D01*
X101147568Y-65316007D01*
X101167097Y-65277507D01*
X101174322Y-65258582D01*
X101174942Y-65253991D01*
X101189325Y-65242424D01*
X101193093Y-65241932D01*
X101204327Y-65227123D01*
X101205512Y-65221303D01*
X101217911Y-65193416D01*
X101239451Y-65155859D01*
X101249516Y-65139584D01*
X101281615Y-65085857D01*
X101312344Y-65032383D01*
X101323386Y-65012707D01*
X101354012Y-64958562D01*
X101380437Y-64912359D01*
X101384216Y-64905817D01*
X101406285Y-64867617D01*
X101438617Y-64811666D01*
X101477484Y-64744414D01*
X101519157Y-64672312D01*
X101550821Y-64617529D01*
X101639254Y-64464503D01*
X101714953Y-64333471D01*
X101779649Y-64221427D01*
X101835076Y-64125366D01*
X101882965Y-64042284D01*
X101925049Y-63969174D01*
X101963060Y-63903033D01*
X101998731Y-63840855D01*
X102033793Y-63779636D01*
X102055761Y-63741318D01*
X102099799Y-63664874D01*
X102140176Y-63595240D01*
X102173162Y-63538835D01*
X102195027Y-63502082D01*
X102206125Y-63483638D01*
X102241461Y-63423407D01*
X102273478Y-63367055D01*
X102277368Y-63360074D01*
X102301815Y-63316855D01*
X102336361Y-63256414D01*
X102376976Y-63185785D01*
X102419629Y-63112005D01*
X102444357Y-63069294D01*
X102490934Y-62988681D01*
X102546456Y-62892445D01*
X102607354Y-62786775D01*
X102670060Y-62677862D01*
X102731004Y-62571898D01*
X102732033Y-62570109D01*
X102785913Y-62476522D01*
X102835161Y-62391264D01*
X102877717Y-62317875D01*
X102911524Y-62259895D01*
X102934523Y-62220865D01*
X102944658Y-62204326D01*
X102950726Y-62195020D01*
X102969345Y-62163563D01*
X102992854Y-62121810D01*
X103000946Y-62107302D01*
X103026603Y-62062000D01*
X103063706Y-61996984D01*
X103109898Y-61916353D01*
X103162822Y-61824204D01*
X103220120Y-61724637D01*
X103279434Y-61621750D01*
X103338408Y-61519642D01*
X103394683Y-61422410D01*
X103445903Y-61334155D01*
X103516559Y-61212269D01*
X103607967Y-61053775D01*
X103712127Y-60872412D01*
X103829990Y-60666523D01*
X103856118Y-60620910D01*
X103900534Y-60543750D01*
X103940962Y-60473967D01*
X103973783Y-60417794D01*
X103995381Y-60381467D01*
X104006480Y-60363024D01*
X104041815Y-60302792D01*
X104073832Y-60246441D01*
X104079229Y-60236722D01*
X104125524Y-60154441D01*
X104174846Y-60068406D01*
X104224247Y-59983607D01*
X104270775Y-59905031D01*
X104311481Y-59837665D01*
X104343413Y-59786498D01*
X104363623Y-59756516D01*
X104381386Y-59734959D01*
X104453695Y-59674942D01*
X104538320Y-59637957D01*
X104629509Y-59624331D01*
X104721511Y-59634390D01*
X104808574Y-59668463D01*
X104884949Y-59726876D01*
X104908689Y-59755451D01*
X104946018Y-59807868D01*
X104990805Y-59876081D01*
X105039375Y-59954475D01*
X105088058Y-60037434D01*
X105129435Y-60109910D01*
X105176524Y-60192108D01*
X105219181Y-60266280D01*
X105253943Y-60326406D01*
X105277344Y-60366464D01*
X105299113Y-60403571D01*
X105334360Y-60464544D01*
X105363835Y-60516494D01*
X105369163Y-60525969D01*
X105392675Y-60567295D01*
X105427381Y-60627894D01*
X105470480Y-60702890D01*
X105519170Y-60787406D01*
X105570651Y-60876565D01*
X105629670Y-60978762D01*
X105696610Y-61094851D01*
X105764474Y-61212691D01*
X105827939Y-61323044D01*
X105881687Y-61416671D01*
X105883077Y-61419095D01*
X105928047Y-61497249D01*
X105968288Y-61566672D01*
X106001263Y-61623031D01*
X106024439Y-61661992D01*
X106035281Y-61679223D01*
X106039330Y-61685218D01*
X106056806Y-61714209D01*
X106082942Y-61759497D01*
X106113764Y-61814249D01*
X106134135Y-61850524D01*
X106172702Y-61918385D01*
X106219324Y-61999777D01*
X106269869Y-62087492D01*
X106320204Y-62174320D01*
X106361701Y-62245706D01*
X106404913Y-62320147D01*
X106441903Y-62383977D01*
X106469711Y-62432088D01*
X106485378Y-62459376D01*
X106489210Y-62466096D01*
X106509014Y-62500581D01*
X106541002Y-62556118D01*
X106583098Y-62629116D01*
X106633230Y-62715986D01*
X106689324Y-62813138D01*
X106749306Y-62916983D01*
X106811103Y-63023931D01*
X106872641Y-63130392D01*
X106931846Y-63232777D01*
X106986645Y-63327496D01*
X107034964Y-63410959D01*
X107074729Y-63479577D01*
X107080769Y-63489996D01*
X107122777Y-63562632D01*
X107162291Y-63631232D01*
X107195112Y-63688497D01*
X107217045Y-63727126D01*
X107221939Y-63735819D01*
X107248864Y-63783209D01*
X107284148Y-63844842D01*
X107324881Y-63915685D01*
X107368152Y-63990702D01*
X107411049Y-64064861D01*
X107450662Y-64133128D01*
X107484080Y-64190467D01*
X107508391Y-64231846D01*
X107520686Y-64252229D01*
X107525290Y-64259652D01*
X107544507Y-64292871D01*
X107567596Y-64334745D01*
X107568677Y-64336741D01*
X107587534Y-64370500D01*
X107618311Y-64424553D01*
X107658071Y-64493784D01*
X107703877Y-64573074D01*
X107752789Y-64657309D01*
X107780616Y-64705151D01*
X107832276Y-64794138D01*
X107889908Y-64893580D01*
X107951177Y-64999430D01*
X108013746Y-65107643D01*
X108075279Y-65214174D01*
X108133440Y-65314976D01*
X108185892Y-65406005D01*
X108230298Y-65483214D01*
X108264324Y-65542557D01*
X108285632Y-65579991D01*
X108300468Y-65605969D01*
X108327796Y-65653469D01*
X108364492Y-65717067D01*
X108407669Y-65791760D01*
X108454441Y-65872548D01*
X108553555Y-66043627D01*
X108646890Y-66204771D01*
X108727107Y-66343323D01*
X108795214Y-66461027D01*
X108852218Y-66559627D01*
X108899127Y-66640868D01*
X108936947Y-66706494D01*
X108966686Y-66758250D01*
X108989351Y-66797880D01*
X109005950Y-66827128D01*
X109017488Y-66847740D01*
X109035882Y-66880441D01*
X109070253Y-66940133D01*
X109104194Y-66997770D01*
X109122404Y-67028717D01*
X109153818Y-67082684D01*
X109196136Y-67155709D01*
X109247322Y-67244266D01*
X109305337Y-67344830D01*
X109368146Y-67453877D01*
X109433709Y-67567882D01*
X109454902Y-67604753D01*
X109538605Y-67750254D01*
X109631250Y-67911134D01*
X109728070Y-68079124D01*
X109824298Y-68245956D01*
X109915168Y-68403362D01*
X109995913Y-68543074D01*
X110055257Y-68645685D01*
X110183199Y-68866934D01*
X110297101Y-69063952D01*
X110397665Y-69237951D01*
X110485590Y-69390147D01*
X110561575Y-69521751D01*
X110626321Y-69633977D01*
X110680528Y-69728039D01*
X110724895Y-69805150D01*
X110760122Y-69866524D01*
X110786909Y-69913374D01*
X110805956Y-69946913D01*
X110817963Y-69968354D01*
X110836331Y-70001084D01*
X110870660Y-70060763D01*
X110904600Y-70118384D01*
X110922806Y-70149006D01*
X110962596Y-70216694D01*
X111010810Y-70299395D01*
X111065096Y-70393012D01*
X111123103Y-70493452D01*
X111182479Y-70596620D01*
X111240874Y-70698420D01*
X111295936Y-70794758D01*
X111338149Y-70868947D01*
X111345314Y-70881539D01*
G37*
D14*
%TO.C,C34*%
X169340000Y-124586252D02*
X169340000Y-123163748D01*
X171160000Y-124586252D02*
X171160000Y-123163748D01*
%TO.C,U8*%
X165595002Y-136915000D02*
X164795002Y-136915000D01*
X165595002Y-136915000D02*
X166395002Y-136915000D01*
X165595002Y-140035000D02*
X164795002Y-140035000D01*
X165595002Y-140035000D02*
X166395002Y-140035000D01*
X166895002Y-136965000D02*
X166655002Y-136635000D01*
X167135002Y-136635000D01*
X166895002Y-136965000D01*
G36*
X166895002Y-136965000D02*
G01*
X166655002Y-136635000D01*
X167135002Y-136635000D01*
X166895002Y-136965000D01*
G37*
%TO.C,C35*%
X167465000Y-125384420D02*
X167465000Y-125665580D01*
X168485000Y-125384420D02*
X168485000Y-125665580D01*
%TO.C,J8*%
X147490000Y-139315000D02*
X147490000Y-130885000D01*
X150310000Y-129615000D02*
X151760000Y-129615000D01*
X150310000Y-140585000D02*
X151760000Y-140585000D01*
X151760000Y-129615000D02*
X151760000Y-131415000D01*
X151760000Y-138785000D02*
X152750000Y-138785000D01*
X151760000Y-140585000D02*
X151760000Y-138785000D01*
%TO.C,R25*%
X171427500Y-138387742D02*
X171427500Y-138862258D01*
X172472500Y-138387742D02*
X172472500Y-138862258D01*
%TO.C,C42*%
X151638748Y-118415000D02*
X152161252Y-118415000D01*
X151638748Y-119885000D02*
X152161252Y-119885000D01*
D16*
%TO.C,U9*%
X159578700Y-129066800D02*
X159578700Y-120583200D01*
X160072400Y-120202200D02*
X160915400Y-120202200D01*
X163090300Y-129447800D02*
X159959700Y-129447800D01*
X163190300Y-120202200D02*
X162185400Y-120202200D01*
X163471300Y-120583200D02*
X163471300Y-129166800D01*
X159578700Y-120583200D02*
G75*
G02*
X160059700Y-120202200I430920J-49899D01*
G01*
X159959700Y-129447800D02*
G75*
G02*
X159578700Y-129066800I-100J380900D01*
G01*
X162185400Y-120253000D02*
G75*
G02*
X160915400Y-120253000I-635000J0D01*
G01*
X163190300Y-120202200D02*
G75*
G02*
X163471300Y-120583200I-49999J-330999D01*
G01*
X163471300Y-129166800D02*
G75*
G02*
X163090300Y-129447800I-331000J50000D01*
G01*
D17*
X163945648Y-120253000D02*
G75*
G02*
X163727152Y-120253000I-109248J0D01*
G01*
X163727152Y-120253000D02*
G75*
G02*
X163945648Y-120253000I109248J0D01*
G01*
%TD*%
M02*
