%TF.GenerationSoftware,KiCad,Pcbnew,9.0.1*%
%TF.CreationDate,2025-04-08T16:08:48+03:00*%
%TF.ProjectId,xBowtie E_itim,78426f77-7469-4652-9045-1f6974696d2e,rev?*%
%TF.SameCoordinates,Original*%
%TF.FileFunction,Copper,L3,Inr*%
%TF.FilePolarity,Positive*%
%FSLAX46Y46*%
G04 Gerber Fmt 4.6, Leading zero omitted, Abs format (unit mm)*
G04 Created by KiCad (PCBNEW 9.0.1) date 2025-04-08 16:08:48*
%MOMM*%
%LPD*%
G01*
G04 APERTURE LIST*
G04 Aperture macros list*
%AMRoundRect*
0 Rectangle with rounded corners*
0 $1 Rounding radius*
0 $2 $3 $4 $5 $6 $7 $8 $9 X,Y pos of 4 corners*
0 Add a 4 corners polygon primitive as box body*
4,1,4,$2,$3,$4,$5,$6,$7,$8,$9,$2,$3,0*
0 Add four circle primitives for the rounded corners*
1,1,$1+$1,$2,$3*
1,1,$1+$1,$4,$5*
1,1,$1+$1,$6,$7*
1,1,$1+$1,$8,$9*
0 Add four rect primitives between the rounded corners*
20,1,$1+$1,$2,$3,$4,$5,0*
20,1,$1+$1,$4,$5,$6,$7,0*
20,1,$1+$1,$6,$7,$8,$9,0*
20,1,$1+$1,$8,$9,$2,$3,0*%
G04 Aperture macros list end*
%ADD10C,0.100000*%
%ADD11C,0.150000*%
%ADD12C,0.300000*%
%ADD13C,0.400000*%
%TA.AperFunction,ComponentPad*%
%ADD14RoundRect,0.250000X-1.550000X0.750000X-1.550000X-0.750000X1.550000X-0.750000X1.550000X0.750000X0*%
%TD*%
%TA.AperFunction,ComponentPad*%
%ADD15O,3.600000X2.000000*%
%TD*%
%TA.AperFunction,ComponentPad*%
%ADD16C,2.400000*%
%TD*%
%TA.AperFunction,ComponentPad*%
%ADD17O,2.400000X2.400000*%
%TD*%
%TA.AperFunction,ComponentPad*%
%ADD18R,1.700000X1.700000*%
%TD*%
%TA.AperFunction,ComponentPad*%
%ADD19O,1.700000X1.700000*%
%TD*%
%TA.AperFunction,ComponentPad*%
%ADD20C,1.950000*%
%TD*%
%TA.AperFunction,HeatsinkPad*%
%ADD21C,0.600000*%
%TD*%
%TA.AperFunction,ComponentPad*%
%ADD22RoundRect,0.250000X-0.550000X-0.550000X0.550000X-0.550000X0.550000X0.550000X-0.550000X0.550000X0*%
%TD*%
%TA.AperFunction,ComponentPad*%
%ADD23C,1.600000*%
%TD*%
%TA.AperFunction,ComponentPad*%
%ADD24R,1.050000X1.500000*%
%TD*%
%TA.AperFunction,ComponentPad*%
%ADD25O,1.050000X1.500000*%
%TD*%
%TA.AperFunction,ComponentPad*%
%ADD26R,2.000000X2.000000*%
%TD*%
%TA.AperFunction,ComponentPad*%
%ADD27C,2.000000*%
%TD*%
%TA.AperFunction,ComponentPad*%
%ADD28RoundRect,0.250000X0.750000X1.550000X-0.750000X1.550000X-0.750000X-1.550000X0.750000X-1.550000X0*%
%TD*%
%TA.AperFunction,ComponentPad*%
%ADD29O,2.000000X3.600000*%
%TD*%
%TA.AperFunction,ComponentPad*%
%ADD30C,1.320800*%
%TD*%
%TA.AperFunction,HeatsinkPad*%
%ADD31O,1.000000X2.100000*%
%TD*%
%TA.AperFunction,HeatsinkPad*%
%ADD32O,1.000000X1.800000*%
%TD*%
%TA.AperFunction,ComponentPad*%
%ADD33R,3.500000X3.500000*%
%TD*%
%TA.AperFunction,ComponentPad*%
%ADD34RoundRect,0.750000X1.000000X-0.750000X1.000000X0.750000X-1.000000X0.750000X-1.000000X-0.750000X0*%
%TD*%
%TA.AperFunction,ComponentPad*%
%ADD35RoundRect,0.875000X0.875000X-0.875000X0.875000X0.875000X-0.875000X0.875000X-0.875000X-0.875000X0*%
%TD*%
%TA.AperFunction,ComponentPad*%
%ADD36RoundRect,0.750000X-0.750000X-1.000000X0.750000X-1.000000X0.750000X1.000000X-0.750000X1.000000X0*%
%TD*%
%TA.AperFunction,ComponentPad*%
%ADD37RoundRect,0.875000X-0.875000X-0.875000X0.875000X-0.875000X0.875000X0.875000X-0.875000X0.875000X0*%
%TD*%
%TA.AperFunction,ComponentPad*%
%ADD38R,1.600000X1.600000*%
%TD*%
%TA.AperFunction,ViaPad*%
%ADD39C,0.600000*%
%TD*%
%TA.AperFunction,ViaPad*%
%ADD40C,0.500000*%
%TD*%
%TA.AperFunction,Conductor*%
%ADD41C,1.270000*%
%TD*%
%TA.AperFunction,Conductor*%
%ADD42C,0.381000*%
%TD*%
%TA.AperFunction,Conductor*%
%ADD43C,0.254000*%
%TD*%
G04 APERTURE END LIST*
D10*
D11*
X177002200Y-166007200D02*
X285002200Y-166007200D01*
X285002200Y-198007200D01*
X177002200Y-198007200D01*
X177002200Y-166007200D01*
D10*
D11*
X10000000Y-10000000D02*
X287002200Y-10000000D01*
X287002200Y-200007200D01*
X10000000Y-200007200D01*
X10000000Y-10000000D01*
D10*
D11*
X12000000Y-12000000D02*
X285002200Y-12000000D01*
X285002200Y-198007200D01*
X12000000Y-198007200D01*
X12000000Y-12000000D01*
D10*
D11*
X60000000Y-12000000D02*
X60000000Y-10000000D01*
D10*
D11*
X110000000Y-12000000D02*
X110000000Y-10000000D01*
D10*
D11*
X160000000Y-12000000D02*
X160000000Y-10000000D01*
D10*
D11*
X210000000Y-12000000D02*
X210000000Y-10000000D01*
D10*
D11*
X260000000Y-12000000D02*
X260000000Y-10000000D01*
D10*
D11*
X36089160Y-11593604D02*
X35346303Y-11593604D01*
X35717731Y-11593604D02*
X35717731Y-10293604D01*
X35717731Y-10293604D02*
X35593922Y-10479319D01*
X35593922Y-10479319D02*
X35470112Y-10603128D01*
X35470112Y-10603128D02*
X35346303Y-10665033D01*
D10*
D11*
X85346303Y-10417414D02*
X85408207Y-10355509D01*
X85408207Y-10355509D02*
X85532017Y-10293604D01*
X85532017Y-10293604D02*
X85841541Y-10293604D01*
X85841541Y-10293604D02*
X85965350Y-10355509D01*
X85965350Y-10355509D02*
X86027255Y-10417414D01*
X86027255Y-10417414D02*
X86089160Y-10541223D01*
X86089160Y-10541223D02*
X86089160Y-10665033D01*
X86089160Y-10665033D02*
X86027255Y-10850747D01*
X86027255Y-10850747D02*
X85284398Y-11593604D01*
X85284398Y-11593604D02*
X86089160Y-11593604D01*
D10*
D11*
X135284398Y-10293604D02*
X136089160Y-10293604D01*
X136089160Y-10293604D02*
X135655826Y-10788842D01*
X135655826Y-10788842D02*
X135841541Y-10788842D01*
X135841541Y-10788842D02*
X135965350Y-10850747D01*
X135965350Y-10850747D02*
X136027255Y-10912652D01*
X136027255Y-10912652D02*
X136089160Y-11036461D01*
X136089160Y-11036461D02*
X136089160Y-11345985D01*
X136089160Y-11345985D02*
X136027255Y-11469795D01*
X136027255Y-11469795D02*
X135965350Y-11531700D01*
X135965350Y-11531700D02*
X135841541Y-11593604D01*
X135841541Y-11593604D02*
X135470112Y-11593604D01*
X135470112Y-11593604D02*
X135346303Y-11531700D01*
X135346303Y-11531700D02*
X135284398Y-11469795D01*
D10*
D11*
X185965350Y-10726938D02*
X185965350Y-11593604D01*
X185655826Y-10231700D02*
X185346303Y-11160271D01*
X185346303Y-11160271D02*
X186151064Y-11160271D01*
D10*
D11*
X236027255Y-10293604D02*
X235408207Y-10293604D01*
X235408207Y-10293604D02*
X235346303Y-10912652D01*
X235346303Y-10912652D02*
X235408207Y-10850747D01*
X235408207Y-10850747D02*
X235532017Y-10788842D01*
X235532017Y-10788842D02*
X235841541Y-10788842D01*
X235841541Y-10788842D02*
X235965350Y-10850747D01*
X235965350Y-10850747D02*
X236027255Y-10912652D01*
X236027255Y-10912652D02*
X236089160Y-11036461D01*
X236089160Y-11036461D02*
X236089160Y-11345985D01*
X236089160Y-11345985D02*
X236027255Y-11469795D01*
X236027255Y-11469795D02*
X235965350Y-11531700D01*
X235965350Y-11531700D02*
X235841541Y-11593604D01*
X235841541Y-11593604D02*
X235532017Y-11593604D01*
X235532017Y-11593604D02*
X235408207Y-11531700D01*
X235408207Y-11531700D02*
X235346303Y-11469795D01*
D10*
D11*
X285965350Y-10293604D02*
X285717731Y-10293604D01*
X285717731Y-10293604D02*
X285593922Y-10355509D01*
X285593922Y-10355509D02*
X285532017Y-10417414D01*
X285532017Y-10417414D02*
X285408207Y-10603128D01*
X285408207Y-10603128D02*
X285346303Y-10850747D01*
X285346303Y-10850747D02*
X285346303Y-11345985D01*
X285346303Y-11345985D02*
X285408207Y-11469795D01*
X285408207Y-11469795D02*
X285470112Y-11531700D01*
X285470112Y-11531700D02*
X285593922Y-11593604D01*
X285593922Y-11593604D02*
X285841541Y-11593604D01*
X285841541Y-11593604D02*
X285965350Y-11531700D01*
X285965350Y-11531700D02*
X286027255Y-11469795D01*
X286027255Y-11469795D02*
X286089160Y-11345985D01*
X286089160Y-11345985D02*
X286089160Y-11036461D01*
X286089160Y-11036461D02*
X286027255Y-10912652D01*
X286027255Y-10912652D02*
X285965350Y-10850747D01*
X285965350Y-10850747D02*
X285841541Y-10788842D01*
X285841541Y-10788842D02*
X285593922Y-10788842D01*
X285593922Y-10788842D02*
X285470112Y-10850747D01*
X285470112Y-10850747D02*
X285408207Y-10912652D01*
X285408207Y-10912652D02*
X285346303Y-11036461D01*
D10*
D11*
X60000000Y-198007200D02*
X60000000Y-200007200D01*
D10*
D11*
X110000000Y-198007200D02*
X110000000Y-200007200D01*
D10*
D11*
X160000000Y-198007200D02*
X160000000Y-200007200D01*
D10*
D11*
X210000000Y-198007200D02*
X210000000Y-200007200D01*
D10*
D11*
X260000000Y-198007200D02*
X260000000Y-200007200D01*
D10*
D11*
X36089160Y-199600804D02*
X35346303Y-199600804D01*
X35717731Y-199600804D02*
X35717731Y-198300804D01*
X35717731Y-198300804D02*
X35593922Y-198486519D01*
X35593922Y-198486519D02*
X35470112Y-198610328D01*
X35470112Y-198610328D02*
X35346303Y-198672233D01*
D10*
D11*
X85346303Y-198424614D02*
X85408207Y-198362709D01*
X85408207Y-198362709D02*
X85532017Y-198300804D01*
X85532017Y-198300804D02*
X85841541Y-198300804D01*
X85841541Y-198300804D02*
X85965350Y-198362709D01*
X85965350Y-198362709D02*
X86027255Y-198424614D01*
X86027255Y-198424614D02*
X86089160Y-198548423D01*
X86089160Y-198548423D02*
X86089160Y-198672233D01*
X86089160Y-198672233D02*
X86027255Y-198857947D01*
X86027255Y-198857947D02*
X85284398Y-199600804D01*
X85284398Y-199600804D02*
X86089160Y-199600804D01*
D10*
D11*
X135284398Y-198300804D02*
X136089160Y-198300804D01*
X136089160Y-198300804D02*
X135655826Y-198796042D01*
X135655826Y-198796042D02*
X135841541Y-198796042D01*
X135841541Y-198796042D02*
X135965350Y-198857947D01*
X135965350Y-198857947D02*
X136027255Y-198919852D01*
X136027255Y-198919852D02*
X136089160Y-199043661D01*
X136089160Y-199043661D02*
X136089160Y-199353185D01*
X136089160Y-199353185D02*
X136027255Y-199476995D01*
X136027255Y-199476995D02*
X135965350Y-199538900D01*
X135965350Y-199538900D02*
X135841541Y-199600804D01*
X135841541Y-199600804D02*
X135470112Y-199600804D01*
X135470112Y-199600804D02*
X135346303Y-199538900D01*
X135346303Y-199538900D02*
X135284398Y-199476995D01*
D10*
D11*
X185965350Y-198734138D02*
X185965350Y-199600804D01*
X185655826Y-198238900D02*
X185346303Y-199167471D01*
X185346303Y-199167471D02*
X186151064Y-199167471D01*
D10*
D11*
X236027255Y-198300804D02*
X235408207Y-198300804D01*
X235408207Y-198300804D02*
X235346303Y-198919852D01*
X235346303Y-198919852D02*
X235408207Y-198857947D01*
X235408207Y-198857947D02*
X235532017Y-198796042D01*
X235532017Y-198796042D02*
X235841541Y-198796042D01*
X235841541Y-198796042D02*
X235965350Y-198857947D01*
X235965350Y-198857947D02*
X236027255Y-198919852D01*
X236027255Y-198919852D02*
X236089160Y-199043661D01*
X236089160Y-199043661D02*
X236089160Y-199353185D01*
X236089160Y-199353185D02*
X236027255Y-199476995D01*
X236027255Y-199476995D02*
X235965350Y-199538900D01*
X235965350Y-199538900D02*
X235841541Y-199600804D01*
X235841541Y-199600804D02*
X235532017Y-199600804D01*
X235532017Y-199600804D02*
X235408207Y-199538900D01*
X235408207Y-199538900D02*
X235346303Y-199476995D01*
D10*
D11*
X285965350Y-198300804D02*
X285717731Y-198300804D01*
X285717731Y-198300804D02*
X285593922Y-198362709D01*
X285593922Y-198362709D02*
X285532017Y-198424614D01*
X285532017Y-198424614D02*
X285408207Y-198610328D01*
X285408207Y-198610328D02*
X285346303Y-198857947D01*
X285346303Y-198857947D02*
X285346303Y-199353185D01*
X285346303Y-199353185D02*
X285408207Y-199476995D01*
X285408207Y-199476995D02*
X285470112Y-199538900D01*
X285470112Y-199538900D02*
X285593922Y-199600804D01*
X285593922Y-199600804D02*
X285841541Y-199600804D01*
X285841541Y-199600804D02*
X285965350Y-199538900D01*
X285965350Y-199538900D02*
X286027255Y-199476995D01*
X286027255Y-199476995D02*
X286089160Y-199353185D01*
X286089160Y-199353185D02*
X286089160Y-199043661D01*
X286089160Y-199043661D02*
X286027255Y-198919852D01*
X286027255Y-198919852D02*
X285965350Y-198857947D01*
X285965350Y-198857947D02*
X285841541Y-198796042D01*
X285841541Y-198796042D02*
X285593922Y-198796042D01*
X285593922Y-198796042D02*
X285470112Y-198857947D01*
X285470112Y-198857947D02*
X285408207Y-198919852D01*
X285408207Y-198919852D02*
X285346303Y-199043661D01*
D10*
D11*
X10000000Y-60000000D02*
X12000000Y-60000000D01*
D10*
D11*
X10000000Y-110000000D02*
X12000000Y-110000000D01*
D10*
D11*
X10000000Y-160000000D02*
X12000000Y-160000000D01*
D10*
D11*
X10690476Y-35222176D02*
X11309523Y-35222176D01*
X10566666Y-35593604D02*
X10999999Y-34293604D01*
X10999999Y-34293604D02*
X11433333Y-35593604D01*
D10*
D11*
X11092857Y-84912652D02*
X11278571Y-84974557D01*
X11278571Y-84974557D02*
X11340476Y-85036461D01*
X11340476Y-85036461D02*
X11402380Y-85160271D01*
X11402380Y-85160271D02*
X11402380Y-85345985D01*
X11402380Y-85345985D02*
X11340476Y-85469795D01*
X11340476Y-85469795D02*
X11278571Y-85531700D01*
X11278571Y-85531700D02*
X11154761Y-85593604D01*
X11154761Y-85593604D02*
X10659523Y-85593604D01*
X10659523Y-85593604D02*
X10659523Y-84293604D01*
X10659523Y-84293604D02*
X11092857Y-84293604D01*
X11092857Y-84293604D02*
X11216666Y-84355509D01*
X11216666Y-84355509D02*
X11278571Y-84417414D01*
X11278571Y-84417414D02*
X11340476Y-84541223D01*
X11340476Y-84541223D02*
X11340476Y-84665033D01*
X11340476Y-84665033D02*
X11278571Y-84788842D01*
X11278571Y-84788842D02*
X11216666Y-84850747D01*
X11216666Y-84850747D02*
X11092857Y-84912652D01*
X11092857Y-84912652D02*
X10659523Y-84912652D01*
D10*
D11*
X11402380Y-135469795D02*
X11340476Y-135531700D01*
X11340476Y-135531700D02*
X11154761Y-135593604D01*
X11154761Y-135593604D02*
X11030952Y-135593604D01*
X11030952Y-135593604D02*
X10845238Y-135531700D01*
X10845238Y-135531700D02*
X10721428Y-135407890D01*
X10721428Y-135407890D02*
X10659523Y-135284080D01*
X10659523Y-135284080D02*
X10597619Y-135036461D01*
X10597619Y-135036461D02*
X10597619Y-134850747D01*
X10597619Y-134850747D02*
X10659523Y-134603128D01*
X10659523Y-134603128D02*
X10721428Y-134479319D01*
X10721428Y-134479319D02*
X10845238Y-134355509D01*
X10845238Y-134355509D02*
X11030952Y-134293604D01*
X11030952Y-134293604D02*
X11154761Y-134293604D01*
X11154761Y-134293604D02*
X11340476Y-134355509D01*
X11340476Y-134355509D02*
X11402380Y-134417414D01*
D10*
D11*
X10659523Y-185593604D02*
X10659523Y-184293604D01*
X10659523Y-184293604D02*
X10969047Y-184293604D01*
X10969047Y-184293604D02*
X11154761Y-184355509D01*
X11154761Y-184355509D02*
X11278571Y-184479319D01*
X11278571Y-184479319D02*
X11340476Y-184603128D01*
X11340476Y-184603128D02*
X11402380Y-184850747D01*
X11402380Y-184850747D02*
X11402380Y-185036461D01*
X11402380Y-185036461D02*
X11340476Y-185284080D01*
X11340476Y-185284080D02*
X11278571Y-185407890D01*
X11278571Y-185407890D02*
X11154761Y-185531700D01*
X11154761Y-185531700D02*
X10969047Y-185593604D01*
X10969047Y-185593604D02*
X10659523Y-185593604D01*
D10*
D11*
X287002200Y-60000000D02*
X285002200Y-60000000D01*
D10*
D11*
X287002200Y-110000000D02*
X285002200Y-110000000D01*
D10*
D11*
X287002200Y-160000000D02*
X285002200Y-160000000D01*
D10*
D11*
X285692676Y-35222176D02*
X286311723Y-35222176D01*
X285568866Y-35593604D02*
X286002199Y-34293604D01*
X286002199Y-34293604D02*
X286435533Y-35593604D01*
D10*
D11*
X286095057Y-84912652D02*
X286280771Y-84974557D01*
X286280771Y-84974557D02*
X286342676Y-85036461D01*
X286342676Y-85036461D02*
X286404580Y-85160271D01*
X286404580Y-85160271D02*
X286404580Y-85345985D01*
X286404580Y-85345985D02*
X286342676Y-85469795D01*
X286342676Y-85469795D02*
X286280771Y-85531700D01*
X286280771Y-85531700D02*
X286156961Y-85593604D01*
X286156961Y-85593604D02*
X285661723Y-85593604D01*
X285661723Y-85593604D02*
X285661723Y-84293604D01*
X285661723Y-84293604D02*
X286095057Y-84293604D01*
X286095057Y-84293604D02*
X286218866Y-84355509D01*
X286218866Y-84355509D02*
X286280771Y-84417414D01*
X286280771Y-84417414D02*
X286342676Y-84541223D01*
X286342676Y-84541223D02*
X286342676Y-84665033D01*
X286342676Y-84665033D02*
X286280771Y-84788842D01*
X286280771Y-84788842D02*
X286218866Y-84850747D01*
X286218866Y-84850747D02*
X286095057Y-84912652D01*
X286095057Y-84912652D02*
X285661723Y-84912652D01*
D10*
D11*
X286404580Y-135469795D02*
X286342676Y-135531700D01*
X286342676Y-135531700D02*
X286156961Y-135593604D01*
X286156961Y-135593604D02*
X286033152Y-135593604D01*
X286033152Y-135593604D02*
X285847438Y-135531700D01*
X285847438Y-135531700D02*
X285723628Y-135407890D01*
X285723628Y-135407890D02*
X285661723Y-135284080D01*
X285661723Y-135284080D02*
X285599819Y-135036461D01*
X285599819Y-135036461D02*
X285599819Y-134850747D01*
X285599819Y-134850747D02*
X285661723Y-134603128D01*
X285661723Y-134603128D02*
X285723628Y-134479319D01*
X285723628Y-134479319D02*
X285847438Y-134355509D01*
X285847438Y-134355509D02*
X286033152Y-134293604D01*
X286033152Y-134293604D02*
X286156961Y-134293604D01*
X286156961Y-134293604D02*
X286342676Y-134355509D01*
X286342676Y-134355509D02*
X286404580Y-134417414D01*
D10*
D11*
X285661723Y-185593604D02*
X285661723Y-184293604D01*
X285661723Y-184293604D02*
X285971247Y-184293604D01*
X285971247Y-184293604D02*
X286156961Y-184355509D01*
X286156961Y-184355509D02*
X286280771Y-184479319D01*
X286280771Y-184479319D02*
X286342676Y-184603128D01*
X286342676Y-184603128D02*
X286404580Y-184850747D01*
X286404580Y-184850747D02*
X286404580Y-185036461D01*
X286404580Y-185036461D02*
X286342676Y-185284080D01*
X286342676Y-185284080D02*
X286280771Y-185407890D01*
X286280771Y-185407890D02*
X286156961Y-185531700D01*
X286156961Y-185531700D02*
X285971247Y-185593604D01*
X285971247Y-185593604D02*
X285661723Y-185593604D01*
D10*
D11*
X200458026Y-193793328D02*
X200458026Y-192293328D01*
X200458026Y-192293328D02*
X200815169Y-192293328D01*
X200815169Y-192293328D02*
X201029455Y-192364757D01*
X201029455Y-192364757D02*
X201172312Y-192507614D01*
X201172312Y-192507614D02*
X201243741Y-192650471D01*
X201243741Y-192650471D02*
X201315169Y-192936185D01*
X201315169Y-192936185D02*
X201315169Y-193150471D01*
X201315169Y-193150471D02*
X201243741Y-193436185D01*
X201243741Y-193436185D02*
X201172312Y-193579042D01*
X201172312Y-193579042D02*
X201029455Y-193721900D01*
X201029455Y-193721900D02*
X200815169Y-193793328D01*
X200815169Y-193793328D02*
X200458026Y-193793328D01*
X202600884Y-193793328D02*
X202600884Y-193007614D01*
X202600884Y-193007614D02*
X202529455Y-192864757D01*
X202529455Y-192864757D02*
X202386598Y-192793328D01*
X202386598Y-192793328D02*
X202100884Y-192793328D01*
X202100884Y-192793328D02*
X201958026Y-192864757D01*
X202600884Y-193721900D02*
X202458026Y-193793328D01*
X202458026Y-193793328D02*
X202100884Y-193793328D01*
X202100884Y-193793328D02*
X201958026Y-193721900D01*
X201958026Y-193721900D02*
X201886598Y-193579042D01*
X201886598Y-193579042D02*
X201886598Y-193436185D01*
X201886598Y-193436185D02*
X201958026Y-193293328D01*
X201958026Y-193293328D02*
X202100884Y-193221900D01*
X202100884Y-193221900D02*
X202458026Y-193221900D01*
X202458026Y-193221900D02*
X202600884Y-193150471D01*
X203100884Y-192793328D02*
X203672312Y-192793328D01*
X203315169Y-192293328D02*
X203315169Y-193579042D01*
X203315169Y-193579042D02*
X203386598Y-193721900D01*
X203386598Y-193721900D02*
X203529455Y-193793328D01*
X203529455Y-193793328D02*
X203672312Y-193793328D01*
X204743741Y-193721900D02*
X204600884Y-193793328D01*
X204600884Y-193793328D02*
X204315170Y-193793328D01*
X204315170Y-193793328D02*
X204172312Y-193721900D01*
X204172312Y-193721900D02*
X204100884Y-193579042D01*
X204100884Y-193579042D02*
X204100884Y-193007614D01*
X204100884Y-193007614D02*
X204172312Y-192864757D01*
X204172312Y-192864757D02*
X204315170Y-192793328D01*
X204315170Y-192793328D02*
X204600884Y-192793328D01*
X204600884Y-192793328D02*
X204743741Y-192864757D01*
X204743741Y-192864757D02*
X204815170Y-193007614D01*
X204815170Y-193007614D02*
X204815170Y-193150471D01*
X204815170Y-193150471D02*
X204100884Y-193293328D01*
X205458026Y-193650471D02*
X205529455Y-193721900D01*
X205529455Y-193721900D02*
X205458026Y-193793328D01*
X205458026Y-193793328D02*
X205386598Y-193721900D01*
X205386598Y-193721900D02*
X205458026Y-193650471D01*
X205458026Y-193650471D02*
X205458026Y-193793328D01*
X205458026Y-192864757D02*
X205529455Y-192936185D01*
X205529455Y-192936185D02*
X205458026Y-193007614D01*
X205458026Y-193007614D02*
X205386598Y-192936185D01*
X205386598Y-192936185D02*
X205458026Y-192864757D01*
X205458026Y-192864757D02*
X205458026Y-193007614D01*
D10*
D11*
X177002200Y-194507200D02*
X285002200Y-194507200D01*
D10*
D11*
X178458026Y-196593328D02*
X178458026Y-195093328D01*
X179315169Y-196593328D02*
X178672312Y-195736185D01*
X179315169Y-195093328D02*
X178458026Y-195950471D01*
X179958026Y-196593328D02*
X179958026Y-195593328D01*
X179958026Y-195093328D02*
X179886598Y-195164757D01*
X179886598Y-195164757D02*
X179958026Y-195236185D01*
X179958026Y-195236185D02*
X180029455Y-195164757D01*
X180029455Y-195164757D02*
X179958026Y-195093328D01*
X179958026Y-195093328D02*
X179958026Y-195236185D01*
X181529455Y-196450471D02*
X181458027Y-196521900D01*
X181458027Y-196521900D02*
X181243741Y-196593328D01*
X181243741Y-196593328D02*
X181100884Y-196593328D01*
X181100884Y-196593328D02*
X180886598Y-196521900D01*
X180886598Y-196521900D02*
X180743741Y-196379042D01*
X180743741Y-196379042D02*
X180672312Y-196236185D01*
X180672312Y-196236185D02*
X180600884Y-195950471D01*
X180600884Y-195950471D02*
X180600884Y-195736185D01*
X180600884Y-195736185D02*
X180672312Y-195450471D01*
X180672312Y-195450471D02*
X180743741Y-195307614D01*
X180743741Y-195307614D02*
X180886598Y-195164757D01*
X180886598Y-195164757D02*
X181100884Y-195093328D01*
X181100884Y-195093328D02*
X181243741Y-195093328D01*
X181243741Y-195093328D02*
X181458027Y-195164757D01*
X181458027Y-195164757D02*
X181529455Y-195236185D01*
X182815170Y-196593328D02*
X182815170Y-195807614D01*
X182815170Y-195807614D02*
X182743741Y-195664757D01*
X182743741Y-195664757D02*
X182600884Y-195593328D01*
X182600884Y-195593328D02*
X182315170Y-195593328D01*
X182315170Y-195593328D02*
X182172312Y-195664757D01*
X182815170Y-196521900D02*
X182672312Y-196593328D01*
X182672312Y-196593328D02*
X182315170Y-196593328D01*
X182315170Y-196593328D02*
X182172312Y-196521900D01*
X182172312Y-196521900D02*
X182100884Y-196379042D01*
X182100884Y-196379042D02*
X182100884Y-196236185D01*
X182100884Y-196236185D02*
X182172312Y-196093328D01*
X182172312Y-196093328D02*
X182315170Y-196021900D01*
X182315170Y-196021900D02*
X182672312Y-196021900D01*
X182672312Y-196021900D02*
X182815170Y-195950471D01*
X184172313Y-196593328D02*
X184172313Y-195093328D01*
X184172313Y-196521900D02*
X184029455Y-196593328D01*
X184029455Y-196593328D02*
X183743741Y-196593328D01*
X183743741Y-196593328D02*
X183600884Y-196521900D01*
X183600884Y-196521900D02*
X183529455Y-196450471D01*
X183529455Y-196450471D02*
X183458027Y-196307614D01*
X183458027Y-196307614D02*
X183458027Y-195879042D01*
X183458027Y-195879042D02*
X183529455Y-195736185D01*
X183529455Y-195736185D02*
X183600884Y-195664757D01*
X183600884Y-195664757D02*
X183743741Y-195593328D01*
X183743741Y-195593328D02*
X184029455Y-195593328D01*
X184029455Y-195593328D02*
X184172313Y-195664757D01*
X186029455Y-195807614D02*
X186529455Y-195807614D01*
X186743741Y-196593328D02*
X186029455Y-196593328D01*
X186029455Y-196593328D02*
X186029455Y-195093328D01*
X186029455Y-195093328D02*
X186743741Y-195093328D01*
X187386598Y-196450471D02*
X187458027Y-196521900D01*
X187458027Y-196521900D02*
X187386598Y-196593328D01*
X187386598Y-196593328D02*
X187315170Y-196521900D01*
X187315170Y-196521900D02*
X187386598Y-196450471D01*
X187386598Y-196450471D02*
X187386598Y-196593328D01*
X188100884Y-196593328D02*
X188100884Y-195093328D01*
X188100884Y-195093328D02*
X188458027Y-195093328D01*
X188458027Y-195093328D02*
X188672313Y-195164757D01*
X188672313Y-195164757D02*
X188815170Y-195307614D01*
X188815170Y-195307614D02*
X188886599Y-195450471D01*
X188886599Y-195450471D02*
X188958027Y-195736185D01*
X188958027Y-195736185D02*
X188958027Y-195950471D01*
X188958027Y-195950471D02*
X188886599Y-196236185D01*
X188886599Y-196236185D02*
X188815170Y-196379042D01*
X188815170Y-196379042D02*
X188672313Y-196521900D01*
X188672313Y-196521900D02*
X188458027Y-196593328D01*
X188458027Y-196593328D02*
X188100884Y-196593328D01*
X189600884Y-196450471D02*
X189672313Y-196521900D01*
X189672313Y-196521900D02*
X189600884Y-196593328D01*
X189600884Y-196593328D02*
X189529456Y-196521900D01*
X189529456Y-196521900D02*
X189600884Y-196450471D01*
X189600884Y-196450471D02*
X189600884Y-196593328D01*
X190243742Y-196164757D02*
X190958028Y-196164757D01*
X190100885Y-196593328D02*
X190600885Y-195093328D01*
X190600885Y-195093328D02*
X191100885Y-196593328D01*
X191600884Y-196450471D02*
X191672313Y-196521900D01*
X191672313Y-196521900D02*
X191600884Y-196593328D01*
X191600884Y-196593328D02*
X191529456Y-196521900D01*
X191529456Y-196521900D02*
X191600884Y-196450471D01*
X191600884Y-196450471D02*
X191600884Y-196593328D01*
X193529456Y-196593328D02*
X193815170Y-196593328D01*
X193815170Y-196593328D02*
X193958027Y-196521900D01*
X193958027Y-196521900D02*
X194029456Y-196450471D01*
X194029456Y-196450471D02*
X194172313Y-196236185D01*
X194172313Y-196236185D02*
X194243742Y-195950471D01*
X194243742Y-195950471D02*
X194243742Y-195379042D01*
X194243742Y-195379042D02*
X194172313Y-195236185D01*
X194172313Y-195236185D02*
X194100885Y-195164757D01*
X194100885Y-195164757D02*
X193958027Y-195093328D01*
X193958027Y-195093328D02*
X193672313Y-195093328D01*
X193672313Y-195093328D02*
X193529456Y-195164757D01*
X193529456Y-195164757D02*
X193458027Y-195236185D01*
X193458027Y-195236185D02*
X193386599Y-195379042D01*
X193386599Y-195379042D02*
X193386599Y-195736185D01*
X193386599Y-195736185D02*
X193458027Y-195879042D01*
X193458027Y-195879042D02*
X193529456Y-195950471D01*
X193529456Y-195950471D02*
X193672313Y-196021900D01*
X193672313Y-196021900D02*
X193958027Y-196021900D01*
X193958027Y-196021900D02*
X194100885Y-195950471D01*
X194100885Y-195950471D02*
X194172313Y-195879042D01*
X194172313Y-195879042D02*
X194243742Y-195736185D01*
X194886598Y-196450471D02*
X194958027Y-196521900D01*
X194958027Y-196521900D02*
X194886598Y-196593328D01*
X194886598Y-196593328D02*
X194815170Y-196521900D01*
X194815170Y-196521900D02*
X194886598Y-196450471D01*
X194886598Y-196450471D02*
X194886598Y-196593328D01*
X195886599Y-195093328D02*
X196029456Y-195093328D01*
X196029456Y-195093328D02*
X196172313Y-195164757D01*
X196172313Y-195164757D02*
X196243742Y-195236185D01*
X196243742Y-195236185D02*
X196315170Y-195379042D01*
X196315170Y-195379042D02*
X196386599Y-195664757D01*
X196386599Y-195664757D02*
X196386599Y-196021900D01*
X196386599Y-196021900D02*
X196315170Y-196307614D01*
X196315170Y-196307614D02*
X196243742Y-196450471D01*
X196243742Y-196450471D02*
X196172313Y-196521900D01*
X196172313Y-196521900D02*
X196029456Y-196593328D01*
X196029456Y-196593328D02*
X195886599Y-196593328D01*
X195886599Y-196593328D02*
X195743742Y-196521900D01*
X195743742Y-196521900D02*
X195672313Y-196450471D01*
X195672313Y-196450471D02*
X195600884Y-196307614D01*
X195600884Y-196307614D02*
X195529456Y-196021900D01*
X195529456Y-196021900D02*
X195529456Y-195664757D01*
X195529456Y-195664757D02*
X195600884Y-195379042D01*
X195600884Y-195379042D02*
X195672313Y-195236185D01*
X195672313Y-195236185D02*
X195743742Y-195164757D01*
X195743742Y-195164757D02*
X195886599Y-195093328D01*
X197029455Y-196450471D02*
X197100884Y-196521900D01*
X197100884Y-196521900D02*
X197029455Y-196593328D01*
X197029455Y-196593328D02*
X196958027Y-196521900D01*
X196958027Y-196521900D02*
X197029455Y-196450471D01*
X197029455Y-196450471D02*
X197029455Y-196593328D01*
X198529456Y-196593328D02*
X197672313Y-196593328D01*
X198100884Y-196593328D02*
X198100884Y-195093328D01*
X198100884Y-195093328D02*
X197958027Y-195307614D01*
X197958027Y-195307614D02*
X197815170Y-195450471D01*
X197815170Y-195450471D02*
X197672313Y-195521900D01*
D10*
D11*
X177002200Y-191507200D02*
X285002200Y-191507200D01*
D10*
D12*
X264413853Y-193785528D02*
X263913853Y-193071242D01*
X263556710Y-193785528D02*
X263556710Y-192285528D01*
X263556710Y-192285528D02*
X264128139Y-192285528D01*
X264128139Y-192285528D02*
X264270996Y-192356957D01*
X264270996Y-192356957D02*
X264342425Y-192428385D01*
X264342425Y-192428385D02*
X264413853Y-192571242D01*
X264413853Y-192571242D02*
X264413853Y-192785528D01*
X264413853Y-192785528D02*
X264342425Y-192928385D01*
X264342425Y-192928385D02*
X264270996Y-192999814D01*
X264270996Y-192999814D02*
X264128139Y-193071242D01*
X264128139Y-193071242D02*
X263556710Y-193071242D01*
X265628139Y-193714100D02*
X265485282Y-193785528D01*
X265485282Y-193785528D02*
X265199568Y-193785528D01*
X265199568Y-193785528D02*
X265056710Y-193714100D01*
X265056710Y-193714100D02*
X264985282Y-193571242D01*
X264985282Y-193571242D02*
X264985282Y-192999814D01*
X264985282Y-192999814D02*
X265056710Y-192856957D01*
X265056710Y-192856957D02*
X265199568Y-192785528D01*
X265199568Y-192785528D02*
X265485282Y-192785528D01*
X265485282Y-192785528D02*
X265628139Y-192856957D01*
X265628139Y-192856957D02*
X265699568Y-192999814D01*
X265699568Y-192999814D02*
X265699568Y-193142671D01*
X265699568Y-193142671D02*
X264985282Y-193285528D01*
X266199567Y-192785528D02*
X266556710Y-193785528D01*
X266556710Y-193785528D02*
X266913853Y-192785528D01*
X267485281Y-193642671D02*
X267556710Y-193714100D01*
X267556710Y-193714100D02*
X267485281Y-193785528D01*
X267485281Y-193785528D02*
X267413853Y-193714100D01*
X267413853Y-193714100D02*
X267485281Y-193642671D01*
X267485281Y-193642671D02*
X267485281Y-193785528D01*
X267485281Y-192856957D02*
X267556710Y-192928385D01*
X267556710Y-192928385D02*
X267485281Y-192999814D01*
X267485281Y-192999814D02*
X267413853Y-192928385D01*
X267413853Y-192928385D02*
X267485281Y-192856957D01*
X267485281Y-192856957D02*
X267485281Y-192999814D01*
D10*
D11*
X178386598Y-193721900D02*
X178600884Y-193793328D01*
X178600884Y-193793328D02*
X178958026Y-193793328D01*
X178958026Y-193793328D02*
X179100884Y-193721900D01*
X179100884Y-193721900D02*
X179172312Y-193650471D01*
X179172312Y-193650471D02*
X179243741Y-193507614D01*
X179243741Y-193507614D02*
X179243741Y-193364757D01*
X179243741Y-193364757D02*
X179172312Y-193221900D01*
X179172312Y-193221900D02*
X179100884Y-193150471D01*
X179100884Y-193150471D02*
X178958026Y-193079042D01*
X178958026Y-193079042D02*
X178672312Y-193007614D01*
X178672312Y-193007614D02*
X178529455Y-192936185D01*
X178529455Y-192936185D02*
X178458026Y-192864757D01*
X178458026Y-192864757D02*
X178386598Y-192721900D01*
X178386598Y-192721900D02*
X178386598Y-192579042D01*
X178386598Y-192579042D02*
X178458026Y-192436185D01*
X178458026Y-192436185D02*
X178529455Y-192364757D01*
X178529455Y-192364757D02*
X178672312Y-192293328D01*
X178672312Y-192293328D02*
X179029455Y-192293328D01*
X179029455Y-192293328D02*
X179243741Y-192364757D01*
X179886597Y-193793328D02*
X179886597Y-192793328D01*
X179886597Y-192293328D02*
X179815169Y-192364757D01*
X179815169Y-192364757D02*
X179886597Y-192436185D01*
X179886597Y-192436185D02*
X179958026Y-192364757D01*
X179958026Y-192364757D02*
X179886597Y-192293328D01*
X179886597Y-192293328D02*
X179886597Y-192436185D01*
X180458026Y-192793328D02*
X181243741Y-192793328D01*
X181243741Y-192793328D02*
X180458026Y-193793328D01*
X180458026Y-193793328D02*
X181243741Y-193793328D01*
X182386598Y-193721900D02*
X182243741Y-193793328D01*
X182243741Y-193793328D02*
X181958027Y-193793328D01*
X181958027Y-193793328D02*
X181815169Y-193721900D01*
X181815169Y-193721900D02*
X181743741Y-193579042D01*
X181743741Y-193579042D02*
X181743741Y-193007614D01*
X181743741Y-193007614D02*
X181815169Y-192864757D01*
X181815169Y-192864757D02*
X181958027Y-192793328D01*
X181958027Y-192793328D02*
X182243741Y-192793328D01*
X182243741Y-192793328D02*
X182386598Y-192864757D01*
X182386598Y-192864757D02*
X182458027Y-193007614D01*
X182458027Y-193007614D02*
X182458027Y-193150471D01*
X182458027Y-193150471D02*
X181743741Y-193293328D01*
X183100883Y-193650471D02*
X183172312Y-193721900D01*
X183172312Y-193721900D02*
X183100883Y-193793328D01*
X183100883Y-193793328D02*
X183029455Y-193721900D01*
X183029455Y-193721900D02*
X183100883Y-193650471D01*
X183100883Y-193650471D02*
X183100883Y-193793328D01*
X183100883Y-192864757D02*
X183172312Y-192936185D01*
X183172312Y-192936185D02*
X183100883Y-193007614D01*
X183100883Y-193007614D02*
X183029455Y-192936185D01*
X183029455Y-192936185D02*
X183100883Y-192864757D01*
X183100883Y-192864757D02*
X183100883Y-193007614D01*
X184886598Y-193364757D02*
X185600884Y-193364757D01*
X184743741Y-193793328D02*
X185243741Y-192293328D01*
X185243741Y-192293328D02*
X185743741Y-193793328D01*
X186886598Y-192793328D02*
X186886598Y-193793328D01*
X186529455Y-192221900D02*
X186172312Y-193293328D01*
X186172312Y-193293328D02*
X187100883Y-193293328D01*
D10*
D11*
X263458026Y-196593328D02*
X263458026Y-195093328D01*
X264815170Y-196593328D02*
X264815170Y-195093328D01*
X264815170Y-196521900D02*
X264672312Y-196593328D01*
X264672312Y-196593328D02*
X264386598Y-196593328D01*
X264386598Y-196593328D02*
X264243741Y-196521900D01*
X264243741Y-196521900D02*
X264172312Y-196450471D01*
X264172312Y-196450471D02*
X264100884Y-196307614D01*
X264100884Y-196307614D02*
X264100884Y-195879042D01*
X264100884Y-195879042D02*
X264172312Y-195736185D01*
X264172312Y-195736185D02*
X264243741Y-195664757D01*
X264243741Y-195664757D02*
X264386598Y-195593328D01*
X264386598Y-195593328D02*
X264672312Y-195593328D01*
X264672312Y-195593328D02*
X264815170Y-195664757D01*
X265529455Y-196450471D02*
X265600884Y-196521900D01*
X265600884Y-196521900D02*
X265529455Y-196593328D01*
X265529455Y-196593328D02*
X265458027Y-196521900D01*
X265458027Y-196521900D02*
X265529455Y-196450471D01*
X265529455Y-196450471D02*
X265529455Y-196593328D01*
X265529455Y-195664757D02*
X265600884Y-195736185D01*
X265600884Y-195736185D02*
X265529455Y-195807614D01*
X265529455Y-195807614D02*
X265458027Y-195736185D01*
X265458027Y-195736185D02*
X265529455Y-195664757D01*
X265529455Y-195664757D02*
X265529455Y-195807614D01*
X267243741Y-195093328D02*
X268172313Y-195093328D01*
X268172313Y-195093328D02*
X267672313Y-195664757D01*
X267672313Y-195664757D02*
X267886598Y-195664757D01*
X267886598Y-195664757D02*
X268029456Y-195736185D01*
X268029456Y-195736185D02*
X268100884Y-195807614D01*
X268100884Y-195807614D02*
X268172313Y-195950471D01*
X268172313Y-195950471D02*
X268172313Y-196307614D01*
X268172313Y-196307614D02*
X268100884Y-196450471D01*
X268100884Y-196450471D02*
X268029456Y-196521900D01*
X268029456Y-196521900D02*
X267886598Y-196593328D01*
X267886598Y-196593328D02*
X267458027Y-196593328D01*
X267458027Y-196593328D02*
X267315170Y-196521900D01*
X267315170Y-196521900D02*
X267243741Y-196450471D01*
X269886598Y-195021900D02*
X268600884Y-196950471D01*
X271172313Y-196593328D02*
X270315170Y-196593328D01*
X270743741Y-196593328D02*
X270743741Y-195093328D01*
X270743741Y-195093328D02*
X270600884Y-195307614D01*
X270600884Y-195307614D02*
X270458027Y-195450471D01*
X270458027Y-195450471D02*
X270315170Y-195521900D01*
X272600884Y-196593328D02*
X271743741Y-196593328D01*
X272172312Y-196593328D02*
X272172312Y-195093328D01*
X272172312Y-195093328D02*
X272029455Y-195307614D01*
X272029455Y-195307614D02*
X271886598Y-195450471D01*
X271886598Y-195450471D02*
X271743741Y-195521900D01*
D10*
D11*
X177002200Y-187507200D02*
X285002200Y-187507200D01*
D10*
D13*
X178693928Y-188211638D02*
X179836785Y-188211638D01*
X179015357Y-190211638D02*
X179265357Y-188211638D01*
X180253452Y-190211638D02*
X180420119Y-188878304D01*
X180503452Y-188211638D02*
X180396309Y-188306876D01*
X180396309Y-188306876D02*
X180479643Y-188402114D01*
X180479643Y-188402114D02*
X180586786Y-188306876D01*
X180586786Y-188306876D02*
X180503452Y-188211638D01*
X180503452Y-188211638D02*
X180479643Y-188402114D01*
X181086786Y-188878304D02*
X181848690Y-188878304D01*
X181455833Y-188211638D02*
X181241548Y-189925923D01*
X181241548Y-189925923D02*
X181312976Y-190116400D01*
X181312976Y-190116400D02*
X181491548Y-190211638D01*
X181491548Y-190211638D02*
X181682024Y-190211638D01*
X182634405Y-190211638D02*
X182455833Y-190116400D01*
X182455833Y-190116400D02*
X182384405Y-189925923D01*
X182384405Y-189925923D02*
X182598690Y-188211638D01*
X184170119Y-190116400D02*
X183967738Y-190211638D01*
X183967738Y-190211638D02*
X183586785Y-190211638D01*
X183586785Y-190211638D02*
X183408214Y-190116400D01*
X183408214Y-190116400D02*
X183336785Y-189925923D01*
X183336785Y-189925923D02*
X183432024Y-189164019D01*
X183432024Y-189164019D02*
X183551071Y-188973542D01*
X183551071Y-188973542D02*
X183753452Y-188878304D01*
X183753452Y-188878304D02*
X184134404Y-188878304D01*
X184134404Y-188878304D02*
X184312976Y-188973542D01*
X184312976Y-188973542D02*
X184384404Y-189164019D01*
X184384404Y-189164019D02*
X184360595Y-189354495D01*
X184360595Y-189354495D02*
X183384404Y-189544971D01*
X185134405Y-190021161D02*
X185217738Y-190116400D01*
X185217738Y-190116400D02*
X185110595Y-190211638D01*
X185110595Y-190211638D02*
X185027262Y-190116400D01*
X185027262Y-190116400D02*
X185134405Y-190021161D01*
X185134405Y-190021161D02*
X185110595Y-190211638D01*
X185265357Y-188973542D02*
X185348690Y-189068780D01*
X185348690Y-189068780D02*
X185241548Y-189164019D01*
X185241548Y-189164019D02*
X185158214Y-189068780D01*
X185158214Y-189068780D02*
X185265357Y-188973542D01*
X185265357Y-188973542D02*
X185241548Y-189164019D01*
D10*
D11*
X178958026Y-185607614D02*
X178458026Y-185607614D01*
X178458026Y-186393328D02*
X178458026Y-184893328D01*
X178458026Y-184893328D02*
X179172312Y-184893328D01*
X179743740Y-186393328D02*
X179743740Y-185393328D01*
X179743740Y-184893328D02*
X179672312Y-184964757D01*
X179672312Y-184964757D02*
X179743740Y-185036185D01*
X179743740Y-185036185D02*
X179815169Y-184964757D01*
X179815169Y-184964757D02*
X179743740Y-184893328D01*
X179743740Y-184893328D02*
X179743740Y-185036185D01*
X180672312Y-186393328D02*
X180529455Y-186321900D01*
X180529455Y-186321900D02*
X180458026Y-186179042D01*
X180458026Y-186179042D02*
X180458026Y-184893328D01*
X181815169Y-186321900D02*
X181672312Y-186393328D01*
X181672312Y-186393328D02*
X181386598Y-186393328D01*
X181386598Y-186393328D02*
X181243740Y-186321900D01*
X181243740Y-186321900D02*
X181172312Y-186179042D01*
X181172312Y-186179042D02*
X181172312Y-185607614D01*
X181172312Y-185607614D02*
X181243740Y-185464757D01*
X181243740Y-185464757D02*
X181386598Y-185393328D01*
X181386598Y-185393328D02*
X181672312Y-185393328D01*
X181672312Y-185393328D02*
X181815169Y-185464757D01*
X181815169Y-185464757D02*
X181886598Y-185607614D01*
X181886598Y-185607614D02*
X181886598Y-185750471D01*
X181886598Y-185750471D02*
X181172312Y-185893328D01*
X182529454Y-186250471D02*
X182600883Y-186321900D01*
X182600883Y-186321900D02*
X182529454Y-186393328D01*
X182529454Y-186393328D02*
X182458026Y-186321900D01*
X182458026Y-186321900D02*
X182529454Y-186250471D01*
X182529454Y-186250471D02*
X182529454Y-186393328D01*
X182529454Y-185464757D02*
X182600883Y-185536185D01*
X182600883Y-185536185D02*
X182529454Y-185607614D01*
X182529454Y-185607614D02*
X182458026Y-185536185D01*
X182458026Y-185536185D02*
X182529454Y-185464757D01*
X182529454Y-185464757D02*
X182529454Y-185607614D01*
X184243740Y-186393328D02*
X185029455Y-185393328D01*
X184243740Y-185393328D02*
X185029455Y-186393328D01*
X186100883Y-185607614D02*
X186315169Y-185679042D01*
X186315169Y-185679042D02*
X186386598Y-185750471D01*
X186386598Y-185750471D02*
X186458026Y-185893328D01*
X186458026Y-185893328D02*
X186458026Y-186107614D01*
X186458026Y-186107614D02*
X186386598Y-186250471D01*
X186386598Y-186250471D02*
X186315169Y-186321900D01*
X186315169Y-186321900D02*
X186172312Y-186393328D01*
X186172312Y-186393328D02*
X185600883Y-186393328D01*
X185600883Y-186393328D02*
X185600883Y-184893328D01*
X185600883Y-184893328D02*
X186100883Y-184893328D01*
X186100883Y-184893328D02*
X186243741Y-184964757D01*
X186243741Y-184964757D02*
X186315169Y-185036185D01*
X186315169Y-185036185D02*
X186386598Y-185179042D01*
X186386598Y-185179042D02*
X186386598Y-185321900D01*
X186386598Y-185321900D02*
X186315169Y-185464757D01*
X186315169Y-185464757D02*
X186243741Y-185536185D01*
X186243741Y-185536185D02*
X186100883Y-185607614D01*
X186100883Y-185607614D02*
X185600883Y-185607614D01*
X187315169Y-186393328D02*
X187172312Y-186321900D01*
X187172312Y-186321900D02*
X187100883Y-186250471D01*
X187100883Y-186250471D02*
X187029455Y-186107614D01*
X187029455Y-186107614D02*
X187029455Y-185679042D01*
X187029455Y-185679042D02*
X187100883Y-185536185D01*
X187100883Y-185536185D02*
X187172312Y-185464757D01*
X187172312Y-185464757D02*
X187315169Y-185393328D01*
X187315169Y-185393328D02*
X187529455Y-185393328D01*
X187529455Y-185393328D02*
X187672312Y-185464757D01*
X187672312Y-185464757D02*
X187743741Y-185536185D01*
X187743741Y-185536185D02*
X187815169Y-185679042D01*
X187815169Y-185679042D02*
X187815169Y-186107614D01*
X187815169Y-186107614D02*
X187743741Y-186250471D01*
X187743741Y-186250471D02*
X187672312Y-186321900D01*
X187672312Y-186321900D02*
X187529455Y-186393328D01*
X187529455Y-186393328D02*
X187315169Y-186393328D01*
X188315169Y-185393328D02*
X188600884Y-186393328D01*
X188600884Y-186393328D02*
X188886598Y-185679042D01*
X188886598Y-185679042D02*
X189172312Y-186393328D01*
X189172312Y-186393328D02*
X189458026Y-185393328D01*
X189815170Y-185393328D02*
X190386598Y-185393328D01*
X190029455Y-184893328D02*
X190029455Y-186179042D01*
X190029455Y-186179042D02*
X190100884Y-186321900D01*
X190100884Y-186321900D02*
X190243741Y-186393328D01*
X190243741Y-186393328D02*
X190386598Y-186393328D01*
X190886598Y-186393328D02*
X190886598Y-185393328D01*
X190886598Y-184893328D02*
X190815170Y-184964757D01*
X190815170Y-184964757D02*
X190886598Y-185036185D01*
X190886598Y-185036185D02*
X190958027Y-184964757D01*
X190958027Y-184964757D02*
X190886598Y-184893328D01*
X190886598Y-184893328D02*
X190886598Y-185036185D01*
X192172313Y-186321900D02*
X192029456Y-186393328D01*
X192029456Y-186393328D02*
X191743742Y-186393328D01*
X191743742Y-186393328D02*
X191600884Y-186321900D01*
X191600884Y-186321900D02*
X191529456Y-186179042D01*
X191529456Y-186179042D02*
X191529456Y-185607614D01*
X191529456Y-185607614D02*
X191600884Y-185464757D01*
X191600884Y-185464757D02*
X191743742Y-185393328D01*
X191743742Y-185393328D02*
X192029456Y-185393328D01*
X192029456Y-185393328D02*
X192172313Y-185464757D01*
X192172313Y-185464757D02*
X192243742Y-185607614D01*
X192243742Y-185607614D02*
X192243742Y-185750471D01*
X192243742Y-185750471D02*
X191529456Y-185893328D01*
X194029455Y-185607614D02*
X194529455Y-185607614D01*
X194743741Y-186393328D02*
X194029455Y-186393328D01*
X194029455Y-186393328D02*
X194029455Y-184893328D01*
X194029455Y-184893328D02*
X194743741Y-184893328D01*
X196029456Y-185393328D02*
X196029456Y-186607614D01*
X196029456Y-186607614D02*
X195958027Y-186750471D01*
X195958027Y-186750471D02*
X195886598Y-186821900D01*
X195886598Y-186821900D02*
X195743741Y-186893328D01*
X195743741Y-186893328D02*
X195529456Y-186893328D01*
X195529456Y-186893328D02*
X195386598Y-186821900D01*
X196029456Y-186321900D02*
X195886598Y-186393328D01*
X195886598Y-186393328D02*
X195600884Y-186393328D01*
X195600884Y-186393328D02*
X195458027Y-186321900D01*
X195458027Y-186321900D02*
X195386598Y-186250471D01*
X195386598Y-186250471D02*
X195315170Y-186107614D01*
X195315170Y-186107614D02*
X195315170Y-185679042D01*
X195315170Y-185679042D02*
X195386598Y-185536185D01*
X195386598Y-185536185D02*
X195458027Y-185464757D01*
X195458027Y-185464757D02*
X195600884Y-185393328D01*
X195600884Y-185393328D02*
X195886598Y-185393328D01*
X195886598Y-185393328D02*
X196029456Y-185464757D01*
X195386598Y-184821900D02*
X195458027Y-184964757D01*
X195458027Y-184964757D02*
X195600884Y-185036185D01*
X195600884Y-185036185D02*
X195743741Y-185036185D01*
X195743741Y-185036185D02*
X195886598Y-184964757D01*
X195886598Y-184964757D02*
X195958027Y-184821900D01*
X196743741Y-186393328D02*
X196743741Y-185393328D01*
X196743741Y-184893328D02*
X196672313Y-184964757D01*
X196672313Y-184964757D02*
X196743741Y-185036185D01*
X196743741Y-185036185D02*
X196815170Y-184964757D01*
X196815170Y-184964757D02*
X196743741Y-184893328D01*
X196743741Y-184893328D02*
X196743741Y-185036185D01*
X197243742Y-185393328D02*
X197815170Y-185393328D01*
X197458027Y-184893328D02*
X197458027Y-186179042D01*
X197458027Y-186179042D02*
X197529456Y-186321900D01*
X197529456Y-186321900D02*
X197672313Y-186393328D01*
X197672313Y-186393328D02*
X197815170Y-186393328D01*
X198315170Y-186393328D02*
X198315170Y-185393328D01*
X198315170Y-184893328D02*
X198243742Y-184964757D01*
X198243742Y-184964757D02*
X198315170Y-185036185D01*
X198315170Y-185036185D02*
X198386599Y-184964757D01*
X198386599Y-184964757D02*
X198315170Y-184893328D01*
X198315170Y-184893328D02*
X198315170Y-185036185D01*
X199029456Y-186393328D02*
X199029456Y-185393328D01*
X199029456Y-185536185D02*
X199100885Y-185464757D01*
X199100885Y-185464757D02*
X199243742Y-185393328D01*
X199243742Y-185393328D02*
X199458028Y-185393328D01*
X199458028Y-185393328D02*
X199600885Y-185464757D01*
X199600885Y-185464757D02*
X199672314Y-185607614D01*
X199672314Y-185607614D02*
X199672314Y-186393328D01*
X199672314Y-185607614D02*
X199743742Y-185464757D01*
X199743742Y-185464757D02*
X199886599Y-185393328D01*
X199886599Y-185393328D02*
X200100885Y-185393328D01*
X200100885Y-185393328D02*
X200243742Y-185464757D01*
X200243742Y-185464757D02*
X200315171Y-185607614D01*
X200315171Y-185607614D02*
X200315171Y-186393328D01*
X201029456Y-186250471D02*
X201100885Y-186321900D01*
X201100885Y-186321900D02*
X201029456Y-186393328D01*
X201029456Y-186393328D02*
X200958028Y-186321900D01*
X200958028Y-186321900D02*
X201029456Y-186250471D01*
X201029456Y-186250471D02*
X201029456Y-186393328D01*
X201743742Y-186393328D02*
X201743742Y-184893328D01*
X201886600Y-185821900D02*
X202315171Y-186393328D01*
X202315171Y-185393328D02*
X201743742Y-185964757D01*
X202958028Y-186393328D02*
X202958028Y-185393328D01*
X202958028Y-184893328D02*
X202886600Y-184964757D01*
X202886600Y-184964757D02*
X202958028Y-185036185D01*
X202958028Y-185036185D02*
X203029457Y-184964757D01*
X203029457Y-184964757D02*
X202958028Y-184893328D01*
X202958028Y-184893328D02*
X202958028Y-185036185D01*
X204315172Y-186321900D02*
X204172314Y-186393328D01*
X204172314Y-186393328D02*
X203886600Y-186393328D01*
X203886600Y-186393328D02*
X203743743Y-186321900D01*
X203743743Y-186321900D02*
X203672314Y-186250471D01*
X203672314Y-186250471D02*
X203600886Y-186107614D01*
X203600886Y-186107614D02*
X203600886Y-185679042D01*
X203600886Y-185679042D02*
X203672314Y-185536185D01*
X203672314Y-185536185D02*
X203743743Y-185464757D01*
X203743743Y-185464757D02*
X203886600Y-185393328D01*
X203886600Y-185393328D02*
X204172314Y-185393328D01*
X204172314Y-185393328D02*
X204315172Y-185464757D01*
X205600886Y-186393328D02*
X205600886Y-185607614D01*
X205600886Y-185607614D02*
X205529457Y-185464757D01*
X205529457Y-185464757D02*
X205386600Y-185393328D01*
X205386600Y-185393328D02*
X205100886Y-185393328D01*
X205100886Y-185393328D02*
X204958028Y-185464757D01*
X205600886Y-186321900D02*
X205458028Y-186393328D01*
X205458028Y-186393328D02*
X205100886Y-186393328D01*
X205100886Y-186393328D02*
X204958028Y-186321900D01*
X204958028Y-186321900D02*
X204886600Y-186179042D01*
X204886600Y-186179042D02*
X204886600Y-186036185D01*
X204886600Y-186036185D02*
X204958028Y-185893328D01*
X204958028Y-185893328D02*
X205100886Y-185821900D01*
X205100886Y-185821900D02*
X205458028Y-185821900D01*
X205458028Y-185821900D02*
X205600886Y-185750471D01*
X206958029Y-186393328D02*
X206958029Y-184893328D01*
X206958029Y-186321900D02*
X206815171Y-186393328D01*
X206815171Y-186393328D02*
X206529457Y-186393328D01*
X206529457Y-186393328D02*
X206386600Y-186321900D01*
X206386600Y-186321900D02*
X206315171Y-186250471D01*
X206315171Y-186250471D02*
X206243743Y-186107614D01*
X206243743Y-186107614D02*
X206243743Y-185679042D01*
X206243743Y-185679042D02*
X206315171Y-185536185D01*
X206315171Y-185536185D02*
X206386600Y-185464757D01*
X206386600Y-185464757D02*
X206529457Y-185393328D01*
X206529457Y-185393328D02*
X206815171Y-185393328D01*
X206815171Y-185393328D02*
X206958029Y-185464757D01*
X207315172Y-186536185D02*
X208458029Y-186536185D01*
X208815171Y-185393328D02*
X208815171Y-186893328D01*
X208815171Y-185464757D02*
X208958029Y-185393328D01*
X208958029Y-185393328D02*
X209243743Y-185393328D01*
X209243743Y-185393328D02*
X209386600Y-185464757D01*
X209386600Y-185464757D02*
X209458029Y-185536185D01*
X209458029Y-185536185D02*
X209529457Y-185679042D01*
X209529457Y-185679042D02*
X209529457Y-186107614D01*
X209529457Y-186107614D02*
X209458029Y-186250471D01*
X209458029Y-186250471D02*
X209386600Y-186321900D01*
X209386600Y-186321900D02*
X209243743Y-186393328D01*
X209243743Y-186393328D02*
X208958029Y-186393328D01*
X208958029Y-186393328D02*
X208815171Y-186321900D01*
X210815172Y-186321900D02*
X210672314Y-186393328D01*
X210672314Y-186393328D02*
X210386600Y-186393328D01*
X210386600Y-186393328D02*
X210243743Y-186321900D01*
X210243743Y-186321900D02*
X210172314Y-186250471D01*
X210172314Y-186250471D02*
X210100886Y-186107614D01*
X210100886Y-186107614D02*
X210100886Y-185679042D01*
X210100886Y-185679042D02*
X210172314Y-185536185D01*
X210172314Y-185536185D02*
X210243743Y-185464757D01*
X210243743Y-185464757D02*
X210386600Y-185393328D01*
X210386600Y-185393328D02*
X210672314Y-185393328D01*
X210672314Y-185393328D02*
X210815172Y-185464757D01*
X211458028Y-186393328D02*
X211458028Y-184893328D01*
X211458028Y-185464757D02*
X211600886Y-185393328D01*
X211600886Y-185393328D02*
X211886600Y-185393328D01*
X211886600Y-185393328D02*
X212029457Y-185464757D01*
X212029457Y-185464757D02*
X212100886Y-185536185D01*
X212100886Y-185536185D02*
X212172314Y-185679042D01*
X212172314Y-185679042D02*
X212172314Y-186107614D01*
X212172314Y-186107614D02*
X212100886Y-186250471D01*
X212100886Y-186250471D02*
X212029457Y-186321900D01*
X212029457Y-186321900D02*
X211886600Y-186393328D01*
X211886600Y-186393328D02*
X211600886Y-186393328D01*
X211600886Y-186393328D02*
X211458028Y-186321900D01*
D10*
D11*
X177002200Y-181507200D02*
X285002200Y-181507200D01*
D10*
D11*
X178386598Y-183621900D02*
X178600884Y-183693328D01*
X178600884Y-183693328D02*
X178958026Y-183693328D01*
X178958026Y-183693328D02*
X179100884Y-183621900D01*
X179100884Y-183621900D02*
X179172312Y-183550471D01*
X179172312Y-183550471D02*
X179243741Y-183407614D01*
X179243741Y-183407614D02*
X179243741Y-183264757D01*
X179243741Y-183264757D02*
X179172312Y-183121900D01*
X179172312Y-183121900D02*
X179100884Y-183050471D01*
X179100884Y-183050471D02*
X178958026Y-182979042D01*
X178958026Y-182979042D02*
X178672312Y-182907614D01*
X178672312Y-182907614D02*
X178529455Y-182836185D01*
X178529455Y-182836185D02*
X178458026Y-182764757D01*
X178458026Y-182764757D02*
X178386598Y-182621900D01*
X178386598Y-182621900D02*
X178386598Y-182479042D01*
X178386598Y-182479042D02*
X178458026Y-182336185D01*
X178458026Y-182336185D02*
X178529455Y-182264757D01*
X178529455Y-182264757D02*
X178672312Y-182193328D01*
X178672312Y-182193328D02*
X179029455Y-182193328D01*
X179029455Y-182193328D02*
X179243741Y-182264757D01*
X179886597Y-183693328D02*
X179886597Y-182193328D01*
X180529455Y-183693328D02*
X180529455Y-182907614D01*
X180529455Y-182907614D02*
X180458026Y-182764757D01*
X180458026Y-182764757D02*
X180315169Y-182693328D01*
X180315169Y-182693328D02*
X180100883Y-182693328D01*
X180100883Y-182693328D02*
X179958026Y-182764757D01*
X179958026Y-182764757D02*
X179886597Y-182836185D01*
X181815169Y-183621900D02*
X181672312Y-183693328D01*
X181672312Y-183693328D02*
X181386598Y-183693328D01*
X181386598Y-183693328D02*
X181243740Y-183621900D01*
X181243740Y-183621900D02*
X181172312Y-183479042D01*
X181172312Y-183479042D02*
X181172312Y-182907614D01*
X181172312Y-182907614D02*
X181243740Y-182764757D01*
X181243740Y-182764757D02*
X181386598Y-182693328D01*
X181386598Y-182693328D02*
X181672312Y-182693328D01*
X181672312Y-182693328D02*
X181815169Y-182764757D01*
X181815169Y-182764757D02*
X181886598Y-182907614D01*
X181886598Y-182907614D02*
X181886598Y-183050471D01*
X181886598Y-183050471D02*
X181172312Y-183193328D01*
X183100883Y-183621900D02*
X182958026Y-183693328D01*
X182958026Y-183693328D02*
X182672312Y-183693328D01*
X182672312Y-183693328D02*
X182529454Y-183621900D01*
X182529454Y-183621900D02*
X182458026Y-183479042D01*
X182458026Y-183479042D02*
X182458026Y-182907614D01*
X182458026Y-182907614D02*
X182529454Y-182764757D01*
X182529454Y-182764757D02*
X182672312Y-182693328D01*
X182672312Y-182693328D02*
X182958026Y-182693328D01*
X182958026Y-182693328D02*
X183100883Y-182764757D01*
X183100883Y-182764757D02*
X183172312Y-182907614D01*
X183172312Y-182907614D02*
X183172312Y-183050471D01*
X183172312Y-183050471D02*
X182458026Y-183193328D01*
X183600883Y-182693328D02*
X184172311Y-182693328D01*
X183815168Y-182193328D02*
X183815168Y-183479042D01*
X183815168Y-183479042D02*
X183886597Y-183621900D01*
X183886597Y-183621900D02*
X184029454Y-183693328D01*
X184029454Y-183693328D02*
X184172311Y-183693328D01*
X184672311Y-183550471D02*
X184743740Y-183621900D01*
X184743740Y-183621900D02*
X184672311Y-183693328D01*
X184672311Y-183693328D02*
X184600883Y-183621900D01*
X184600883Y-183621900D02*
X184672311Y-183550471D01*
X184672311Y-183550471D02*
X184672311Y-183693328D01*
X184672311Y-182764757D02*
X184743740Y-182836185D01*
X184743740Y-182836185D02*
X184672311Y-182907614D01*
X184672311Y-182907614D02*
X184600883Y-182836185D01*
X184600883Y-182836185D02*
X184672311Y-182764757D01*
X184672311Y-182764757D02*
X184672311Y-182907614D01*
D10*
D11*
X197002200Y-191507200D02*
X197002200Y-194507200D01*
D10*
D11*
X261002200Y-191507200D02*
X261002200Y-198007200D01*
D14*
%TO.N,AC_LINE_1*%
%TO.C,J1*%
X85752500Y-51750000D03*
D15*
%TO.N,AC_LINE_2*%
X85752500Y-56750000D03*
%TD*%
D16*
%TO.N,AC_LINE_1*%
%TO.C,R1*%
X93150000Y-49550000D03*
D17*
%TO.N,Net-(T1-AA)*%
X115550000Y-49550000D03*
%TD*%
D18*
%TO.N,3V3DC*%
%TO.C,J4*%
X137475000Y-106050000D03*
D19*
%TO.N,SWDIO*%
X137475000Y-103510000D03*
%TO.N,SWCLK*%
X137475000Y-100970000D03*
%TO.N,TDI*%
X137475000Y-98430000D03*
%TO.N,GND*%
X137475000Y-95890000D03*
%TD*%
D20*
%TO.N,12VDC*%
%TO.C,K2*%
X141100000Y-77005000D03*
%TO.N,Net-(D4-A)*%
X133480000Y-77005000D03*
%TO.N,unconnected-(K2-Pad3)*%
X141100000Y-66845000D03*
%TO.N,/Power Management/LIGHT_2_GND*%
X133480000Y-61765000D03*
%TO.N,/Power Management/LIGHT_2_VCC*%
X141100000Y-59225000D03*
%TD*%
D21*
%TO.N,GND*%
%TO.C,U5*%
X89502500Y-125230000D03*
X91027500Y-125230000D03*
X88740000Y-124467500D03*
X90265000Y-124467500D03*
X91790000Y-124467500D03*
X89502500Y-123705000D03*
X91027500Y-123705000D03*
X88740000Y-122942500D03*
X90265000Y-122942500D03*
X91790000Y-122942500D03*
X89502500Y-122180000D03*
X91027500Y-122180000D03*
%TD*%
D22*
%TO.N,Net-(D1-+)*%
%TO.C,D1*%
X100595000Y-79375000D03*
D23*
%TO.N,Net-(D1--)*%
X100595000Y-81915000D03*
%TO.N,Net-(D1-Pad3)*%
X108215000Y-81915000D03*
%TO.N,GND*%
X108215000Y-79375000D03*
%TD*%
D24*
%TO.N,Net-(D3-A)*%
%TO.C,Q1*%
X128480000Y-86000000D03*
D25*
%TO.N,Net-(Q1-B)*%
X129750000Y-86000000D03*
%TO.N,GND*%
X131020000Y-86000000D03*
%TD*%
D24*
%TO.N,Net-(D4-A)*%
%TO.C,Q2*%
X136060000Y-86000000D03*
D25*
%TO.N,Net-(Q2-B)*%
X137330000Y-86000000D03*
%TO.N,GND*%
X138600000Y-86000000D03*
%TD*%
D26*
%TO.N,Net-(T1-AA)*%
%TO.C,T1*%
X112125000Y-58125000D03*
D27*
%TO.N,N/C*%
X107125000Y-58125000D03*
X102125000Y-58125000D03*
%TO.N,AC_LINE_2*%
X97125000Y-58125000D03*
%TO.N,Net-(D1--)*%
X97125000Y-73125000D03*
%TO.N,N/C*%
X102125000Y-73125000D03*
X107125000Y-73125000D03*
%TO.N,Net-(D1-+)*%
X112125000Y-73125000D03*
%TD*%
D20*
%TO.N,12VDC*%
%TO.C,K1*%
X127925000Y-77005000D03*
%TO.N,Net-(D3-A)*%
X120305000Y-77005000D03*
%TO.N,unconnected-(K1-Pad3)*%
X127925000Y-66845000D03*
%TO.N,/Power Management/LIGHT_1_GND*%
X120305000Y-61765000D03*
%TO.N,/Power Management/LIGHT_1_VCC*%
X127925000Y-59225000D03*
%TD*%
D28*
%TO.N,/Power Management/LIGHT_1_VCC*%
%TO.C,J2*%
X127925000Y-54652500D03*
D29*
%TO.N,/Power Management/LIGHT_1_GND*%
X122925000Y-54652500D03*
%TD*%
D30*
%TO.N,Net-(S1-D)*%
%TO.C,S1*%
X154475000Y-134890000D03*
%TO.N,Net-(S1-S)*%
X157015000Y-132350000D03*
%TO.N,GND_S*%
X154475000Y-129810000D03*
%TD*%
D31*
%TO.N,unconnected-(J7-SHIELD-PadS1)_2*%
%TO.C,J7*%
X122955000Y-133770000D03*
D32*
%TO.N,unconnected-(J7-SHIELD-PadS1)_3*%
X122955000Y-137950000D03*
D31*
%TO.N,unconnected-(J7-SHIELD-PadS1)*%
X131595000Y-133770000D03*
D32*
%TO.N,unconnected-(J7-SHIELD-PadS1)_1*%
X131595000Y-137950000D03*
%TD*%
D28*
%TO.N,/Power Management/LIGHT_2_VCC*%
%TO.C,J3*%
X141125000Y-54650000D03*
D29*
%TO.N,/Power Management/LIGHT_2_GND*%
X136125000Y-54650000D03*
%TD*%
D33*
%TO.N,5VDC*%
%TO.C,J6*%
X114175000Y-130900000D03*
D34*
%TO.N,GND*%
X114175000Y-136900000D03*
D35*
X118875000Y-133900000D03*
%TD*%
D33*
%TO.N,12VDC*%
%TO.C,J5*%
X84625000Y-90400000D03*
D36*
%TO.N,GND*%
X78625000Y-90400000D03*
D37*
X81625000Y-95100000D03*
%TD*%
D38*
%TO.N,5VDC*%
%TO.C,BZ1*%
X81075000Y-104450000D03*
D23*
%TO.N,Net-(BZ1--)*%
X87575000Y-104450000D03*
%TD*%
D39*
%TO.N,12VDC*%
X97925000Y-86150000D03*
X88325000Y-95650000D03*
X89275000Y-93400000D03*
X102325000Y-93200000D03*
X87325000Y-93400000D03*
X88275000Y-93400000D03*
X87325000Y-94600000D03*
X90225000Y-95650000D03*
X89275000Y-95650000D03*
X90225000Y-93400000D03*
X101475000Y-93200000D03*
X88275000Y-94600000D03*
X97925000Y-87050000D03*
X86325000Y-93400000D03*
X90225000Y-94600000D03*
X89275000Y-94600000D03*
D40*
%TO.N,GND*%
X98025000Y-126975000D03*
X111000000Y-66000000D03*
X85000000Y-117000000D03*
X121025000Y-91000000D03*
X123075000Y-107150000D03*
X87025000Y-129000000D03*
X87000000Y-117000000D03*
X99000000Y-64000000D03*
X106025000Y-137000000D03*
X91025000Y-117000000D03*
X119025000Y-106000000D03*
X97000000Y-66000000D03*
X95025000Y-117000000D03*
X103025000Y-62000000D03*
X97025000Y-112000000D03*
X133025000Y-97025000D03*
X93025000Y-117000000D03*
D39*
X119775000Y-96250000D03*
D40*
X115025000Y-91000000D03*
X111025000Y-60000000D03*
X111025000Y-68000000D03*
X85025000Y-123000000D03*
X91000000Y-110000000D03*
X93000000Y-106000000D03*
X107025000Y-60000000D03*
X103000000Y-64000000D03*
X138025000Y-89000000D03*
X101025000Y-68000000D03*
X99025000Y-110000000D03*
X140025000Y-89000000D03*
X93000000Y-108000000D03*
X119025000Y-91000000D03*
X134025000Y-113000000D03*
X95025000Y-108000000D03*
X97025000Y-68000000D03*
X133025000Y-100000000D03*
X99050000Y-62000000D03*
X117025000Y-93000000D03*
X101025000Y-60000000D03*
X109025000Y-62000000D03*
X111000000Y-64000000D03*
X109000000Y-64000000D03*
X93025000Y-110000000D03*
X81025000Y-70000000D03*
X97025000Y-62000000D03*
X89025000Y-119000000D03*
X113025000Y-113000000D03*
X109025000Y-70000000D03*
X109000000Y-66000000D03*
X96025000Y-127000000D03*
X108025000Y-139000000D03*
X99025000Y-112000000D03*
X132025000Y-93000000D03*
X99000000Y-106000000D03*
X93025000Y-119000000D03*
X85000000Y-119000000D03*
X114025000Y-114000000D03*
X126025000Y-93000000D03*
X87025000Y-119000000D03*
X103025000Y-60000000D03*
X108025000Y-137000000D03*
X89000000Y-110000000D03*
X87025000Y-126975000D03*
X91050000Y-119000000D03*
X132025000Y-113000000D03*
X119025000Y-93000000D03*
X97025000Y-60000000D03*
X109025000Y-68000000D03*
X95025000Y-119000000D03*
X87025000Y-122975000D03*
X97025000Y-110000000D03*
X109025000Y-60000000D03*
X93025000Y-112000000D03*
X104025000Y-137000000D03*
X138025000Y-91000000D03*
X97025000Y-70000000D03*
X98025000Y-129000000D03*
X135025000Y-100000000D03*
X130025000Y-93000000D03*
D39*
X126275000Y-121500000D03*
D40*
X91025000Y-112000000D03*
X103025000Y-70000000D03*
X128025000Y-93000000D03*
X96025000Y-129000000D03*
X107025000Y-66000000D03*
X105025000Y-70000000D03*
X128025000Y-91000000D03*
X99050000Y-70000000D03*
X95050000Y-112000000D03*
X85025000Y-120975000D03*
X106025000Y-139000000D03*
X85025000Y-125000000D03*
X79025000Y-76000000D03*
X95000000Y-106000000D03*
X107025000Y-68000000D03*
X95025000Y-110000000D03*
X89025000Y-117000000D03*
X132025000Y-111000000D03*
X81025000Y-72000000D03*
X105025000Y-62000000D03*
X99025000Y-68000000D03*
X103025000Y-68000000D03*
D39*
X123525000Y-131500000D03*
D40*
X136025000Y-91000000D03*
X135025000Y-97000000D03*
X104025000Y-139000000D03*
X105025000Y-68000000D03*
X107000000Y-64000000D03*
X121025000Y-93000000D03*
X136025000Y-111000000D03*
X136025000Y-89000000D03*
X85025000Y-129000000D03*
X99000000Y-108000000D03*
X111025000Y-62000000D03*
X126025000Y-91000000D03*
D39*
X95075000Y-88450000D03*
D40*
X140025000Y-91000000D03*
X89000000Y-112000000D03*
X87025000Y-120975000D03*
X97000000Y-106000000D03*
X134025000Y-111000000D03*
X99025000Y-60000000D03*
X99025000Y-66000000D03*
X105000000Y-66000000D03*
X103000000Y-66000000D03*
X87025000Y-125000000D03*
X97000000Y-108000000D03*
X136025000Y-113000000D03*
X81025000Y-76000000D03*
X79025000Y-72000000D03*
X79025000Y-70000000D03*
X81025000Y-74000000D03*
X101000000Y-66000000D03*
X79025000Y-74000000D03*
D39*
X140775000Y-119250000D03*
D40*
X101025000Y-70000000D03*
X107050000Y-70000000D03*
X101000000Y-64000000D03*
X115025000Y-93000000D03*
X101025000Y-62000000D03*
X130025000Y-91000000D03*
X132025000Y-91000000D03*
X117025000Y-91000000D03*
X85025000Y-127000000D03*
X111025000Y-70000000D03*
X119025000Y-108000000D03*
X105025000Y-60000000D03*
X105000000Y-64000000D03*
X107050000Y-62000000D03*
X97000000Y-64000000D03*
D39*
%TO.N,5VDC*%
X136350000Y-124825000D03*
X114125000Y-120150000D03*
X106759000Y-99250000D03*
X107925000Y-88550000D03*
X114175000Y-118250000D03*
D40*
X81075000Y-101200000D03*
D39*
X109759000Y-99250000D03*
X137350000Y-125825000D03*
X110775000Y-99250000D03*
X108743000Y-99250000D03*
X114125000Y-119250000D03*
X105743000Y-99250000D03*
X107775000Y-99250000D03*
X109025000Y-88550000D03*
%TO.N,3V3DC*%
X137725000Y-139700000D03*
X115025000Y-113100000D03*
X123725000Y-123050000D03*
X135325000Y-139700000D03*
X115500000Y-95425000D03*
X126775000Y-114000000D03*
X102775000Y-135600000D03*
X102875000Y-104300000D03*
X123675000Y-88800000D03*
X124725000Y-91800000D03*
X103625000Y-105100000D03*
X125175000Y-126650000D03*
X104475000Y-105950000D03*
X125775000Y-88800000D03*
X125775000Y-114850000D03*
X90650000Y-139325000D03*
X128025000Y-114050000D03*
X122475000Y-88800000D03*
X124725000Y-90800000D03*
X123725000Y-121000000D03*
X140475000Y-117650000D03*
X124725000Y-92800000D03*
X136525000Y-139700000D03*
X124725000Y-88750000D03*
X128075000Y-103650000D03*
X123725000Y-121950000D03*
X85225000Y-139950000D03*
X138925000Y-139700000D03*
X124725000Y-89800000D03*
X134125000Y-139700000D03*
X84025000Y-139950000D03*
D40*
%TO.N,3V3DC_S*%
X158125000Y-119150000D03*
X160675000Y-139600000D03*
X169775000Y-134000000D03*
%TO.N,GND_S*%
X172025000Y-119000000D03*
X152025000Y-128000000D03*
X172025000Y-117000000D03*
X155025000Y-117000000D03*
X152025000Y-126000000D03*
X148025000Y-118000000D03*
X150025000Y-126000000D03*
X170025000Y-132000000D03*
X172025000Y-132000000D03*
X170025000Y-117000000D03*
X148025000Y-128000000D03*
X172025000Y-134000000D03*
X150025000Y-117000000D03*
X157025000Y-117000000D03*
X152025000Y-117000000D03*
X148025000Y-126000000D03*
X172025000Y-121000000D03*
X168025000Y-117000000D03*
X150025000Y-128000000D03*
X148025000Y-120000000D03*
X170025000Y-119000000D03*
X148025000Y-122000000D03*
X148025000Y-124000000D03*
X170025000Y-121000000D03*
X166025000Y-117000000D03*
%TO.N,Net-(S1-S)*%
X161375000Y-129000000D03*
%TO.N,Net-(S1-D)*%
X162725000Y-128100000D03*
D39*
%TO.N,TDI*%
X123325000Y-105850000D03*
D40*
%TO.N,/Sensor Board/LED_S*%
X149975000Y-135700000D03*
D39*
%TO.N,PIR_DETECTOR*%
X137925000Y-115150000D03*
X125075000Y-117650000D03*
X129025000Y-115650000D03*
X139275000Y-133200000D03*
%TO.N,TEMPERATURE_ADC*%
X140175000Y-120950000D03*
X142675000Y-133350000D03*
X126775000Y-117300000D03*
X120975000Y-110950000D03*
%TO.N,LED_DRIVER*%
X143575000Y-134300000D03*
X122575000Y-111050000D03*
X126425000Y-112500000D03*
X140925000Y-121600000D03*
%TO.N,/Microcontroller/RTC_SDA*%
X125125000Y-99250000D03*
X126525000Y-122800000D03*
%TO.N,/Microcontroller/RTC_SCL*%
X123750000Y-126475000D03*
X125975000Y-99750000D03*
%TO.N,Net-(U4-OT)*%
X137325000Y-121450000D03*
X118525000Y-96750000D03*
%TO.N,Net-(U4-SIO)*%
X121625000Y-118000000D03*
X126725000Y-120250000D03*
%TO.N,/Microcontroller/SENSOR_ON{slash}OFF*%
X117475000Y-129350000D03*
X116475000Y-117350000D03*
X107175000Y-134450000D03*
X119475000Y-109750000D03*
%TO.N,MCU_RLY_1*%
X121525000Y-106850000D03*
X133575000Y-89950000D03*
%TO.N,MCU_RLY_2*%
X122325000Y-105800000D03*
X142825000Y-89000000D03*
%TO.N,/Microcontroller/WIFI_EN*%
X118675000Y-119650000D03*
X122975000Y-117850000D03*
%TO.N,/Microcontroller/BUZZER*%
X109175000Y-101200000D03*
X141025000Y-95500000D03*
X127075000Y-96000000D03*
X135625000Y-110100000D03*
%TD*%
D41*
%TO.N,5VDC*%
X114175000Y-120400000D02*
X114175000Y-118250000D01*
X135725000Y-124200000D02*
X117975000Y-124200000D01*
X117975000Y-124200000D02*
X114175000Y-120400000D01*
X137350000Y-125825000D02*
X135725000Y-124200000D01*
D42*
%TO.N,3V3DC*%
X125775000Y-114850000D02*
X125775000Y-101350000D01*
D43*
X115025000Y-113100000D02*
X115025000Y-95900000D01*
D41*
X113925000Y-104300000D02*
X124725000Y-93500000D01*
X135325000Y-139700000D02*
X134125000Y-139700000D01*
X84025000Y-138700000D02*
X84025000Y-139950000D01*
X135325000Y-139700000D02*
X136525000Y-139700000D01*
X143025000Y-126700000D02*
X143025000Y-109700000D01*
X136525000Y-139700000D02*
X136225000Y-139700000D01*
D42*
X90650000Y-139325000D02*
X90625000Y-139350000D01*
D41*
X135325000Y-132150000D02*
X132825000Y-129650000D01*
X124725000Y-93500000D02*
X124725000Y-91400000D01*
X135325000Y-134400000D02*
X135325000Y-132150000D01*
D42*
X102775000Y-135600000D02*
X102775000Y-135650000D01*
D43*
X125775000Y-101350000D02*
X123725000Y-99300000D01*
D41*
X136225000Y-139700000D02*
X135325000Y-138800000D01*
D42*
X123725000Y-121000000D02*
X124925000Y-121000000D01*
D41*
X90275000Y-132450000D02*
X84025000Y-138700000D01*
X137475000Y-106050000D02*
X134725000Y-106050000D01*
D42*
X123725000Y-99300000D02*
X123675000Y-99250000D01*
X139075000Y-114050000D02*
X126575000Y-114050000D01*
D41*
X134425000Y-139700000D02*
X135325000Y-138800000D01*
D42*
X123675000Y-99250000D02*
X123675000Y-88800000D01*
D41*
X139375000Y-106050000D02*
X137475000Y-106050000D01*
D42*
X85825000Y-139350000D02*
X85225000Y-139950000D01*
X124925000Y-121000000D02*
X125775000Y-120150000D01*
D41*
X134725000Y-106050000D02*
X124725000Y-96050000D01*
D42*
X125775000Y-120150000D02*
X125775000Y-114850000D01*
D41*
X103175000Y-131850000D02*
X90875000Y-131850000D01*
X120875000Y-129650000D02*
X118125000Y-126900000D01*
X90875000Y-131850000D02*
X90275000Y-132450000D01*
D42*
X102775000Y-135650000D02*
X101375000Y-137050000D01*
D41*
X124725000Y-96050000D02*
X124725000Y-91400000D01*
X102875000Y-104300000D02*
X113925000Y-104300000D01*
X135325000Y-138800000D02*
X135325000Y-134400000D01*
X118125000Y-126900000D02*
X108125000Y-126900000D01*
X135325000Y-134400000D02*
X143025000Y-126700000D01*
X132825000Y-129650000D02*
X120875000Y-129650000D01*
X136525000Y-139700000D02*
X138925000Y-139700000D01*
X124725000Y-88800000D02*
X124725000Y-91400000D01*
D43*
X115025000Y-95900000D02*
X115500000Y-95425000D01*
D41*
X134125000Y-139700000D02*
X134425000Y-139700000D01*
D42*
X126575000Y-114050000D02*
X125775000Y-114850000D01*
D41*
X135325000Y-139700000D02*
X135325000Y-138800000D01*
D42*
X128075000Y-103650000D02*
X123725000Y-99300000D01*
D41*
X108125000Y-126900000D02*
X103175000Y-131850000D01*
D42*
X140475000Y-117650000D02*
X140475000Y-115450000D01*
X90625000Y-139350000D02*
X85825000Y-139350000D01*
X101375000Y-137050000D02*
X92925000Y-137050000D01*
D41*
X143025000Y-109700000D02*
X139375000Y-106050000D01*
D42*
X140475000Y-115450000D02*
X139075000Y-114050000D01*
X92925000Y-137050000D02*
X90650000Y-139325000D01*
%TD*%
%TA.AperFunction,Conductor*%
%TO.N,GND_S*%
G36*
X162484752Y-115800316D02*
G01*
X162485438Y-115800500D01*
X162524248Y-115800500D01*
X162563163Y-115800681D01*
X162563165Y-115800680D01*
X162569137Y-115800708D01*
X162572426Y-115800500D01*
X173675500Y-115800500D01*
X173742539Y-115820185D01*
X173788294Y-115872989D01*
X173799500Y-115924500D01*
X173799500Y-140650601D01*
X173779815Y-140717640D01*
X173727011Y-140763395D01*
X173675530Y-140774601D01*
X153250057Y-140779498D01*
X153249948Y-140779498D01*
X146949421Y-140775460D01*
X146882394Y-140755732D01*
X146836673Y-140702899D01*
X146825500Y-140651460D01*
X146825500Y-139533581D01*
X160170500Y-139533581D01*
X160170500Y-139666419D01*
X160204881Y-139794730D01*
X160271300Y-139909770D01*
X160365230Y-140003700D01*
X160480270Y-140070119D01*
X160608581Y-140104500D01*
X160608584Y-140104500D01*
X160741416Y-140104500D01*
X160741419Y-140104500D01*
X160869730Y-140070119D01*
X160984770Y-140003700D01*
X161078700Y-139909770D01*
X161145119Y-139794730D01*
X161179500Y-139666419D01*
X161179500Y-139533581D01*
X161145119Y-139405270D01*
X161078700Y-139290230D01*
X160984770Y-139196300D01*
X160869730Y-139129881D01*
X160741419Y-139095500D01*
X160608581Y-139095500D01*
X160480270Y-139129881D01*
X160480268Y-139129881D01*
X160480268Y-139129882D01*
X160365230Y-139196300D01*
X160365227Y-139196302D01*
X160271302Y-139290227D01*
X160271300Y-139290230D01*
X160204881Y-139405270D01*
X160170500Y-139533581D01*
X146825500Y-139533581D01*
X146825500Y-139110439D01*
X146805020Y-139034009D01*
X146804068Y-139031711D01*
X146803842Y-139029616D01*
X146802917Y-139026161D01*
X146803455Y-139026016D01*
X146796601Y-138962241D01*
X146798855Y-138952167D01*
X146825500Y-138852727D01*
X146825500Y-138747273D01*
X146798207Y-138645413D01*
X146798206Y-138645411D01*
X146796103Y-138637562D01*
X146797937Y-138637070D01*
X146791580Y-138577996D01*
X146796144Y-138562449D01*
X146796103Y-138562438D01*
X146798207Y-138554587D01*
X146825500Y-138452727D01*
X146825500Y-138347273D01*
X146798207Y-138245413D01*
X146798206Y-138245411D01*
X146796103Y-138237562D01*
X146797937Y-138237070D01*
X146791580Y-138177996D01*
X146796144Y-138162449D01*
X146796103Y-138162438D01*
X146798207Y-138154587D01*
X146825500Y-138052727D01*
X146825500Y-137947273D01*
X146798207Y-137845413D01*
X146798206Y-137845411D01*
X146796103Y-137837562D01*
X146797937Y-137837070D01*
X146791580Y-137777996D01*
X146796144Y-137762449D01*
X146796103Y-137762438D01*
X146798207Y-137754587D01*
X146825500Y-137652727D01*
X146825500Y-137547273D01*
X146806270Y-137475504D01*
X146806270Y-137411324D01*
X146825500Y-137339562D01*
X146825500Y-135633581D01*
X149470500Y-135633581D01*
X149470500Y-135766419D01*
X149504881Y-135894730D01*
X149571300Y-136009770D01*
X149665230Y-136103700D01*
X149780270Y-136170119D01*
X149908581Y-136204500D01*
X149908584Y-136204500D01*
X150041416Y-136204500D01*
X150041419Y-136204500D01*
X150169730Y-136170119D01*
X150284770Y-136103700D01*
X150378700Y-136009770D01*
X150445119Y-135894730D01*
X150479500Y-135766419D01*
X150479500Y-135633581D01*
X150445119Y-135505270D01*
X150378700Y-135390230D01*
X150284770Y-135296300D01*
X150169730Y-135229881D01*
X150041419Y-135195500D01*
X149908581Y-135195500D01*
X149780270Y-135229881D01*
X149780268Y-135229881D01*
X149780268Y-135229882D01*
X149665230Y-135296300D01*
X149665227Y-135296302D01*
X149571302Y-135390227D01*
X149571300Y-135390230D01*
X149504881Y-135505270D01*
X149470500Y-135633581D01*
X146825500Y-135633581D01*
X146825500Y-134799885D01*
X153560100Y-134799885D01*
X153560100Y-134980114D01*
X153595257Y-135156859D01*
X153595259Y-135156867D01*
X153664224Y-135323365D01*
X153664229Y-135323374D01*
X153764350Y-135473214D01*
X153764353Y-135473218D01*
X153891781Y-135600646D01*
X153891785Y-135600649D01*
X154041625Y-135700770D01*
X154041631Y-135700773D01*
X154041632Y-135700774D01*
X154208133Y-135769741D01*
X154384885Y-135804899D01*
X154384889Y-135804900D01*
X154384890Y-135804900D01*
X154565111Y-135804900D01*
X154565112Y-135804899D01*
X154741867Y-135769741D01*
X154908368Y-135700774D01*
X155058215Y-135600649D01*
X155185649Y-135473215D01*
X155285774Y-135323368D01*
X155354741Y-135156867D01*
X155389900Y-134980110D01*
X155389900Y-134799890D01*
X155354741Y-134623133D01*
X155285774Y-134456632D01*
X155285773Y-134456631D01*
X155285770Y-134456625D01*
X155185649Y-134306785D01*
X155185646Y-134306781D01*
X155058218Y-134179353D01*
X155058214Y-134179350D01*
X154908374Y-134079229D01*
X154908361Y-134079222D01*
X154813705Y-134040015D01*
X154813704Y-134040015D01*
X154741867Y-134010259D01*
X154741859Y-134010257D01*
X154565114Y-133975100D01*
X154565110Y-133975100D01*
X154384890Y-133975100D01*
X154384885Y-133975100D01*
X154208140Y-134010257D01*
X154208132Y-134010259D01*
X154041634Y-134079224D01*
X154041625Y-134079229D01*
X153891785Y-134179350D01*
X153891781Y-134179353D01*
X153764353Y-134306781D01*
X153764350Y-134306785D01*
X153664229Y-134456625D01*
X153664224Y-134456634D01*
X153595259Y-134623132D01*
X153595257Y-134623140D01*
X153560100Y-134799885D01*
X146825500Y-134799885D01*
X146825500Y-133960438D01*
X146818303Y-133933581D01*
X169270500Y-133933581D01*
X169270500Y-134066419D01*
X169304881Y-134194730D01*
X169371300Y-134309770D01*
X169465230Y-134403700D01*
X169580270Y-134470119D01*
X169708581Y-134504500D01*
X169708584Y-134504500D01*
X169841416Y-134504500D01*
X169841419Y-134504500D01*
X169969730Y-134470119D01*
X170084770Y-134403700D01*
X170178700Y-134309770D01*
X170245119Y-134194730D01*
X170279500Y-134066419D01*
X170279500Y-133933581D01*
X170245119Y-133805270D01*
X170178700Y-133690230D01*
X170084770Y-133596300D01*
X169969730Y-133529881D01*
X169841419Y-133495500D01*
X169708581Y-133495500D01*
X169580270Y-133529881D01*
X169580268Y-133529881D01*
X169580268Y-133529882D01*
X169465230Y-133596300D01*
X169465227Y-133596302D01*
X169371302Y-133690227D01*
X169371300Y-133690230D01*
X169304881Y-133805270D01*
X169270500Y-133933581D01*
X146818303Y-133933581D01*
X146806270Y-133888675D01*
X146806270Y-133824495D01*
X146825500Y-133752727D01*
X146825500Y-133647273D01*
X146798207Y-133545413D01*
X146798206Y-133545411D01*
X146796103Y-133537562D01*
X146797937Y-133537070D01*
X146791580Y-133477996D01*
X146796144Y-133462449D01*
X146796103Y-133462438D01*
X146798207Y-133454587D01*
X146825500Y-133352727D01*
X146825500Y-133247273D01*
X146798207Y-133145413D01*
X146798206Y-133145411D01*
X146796103Y-133137562D01*
X146797937Y-133137070D01*
X146791580Y-133077996D01*
X146796144Y-133062449D01*
X146796103Y-133062438D01*
X146798207Y-133054587D01*
X146825500Y-132952727D01*
X146825500Y-132847273D01*
X146798207Y-132745413D01*
X146798206Y-132745411D01*
X146796103Y-132737562D01*
X146797937Y-132737070D01*
X146791580Y-132677996D01*
X146796144Y-132662449D01*
X146796103Y-132662438D01*
X146798207Y-132654587D01*
X146825500Y-132552727D01*
X146825500Y-132447273D01*
X146806269Y-132375504D01*
X146806160Y-132360133D01*
X146802135Y-132348131D01*
X146805841Y-132315146D01*
X146805826Y-132313030D01*
X146806027Y-132312232D01*
X146820054Y-132259885D01*
X156100100Y-132259885D01*
X156100100Y-132440114D01*
X156135257Y-132616859D01*
X156135259Y-132616867D01*
X156204224Y-132783365D01*
X156204229Y-132783374D01*
X156304350Y-132933214D01*
X156304353Y-132933218D01*
X156431781Y-133060646D01*
X156431785Y-133060649D01*
X156581625Y-133160770D01*
X156581631Y-133160773D01*
X156581632Y-133160774D01*
X156748133Y-133229741D01*
X156924885Y-133264899D01*
X156924889Y-133264900D01*
X156924890Y-133264900D01*
X157105111Y-133264900D01*
X157105112Y-133264899D01*
X157281867Y-133229741D01*
X157448368Y-133160774D01*
X157598215Y-133060649D01*
X157725649Y-132933215D01*
X157825774Y-132783368D01*
X157894741Y-132616867D01*
X157929900Y-132440110D01*
X157929900Y-132259890D01*
X157894741Y-132083133D01*
X157825774Y-131916632D01*
X157825773Y-131916631D01*
X157825770Y-131916625D01*
X157725649Y-131766785D01*
X157725646Y-131766781D01*
X157598218Y-131639353D01*
X157598214Y-131639350D01*
X157448374Y-131539229D01*
X157448365Y-131539224D01*
X157281867Y-131470259D01*
X157281859Y-131470257D01*
X157105114Y-131435100D01*
X157105110Y-131435100D01*
X156924890Y-131435100D01*
X156924885Y-131435100D01*
X156748140Y-131470257D01*
X156748132Y-131470259D01*
X156581634Y-131539224D01*
X156581625Y-131539229D01*
X156431785Y-131639350D01*
X156431781Y-131639353D01*
X156304353Y-131766781D01*
X156304350Y-131766785D01*
X156204229Y-131916625D01*
X156204224Y-131916634D01*
X156135259Y-132083132D01*
X156135257Y-132083140D01*
X156100100Y-132259885D01*
X146820054Y-132259885D01*
X146825500Y-132239562D01*
X146825500Y-128933581D01*
X160870500Y-128933581D01*
X160870500Y-129066419D01*
X160904881Y-129194730D01*
X160971300Y-129309770D01*
X161065230Y-129403700D01*
X161180270Y-129470119D01*
X161308581Y-129504500D01*
X161308584Y-129504500D01*
X161441416Y-129504500D01*
X161441419Y-129504500D01*
X161569730Y-129470119D01*
X161684770Y-129403700D01*
X161778700Y-129309770D01*
X161845119Y-129194730D01*
X161879500Y-129066419D01*
X161879500Y-128933581D01*
X161845119Y-128805270D01*
X161778700Y-128690230D01*
X161684770Y-128596300D01*
X161569730Y-128529881D01*
X161441419Y-128495500D01*
X161308581Y-128495500D01*
X161180270Y-128529881D01*
X161180268Y-128529881D01*
X161180268Y-128529882D01*
X161065230Y-128596300D01*
X161065227Y-128596302D01*
X160971302Y-128690227D01*
X160971300Y-128690230D01*
X160904881Y-128805270D01*
X160870500Y-128933581D01*
X146825500Y-128933581D01*
X146825500Y-128033581D01*
X162220500Y-128033581D01*
X162220500Y-128166419D01*
X162254881Y-128294730D01*
X162321300Y-128409770D01*
X162415230Y-128503700D01*
X162530270Y-128570119D01*
X162658581Y-128604500D01*
X162658584Y-128604500D01*
X162791416Y-128604500D01*
X162791419Y-128604500D01*
X162919730Y-128570119D01*
X163034770Y-128503700D01*
X163128700Y-128409770D01*
X163195119Y-128294730D01*
X163229500Y-128166419D01*
X163229500Y-128033581D01*
X163195119Y-127905270D01*
X163128700Y-127790230D01*
X163034770Y-127696300D01*
X162919730Y-127629881D01*
X162791419Y-127595500D01*
X162658581Y-127595500D01*
X162530270Y-127629881D01*
X162530268Y-127629881D01*
X162530268Y-127629882D01*
X162415230Y-127696300D01*
X162415227Y-127696302D01*
X162321302Y-127790227D01*
X162321300Y-127790230D01*
X162254881Y-127905270D01*
X162220500Y-128033581D01*
X146825500Y-128033581D01*
X146825500Y-126360438D01*
X146806270Y-126288675D01*
X146806270Y-126224495D01*
X146825500Y-126152727D01*
X146825500Y-126047273D01*
X146798207Y-125945413D01*
X146798206Y-125945411D01*
X146796103Y-125937562D01*
X146797937Y-125937070D01*
X146791580Y-125877996D01*
X146796144Y-125862449D01*
X146796103Y-125862438D01*
X146798207Y-125854587D01*
X146825500Y-125752727D01*
X146825500Y-125647273D01*
X146798207Y-125545413D01*
X146798206Y-125545411D01*
X146796103Y-125537562D01*
X146797937Y-125537070D01*
X146791580Y-125477996D01*
X146796144Y-125462449D01*
X146796103Y-125462438D01*
X146798207Y-125454587D01*
X146825500Y-125352727D01*
X146825500Y-125247273D01*
X146798207Y-125145413D01*
X146798206Y-125145411D01*
X146796103Y-125137562D01*
X146797937Y-125137070D01*
X146791580Y-125077996D01*
X146796144Y-125062449D01*
X146796103Y-125062438D01*
X146798207Y-125054587D01*
X146825500Y-124952727D01*
X146825500Y-124847273D01*
X146798207Y-124745413D01*
X146798203Y-124745406D01*
X146795096Y-124737903D01*
X146797237Y-124737015D01*
X146783575Y-124680707D01*
X146800049Y-124624600D01*
X146805021Y-124615989D01*
X146825500Y-124539562D01*
X146825500Y-119083581D01*
X157620500Y-119083581D01*
X157620500Y-119216419D01*
X157654881Y-119344730D01*
X157721300Y-119459770D01*
X157815230Y-119553700D01*
X157930270Y-119620119D01*
X158058581Y-119654500D01*
X158058584Y-119654500D01*
X158191416Y-119654500D01*
X158191419Y-119654500D01*
X158319730Y-119620119D01*
X158434770Y-119553700D01*
X158528700Y-119459770D01*
X158595119Y-119344730D01*
X158629500Y-119216419D01*
X158629500Y-119083581D01*
X158595119Y-118955270D01*
X158528700Y-118840230D01*
X158434770Y-118746300D01*
X158319730Y-118679881D01*
X158191419Y-118645500D01*
X158058581Y-118645500D01*
X157930270Y-118679881D01*
X157930268Y-118679881D01*
X157930268Y-118679882D01*
X157815230Y-118746300D01*
X157815227Y-118746302D01*
X157721302Y-118840227D01*
X157721300Y-118840230D01*
X157654881Y-118955270D01*
X157620500Y-119083581D01*
X146825500Y-119083581D01*
X146825500Y-118660438D01*
X146806270Y-118588675D01*
X146806270Y-118524495D01*
X146825500Y-118452727D01*
X146825500Y-118347273D01*
X146798207Y-118245413D01*
X146798206Y-118245411D01*
X146796103Y-118237562D01*
X146797937Y-118237070D01*
X146791580Y-118177996D01*
X146796144Y-118162449D01*
X146796103Y-118162438D01*
X146798207Y-118154587D01*
X146825500Y-118052727D01*
X146825500Y-117947273D01*
X146798207Y-117845413D01*
X146798206Y-117845411D01*
X146796103Y-117837562D01*
X146797937Y-117837070D01*
X146791580Y-117777996D01*
X146796144Y-117762449D01*
X146796103Y-117762438D01*
X146798207Y-117754587D01*
X146825500Y-117652727D01*
X146825500Y-117547273D01*
X146798207Y-117445413D01*
X146798206Y-117445411D01*
X146796103Y-117437562D01*
X146797937Y-117437070D01*
X146791580Y-117377996D01*
X146796144Y-117362449D01*
X146796103Y-117362438D01*
X146798207Y-117354587D01*
X146825500Y-117252727D01*
X146825500Y-117147273D01*
X146806270Y-117075504D01*
X146806270Y-117011324D01*
X146825500Y-116939562D01*
X146825500Y-115852060D01*
X146845185Y-115785021D01*
X146897989Y-115739266D01*
X146950074Y-115728061D01*
X162484752Y-115800316D01*
G37*
%TD.AperFunction*%
%TD*%
%TA.AperFunction,Conductor*%
%TO.N,3V3DC*%
G36*
X102535321Y-135439851D02*
G01*
X102536125Y-135440339D01*
X102753984Y-135584880D01*
X102773734Y-135597984D01*
X102777015Y-135601265D01*
X102935165Y-135839636D01*
X102936884Y-135848424D01*
X102931884Y-135855853D01*
X102931829Y-135855890D01*
X102824210Y-135926415D01*
X102824184Y-135926432D01*
X102767942Y-135963078D01*
X102657620Y-136044897D01*
X102522781Y-136172093D01*
X102514412Y-136175277D01*
X102506480Y-136171855D01*
X102252995Y-135918370D01*
X102249568Y-135910097D01*
X102252609Y-135902229D01*
X102294746Y-135855853D01*
X102314627Y-135833971D01*
X102359955Y-135769622D01*
X102412952Y-135654277D01*
X102438115Y-135591670D01*
X102438731Y-135590377D01*
X102519422Y-135444427D01*
X102526423Y-135438847D01*
X102535321Y-135439851D01*
G37*
%TD.AperFunction*%
%TD*%
%TA.AperFunction,Conductor*%
%TO.N,3V3DC*%
G36*
X90588230Y-139035235D02*
G01*
X90593768Y-139042272D01*
X90593972Y-139043118D01*
X90650530Y-139322680D01*
X90650530Y-139327320D01*
X90593835Y-139607557D01*
X90588835Y-139614986D01*
X90580047Y-139616705D01*
X90579839Y-139616661D01*
X90415677Y-139580331D01*
X90415678Y-139580324D01*
X90415626Y-139580319D01*
X90328450Y-139560628D01*
X90218149Y-139545515D01*
X90067103Y-139540850D01*
X90058939Y-139537170D01*
X90055764Y-139529156D01*
X90055764Y-139170704D01*
X90059191Y-139162431D01*
X90066957Y-139159015D01*
X90160206Y-139154977D01*
X90238575Y-139142618D01*
X90359731Y-139101644D01*
X90359739Y-139101640D01*
X90359750Y-139101637D01*
X90409419Y-139082000D01*
X90410545Y-139081619D01*
X90579340Y-139034174D01*
X90588230Y-139035235D01*
G37*
%TD.AperFunction*%
%TD*%
%TA.AperFunction,Conductor*%
%TO.N,5VDC*%
G36*
X109336355Y-88069685D02*
G01*
X109361993Y-88091617D01*
X109693679Y-88464764D01*
X109723505Y-88527946D01*
X109725000Y-88547144D01*
X109725000Y-96799641D01*
X109724998Y-96800350D01*
X109715241Y-98507756D01*
X109695174Y-98574681D01*
X109689017Y-98583311D01*
X109325000Y-99049998D01*
X109325000Y-99588000D01*
X109305315Y-99655039D01*
X109275400Y-99687200D01*
X108958067Y-99925200D01*
X108892625Y-99949676D01*
X108883667Y-99950000D01*
X107682032Y-99950000D01*
X107614993Y-99930315D01*
X107587884Y-99906698D01*
X107354852Y-99634827D01*
X107326169Y-99571116D01*
X107325000Y-99554129D01*
X107325000Y-88589087D01*
X107344685Y-88522048D01*
X107347415Y-88517978D01*
X107637976Y-88102891D01*
X107692547Y-88059258D01*
X107739561Y-88050000D01*
X109269316Y-88050000D01*
X109336355Y-88069685D01*
G37*
%TD.AperFunction*%
%TD*%
%TA.AperFunction,Conductor*%
%TO.N,3V3DC*%
G36*
X138323864Y-105217670D02*
G01*
X138327239Y-105224889D01*
X138330222Y-105258036D01*
X138345311Y-105307510D01*
X138345314Y-105307517D01*
X138369390Y-105349019D01*
X138369395Y-105349026D01*
X138401592Y-105383163D01*
X138401594Y-105383164D01*
X138401596Y-105383166D01*
X138486875Y-105431740D01*
X138486877Y-105431740D01*
X138486878Y-105431741D01*
X138594166Y-105458016D01*
X138594171Y-105458016D01*
X138594173Y-105458017D01*
X138716513Y-105466779D01*
X138846917Y-105462807D01*
X139103950Y-105435799D01*
X139104034Y-105435791D01*
X139312204Y-105416204D01*
X139320762Y-105418841D01*
X139324949Y-105426757D01*
X139325000Y-105427853D01*
X139325000Y-106672146D01*
X139321573Y-106680419D01*
X139313300Y-106683846D01*
X139312204Y-106683795D01*
X139104165Y-106664221D01*
X139103822Y-106664183D01*
X139040814Y-106656373D01*
X138781712Y-106633932D01*
X138781708Y-106633932D01*
X138781707Y-106633932D01*
X138668531Y-106638401D01*
X138600623Y-106641083D01*
X138476800Y-106672215D01*
X138476798Y-106672216D01*
X138394564Y-106723085D01*
X138394563Y-106723086D01*
X138343954Y-106795679D01*
X138343954Y-106795680D01*
X138329868Y-106843845D01*
X138327167Y-106874997D01*
X138323038Y-106882943D01*
X138314500Y-106885642D01*
X138307243Y-106882264D01*
X137482286Y-106058276D01*
X137478855Y-106050007D01*
X137482276Y-106041733D01*
X138307320Y-105217659D01*
X138315593Y-105214238D01*
X138323864Y-105217670D01*
G37*
%TD.AperFunction*%
%TD*%
%TA.AperFunction,Conductor*%
%TO.N,3V3DC*%
G36*
X85518449Y-139403074D02*
G01*
X85772173Y-139656798D01*
X85775600Y-139665071D01*
X85772728Y-139672750D01*
X85654242Y-139808963D01*
X85587080Y-139924306D01*
X85587065Y-139924331D01*
X85480693Y-140105992D01*
X85473556Y-140111400D01*
X85464685Y-140110176D01*
X85464129Y-140109829D01*
X85226265Y-139952015D01*
X85222984Y-139948734D01*
X85065170Y-139710870D01*
X85063451Y-139702082D01*
X85068451Y-139694653D01*
X85068994Y-139694313D01*
X85250671Y-139587933D01*
X85346762Y-139533787D01*
X85419115Y-139479811D01*
X85502224Y-139402766D01*
X85510619Y-139399655D01*
X85518449Y-139403074D01*
G37*
%TD.AperFunction*%
%TD*%
%TA.AperFunction,Conductor*%
%TO.N,3V3DC*%
G36*
X115260327Y-95264872D02*
G01*
X115261271Y-95265436D01*
X115466092Y-95401327D01*
X115498734Y-95422984D01*
X115502015Y-95426265D01*
X115659613Y-95663803D01*
X115661332Y-95672591D01*
X115656332Y-95680020D01*
X115655460Y-95680546D01*
X115534151Y-95746615D01*
X115532256Y-95747439D01*
X115429812Y-95781595D01*
X115429376Y-95781731D01*
X115401462Y-95789841D01*
X115401461Y-95789841D01*
X115295206Y-95834211D01*
X115295204Y-95834212D01*
X115236696Y-95874546D01*
X115236692Y-95874549D01*
X115177866Y-95927555D01*
X115169426Y-95930547D01*
X115161761Y-95927136D01*
X114997801Y-95763176D01*
X114994374Y-95754903D01*
X114997319Y-95747141D01*
X114997785Y-95746615D01*
X115057421Y-95679352D01*
X115099573Y-95613943D01*
X115143325Y-95495422D01*
X115173334Y-95403216D01*
X115174140Y-95401327D01*
X115244495Y-95269676D01*
X115251416Y-95263995D01*
X115260327Y-95264872D01*
G37*
%TD.AperFunction*%
%TD*%
%TA.AperFunction,Conductor*%
%TO.N,3V3DC*%
G36*
X123938919Y-88852393D02*
G01*
X123957106Y-88856073D01*
X123964535Y-88861073D01*
X123966254Y-88869861D01*
X123966106Y-88870500D01*
X123912885Y-89074103D01*
X123912834Y-89074290D01*
X123883208Y-89180401D01*
X123870214Y-89269730D01*
X123865926Y-89382979D01*
X123862188Y-89391116D01*
X123854234Y-89394236D01*
X123495414Y-89394236D01*
X123487141Y-89390809D01*
X123483742Y-89383348D01*
X123475834Y-89269734D01*
X123471207Y-89203255D01*
X123437139Y-89074199D01*
X123437143Y-89074170D01*
X123437132Y-89074173D01*
X123383893Y-88870498D01*
X123385117Y-88861629D01*
X123392254Y-88856221D01*
X123392886Y-88856074D01*
X123672682Y-88799469D01*
X123677318Y-88799469D01*
X123938919Y-88852393D01*
G37*
%TD.AperFunction*%
%TD*%
%TA.AperFunction,Conductor*%
%TO.N,3V3DC*%
G36*
X128026853Y-113863155D02*
G01*
X128030745Y-113871220D01*
X128030764Y-113871886D01*
X128030764Y-114228993D01*
X128027337Y-114237266D01*
X128019259Y-114240691D01*
X127965949Y-114241579D01*
X127965933Y-114241580D01*
X127908451Y-114242460D01*
X127906855Y-114242375D01*
X127824255Y-114232298D01*
X127819244Y-114230460D01*
X127770067Y-114198122D01*
X127766449Y-114194344D01*
X127746771Y-114161384D01*
X127745597Y-114158703D01*
X127730938Y-114109116D01*
X127730653Y-114107928D01*
X127729184Y-114099990D01*
X127728989Y-114097773D01*
X127729672Y-114006599D01*
X127730427Y-114002552D01*
X127743644Y-113967567D01*
X127745139Y-113964806D01*
X127766399Y-113935720D01*
X127768657Y-113933394D01*
X127805038Y-113905064D01*
X127807469Y-113903608D01*
X127854098Y-113882938D01*
X127856349Y-113882205D01*
X127935700Y-113865063D01*
X127937503Y-113864818D01*
X128018398Y-113860205D01*
X128026853Y-113863155D01*
G37*
%TD.AperFunction*%
%TD*%
%TA.AperFunction,Conductor*%
%TO.N,3V3DC*%
G36*
X90943449Y-138778074D02*
G01*
X91197173Y-139031798D01*
X91200600Y-139040071D01*
X91197728Y-139047750D01*
X91079242Y-139183963D01*
X91012080Y-139299306D01*
X91012065Y-139299331D01*
X90905693Y-139480992D01*
X90898556Y-139486400D01*
X90889685Y-139485176D01*
X90889129Y-139484829D01*
X90651265Y-139327015D01*
X90647984Y-139323734D01*
X90490170Y-139085870D01*
X90488451Y-139077082D01*
X90493451Y-139069653D01*
X90493994Y-139069313D01*
X90675671Y-138962933D01*
X90771762Y-138908787D01*
X90844115Y-138854811D01*
X90927224Y-138777766D01*
X90935619Y-138774655D01*
X90943449Y-138778074D01*
G37*
%TD.AperFunction*%
%TD*%
%TA.AperFunction,Conductor*%
%TO.N,3V3DC*%
G36*
X123795478Y-120708888D02*
G01*
X123999124Y-120762119D01*
X123999257Y-120762155D01*
X124037619Y-120772865D01*
X124105403Y-120791791D01*
X124105405Y-120791791D01*
X124105408Y-120791792D01*
X124194735Y-120804786D01*
X124307980Y-120809073D01*
X124316116Y-120812811D01*
X124319236Y-120820765D01*
X124319236Y-121179585D01*
X124315809Y-121187858D01*
X124308348Y-121191257D01*
X124142005Y-121202835D01*
X124128254Y-121203793D01*
X123999198Y-121237861D01*
X123999171Y-121237868D01*
X123795500Y-121291106D01*
X123786629Y-121289882D01*
X123781221Y-121282745D01*
X123781073Y-121282106D01*
X123724469Y-121002320D01*
X123724469Y-120997680D01*
X123762627Y-120809073D01*
X123781073Y-120717892D01*
X123786073Y-120710464D01*
X123794861Y-120708745D01*
X123795478Y-120708888D01*
G37*
%TD.AperFunction*%
%TD*%
%TA.AperFunction,Conductor*%
%TO.N,3V3DC*%
G36*
X126614858Y-113760274D02*
G01*
X126615071Y-113760579D01*
X126775707Y-113999293D01*
X126775749Y-113999357D01*
X126833665Y-114086650D01*
X126906586Y-114196560D01*
X126934776Y-114239048D01*
X126936495Y-114247836D01*
X126931495Y-114255265D01*
X126930860Y-114255658D01*
X126867921Y-114291855D01*
X126866350Y-114292609D01*
X126802946Y-114317408D01*
X126800912Y-114317998D01*
X126690214Y-114339466D01*
X126689720Y-114339551D01*
X126634867Y-114347769D01*
X126538660Y-114380814D01*
X126538654Y-114380816D01*
X126538650Y-114380818D01*
X126528784Y-114387217D01*
X126486302Y-114414775D01*
X126486296Y-114414780D01*
X126486294Y-114414781D01*
X126486292Y-114414783D01*
X126443449Y-114452687D01*
X126436683Y-114458674D01*
X126428216Y-114461589D01*
X126420657Y-114458184D01*
X126167027Y-114204554D01*
X126163600Y-114196281D01*
X126166748Y-114188297D01*
X126261668Y-114086650D01*
X126330991Y-114002401D01*
X126331124Y-114002244D01*
X126423540Y-113895750D01*
X126424640Y-113894643D01*
X126498397Y-113829790D01*
X126499252Y-113829109D01*
X126598528Y-113757616D01*
X126607243Y-113755563D01*
X126614858Y-113760274D01*
G37*
%TD.AperFunction*%
%TD*%
%TA.AperFunction,Conductor*%
%TO.N,12VDC*%
G36*
X129117295Y-75069685D02*
G01*
X129145514Y-75094616D01*
X129996259Y-76115511D01*
X130024055Y-76179613D01*
X130025000Y-76194893D01*
X130025000Y-78059999D01*
X130942648Y-79100000D01*
X137425000Y-79100000D01*
X138425000Y-78100000D01*
X138425000Y-76888909D01*
X139625000Y-76888909D01*
X139625000Y-77121090D01*
X139661318Y-77350393D01*
X139733065Y-77571205D01*
X139838465Y-77778064D01*
X139895238Y-77856207D01*
X140498958Y-77252487D01*
X140523978Y-77312890D01*
X140595112Y-77419351D01*
X140685649Y-77509888D01*
X140792110Y-77581022D01*
X140852510Y-77606041D01*
X140248791Y-78209759D01*
X140248791Y-78209760D01*
X140326935Y-78266534D01*
X140533794Y-78371934D01*
X140754606Y-78443681D01*
X140983910Y-78480000D01*
X141216090Y-78480000D01*
X141445393Y-78443681D01*
X141666205Y-78371934D01*
X141873071Y-78266530D01*
X141951207Y-78209762D01*
X141951208Y-78209760D01*
X141347488Y-77606041D01*
X141407890Y-77581022D01*
X141514351Y-77509888D01*
X141604888Y-77419351D01*
X141676022Y-77312890D01*
X141701041Y-77252489D01*
X142304760Y-77856208D01*
X142304762Y-77856207D01*
X142361530Y-77778071D01*
X142466934Y-77571205D01*
X142538681Y-77350393D01*
X142575000Y-77121090D01*
X142575000Y-76888909D01*
X142538681Y-76659606D01*
X142466934Y-76438794D01*
X142361534Y-76231935D01*
X142304760Y-76153791D01*
X142304759Y-76153791D01*
X141701041Y-76757510D01*
X141676022Y-76697110D01*
X141604888Y-76590649D01*
X141514351Y-76500112D01*
X141407890Y-76428978D01*
X141347487Y-76403957D01*
X141951207Y-75800238D01*
X141873064Y-75743465D01*
X141666205Y-75638065D01*
X141445393Y-75566318D01*
X141216090Y-75530000D01*
X140983910Y-75530000D01*
X140754606Y-75566318D01*
X140533794Y-75638065D01*
X140326925Y-75743470D01*
X140248791Y-75800237D01*
X140248791Y-75800238D01*
X140852511Y-76403958D01*
X140792110Y-76428978D01*
X140685649Y-76500112D01*
X140595112Y-76590649D01*
X140523978Y-76697110D01*
X140498958Y-76757511D01*
X139895238Y-76153791D01*
X139895237Y-76153791D01*
X139838470Y-76231925D01*
X139733065Y-76438794D01*
X139661318Y-76659606D01*
X139625000Y-76888909D01*
X138425000Y-76888909D01*
X138425000Y-76196133D01*
X138444685Y-76129094D01*
X138455149Y-76115090D01*
X139337906Y-75092951D01*
X139396622Y-75055080D01*
X139431752Y-75050000D01*
X142568732Y-75050000D01*
X142635771Y-75069685D01*
X142662051Y-75092344D01*
X143626782Y-76194893D01*
X143644320Y-76214937D01*
X143673651Y-76278352D01*
X143675000Y-76296592D01*
X143675000Y-81257453D01*
X143655315Y-81324492D01*
X143648880Y-81333582D01*
X142662233Y-82602129D01*
X142605536Y-82642961D01*
X142564353Y-82650000D01*
X113849999Y-82650000D01*
X108786164Y-87614545D01*
X108724512Y-87647421D01*
X108699355Y-87650000D01*
X106324999Y-87650000D01*
X104725000Y-89249999D01*
X104725000Y-93951766D01*
X104705315Y-94018805D01*
X104692407Y-94035556D01*
X102561859Y-96359790D01*
X102502048Y-96395907D01*
X102470452Y-96400000D01*
X87680750Y-96400000D01*
X87613711Y-96380315D01*
X87587999Y-96358300D01*
X84652464Y-93050000D01*
X82713015Y-93050000D01*
X82645976Y-93030315D01*
X82616652Y-93004040D01*
X82374389Y-92704896D01*
X82329930Y-92649999D01*
X81963737Y-92197827D01*
X81852637Y-92060641D01*
X81825743Y-91996154D01*
X81825000Y-91982601D01*
X81825000Y-88602155D01*
X82375000Y-88602155D01*
X82375000Y-90150000D01*
X84125000Y-90150000D01*
X84125000Y-90650000D01*
X82375000Y-90650000D01*
X82375000Y-92197844D01*
X82381401Y-92257372D01*
X82381403Y-92257382D01*
X82424352Y-92372534D01*
X82557409Y-92536832D01*
X82632910Y-92593352D01*
X82632913Y-92593354D01*
X82767620Y-92643596D01*
X82767627Y-92643598D01*
X82827155Y-92649999D01*
X82827172Y-92650000D01*
X84375000Y-92650000D01*
X84375000Y-91833012D01*
X84432007Y-91865925D01*
X84559174Y-91900000D01*
X84690826Y-91900000D01*
X84817993Y-91865925D01*
X84875000Y-91833012D01*
X84875000Y-92650000D01*
X86422828Y-92650000D01*
X86422844Y-92649999D01*
X86482372Y-92643598D01*
X86482379Y-92643596D01*
X86617086Y-92593354D01*
X86617093Y-92593350D01*
X86732187Y-92507190D01*
X86732190Y-92507187D01*
X86818350Y-92392093D01*
X86818354Y-92392086D01*
X86868596Y-92257379D01*
X86868598Y-92257372D01*
X86874999Y-92197844D01*
X86875000Y-92197827D01*
X86875000Y-90650000D01*
X85125000Y-90650000D01*
X85125000Y-90150000D01*
X86875000Y-90150000D01*
X86875000Y-88602172D01*
X86874999Y-88602155D01*
X86868598Y-88542627D01*
X86868596Y-88542620D01*
X86819955Y-88412205D01*
X86818354Y-88407913D01*
X86818350Y-88407906D01*
X86795213Y-88376999D01*
X94520500Y-88376999D01*
X94520500Y-88523001D01*
X94557083Y-88659529D01*
X94558288Y-88664028D01*
X94558289Y-88664031D01*
X94631286Y-88790467D01*
X94631288Y-88790470D01*
X94631289Y-88790471D01*
X94734529Y-88893711D01*
X94860971Y-88966712D01*
X95001999Y-89004500D01*
X95002001Y-89004500D01*
X95147999Y-89004500D01*
X95148001Y-89004500D01*
X95289029Y-88966712D01*
X95415471Y-88893711D01*
X95518711Y-88790471D01*
X95591712Y-88664029D01*
X95629500Y-88523001D01*
X95629500Y-88376999D01*
X95591712Y-88235971D01*
X95545774Y-88156403D01*
X95518713Y-88109532D01*
X95518709Y-88109527D01*
X95415472Y-88006290D01*
X95415467Y-88006286D01*
X95289031Y-87933289D01*
X95289030Y-87933288D01*
X95289029Y-87933288D01*
X95148001Y-87895500D01*
X95001999Y-87895500D01*
X94860971Y-87933288D01*
X94860968Y-87933289D01*
X94734532Y-88006286D01*
X94734527Y-88006290D01*
X94631290Y-88109527D01*
X94631286Y-88109532D01*
X94558289Y-88235968D01*
X94558288Y-88235971D01*
X94520500Y-88376999D01*
X86795213Y-88376999D01*
X86732190Y-88292812D01*
X86732187Y-88292809D01*
X86617093Y-88206649D01*
X86617086Y-88206645D01*
X86482379Y-88156403D01*
X86482372Y-88156401D01*
X86422844Y-88150000D01*
X84875000Y-88150000D01*
X84875000Y-88966988D01*
X84817993Y-88934075D01*
X84690826Y-88900000D01*
X84559174Y-88900000D01*
X84432007Y-88934075D01*
X84375000Y-88966988D01*
X84375000Y-88150000D01*
X82827155Y-88150000D01*
X82767627Y-88156401D01*
X82767620Y-88156403D01*
X82632913Y-88206645D01*
X82632906Y-88206649D01*
X82517812Y-88292809D01*
X82517809Y-88292812D01*
X82431649Y-88407906D01*
X82431645Y-88407913D01*
X82381403Y-88542620D01*
X82381401Y-88542627D01*
X82375000Y-88602155D01*
X81825000Y-88602155D01*
X81825000Y-88436880D01*
X81844685Y-88369841D01*
X81856020Y-88354839D01*
X82163567Y-88006286D01*
X82573268Y-87541958D01*
X82632383Y-87504714D01*
X82666248Y-87500000D01*
X91104032Y-87500000D01*
X91104033Y-87500000D01*
X93037786Y-84949091D01*
X93093971Y-84907558D01*
X93136602Y-84900000D01*
X108125000Y-84900000D01*
X108125001Y-84899999D01*
X113275760Y-79637267D01*
X113336720Y-79603124D01*
X113364379Y-79600000D01*
X124504307Y-79600000D01*
X124504308Y-79600000D01*
X125525000Y-78542858D01*
X125525000Y-76888909D01*
X126450000Y-76888909D01*
X126450000Y-77121090D01*
X126486318Y-77350393D01*
X126558065Y-77571205D01*
X126663465Y-77778064D01*
X126720238Y-77856207D01*
X127323958Y-77252487D01*
X127348978Y-77312890D01*
X127420112Y-77419351D01*
X127510649Y-77509888D01*
X127617110Y-77581022D01*
X127677510Y-77606041D01*
X127073791Y-78209759D01*
X127073791Y-78209760D01*
X127151935Y-78266534D01*
X127358794Y-78371934D01*
X127579606Y-78443681D01*
X127808910Y-78480000D01*
X128041090Y-78480000D01*
X128270393Y-78443681D01*
X128491205Y-78371934D01*
X128698071Y-78266530D01*
X128776207Y-78209762D01*
X128776208Y-78209760D01*
X128172488Y-77606041D01*
X128232890Y-77581022D01*
X128339351Y-77509888D01*
X128429888Y-77419351D01*
X128501022Y-77312890D01*
X128526041Y-77252489D01*
X129129760Y-77856208D01*
X129129762Y-77856207D01*
X129186530Y-77778071D01*
X129291934Y-77571205D01*
X129363681Y-77350393D01*
X129400000Y-77121090D01*
X129400000Y-76888909D01*
X129363681Y-76659606D01*
X129291934Y-76438794D01*
X129186534Y-76231935D01*
X129129760Y-76153791D01*
X129129759Y-76153791D01*
X128526041Y-76757510D01*
X128501022Y-76697110D01*
X128429888Y-76590649D01*
X128339351Y-76500112D01*
X128232890Y-76428978D01*
X128172487Y-76403957D01*
X128776207Y-75800238D01*
X128698064Y-75743465D01*
X128491205Y-75638065D01*
X128270393Y-75566318D01*
X128041090Y-75530000D01*
X127808910Y-75530000D01*
X127579606Y-75566318D01*
X127358794Y-75638065D01*
X127151925Y-75743470D01*
X127073791Y-75800237D01*
X127073791Y-75800238D01*
X127677511Y-76403958D01*
X127617110Y-76428978D01*
X127510649Y-76500112D01*
X127420112Y-76590649D01*
X127348978Y-76697110D01*
X127323958Y-76757511D01*
X126720238Y-76153791D01*
X126720237Y-76153791D01*
X126663470Y-76231925D01*
X126558065Y-76438794D01*
X126486318Y-76659606D01*
X126450000Y-76888909D01*
X125525000Y-76888909D01*
X125525000Y-76197939D01*
X125544685Y-76130900D01*
X125557247Y-76114528D01*
X125875831Y-75764086D01*
X126488101Y-75090589D01*
X126547762Y-75054225D01*
X126579854Y-75050000D01*
X129050256Y-75050000D01*
X129117295Y-75069685D01*
G37*
%TD.AperFunction*%
%TD*%
%TA.AperFunction,Conductor*%
%TO.N,3V3DC*%
G36*
X125962859Y-114259191D02*
G01*
X125966257Y-114266651D01*
X125974165Y-114380265D01*
X125978792Y-114446745D01*
X125978794Y-114446755D01*
X126012860Y-114575800D01*
X126012863Y-114575829D01*
X126012868Y-114575828D01*
X126066106Y-114779499D01*
X126064882Y-114788370D01*
X126057745Y-114793778D01*
X126057106Y-114793926D01*
X125777320Y-114850530D01*
X125772680Y-114850530D01*
X125492893Y-114793926D01*
X125485464Y-114788926D01*
X125483745Y-114780138D01*
X125483886Y-114779528D01*
X125537131Y-114575829D01*
X125537143Y-114575783D01*
X125566792Y-114469592D01*
X125579786Y-114380265D01*
X125584074Y-114267021D01*
X125587812Y-114258884D01*
X125595766Y-114255764D01*
X125954586Y-114255764D01*
X125962859Y-114259191D01*
G37*
%TD.AperFunction*%
%TD*%
%TA.AperFunction,Conductor*%
%TO.N,3V3DC*%
G36*
X136642755Y-105217734D02*
G01*
X136681220Y-105256154D01*
X137467712Y-106041722D01*
X137471144Y-106049993D01*
X137467722Y-106058268D01*
X137467712Y-106058278D01*
X136642681Y-106882339D01*
X136634406Y-106885761D01*
X136626135Y-106882329D01*
X136622760Y-106875110D01*
X136619777Y-106841963D01*
X136619777Y-106841962D01*
X136604688Y-106792487D01*
X136580607Y-106750977D01*
X136580606Y-106750976D01*
X136580604Y-106750973D01*
X136548407Y-106716836D01*
X136548404Y-106716834D01*
X136463125Y-106668260D01*
X136463124Y-106668259D01*
X136463121Y-106668258D01*
X136355833Y-106641983D01*
X136355825Y-106641982D01*
X136258013Y-106634977D01*
X136233487Y-106633221D01*
X136233484Y-106633221D01*
X136103073Y-106637193D01*
X135846081Y-106664196D01*
X135845954Y-106664209D01*
X135637796Y-106683795D01*
X135629238Y-106681158D01*
X135625051Y-106673242D01*
X135625000Y-106672146D01*
X135625000Y-105427853D01*
X135628427Y-105419580D01*
X135636700Y-105416153D01*
X135637795Y-105416203D01*
X135845875Y-105435782D01*
X135846125Y-105435810D01*
X135909182Y-105443626D01*
X136168293Y-105466068D01*
X136349374Y-105458917D01*
X136473201Y-105427784D01*
X136555435Y-105376915D01*
X136606045Y-105304322D01*
X136620131Y-105256158D01*
X136622832Y-105225001D01*
X136626960Y-105217056D01*
X136635499Y-105214357D01*
X136642755Y-105217734D01*
G37*
%TD.AperFunction*%
%TD*%
%TA.AperFunction,Conductor*%
%TO.N,3V3DC*%
G36*
X140662859Y-117059191D02*
G01*
X140666257Y-117066651D01*
X140674165Y-117180265D01*
X140678792Y-117246745D01*
X140678794Y-117246755D01*
X140712860Y-117375800D01*
X140712863Y-117375829D01*
X140712868Y-117375828D01*
X140766106Y-117579499D01*
X140764882Y-117588370D01*
X140757745Y-117593778D01*
X140757106Y-117593926D01*
X140477320Y-117650530D01*
X140472680Y-117650530D01*
X140192893Y-117593926D01*
X140185464Y-117588926D01*
X140183745Y-117580138D01*
X140183886Y-117579528D01*
X140237131Y-117375829D01*
X140237143Y-117375783D01*
X140266792Y-117269592D01*
X140279786Y-117180265D01*
X140284074Y-117067021D01*
X140287812Y-117058884D01*
X140295766Y-117055764D01*
X140654586Y-117055764D01*
X140662859Y-117059191D01*
G37*
%TD.AperFunction*%
%TD*%
%TA.AperFunction,Conductor*%
%TO.N,3V3DC*%
G36*
X126038919Y-114902393D02*
G01*
X126057106Y-114906073D01*
X126064535Y-114911073D01*
X126066254Y-114919861D01*
X126066106Y-114920500D01*
X126012885Y-115124103D01*
X126012834Y-115124290D01*
X125983208Y-115230401D01*
X125970214Y-115319730D01*
X125965926Y-115432979D01*
X125962188Y-115441116D01*
X125954234Y-115444236D01*
X125595414Y-115444236D01*
X125587141Y-115440809D01*
X125583742Y-115433348D01*
X125575834Y-115319734D01*
X125571207Y-115253255D01*
X125537139Y-115124199D01*
X125537143Y-115124170D01*
X125537132Y-115124173D01*
X125483893Y-114920498D01*
X125485117Y-114911629D01*
X125492254Y-114906221D01*
X125492886Y-114906074D01*
X125772682Y-114849469D01*
X125777318Y-114849469D01*
X126038919Y-114902393D01*
G37*
%TD.AperFunction*%
%TD*%
%TA.AperFunction,Conductor*%
%TO.N,3V3DC*%
G36*
X126068449Y-114303074D02*
G01*
X126322173Y-114556798D01*
X126325600Y-114565071D01*
X126322728Y-114572750D01*
X126204242Y-114708963D01*
X126137080Y-114824306D01*
X126137065Y-114824331D01*
X126030693Y-115005992D01*
X126023556Y-115011400D01*
X126014685Y-115010176D01*
X126014129Y-115009829D01*
X125776265Y-114852015D01*
X125772984Y-114848734D01*
X125615170Y-114610870D01*
X125613451Y-114602082D01*
X125618451Y-114594653D01*
X125618994Y-114594313D01*
X125800671Y-114487933D01*
X125896762Y-114433787D01*
X125969115Y-114379811D01*
X126052224Y-114302766D01*
X126060619Y-114299655D01*
X126068449Y-114303074D01*
G37*
%TD.AperFunction*%
%TD*%
%TA.AperFunction,Conductor*%
%TO.N,3V3DC*%
G36*
X126845664Y-113709184D02*
G01*
X126975876Y-113745878D01*
X126977534Y-113746485D01*
X127073670Y-113790255D01*
X127074011Y-113790417D01*
X127081610Y-113794214D01*
X127090211Y-113798513D01*
X127090223Y-113798518D01*
X127201895Y-113842006D01*
X127201900Y-113842007D01*
X127201904Y-113842009D01*
X127274539Y-113854814D01*
X127358115Y-113858949D01*
X127366208Y-113862781D01*
X127369236Y-113870635D01*
X127369236Y-114229098D01*
X127365809Y-114237371D01*
X127357838Y-114240794D01*
X127102133Y-114247401D01*
X126844685Y-114292034D01*
X126835948Y-114290071D01*
X126831218Y-114282827D01*
X126774469Y-114002318D01*
X126774469Y-113997680D01*
X126802425Y-113859500D01*
X126831026Y-113718125D01*
X126836026Y-113710697D01*
X126844814Y-113708978D01*
X126845664Y-113709184D01*
G37*
%TD.AperFunction*%
%TD*%
%TA.AperFunction,Conductor*%
%TO.N,3V3DC*%
G36*
X127797749Y-103102270D02*
G01*
X127933959Y-103220754D01*
X127933961Y-103220755D01*
X127933962Y-103220756D01*
X128049330Y-103287933D01*
X128049326Y-103287939D01*
X128049352Y-103287946D01*
X128166513Y-103356550D01*
X128230992Y-103394306D01*
X128236400Y-103401443D01*
X128235176Y-103410314D01*
X128234829Y-103410870D01*
X128077015Y-103648734D01*
X128073734Y-103652015D01*
X127835870Y-103809829D01*
X127827082Y-103811548D01*
X127819653Y-103806548D01*
X127819306Y-103805992D01*
X127728378Y-103650707D01*
X127712933Y-103624330D01*
X127658787Y-103528237D01*
X127604811Y-103455884D01*
X127527766Y-103372776D01*
X127524655Y-103364380D01*
X127528073Y-103356551D01*
X127781799Y-103102825D01*
X127790071Y-103099399D01*
X127797749Y-103102270D01*
G37*
%TD.AperFunction*%
%TD*%
%TA.AperFunction,Conductor*%
%TO.N,3V3DC*%
G36*
X115149255Y-112509191D02*
G01*
X115152661Y-112516762D01*
X115158096Y-112607188D01*
X115158097Y-112607192D01*
X115174542Y-112683253D01*
X115174543Y-112683254D01*
X115227408Y-112797992D01*
X115271386Y-112884407D01*
X115272155Y-112886317D01*
X115315499Y-113029159D01*
X115314622Y-113038070D01*
X115307700Y-113043752D01*
X115306623Y-113044024D01*
X115027320Y-113100530D01*
X115022680Y-113100530D01*
X114743276Y-113044004D01*
X114735847Y-113039004D01*
X114734128Y-113030216D01*
X114734374Y-113029228D01*
X114773435Y-112896730D01*
X114774192Y-112894806D01*
X114779391Y-112884407D01*
X114822493Y-112798186D01*
X114822682Y-112797825D01*
X114836693Y-112772341D01*
X114880456Y-112665829D01*
X114893307Y-112595938D01*
X114897423Y-112516856D01*
X114901275Y-112508772D01*
X114909107Y-112505764D01*
X115140982Y-112505764D01*
X115149255Y-112509191D01*
G37*
%TD.AperFunction*%
%TD*%
M02*
